<svg id="Grupo_1071764" data-name="Grupo 1071764" xmlns="http://www.w3.org/2000/svg" xmlns:xlink="http://www.w3.org/1999/xlink" width="400" height="365.167" viewBox="0 0 400 365.167">
  <defs>
    <clipPath id="clip-path">
      <rect id="Rectángulo_356285" data-name="Rectángulo 356285" width="400" height="365.168" fill="none"/>
    </clipPath>
    <clipPath id="clip-path-3">
      <rect id="Rectángulo_356262" data-name="Rectángulo 356262" width="75.277" height="121.426" fill="none"/>
    </clipPath>
    <clipPath id="clip-path-4">
      <rect id="Rectángulo_356263" data-name="Rectángulo 356263" width="76.353" height="119.281" fill="none"/>
    </clipPath>
    <clipPath id="clip-path-5">
      <rect id="Rectángulo_356264" data-name="Rectángulo 356264" width="10.859" height="11.164" fill="none"/>
    </clipPath>
    <clipPath id="clip-path-6">
      <rect id="Rectángulo_356265" data-name="Rectángulo 356265" width="10.881" height="12.74" fill="none"/>
    </clipPath>
    <clipPath id="clip-path-7">
      <rect id="Rectángulo_356266" data-name="Rectángulo 356266" width="18.504" height="9.092" fill="none"/>
    </clipPath>
    <clipPath id="clip-path-8">
      <rect id="Rectángulo_356267" data-name="Rectángulo 356267" width="71.451" height="70.382" fill="none"/>
    </clipPath>
    <clipPath id="clip-path-9">
      <rect id="Rectángulo_356268" data-name="Rectángulo 356268" width="31.382" height="4.794" fill="none"/>
    </clipPath>
    <clipPath id="clip-path-10">
      <rect id="Rectángulo_356269" data-name="Rectángulo 356269" width="48.962" height="41.874" fill="none"/>
    </clipPath>
    <clipPath id="clip-path-11">
      <rect id="Rectángulo_356270" data-name="Rectángulo 356270" width="23.188" height="18.082" fill="none"/>
    </clipPath>
    <clipPath id="clip-path-12">
      <rect id="Rectángulo_356271" data-name="Rectángulo 356271" width="16.218" height="9.054" fill="none"/>
    </clipPath>
    <clipPath id="clip-path-13">
      <rect id="Rectángulo_356272" data-name="Rectángulo 356272" width="15.709" height="7.623" fill="none"/>
    </clipPath>
    <clipPath id="clip-path-14">
      <rect id="Rectángulo_356273" data-name="Rectángulo 356273" width="5.189" height="11.306" fill="none"/>
    </clipPath>
    <clipPath id="clip-path-15">
      <rect id="Rectángulo_356274" data-name="Rectángulo 356274" width="4.15" height="9.113" fill="none"/>
    </clipPath>
    <clipPath id="clip-path-16">
      <rect id="Rectángulo_356275" data-name="Rectángulo 356275" width="7.283" height="10.089" fill="none"/>
    </clipPath>
    <clipPath id="clip-path-17">
      <rect id="Rectángulo_356276" data-name="Rectángulo 356276" width="6.061" height="7.63" fill="none"/>
    </clipPath>
    <clipPath id="clip-path-18">
      <rect id="Rectángulo_356277" data-name="Rectángulo 356277" width="33.576" height="10.509" fill="none"/>
    </clipPath>
    <clipPath id="clip-path-19">
      <rect id="Rectángulo_356278" data-name="Rectángulo 356278" width="65.404" height="146.041" fill="none"/>
    </clipPath>
    <clipPath id="clip-path-20">
      <rect id="Rectángulo_356279" data-name="Rectángulo 356279" width="24.004" height="11.032" fill="none"/>
    </clipPath>
    <clipPath id="clip-path-21">
      <rect id="Rectángulo_356280" data-name="Rectángulo 356280" width="21.675" height="10.119" fill="none"/>
    </clipPath>
    <clipPath id="clip-path-22">
      <rect id="Rectángulo_356281" data-name="Rectángulo 356281" width="58.309" height="15.36" fill="none"/>
    </clipPath>
    <clipPath id="clip-path-23">
      <rect id="Rectángulo_356282" data-name="Rectángulo 356282" width="52.618" height="13.859" fill="none"/>
    </clipPath>
    <clipPath id="clip-path-24">
      <rect id="Rectángulo_356283" data-name="Rectángulo 356283" width="38.796" height="18.133" fill="none"/>
    </clipPath>
  </defs>
  <g id="Grupo_1071763" data-name="Grupo 1071763" clip-path="url(#clip-path)">
    <g id="Grupo_1071762" data-name="Grupo 1071762">
      <g id="Grupo_1071761" data-name="Grupo 1071761" clip-path="url(#clip-path)">
        <path id="Trazado_771138" data-name="Trazado 771138" d="M144.369,33.277c-21.116-2.189-42.817-4.334-63.283,1.311s-39.708,20.936-43.6,41.807c-4.441,23.821,11.552,48.571,4.835,71.852-3.661,12.689-13.453,22.491-20.871,33.417C-1.22,215.055-.454,262.655,23.282,295.3s68.779,48.049,107.534,36.778c26.38-7.673,49.746-26.322,77.192-27.559,19.171-.865,37.5,6.97,55.592,13.358s38.1,11.428,56.208,5.072c26.5-9.3,39.491-39.815,41.521-67.828s-3.711-56.293-.219-84.161c3.573-28.512,16.71-57.045,9.658-84.9-6.836-27.006-32.189-46.543-59.329-52.827-27.96-6.474-54.3,1.1-81.75,5.883-27.49,4.788-57.853-2.986-85.32-5.834" transform="translate(-0.283 -1.755)" fill="#fdebb9"/>
        <path id="Trazado_771139" data-name="Trazado 771139" d="M3.583,142.654c2.893,5.853,8.342,11.311,14.864,11,5.794-.276,10.565-5.218,12.3-10.752s1.029-11.526-.107-17.214c-1.148-5.747-2.792-11.572-6.359-16.221-2.7-3.526-7.956-7.615-12.744-7.066-4.207.483-6.217,4.806-7.859,8.243a37.08,37.08,0,0,0-.1,32.009" transform="translate(0 -5.848)" fill="#f46464"/>
        <path id="Trazado_771140" data-name="Trazado 771140" d="M13.551,79.42C22.917,86.014,33.719,68,23.515,61.394c-10.964-7.1-17.982,12.383-9.964,18.027" transform="translate(-0.577 -3.42)" fill="#f46464"/>
        <path id="Trazado_771141" data-name="Trazado 771141" d="M409.974,96.668a8.95,8.95,0,0,0,8.636-.1c7.565-4.31,5.4-18.246-4.061-17.785-8.735.425-12.476,13.458-4.575,17.882" transform="translate(-23.176 -4.501)" fill="#f46464"/>
        <path id="Trazado_771142" data-name="Trazado 771142" d="M358.23,6.265c-4.065,5.493-3.156,13.536.62,19.231s9.855,9.435,16.033,12.357c3.858,1.824,8.088,3.436,12.3,2.741,13.511-2.227,12.36-18.552,8.342-27.866C391.821,4.141,385.97,1.073,376.86.185c-6.711-.654-14.3.232-18.63,6.081" transform="translate(-20.315 0)" fill="#f46464"/>
        <path id="Trazado_771143" data-name="Trazado 771143" d="M345.589,342.952c3.37-3.13,7.435-5.4,11.458-7.628l14.528-8.066c4.906-2.724,9.9-5.482,15.388-6.655s11.636-.546,16,2.974,6.211,10.348,3.1,15.015c-4.221,6.325-14.862,6.3-18.072,13.2-1.373,2.948-.932,6.379-1.34,9.607-1.312,10.388-11.637,17.755-22.006,19.211-6.61.929-30.824.514-31.377-8.2-.62-9.779,5.289-22.921,12.32-29.451" transform="translate(-19.038 -18.286)" fill="#0d3f56"/>
        <path id="Trazado_771144" data-name="Trazado 771144" d="M354.433,375.992c1.207-2.473,2.294-5.073,3.344-7.586.515-1.229,1.036-2.471,1.575-3.712a.885.885,0,0,1-.378-.454,26.427,26.427,0,0,1-.739-15.286.891.891,0,1,1,1.727.439,24.63,24.63,0,0,0,.345,13.16,59.284,59.284,0,0,1,3.645-6.889,46.112,46.112,0,0,1,3.231-4.494.872.872,0,0,1-.121-.29,33.475,33.475,0,0,1,1.141-18.318.891.891,0,1,1,1.68.593,32.156,32.156,0,0,0-1.268,16.31,64.861,64.861,0,0,1,10.6-9.44c1.26-.914,2.544-1.783,3.839-2.629a15.718,15.718,0,0,1,6.722-12.783.891.891,0,1,1,1.011,1.468,14.15,14.15,0,0,0-5.893,10.139c4.272-2.676,8.662-5.069,12.954-7.4a.891.891,0,1,1,.85,1.566c-4.341,2.357-8.782,4.778-13.082,7.484a17.524,17.524,0,0,0,12.595-.636.891.891,0,0,1,.736,1.623,19.277,19.277,0,0,1-15.2.218c-1.177.774-2.343,1.565-3.486,2.393a63.241,63.241,0,0,0-10.167,9.029,25.623,25.623,0,0,0,15.331-2.2.891.891,0,0,1,.786,1.6,26.876,26.876,0,0,1-17.452,2.172,44.864,44.864,0,0,0-3.294,4.545,79.451,79.451,0,0,0-5.678,11.62,26.867,26.867,0,0,0,18.978-5.478.891.891,0,0,1,1.1,1.4,28.728,28.728,0,0,1-17.534,5.992,27.131,27.131,0,0,1-3.264-.208c-.952,2.272-1.935,4.592-3.029,6.835q-1.1,2.263-2.309,4.243c-.664-.043-1.331-.094-2-.156a49.806,49.806,0,0,0,2.711-4.868" transform="translate(-20.095 -18.537)" fill="#376f92"/>
        <path id="Trazado_771145" data-name="Trazado 771145" d="M321.758,361.422q-.472-6.694-.945-13.387c-.385-5.454.757-11.377,5.757-14.494,3.083-1.923,7.142-2.2,9.733-4.747,2.229-2.193,2.816-5.6,2.535-8.714s-1.3-6.115-1.792-9.2A27.822,27.822,0,0,1,366.352,278.7a20.824,20.824,0,0,1,11.36,3.969,13.858,13.858,0,0,1,5.581,10.4c.078,4.025-1.911,7.792-4.161,11.13a63.633,63.633,0,0,1-13.52,14.513A28.529,28.529,0,0,0,361,322.756a7.419,7.419,0,0,0-1.9,5.656c.5,3.325,4,5.7,4.157,9.063.124,2.73-2.1,5.065-4.563,6.236s-5.239,1.521-7.822,2.411-5.163,2.566-5.938,5.185c-.555,1.876-.086,3.878.094,5.827a19.723,19.723,0,0,1-6.392,16.248c-2.641,2.36-6.6,4.81-10.249,4.844-5.457.052-5.849-5.735-6.148-9.973q-.242-3.417-.483-6.832" transform="translate(-18.325 -15.92)" fill="#376f92"/>
        <path id="Trazado_771146" data-name="Trazado 771146" d="M356.519,338.865a14.25,14.25,0,0,1-13.634,1.1c2.542-1.169,5.142-2.405,6.866-4.757,2.555-3.484,2.205-7.879,1.867-12.129-.059-.753-.119-1.5-.161-2.237a36.425,36.425,0,0,1,.157-5.833.89.89,0,0,0,.243-.023,27.777,27.777,0,0,0,15.351-9.867.891.891,0,0,0-1.4-1.1,25.98,25.98,0,0,1-13.946,9.114,38.839,38.839,0,0,1,12.909-23.4.891.891,0,1,0-1.155-1.357,40.1,40.1,0,0,0-11.26,16.079,17.634,17.634,0,0,1-1.541-12.129.9.9,0,0,0-.663-1.071.889.889,0,0,0-1.071.662,19.421,19.421,0,0,0,2.4,14.624.814.814,0,0,0,.1.111,39.441,39.441,0,0,0-1.9,14.295c.042.749.1,1.51.163,2.277.312,3.925.636,7.984-1.527,10.933a9.147,9.147,0,0,1-2.331,2.159,23.669,23.669,0,0,1-1.264-16.395.89.89,0,0,0-.608-1.1l0,0a.891.891,0,0,0-1.1.609,25.465,25.465,0,0,0,1.439,17.8c-.8.423-1.642.816-2.505,1.212a26.916,26.916,0,0,0-5.015,2.756c-4.275,3.216-6.131,8.527-7.435,13.881a25.548,25.548,0,0,1-2.349-11.575.891.891,0,0,0-1.781-.068,27.3,27.3,0,0,0,3.516,14.357,176.54,176.54,0,0,0-3.272,20.144,4.706,4.706,0,0,0,1.709.7q.576-5.673,1.513-11.3l.009,0a22.113,22.113,0,0,0,10.686-10.363.891.891,0,1,0-1.6-.785,20.637,20.637,0,0,1-8.725,8.967q.816-4.523,1.865-9c1.238-5.25,2.934-10.524,6.935-13.534a18.174,18.174,0,0,1,2.863-1.693,14.769,14.769,0,0,0,3.4,1.444,16.083,16.083,0,0,0,13.265-2.037.891.891,0,1,0-1.007-1.47" transform="translate(-18.588 -16.464)" fill="#0d3f56"/>
        <path id="Trazado_771147" data-name="Trazado 771147" d="M67.159,340.465c-3.371-3.131-7.435-5.4-11.458-7.628l-14.528-8.066c-4.906-2.724-9.9-5.482-15.389-6.655s-11.636-.546-16,2.974-6.211,10.348-3.1,15.015c4.221,6.325,14.862,6.3,18.072,13.2,1.373,2.948.932,6.379,1.34,9.607C27.407,369.3,37.733,376.665,48.1,378.12c6.61.929,30.824.514,31.377-8.2.62-9.779-5.289-22.921-12.32-29.451" transform="translate(-0.293 -18.144)" fill="#206a72"/>
        <path id="Trazado_771148" data-name="Trazado 771148" d="M59.93,373.506c-1.207-2.473-2.294-5.073-3.344-7.586-.515-1.23-1.036-2.471-1.575-3.713a.879.879,0,0,0,.378-.453,26.424,26.424,0,0,0,.739-15.285.891.891,0,1,0-1.727.438,24.629,24.629,0,0,1-.345,13.16,59.373,59.373,0,0,0-3.645-6.89,46.37,46.37,0,0,0-3.231-4.493.873.873,0,0,0,.121-.29,33.475,33.475,0,0,0-1.141-18.318.891.891,0,1,0-1.68.593,32.167,32.167,0,0,1,1.268,16.31,64.863,64.863,0,0,0-10.595-9.44c-1.26-.914-2.544-1.783-3.839-2.629a15.719,15.719,0,0,0-6.722-12.783.891.891,0,1,0-1.012,1.467,14.152,14.152,0,0,1,5.894,10.14c-4.272-2.676-8.662-5.069-12.954-7.4a.891.891,0,1,0-.85,1.566c4.341,2.357,8.782,4.777,13.082,7.484a17.529,17.529,0,0,1-12.595-.635.891.891,0,0,0-.736,1.623,19.277,19.277,0,0,0,15.2.218c1.176.774,2.342,1.565,3.486,2.393a63.242,63.242,0,0,1,10.167,9.029,25.627,25.627,0,0,1-15.332-2.2.891.891,0,0,0-.785,1.6,26.876,26.876,0,0,0,17.452,2.172,44.855,44.855,0,0,1,3.294,4.545,79.451,79.451,0,0,1,5.678,11.62A26.867,26.867,0,0,1,35.6,360.267a.891.891,0,1,0-1.1,1.4,28.728,28.728,0,0,0,17.534,5.992,27.132,27.132,0,0,0,3.264-.208c.952,2.272,1.935,4.592,3.028,6.835q1.1,2.263,2.309,4.243c.664-.043,1.331-.094,2-.157a49.807,49.807,0,0,1-2.711-4.868" transform="translate(-0.851 -18.395)" fill="#2c868e"/>
        <path id="Trazado_771149" data-name="Trazado 771149" d="M96.326,362.575c3.053-4.61,3.617-11.352-.2-15.351-3.415-3.576-9.243-4.052-12.514-7.762-4-4.541-2.422-11.52-.8-17.353s2.647-13.093-1.931-17.056c-3.743-3.24-9.358-2.539-14.16-3.746a17.761,17.761,0,0,1-12.695-12.931c-.635-2.742-.6-5.63-1.5-8.3s-3.145-5.214-5.959-5.165c-3.884.068-5.963,4.781-5.83,8.663.206,6.016,3.3,12.112,1.393,17.821-1.926,5.77-8.579,9.58-8.874,15.657-.223,4.576,3.451,8.5,7.529,10.59s8.69,2.914,12.866,4.8,8.156,5.334,8.608,9.893c.3,2.966-.951,5.863-1.162,8.836-.408,5.754,3.18,11.2,7.85,14.59,3.544,2.569,10.78,6.783,15.348,6.251,4.354-.506,9.754-5.989,12.039-9.438" transform="translate(-1.899 -15.707)" fill="#2c868e"/>
        <path id="Trazado_771150" data-name="Trazado 771150" d="M91.852,350.758a.872.872,0,0,0-.9.881,15.006,15.006,0,0,1-3.689,9.551,59.112,59.112,0,0,0-4.706-14.437c-3.3-7-7.7-13.458-12.13-19.693A23.938,23.938,0,0,0,75,309.815a.891.891,0,1,0-1.769.223,22.152,22.152,0,0,1-3.9,15.5c-.317-.442-.634-.887-.949-1.328-1.958-2.737-3.985-5.567-5.893-8.391-5.871-8.687-12.7-20.318-13.366-33.257a.891.891,0,1,0-1.779.091c.692,13.378,7.668,25.285,13.669,34.164,1.414,2.093,2.885,4.17,4.349,6.224a43.449,43.449,0,0,1-23.5-7.237.891.891,0,1,0-.989,1.483A45.232,45.232,0,0,0,65.8,324.826c.278,0,.555-.007.833-.011l.308.432c5.048,7.052,10.268,14.344,14,22.267a60.274,60.274,0,0,1,3.278,8.588,18.405,18.405,0,0,1-14.616-7.6.891.891,0,0,0-1.456,1.028,20.251,20.251,0,0,0,16.2,8.362c.121,0,.241,0,.362-.007a43.321,43.321,0,0,1,1.378,14.2,11.277,11.277,0,0,0,1.842-.8,42.125,42.125,0,0,0-.324-7.879,16.561,16.561,0,0,0,5.124-11.745.891.891,0,0,0-.881-.9" transform="translate(-2.313 -16.095)" fill="#206a72"/>
        <path id="Trazado_771151" data-name="Trazado 771151" d="M186.645,347c1.5-3.256,3.843-6.537,7.339-7.335,2.211-.5,4.592.071,6.75-.623,3.064-.985,4.811-4.233,5.576-7.36s.881-6.44,2.185-9.382,4.359-5.506,7.5-4.8c1.452.325,2.712,1.3,4.183,1.52,3.246.484,5.763-2.722,7.245-5.65,1.8-3.564,3.312-7.413,6.184-10.191s7.671-4.108,10.873-1.719c2.9,2.163,3.317,6.519,2.028,9.9s-3.888,6.057-6.271,8.779c-1.85,2.114-3.7,5.063-2.353,7.529,1.247,2.289,4.377,2.534,6.65,3.811,3.169,1.78,4.623,5.85,3.933,9.419a13.819,13.819,0,0,1-6.24,8.588,31.4,31.4,0,0,1-10.117,3.915c-3.669.868-7.97,1.959-9.379,5.456a14.61,14.61,0,0,0-.685,3.392,23.772,23.772,0,0,1-13.459,17.889c-5.512,2.5-15.518,3.6-20.488-.853-4.362-3.906-4.888-13.621-4.648-18.959A35.634,35.634,0,0,1,186.645,347" transform="translate(-10.478 -17.153)" fill="#ef9722"/>
        <path id="Trazado_771152" data-name="Trazado 771152" d="M239.274,338.729a29.964,29.964,0,0,1-21.547,2.483,212.319,212.319,0,0,1,19.729-27.983.891.891,0,1,0-1.368-1.142,213.835,213.835,0,0,0-18.39,25.737,23.549,23.549,0,0,1-.024-13.009.891.891,0,1,0-1.712-.493,25.31,25.31,0,0,0,.525,15.505,217.493,217.493,0,0,0-12.174,23.657,19.537,19.537,0,0,1-4.626-14.776.891.891,0,0,0-.789-.982.9.9,0,0,0-.982.789,21.323,21.323,0,0,0,5.621,16.764q-3.715,8.665-6.666,17.618c.612.048,1.229.077,1.851.077q1.833-5.521,3.959-10.949a17.4,17.4,0,0,0,2.692.214,18.483,18.483,0,0,0,12.694-5.066.891.891,0,0,0-1.237-1.282,16.635,16.635,0,0,1-13.47,4.431A215.543,215.543,0,0,1,216.8,342.812a31.353,31.353,0,0,0,8.459,1.162,31.709,31.709,0,0,0,14.847-3.671.891.891,0,0,0-.837-1.574" transform="translate(-11.248 -17.812)" fill="#ffba52"/>
        <path id="Trazado_771153" data-name="Trazado 771153" d="M171.966,364.288q-2.284-6.309-4.566-12.619c-1.86-5.141-2.38-11.15,1.577-15.515,2.441-2.692,6.27-4.068,8.066-7.226,1.545-2.719,1.18-6.156.058-9.076s-2.918-5.527-4.239-8.362a27.822,27.822,0,0,1,19.4-38.961,20.813,20.813,0,0,1,12.012.713,13.863,13.863,0,0,1,8.21,8.485c1.175,3.85.291,8.017-.962,11.842a63.608,63.608,0,0,1-9.04,17.654,28.638,28.638,0,0,0-3.333,5.149,7.424,7.424,0,0,0-.281,5.96c1.389,3.062,5.41,4.394,6.476,7.583.865,2.591-.632,5.445-2.686,7.246s-4.624,2.894-6.865,4.456-4.266,3.878-4.3,6.61c-.021,1.956.978,3.754,1.683,5.58a19.721,19.721,0,0,1-1.708,17.376c-1.9,2.993-5.032,6.428-8.536,7.461-5.235,1.541-7.193-3.92-8.639-7.914l-2.331-6.44" transform="translate(-9.483 -15.539)" fill="#ffba52"/>
        <path id="Trazado_771154" data-name="Trazado 771154" d="M199.089,333.233a14.25,14.25,0,0,1-12.814,4.786c2.125-1.819,4.289-3.719,5.306-6.451,1.5-4.05-.032-8.182-1.518-12.178-.264-.708-.525-1.411-.767-2.107a36.315,36.315,0,0,1-1.444-5.654.893.893,0,0,0,.228-.089,27.776,27.776,0,0,0,12.071-13.686.891.891,0,0,0-1.651-.672,25.986,25.986,0,0,1-10.925,12.577,38.837,38.837,0,0,1,6.023-26.041.891.891,0,0,0-1.482-.99,40.1,40.1,0,0,0-6.438,18.543,17.631,17.631,0,0,1-4.8-11.246.9.9,0,0,0-.931-.85.891.891,0,0,0-.85.93,19.426,19.426,0,0,0,6.3,13.413.785.785,0,0,0,.129.078,39.45,39.45,0,0,0,2.081,14.27c.246.708.512,1.424.78,2.145,1.373,3.69,2.793,7.507,1.518,10.935a9.163,9.163,0,0,1-1.652,2.714,23.662,23.662,0,0,1-5.7-15.425.892.892,0,0,0-.886-.9h0a.891.891,0,0,0-.891.886,25.454,25.454,0,0,0,6.248,16.734c-.654.625-1.359,1.232-2.08,1.85a26.9,26.9,0,0,0-4.07,4.02c-3.233,4.263-3.568,9.878-3.36,15.385a25.537,25.537,0,0,1-5.421-10.493.891.891,0,0,0-1.732.422,27.3,27.3,0,0,0,7.3,12.849,176.511,176.511,0,0,0,2.357,20.273,4.689,4.689,0,0,0,1.835.2q-1-5.613-1.631-11.282l.008,0a22.115,22.115,0,0,0,7.449-12.889.891.891,0,1,0-1.753-.319,20.639,20.639,0,0,1-5.944,11.01q-.451-4.572-.664-9.163c-.244-5.389-.053-10.925,2.973-14.913a18.122,18.122,0,0,1,2.292-2.412,14.767,14.767,0,0,0,3.665.46,16.084,16.084,0,0,0,12.2-5.584.891.891,0,1,0-1.37-1.139" transform="translate(-9.732 -16.13)" fill="#ef9722"/>
        <path id="Trazado_771155" data-name="Trazado 771155" d="M135.342,154.758c-.624-1.667-2.136-2.812-3.2-4.239a10.222,10.222,0,0,1-1.711-3.786,40.85,40.85,0,0,1,.728-4.2c.162-.771.324-1.543.462-2.319a38.653,38.653,0,0,0-2.745-22.127c-1.792-5.344-5.192-10.263-10.064-13.071-10.381-5.981-24.315.795-27.831,11.839-2.993,4.961-3.5,11.07-3.567,16.509-.012.965-.013,1.935-.013,2.907,0,5.254-.009,10.687-1.794,15.627-.509,1.409-1.171,2.793-1.811,4.132-.509,1.064-1.035,2.165-1.488,3.281a13.911,13.911,0,0,0-1.139,8.157,8.114,8.114,0,0,0,1.029,2.564c.008.029.009.058.017.087a12,12,0,0,0,6.156,7.206,24.289,24.289,0,0,0,9.382,2.405,35.42,35.42,0,0,0,17.409-2.488c6.556-2.928,11.644-8.3,16.549-13.548a18.369,18.369,0,0,0,3.112-4.014,6.2,6.2,0,0,0,.518-4.922M88.058,151.4c-1.174,3.128-3.025,5.954-4.406,9a17.839,17.839,0,0,0-1.749,6.765,13.326,13.326,0,0,1,1.123-7.565c.444-1.094.965-2.184,1.469-3.238.648-1.356,1.318-2.757,1.841-4.2,1.83-5.066,1.835-10.569,1.84-15.889,0-.968,0-1.935.013-2.9.051-4.22.372-8.849,1.94-12.98-.787,4.5-.571,9.187-.388,13.784.232,5.806.36,11.789-1.683,17.228m42.8-11.324c-.137.768-.3,1.531-.457,2.295-.121.575-.24,1.159-.353,1.746a48.723,48.723,0,0,1,.335-7.468,56.614,56.614,0,0,0-.026-11.754,37.4,37.4,0,0,1,.5,15.18" transform="translate(-4.625 -5.873)" fill="#7f3724"/>
        <path id="Trazado_771156" data-name="Trazado 771156" d="M116.228,139.806c9.559-2.685,12.244-12.044,9.481-21.882s-9.929-16.429-19.488-13.744-17.89,13.63-15.126,23.468,15.575,14.844,25.134,12.158" transform="translate(-5.174 -5.918)" fill="#7f3724"/>
        <path id="Trazado_771157" data-name="Trazado 771157" d="M99.92,117.13c2.517-9.759,19.718-10.983,22.717-4.484,6.17,13.366,5.624,19.63,2.56,23.928-3.545,4.974-6.613,5.227-4.581,13.287a5.8,5.8,0,0,1-10.366,2.614,50.1,50.1,0,0,0-8.265-17.874s-3.1-13.446-2.065-17.47" transform="translate(-5.697 -6.205)" fill="#ff9c88"/>
        <path id="Trazado_771158" data-name="Trazado 771158" d="M114.133,128.9a1.089,1.089,0,1,0,.789-1.322,1.089,1.089,0,0,0-.789,1.322" transform="translate(-6.519 -7.287)"/>
        <path id="Trazado_771159" data-name="Trazado 771159" d="M115.177,128.367a.4.4,0,1,0,.289-.484.4.4,0,0,0-.289.484" transform="translate(-6.58 -7.306)" fill="#fff"/>
        <path id="Trazado_771160" data-name="Trazado 771160" d="M122.792,126.72a1.089,1.089,0,1,0,.789-1.322,1.089,1.089,0,0,0-.789,1.322" transform="translate(-7.014 -7.162)"/>
        <path id="Trazado_771161" data-name="Trazado 771161" d="M123.836,126.183a.4.4,0,1,0,.289-.484.4.4,0,0,0-.289.484" transform="translate(-7.074 -7.181)" fill="#fff"/>
        <path id="Trazado_771162" data-name="Trazado 771162" d="M120.933,122.53a3.563,3.563,0,0,1,4.351-.873.718.718,0,0,1,.317.849.52.52,0,0,1-.734.3,2.554,2.554,0,0,0-1.955-.141,2.592,2.592,0,0,0-.872.494c-.23.2-.428.488-.766.393a.564.564,0,0,1-.222-.126.713.713,0,0,1-.121-.9" transform="translate(-6.903 -6.928)" fill="#7f3724"/>
        <path id="Trazado_771163" data-name="Trazado 771163" d="M116.273,123.7a4.558,4.558,0,0,0-4.875,1.454.641.641,0,1,0,1.01.791,3.2,3.2,0,0,1,1.919-1.108,3.478,3.478,0,0,1,1.14-.018c.333.051.685.2.979-.053a.62.62,0,0,0,.161-.223.646.646,0,0,0-.334-.844" transform="translate(-6.357 -7.056)" fill="#7f3724"/>
        <path id="Trazado_771164" data-name="Trazado 771164" d="M121.408,133.753a3.848,3.848,0,0,0,1.644-.872.569.569,0,1,0-.759-.847,2.988,2.988,0,0,1-3.556.226.569.569,0,1,0-.727.875,4.071,4.071,0,0,0,3.4.618" transform="translate(-6.731 -7.535)" fill="#dd6c5e"/>
        <path id="Trazado_771165" data-name="Trazado 771165" d="M122.07,130.106a.143.143,0,0,0,.107-.133c.034-.965-.349-1.195-.676-1.216a1.372,1.372,0,0,0-1.033.515.143.143,0,0,0,0,.2.145.145,0,0,0,.2,0,1.111,1.111,0,0,1,.81-.429c.293.019.432.33.41.923a.142.142,0,0,0,.138.146.138.138,0,0,0,.04,0" transform="translate(-6.88 -7.356)" fill="#dd6c5e"/>
        <path id="Trazado_771166" data-name="Trazado 771166" d="M98.258,137.092c1.836,1.327,4.177,1.222,5.231-.236s.419-3.713-1.417-5.041-4.177-1.221-5.23.236-.42,3.714,1.416,5.041" transform="translate(-5.504 -7.478)" fill="#ff9c88"/>
        <path id="Trazado_771167" data-name="Trazado 771167" d="M98.035,132.716a2.511,2.511,0,0,1,2.15-.5,2.051,2.051,0,0,1,.979.43,1.248,1.248,0,0,1,.455,1.071,1.768,1.768,0,0,1-.413.841,1.715,1.715,0,0,0-.294.5.64.64,0,0,0,1.017.675.284.284,0,1,1,.357.442,1.168,1.168,0,0,1-.454.224,1.2,1.2,0,0,1-1.466-1.5,2.145,2.145,0,0,1,.385-.679,1.318,1.318,0,0,0,.3-.57.688.688,0,0,0-.26-.571,1.2,1.2,0,0,0-.263-.158,1.162,1.162,0,0,0-.721.471,1.016,1.016,0,0,0-.037.868.284.284,0,0,1-.147.374.245.245,0,0,1-.044.015.285.285,0,0,1-.33-.163,1.575,1.575,0,0,1,.058-1.364,1.276,1.276,0,0,1,.341-.386,1.788,1.788,0,0,0-1.234.4,1.1,1.1,0,0,0-.208,1.43.285.285,0,1,1-.442.358,1.665,1.665,0,0,1,.27-2.212" transform="translate(-5.568 -7.551)" fill="#dd6c5e"/>
        <path id="Trazado_771168" data-name="Trazado 771168" d="M104.146,126.265a51.857,51.857,0,0,0,6.521-12.8q-1.245,3.786-2.488,7.57a10.912,10.912,0,0,0,9.032-8.182,14.333,14.333,0,0,1-2.163,5.438,9.457,9.457,0,0,0,6.917-4.09,4.556,4.556,0,0,0,.9-3.329,5.014,5.014,0,0,0-2.941-3.142,15.393,15.393,0,0,0-11.756-.753,16.668,16.668,0,0,0-9.041,7.624,18.192,18.192,0,0,0-1.987,11.7c.237,1.444.972,3.494,2.764,3.129a6.911,6.911,0,0,0,4.238-3.17" transform="translate(-5.536 -6.065)" fill="#7f3724"/>
        <path id="Trazado_771169" data-name="Trazado 771169" d="M103.819,199.166l-1.562-37.9a7.538,7.538,0,0,1,6.015-7.695l9.3-1.909,9.3,1.909a7.54,7.54,0,0,1,6.016,7.695l-1.563,37.9,8.538,22.232H95.281Z" transform="translate(-5.444 -8.665)" fill="#ff9c88"/>
        <path id="Trazado_771170" data-name="Trazado 771170" d="M132.427,306.267h9.656c2.7,21.238-.146,41.65-1.731,65.972l-7.087.241c.159-28.9-7.677-45.7-.838-66.214" transform="translate(-7.406 -17.498)" fill="#ff9c88"/>
        <path id="Trazado_771171" data-name="Trazado 771171" d="M131.663,301.988c-3.415-18.3-8.883-37.733-10.21-57.836L140,228.335c5.891,18.155,3.952,43.435,1.3,73.093Z" transform="translate(-6.939 -13.045)" fill="#ff9c88"/>
        <path id="Trazado_771172" data-name="Trazado 771172" d="M85.369,305.338l8.978,3.556C88.694,327.4,79.9,348.228,69.467,370.258l-6.212-2.46c10.791-26.813,9.185-44.479,22.114-62.46" transform="translate(-3.614 -17.445)" fill="#ff9c88"/>
        <path id="Trazado_771173" data-name="Trazado 771173" d="M86.136,300.052c2.052-18.506,2.467-38.686,7.04-58.307L115.519,232c.361,19.084-8.841,42.709-20,70.316Z" transform="translate(-4.921 -13.255)" fill="#ff9c88"/>
        <path id="Trazado_771174" data-name="Trazado 771174" d="M100.186,204.071s-8.7,17.248-11.69,30.606-13.756,63.806-19.739,80.355c0,0,7.952,11.365,28.313,8.773,0,0,15.046-55.63,18.988-79.357,0,0,3.542,28.911,3.384,52.867-.1,14.322-1.467,26.092-1.467,26.092s10.2,5.549,28.146-1.014c0,0-.5-65.982-4.387-87.317s-9.92-31.005-9.92-31.005Z" transform="translate(-3.928 -11.659)" fill="#376f92"/>
        <g id="Grupo_1071697" data-name="Grupo 1071697" transform="translate(66.85 192.411)" opacity="0.3" style="mix-blend-mode: overlay;isolation: isolate">
          <g id="Grupo_1071696" data-name="Grupo 1071696">
            <g id="Grupo_1071695" data-name="Grupo 1071695" clip-path="url(#clip-path-3)">
              <path id="Trazado_771175" data-name="Trazado 771175" d="M146.029,307.494q-.007-.389-.014-.784c-2.636.448-5.286.822-7.946,1.105q.008-4.8-.079-9.6c2.614-.293,5.218-.675,7.812-1.129-.007-.258-.013-.521-.02-.783-2.593.454-5.2.838-7.808,1.133q-.112-6-.361-12,3.923-.6,7.8-1.5c-.009-.268-.018-.535-.027-.8q-3.868.883-7.807,1.477-.246-5.582-.622-11.156,4.014-.467,8-1.132c-.011-.257-.024-.515-.035-.772q-4,.67-8.024,1.144-.289-4.26-.651-8.516,4.14-.542,8.236-1.337c-.014-.258-.029-.514-.044-.77q-4.1.8-8.258,1.351-.372-4.305-.817-8.6,4.275-.532,8.521-1.314c-.019-.258-.038-.52-.058-.776q-4.256.785-8.543,1.321-.409-3.891-.879-7.774,4.386-.638,8.722-1.58c-.026-.263-.054-.523-.08-.782q-4.343.94-8.737,1.583-.556-4.543-1.194-9.077,4.365-.639,8.672-1.672c-.047-.256-.1-.507-.143-.76q-4.284,1.024-8.633,1.667c-.483-3.388-.988-6.773-1.54-10.152,2.671-.356,5.33-.824,7.974-1.38-.066-.254-.132-.5-.2-.75-2.622.55-5.258,1.011-7.906,1.364q-.874-5.3-1.872-10.583,3.292-.41,6.554-1.029c-.092-.249-.184-.5-.274-.734q-3.2.6-6.424,1-.88-4.671-1.846-9.33H126.7q.973,4.708,1.868,9.43c-1.6.187-3.21.327-4.82.439q-.564-4.94-1.2-9.869h-.78q.638,4.957,1.206,9.925-3.384.212-6.777.213,1.235-5.07,2.437-10.138h-.788q-1.211,5.062-2.443,10.124-4.666-.042-9.314-.5l2.716-9.628H108l-2.694,9.547c-2.961-.312-5.906-.758-8.83-1.318-.1.239-.21.482-.317.727,2.958.571,5.938,1.027,8.934,1.345L102.2,224.633q-5.005-.709-9.943-1.9c-.09.243-.177.487-.265.731q4.961,1.191,10,1.91l-2.665,9.445a98.717,98.717,0,0,1-10.113-2.568c-.066.251-.129.5-.191.749a99.407,99.407,0,0,0,10.094,2.565l-2.761,9.783c-1.519-.235-3.036-.49-4.547-.782a38.6,38.6,0,0,1-5.092-1.27c-.055.249-.111.5-.167.757a39.953,39.953,0,0,0,5.113,1.272c1.491.287,2.985.537,4.482.77l-2.029,7.191c-3.083-.5-6.152-1.119-9.205-1.823-.056.25-.112.5-.168.754,3.039.7,6.094,1.312,9.163,1.816l-2.236,7.922c-2.908-.582-5.791-1.27-8.65-2.043-.057.25-.113.5-.17.753,2.846.768,5.716,1.452,8.61,2.032l-2.382,8.44c-2.754-.5-5.5-1.084-8.223-1.727l-.175.761c2.715.642,5.442,1.225,8.184,1.727l-2.35,8.326c-2.547-.843-5.053-1.793-7.522-2.823l-.187.788q3.7,1.551,7.485,2.827l-3.032,10.747q-2.385-.791-4.741-1.675c-.789-.3-1.577-.613-2.363-.938l-.19.763q1.137.47,2.28.9c1.591.6,3.193,1.16,4.8,1.693l-2.419,8.573q-3.459-1.225-6.84-2.649c-.067.253-.133.5-.2.754q3.377,1.416,6.83,2.641l-2.566,9.094c-2.274-.883-4.517-1.844-6.731-2.867-.074.252-.149.5-.223.748,2.219,1.022,4.464,1.983,6.742,2.865l-2.431,8.616c.224.127.458.254.7.379l2.462-8.723q4.732,1.8,9.608,3.186-1.294,4.311-2.605,8.611c.252.04.51.074.768.108.866-2.835,1.741-5.664,2.594-8.508q5,1.386,10.1,2.327l.2-.749q-5.084-.938-10.078-2.319c.932-3.107,1.843-6.224,2.761-9.338,3.245.824,6.527,1.509,9.828,2.084q.1-.375.2-.754c-3.292-.571-6.565-1.254-9.8-2.076q1.29-4.39,2.566-8.789c3.165.732,6.357,1.329,9.563,1.819.064-.251.129-.505.193-.759-3.2-.486-6.385-1.077-9.544-1.806q1.553-5.381,3.085-10.773,4.574.994,9.217,1.59c.074-.294.146-.587.219-.883-3.086-.393-6.156-.9-9.195-1.549.914-3.241,1.8-6.489,2.7-9.735q4.519.487,9.057.718c.06-.255.122-.511.182-.767q-4.524-.226-9.031-.7c.767-2.781,1.539-5.56,2.294-8.344,2.886.319,5.784.536,8.686.674.058-.255.114-.505.172-.757q-4.338-.2-8.655-.673,1.126-4.154,2.227-8.313,4.145.335,8.3.445c.055-.263.109-.522.164-.783q-4.134-.1-8.261-.422.974-3.664,1.94-7.331,3.9.245,7.8.256c.049-.265.1-.531.144-.79-2.584,0-5.171-.061-7.753-.22q1.236-4.729,2.448-9.462,4.063.331,8.143.334,3.3,0,6.606-.221.356,4.589.648,9.184-4.69.366-9.4.389c.027.244.057.5.087.782q4.687-.024,9.36-.387.239,3.827.436,7.656-4.5.279-9.019.268c.025.26.051.528.076.8h.034c2.983,0,5.966-.1,8.946-.288q.215,4.335.372,8.672-4.292.263-8.6.252c.021.257.041.514.061.773l.174,0c2.8,0,5.595-.1,8.388-.272q.149,4.223.242,8.448c-2.735.149-5.473.222-8.21.234.016.259.032.517.048.778q4.092-.018,8.179-.236.12,5.674.151,11.35c-2.594.137-5.193.174-7.794.128.01.3.018.59.027.886.554.008,1.11.022,1.665.022,2.036,0,4.072-.076,6.107-.19.009,3.9-.028,7.791-.088,11.686-2.517.069-5.034.057-7.549-.022q0,.393-.009.783,2.008.064,4.017.067c1.177,0,2.352-.022,3.528-.054q-.079,4.772-.227,9.541c-2.539.049-5.079.011-7.617-.087-.012.265-.025.524-.04.784,1.7.065,3.4.109,5.1.109q1.27,0,2.538-.025-.15,4.656-.365,9.308-3.96.229-7.928.186c-.023.264-.045.52-.067.765.419,0,.838.018,1.258.018,2.236,0,4.471-.07,6.7-.2-.1,2.019-.215,4.035-.329,6.053.25.025.507.045.769.065.117-2.053.237-4.105.335-6.16q5-.318,9.951-1.06c-.05,2.217-.122,4.432-.2,6.649.256-.045.519-.1.779-.149.077-2.208.149-4.416.2-6.625q4.144-.648,8.231-1.591,0-.386-.01-.795-4.069.941-8.2,1.594.092-4.383.1-8.766c2.665-.282,5.318-.654,7.957-1.1m-8.733.4q-4.813.482-9.658.605.148-4.77.227-9.545,4.684-.156,9.353-.652.082,4.795.077,9.592m-.093-10.367q-4.65.5-9.324.654c.059-3.9.1-7.806.088-11.709q4.451-.281,8.877-.922.253,5.985.359,11.977m-1.012-23.973q.371,5.582.622,11.172-4.4.628-8.854.895-.023-5.677-.151-11.352,4.2-.249,8.382-.715m-.054-.769q-4.165.465-8.346.706-.093-4.219-.242-8.436c2.655-.176,5.3-.444,7.939-.774q.361,4.249.65,8.5m-7.427-58.522q.989,5.287,1.873,10.59c-1.872.236-3.749.407-5.628.544q-.513-5.35-1.122-10.688c1.628-.115,3.255-.256,4.877-.446m-12.7.714c.118,0,.235.006.352.006,2.235,0,4.468-.077,6.7-.218q.6,5.34,1.124,10.691a106.858,106.858,0,0,1-10.811.161q1.329-5.321,2.637-10.64m-10.136-.523q4.656.461,9.341.512-1.3,5.311-2.633,10.622-4.817-.208-9.609-.854ZM88.2,314.383Q83.323,313,78.58,311.191l2.572-9.116q4.85,1.682,9.824,2.981-1.375,4.67-2.778,9.326m3-10.067q-4.977-1.3-9.835-2.981l2.421-8.581q4.927,1.6,9.959,2.785c-.846,2.928-1.687,5.855-2.546,8.777m2.758-9.514q-5.028-1.192-9.961-2.8l3.032-10.744q4.946,1.622,10.019,2.764-1.525,5.4-3.09,10.777m3.323-11.612q-5.082-1.123-10.029-2.717l2.381-8.437q5.145.916,10.337,1.506-1.335,4.827-2.688,9.648m2.9-10.411q-5.189-.58-10.337-1.5l2.378-8.428q5.084.989,10.242,1.587-1.133,4.172-2.284,8.338m2.487-9.094q-5.148-.6-10.235-1.578l2.245-7.957q5.091.808,10.22,1.246-1.1,4.147-2.23,8.29m2.434-9.047q-5.121-.438-10.212-1.236l2.027-7.185q5.038.751,10.113,1.1-.957,3.66-1.928,7.317m2.127-8.083q-5.063-.344-10.1-1.095l2.748-9.743q4.872.928,9.808,1.367-1.213,4.737-2.458,9.47m2.655-10.226q-4.923-.434-9.794-1.359l2.675-9.481c3.2.433,6.413.71,9.633.853-.833,3.329-1.663,6.658-2.515,9.986m.778.063q1.28-5,2.525-10.009c1.34.05,2.682.08,4.022.08q3.532,0,7.058-.232.487,5.127.888,10.263a99.289,99.289,0,0,1-14.494-.1m14.376-10.224q2.846-.206,5.68-.559c.552,3.38,1.058,6.768,1.541,10.158q-3.157.437-6.332.672-.406-5.14-.888-10.271m.946,11.041q3.2-.236,6.38-.678.639,4.537,1.194,9.083-3.452.482-6.926.773-.293-4.591-.648-9.178m.7,9.96q3.5-.294,6.973-.776.468,3.874.877,7.755c-2.467.293-4.937.535-7.413.7q-.2-3.841-.437-7.68m.474,8.458c2.49-.167,4.975-.416,7.454-.711q.446,4.3.817,8.608-3.936.495-7.9.76-.157-4.331-.371-8.657m10.042,61.855q-4.944.745-9.941,1.069.216-4.636.364-9.275,4.852-.122,9.684-.6-.016,4.4-.107,8.8" transform="translate(-70.901 -204.07)" fill="#fff"/>
            </g>
          </g>
        </g>
        <g id="Grupo_1071700" data-name="Grupo 1071700" transform="translate(65.82 192.411)" style="mix-blend-mode: multiply;isolation: isolate">
          <g id="Grupo_1071699" data-name="Grupo 1071699">
            <g id="Grupo_1071698" data-name="Grupo 1071698" clip-path="url(#clip-path-4)">
              <path id="Trazado_771176" data-name="Trazado 771176" d="M83.819,325.386a27.633,27.633,0,0,1-13.743-7.609q-.134.427-.268.837a28.584,28.584,0,0,0,13.829,7.522,46.615,46.615,0,0,0,10.92,1.184c1.168,0,2.3-.038,3.4-.091.066-.245.136-.507.208-.779a50.371,50.371,0,0,1-14.344-1.065" transform="translate(-69.808 -210.566)" fill="#a3cece"/>
              <path id="Trazado_771177" data-name="Trazado 771177" d="M106.365,204.071h-.81a10.269,10.269,0,0,1-7.068,7.2c-.13.3-.264.6-.4.905a11.1,11.1,0,0,0,8.276-8.1" transform="translate(-71.424 -204.07)" fill="#a3cece"/>
              <path id="Trazado_771178" data-name="Trazado 771178" d="M118.277,242.489a.385.385,0,0,0,.34.427l.043,0a.386.386,0,0,0,.384-.342c1.458-12.735,2.484-25.666,3.062-38.506h-.774c-.578,12.811-1.6,25.712-3.056,38.418" transform="translate(-72.577 -204.07)" fill="#a3cece"/>
              <path id="Trazado_771179" data-name="Trazado 771179" d="M149.1,327.326c0-.258-.006-.534-.009-.837a37.307,37.307,0,0,1-27.795.746c-.026.289-.052.553-.076.806a38.027,38.027,0,0,0,27.881-.715" transform="translate(-72.745 -211.064)" fill="#a3cece"/>
              <path id="Trazado_771180" data-name="Trazado 771180" d="M134.162,208.907a11.5,11.5,0,0,0,4.792,2.838q-.188-.481-.369-.93a10.642,10.642,0,0,1-6.509-6.745h-.813a11.513,11.513,0,0,0,2.9,4.837" transform="translate(-73.319 -204.07)" fill="#a3cece"/>
            </g>
          </g>
        </g>
        <path id="Trazado_771181" data-name="Trazado 771181" d="M160.835,130.879,194.47,102.23l3.671,3.952-31.047,31.435Z" transform="translate(-9.189 -5.841)" fill="#ff9c88"/>
        <path id="Trazado_771182" data-name="Trazado 771182" d="M80.621,198.815l-4.927,43.906,5.328.832,8.686-43.32Z" transform="translate(-4.325 -11.359)" fill="#ff9c88"/>
        <path id="Trazado_771183" data-name="Trazado 771183" d="M166.814,140.743l-35.059,18.9a4.6,4.6,0,1,1-4.364-8.1l35.059-18.9Z" transform="translate(-7.14 -7.579)" fill="#ff9c88"/>
        <path id="Trazado_771184" data-name="Trazado 771184" d="M89.952,199.985l14.717-37.008a4.6,4.6,0,0,0-8.546-3.4L81.407,196.587Z" transform="translate(-4.651 -8.951)" fill="#ff9c88"/>
        <path id="Trazado_771185" data-name="Trazado 771185" d="M182.252,111.483a4.877,4.877,0,0,1,2.336-1.081c1.472-.14,2.767.9,3.882,1.868,1.038.906,2.151,1.952,2.277,3.324a4.718,4.718,0,0,1-.837,2.745,16.844,16.844,0,0,1-5.033,5.365l-3.8-3.211c-1.081-.915-2.741-1.88-3.56-3.03-1.108-1.554,3.558-5.117,4.731-5.978" transform="translate(-10.133 -6.307)" fill="#ef9722"/>
        <g id="Grupo_1071703" data-name="Grupo 1071703" transform="translate(169.728 104.276)" style="mix-blend-mode: multiply;isolation: isolate">
          <g id="Grupo_1071702" data-name="Grupo 1071702">
            <g id="Grupo_1071701" data-name="Grupo 1071701" clip-path="url(#clip-path-5)">
              <path id="Trazado_771186" data-name="Trazado 771186" d="M186.059,110.6a62.5,62.5,0,0,0-5.936,5.338.386.386,0,1,0,.553.539,61.5,61.5,0,0,1,6.181-5.516,4.683,4.683,0,0,0-.8-.361" transform="translate(-180.013 -110.595)" fill="#efdabf"/>
              <path id="Trazado_771187" data-name="Trazado 771187" d="M183.546,117.752a.386.386,0,0,0,.292-.134l4.738-5.47c-.194-.167-.392-.332-.6-.491l-4.726,5.455a.387.387,0,0,0,.292.639" transform="translate(-180.193 -110.656)" fill="#efdabf"/>
              <path id="Trazado_771188" data-name="Trazado 771188" d="M190.155,113.659q-.256-.3-.541-.573a36.119,36.119,0,0,1-4.844,5.586.386.386,0,0,0,.527.565,36.874,36.874,0,0,0,4.858-5.578" transform="translate(-180.278 -110.737)" fill="#efdabf"/>
              <path id="Trazado_771189" data-name="Trazado 771189" d="M190.871,114.7a32.359,32.359,0,0,1-5.024,6.639.387.387,0,0,0,.55.544,33.115,33.115,0,0,0,4.8-6.19,3.109,3.109,0,0,0-.328-.993" transform="translate(-180.34 -110.829)" fill="#efdabf"/>
            </g>
          </g>
        </g>
        <path id="Trazado_771190" data-name="Trazado 771190" d="M74.556,229.121a7.533,7.533,0,0,0-.176,4.278A5.048,5.048,0,0,0,77.3,236.17a14.974,14.974,0,0,0,4.047.836,4.427,4.427,0,0,0,3.218-.463,4.108,4.108,0,0,0,1.215-2.1,30.481,30.481,0,0,0,1.4-7.805c.018-.381-3.66-1.527-4.089-1.668a32.348,32.348,0,0,0-4.279-1.095c-1.048-.192-2.622-.847-3.086.345a38.469,38.469,0,0,0-1.172,4.9" transform="translate(-4.235 -12.77)" fill="#ef9722"/>
        <g id="Grupo_1071706" data-name="Grupo 1071706" transform="translate(71.068 211.581)" style="mix-blend-mode: multiply;isolation: isolate">
          <g id="Grupo_1071705" data-name="Grupo 1071705">
            <g id="Grupo_1071704" data-name="Grupo 1071704" clip-path="url(#clip-path-6)">
              <path id="Trazado_771191" data-name="Trazado 771191" d="M76.049,235.483c.68-3.559,1.5-7.112,2.467-10.59a.387.387,0,1,0-.745-.207c-.931,3.353-1.731,6.774-2.4,10.2a5.206,5.206,0,0,0,.675.594" transform="translate(-75.374 -224.402)" fill="#efdabf"/>
              <path id="Trazado_771192" data-name="Trazado 771192" d="M83.134,226.893a.386.386,0,1,0-.763-.124L80.7,237.053c.256.033.513.061.768.091Z" transform="translate(-75.678 -224.519)" fill="#efdabf"/>
              <path id="Trazado_771193" data-name="Trazado 771193" d="M86.584,226.154q-.171-.069-.354-.139a.384.384,0,0,0-.31.272l-3.175,10.939a5.9,5.9,0,0,0,.807-.01L86.662,226.5a.375.375,0,0,0-.077-.348" transform="translate(-75.795 -224.494)" fill="#efdabf"/>
              <path id="Trazado_771194" data-name="Trazado 771194" d="M79.284,236.847c.633-3.245,1.139-6.53,1.5-9.8a.387.387,0,0,0-.768-.085c-.359,3.245-.86,6.5-1.487,9.719.248.068.5.119.753.17" transform="translate(-75.554 -224.528)" fill="#efdabf"/>
            </g>
          </g>
        </g>
        <path id="Trazado_771195" data-name="Trazado 771195" d="M109.271,152.824s1.448,5.384,6.824,5.184,5.448-6.344,5.448-6.344,7.262.864,10.5,3.654,1.419,6.857,3.739,10.541c2.447,3.888,3.738,9.646.447,14.207-2.264,3.14-3.14,15.4-2.542,21.011,0,0-18.991,2.766-31.628,0,0,0,.748-22.282,0-29.087s-.943-11.426.6-14.917c1.42-3.215,6.617-4.249,6.617-4.249" transform="translate(-5.798 -8.665)" fill="#ffba52"/>
        <path id="Trazado_771196" data-name="Trazado 771196" d="M122.759,149.573a32.873,32.873,0,0,0,8.1-2.53c3.589-1.794,23.608-12.656,29.511-17.715,6.754-5.788,11.016-12.144,14.056-13.711,4.76-2.453,10.569,3.9,9.771,6.446s-9.671,16.7-19.74,22.886-30.407,19.74-30.407,19.74Z" transform="translate(-7.014 -6.574)" fill="#ffba52"/>
        <path id="Trazado_771197" data-name="Trazado 771197" d="M107.767,152.894s-8.078.6-12.644,5.384S80.188,187.19,78.094,197.159s-3.853,18.345-2.433,24.309,9.112,5.5,11.7,3.407,2.792-19.042,6.181-26.419,10.618-23.129,11.091-24.725,3.128-20.836,3.128-20.836" transform="translate(-4.293 -8.735)" fill="#ffba52"/>
        <path id="Trazado_771198" data-name="Trazado 771198" d="M118.208,162.162a8.432,8.432,0,0,0,4.937-2.6,9.367,9.367,0,0,0,2.088-5.038,21.091,21.091,0,0,0,.087-3.725,35.383,35.383,0,0,1-3.512.812s-.072,6.144-5.448,6.344-6.824-5.185-6.824-5.185a23.986,23.986,0,0,0-3.427.586c.087.419.2.828.288,1.143a10.4,10.4,0,0,0,11.812,7.659" transform="translate(-6.062 -8.616)" fill="#ef9722"/>
        <g id="Grupo_1071709" data-name="Grupo 1071709" transform="translate(100.705 144.443)" style="mix-blend-mode: multiply;isolation: isolate">
          <g id="Grupo_1071708" data-name="Grupo 1071708">
            <g id="Grupo_1071707" data-name="Grupo 1071707" clip-path="url(#clip-path-7)">
              <path id="Trazado_771199" data-name="Trazado 771199" d="M119.018,162.551c.254-.046.506-.1.756-.171-.416-1.417-.778-2.855-1.072-4.305a5.222,5.222,0,0,1-.746.2q.44,2.161,1.062,4.278" transform="translate(-107.444 -153.474)" fill="#efdabf"/>
              <path id="Trazado_771200" data-name="Trazado 771200" d="M121.045,156.458a5,5,0,0,1-.543.563l2.718,3.586a7.176,7.176,0,0,0,.566-.532Z" transform="translate(-107.589 -153.381)" fill="#efdabf"/>
              <path id="Trazado_771201" data-name="Trazado 771201" d="M122.552,153.2c-.049.233-.117.487-.2.749l3.744,1.109c.021-.129.044-.258.061-.388s.025-.259.038-.389Z" transform="translate(-107.695 -153.195)" fill="#efdabf"/>
              <path id="Trazado_771202" data-name="Trazado 771202" d="M110.166,154.391l-3.358,1.438q.139.361.3.71l3.447-1.476c-.151-.234-.28-.458-.393-.672" transform="translate(-106.807 -153.263)" fill="#efdabf"/>
              <path id="Trazado_771203" data-name="Trazado 771203" d="M115.04,158.223,114.5,162.4c.251.062.5.127.756.171l.552-4.229a6.54,6.54,0,0,1-.763-.123" transform="translate(-107.246 -153.482)" fill="#efdabf"/>
              <path id="Trazado_771204" data-name="Trazado 771204" d="M112.208,156.9l-2.962,2.654c.165.169.335.333.512.488.017.015.037.027.054.042l3.042-2.725a6.367,6.367,0,0,1-.645-.46" transform="translate(-106.946 -153.407)" fill="#efdabf"/>
            </g>
          </g>
        </g>
        <g id="Grupo_1071712" data-name="Grupo 1071712" transform="translate(85.404 121.316)" style="mix-blend-mode: multiply;isolation: isolate">
          <g id="Grupo_1071711" data-name="Grupo 1071711">
            <g id="Grupo_1071710" data-name="Grupo 1071710" clip-path="url(#clip-path-8)">
              <path id="Trazado_771205" data-name="Trazado 771205" d="M165.45,132.159a.387.387,0,0,0,.373.291.374.374,0,0,0,.1-.012.386.386,0,0,0,.279-.47,7.357,7.357,0,0,0-1.873-3.3c-.189.173-.377.347-.569.52a6.586,6.586,0,0,1,1.693,2.972" transform="translate(-94.76 -128.667)" fill="#efdabf"/>
              <path id="Trazado_771206" data-name="Trazado 771206" d="M135.906,164.684a.386.386,0,0,0,.585-.505l-4.943-5.713a.386.386,0,1,0-.584.505Z" transform="translate(-92.881 -130.362)" fill="#efdabf"/>
              <path id="Trazado_771207" data-name="Trazado 771207" d="M161.068,135.345a.387.387,0,0,0,.334.433l.05,0a.386.386,0,0,0,.383-.337,12,12,0,0,0-.269-4.407q-.32.248-.67.507a11.208,11.208,0,0,1,.173,3.8" transform="translate(-94.596 -128.802)" fill="#efdabf"/>
              <path id="Trazado_771208" data-name="Trazado 771208" d="M91.1,202.177a.386.386,0,0,0-.27.724,5.645,5.645,0,0,0,1.962.347,5.87,5.87,0,0,0,.9-.078q.146-.433.3-.84a4.966,4.966,0,0,1-2.892-.153" transform="translate(-90.579 -132.865)" fill="#efdabf"/>
              <path id="Trazado_771209" data-name="Trazado 771209" d="M93.526,197.983a.387.387,0,1,0-.7.327,5.825,5.825,0,0,0,1.932,2.268l.326-.71a5.043,5.043,0,0,1-1.558-1.885" transform="translate(-90.705 -132.615)" fill="#efdabf"/>
              <path id="Trazado_771210" data-name="Trazado 771210" d="M105.755,171.327l-3.15,8.852a.386.386,0,0,0,.728.259l3.15-8.853a.386.386,0,1,0-.728-.258" transform="translate(-91.265 -131.09)" fill="#efdabf"/>
            </g>
          </g>
        </g>
        <g id="Grupo_1071715" data-name="Grupo 1071715" transform="translate(96.337 188.846)" style="mix-blend-mode: multiply;isolation: isolate">
          <g id="Grupo_1071714" data-name="Grupo 1071714">
            <g id="Grupo_1071713" data-name="Grupo 1071713" clip-path="url(#clip-path-9)">
              <path id="Trazado_771211" data-name="Trazado 771211" d="M131.9,201.342c.553-.086,1.1-.2,1.654-.289-.006-.25-.01-.5-.012-.764a93.948,93.948,0,0,1-29.215.472.384.384,0,0,0-.047-.011.093.093,0,0,1-.017,0q-1.037-.147-2.071-.316c-.007.268-.014.522-.021.764.564.092,1.126.2,1.692.278l-.11,2.7c.255.044.508.091.768.132l.111-2.718q1.083.148,2.17.272l-.009,2.752c.256.029.514.056.772.082l.009-2.755q1.232.13,2.467.226L110,204.9c.257.017.514.033.772.047l.048-2.717q1.112.078,2.225.13l-.08,2.68c.257.008.515.016.772.022l.081-2.674q1.134.044,2.271.059l-.09,2.636.773,0,.089-2.625c.188,0,.373.007.561.007.52,0,1.041-.015,1.561-.024l-.2,2.609c.261-.007.52-.014.777-.023l.2-2.6c.595-.014,1.189-.04,1.783-.065l.334,2.57c.259-.013.52-.025.774-.04l-.332-2.565q1.021-.054,2.042-.13l.046,2.587.772-.054-.047-2.59c.54-.044,1.08-.1,1.619-.148l.029,2.614.771-.066-.028-2.628c.559-.059,1.118-.122,1.675-.192l.061,2.659q.4-.04.771-.079l-.061-2.682c.39-.053.783-.1,1.172-.157l.263,2.687.767-.091Z" transform="translate(-102.175 -200.289)" fill="#efdabf"/>
            </g>
          </g>
        </g>
        <path id="Trazado_771212" data-name="Trazado 771212" d="M160.2,379.819c-2.568-4.386-8.7-3.033-13.841-6.454a38,38,0,0,1-5.616-4.474c-3.2,2.115-7.549-.339-7.549-.339-1.27,4.526-3.936,6.112-4.521,8.571a4.244,4.244,0,0,0,3.93,5.237l25.889,1.164c2.116.1,2.755-1.864,1.708-3.7" transform="translate(-7.345 -21.056)" fill="#ff9c88"/>
        <path id="Trazado_771213" data-name="Trazado 771213" d="M153.355,376.255c-.964,1.268-3.2,2.527-8.4,1.958a29.037,29.037,0,0,1-13.6-5.344c-1.138,1.775-2.309,2.969-2.674,4.5a4.244,4.244,0,0,0,3.93,5.237L158.5,383.77c2.116.1,2.755-1.864,1.708-3.7-1.435-2.451-3.984-3.11-6.849-3.811" transform="translate(-7.345 -21.303)" fill="#0d3f56"/>
        <path id="Trazado_771214" data-name="Trazado 771214" d="M142.612,367.536a1.185,1.185,0,0,0-1.586-.416,10.311,10.311,0,0,1-7.658.4,1.159,1.159,0,0,0-.617,2.235,12.731,12.731,0,0,0,9.445-.633,1.17,1.17,0,0,0,.416-1.586" transform="translate(-7.536 -20.967)" fill="#0d3f56"/>
        <path id="Trazado_771215" data-name="Trazado 771215" d="M90.375,381.076c-2.177-4.593-8.4-3.779-13.227-7.634a38,38,0,0,1-5.2-4.945c-3.375,1.828-7.49-1-7.49-1-1.659,4.4-4.453,5.746-5.25,8.145a4.244,4.244,0,0,0,3.458,5.558l25.69,3.413c2.1.279,2.907-1.617,2.023-3.541" transform="translate(-3.37 -20.996)" fill="#ff9c88"/>
        <path id="Trazado_771216" data-name="Trazado 771216" d="M83.884,376.92c-1.07,1.18-3.41,2.238-8.541,1.219a29.031,29.031,0,0,1-13.083-6.507c-1.289,1.669-2.56,2.756-3.056,4.25a4.244,4.244,0,0,0,3.458,5.559l25.69,3.412c2.1.279,2.907-1.617,2.023-3.541-1.217-2.566-3.7-3.444-6.492-4.393" transform="translate(-3.37 -21.232)" fill="#0d3f56"/>
        <path id="Trazado_771217" data-name="Trazado 771217" d="M73.962,367.32a1.185,1.185,0,0,0-1.543-.552,10.3,10.3,0,0,1-7.665-.269,1.159,1.159,0,0,0-.808,2.173,12.731,12.731,0,0,0,9.464.191,1.169,1.169,0,0,0,.553-1.543" transform="translate(-3.61 -20.935)" fill="#0d3f56"/>
        <path id="Trazado_771218" data-name="Trazado 771218" d="M75.763,241.25a12.071,12.071,0,0,0-2.346,3.8c-.743,2.12-4.765,5.138-4.659,6.254s5.047-3.213,5.047-3.213-2.708,7.451-1.86,8.184,3.989-7.048,3.989-7.048-2.208,7.7-1.421,7.977,3.53-7.471,3.53-7.471-1.22,6.23-.3,6.5,2.25-6.586,2.25-6.586,1.288,2.681,2.544,2.475.03-2.576-.9-4.39-.567-5.133-.567-5.133Z" transform="translate(-3.928 -13.783)" fill="#ff9c88"/>
        <path id="Trazado_771219" data-name="Trazado 771219" d="M194.62,111.071a11.933,11.933,0,0,0,4.62-2.181c1.943-1.628,7.583-2.239,8.124-3.383s-6.748.209-6.748.209,6.92-5.669,6.521-6.868-7.931,4.538-7.931,4.538,6.578-6.2,5.974-6.92-7.73,5.215-7.73,5.215,4.774-5.341,4.041-6.137-5.977,5.092-5.977,5.092.3-3.342-1.043-3.867-1.513,2.483-1.658,4.778-2.408,5.306-2.408,5.306Z" transform="translate(-10.878 -5.455)" fill="#ff9c88"/>
        <path id="Trazado_771220" data-name="Trazado 771220" d="M263.6,131.365l-38.929-31.3-4.022,4.583,36.094,34.533Z" transform="translate(-12.606 -5.717)" fill="#db7b61"/>
        <path id="Trazado_771221" data-name="Trazado 771221" d="M277,149.846c-6.9-2.182-15.874-3.4-24.1-8.4s-26.949-23.973-27.517-28.413,4.187-10.417,8.524-8.979,21.063,16.182,26.083,19.278,26.7,10.926,26.7,10.926Z" transform="translate(-12.874 -5.933)" fill="#b82d40"/>
        <path id="Trazado_771222" data-name="Trazado 771222" d="M171.814,136.33c-2.749,2.831,10.7,9.173,13.251,10.181,2.432.962,3.425-4.115,4.344-6.469a21.075,21.075,0,0,1-7.131-4.854s-7.715-1.69-10.464,1.142" transform="translate(-9.795 -7.695)" fill="#f63b4e"/>
        <path id="Trazado_771223" data-name="Trazado 771223" d="M181.116,137.289a.261.261,0,0,1-.141-.285,4.223,4.223,0,0,0-.269-2.476.261.261,0,1,1,.479-.209,4.761,4.761,0,0,1,.3,2.786.26.26,0,0,1-.372.184" transform="translate(-10.323 -7.665)" fill="#0d3f56"/>
        <path id="Trazado_771224" data-name="Trazado 771224" d="M178.868,137.244a.263.263,0,0,1-.142-.279,6.259,6.259,0,0,0-.061-2.413.261.261,0,1,1,.51-.115,6.807,6.807,0,0,1,.067,2.616.261.261,0,0,1-.3.213.255.255,0,0,1-.072-.023" transform="translate(-10.207 -7.669)" fill="#0d3f56"/>
        <path id="Trazado_771225" data-name="Trazado 771225" d="M176.546,136.773a.262.262,0,0,1-.128-.328,2.575,2.575,0,0,0-.165-2.157.262.262,0,0,1,.455-.259,3.081,3.081,0,0,1,.2,2.6.263.263,0,0,1-.339.15l-.022-.009" transform="translate(-10.068 -7.65)" fill="#0d3f56"/>
        <path id="Trazado_771226" data-name="Trazado 771226" d="M177.152,140.743a20.427,20.427,0,0,1-2.208-1.578,13.4,13.4,0,0,1-1.726-1.7c-.363-.431-.637-.971-.98-1.428a3.611,3.611,0,0,0-.424.368c-2.75,2.831,10.7,9.173,13.251,10.181,1.16.459,1.99-.462,2.644-1.8a29.622,29.622,0,0,1-10.556-4.045" transform="translate(-9.795 -7.772)" fill="#0d3f56"/>
        <path id="Trazado_771227" data-name="Trazado 771227" d="M241.684,151.2c1.241,3.746-13.63,3.592-16.363,3.389-2.608-.193-1.29-5.2-1.091-7.715a21.085,21.085,0,0,0,8.534-1.262s7.68,1.841,8.92,5.587" transform="translate(-12.782 -8.319)" fill="#f63b4e"/>
        <path id="Trazado_771228" data-name="Trazado 771228" d="M233.923,148.259a.262.262,0,0,0,.251-.194,4.221,4.221,0,0,1,1.321-2.112.261.261,0,0,0-.34-.4,4.75,4.75,0,0,0-1.486,2.375.261.261,0,0,0,.186.32.292.292,0,0,0,.069.008" transform="translate(-13.35 -8.312)" fill="#0d3f56"/>
        <path id="Trazado_771229" data-name="Trazado 771229" d="M235.981,149.2a.262.262,0,0,0,.249-.189,6.278,6.278,0,0,1,1.107-2.146.261.261,0,0,0-.408-.325,6.782,6.782,0,0,0-1.2,2.326.26.26,0,0,0,.178.323.253.253,0,0,0,.074.01" transform="translate(-13.467 -8.367)" fill="#0d3f56"/>
        <path id="Trazado_771230" data-name="Trazado 771230" d="M238.273,149.786a.261.261,0,0,0,.258-.239,2.583,2.583,0,0,1,1.088-1.87.262.262,0,0,0-.3-.432,3.079,3.079,0,0,0-1.314,2.258.262.262,0,0,0,.24.282h.024" transform="translate(-13.598 -8.41)" fill="#0d3f56"/>
        <path id="Trazado_771231" data-name="Trazado 771231" d="M234.989,153.083a20.563,20.563,0,0,0,2.675-.458,13.565,13.565,0,0,0,2.294-.774c.514-.231,1-.6,1.5-.86a3.754,3.754,0,0,1,.222.517c1.241,3.746-13.63,3.592-16.363,3.39-1.245-.092-1.591-1.283-1.6-2.773a29.641,29.641,0,0,0,11.264.959" transform="translate(-12.782 -8.627)" fill="#0d3f56"/>
        <path id="Trazado_771232" data-name="Trazado 771232" d="M200.756,103.057s-7.878,12.283-12,18.413-7.524,11.428-7.524,11.428a16.317,16.317,0,0,0,8.777,7.128s15.108-12.451,20.925-18.2l10.355,23.892s6.205.01,10.457-1.444c0,0-.893-28.744-2.238-39.459Z" transform="translate(-10.355 -5.888)" fill="#376f92"/>
        <g id="Grupo_1071718" data-name="Grupo 1071718" transform="translate(171.125 97.309)" style="mix-blend-mode: multiply;isolation: isolate">
          <g id="Grupo_1071717" data-name="Grupo 1071717">
            <g id="Grupo_1071716" data-name="Grupo 1071716" clip-path="url(#clip-path-10)">
              <path id="Trazado_771233" data-name="Trazado 771233" d="M202.924,103.3l-4.19,5.865c-.61-.006-1.221-.041-1.826-.1l-.347.537c.586.07,1.178.115,1.77.132l-16.838,23.564c.107.179.218.357.331.531l17.209-24.086a18.917,18.917,0,0,0,8.8-2.2.289.289,0,0,0-.274-.508,18.292,18.292,0,0,1-8.1,2.124l3.94-5.517a.288.288,0,0,0-.067-.4.145.145,0,0,0-.03-.013l-.242-.015a.276.276,0,0,0-.13.1" transform="translate(-181.494 -103.205)" fill="#a3cece"/>
              <path id="Trazado_771234" data-name="Trazado 771234" d="M231.387,115.39c.476.18.962.329,1.452.462l-.04-.607c-.478-.136-.952-.288-1.415-.47l-.042-8.31a.29.29,0,0,0-.289-.289h0a.289.289,0,0,0-.288.29l.041,8.062a15.177,15.177,0,0,1-7.068-6.332.289.289,0,1,0-.5.283,15.778,15.778,0,0,0,7.574,6.68l.154,30.091c.193-.035.386-.071.578-.11Z" transform="translate(-183.877 -103.375)" fill="#a3cece"/>
              <path id="Trazado_771235" data-name="Trazado 771235" d="M213.33,117.238a1.134,1.134,0,0,0,.954.6.858.858,0,0,0,.155-.014c.561-.1.829-.7.943-.95A24.237,24.237,0,0,0,217.524,107a.289.289,0,0,0-.289-.289h0a.288.288,0,0,0-.289.289,23.714,23.714,0,0,1-2.091,9.64c-.12.266-.289.577-.522.62a.533.533,0,0,1-.5-.3,2.052,2.052,0,0,1-.185-.831,44.007,44.007,0,0,1,.09-8.2.289.289,0,0,0-.256-.318.282.282,0,0,0-.319.256,44.6,44.6,0,0,0-.091,8.306,2.584,2.584,0,0,0,.256,1.066" transform="translate(-183.29 -103.405)" fill="#a3cece"/>
            </g>
          </g>
        </g>
        <path id="Trazado_771236" data-name="Trazado 771236" d="M184.9,65.966c-1.119-.934.076-6.991-1.09-6.9s-1.594,4.088-1.594,4.088S176.96,56.133,176,56.526s2.781,6.5,2.781,6.5-6.35-4.9-7.467-4.38,5.852,6.388,5.852,6.388-6.387-1.868-7.179-.976,6.256,3.148,6.256,3.148-5.265.52-5.412,1.175,3.131.887,5.327.965,4.2,1.358,6.962,1.033Z" transform="translate(-9.708 -3.229)" fill="#ff9c88"/>
        <path id="Trazado_771237" data-name="Trazado 771237" d="M255.431,74.72c1.282-.694,1.312-6.867,2.435-6.543s.752,4.323.752,4.323,6.543-5.845,7.408-5.268-4.015,5.819-4.015,5.819,7.2-3.547,8.187-2.814-7,5.1-7,5.1,6.63-.565,7.231.467-6.757,1.845-6.757,1.845,5.058,1.553,5.072,2.224-3.245.249-5.413-.109-4.382.5-7.028-.368Z" transform="translate(-14.594 -3.839)" fill="#ff9c88"/>
        <path id="Trazado_771238" data-name="Trazado 771238" d="M239.842,45.628c-.586-2.845-3.064-5.309-5.9-5.308-2.007-5.665-9.832-7.984-15.282-6.952-6.747,1.279-11.448,8.019-9,14.711,2.482,6.781,9.765,10.294,12.156,17.082.521,1.481,1.213,3.17,2.949,3.507,1.6.31,2.914-.9,3.983-1.9a44.757,44.757,0,0,0,7.759-9.7c2.026-3.392,4.18-7.35,3.336-11.441" transform="translate(-11.941 -1.893)" fill="#b25442"/>
        <path id="Trazado_771239" data-name="Trazado 771239" d="M232.483,45.646c-2.594-8.734-18.174-9.274-20.67-3.3-5.136,12.277-4.436,17.918-1.527,21.7,3.366,4.377,6.147,4.506,4.575,11.853a5.245,5.245,0,0,0,9.451,2.021A45.281,45.281,0,0,1,231.191,61.5s2.361-12.25,1.292-15.851" transform="translate(-11.885 -2.193)" fill="#ff9c88"/>
        <path id="Trazado_771240" data-name="Trazado 771240" d="M221.388,56.723a.984.984,0,1,1-.756-1.168.983.983,0,0,1,.756,1.168" transform="translate(-12.537 -3.173)"/>
        <path id="Trazado_771241" data-name="Trazado 771241" d="M220.5,56.272a.36.36,0,1,1-.278-.428.361.361,0,0,1,.278.428" transform="translate(-12.557 -3.19)" fill="#fff"/>
        <path id="Trazado_771242" data-name="Trazado 771242" d="M213.494,55.035a.984.984,0,1,1-.756-1.168.983.983,0,0,1,.756,1.168" transform="translate(-12.086 -3.076)"/>
        <path id="Trazado_771243" data-name="Trazado 771243" d="M212.609,54.584a.36.36,0,1,1-.277-.428.36.36,0,0,1,.277.428" transform="translate(-12.106 -3.094)" fill="#fff"/>
        <path id="Trazado_771244" data-name="Trazado 771244" d="M214.892,51.193a3.22,3.22,0,0,0-3.959-.646.648.648,0,0,0-.258.777.47.47,0,0,0,.671.25,2.307,2.307,0,0,1,1.761-.192,2.355,2.355,0,0,1,.805.418c.213.171.4.427.7.33a.514.514,0,0,0,.2-.122.644.644,0,0,0,.079-.815" transform="translate(-12.034 -2.864)" fill="#b25442"/>
        <path id="Trazado_771245" data-name="Trazado 771245" d="M219.108,52.094a4.12,4.12,0,0,1,4.451,1.153.58.58,0,0,1-.886.749,2.885,2.885,0,0,0-1.77-.938,3.151,3.151,0,0,0-1.031.021c-.3.058-.612.2-.885-.015a.553.553,0,0,1-.153-.2.584.584,0,0,1,.273-.773" transform="translate(-12.5 -2.963)" fill="#b25442"/>
        <path id="Trazado_771246" data-name="Trazado 771246" d="M214.8,61.35a3.477,3.477,0,0,1-1.514-.734.514.514,0,1,1,.658-.789,2.7,2.7,0,0,0,3.221.088.514.514,0,0,1,.685.767,3.687,3.687,0,0,1-3.05.669" transform="translate(-12.175 -3.411)" fill="#dd6c5e"/>
        <path id="Trazado_771247" data-name="Trazado 771247" d="M214.282,58.071a.128.128,0,0,1-.1-.117c-.063-.871.275-1.091.57-1.12a1.24,1.24,0,0,1,.95.431.129.129,0,0,1,0,.182.133.133,0,0,1-.183,0,1,1,0,0,0-.745-.361c-.265.026-.379.312-.34.847a.13.13,0,0,1-.12.138.149.149,0,0,1-.036,0" transform="translate(-12.236 -3.247)" fill="#dd6c5e"/>
        <path id="Trazado_771248" data-name="Trazado 771248" d="M235.7,63.6c-1.614,1.259-3.734,1.241-4.733-.041s-.5-3.342,1.114-4.6,3.734-1.241,4.733.041.5,3.342-1.114,4.6" transform="translate(-13.167 -3.315)" fill="#ff9c88"/>
        <path id="Trazado_771249" data-name="Trazado 771249" d="M235.911,59.641a2.268,2.268,0,0,0-1.958-.379,1.852,1.852,0,0,0-.869.421,1.129,1.129,0,0,0-.377.982,1.615,1.615,0,0,0,.4.747,1.516,1.516,0,0,1,.282.438.578.578,0,0,1-.9.643.257.257,0,1,0-.308.411,1.068,1.068,0,0,0,.418.189,1.088,1.088,0,0,0,1.276-1.4,1.956,1.956,0,0,0-.37-.6,1.191,1.191,0,0,1-.293-.5.62.62,0,0,1,.217-.524,1.007,1.007,0,0,1,.232-.152,1.054,1.054,0,0,1,.668.4.922.922,0,0,1,.061.784.257.257,0,0,0,.145.333.2.2,0,0,0,.041.012.256.256,0,0,0,.292-.157,1.42,1.42,0,0,0-.1-1.23,1.145,1.145,0,0,0-.322-.338,1.621,1.621,0,0,1,1.129.322,1,1,0,0,1,.235,1.286.257.257,0,1,0,.412.308,1.5,1.5,0,0,0-.317-1.989" transform="translate(-13.259 -3.382)" fill="#dd6c5e"/>
        <path id="Trazado_771250" data-name="Trazado 771250" d="M210.072,44.04a2.2,2.2,0,0,0,.6,2,2.223,2.223,0,0,0,2.645-.052,6.5,6.5,0,0,0,1.759-2.211,1.744,1.744,0,0,0,1.952,2.807c.983-.426,1.349-1.607,1.6-2.648a2.483,2.483,0,1,0,4.846.856A15.913,15.913,0,0,0,224.8,51.6a10.261,10.261,0,0,0,4.707,4.984,4.131,4.131,0,0,0,3.2.371,4.2,4.2,0,0,0,2.121-2.256,10.475,10.475,0,0,0,.02-8.537A13.235,13.235,0,0,0,228.9,39.9a18.057,18.057,0,0,0-8.48-2,15.658,15.658,0,0,0-5.376.849,10.345,10.345,0,0,0-3.582,2.165,2.46,2.46,0,0,0-.772,1.228,17.207,17.207,0,0,0-.62,1.9" transform="translate(-12 -2.165)" fill="#b25442"/>
        <path id="Trazado_771251" data-name="Trazado 771251" d="M233.458,38.32a2.693,2.693,0,0,1-.181-.895,1.112,1.112,0,0,1,.339-.824,1.038,1.038,0,0,1,1.123-.1,1.691,1.691,0,0,1,.768.883,4.772,4.772,0,0,1,.276,1.16c.084.568.335,1.985-.38,2.28-.673.279-1.152-.745-1.38-1.182a9.5,9.5,0,0,1-.565-1.317" transform="translate(-13.328 -2.079)" fill="#b25442"/>
        <path id="Trazado_771252" data-name="Trazado 771252" d="M236.277,39.68a2.517,2.517,0,0,1,1.844-.008,1.628,1.628,0,0,1,.766.571.96.96,0,0,1,.106.92,1.026,1.026,0,0,1-.679.521,2.5,2.5,0,0,1-.879.039,9.766,9.766,0,0,1-1.279-.2c-.3-.066-.837-.109-1-.41-.334-.612.685-1.259,1.123-1.435" transform="translate(-13.431 -2.257)" fill="#b25442"/>
        <path id="Trazado_771253" data-name="Trazado 771253" d="M215.156,72.4s-13.112-3.167-18.118-4.734-9.184-3.059-9.184-3.059L183.9,72.964,201.057,81s-3.8,18.229-.895,21.622c2.443,2.849,14.318,7.14,25.74,4.826a8.8,8.8,0,0,0,7.014-7.652c.555-5.03,1.329-11.766,1.559-12.5.373-1.194,18.052-5.669,18.052-5.669L251.037,72.4s-10.793.637-18.152,1.01a120.289,120.289,0,0,1-17.729-1.01" transform="translate(-10.507 -3.691)" fill="#ff9c88"/>
        <path id="Trazado_771254" data-name="Trazado 771254" d="M213.178,71.421s-.4,5.185,5.921,5.464,5.929-4.233,5.929-4.233,12.42-.117,17.959-.263,8.411-1.769,9.493,1.084,2.816,8.3-.932,9.578-15.554,3.905-16.225,4.353-.893,14.307-4.364,17.928c-2.49,2.6-6.417,3.4-9.879,3.57a52.593,52.593,0,0,1-8.421-.491,35.755,35.755,0,0,1-6.718-1.206c-3.21-1.009-6.336-3.09-7.264-6.5-1.455-5.354,2.332-19.718,2.332-19.718s-15.143-6.112-17.157-7.342-.131-8.694,3.135-9.232c4.1-.674,26.192,7.012,26.192,7.012" transform="translate(-10.456 -3.677)" fill="#0d3f56"/>
        <g id="Grupo_1071721" data-name="Grupo 1071721" transform="translate(194.836 79.232)" opacity="0.3" style="mix-blend-mode: overlay;isolation: isolate">
          <g id="Grupo_1071720" data-name="Grupo 1071720">
            <g id="Grupo_1071719" data-name="Grupo 1071719" clip-path="url(#clip-path-11)">
              <path id="Trazado_771255" data-name="Trazado 771255" d="M229.452,90.791a5.63,5.63,0,0,0-3.942-2.979,7,7,0,0,0-5.081.845,2.833,2.833,0,0,0-.676-4.049,4.121,4.121,0,0,0-4.4.133c-.144.091-.282.191-.416.294-1.978-1.36-5.6-1.1-6.923.768a5.054,5.054,0,0,0,1.032,6.7,2,2,0,0,0-1.871.874,3.4,3.4,0,0,0-.535,2.071,5.3,5.3,0,0,0,9.407,3.172,5.272,5.272,0,0,0,7.511,2.853,4.165,4.165,0,0,0,2.092-2.567,2.925,2.925,0,0,0-1.034-3.038,3.555,3.555,0,0,0,3.952-.381,4.076,4.076,0,0,0,.88-4.691" transform="translate(-206.642 -84.033)" fill="#fff"/>
            </g>
          </g>
        </g>
        <g id="Grupo_1071724" data-name="Grupo 1071724" transform="translate(200.565 67.027)" style="mix-blend-mode: multiply;isolation: isolate">
          <g id="Grupo_1071723" data-name="Grupo 1071723">
            <g id="Grupo_1071722" data-name="Grupo 1071722" clip-path="url(#clip-path-12)">
              <path id="Trazado_771256" data-name="Trazado 771256" d="M226.724,73.036s.391,4.513-5.929,4.233-5.921-5.465-5.921-5.465-.792-.275-2.1-.716a14.625,14.625,0,0,0,.058,3.127,6.6,6.6,0,0,0,2.11,4.167,7.264,7.264,0,0,0,2.769,1.326,10.78,10.78,0,0,0,5.422.16,7.508,7.508,0,0,0,4.437-3.007,10.007,10.007,0,0,0,1.367-3.848l-2.213.023" transform="translate(-212.718 -71.088)" fill="#a3cece"/>
            </g>
          </g>
        </g>
        <g id="Grupo_1071727" data-name="Grupo 1071727" transform="translate(200.566 68.382)" style="mix-blend-mode: multiply;isolation: isolate">
          <g id="Grupo_1071726" data-name="Grupo 1071726">
            <g id="Grupo_1071725" data-name="Grupo 1071725" clip-path="url(#clip-path-13)">
              <path id="Trazado_771257" data-name="Trazado 771257" d="M222.568,80.44c.192-.023.384-.05.575-.086l-.138-2.759c-.185.02-.376.036-.577.045Z" transform="translate(-213.274 -72.816)" fill="#a3cece"/>
              <path id="Trazado_771258" data-name="Trazado 771258" d="M229.053,75.8c.074-.178.143-.359.206-.543l-1.834-.895a3.865,3.865,0,0,1-.189.552Z" transform="translate(-213.548 -72.631)" fill="#a3cece"/>
              <path id="Trazado_771259" data-name="Trazado 771259" d="M226.088,79.248c.17-.1.334-.212.494-.327l-.848-2.222a4.639,4.639,0,0,1-.509.288Z" transform="translate(-213.434 -72.764)" fill="#a3cece"/>
              <path id="Trazado_771260" data-name="Trazado 771260" d="M219.749,77.471c-.2-.037-.387-.078-.567-.125l-.888,2.783c.188.047.376.091.566.13Z" transform="translate(-213.038 -72.801)" fill="#a3cece"/>
              <path id="Trazado_771261" data-name="Trazado 771261" d="M212.742,73.327l2.234-.229a5.657,5.657,0,0,1-.084-.573l-2.171.223c0,.193.011.387.022.579" transform="translate(-212.719 -72.526)" fill="#a3cece"/>
              <path id="Trazado_771262" data-name="Trazado 771262" d="M216.562,76.027a4.815,4.815,0,0,1-.414-.42l-2.362,1.549q.144.252.311.487Z" transform="translate(-212.78 -72.702)" fill="#a3cece"/>
            </g>
          </g>
        </g>
        <g id="Grupo_1071730" data-name="Grupo 1071730" transform="translate(238.191 68.121)" style="mix-blend-mode: multiply;isolation: isolate">
          <g id="Grupo_1071729" data-name="Grupo 1071729">
            <g id="Grupo_1071728" data-name="Grupo 1071728" clip-path="url(#clip-path-14)">
              <path id="Trazado_771263" data-name="Trazado 771263" d="M256.456,73.923c-.624-1.645-1.848-1.8-3.831-1.61.033.029.063.058.089.084a10.238,10.238,0,0,1,2.543,5.255,21.6,21.6,0,0,1,.1,5.9l.166-.055c3.749-1.276,2.014-6.725.932-9.578" transform="translate(-252.624 -72.249)" fill="#a3cece"/>
            </g>
          </g>
        </g>
        <g id="Grupo_1071733" data-name="Grupo 1071733" transform="translate(239.219 69.003)" style="mix-blend-mode: multiply;isolation: isolate">
          <g id="Grupo_1071732" data-name="Grupo 1071732">
            <g id="Grupo_1071731" data-name="Grupo 1071731" clip-path="url(#clip-path-15)">
              <path id="Trazado_771264" data-name="Trazado 771264" d="M257.228,75.969c-.058-.19-.118-.372-.178-.553l-2.206.454c.067.182.134.365.191.551Z" transform="translate(-253.779 -73.312)" fill="#a3cece"/>
              <path id="Trazado_771265" data-name="Trazado 771265" d="M257.77,78.1c-.036-.19-.075-.379-.119-.567l-2.208.586c.032.191.064.383.09.574Z" transform="translate(-253.814 -73.432)" fill="#a3cece"/>
              <path id="Trazado_771266" data-name="Trazado 771266" d="M256.089,73.184c-.8.11-1.591.255-2.374.44.114.17.22.344.322.521.784-.179,1.576-.323,2.372-.426a2.832,2.832,0,0,0-.32-.536" transform="translate(-253.715 -73.184)" fill="#a3cece"/>
              <path id="Trazado_771267" data-name="Trazado 771267" d="M257.976,79.9c-.006-.2-.02-.4-.038-.6l-2.279.838c.009.2.014.405.018.609Z" transform="translate(-253.826 -73.534)" fill="#a3cece"/>
              <path id="Trazado_771268" data-name="Trazado 771268" d="M257.731,81.958a4.607,4.607,0,0,0,.19-.773,8.338,8.338,0,0,1-2.261.971q-.013.3-.029.6a8.9,8.9,0,0,0,2.1-.8" transform="translate(-253.824 -73.641)" fill="#a3cece"/>
            </g>
          </g>
        </g>
        <g id="Grupo_1071736" data-name="Grupo 1071736" transform="translate(172.564 60.69)" style="mix-blend-mode: multiply;isolation: isolate">
          <g id="Grupo_1071735" data-name="Grupo 1071735">
            <g id="Grupo_1071734" data-name="Grupo 1071734" clip-path="url(#clip-path-16)">
              <path id="Trazado_771269" data-name="Trazado 771269" d="M186.986,64.408c-3.266.537-5.15,8-3.135,9.231.293.18.87.465,1.632.817a11.566,11.566,0,0,1,4.821-9.768,11.4,11.4,0,0,0-3.318-.279" transform="translate(-183.02 -64.367)" fill="#a3cece"/>
            </g>
          </g>
        </g>
        <g id="Grupo_1071739" data-name="Grupo 1071739" transform="translate(172.565 61.338)" style="mix-blend-mode: multiply;isolation: isolate">
          <g id="Grupo_1071738" data-name="Grupo 1071738">
            <g id="Grupo_1071737" data-name="Grupo 1071737" clip-path="url(#clip-path-17)">
              <path id="Trazado_771270" data-name="Trazado 771270" d="M185.663,72.461a12.31,12.31,0,0,1-2.624-1.175,6.675,6.675,0,0,0-.014.668,12.837,12.837,0,0,0,2.554,1.087c.025-.193.05-.388.084-.58" transform="translate(-183.022 -65.411)" fill="#a3cece"/>
              <path id="Trazado_771271" data-name="Trazado 771271" d="M183.538,68.768q-.091.277-.166.555L186.2,70.4q.1-.273.209-.539Z" transform="translate(-183.042 -65.267)" fill="#a3cece"/>
              <path id="Trazado_771272" data-name="Trazado 771272" d="M184.659,66.375c-.108.163-.211.334-.309.509l3.111.955c.112-.171.234-.333.355-.5Z" transform="translate(-183.098 -65.13)" fill="#a3cece"/>
              <path id="Trazado_771273" data-name="Trazado 771273" d="M185.824,65.055a4.531,4.531,0,0,0-.536.5c1.16.17,2.314.383,3.452.657.153-.162.311-.319.471-.472q-1.676-.42-3.387-.688" transform="translate(-183.151 -65.055)" fill="#a3cece"/>
            </g>
          </g>
        </g>
        <g id="Grupo_1071742" data-name="Grupo 1071742" transform="translate(191.272 72.269)" style="mix-blend-mode: multiply;isolation: isolate">
          <g id="Grupo_1071741" data-name="Grupo 1071741">
            <g id="Grupo_1071740" data-name="Grupo 1071740" clip-path="url(#clip-path-18)">
              <path id="Trazado_771274" data-name="Trazado 771274" d="M203.15,79.934a.289.289,0,0,1-.273-.382,18.7,18.7,0,0,1,1.178-2.749.289.289,0,0,1,.512.269,18.2,18.2,0,0,0-1.143,2.665.289.289,0,0,1-.273.2" transform="translate(-202.862 -76.648)" fill="#a3cece"/>
              <path id="Trazado_771275" data-name="Trazado 771275" d="M238.125,87.374a.289.289,0,0,1-.289-.272l-.389-6.374a.288.288,0,0,1,.271-.306.284.284,0,0,1,.306.271l.389,6.375a.288.288,0,0,1-.271.305h-.018" transform="translate(-204.838 -76.864)" fill="#a3cece"/>
            </g>
          </g>
        </g>
        <path id="Trazado_771276" data-name="Trazado 771276" d="M319.23,294.449l-15.16,2.933,13.022,73.841,7.384-1.589c-.6-28.131-1.116-56.132-5.245-75.185" transform="translate(-17.372 -16.823)" fill="#db7b61"/>
        <path id="Trazado_771277" data-name="Trazado 771277" d="M327.174,366.693l-7.617.135s-6.829,8.183-13.4,9.105-9.9,2.19-10.8,4.625.064,3.626.064,3.626l34.782-.617s2.726-7.44-3.034-16.875" transform="translate(-16.853 -20.95)" fill="#0d3f56"/>
        <path id="Trazado_771278" data-name="Trazado 771278" d="M320.72,370.331a.269.269,0,0,0,.049-.532,4.229,4.229,0,0,1-2.366-1.4.269.269,0,1,0-.409.348,4.764,4.764,0,0,0,2.667,1.574.313.313,0,0,0,.058.006" transform="translate(-18.164 -21.043)" fill="#f63b4e"/>
        <path id="Trazado_771279" data-name="Trazado 771279" d="M318.679,372.268a.269.269,0,0,0,.058-.53,2.866,2.866,0,0,1-1.988-1.771.269.269,0,0,0-.505.184,3.371,3.371,0,0,0,2.368,2.109.276.276,0,0,0,.067.008" transform="translate(-18.067 -21.127)" fill="#f63b4e"/>
        <path id="Trazado_771280" data-name="Trazado 771280" d="M316.5,373.928a.269.269,0,0,0,.048-.532,2.8,2.8,0,0,1-2.032-1.728.269.269,0,0,0-.5.189,3.348,3.348,0,0,0,2.429,2.065.238.238,0,0,0,.058.006" transform="translate(-17.94 -21.225)" fill="#f63b4e"/>
        <path id="Trazado_771281" data-name="Trazado 771281" d="M313.989,375.139a.269.269,0,0,0,.135-.5,3.188,3.188,0,0,1-1.445-2.051.268.268,0,0,0-.526.108,3.735,3.735,0,0,0,1.692,2.4.268.268,0,0,0,.144.039" transform="translate(-17.834 -21.275)" fill="#f63b4e"/>
        <path id="Trazado_771282" data-name="Trazado 771282" d="M306.935,379.179a16.629,16.629,0,0,0-2.8-2.351c-5.232.9-7.975,2.14-8.774,4.309-.9,2.434.064,3.626.064,3.626l14.751-.261a15.466,15.466,0,0,0-3.243-5.323" transform="translate(-16.853 -21.529)" fill="#376f92"/>
        <path id="Trazado_771283" data-name="Trazado 771283" d="M330.209,384.37l-34.783.616s-.961-1.192-.064-3.626l35.463-.627a13.812,13.812,0,0,1-.616,3.638" transform="translate(-16.853 -21.752)" fill="#f63b4e"/>
        <path id="Trazado_771284" data-name="Trazado 771284" d="M330.614,382.755l-35.63.5a4.732,4.732,0,0,1,.047-.537l35.664-.5c-.025.19-.053.371-.081.538" transform="translate(-16.853 -21.837)" fill="#376f92"/>
        <path id="Trazado_771285" data-name="Trazado 771285" d="M278.478,290.925l-15.154,2.968,13.192,73.81L283.9,366.1c-.666-28.13-1.246-56.129-5.419-75.173" transform="translate(-15.045 -16.621)" fill="#db7b61"/>
        <path id="Trazado_771286" data-name="Trazado 771286" d="M284.7,366.366l-7.616.185s-6.775,8.227-13.336,9.192-9.888,2.255-10.769,4.695.088,3.626.088,3.626l34.779-.843s2.678-7.458-3.145-16.855" transform="translate(-14.432 -20.932)" fill="#0d3f56"/>
        <path id="Trazado_771287" data-name="Trazado 771287" d="M262.942,376.444c-6.025.952-9.122,2.233-9.966,4.57-.882,2.44.088,3.625.088,3.625l15.134-.367c-.265-3.2-2.5-6.082-5.256-7.829" transform="translate(-14.432 -21.507)" fill="#376f92"/>
        <path id="Trazado_771288" data-name="Trazado 771288" d="M278.26,370.059a.268.268,0,0,0,.045-.532,4.226,4.226,0,0,1-2.374-1.38.269.269,0,0,0-.408.351,4.77,4.77,0,0,0,2.678,1.557.262.262,0,0,0,.059,0" transform="translate(-15.738 -21.028)" fill="#0d3f56"/>
        <path id="Trazado_771289" data-name="Trazado 771289" d="M276.232,372.009a.268.268,0,0,0,.054-.53,2.868,2.868,0,0,1-2-1.758.268.268,0,1,0-.5.186,3.372,3.372,0,0,0,2.382,2.1.273.273,0,0,0,.067.007" transform="translate(-15.641 -21.113)" fill="#f63b4e"/>
        <path id="Trazado_771290" data-name="Trazado 771290" d="M274.065,373.682a.268.268,0,0,0,.044-.532,2.806,2.806,0,0,1-2.043-1.715.268.268,0,1,0-.5.192,3.349,3.349,0,0,0,2.442,2.05.3.3,0,0,0,.057,0" transform="translate(-15.514 -21.211)" fill="#f63b4e"/>
        <path id="Trazado_771291" data-name="Trazado 771291" d="M271.56,374.911a.268.268,0,0,0,.131-.5,3.188,3.188,0,0,1-1.458-2.042.269.269,0,1,0-.526.111,3.735,3.735,0,0,0,1.708,2.392.275.275,0,0,0,.144.038" transform="translate(-15.409 -21.262)" fill="#f63b4e"/>
        <path id="Trazado_771292" data-name="Trazado 771292" d="M287.841,384.021l-34.778.843s-.969-1.186-.088-3.626l35.458-.859a13.767,13.767,0,0,1-.593,3.642" transform="translate(-14.432 -21.732)" fill="#f63b4e"/>
        <path id="Trazado_771293" data-name="Trazado 771293" d="M288.234,382.4l-35.626.733a4.928,4.928,0,0,1,.043-.538l35.66-.734q-.037.287-.077.539" transform="translate(-14.432 -21.817)" fill="#0d3f56"/>
        <path id="Trazado_771294" data-name="Trazado 771294" d="M284.989,215.61l-7.46,68.328-15.438-.322,1.715-71.25Z" transform="translate(-14.974 -12.133)" fill="#efad9c"/>
        <path id="Trazado_771295" data-name="Trazado 771295" d="M314.984,219.413l3.306,68.654-15.3,2.1-9.436-70.643Z" transform="translate(-16.772 -12.536)" fill="#efad9c"/>
        <path id="Trazado_771296" data-name="Trazado 771296" d="M263.013,209.85s-2.762,22.133-3.49,40.476S257,283.442,258.4,289.615s11.964,71.829,11.964,71.829,10.568.542,19.74-3.845c0,0-7.577-62.808-8.176-72.778s6.58-52.639,6.58-52.639,7.976,51.443,11.166,70.784,10.368,56.828,10.368,56.828,9.087,2.392,16.807-3.39c0,0-3.781-57.226-5.009-68.592s-1.453-30.605-5.586-73.376Z" transform="translate(-14.733 -11.989)" fill="#2c868e"/>
        <g id="Grupo_1071745" data-name="Grupo 1071745" transform="translate(246.363 200.565)" style="mix-blend-mode: multiply;isolation: isolate">
          <g id="Grupo_1071744" data-name="Grupo 1071744">
            <g id="Grupo_1071743" data-name="Grupo 1071743" clip-path="url(#clip-path-19)">
              <path id="Trazado_771297" data-name="Trazado 771297" d="M290.214,361.267c-.03-.255-.062-.52-.094-.791a74.621,74.621,0,0,1-19.885,4.417c.042.264.084.518.124.764a75.368,75.368,0,0,0,19.856-4.39" transform="translate(-261.802 -221.16)" fill="#a3cece"/>
              <path id="Trazado_771298" data-name="Trazado 771298" d="M273.959,212.735a.385.385,0,0,0-.483.256,23.828,23.828,0,0,1-12.1,14.114c-.028.3-.057.595-.084.9a24.635,24.635,0,0,0,12.925-14.785.386.386,0,0,0-.256-.483" transform="translate(-261.291 -212.718)" fill="#a3cece"/>
              <path id="Trazado_771299" data-name="Trazado 771299" d="M326.269,353.116a29.165,29.165,0,0,0,3.066-1.655c-.019-.282-.039-.572-.058-.873a28.778,28.778,0,0,1-3.068,1.693l-8.337-116a28.174,28.174,0,0,0,3.3,1.823c-.024-.3-.048-.6-.073-.9a27.334,27.334,0,0,1-3.3-1.906l-1.5-20.835-.78-.067,1.462,20.341a23.319,23.319,0,0,1-3.88-3.582,19.361,19.361,0,0,1-4.812-13.183.386.386,0,1,0-.771-.033,20.127,20.127,0,0,0,5,13.719,24.268,24.268,0,0,0,4.536,4.066l8.4,116.918a29.116,29.116,0,0,1-13.538,2.409c.051.27.1.533.148.784.555.032,1.111.054,1.668.054a30.06,30.06,0,0,0,11.78-2.437l.388,5.411c.25-.108.5-.224.75-.346Z" transform="translate(-263.932 -212.813)" fill="#a3cece"/>
              <path id="Trazado_771300" data-name="Trazado 771300" d="M292.323,214.726h0a.386.386,0,0,0-.386.383l-.1,12.215a4.014,4.014,0,0,1-.218,1.576.935.935,0,0,1-1.824-.007,4.033,4.033,0,0,1-.2-1.453l-.167-10.637a.409.409,0,0,0-.392-.38.386.386,0,0,0-.38.392l.166,10.637a4.686,4.686,0,0,0,.254,1.735,1.85,1.85,0,0,0,1.523,1.21l.091,0a1.885,1.885,0,0,0,1.633-1.189,4.7,4.7,0,0,0,.283-1.88l.1-12.215a.386.386,0,0,0-.383-.389" transform="translate(-262.854 -212.833)" fill="#a3cece"/>
              <path id="Trazado_771301" data-name="Trazado 771301" d="M277.067,293.322a.386.386,0,0,0,.377.3.414.414,0,0,0,.082-.009,17.5,17.5,0,0,0,5.634-2.341q-.04-.467-.07-.869a16.765,16.765,0,0,1-5.728,2.456.386.386,0,0,0-.3.459" transform="translate(-262.192 -217.157)" fill="#a3cece"/>
              <path id="Trazado_771302" data-name="Trazado 771302" d="M275.671,286.5a.386.386,0,0,0-.314.706,11.8,11.8,0,0,0,4.788,1,12.218,12.218,0,0,0,2.732-.313c0-.256,0-.521.008-.8a11.252,11.252,0,0,1-7.214-.587" transform="translate(-262.082 -216.931)" fill="#a3cece"/>
            </g>
          </g>
        </g>
        <path id="Trazado_771303" data-name="Trazado 771303" d="M314.639,134.116l-10.713-5.5-12.011.845a11.376,11.376,0,0,0-10.225,8.546l-16.153,63.6,45.016,9.214,10.132-64.829a11.374,11.374,0,0,0-6.046-11.875" transform="translate(-15.171 -7.348)" fill="#db7b61"/>
        <path id="Trazado_771304" data-name="Trazado 771304" d="M330.563,90.037c-.569-3.668-3.573-6.971-7.194-7.15-2.2-7.355-12.04-10.813-19.061-9.841-8.692,1.2-15.119,9.507-12.42,18.2,2.736,8.812,11.808,13.758,14.43,22.573.571,1.923,1.348,4.121,3.54,4.662,2.019.5,3.776-.96,5.2-2.172a57.179,57.179,0,0,0,10.519-11.884c2.8-4.2,5.8-9.114,4.983-14.389" transform="translate(-16.641 -4.164)" fill="#5c1922"/>
        <path id="Trazado_771305" data-name="Trazado 771305" d="M321.141,89.592c-2.755-11.311-22.6-12.989-26.169-5.53-7.333,15.343-6.8,22.585-3.326,27.6,4.018,5.8,7.558,6.14,5.087,15.417a6.7,6.7,0,0,0,11.932,3.178,57.879,57.879,0,0,1,9.823-20.517s3.79-15.483,2.654-20.146" transform="translate(-16.522 -4.544)" fill="#db7b61"/>
        <path id="Trazado_771306" data-name="Trazado 771306" d="M318.735,91.157c-4.5,3.824-10.762,1-10.762,1l4.645-2.248s-10.826,3.045-19.971-1.445c0,0-.472-3.921,5.441-8.675,3.783-3.041,12.1-1.823,18.647,1.282s8.739,6.9,7.649,11.893-2.232,11.3-2.232,11.3l-3.214,1.326c-3.445-3.911-.2-14.428-.2-14.428" transform="translate(-16.719 -4.458)" fill="#5c1922"/>
        <path id="Trazado_771307" data-name="Trazado 771307" d="M306.347,102.982a1.257,1.257,0,1,1-.891-1.539,1.257,1.257,0,0,1,.891,1.539" transform="translate(-17.361 -5.793)"/>
        <path id="Trazado_771308" data-name="Trazado 771308" d="M305.248,102.347a.461.461,0,1,1-.326-.564.46.46,0,0,1,.326.564" transform="translate(-17.388 -5.814)" fill="#fff"/>
        <path id="Trazado_771309" data-name="Trazado 771309" d="M296.38,100.327a1.257,1.257,0,1,1-.891-1.539,1.257,1.257,0,0,1,.891,1.539" transform="translate(-16.792 -5.642)"/>
        <path id="Trazado_771310" data-name="Trazado 771310" d="M295.281,99.692a.46.46,0,1,1-.326-.564.46.46,0,0,1,.326.564" transform="translate(-16.819 -5.663)" fill="#fff"/>
        <path id="Trazado_771311" data-name="Trazado 771311" d="M298.408,95.516A4.117,4.117,0,0,0,293.4,94.44a.83.83,0,0,0-.379.975.6.6,0,0,0,.842.362,2.95,2.95,0,0,1,2.26-.134,3.021,3.021,0,0,1,1,.584c.262.231.486.57.878.467a.647.647,0,0,0,.257-.143.822.822,0,0,0,.154-1.034" transform="translate(-16.739 -5.371)" fill="#5c1922"/>
        <path id="Trazado_771312" data-name="Trazado 771312" d="M303.733,96.933a5.265,5.265,0,0,1,5.607,1.754.741.741,0,1,1-1.178.9,3.694,3.694,0,0,0-2.2-1.31,3.981,3.981,0,0,0-1.316-.038c-.386.053-.795.22-1.13-.076a.721.721,0,0,1-.183-.26.747.747,0,0,1,.4-.969" transform="translate(-17.327 -5.526)" fill="#5c1922"/>
        <path id="Trazado_771313" data-name="Trazado 771313" d="M297.643,108.468a4.436,4.436,0,0,1-1.886-1.033.656.656,0,1,1,.889-.965,3.453,3.453,0,0,0,4.105.316.657.657,0,0,1,.826,1.022,4.708,4.708,0,0,1-3.935.661" transform="translate(-16.885 -6.073)" fill="#ad4d36"/>
        <path id="Trazado_771314" data-name="Trazado 771314" d="M297.193,104.25a.164.164,0,0,1-.122-.156c-.025-1.115.421-1.374.8-1.395a1.589,1.589,0,0,1,1.185.611.165.165,0,0,1-.007.233.168.168,0,0,1-.233-.008,1.281,1.281,0,0,0-.929-.507c-.339.017-.5.373-.488,1.059a.165.165,0,0,1-.16.168.148.148,0,0,1-.046-.006" transform="translate(-16.973 -5.868)" fill="#ad4d36"/>
        <path id="Trazado_771315" data-name="Trazado 771315" d="M324.17,112.685c-2.14,1.5-4.844,1.346-6.038-.353s-.426-4.3,1.714-5.8,4.844-1.346,6.038.353.426,4.3-1.714,5.8" transform="translate(-18.144 -6.027)" fill="#db7b61"/>
        <path id="Trazado_771316" data-name="Trazado 771316" d="M324.687,107.634a2.9,2.9,0,0,0-2.475-.608,2.373,2.373,0,0,0-1.137.481,1.445,1.445,0,0,0-.543,1.23,2.043,2.043,0,0,0,.464.978,1.945,1.945,0,0,1,.332.579.738.738,0,0,1-1.184.763.329.329,0,0,0-.421.506,1.364,1.364,0,0,0,.521.266,1.388,1.388,0,0,0,1.717-1.708,2.468,2.468,0,0,0-.434-.79,1.523,1.523,0,0,1-.342-.663.8.8,0,0,1,.31-.655.662.662,0,0,1,1.131.375,1.172,1.172,0,0,1,.029,1,.329.329,0,0,0,.164.435.364.364,0,0,0,.051.018.329.329,0,0,0,.384-.183,1.817,1.817,0,0,0-.044-1.576,1.493,1.493,0,0,0-.389-.451,2.065,2.065,0,0,1,1.419.484,1.271,1.271,0,0,1,.219,1.656.329.329,0,0,0,.506.42,1.923,1.923,0,0,0-.278-2.558" transform="translate(-18.26 -6.112)" fill="#ad4d36"/>
        <path id="Trazado_771317" data-name="Trazado 771317" d="M309.741,129.8s-3.29,6.081-9.371,5.085-5.905-6.95-5.905-6.95-7.255.27-9.747,3.061-10.169,24.625-12.961,33.6-10.108,35.651-12.133,42.949c0,0,18.513,14.02,58.093,8.194,0,0,.3-13.358,1.4-20.337s6.457-28.219,7.607-39.48c.967-9.471-1.326-14.624-3.619-18.244-3.3-5.2-13.359-7.876-13.359-7.876" transform="translate(-14.833 -7.309)" fill="#f63b4e"/>
        <g id="Grupo_1071748" data-name="Grupo 1071748" transform="translate(275.284 120.626)" style="mix-blend-mode: multiply;isolation: isolate">
          <g id="Grupo_1071747" data-name="Grupo 1071747">
            <g id="Grupo_1071746" data-name="Grupo 1071746" clip-path="url(#clip-path-20)">
              <path id="Trazado_771318" data-name="Trazado 771318" d="M311.589,129.8s-3.29,6.081-9.371,5.085-5.905-6.95-5.905-6.95a28.663,28.663,0,0,0-4.347.571,17.807,17.807,0,0,0,.564,1.929,12.527,12.527,0,0,0,23.439.892,38.618,38.618,0,0,0-4.38-1.527" transform="translate(-291.965 -127.935)" fill="#c1b4b6"/>
            </g>
          </g>
        </g>
        <g id="Grupo_1071751" data-name="Grupo 1071751" transform="translate(275.611 121.424)" style="mix-blend-mode: multiply;isolation: isolate">
          <g id="Grupo_1071750" data-name="Grupo 1071750">
            <g id="Grupo_1071749" data-name="Grupo 1071749" clip-path="url(#clip-path-21)">
              <path id="Trazado_771319" data-name="Trazado 771319" d="M296.383,128.782l-4.07.979c.084.269.166.518.237.723l.006.013,3.956-.951c-.061-.286-.1-.541-.128-.764" transform="translate(-292.312 -128.782)" fill="#c1b4b6"/>
              <path id="Trazado_771320" data-name="Trazado 771320" d="M309.49,133.572c-.206.155-.421.3-.647.446l1.853,4.127.025-.01c.225-.106.441-.23.66-.35Z" transform="translate(-293.256 -129.056)" fill="#c1b4b6"/>
              <path id="Trazado_771321" data-name="Trazado 771321" d="M297.59,132.125a6.742,6.742,0,0,1-.379-.676l-3.13,2.1c.141.216.284.431.438.637Z" transform="translate(-292.413 -128.934)" fill="#c1b4b6"/>
              <path id="Trazado_771322" data-name="Trazado 771322" d="M315.061,134.741c-1.09-1.132-2.232-2.217-3.427-3.237-.153.187-.324.382-.51.583q1.795,1.53,3.432,3.235c.176-.186.34-.385.505-.581" transform="translate(-293.387 -128.938)" fill="#c1b4b6"/>
              <path id="Trazado_771323" data-name="Trazado 771323" d="M299.454,134.047a6.18,6.18,0,0,1-.618-.477l-2.585,2.506c.19.174.384.347.586.509Z" transform="translate(-292.537 -129.056)" fill="#c1b4b6"/>
              <path id="Trazado_771324" data-name="Trazado 771324" d="M306.969,139.245q.385-.05.765-.123l-.444-4.311a7.869,7.869,0,0,1-.75.255Z" transform="translate(-293.125 -129.127)" fill="#c1b4b6"/>
              <path id="Trazado_771325" data-name="Trazado 771325" d="M302.073,139.048l1.232-3.692c-.184-.018-.363-.023-.553-.054-.081-.013-.148-.037-.226-.051l-1.2,3.6q.372.109.75.2" transform="translate(-292.827 -129.152)" fill="#c1b4b6"/>
            </g>
          </g>
        </g>
        <g id="Grupo_1071754" data-name="Grupo 1071754" transform="translate(244.791 194.484)" style="mix-blend-mode: multiply;isolation: isolate">
          <g id="Grupo_1071753" data-name="Grupo 1071753">
            <g id="Grupo_1071752" data-name="Grupo 1071752" clip-path="url(#clip-path-22)">
              <path id="Trazado_771326" data-name="Trazado 771326" d="M317.717,220.212s.058-2.583.216-6.068a103.729,103.729,0,0,1-13.506.982,106.233,106.233,0,0,1-31.854-4.645,104.109,104.109,0,0,1-11.361-4.213c-.667,2.415-1.217,4.41-1.589,5.749,0,0,18.513,14.02,58.093,8.194" transform="translate(-259.624 -206.269)" fill="#c1b4b6"/>
            </g>
          </g>
        </g>
        <g id="Grupo_1071757" data-name="Grupo 1071757" transform="translate(247.829 195.976)" style="mix-blend-mode: multiply;isolation: isolate">
          <g id="Grupo_1071756" data-name="Grupo 1071756">
            <g id="Grupo_1071755" data-name="Grupo 1071755" clip-path="url(#clip-path-23)">
              <path id="Trazado_771327" data-name="Trazado 771327" d="M284.673,213.562l-.9,7.108c.251.042.508.083.763.124l.9-7.077c-.254-.048-.505-.107-.759-.156" transform="translate(-264.041 -208.177)" fill="#c1b4b6"/>
              <path id="Trazado_771328" data-name="Trazado 771328" d="M278.231,212.111l-.953,7.18q.373.093.754.186l.954-7.181c-.252-.063-.5-.121-.755-.185" transform="translate(-263.671 -208.094)" fill="#c1b4b6"/>
              <path id="Trazado_771329" data-name="Trazado 771329" d="M294.112,215l-.155,6.891c.252.017.517.026.771.041l.155-6.858c-.257-.025-.515-.046-.771-.074" transform="translate(-264.623 -208.259)" fill="#c1b4b6"/>
              <path id="Trazado_771330" data-name="Trazado 771330" d="M314.581,215.349l-.054,6.155c.256-.025.516-.056.773-.083l.054-6.141c-.257.021-.515.049-.773.069" transform="translate(-265.799 -208.275)" fill="#c1b4b6"/>
              <path id="Trazado_771331" data-name="Trazado 771331" d="M269.821,209.625c-.244-.083-.486-.173-.729-.258l-2.018,6.572c.234.1.47.2.717.3Z" transform="translate(-263.088 -207.938)" fill="#c1b4b6"/>
              <path id="Trazado_771332" data-name="Trazado 771332" d="M309.671,215.6l-.135,6.31c.258-.016.515-.032.774-.05l.134-6.278c-.257.009-.516.01-.773.018" transform="translate(-265.514 -208.293)" fill="#c1b4b6"/>
              <path id="Trazado_771333" data-name="Trazado 771333" d="M306.625,215.657c-.257,0-.515-.008-.773-.008l-.108,6.44c.26-.008.511-.01.773-.022Z" transform="translate(-265.297 -208.297)" fill="#c1b4b6"/>
              <path id="Trazado_771334" data-name="Trazado 771334" d="M318.6,214.965c-.258.029-.516.065-.774.092l-.091,6.094c.255-.031.519-.071.775-.1Z" transform="translate(-265.982 -208.257)" fill="#c1b4b6"/>
              <path id="Trazado_771335" data-name="Trazado 771335" d="M300.137,222.144l.114-6.659c-.257-.014-.515-.023-.772-.039l-.115,6.683c.258,0,.512.012.773.015" transform="translate(-264.932 -208.285)" fill="#c1b4b6"/>
              <path id="Trazado_771336" data-name="Trazado 771336" d="M262.846,213.955c.22.118.448.238.691.363l2.185-6.188c-.24-.093-.481-.185-.721-.279Z" transform="translate(-262.846 -207.851)" fill="#c1b4b6"/>
              <path id="Trazado_771337" data-name="Trazado 771337" d="M290.564,214.557c-.256-.036-.511-.067-.766-.1l-.872,6.969c.253.029.512.056.768.083Z" transform="translate(-264.336 -208.228)" fill="#c1b4b6"/>
              <path id="Trazado_771338" data-name="Trazado 771338" d="M271.374,217.566c.239.082.487.163.735.244l1.885-6.859c-.247-.074-.5-.137-.743-.212Z" transform="translate(-263.333 -208.016)" fill="#c1b4b6"/>
            </g>
          </g>
        </g>
        <path id="Trazado_771339" data-name="Trazado 771339" d="M270.282,135.187,236.533,98.36l4.314-4.309,36.792,33.788Z" transform="translate(-13.514 -5.373)" fill="#db7b61"/>
        <path id="Trazado_771340" data-name="Trazado 771340" d="M257.313,105.47c-2.89-2.075-10.4,3.086-9.253,8.218s14.954,22.036,20.637,24.6,41.166,16.9,49.334,15.724,8.711-12.2,4.439-14.549-16.835-4.64-24.163-6.836a100.874,100.874,0,0,1-21.011-8.748c-6.954-3.974-11.215-12.114-19.982-18.409" transform="translate(-14.166 -5.999)" fill="#f63b4e"/>
        <g id="Grupo_1071760" data-name="Grupo 1071760" transform="translate(269.049 129.847)" style="mix-blend-mode: multiply;isolation: isolate">
          <g id="Grupo_1071759" data-name="Grupo 1071759">
            <g id="Grupo_1071758" data-name="Grupo 1071758" clip-path="url(#clip-path-24)">
              <path id="Trazado_771341" data-name="Trazado 771341" d="M315.421,156.361a.384.384,0,0,1-.073-.007c-12.2-2.324-18.529-4.022-29.764-8.929a.386.386,0,1,1,.309-.707c11.167,4.876,17.464,6.565,29.6,8.877a.386.386,0,0,1-.072.766" transform="translate(-285.352 -138.227)" fill="#c1b4b6"/>
              <path id="Trazado_771342" data-name="Trazado 771342" d="M325.513,141.341a.378.378,0,0,1-.135-.025,91.443,91.443,0,0,0-9.088-2.841.386.386,0,0,1,.191-.749,92.425,92.425,0,0,1,9.166,2.865.386.386,0,0,1-.134.749" transform="translate(-287.103 -137.715)" fill="#c1b4b6"/>
            </g>
          </g>
        </g>
        <path id="Trazado_771343" data-name="Trazado 771343" d="M241.971,95.813s-.164-5.444-3.509-7.966-8.883-3.948-9.212-3.071,5.812,4.936,5.812,4.936-7.128-3.674-8.279-2.907,2.8,4.222,7.431,6.2c0,0-7.1-2.777-8.034-1.662s7.4,4.22,7.4,4.22-6.47-1.007-7.237,0,4.715,2.149,6.744,2.428a6.241,6.241,0,0,0,2.084,3.649c1.919,1.783,5.264.856,5.264.856Z" transform="translate(-12.918 -4.829)" fill="#db7b61"/>
        <path id="Trazado_771344" data-name="Trazado 771344" d="M196.769,85.965a4.975,4.975,0,0,1,3.848-3.87,2.328,2.328,0,0,1,1.584.106,1.994,1.994,0,0,1,.83,1.374s3.406-1.84,4.537-.717-3.791,4.177-3.791,4.177,4.184-1.588,4.464-.338-3.539,3.151-6.132,4.416c0,0,5.237-1.922,4.119-.038s-2.47,1.774-2.47,1.774,1.816-.339,1.909.793-8.063,5.76-9.556,3.895c-1.312-1.64-.038-8.39.659-11.572" transform="translate(-11.172 -4.686)" fill="#db7b61"/>
      </g>
    </g>
  </g>
</svg>
