<svg xmlns="http://www.w3.org/2000/svg" xmlns:xlink="http://www.w3.org/1999/xlink" width="656" height="319.416" viewBox="0 0 656 319.416">
  <defs>
    <clipPath id="clip-path">
      <rect id="Rectángulo_309858" data-name="Rectángulo 309858" width="0.436" height="0.478" fill="none"/>
    </clipPath>
    <clipPath id="clip-path-2">
      <rect id="Rectángulo_309859" data-name="Rectángulo 309859" width="29.661" height="30.621" fill="none"/>
    </clipPath>
    <clipPath id="clip-path-3">
      <rect id="Rectángulo_309860" data-name="Rectángulo 309860" width="24.7" height="20.483" fill="none"/>
    </clipPath>
    <clipPath id="clip-path-4">
      <rect id="Rectángulo_309861" data-name="Rectángulo 309861" width="51.067" height="51.552" fill="none"/>
    </clipPath>
    <clipPath id="clip-path-5">
      <rect id="Rectángulo_309862" data-name="Rectángulo 309862" width="34.646" height="27.698" fill="none"/>
    </clipPath>
    <clipPath id="clip-path-6">
      <rect id="Rectángulo_309863" data-name="Rectángulo 309863" width="68.725" height="69.44" fill="none"/>
    </clipPath>
    <clipPath id="clip-path-7">
      <rect id="Rectángulo_309864" data-name="Rectángulo 309864" width="0.443" height="0.505" fill="none"/>
    </clipPath>
    <clipPath id="clip-path-8">
      <rect id="Rectángulo_309865" data-name="Rectángulo 309865" width="40.111" height="53.402" fill="none"/>
    </clipPath>
    <clipPath id="clip-path-9">
      <rect id="Rectángulo_309866" data-name="Rectángulo 309866" width="55.904" height="35.779" fill="none"/>
    </clipPath>
  </defs>
  <g id="Grupo_1071839" data-name="Grupo 1071839" transform="translate(-764 -8258)">
    <rect id="BG" width="656" height="319.416" transform="translate(764 8258)" fill="#f46464" opacity="0.949"/>
    <g id="Grupo_1071774" data-name="Grupo 1071774" transform="translate(0 -4)">
      <g id="Grupo_1071773" data-name="Grupo 1071773" transform="translate(1970 12779)">
        <path id="Trazado_771345" data-name="Trazado 771345" d="M113.348,32.709c-16.418-1.7-33.29-3.37-49.2,1.019s-30.873,16.278-33.9,32.5C26.794,84.753,39.229,104,34.006,122.1c-2.847,9.866-10.46,17.487-16.227,25.982C.153,174.041.749,211.05,19.2,236.43s53.476,37.358,83.607,28.6c20.51-5.966,38.677-20.465,60.016-21.427,14.906-.672,29.153,5.419,43.223,10.385s29.623,8.886,43.7,3.943c20.6-7.234,30.7-30.956,32.283-52.736s-2.885-43.768-.17-65.435c2.778-22.168,12.992-44.353,7.509-66.012-5.315-21-25.027-36.187-46.128-41.073-21.739-5.033-42.221.858-63.561,4.574-21.374,3.723-44.981-2.322-66.336-4.536" transform="translate(-985.321 -4480.639)" fill="#f5a8a8"/>
        <path id="Trazado_771346" data-name="Trazado 771346" d="M2.786,133.687c2.249,4.551,6.486,8.794,11.557,8.553,4.5-.215,8.214-4.057,9.567-8.359s.8-8.961-.084-13.384c-.893-4.468-2.171-9-4.944-12.612-2.1-2.742-6.186-5.92-9.908-5.494-3.271.375-4.834,3.736-6.11,6.409a28.83,28.83,0,0,0-.078,24.887" transform="translate(-983.999 -4499.758)" fill="#d93838"/>
        <path id="Trazado_771347" data-name="Trazado 771347" d="M12.782,75.067c7.282,5.126,15.681-8.876,7.747-14.016C12,55.529,6.548,70.679,12.782,75.067" transform="translate(-986.694 -4488.415)" fill="#d93838"/>
        <path id="Trazado_771348" data-name="Trazado 771348" d="M409.011,92.686a6.959,6.959,0,0,0,6.714-.076c5.881-3.351,4.2-14.187-3.157-13.828-6.791.331-9.7,10.463-3.557,13.9" transform="translate(-1092.276 -4493.464)" fill="#d93838"/>
        <path id="Trazado_771349" data-name="Trazado 771349" d="M357.639,4.872c-3.16,4.271-2.454,10.524.482,14.952s7.662,7.336,12.465,9.608c3,1.419,6.288,2.671,9.563,2.131,10.5-1.732,9.61-14.424,6.486-21.666C383.756,3.22,379.206.835,372.123.144c-5.218-.509-11.12.18-14.485,4.728" transform="translate(-1078.91 -4472.438)" fill="#d93838"/>
      </g>
      <g id="Grupo_995972" data-name="Grupo 995972" transform="translate(697.799 7891.47)">
        <g id="Grupo_995671" data-name="Grupo 995671" transform="translate(322.356 387.541)">
          <g id="Grupo_1071623" data-name="Grupo 1071623" transform="translate(0 0)">
            <g id="Grupo_995669" data-name="Grupo 995669" transform="translate(0 0)">
              <g id="Grupo_1071622" data-name="Grupo 1071622" transform="translate(0 0)">
                <path id="Trazado_654296" data-name="Trazado 654296" d="M156.541,39.271H73.464a27.32,27.32,0,0,1,2.8-2.357c3.6-2.614,8.17-4.151,12.553-3.359,2.8.514,5.544,1.942,8.352,1.454,2.541-.439,4.519-2.332,6.473-4.017a51.654,51.654,0,0,1,19.344-10.429,30.242,30.242,0,0,1,12.382-1.234c9.928,1.381,17.792,9.843,21.078,19.32Z" transform="translate(20.287 -5.343)" fill="#fee8e8"/>
                <path id="Trazado_654298" data-name="Trazado 654298" d="M98.487,16.322l-3.439,1.33a5.653,5.653,0,0,0-3.23,3.23l-1.33,3.439-1.33-3.439a5.648,5.648,0,0,0-3.229-3.23l-3.439-1.33,3.439-1.33a5.64,5.64,0,0,0,3.229-3.23l1.33-3.438,1.33,3.438a5.646,5.646,0,0,0,3.23,3.23Z" transform="translate(22.779 -8.324)" fill="#fff"/>
                <path id="Trazado_654299" data-name="Trazado 654299" d="M186.758,108.251l-3.439,1.33a5.644,5.644,0,0,0-3.229,3.23l-1.33,3.438-1.33-3.438a5.65,5.65,0,0,0-3.23-3.23l-3.439-1.33,3.439-1.33a5.646,5.646,0,0,0,3.23-3.23l1.33-3.438,1.33,3.438a5.64,5.64,0,0,0,3.229,3.23Z" transform="translate(47.155 17.062)" fill="#fff"/>
                <path id="Trazado_654300" data-name="Trazado 654300" d="M26.168,175.619l-3.439,1.33a5.653,5.653,0,0,0-3.23,3.23l-1.33,3.439-1.328-3.439a5.653,5.653,0,0,0-3.23-3.23l-3.439-1.33,3.439-1.33a5.646,5.646,0,0,0,3.23-3.23l1.328-3.438,1.33,3.438a5.646,5.646,0,0,0,3.23,3.23Z" transform="translate(2.809 35.665)" fill="#fff"/>
                <path id="Trazado_654301" data-name="Trazado 654301" d="M188.461,56.9a22.342,22.342,0,1,1-28.319-34.316c-.16-.134-.318-.268-.489-.4A22.95,22.95,0,1,0,188.766,57.45c-.1-.184-.2-.366-.3-.55" transform="translate(41.352 -4.497)" fill="#fff"/>
                <path id="Trazado_654302" data-name="Trazado 654302" d="M8.291,108.563A22.858,22.858,0,0,0,0,110.113v.66a22.047,22.047,0,0,1,8.291-1.6,22.348,22.348,0,0,1,0,44.7A22.024,22.024,0,0,1,0,152.268v.66a22.957,22.957,0,1,0,8.291-44.365" transform="translate(0 19.357)" fill="#fff"/>
                <path id="Trazado_654304" data-name="Trazado 654304" d="M132.929,88.954c-8.689,4.415-14.4,13.44-16.614,22.934-1.016,4.362-1.494,9.127-4.389,12.546-3.155,3.729-8.424,4.925-12.083,8.161a13.9,13.9,0,0,0-4.625,10.31c.008,2.837.828,5.962-.75,8.319-1.32,1.969-3.863,2.653-5.731,4.112-3.851,3.007-4.218,8.692-3.471,13.521a2.973,2.973,0,0,1,1.51.413h55.038c1.136-10.328,2.14-20.564,3.276-30.892,1.424-12.958,2.765-26.562-2.212-38.611-2.039-4.935-5.054-8.679-9.949-10.813" transform="translate(23.459 13.942)" fill="#2d1026"/>
                <path id="Trazado_654305" data-name="Trazado 654305" d="M136.369,170.6c16.1,1.314,32.465,2.1,48.566,3.412a11.421,11.421,0,0,0-1.877-10.618c-2.251-2.868-5.986-5.033-6.566-8.536-.588-3.555,2.388-6.735,3.134-10.265.694-3.275-.62-6.7-2.791-9.369a32.07,32.07,0,0,0-8.12-6.544,6.317,6.317,0,0,1-2.833-2.7,5,5,0,0,1-.054-2.653c1.031-5.777,3.9-11.6,2.279-17.256-1.063-3.706-3.932-6.734-7.006-9.306-4.579-3.831-10.079-7.072-16.22-7.648-.854,20.953-2.135,41.744-2.989,62.7a109.947,109.947,0,0,1-1.432,15.96c-1.575.872-2.471,2.033-4.093,2.827" transform="translate(37.658 13.987)" fill="#2d1026"/>
                <path id="Trazado_654306" data-name="Trazado 654306" d="M216.87,231.994H78.62c1.147-5.564,2.74-12.8,4.821-20.94,1.8-7.022,4.032-14.873,6.6-22.338.158-.465.318-.929.489-1.392,1.305-3.762,2.712-7.4,4.2-10.82a75.806,75.806,0,0,1,7.73-14.2,29.306,29.306,0,0,1,4.689-5.226,15.876,15.876,0,0,1,2.919-1.991c.845-.44,1.673-.868,2.467-1.27a135.733,135.733,0,0,1,16.438-7.279c.171-.073.366-.121.525-.2,4.274-1.428,5.9-1.417,6.166-1.4h.037l8.78.318,12.823.463,11.3.416s1.575.244,4.127.879c.184.036.391.1.587.134,5.8,1.478,15.911,4.763,24.179,11.185a40.45,40.45,0,0,1,6.069,5.764c8.988,10.648,12.236,48.86,13.31,67.9" transform="translate(21.711 29.4)" fill="#e6e2fb"/>
                <path id="Trazado_654307" data-name="Trazado 654307" d="M166.589,178.091c.39,14.873,1.136,29.906,2.235,44.817h-.537c-1.075-14.91-1.82-29.931-2.222-44.805a.261.261,0,0,1,.256-.268.268.268,0,0,1,.268.257" transform="translate(45.858 38.486)" fill="#fedede"/>
                <path id="Trazado_654308" data-name="Trazado 654308" d="M162.414,146.846a29.647,29.647,0,0,1-21.388,9.96h-.485a29.594,29.594,0,0,1-22.469-10.578c.176-.066.364-.121.53-.188a28.536,28.536,0,0,0,43.228.662c.188.043.385.1.584.143" transform="translate(32.605 29.706)" fill="#fedede"/>
                <path id="Trazado_654309" data-name="Trazado 654309" d="M124.168,134.219l-.967,16.857s2.226,3.343,13.757,5.887,19.334-7.214,19.334-7.214a40.9,40.9,0,0,1-1.654-8.546,59,59,0,0,1,1.072-9.325l-11.549.861Z" transform="translate(34.021 25.795)" fill="#ffa3a3"/>
                <path id="Trazado_654310" data-name="Trazado 654310" d="M124.1,134.032l-.644,11.22a8.008,8.008,0,0,0,.9.452,14.656,14.656,0,0,0,7.368.906c6.515-.7,12.33-4.4,17.353-8.611l-2.7.013a11.753,11.753,0,0,0-2.283-5.459Z" transform="translate(34.091 25.981)" fill="#2d1026"/>
                <path id="Trazado_654311" data-name="Trazado 654311" d="M173.13,141.356a11.368,11.368,0,0,1-6,3.033c-.176.022-.772.022-1.566.011-2.261-.089-6.145-.431-6.145-1.059-.133.375-.264.772-.385,1.18v.022a68.524,68.524,0,0,0-1.71,7.677s-3.608.651-8.748,1.157c-6.1.607-14.372,1-21.377-.1-5.217-.838-9.74-2.5-12.155-5.549-5.637-7.1-4.169-16.435-3.86-22.491a93.548,93.548,0,0,1,1.61-14.616,39.5,39.5,0,0,1,1.908-6.409,27.979,27.979,0,0,1,3.751-6.806,23.3,23.3,0,0,1,13.414-8.725,24.614,24.614,0,0,1,5.5-.651c.3-.01.595,0,.882,0h.265a1.5,1.5,0,0,1,.309.011c.253.011.518.011.761.033.541.022,1.069.066,1.622.143a42.018,42.018,0,0,1,5.526.971,26.874,26.874,0,0,1,4.986,1.787,26.188,26.188,0,0,1,14.8,24.322,60.148,60.148,0,0,1-2.084,11.615c-.033.131-.066.286-.111.419a1.408,1.408,0,0,1,.3-.507c.055-.045.121-.1.188-.156a7.491,7.491,0,0,1,3.661-1.015,6.54,6.54,0,0,1,4.181,1.511h.011a5.368,5.368,0,0,1,.442.375,8.659,8.659,0,0,1,1.158,1.225,9.61,9.61,0,0,1-1.136,12.585" transform="translate(30.592 13.687)" fill="#ffa3a3"/>
                <path id="Trazado_654312" data-name="Trazado 654312" d="M121.813,123.4a.251.251,0,0,1-.135-.038,6.065,6.065,0,0,1-1.374-1.023,4,4,0,0,1-.658-3.988,7.359,7.359,0,0,1,2.466-3.221.262.262,0,0,1,.331.406,6.86,6.86,0,0,0-2.3,2.986,3.467,3.467,0,0,0,.549,3.461,5.686,5.686,0,0,0,1.261.933.262.262,0,0,1-.137.485" transform="translate(32.97 21.154)" fill="#2d1026"/>
                <path id="Trazado_654313" data-name="Trazado 654313" d="M122.559,124.9a4.124,4.124,0,0,1-3.021-1.323.262.262,0,0,1,.387-.352,3.632,3.632,0,0,0,3.143,1.114,6.673,6.673,0,0,0,2.392-1.022.266.266,0,0,1,.36.087.262.262,0,0,1-.087.36,7.1,7.1,0,0,1-2.587,1.094,3.951,3.951,0,0,1-.587.043" transform="translate(32.991 23.382)" fill="#2d1026"/>
                <path id="Trazado_654314" data-name="Trazado 654314" d="M114.478,108.672a.757.757,0,0,0-.124.433.746.746,0,0,0,.465.518,5.332,5.332,0,0,0,1.759.424,18.785,18.785,0,0,0,3.175.208c.683-.033,1.477-.226,1.738-.858a1.294,1.294,0,0,0-.278-1.3,2.692,2.692,0,0,0-1.189-.718c-1.9-.648-4.437-.71-5.545,1.3" transform="translate(31.578 18.917)" fill="#2d1026"/>
                <path id="Trazado_654315" data-name="Trazado 654315" d="M137.5,112.433a.762.762,0,0,1,.018.449.739.739,0,0,1-.573.394,5.377,5.377,0,0,1-1.808,0,18.677,18.677,0,0,1-3.135-.546c-.656-.193-1.382-.568-1.488-1.243a1.3,1.3,0,0,1,.579-1.2,2.687,2.687,0,0,1,1.325-.419c2-.183,4.479.357,5.083,2.569" transform="translate(36.037 19.707)" fill="#2d1026"/>
                <path id="Trazado_654316" data-name="Trazado 654316" d="M129.826,116.4a2.518,2.518,0,1,0,2.823-2.172,2.519,2.519,0,0,0-2.823,2.172" transform="translate(35.845 20.914)" fill="#2d1026"/>
                <path id="Trazado_654317" data-name="Trazado 654317" d="M114.9,113.64a2.518,2.518,0,1,0,2.823-2.172,2.519,2.519,0,0,0-2.823,2.172" transform="translate(31.724 20.153)" fill="#2d1026"/>
                <path id="Trazado_654318" data-name="Trazado 654318" d="M150.045,130.813a.269.269,0,0,0,.3-.171,22.827,22.827,0,0,1,2.6-5.37,9.519,9.519,0,0,1,4.478-3.6,5.747,5.747,0,0,1,5.388.729.267.267,0,0,0,.329-.421,6.288,6.288,0,0,0-5.891-.813,10.032,10.032,0,0,0-4.74,3.8,23.165,23.165,0,0,0-2.668,5.5.264.264,0,0,0,.16.341.216.216,0,0,0,.038.012" transform="translate(41.375 22.731)" fill="#2d1026"/>
                <g id="Grupo_995643" data-name="Grupo 995643" transform="translate(203.794 140.899)" opacity="0.27">
                  <g id="Grupo_995642" data-name="Grupo 995642">
                    <g id="Grupo_995641" data-name="Grupo 995641" clip-path="url(#clip-path)">
                      <path id="Trazado_654319" data-name="Trazado 654319" d="M159.695,118.982c.133.065.251.154.383.23.01-.163.032-.314.054-.479a1.484,1.484,0,0,0-.436.249" transform="translate(-159.695 -118.734)" fill="#2d1026"/>
                    </g>
                  </g>
                </g>
                <path id="Trazado_654320" data-name="Trazado 654320" d="M157.565,126.732c-3.2,1.357-4.635,3.007-7.3,5.233-1.29-.739-2.393-3.767-2.272-5.249a2.147,2.147,0,0,0-.045-1.067,1.673,1.673,0,0,0-1.069-.736,12.964,12.964,0,0,1-4.251-1.988,5.9,5.9,0,0,1-2.081-4.662c.06-1.691.809-3.567-.161-4.951a7.027,7.027,0,0,0-1.529-1.337,9.425,9.425,0,0,1-3.187-7.1,25.9,25.9,0,0,1,1.318-7.889c.754-2.679,3.571-4.672,5.57-6.607a2.585,2.585,0,0,1,1.1-.743,2.335,2.335,0,0,1,1.188.1,15.671,15.671,0,0,1,5.628,3.18,29.065,29.065,0,0,1,9.562,14.618c1.556,5.708,2.779,13.712-2.477,19.2" transform="translate(37.463 14.118)" fill="#2d1026"/>
                <path id="Trazado_654321" data-name="Trazado 654321" d="M113.084,102.53c5.925,2.4,11.143,1.076,15.572-3.534,4.525.8,9.255,1.186,13.661-.125s8.446-4.609,9.553-9.07c-6.036-1.952-12.053-3.391-18.366-2.763-9.214.916-16.053,7.328-20.42,15.491" transform="translate(31.228 13.372)" fill="#2d1026"/>
                <path id="Trazado_654322" data-name="Trazado 654322" d="M156.123,132.233a2.816,2.816,0,1,1-2.816-2.816,2.816,2.816,0,0,1,2.816,2.816" transform="translate(41.557 25.115)" fill="#fff"/>
                <path id="Trazado_654323" data-name="Trazado 654323" d="M157.3,223H14.708C17.015,213.137,20.8,201,26.334,194.428c2.686-3.188,6.912-5.9,11.65-8.146l1.283-.586c1.257-.561,2.527-1.1,3.822-1.6A129.806,129.806,0,0,1,59.7,179.066l.147-.037c.147-.024.281-.061.415-.1,2.418-.55,4.372-.953,5.6-1.186.074-.011.135-.024.2-.036a2.531,2.531,0,0,0,.316-.061h.013c.6-.11.916-.16.916-.16l34.645.416H102a34.267,34.267,0,0,1,3.467.147c.794.061,1.7.145,2.712.281A66.23,66.23,0,0,1,125.346,183c.208.085.427.171.647.281.013,0,.026.013.037.013,1.026.439,2.063.915,3.114,1.465.037.013.085.024.122.037.513.257,1.026.524,1.551.805a.038.038,0,0,0,.024.013,5.43,5.43,0,0,1,.537.294c.221.121.44.244.673.366a1.138,1.138,0,0,0,.121.073,62.928,62.928,0,0,1,6.534,4.238,34.725,34.725,0,0,1,3.871,3.333.707.707,0,0,1,.135.134c.158.16.318.318.463.476a4.721,4.721,0,0,1,.342.355,43.212,43.212,0,0,1,4.958,6.4,64,64,0,0,1,6.168,12.737v.013c.831,2.307,1.526,4.592,2.112,6.776.2.745.392,1.478.55,2.2" transform="translate(4.062 38.39)" fill="#fedede"/>
                <path id="Trazado_654324" data-name="Trazado 654324" d="M151.265,214.783c-.294,2.528-.647,5.287-1.063,8.146v.011c-.416,2.943-.892,6-1.38,8.976H121.859c-1.147-13.629-2.515-28.014-3.372-30.163-.718-1.808-7.594-7.352-15.238-13.116-.735-.561-1.479-1.123-2.224-1.673-1.171-.879-2.357-1.746-3.516-2.614a4.97,4.97,0,0,1-.428-.3c-2.125-1.551-4.19-3.041-6.094-4.433,0,0,0,.013-.013,0-5.519-3.98-9.659-6.875-9.659-6.875l-7.326,1.771-1.234.292-1.246.306H71.5L66.113,176.4a.275.275,0,0,0-.037.048c-.1.147-.5.732-1,1.576v.011c-1.172,1.991-2.954,5.447-3.138,8.5v.024A6.768,6.768,0,0,0,62,187.978a.217.217,0,0,0,.011.085,2.992,2.992,0,0,0,.086.465c.026.086.05.184.074.269.037.121.073.255.123.439v.013c1.1,4.8,3.846,29.076,5.336,42.668H43.557c-.366-1.271-.744-2.614-1.16-4.03-.329-1.184-.684-2.406-1.038-3.677-.037-.11-.061-.219-.1-.329-.024-.085-.048-.183-.073-.281-.281-.952-.55-1.942-.842-2.931q-.239-.879-.477-1.759a.045.045,0,0,1-.011-.036c-1.8-6.424-3.664-13.274-5.227-19.368-.379-1.49-.745-2.931-1.087-4.311-1.11-4.53-1.965-8.378-2.356-10.906-1.979-12.675,4.029-35.584,4.029-35.584l16.84-.769,7.608-.355,10.514-.487,15.13-.684,5.24-.245,9.72-.452,2.369-.11.574-.024,2.723-.122,5.286-.244s.208.257.588.745c.77.976,2.245,2.857,4.2,5.373.573.745,1.183,1.551,1.854,2.406q1.172,1.539,2.492,3.261c5.74,7.486,13.189,17.4,19.392,26.255a.013.013,0,0,0,.013.013c.133.2.268.378.39.561,1,1.441,1.967,2.845,2.88,4.2.122.171.246.353.355.524,4.606,6.826,7.939,12.444,8.329,14.886.341,2.125.108,6.277-.452,11.345" transform="translate(8.502 29.477)" fill="#6f66ff"/>
                <path id="Trazado_654325" data-name="Trazado 654325" d="M128.391,57.126S139.8,44.737,140.723,45.12s-2.019,8.8-2.019,8.8,11.3-10.085,12.685-8.485-7.638,10.251-7.638,10.251,9.5-5.981,11.253-5.134-7.264,9.5-7.264,9.5,8.92-4.555,9.89-3.314-7.968,8.1-7.968,8.1,4.909-2.769,5.537-1.545-17.733,12.446-17.733,12.446l-9.423-18.452Z" transform="translate(35.358 1.835)" fill="#ffa3a3"/>
                <g id="Grupo_995646" data-name="Grupo 995646" transform="translate(163.4 46.947)" opacity="0.32">
                  <g id="Grupo_995645" data-name="Grupo 995645">
                    <g id="Grupo_995644" data-name="Grupo 995644" clip-path="url(#clip-path-2)">
                      <path id="Trazado_654326" data-name="Trazado 654326" d="M128.391,57.126S139.8,44.737,140.723,45.12s-2.019,8.8-2.019,8.8,11.3-10.085,12.685-8.485-7.638,10.251-7.638,10.251,9.5-5.981,11.253-5.134-7.264,9.5-7.264,9.5,8.92-4.555,9.89-3.314-7.968,8.1-7.968,8.1,4.909-2.769,5.537-1.545-17.733,12.446-17.733,12.446l-9.423-18.452Z" transform="translate(-128.042 -45.112)" fill="#2d1026"/>
                    </g>
                  </g>
                </g>
                <path id="Trazado_654327" data-name="Trazado 654327" d="M46.123,49.6c-.065,3.973-.786,8.241-3.6,11.045-1.737,1.73-4.072,2.7-6.082,4.1A16.837,16.837,0,0,0,29.689,81.2,10.754,10.754,0,0,0,31.52,85.72a11.233,11.233,0,0,0,6.513,3.854,29.394,29.394,0,0,0,9.341.4c4.274-.371,8.5-1.138,12.726-1.905l18.512-3.36a5.532,5.532,0,0,0,2.173-.718c1.166-.8,1.54-2.329,1.691-3.731a33.833,33.833,0,0,0-1.5-12.834c-3.222-11.317-9.82-22.012-19.764-28.3a19.952,19.952,0,0,0-6.63-2.888c-2.347-.473-6.58-.593-7.8,2.03-1.507,3.248-.613,7.871-.667,11.333" transform="translate(8.128 -0.691)" fill="#2d1026"/>
                <path id="Trazado_654328" data-name="Trazado 654328" d="M80,33.218c4.435,4.963,6.753,11.457,8.313,17.929.623,2.582,1.194,5.3,2.89,7.347,2.439,2.939,6.529,3.745,9.981,5.382a14.616,14.616,0,0,1,5.85,4.715,9.253,9.253,0,0,1,1.575,7.214,9.807,9.807,0,0,1-3.855,5.5A20.37,20.37,0,0,1,98.569,84.2C89.7,86.941,80.226,86.859,70.942,86.6c-2.6-.071-5.356-.205-7.486-1.692-2.92-2.035-3.762-5.952-4.006-9.5A52.752,52.752,0,0,1,71.828,37.965c1.454-1.7,3.125-3.375,5.281-3.975Z" transform="translate(16.384 -1.45)" fill="#2d1026"/>
                <path id="Trazado_654329" data-name="Trazado 654329" d="M121.089,163.455l.928,8.01-1.709.061-.636.024-5.117.184-2.527.085-.574.024-2.809.1-9.549.342-5.276.2-15.252.549-10.356.366-3.382.122-2.357.085-1.905.074-16.853.6L48.221,123.4.01,106.988A117.8,117.8,0,0,1,1.146,91.345c.011-.11.024-.208.037-.331a1.928,1.928,0,0,1,.036-.268c.245-1.747.526-3.469.855-5.179v-.024A116.242,116.242,0,0,1,5.115,72.966c9.049.733,21.48,1.746,32.556,2.649C51.421,76.74,63.1,77.7,63.621,77.777c.232.037,1.173.037,2.577.013h.074c2.783-.024,7.315-.134,11.65-.232.623-.024,1.246-.037,1.856-.061,5.337-.134,9.928-.268,9.928-.268h.39a1.21,1.21,0,0,0,.208-.013,94.337,94.337,0,0,0,21.383-2.82c2.7-.745,7.644-2.638,13.457-5.019,16.07-6.534,38.736-16.755,38.736-16.755l.818,1.4L175.2,72.2l.513.892-60.644,38.478,4.225,36.428.074.636,1.294,11.185Z" transform="translate(0.003 3.909)" fill="#f46464"/>
                <path id="Trazado_654330" data-name="Trazado 654330" d="M69.365,87.014A23.611,23.611,0,0,0,46.6,108.1l3.162-.073,3.969-.1,4.3-.1,3.846-.086a8.548,8.548,0,0,1,15.924-.379l3.848-.085,4.3-.1,3.969-.1,3.175-.074a23.622,23.622,0,0,0-23.727-20" transform="translate(12.869 13.404)" fill="#ffcb7d"/>
                <path id="Trazado_654331" data-name="Trazado 654331" d="M68.754,89.5a20.45,20.45,0,0,0-19.673,17.842l3.969-.1,4.3-.1,3.848-.085a8.548,8.548,0,0,1,15.924-.379l3.846-.085,4.3-.1,3.969-.1a20.464,20.464,0,0,0-20.48-16.9" transform="translate(13.553 14.091)" fill="#ff7373"/>
                <path id="Trazado_654332" data-name="Trazado 654332" d="M67.993,92.622a16.512,16.512,0,0,0-15.8,13.763l4.3-.1,3.846-.085a8.549,8.549,0,0,1,15.924-.379l3.848-.086,4.3-.1A16.515,16.515,0,0,0,67.993,92.622" transform="translate(14.412 14.953)" fill="#6f66ff"/>
                <path id="Trazado_654333" data-name="Trazado 654333" d="M67.16,95.952a12.286,12.286,0,0,0-11.6,9.415l3.846-.085A8.55,8.55,0,0,1,75.33,104.9l3.846-.086A12.262,12.262,0,0,0,67.16,95.952" transform="translate(15.342 15.873)" fill="#925cd5"/>
                <path id="Trazado_654334" data-name="Trazado 654334" d="M75.478,67l.442,6.973.055.813a8.416,8.416,0,0,1-7.644,8.941c-8.3,1.266-16.032-6.4-16.032-6.4l-1-13.881,6.614.972Z" transform="translate(14.165 6.897)" fill="#ffa3a3"/>
                <g id="Grupo_995649" data-name="Grupo 995649" transform="translate(65.367 70.249)" opacity="0.32">
                  <g id="Grupo_995648" data-name="Grupo 995648">
                    <g id="Grupo_995647" data-name="Grupo 995647" clip-path="url(#clip-path-3)">
                      <path id="Trazado_654335" data-name="Trazado 654335" d="M75.4,66.929l.442,6.973.055.813s.828,7.908-7.832,9.035c-8.326,1.082-15.846-6.5-15.846-6.5l-1-13.881,6.613.972Z" transform="translate(-51.222 -63.372)" fill="#2d1026"/>
                    </g>
                  </g>
                </g>
                <path id="Trazado_654336" data-name="Trazado 654336" d="M74.438,66.791l.442,6.973a2.658,2.658,0,0,1-.376.258,7.444,7.444,0,0,1-3.539.815,22.649,22.649,0,0,1-8.933-1.3c-2.332-.9-5.657-2.708-6.72-5.138-.716-1.664.207-3.125,1.559-4.19Z" transform="translate(15.205 7.108)" fill="#2d1026"/>
                <path id="Trazado_654337" data-name="Trazado 654337" d="M91.9,58.873c.209,4.741,1.309,12.035-3.118,17.562-6.607,8.248-33.083,3.3-33.083,3.3a49.724,49.724,0,0,0-1.594-6.956c.107.667-5.475.889-6.025.79A8.836,8.836,0,0,1,43.4,71.178a7.523,7.523,0,0,1-.821-9.844,5.788,5.788,0,0,1,4.543-2.4,5.892,5.892,0,0,1,2.856.807.922.922,0,0,1,.368.514,48.677,48.677,0,0,1-1.653-9.41,20.432,20.432,0,0,1,15.6-20.314,31.852,31.852,0,0,1,4.327-.739c.426-.052.837-.092,1.261-.11.2-.014.4-.013.6-.019a2.22,2.22,0,0,1,.242,0c.066,0,.134,0,.2,0,.234,0,.467-.006.7,0a18.457,18.457,0,0,1,14.741,7.425,25.757,25.757,0,0,1,4.357,10.361A72.044,72.044,0,0,1,91.9,58.873" transform="translate(11.351 -2.433)" fill="#ffa3a3"/>
                <g id="Grupo_995652" data-name="Grupo 995652" transform="translate(52.458 27.223)" opacity="0.32">
                  <g id="Grupo_995651" data-name="Grupo 995651">
                    <g id="Grupo_995650" data-name="Grupo 995650" clip-path="url(#clip-path-4)">
                      <path id="Trazado_654338" data-name="Trazado 654338" d="M91.9,58.873c.209,4.741,1.309,12.035-3.118,17.562-6.607,8.248-33.083,3.3-33.083,3.3a49.724,49.724,0,0,0-1.594-6.956c.107.667-5.475.889-6.025.79A8.836,8.836,0,0,1,43.4,71.178a7.523,7.523,0,0,1-.821-9.844,5.788,5.788,0,0,1,4.543-2.4,5.892,5.892,0,0,1,2.856.807.922.922,0,0,1,.368.514,48.677,48.677,0,0,1-1.653-9.41,20.432,20.432,0,0,1,15.6-20.314,31.852,31.852,0,0,1,4.327-.739c.426-.052.837-.092,1.261-.11.2-.014.4-.013.6-.019a2.22,2.22,0,0,1,.242,0c.066,0,.134,0,.2,0,.234,0,.467-.006.7,0a18.457,18.457,0,0,1,14.741,7.425,25.757,25.757,0,0,1,4.357,10.361A72.044,72.044,0,0,1,91.9,58.873" transform="translate(-41.107 -29.656)" fill="#2d1026"/>
                    </g>
                  </g>
                </g>
                <path id="Trazado_654339" data-name="Trazado 654339" d="M67.7,56.5l7.111.915s-1.337,4.084-4.646,3.451S67.7,56.5,67.7,56.5" transform="translate(18.668 4.979)" fill="#fedede"/>
                <path id="Trazado_654340" data-name="Trazado 654340" d="M66.795,52.351a2.323,2.323,0,1,1-2.591-2.02,2.322,2.322,0,0,1,2.591,2.02" transform="translate(17.167 3.271)" fill="#2d1026"/>
                <path id="Trazado_654341" data-name="Trazado 654341" d="M79.871,51.275a2.323,2.323,0,1,1-2.591-2.02,2.322,2.322,0,0,1,2.591,2.02" transform="translate(20.778 2.974)" fill="#2d1026"/>
                <path id="Trazado_654342" data-name="Trazado 654342" d="M52.67,63.025a.209.209,0,0,1-.236-.135,17.891,17.891,0,0,0-2.009-4.211,7.458,7.458,0,0,0-3.483-2.837,4.5,4.5,0,0,0-4.216.545.209.209,0,0,1-.292-.038.207.207,0,0,1,.037-.292,4.916,4.916,0,0,1,4.609-.607,7.845,7.845,0,0,1,3.687,2.993,18.154,18.154,0,0,1,2.06,4.31.208.208,0,0,1-.126.265.138.138,0,0,1-.031.009" transform="translate(11.706 4.604)" fill="#2d1026"/>
                <path id="Trazado_654343" data-name="Trazado 654343" d="M72.7,56.709a.262.262,0,0,1-.092-.507,2.309,2.309,0,0,0,1.206-2.519,7.334,7.334,0,0,0-1.4-2.908.262.262,0,0,1,.434-.295,7.752,7.752,0,0,1,1.488,3.127,2.838,2.838,0,0,1-1.54,3.086.259.259,0,0,1-.092.017" transform="translate(19.984 3.285)" fill="#2d1026"/>
                <path id="Trazado_654344" data-name="Trazado 654344" d="M60.819,49.26a.262.262,0,0,1-.219-.4,3.7,3.7,0,0,1,1.93-1.553,2.608,2.608,0,0,1,2.462.426.262.262,0,0,1-.337.4,2.111,2.111,0,0,0-1.967-.327,3.164,3.164,0,0,0-1.649,1.336.26.26,0,0,1-.219.12" transform="translate(16.722 2.403)" fill="#2d1026"/>
                <path id="Trazado_654345" data-name="Trazado 654345" d="M79.067,47.661a.261.261,0,0,1-.24-.157,1.6,1.6,0,0,0-1.452-.87h0a2.588,2.588,0,0,0-1.7.734.262.262,0,0,1-.352-.388,3.112,3.112,0,0,1,2.055-.869h.005a2.1,2.1,0,0,1,1.931,1.184.262.262,0,0,1-.135.345.274.274,0,0,1-.1.022" transform="translate(20.775 2.11)" fill="#2d1026"/>
                <path id="Trazado_654346" data-name="Trazado 654346" d="M43.961,59.836a8.385,8.385,0,0,1,7.092,1.677,28.853,28.853,0,0,1,2.153,2.157.515.515,0,0,0,.3.188c.235.022.373-.251.439-.477a25.914,25.914,0,0,0,.467-8.728,21.847,21.847,0,0,0,7.436-21.679c-.351-1.471-.955-3.216-2.42-3.585A5.208,5.208,0,0,0,57,29.5a27.954,27.954,0,0,0-5.909,2.277,18.277,18.277,0,0,0-5.4,3.587c-2.814,2.979-3.564,7.391-3.31,11.483s1.362,8.086,1.713,12.169c.01.119.049.268.167.283s-.222.449-.3.537" transform="translate(11.691 -2.535)" fill="#2d1026"/>
                <path id="Trazado_654347" data-name="Trazado 654347" d="M63.655,48.97c-.564-2.841-1.052-7.879-2.141-10.561A15.375,15.375,0,0,0,56.4,31.525c-.509-.357-.941-1.05-1.436-1.431a32.5,32.5,0,0,1,17.057-3.083,18.608,18.608,0,0,1,6.221,1.349,16.594,16.594,0,0,1,5.57,4.348c2.217,2.522,4.3,8.609,5.468,11.757-8.24,2.575-17.089,3.226-25.628,4.5" transform="translate(15.179 -3.193)" fill="#2d1026"/>
                <path id="Trazado_654348" data-name="Trazado 654348" d="M90.572,167.175v17.747s-2.538,3.375-14.793,5.351-19.854-8.736-19.854-8.736a42.99,42.99,0,0,0,2.25-8.869,61.863,61.863,0,0,0-.561-9.849l12.066,1.6Z" transform="translate(15.443 34.339)" fill="#ffa3a3"/>
                <g id="Grupo_995655" data-name="Grupo 995655" transform="translate(71.369 197.157)" opacity="0.32">
                  <g id="Grupo_995654" data-name="Grupo 995654">
                    <g id="Grupo_995653" data-name="Grupo 995653" clip-path="url(#clip-path-5)">
                      <path id="Trazado_654349" data-name="Trazado 654349" d="M90.572,167.175v17.747s-2.538,3.375-14.793,5.351-19.854-8.736-19.854-8.736a42.99,42.99,0,0,0,2.25-8.869,61.863,61.863,0,0,0-.561-9.849l12.066,1.6Z" transform="translate(-55.925 -162.818)" fill="#2d1026"/>
                    </g>
                  </g>
                </g>
                <path id="Trazado_654350" data-name="Trazado 654350" d="M88.8,166.829v11.813a8.3,8.3,0,0,1-.972.42,15.4,15.4,0,0,1-7.787.507c-6.794-1.124-12.673-5.36-17.692-10.082l2.834.176a12.386,12.386,0,0,1,2.725-5.592Z" transform="translate(17.217 34.685)" fill="#2d1026"/>
                <path id="Trazado_654351" data-name="Trazado 654351" d="M112.429,158.476c-.042,6.377.935,16.252-5.4,23.373-9.436,10.621-44.647,2.159-44.647,2.159a67.154,67.154,0,0,0-1.662-9.461c.065.676-4.1.807-6.512.762-.832-.033-1.454-.071-1.642-.106a11.949,11.949,0,0,1-6.12-3.54,10.114,10.114,0,0,1-.429-13.283,9.361,9.361,0,0,1,1.29-1.216c.151-.123.314-.248.479-.36,0-.011.013,0,.013,0a6.86,6.86,0,0,1,4.487-1.332,7.9,7.9,0,0,1,3.777,1.286,2.471,2.471,0,0,1,.186.171,1.271,1.271,0,0,1,.278.547c-.036-.145-.061-.3-.084-.45a63.718,63.718,0,0,1-1.492-12.31A27.47,27.47,0,0,1,77.3,118.51a43.509,43.509,0,0,1,5.861-.685c.578-.046,1.134-.065,1.7-.06.259-.008.533.008.805.01a2.645,2.645,0,0,1,.323.011c.087.006.175.011.273.017.311.011.621.026.933.05a25.917,25.917,0,0,1,5.736,1.021,24.489,24.489,0,0,1,13.546,9.959,34.664,34.664,0,0,1,5.143,14.211,97.285,97.285,0,0,1,.809,15.432" transform="translate(12.077 21.897)" fill="#ffa3a3"/>
                <g id="Grupo_995658" data-name="Grupo 995658" transform="translate(55.813 139.659)" opacity="0.32">
                  <g id="Grupo_995657" data-name="Grupo 995657">
                    <g id="Grupo_995656" data-name="Grupo 995656" clip-path="url(#clip-path-6)">
                      <path id="Trazado_654352" data-name="Trazado 654352" d="M112.429,158.476c-.042,6.377.935,16.252-5.4,23.373-9.436,10.621-44.647,2.159-44.647,2.159a67.154,67.154,0,0,0-1.662-9.461c.065.676-4.1.807-6.512.762-.832-.033-1.454-.071-1.642-.106a11.949,11.949,0,0,1-6.12-3.54,10.114,10.114,0,0,1-.429-13.283,9.361,9.361,0,0,1,1.29-1.216c.151-.123.314-.248.479-.36,0-.011.013,0,.013,0a6.86,6.86,0,0,1,4.487-1.332,7.9,7.9,0,0,1,3.777,1.286,2.471,2.471,0,0,1,.186.171,1.271,1.271,0,0,1,.278.547c-.036-.145-.061-.3-.084-.45a63.718,63.718,0,0,1-1.492-12.31A27.47,27.47,0,0,1,77.3,118.51a43.509,43.509,0,0,1,5.861-.685c.578-.046,1.134-.065,1.7-.06.259-.008.533.008.805.01a2.645,2.645,0,0,1,.323.011c.087.006.175.011.273.017.311.011.621.026.933.05a25.917,25.917,0,0,1,5.736,1.021,24.489,24.489,0,0,1,13.546,9.959,34.664,34.664,0,0,1,5.143,14.211,97.285,97.285,0,0,1,.809,15.432" transform="translate(-43.736 -117.762)" fill="#2d1026"/>
                    </g>
                  </g>
                </g>
                <path id="Trazado_654353" data-name="Trazado 654353" d="M72.271,138.43a5.643,5.643,0,0,0-2.136,2.663,1.95,1.95,0,0,0,.228,1.986c1.071,1.166,3.321.54,4.609.2,1.522-.4,4.058-.895,5.114-2.131a6.12,6.12,0,0,0,1.045-2.28c.523-1.746-.426-2.564-2.143-2.393-2.2.219-4.823.65-6.718,1.958" transform="translate(19.322 27.057)" fill="#2d1026"/>
                <path id="Trazado_654354" data-name="Trazado 654354" d="M95.164,136.118a5.1,5.1,0,0,1,2.474,1.839,1.757,1.757,0,0,1,.254,1.787c-.667,1.263-2.778,1.23-3.982,1.226-1.422-.005-3.751.144-4.954-.694a5.528,5.528,0,0,1-1.433-1.753c-.856-1.405-.214-2.337,1.325-2.579a13.224,13.224,0,0,1,6.316.175" transform="translate(24.064 26.836)" fill="#2d1026"/>
                <path id="Trazado_654355" data-name="Trazado 654355" d="M78.793,146.677a2.647,2.647,0,1,1-2.832-2.45,2.647,2.647,0,0,1,2.832,2.45" transform="translate(20.298 29.203)" fill="#2d1026"/>
                <path id="Trazado_654356" data-name="Trazado 654356" d="M94.962,145.747a2.647,2.647,0,1,1-2.831-2.45,2.646,2.646,0,0,1,2.831,2.45" transform="translate(24.763 28.946)" fill="#2d1026"/>
                <path id="Trazado_654357" data-name="Trazado 654357" d="M58.938,161.747a.281.281,0,0,1-.308-.2,24.063,24.063,0,0,0-2.408-5.792,10.013,10.013,0,0,0-4.482-4.049,6.044,6.044,0,0,0-5.7.44.281.281,0,0,1-.32-.461,6.607,6.607,0,0,1,6.231-.5,10.568,10.568,0,0,1,4.746,4.273,24.443,24.443,0,0,1,2.469,5.928.278.278,0,0,1-.189.348.237.237,0,0,1-.041.01" transform="translate(12.592 30.976)" fill="#2d1026"/>
                <g id="Grupo_995661" data-name="Grupo 995661" transform="translate(58.85 178.682)" opacity="0.27">
                  <g id="Grupo_995660" data-name="Grupo 995660">
                    <g id="Grupo_995659" data-name="Grupo 995659" clip-path="url(#clip-path-7)">
                      <path id="Trazado_654358" data-name="Trazado 654358" d="M46.559,148.628c-.144.061-.273.145-.416.218,0-.174-.014-.333-.028-.505a1.543,1.543,0,0,1,.444.287" transform="translate(-46.115 -148.341)" fill="#2d1026"/>
                    </g>
                  </g>
                </g>
                <path id="Trazado_654359" data-name="Trazado 654359" d="M85.378,156.332a.262.262,0,0,1-.069-.514c1.575-.429,3.166-.949,3.826-2.149a4.106,4.106,0,0,0,.191-2.705,18.169,18.169,0,0,0-2.806-6.834.262.262,0,0,1,.434-.292,18.727,18.727,0,0,1,2.888,7.032,4.552,4.552,0,0,1-.249,3.051c-.757,1.381-2.463,1.944-4.146,2.4a.256.256,0,0,1-.069.009" transform="translate(23.504 29.065)" fill="#2d1026"/>
                <path id="Trazado_654360" data-name="Trazado 654360" d="M86.736,157.41q-.115,0-.23,0a6.438,6.438,0,0,1-5.055-2.855.262.262,0,1,1,.438-.287,5.812,5.812,0,0,0,9.46.362.263.263,0,0,1,.368-.047.261.261,0,0,1,.047.366,6.44,6.44,0,0,1-5.028,2.464" transform="translate(22.481 31.944)" fill="#2d1026"/>
                <path id="Trazado_654361" data-name="Trazado 654361" d="M103.257,121.873c1.515,1.729,2.505,4.072-.255,5.523l-.046.023a9.152,9.152,0,0,1-5.1.587,19.9,19.9,0,0,0-5.18-.209c-2.919.472-5.417,2.6-8.364,2.819-3.724.278-7.058-2.537-10.789-2.7a2.111,2.111,0,0,0-1.572.417,2.139,2.139,0,0,0-.528,1.237c-.775,4.784,2.548,9.418,2.241,14.255a11.377,11.377,0,0,1-4.444,8c-1.233.97-2.694,1.79-3.384,3.2-.9,1.833-.2,4.044-.613,6.041a3.748,3.748,0,0,1-2.777,3.05,4.279,4.279,0,0,1-3.737-1.794c-.929-1.109-1.58-2.437-2.569-3.494a7.429,7.429,0,0,0-8.545-1.5,93.1,93.1,0,0,1-.236-14.362A38.384,38.384,0,0,1,50.75,129.4a24.356,24.356,0,0,1,7.769-9.256c3.507-2.277,8.446-3.387,12.495-4.17,9.621-1.862,22.913-1.886,30.916,4.626a11.108,11.108,0,0,1,1.327,1.276" transform="translate(13.023 21.104)" fill="#2d1026"/>
                <path id="Trazado_654362" data-name="Trazado 654362" d="M67.051,224.711h-7.8l-17.682-4.03-3.469-.794a30.07,30.07,0,0,0,1.05-3.358,17937.917,17937.917,0,0,1,.122-.513,9.685,9.685,0,0,0,.244-2.552,1.037,1.037,0,0,0-.011-.2,8.8,8.8,0,0,0-.465-1.563.048.048,0,0,1-.011-.037c-1.368-3.627-5.154-11.088-5.154-14.165,0-1.246-.073-3.175-.073-5.2,0-1.673.048-3.407.2-4.9.208-2.027.623-3.6,1.429-3.982.647-.3,1.465.758,2.393,2.381,2.076,3.725,4.653,10.466,6.619,10.856a1.5,1.5,0,0,0,.524.013.016.016,0,0,0,.024,0c1.186-.122,2.675-1.307,4.054-2.822a24.841,24.841,0,0,0,2.3-2.93,14.391,14.391,0,0,0,1.967-3.835c.269-1.062.721-3.614,1.27-6.35.9-4.445,2.052-9.427,3.1-9.427,1.283,0,2.577,5.507,3.114,8.109.171.805.269,1.331.269,1.331a.9.9,0,0,0,.11.024c.036.011.1.024.158.037h.037a1.454,1.454,0,0,1,.171.036,9.931,9.931,0,0,1,3.077,1.381,7.638,7.638,0,0,1,.7.61,3.477,3.477,0,0,1,.537.721,18.671,18.671,0,0,1,1.489,3.834c.037.171.061.257.061.257a1.458,1.458,0,0,1,.342-.036,2.771,2.771,0,0,1,2.614,1.868,12.567,12.567,0,0,1,.842,4.921l.134.037c.452.122,1.942.708,2.541,3.2.6,2.515-5.056,21.322-6.815,27.073" transform="translate(9.333 36.684)" fill="#ffa3a3"/>
                <g id="Grupo_995664" data-name="Grupo 995664" transform="translate(43.132 207.992)" opacity="0.32">
                  <g id="Grupo_995663" data-name="Grupo 995663">
                    <g id="Grupo_995662" data-name="Grupo 995662" clip-path="url(#clip-path-8)">
                      <path id="Trazado_654363" data-name="Trazado 654363" d="M67.051,224.711h-7.8l-17.682-4.03-3.469-.794a30.07,30.07,0,0,0,1.05-3.358,17937.917,17937.917,0,0,1,.122-.513,9.685,9.685,0,0,0,.244-2.552,1.037,1.037,0,0,0-.011-.2,8.8,8.8,0,0,0-.465-1.563.048.048,0,0,1-.011-.037c-1.368-3.627-5.154-11.088-5.154-14.165,0-1.246-.073-3.175-.073-5.2,0-1.673.048-3.407.2-4.9.208-2.027.623-3.6,1.429-3.982.647-.3,1.465.758,2.393,2.381,2.076,3.725,4.653,10.466,6.619,10.856a1.5,1.5,0,0,0,.524.013.016.016,0,0,0,.024,0c1.186-.122,2.675-1.307,4.054-2.822a24.841,24.841,0,0,0,2.3-2.93,14.391,14.391,0,0,0,1.967-3.835c.269-1.062.721-3.614,1.27-6.35.9-4.445,2.052-9.427,3.1-9.427,1.283,0,2.577,5.507,3.114,8.109.171.805.269,1.331.269,1.331a.9.9,0,0,0,.11.024c.036.011.1.024.158.037h.037a1.454,1.454,0,0,1,.171.036,9.931,9.931,0,0,1,3.077,1.381,7.638,7.638,0,0,1,.7.61,3.477,3.477,0,0,1,.537.721,18.671,18.671,0,0,1,1.489,3.834c.037.171.061.257.061.257a1.458,1.458,0,0,1,.342-.036,2.771,2.771,0,0,1,2.614,1.868,12.567,12.567,0,0,1,.842,4.921l.134.037c.452.122,1.942.708,2.541,3.2.6,2.515-5.056,21.322-6.815,27.073" transform="translate(-33.798 -171.309)" fill="#2d1026"/>
                    </g>
                  </g>
                </g>
                <path id="Trazado_654364" data-name="Trazado 654364" d="M42.08,197.625a.262.262,0,0,1-.1-.5c.051-.022,5.144-2.129,7.256-6.351,1.667-3.332,2.674-8.419,3.273-11.458.181-.914.324-1.636.439-2.079.1-.391.2-.882.3-1.414.442-2.213,1.008-4.983,2.517-4.765,1.216.158,2.357,3.525,3.395,10,.281,1.766-.257,13.428-.279,13.924a.254.254,0,0,1-.273.249.261.261,0,0,1-.25-.273c.006-.121.559-12.1.285-13.817-1.105-6.915-2.246-9.478-2.944-9.569-1.031-.134-1.58,2.563-1.935,4.348-.108.544-.209,1.045-.313,1.442-.111.429-.253,1.145-.431,2.049-.606,3.067-1.622,8.2-3.318,11.591-2.2,4.4-7.312,6.515-7.529,6.6a.264.264,0,0,1-.1.019" transform="translate(11.548 36.61)" fill="#2d1026"/>
                <path id="Trazado_654365" data-name="Trazado 654365" d="M60.712,193.524l-.047,0a.263.263,0,0,1-.211-.3c.009-.047.842-4.578.911-6.021a7.4,7.4,0,0,0-1.5-5.052,6.974,6.974,0,0,0-4.464-2.866.261.261,0,0,1-.225-.295.254.254,0,0,1,.292-.225,7.386,7.386,0,0,1,4.831,3.095,7.948,7.948,0,0,1,1.593,5.369c-.07,1.479-.884,5.9-.919,6.088a.261.261,0,0,1-.258.214" transform="translate(15.235 38.739)" fill="#2d1026"/>
                <path id="Trazado_654366" data-name="Trazado 654366" d="M63.6,194.9a.18.18,0,0,1-.037,0,.263.263,0,0,1-.223-.3c.006-.046.641-4.68-.181-7.782-.766-2.89-2.834-2.416-2.921-2.394a.262.262,0,0,1-.129-.508c.027-.01,2.654-.636,3.557,2.768a24.565,24.565,0,0,1,.194,7.989.262.262,0,0,1-.259.226" transform="translate(16.545 40.152)" fill="#2d1026"/>
                <path id="Trazado_654367" data-name="Trazado 654367" d="M40.409,207l23.96,8.035H33.875l4.629-8.67.684.232Z" transform="translate(9.354 46.363)" fill="#fedede"/>
                <path id="Trazado_654368" data-name="Trazado 654368" d="M40.43,206.77l24.118,8.317h-1.6L40.6,207.381l-1.38-.477-.5-.171-4.592,8.354h-.6l4.837-8.793a.273.273,0,0,1,.318-.122l.658.219Z" transform="translate(9.259 46.307)" fill="#2d1026"/>
                <path id="Trazado_654369" data-name="Trazado 654369" d="M125.912,218.007l.134-2.2.758-13.567.2-3.419,22.958-3.236,2.614,22.421Z" transform="translate(34.77 43.387)" fill="#fedede"/>
                <path id="Trazado_654370" data-name="Trazado 654370" d="M128.123,202.565s6.618,9.717,16.335,7.885,12.391-9.153,12.391-9.153-19.432-23.516-22.53-24.783-29.007-2.676-29.429-.424,6.054,3.943,6.054,3.943-9.857-.282-10,2.254,9.012,4.506,9.012,4.506-8.449.7-8.449,2.815,12.814,4.506,12.814,4.506l9.857,1.409s-15.771,0-15.771,1.972,19.714,5.069,19.714,5.069" transform="translate(27.875 37.675)" fill="#ffa3a3"/>
                <g id="Grupo_995667" data-name="Grupo 995667" transform="translate(128.82 212.576)" opacity="0.32">
                  <g id="Grupo_995666" data-name="Grupo 995666">
                    <g id="Grupo_995665" data-name="Grupo 995665" clip-path="url(#clip-path-9)">
                      <path id="Trazado_654371" data-name="Trazado 654371" d="M128.123,202.565s6.618,9.717,16.335,7.885,12.391-9.153,12.391-9.153-19.432-23.516-22.53-24.783-29.007-2.676-29.429-.424,6.054,3.943,6.054,3.943-9.857-.282-10,2.254,9.012,4.506,9.012,4.506-8.449.7-8.449,2.815,12.814,4.506,12.814,4.506l9.857,1.409s-15.771,0-15.771,1.972,19.714,5.069,19.714,5.069" transform="translate(-100.945 -174.901)" fill="#2d1026"/>
                    </g>
                  </g>
                </g>
                <path id="Trazado_654372" data-name="Trazado 654372" d="M109.869,180.1a.219.219,0,0,1-.057-.006c-.65-.148-6.327-1.511-5.975-4.024.336-2.406,22.466-.637,29.243-.036a.261.261,0,0,1,.237.283.252.252,0,0,1-.283.237c-13.953-1.234-28.494-1.727-28.679-.412-.241,1.73,3.939,3.07,5.572,3.44a.262.262,0,0,1-.057.517" transform="translate(28.67 37.659)" fill="#2d1026"/>
                <path id="Trazado_654373" data-name="Trazado 654373" d="M128.222,187.6h-.015c-.553-.032-13.56-.781-16.219-1.2-1.526-.241-9.225-1.577-10.841-4.215a1.87,1.87,0,0,1-.209-1.617c1.089-3.336,24.877-1.65,27.586-1.447a.262.262,0,0,1,.241.281.268.268,0,0,1-.281.241c-10.475-.787-26.322-1.145-27.05,1.087a1.354,1.354,0,0,0,.16,1.182c1.526,2.494,9.565,3.826,10.476,3.97,2.633.416,16.032,1.187,16.168,1.194a.262.262,0,0,1-.015.523" transform="translate(27.847 38.675)" fill="#2d1026"/>
                <path id="Trazado_654374" data-name="Trazado 654374" d="M124.072,193.284h-.027c-2.284-.226-22.329-2.3-22.694-5.51a1.961,1.961,0,0,1,.487-1.533c1.655-1.958,6.995-2.266,7.222-2.279a.253.253,0,0,1,.276.248.261.261,0,0,1-.248.274c-.054,0-5.341.31-6.849,2.1a1.431,1.431,0,0,0-.368,1.133c.239,2.1,13.759,4.214,22.225,5.05a.262.262,0,0,1-.026.522" transform="translate(27.984 40.177)" fill="#2d1026"/>
              </g>
            </g>
          </g>
        </g>
        <path id="Trazado_654375" data-name="Trazado 654375" d="M141.5,35.623H73.464a22.374,22.374,0,0,1,2.291-1.93,13.737,13.737,0,0,1,10.281-2.751c2.29.421,4.54,1.591,6.84,1.19,2.081-.36,3.7-1.909,5.3-3.29A42.3,42.3,0,0,1,114.02,20.3a24.768,24.768,0,0,1,10.141-1.011c8.131,1.131,14.571,8.061,17.263,15.822Z" transform="translate(403.578 466.939)" fill="#fee8e8"/>
        <path id="Trazado_654376" data-name="Trazado 654376" d="M73.464,35.531h67.66a22.251,22.251,0,0,0-2.278-1.92,13.66,13.66,0,0,0-10.224-2.735c-2.277.419-4.515,1.582-6.8,1.184-2.069-.358-3.68-1.9-5.271-3.272a42.068,42.068,0,0,0-15.754-8.493,24.63,24.63,0,0,0-10.085-1.005c-8.086,1.125-14.49,8.016-17.166,15.734Z" transform="translate(248.737 517.336)" fill="#fee8e8"/>
      </g>
    </g>
  </g>
</svg>
