<svg xmlns="http://www.w3.org/2000/svg" xmlns:xlink="http://www.w3.org/1999/xlink" width="92" height="92" viewBox="0 0 92 92">
  <defs>
    <clipPath id="clip-path">
      <rect id="Rect치ngulo_309969" data-name="Rect치ngulo 309969" width="65.887" height="61.36" fill="none"/>
    </clipPath>
  </defs>
  <g id="Grupo_1071688" data-name="Grupo 1071688" transform="translate(-361 -2587)">
    <g id="Grupo_1071685" data-name="Grupo 1071685" transform="translate(462 10554)">
      <rect id="Rect치ngulo_309963" data-name="Rect치ngulo 309963" width="92" height="92" transform="translate(-101 -7967)" fill="none"/>
    </g>
    <g id="Grupo_995762" data-name="Grupo 995762" transform="translate(375 2601.358)">
      <g id="Grupo_995761" data-name="Grupo 995761" clip-path="url(#clip-path)">
        <path id="Trazado_655740" data-name="Trazado 655740" d="M36.975,25.772c.81.227,1.007.456.956,1.4-.031.577.113.794.72.888,1.117.173,2.219.461,3.316.744.317.082.448.04.584-.256q1.146-2.507,2.333-5c.163-.341.081-.489-.249-.592a2.914,2.914,0,0,1-.462-.22,1.73,1.73,0,0,1-.817-2.488c1.122-1.994,2.246-3.991,3.457-5.932a4.787,4.787,0,0,1,4.164-2.267c.387-.01.56-.009.454-.5a5.146,5.146,0,1,1,7.526,3.464c-.149.083-.3.165-.5.275a5.59,5.59,0,0,1,1.4,2.591,5.181,5.181,0,0,1-.238,2.9c-.7,1.927-1.391,3.86-2.093,5.787a1.774,1.774,0,0,1-2.7,1.128c-.629-.323-.828-.172-1.085.426-.657,1.531-1.384,3.033-2.114,4.531-.195.4-.169.607.223.873a30.6,30.6,0,0,1,4.7,3.984c.59.6.619.9.183,1.64a1.185,1.185,0,0,1-1.593-.305,30.359,30.359,0,0,0-9.029-6.455,29.858,29.858,0,0,0-11.492-2.843,30.679,30.679,0,0,0-9.3.881c-.358.089-.44.2-.285.56.407.941.77,1.9,1.152,2.853a2.57,2.57,0,0,1-.188,2.4,18.24,18.24,0,0,1-1.28,2.073,3.21,3.21,0,0,0-.479,2.9.879.879,0,0,0,.681.751c.6.168,1.191.348,1.778.544a.983.983,0,0,0,1.007-.192c.874-.69,1.772-1.349,2.659-2.023a2.6,2.6,0,0,1,3.615,0c.288.223.57.454.861.673a2.6,2.6,0,0,1,1.028,3q-.63,2.287-1.253,4.577a2.61,2.61,0,0,1-1.63,1.849q-2.862,1.133-5.717,2.283a2.625,2.625,0,0,1-2.459-.187c-.845-.5-1.7-1-2.546-1.494a1.163,1.163,0,0,0-.716-.236,1,1,0,0,1-1.1-.777c.085-.857.431-1.167,1.284-1.16a2.753,2.753,0,0,1,1.393.433c.829.49,1.666.968,2.487,1.472a1.1,1.1,0,0,0,1.084.1q2.673-1.091,5.367-2.131a1.138,1.138,0,0,0,.755-.866c.279-1.1.61-2.184.885-3.283.493-1.966.739-1.392-.945-2.769a.8.8,0,0,0-1.143-.017c-.926.729-1.878,1.425-2.811,2.146a2.63,2.63,0,0,1-2.6.458,5.053,5.053,0,0,0-.8-.241,3.414,3.414,0,0,1-3.226-3.708,2,2,0,0,0-.034-.254,2.947,2.947,0,0,1,.436-2.026c.559-.888,1.073-1.8,1.641-2.684a1.1,1.1,0,0,0,.083-1.142c-.355-.825-.72-1.649-1-2.5-.19-.583-.423-.683-1-.464A31,31,0,0,0,5.829,45.476a29.823,29.823,0,0,0-3.88,14.932c-.211.737-.57,1.03-1.146.934-.551-.091-.821-.465-.8-1.2A32.541,32.541,0,0,1,12.347,34.788c.561-.463,1.156-.887,1.752-1.3.288-.2.384-.36.208-.724-.793-1.634-1.557-3.282-2.307-4.937-.157-.346-.292-.46-.652-.249a2.623,2.623,0,0,1-1.081.386,1.7,1.7,0,0,1-1.733-.99c-.868-2.32-1.836-4.612-2.478-7.006-.456-1.7.031-3.075,1.382-4.689a5.2,5.2,0,0,1-2.98-3.409,5.148,5.148,0,0,1,7.73-5.706,5.08,5.08,0,0,1,2.278,5.33c-.1.475-.02.556.449.567a4.836,4.836,0,0,1,4.238,2.372c1.164,1.895,2.26,3.832,3.355,5.769a1.772,1.772,0,0,1-.907,2.609c-.753.37-.752.369-.39,1.148.695,1.492,1.4,2.978,2.073,4.48.176.4.349.469.766.339A23.431,23.431,0,0,1,27.555,28c.3-.045.393-.146.392-.442q-.016-2.863,0-5.725c0-.3-.068-.443-.391-.4a3.638,3.638,0,0,1-.514,0,1.751,1.751,0,0,1-1.851-1.976c.169-2.2.325-4.4.582-6.6A4.993,4.993,0,0,1,29.1,8.649c-1.864-2.816-1.7-5.465.44-7.359a5.143,5.143,0,0,1,6.813,0c2.124,1.853,2.289,4.538.44,7.358a5.117,5.117,0,0,1,3.353,4.4c.093.831.159,1.664.231,2.5.108,1.26.222,2.519.313,3.78a1.754,1.754,0,0,1-1.971,2.089c-.577-.015-.848.066-.792.735.05.6-.386.909-.945,1.032-.813-.254-.96-.445-.965-1.273,0-.471-.014-.943,0-1.414a.936.936,0,0,1,.959-.99,7.776,7.776,0,0,1,1.22,0c.461.044.585-.115.539-.569q-.278-2.715-.5-5.435a3.147,3.147,0,0,0-3.372-3.183c-.384,0-.769.022-1.153.034-1.028-.009-2.058-.056-3.084-.017a3.081,3.081,0,0,0-2.954,2.857c-.143,1.579-.277,3.158-.412,4.738-.042.49-.278,1.131-.056,1.434.273.374.955.106,1.458.127.874.037,1.206.341,1.209,1.209.006,1.8-.007,3.6.008,5.4,0,.507-.233,1.184.113,1.473.283.236.939,0,1.426.024.467.026.566-.168.562-.6-.02-2.015-.011-4.03-.006-6.044a3.751,3.751,0,0,1,.061-.83.851.851,0,0,1,.832-.679.862.862,0,0,1,.9.484,2.633,2.633,0,0,1,.141.606c0,1.814,0,3.628.009,5.442,0,.507-.212,1.137.1,1.489.292.333.939.055,1.41.174.521.132.606-.083.595-.549-.023-.91.147-1.111.951-1.323M7.432,8.022a3.168,3.168,0,0,0,2.735,5.569A3.112,3.112,0,0,0,12.6,11.086a3.24,3.24,0,0,0-1.582-3.376,3.093,3.093,0,0,0-3.581.313M32.092,2.07a3.151,3.151,0,0,0-2.367,3.045,3.229,3.229,0,0,0,5.9,1.821,3.223,3.223,0,0,0-.032-3.621,3.169,3.169,0,0,0-3.5-1.245M57.136,7.4a3.174,3.174,0,0,0-2.73,5.544,3.131,3.131,0,0,0,3.624.373,3.207,3.207,0,0,0,1.618-3.286A3.086,3.086,0,0,0,57.136,7.4m-6.2,17.322q-1.2,2.519-2.39,5.039c-.628,1.331-.613,1.313.651,2.079.432.262.612.222.823-.248.852-1.892,1.739-3.768,2.62-5.647.387-.826.829-.987,1.643-.619a8.816,8.816,0,0,1,.926.442c.389.234.527.1.663-.291.51-1.475.988-2.967,1.6-4.4,1.255-2.92.269-4.553-2.465-5.55a.259.259,0,0,0-.064-.007c-.808-.39-1.608-.8-2.425-1.166a3.143,3.143,0,0,0-4.336,1.389Q47,17.768,45.835,19.8c-.725,1.255-.724,1.256.6,1.874.892.415,1.05.838.632,1.737-.738,1.59-1.484,3.176-2.223,4.766-.2.425-.617.933-.51,1.266.131.4.838.392,1.26.629.394.222.575.125.764-.285.868-1.883,1.778-3.747,2.659-5.624.251-.535.585-.914,1.231-.768.551.125.751.545.68,1.328M12.163,14.966c-.759.34-1.523.67-2.276,1.022a3.141,3.141,0,0,0-1.766,4.24c.509,1.429,1.028,2.854,1.548,4.279.168.461.233,1.136.561,1.315.394.215.9-.3,1.362-.494.829-.357,1.267-.213,1.651.6.754,1.605,1.5,3.216,2.25,4.822.208.444.339,1.108.683,1.253.363.153.819-.428,1.276-.6s.5-.382.292-.816c-.892-1.848-1.747-3.713-2.613-5.573-.342-.736-.26-1.217.249-1.523s.964-.145,1.447.507q1.119,2.446,2.239,4.892c.205.445.328,1.087.679,1.265.4.2.9-.327,1.4-.436.526-.117.471-.362.277-.767-.9-1.889-1.782-3.789-2.657-5.692a.986.986,0,0,1,.535-1.518c.364-.181.727-.367,1.1-.512.339-.131.332-.287.165-.571-1.009-1.713-1.993-3.441-3-5.153a3.058,3.058,0,0,0-2.152-1.478c-1.246-.244-2.226.406-3.247.929" transform="translate(0 0)" fill="#030303"/>
        <path id="Trazado_655741" data-name="Trazado 655741" d="M66.83,134.865a1,1,0,0,0,1.1.777,1.163,1.163,0,0,1,.716.236c.849.5,1.7.99,2.546,1.494a2.624,2.624,0,0,0,2.459.187q2.854-1.153,5.717-2.283A2.609,2.609,0,0,0,81,133.427q.623-2.289,1.253-4.577a2.6,2.6,0,0,0-1.028-3c-.291-.219-.572-.45-.861-.673a2.6,2.6,0,0,0-3.615,0c-.887.674-1.785,1.333-2.659,2.023a.983.983,0,0,1-1.007.192c-.588-.2-1.182-.376-1.778-.544a.88.88,0,0,1-.681-.751,3.211,3.211,0,0,1,.479-2.9,18.242,18.242,0,0,0,1.28-2.073,2.569,2.569,0,0,0,.188-2.4c-.382-.952-.745-1.912-1.152-2.853-.155-.358-.073-.471.285-.56a30.687,30.687,0,0,1,9.3-.881,1.319,1.319,0,0,0,.226.106,30.156,30.156,0,0,1,7.606,3.174,31.936,31.936,0,0,1,8.219,6.873,30.024,30.024,0,0,1,3.7,5.287,30.739,30.739,0,0,1,3.935,15.392c-.3.008-.6.023-.9.023l-37.955,0a1.7,1.7,0,0,0-.416-.848c-.671-.856-1.329-1.723-2.007-2.573a2.035,2.035,0,0,1-.446-1.1c-.117-1.08-.279-2.156-.432-3.232-.1-.7.007-.869.7-1.016.821-.175,1.017-.408,1.056-1.255a15.8,15.8,0,0,0,2.54-.4m26.589-6.09c-1.011.172-2.249.426-3.5.585a2.931,2.931,0,0,0-2.724,2.33,2.581,2.581,0,0,1-.943,1.4c-.718.576-1.408,1.189-2.083,1.816a2.508,2.508,0,0,0,.386,4.059c.561.353,1.138.682,1.711,1.014a2.549,2.549,0,0,0,2.9-.093c.638-.431,1.288-.848,1.909-1.3a1.107,1.107,0,0,1,1.135-.15c1.693.6,3.405,1.138,5.094,1.745a2.7,2.7,0,0,0,3.275-.866c.384-.46.786-.907,1.2-1.337a2.494,2.494,0,0,0,.763-2.907c-.548-1.2-1.268-2.309-2.764-2.513-.679-.092-1.356-.2-2.037-.272a1.1,1.1,0,0,1-.915-.6c-.338-.6-.7-1.179-1.073-1.75a2.559,2.559,0,0,0-2.339-1.161" transform="translate(-46.387 -84.882)" fill="#98c8f5"/>
        <path id="Trazado_655742" data-name="Trazado 655742" d="M26.053,139.9a15.775,15.775,0,0,1-2.54.4,1.06,1.06,0,0,0-.909-.7,2.637,2.637,0,0,0-2.807,2.92c.12.974.307,1.943.378,2.92a5.274,5.274,0,0,0,1.412,3.275c.442.487.8,1.048,1.2,1.575-1.092.011-2.184.031-3.275.032q-5.977.007-11.954,0a29.822,29.822,0,0,1,3.88-14.931,31,31,0,0,1,16.48-14.128c.574-.219.807-.119,1,.464.278.852.643,1.677,1,2.5a1.1,1.1,0,0,1-.083,1.142c-.568.881-1.083,1.8-1.641,2.685a2.947,2.947,0,0,0-.436,2.026,2,2,0,0,1,.034.255,3.414,3.414,0,0,0,3.226,3.708,5.074,5.074,0,0,1,.8.241,2.63,2.63,0,0,0,2.6-.458c.933-.721,1.885-1.417,2.811-2.146a.8.8,0,0,1,1.143.016c1.684,1.377,1.437.8.945,2.769-.275,1.1-.606,2.185-.885,3.283a1.137,1.137,0,0,1-.755.866q-2.693,1.04-5.367,2.131a1.1,1.1,0,0,1-1.084-.1c-.821-.5-1.658-.981-2.487-1.472a2.752,2.752,0,0,0-1.393-.433c-.853-.007-1.2.3-1.284,1.16m-4.607-11.085a1.031,1.031,0,0,0-1.21.614.887.887,0,0,0,.308,1.087,1.781,1.781,0,0,0,1.826,0,.9.9,0,0,0,.269-1.153,1.045,1.045,0,0,0-1.193-.543m2.447,3.339c-.973,0-1.518.553-1.258,1.283a1.382,1.382,0,0,0,1.719.622.939.939,0,0,0,.795-1.017c-.022-.578-.479-.885-1.256-.888m-8.635,10.563c-.97,0-1.52.574-1.228,1.3.248.613.779.646,1.341.639a1.04,1.04,0,0,0,1.112-.687c.25-.71-.282-1.248-1.226-1.249" transform="translate(-5.611 -89.92)" fill="#93eec4"/>
        <path id="Trazado_655743" data-name="Trazado 655743" d="M157.946,145.419a30.741,30.741,0,0,0-3.935-15.392,30.024,30.024,0,0,0-3.7-5.287,31.932,31.932,0,0,0-8.219-6.873,30.142,30.142,0,0,0-7.605-3.175,1.32,1.32,0,0,1-.226-.106,29.858,29.858,0,0,1,11.492,2.843,30.359,30.359,0,0,1,9.029,6.455,1.186,1.186,0,0,0,1.593.306c.641.591,1.118,1.324,1.7,1.969-.528.66-.538.9-.076,1.6.355.535.723,1.061,1.055,1.609a30.454,30.454,0,0,1,4.529,16.082l-5.634-.027" transform="translate(-99.642 -85.04)" fill="#76b7f4"/>
        <path id="Trazado_655744" data-name="Trazado 655744" d="M134,55.474c-.8.212-.974.413-.951,1.323.012.466-.074.681-.595.549-.471-.119-1.118.159-1.41-.174-.309-.352-.093-.982-.1-1.489-.014-1.814-.007-3.628-.009-5.442,1.784-.011,1.669-.392,1.573-2.053-.069-1.207-.294-2.406-.34-3.613a6.723,6.723,0,0,0-1.435-4.519c.384-.012.769-.036,1.153-.034a3.147,3.147,0,0,1,3.372,3.183q.223,2.72.5,5.435c.046.454-.078.613-.539.569a7.772,7.772,0,0,0-1.22,0,.936.936,0,0,0-.96.99c-.019.471-.008.942,0,1.414.006.828.152,1.019.965,1.273q0,1.294,0,2.589" transform="translate(-97.029 -29.702)" fill="#eb9a43"/>
        <path id="Trazado_655745" data-name="Trazado 655745" d="M230.934,178.354a30.45,30.45,0,0,0-4.529-16.082c-.332-.548-.7-1.074-1.055-1.609-.462-.7-.452-.936.075-1.6a1.072,1.072,0,0,1,1.485.446,32.728,32.728,0,0,1,5.971,18.586c.011.725-.254,1.1-.806,1.193-.577.093-.937-.2-1.141-.937" transform="translate(-166.995 -117.948)" fill="#030303"/>
        <path id="Trazado_655746" data-name="Trazado 655746" d="M57.953,203.347c-.4-.528-.76-1.088-1.2-1.575a5.275,5.275,0,0,1-1.412-3.275c-.072-.977-.258-1.946-.378-2.92a2.637,2.637,0,0,1,2.807-2.92,1.06,1.06,0,0,1,.909.7c-.038.847-.235,1.08-1.056,1.255-.69.147-.8.314-.7,1.016.153,1.076.315,2.152.432,3.232a2.036,2.036,0,0,0,.446,1.1c.678.851,1.336,1.717,2.007,2.574a1.7,1.7,0,0,1,.416.848.992.992,0,0,1-.758.923,1.035,1.035,0,0,1-1.139-.522c-.111-.155-.249-.291-.374-.435" transform="translate(-40.774 -142.975)" fill="#020404"/>
        <path id="Trazado_655747" data-name="Trazado 655747" d="M39.466,67.083c-.483-.652-.939-.811-1.447-.507s-.592.787-.249,1.523c.866,1.86,1.721,3.726,2.613,5.573.209.433.152.652-.291.815s-.913.75-1.277.6c-.343-.145-.474-.809-.683-1.253-.753-1.606-1.5-3.217-2.25-4.822-.384-.818-.822-.961-1.651-.6-.458.2-.968.708-1.362.494-.329-.179-.393-.855-.561-1.315-.52-1.425-1.04-2.85-1.548-4.279a3.141,3.141,0,0,1,1.766-4.24c.753-.352,1.517-.682,2.276-1.022a3.493,3.493,0,0,1,2.339,1.673c1.157,1.843,2.21,3.752,3.294,5.641.376.657.288.988-.341,1.4a6.23,6.23,0,0,1-.627.324" transform="translate(-22.638 -43.076)" fill="#4394ef"/>
        <path id="Trazado_655748" data-name="Trazado 655748" d="M111.746,40.06a6.725,6.725,0,0,1,1.435,4.519c.045,1.207.271,2.406.34,3.613.1,1.661.211,2.042-1.574,2.053a2.633,2.633,0,0,0-.14-.606.863.863,0,0,0-.9-.484.852.852,0,0,0-.832.68,3.735,3.735,0,0,0-.061.83c0,2.015-.014,4.03.006,6.045,0,.43-.1.624-.562.6-.487-.027-1.144.212-1.426-.024-.346-.289-.108-.966-.112-1.473-.016-1.8,0-3.6-.008-5.4,0-.868-.335-1.173-1.209-1.209-.5-.021-1.184.247-1.458-.127-.221-.3.015-.944.057-1.434.134-1.58.268-3.159.412-4.738a3.081,3.081,0,0,1,2.954-2.857c1.026-.039,2.056.008,3.084.017" transform="translate(-78.034 -29.707)" fill="#f0b45f"/>
        <path id="Trazado_655749" data-name="Trazado 655749" d="M178.5,64.978c.071-.783-.129-1.2-.68-1.328-.646-.146-.98.233-1.231.768-.882,1.877-1.792,3.741-2.659,5.624-.189.41-.37.507-.764.285-.422-.238-1.129-.225-1.26-.629-.108-.333.312-.841.51-1.266.739-1.59,1.484-3.176,2.223-4.766.418-.9.26-1.322-.632-1.737-1.328-.618-1.33-.619-.6-1.874.781-1.352,1.56-2.706,2.348-4.054a3.143,3.143,0,0,1,4.335-1.389c.817.369,1.617.776,2.425,1.166a5.283,5.283,0,0,1,.072,2.831c-.734,1.959-1.4,3.944-2.136,5.9-.412,1.1-1.009,1.218-1.947.466" transform="translate(-127.567 -40.256)" fill="#e64d81"/>
        <path id="Trazado_655750" data-name="Trazado 655750" d="M189.48,69.4c.938.752,1.535.633,1.947-.466.735-1.959,1.4-3.944,2.136-5.9a5.283,5.283,0,0,0-.072-2.831.257.257,0,0,1,.064.007c2.734,1,3.72,2.63,2.465,5.55-.615,1.432-1.094,2.924-1.6,4.4-.136.393-.275.525-.663.291a8.814,8.814,0,0,0-.926-.442c-.814-.368-1.255-.207-1.643.619-.881,1.879-1.768,3.755-2.62,5.647-.211.47-.391.51-.823.248-1.264-.766-1.279-.749-.651-2.079q1.19-2.522,2.39-5.039" transform="translate(-138.547 -44.679)" fill="#e43867"/>
        <path id="Trazado_655751" data-name="Trazado 655751" d="M51.838,64.256a6.225,6.225,0,0,0,.627-.324c.628-.415.717-.746.341-1.4-1.083-1.889-2.136-3.8-3.294-5.641a3.493,3.493,0,0,0-2.339-1.673c1.021-.523,2-1.173,3.247-.929a3.058,3.058,0,0,1,2.152,1.478c1.011,1.712,1.995,3.44,3,5.153.167.284.175.44-.165.571-.378.146-.741.332-1.1.512a.986.986,0,0,0-.535,1.518c.875,1.9,1.753,3.8,2.657,5.692.194.4.249.65-.277.767-.491.109-.995.639-1.4.436-.35-.178-.473-.82-.678-1.265q-1.126-2.443-2.239-4.892" transform="translate(-35.009 -40.249)" fill="#3984ec"/>
        <path id="Trazado_655752" data-name="Trazado 655752" d="M207.628,33.938a3.174,3.174,0,0,1,2.73-5.544c.069.31.137.621.207.931a4.139,4.139,0,0,1-2.937,4.613" transform="translate(-153.221 -20.993)" fill="#f4cdc0"/>
        <path id="Trazado_655753" data-name="Trazado 655753" d="M117.639,14.189a3.19,3.19,0,0,1,.006-6.162,4.035,4.035,0,0,1-.006,6.162" transform="translate(-85.553 -5.957)" fill="#f4cdc0"/>
        <path id="Trazado_655754" data-name="Trazado 655754" d="M28,36.68a3.168,3.168,0,0,1-2.735-5.569,4.2,4.2,0,0,1,2.862,4.365c-.048.4-.085.8-.127,1.2" transform="translate(-17.832 -23.089)" fill="#ba7260"/>
        <path id="Trazado_655755" data-name="Trazado 655755" d="M211,34.246a4.139,4.139,0,0,0,2.937-4.613c-.071-.31-.138-.621-.207-.931a3.086,3.086,0,0,1,2.511,2.632,3.206,3.206,0,0,1-1.618,3.286A3.13,3.13,0,0,1,211,34.246" transform="translate(-156.593 -21.301)" fill="#eeb1a1"/>
        <path id="Trazado_655756" data-name="Trazado 655756" d="M31.561,34.546c.042-.4.079-.8.127-1.2a4.2,4.2,0,0,0-2.862-4.365,3.092,3.092,0,0,1,3.581-.313,3.24,3.24,0,0,1,1.582,3.376,3.112,3.112,0,0,1-2.428,2.5" transform="translate(-21.393 -20.955)" fill="#ac6152"/>
        <path id="Trazado_655757" data-name="Trazado 655757" d="M124.437,13.858a4.035,4.035,0,0,0,.006-6.162,3.169,3.169,0,0,1,3.5,1.245,3.223,3.223,0,0,1,.033,3.621,3.18,3.18,0,0,1-3.539,1.3" transform="translate(-92.351 -5.626)" fill="#eeb1a1"/>
        <path id="Trazado_655758" data-name="Trazado 655758" d="M153.3,170.226a2.559,2.559,0,0,1,2.339,1.161c.376.571.736,1.155,1.073,1.75a1.1,1.1,0,0,0,.915.6c.681.07,1.358.179,2.037.272,1.5.2,2.216,1.317,2.764,2.513a2.494,2.494,0,0,1-.762,2.907c-.418.43-.82.877-1.2,1.337a2.7,2.7,0,0,1-3.275.866c-1.689-.607-3.4-1.148-5.094-1.745a1.107,1.107,0,0,0-1.135.15c-.621.455-1.27.872-1.909,1.3a2.549,2.549,0,0,1-2.9.093c-.574-.332-1.15-.661-1.711-1.014a2.508,2.508,0,0,1-.386-4.059c.675-.627,1.365-1.239,2.083-1.816a2.581,2.581,0,0,0,.943-1.4,2.931,2.931,0,0,1,2.724-2.33c1.251-.159,2.489-.413,3.5-.585m.11,1.93c-1.181.208-2.358.437-3.543.616a.946.946,0,0,0-.884.782,4.709,4.709,0,0,1-1.858,2.687c-.579.439-1.108.946-1.647,1.437-.507.462-.479.815.093,1.172.49.306,1,.575,1.491.884a.8.8,0,0,0,1-.056c.59-.426,1.216-.8,1.8-1.235a2.861,2.861,0,0,1,2.851-.382c1.712.611,3.443,1.168,5.16,1.764a.8.8,0,0,0,.987-.176c.523-.6,1.059-1.181,1.592-1.768a.684.684,0,0,0,.053-.93,1.994,1.994,0,0,0-1.728-1.126c-.446,0-.891-.118-1.338-.162a2.851,2.851,0,0,1-2.383-1.52c-.3-.544-.643-1.062-.964-1.594a.692.692,0,0,0-.686-.392" transform="translate(-106.265 -126.333)" fill="#020404"/>
        <path id="Trazado_655759" data-name="Trazado 655759" d="M57.713,150.827a1.045,1.045,0,0,1,1.193.543.9.9,0,0,1-.269,1.153,1.781,1.781,0,0,1-1.826,0,.887.887,0,0,1-.308-1.087,1.031,1.031,0,0,1,1.21-.614" transform="translate(-41.878 -111.928)" fill="#020404"/>
        <path id="Trazado_655760" data-name="Trazado 655760" d="M67.1,163.807c.777,0,1.234.31,1.256.889a.939.939,0,0,1-.795,1.017,1.382,1.382,0,0,1-1.719-.622c-.261-.73.285-1.287,1.258-1.283" transform="translate(-48.814 -121.569)" fill="#020404"/>
        <path id="Trazado_655761" data-name="Trazado 655761" d="M33.655,204.771c.943,0,1.475.539,1.226,1.249a1.04,1.04,0,0,1-1.112.687c-.562.007-1.094-.026-1.341-.639-.292-.723.258-1.3,1.228-1.3" transform="translate(-24.008 -151.971)" fill="#020404"/>
        <path id="Trazado_655762" data-name="Trazado 655762" d="M158.96,177.7a.692.692,0,0,1,.686.392c.321.532.665,1.05.964,1.594a2.851,2.851,0,0,0,2.383,1.52c.447.044.892.157,1.338.162a1.994,1.994,0,0,1,1.728,1.126.684.684,0,0,1-.053.93c-.533.588-1.069,1.173-1.592,1.768a.8.8,0,0,1-.987.176c-1.717-.6-3.448-1.153-5.16-1.764a2.861,2.861,0,0,0-2.851.382c-.586.432-1.211.81-1.8,1.235a.8.8,0,0,1-1,.056c-.488-.308-1-.577-1.491-.884-.572-.358-.6-.71-.093-1.172.538-.491,1.068-1,1.647-1.437a4.708,4.708,0,0,0,1.858-2.687.946.946,0,0,1,.884-.782c1.185-.179,2.363-.407,3.543-.616" transform="translate(-111.818 -131.88)" fill="#93eec4"/>
      </g>
    </g>
  </g>
</svg>
