<svg xmlns="http://www.w3.org/2000/svg" xmlns:xlink="http://www.w3.org/1999/xlink" width="715" height="198" viewBox="0 0 715 198">
  <defs>
    <clipPath id="clip-path">
      <rect id="Rectángulo_309968" data-name="Rectángulo 309968" width="84.996" height="85.005" fill="none"/>
    </clipPath>
    <clipPath id="clip-path-2">
      <rect id="Rectángulo_309969" data-name="Rectángulo 309969" width="91.277" height="85.005" fill="none"/>
    </clipPath>
    <clipPath id="clip-path-3">
      <rect id="Rectángulo_309970" data-name="Rectángulo 309970" width="99.872" height="91.987" fill="none"/>
    </clipPath>
  </defs>
  <g id="Grupo_995765" data-name="Grupo 995765" transform="translate(-390 -2061)">
    <g id="Elipse_8205" data-name="Elipse 8205" transform="translate(390 2069)" fill="#fff2d0" stroke="#f9d36c" stroke-width="3">
      <circle cx="95" cy="95" r="95" stroke="none"/>
      <circle cx="95" cy="95" r="93.5" fill="none"/>
    </g>
    <g id="Elipse_8206" data-name="Elipse 8206" transform="translate(654 2069)" fill="#fff2d0" stroke="#f9d36c" stroke-width="3">
      <circle cx="95" cy="95" r="95" stroke="none"/>
      <circle cx="95" cy="95" r="93.5" fill="none"/>
    </g>
    <g id="Elipse_8207" data-name="Elipse 8207" transform="translate(915 2069)" fill="#eafff1" stroke="#71ed99" stroke-width="3">
      <circle cx="95" cy="95" r="95" stroke="none"/>
      <circle cx="95" cy="95" r="93.5" fill="none"/>
    </g>
    <path id="Trazado_657330" data-name="Trazado 657330" d="M16.813,11.977H12.039V17h-1.5V5.625h7.047V6.852H12.039v3.9h4.773Zm1.8.719a4.993,4.993,0,0,1,.488-2.234A3.643,3.643,0,0,1,20.457,8.93a3.7,3.7,0,0,1,1.988-.539,3.565,3.565,0,0,1,2.793,1.2,4.6,4.6,0,0,1,1.066,3.18v.1a5.036,5.036,0,0,1-.473,2.215,3.589,3.589,0,0,1-1.352,1.527,3.743,3.743,0,0,1-2.02.547,3.556,3.556,0,0,1-2.785-1.2A4.575,4.575,0,0,1,18.609,12.8Zm1.453.172a3.616,3.616,0,0,0,.652,2.258,2.211,2.211,0,0,0,3.5-.012,3.955,3.955,0,0,0,.648-2.418,3.61,3.61,0,0,0-.66-2.254,2.1,2.1,0,0,0-1.754-.863,2.075,2.075,0,0,0-1.727.852A3.925,3.925,0,0,0,20.063,12.867ZM32.2,9.844a4.331,4.331,0,0,0-.711-.055A1.9,1.9,0,0,0,29.563,11v6H28.117V8.547h1.406l.023.977a2.251,2.251,0,0,1,2.016-1.133A1.477,1.477,0,0,1,32.2,8.5ZM35.883,6.5V8.547h1.578V9.664H35.883v5.249a1.173,1.173,0,0,0,.211.763.888.888,0,0,0,.719.254,3.5,3.5,0,0,0,.688-.094V17a4.215,4.215,0,0,1-1.109.155,1.8,1.8,0,0,1-1.461-.586,2.517,2.517,0,0,1-.492-1.664V9.664H32.9V8.547h1.539V6.5ZM44.367,17a3.036,3.036,0,0,1-.2-.891,3.225,3.225,0,0,1-2.406,1.047,2.984,2.984,0,0,1-2.051-.707,2.287,2.287,0,0,1-.8-1.793,2.39,2.39,0,0,1,1-2.051,4.733,4.733,0,0,1,2.824-.73h1.406v-.664A1.623,1.623,0,0,0,43.688,10a1.821,1.821,0,0,0-1.336-.449,2.107,2.107,0,0,0-1.3.391,1.151,1.151,0,0,0-.523.945H39.078a2,2,0,0,1,.449-1.223,3.066,3.066,0,0,1,1.219-.934,4.1,4.1,0,0,1,1.691-.344,3.342,3.342,0,0,1,2.289.73,2.635,2.635,0,0,1,.859,2.012v3.891a4.757,4.757,0,0,0,.3,1.852V17Zm-2.4-1.1a2.54,2.54,0,0,0,1.289-.352,2.127,2.127,0,0,0,.883-.914V12.9H43.008q-2.656,0-2.656,1.555a1.316,1.316,0,0,0,.453,1.063A1.742,1.742,0,0,0,41.969,15.9ZM49.422,17H47.977V5h1.445Zm5.82.156a3.693,3.693,0,0,1-2.8-1.129,4.19,4.19,0,0,1-1.078-3.02v-.266a5.073,5.073,0,0,1,.48-2.246,3.748,3.748,0,0,1,1.344-1.547,3.378,3.378,0,0,1,1.871-.559,3.166,3.166,0,0,1,2.563,1.086,4.7,4.7,0,0,1,.914,3.109v.6H52.813a3,3,0,0,0,.73,2.02,2.3,2.3,0,0,0,1.777.77,2.517,2.517,0,0,0,1.3-.312,3.259,3.259,0,0,0,.93-.828l.883.688A3.55,3.55,0,0,1,55.242,17.156Zm-.18-7.578a1.928,1.928,0,0,0-1.469.637A3.1,3.1,0,0,0,52.859,12h4.234v-.109a2.753,2.753,0,0,0-.594-1.707A1.815,1.815,0,0,0,55.063,9.578Zm8.539,6.4a2.082,2.082,0,0,0,1.352-.469,1.649,1.649,0,0,0,.641-1.172h1.367a2.621,2.621,0,0,1-.5,1.383,3.293,3.293,0,0,1-1.23,1.047,3.55,3.55,0,0,1-1.629.391A3.482,3.482,0,0,1,60.855,16a4.59,4.59,0,0,1-1.02-3.152v-.242a5.089,5.089,0,0,1,.453-2.2,3.451,3.451,0,0,1,1.3-1.492,3.7,3.7,0,0,1,2-.531,3.39,3.39,0,0,1,2.363.852,3.043,3.043,0,0,1,1,2.211H65.594a1.992,1.992,0,0,0-.621-1.348,1.932,1.932,0,0,0-1.379-.527,2.023,2.023,0,0,0-1.707.793,3.724,3.724,0,0,0-.605,2.293v.273a3.65,3.65,0,0,0,.6,2.25A2.033,2.033,0,0,0,63.6,15.977ZM70.156,17H68.711V8.547h1.445ZM68.594,6.3a.863.863,0,0,1,.215-.594.807.807,0,0,1,.637-.242.819.819,0,0,1,.641.242A.854.854,0,0,1,70.3,6.3a.826.826,0,0,1-.219.586.834.834,0,0,1-.641.234.821.821,0,0,1-.637-.234A.834.834,0,0,1,68.594,6.3Zm5.234,2.242.039.938a3.122,3.122,0,0,1,2.508-1.094A2.417,2.417,0,0,1,78.789,9.75a3.2,3.2,0,0,1,1.1-.984,3.242,3.242,0,0,1,1.6-.375q2.781,0,2.828,2.945V17H82.867V11.422a1.941,1.941,0,0,0-.414-1.355,1.823,1.823,0,0,0-1.391-.449,1.916,1.916,0,0,0-1.336.48,1.949,1.949,0,0,0-.617,1.293V17H77.656V11.461a1.613,1.613,0,0,0-1.8-1.844,1.934,1.934,0,0,0-1.945,1.211V17H72.461V8.547ZM88.063,17H86.617V8.547h1.445ZM86.5,6.3a.863.863,0,0,1,.215-.594.807.807,0,0,1,.637-.242.819.819,0,0,1,.641.242.854.854,0,0,1,.219.594.826.826,0,0,1-.219.586.834.834,0,0,1-.641.234.821.821,0,0,1-.637-.234A.834.834,0,0,1,86.5,6.3Zm7.383,10.852a3.693,3.693,0,0,1-2.8-1.129,4.19,4.19,0,0,1-1.078-3.02v-.266a5.073,5.073,0,0,1,.48-2.246,3.748,3.748,0,0,1,1.344-1.547A3.378,3.378,0,0,1,93.7,8.391a3.166,3.166,0,0,1,2.563,1.086,4.7,4.7,0,0,1,.914,3.109v.6H91.453a3,3,0,0,0,.73,2.02,2.3,2.3,0,0,0,1.777.77,2.517,2.517,0,0,0,1.3-.312,3.259,3.259,0,0,0,.93-.828l.883.688A3.55,3.55,0,0,1,93.883,17.156ZM93.7,9.578a1.928,1.928,0,0,0-1.469.637A3.1,3.1,0,0,0,91.5,12h4.234v-.109a2.753,2.753,0,0,0-.594-1.707A1.815,1.815,0,0,0,93.7,9.578Zm6.516-1.031.047,1.063A3.08,3.08,0,0,1,102.8,8.391q2.68,0,2.7,3.023V17h-1.445V11.406a1.946,1.946,0,0,0-.418-1.352,1.675,1.675,0,0,0-1.277-.437,2.086,2.086,0,0,0-1.234.375,2.546,2.546,0,0,0-.828.984V17H98.852V8.547ZM109.641,6.5V8.547h1.578V9.664h-1.578v5.249a1.173,1.173,0,0,0,.211.763.888.888,0,0,0,.719.254,3.5,3.5,0,0,0,.688-.094V17a4.215,4.215,0,0,1-1.109.155,1.8,1.8,0,0,1-1.461-.586,2.517,2.517,0,0,1-.492-1.664V9.664h-1.539V8.547H108.2V6.5Zm2.727,6.2a4.993,4.993,0,0,1,.488-2.234,3.643,3.643,0,0,1,1.359-1.531,3.7,3.7,0,0,1,1.988-.539A3.565,3.565,0,0,1,119,9.586a4.6,4.6,0,0,1,1.066,3.18v.1a5.036,5.036,0,0,1-.473,2.215,3.589,3.589,0,0,1-1.352,1.527,3.743,3.743,0,0,1-2.02.547,3.556,3.556,0,0,1-2.785-1.2,4.575,4.575,0,0,1-1.066-3.164Zm1.453.172a3.616,3.616,0,0,0,.652,2.258,2.211,2.211,0,0,0,3.5-.012,3.955,3.955,0,0,0,.648-2.418,3.61,3.61,0,0,0-.66-2.254,2.1,2.1,0,0,0-1.754-.863,2.075,2.075,0,0,0-1.727.852A3.925,3.925,0,0,0,113.82,12.867ZM8.66,32.7a4.952,4.952,0,0,1,.922-3.129A2.915,2.915,0,0,1,12,28.391a2.932,2.932,0,0,1,2.352,1.016V25h1.445V37H14.465l-.07-.906a2.943,2.943,0,0,1-2.414,1.063,2.887,2.887,0,0,1-2.395-1.2,5.008,5.008,0,0,1-.926-3.141Zm1.445.164a3.749,3.749,0,0,0,.594,2.25,1.92,1.92,0,0,0,1.641.813A2.108,2.108,0,0,0,14.348,34.7V30.813a2.125,2.125,0,0,0-1.992-1.2,1.929,1.929,0,0,0-1.656.82A4.128,4.128,0,0,0,10.105,32.867Zm11.438,4.289a3.693,3.693,0,0,1-2.8-1.129,4.19,4.19,0,0,1-1.078-3.02v-.266a5.073,5.073,0,0,1,.48-2.246,3.748,3.748,0,0,1,1.344-1.547,3.378,3.378,0,0,1,1.871-.559,3.166,3.166,0,0,1,2.563,1.086,4.7,4.7,0,0,1,.914,3.109v.6H19.113a3,3,0,0,0,.73,2.02,2.3,2.3,0,0,0,1.777.77,2.517,2.517,0,0,0,1.3-.312,3.259,3.259,0,0,0,.93-.828l.883.688A3.55,3.55,0,0,1,21.543,37.156Zm-.18-7.578a1.928,1.928,0,0,0-1.469.637A3.1,3.1,0,0,0,19.16,32h4.234v-.109a2.753,2.753,0,0,0-.594-1.707A1.815,1.815,0,0,0,21.363,29.578Zm17.961,3.633A4.025,4.025,0,0,1,37.969,36.1a4.76,4.76,0,0,1-3.223,1.055A4.281,4.281,0,0,1,31.3,35.684a6.038,6.038,0,0,1-1.254-4.043v-.7a6.819,6.819,0,0,1,.578-2.891,4.332,4.332,0,0,1,1.652-1.918,5.164,5.164,0,0,1,5.668.387,4.326,4.326,0,0,1,1.391,2.961H37a2.376,2.376,0,0,0-.613-1.6,2.271,2.271,0,0,0-1.605-.5,1.991,1.991,0,0,0-1.754.84,4.707,4.707,0,0,0-.6,2.605V31.7a5.038,5.038,0,0,0,.559,2.7,1.954,1.954,0,0,0,1.762.852,2.314,2.314,0,0,0,1.621-.5,2.241,2.241,0,0,0,.613-1.535ZM45.613,37a2.507,2.507,0,0,1-.227-.758,2.732,2.732,0,0,1-2.133.914,3,3,0,0,1-2.059-.719,2.312,2.312,0,0,1-.816-1.812,2.389,2.389,0,0,1,1-2.062,4.915,4.915,0,0,1,2.879-.727h1.039v-.484a1.393,1.393,0,0,0-.3-.937,1.183,1.183,0,0,0-.949-.352,1.345,1.345,0,0,0-.895.273.929.929,0,0,0-.324.75H40.566a2.268,2.268,0,0,1,.453-1.359,3,3,0,0,1,1.281-.98,4.669,4.669,0,0,1,1.859-.355,3.689,3.689,0,0,1,2.48.785,2.747,2.747,0,0,1,.918,2.207v3.664a4.041,4.041,0,0,0,.336,1.82V37Zm-1.867-1.57a1.945,1.945,0,0,0,.922-.223,1.462,1.462,0,0,0,.625-.6V33.156h-.844q-1.7,0-1.8,1.172l-.008.133a.9.9,0,0,0,.3.7A1.153,1.153,0,0,0,43.746,35.43ZM56.9,32.852a5.07,5.07,0,0,1-.887,3.129,2.843,2.843,0,0,1-2.395,1.176,2.633,2.633,0,0,1-2.07-.891V40.25H49.293v-11.7h2.094l.078.828a2.654,2.654,0,0,1,2.141-.984,2.862,2.862,0,0,1,2.43,1.156,5.207,5.207,0,0,1,.867,3.188Zm-2.258-.164a3.327,3.327,0,0,0-.418-1.82,1.361,1.361,0,0,0-1.215-.641,1.478,1.478,0,0,0-1.461.813V34.5a1.5,1.5,0,0,0,1.477.836Q54.645,35.336,54.645,32.688ZM63.2,37a2.507,2.507,0,0,1-.227-.758,2.732,2.732,0,0,1-2.133.914,3,3,0,0,1-2.059-.719,2.312,2.312,0,0,1-.816-1.812,2.389,2.389,0,0,1,1-2.062,4.915,4.915,0,0,1,2.879-.727h1.039v-.484a1.393,1.393,0,0,0-.3-.937,1.183,1.183,0,0,0-.949-.352,1.345,1.345,0,0,0-.895.273.929.929,0,0,0-.324.75H58.152a2.268,2.268,0,0,1,.453-1.359,3,3,0,0,1,1.281-.98,4.669,4.669,0,0,1,1.859-.355,3.689,3.689,0,0,1,2.48.785,2.747,2.747,0,0,1,.918,2.207v3.664a4.041,4.041,0,0,0,.336,1.82V37Zm-1.867-1.57a1.945,1.945,0,0,0,.922-.223,1.462,1.462,0,0,0,.625-.6V33.156h-.844q-1.7,0-1.8,1.172l-.008.133a.9.9,0,0,0,.3.7A1.153,1.153,0,0,0,61.332,35.43Zm9.063-.094a1.481,1.481,0,0,0,1.016-.344,1.2,1.2,0,0,0,.406-.914h2.117a2.9,2.9,0,0,1-.469,1.574A3.093,3.093,0,0,1,72.2,36.762a3.949,3.949,0,0,1-1.77.395A3.67,3.67,0,0,1,67.574,36a4.56,4.56,0,0,1-1.047-3.184v-.148a4.508,4.508,0,0,1,1.039-3.117,3.627,3.627,0,0,1,2.852-1.164,3.555,3.555,0,0,1,2.543.9,3.2,3.2,0,0,1,.973,2.4H71.816a1.551,1.551,0,0,0-.406-1.072,1.51,1.51,0,0,0-2.223.163,3.333,3.333,0,0,0-.4,1.866v.235a3.375,3.375,0,0,0,.4,1.878A1.377,1.377,0,0,0,70.395,35.336ZM77.605,37H75.34V28.547h2.266Zm-2.4-10.641a1.112,1.112,0,0,1,.34-.836,1.465,1.465,0,0,1,1.848,0,1.193,1.193,0,0,1,0,1.68,1.448,1.448,0,0,1-1.836,0A1.108,1.108,0,0,1,75.207,26.359Zm3.906,6.352A5.094,5.094,0,0,1,80,29.563a2.877,2.877,0,0,1,2.426-1.172,2.589,2.589,0,0,1,2.039.922V25H86.73V37H84.691l-.109-.9a2.657,2.657,0,0,1-2.172,1.055,2.869,2.869,0,0,1-2.395-1.176A5.258,5.258,0,0,1,79.113,32.711Zm2.258.168a3.337,3.337,0,0,0,.414,1.823,1.349,1.349,0,0,0,1.2.634,1.511,1.511,0,0,0,1.477-.884V31.111A1.489,1.489,0,0,0,83,30.227Q81.371,30.227,81.371,32.879ZM93.379,37a2.507,2.507,0,0,1-.227-.758,2.732,2.732,0,0,1-2.133.914,3,3,0,0,1-2.059-.719,2.312,2.312,0,0,1-.816-1.812,2.389,2.389,0,0,1,1-2.062,4.915,4.915,0,0,1,2.879-.727h1.039v-.484a1.393,1.393,0,0,0-.3-.937,1.183,1.183,0,0,0-.949-.352,1.345,1.345,0,0,0-.895.273.929.929,0,0,0-.324.75H88.332a2.268,2.268,0,0,1,.453-1.359,3,3,0,0,1,1.281-.98,4.669,4.669,0,0,1,1.859-.355,3.689,3.689,0,0,1,2.48.785,2.747,2.747,0,0,1,.918,2.207v3.664a4.041,4.041,0,0,0,.336,1.82V37Zm-1.867-1.57a1.945,1.945,0,0,0,.922-.223,1.462,1.462,0,0,0,.625-.6V33.156h-.844q-1.7,0-1.8,1.172l-.008.133a.9.9,0,0,0,.3.7A1.153,1.153,0,0,0,91.512,35.43Zm5.2-2.719a5.094,5.094,0,0,1,.887-3.148,2.877,2.877,0,0,1,2.426-1.172,2.589,2.589,0,0,1,2.039.922V25h2.266V37h-2.039l-.109-.9A2.657,2.657,0,0,1,100,37.156a2.869,2.869,0,0,1-2.395-1.176A5.258,5.258,0,0,1,96.707,32.711Zm2.258.168a3.337,3.337,0,0,0,.414,1.823,1.349,1.349,0,0,0,1.2.634,1.511,1.511,0,0,0,1.477-.884V31.111a1.489,1.489,0,0,0-1.461-.884Q98.965,30.227,98.965,32.879Zm11,4.277a4.15,4.15,0,0,1-3.027-1.141,4.054,4.054,0,0,1-1.168-3.039v-.219a5.106,5.106,0,0,1,.492-2.277,3.612,3.612,0,0,1,1.395-1.547,3.914,3.914,0,0,1,2.059-.543,3.508,3.508,0,0,1,2.73,1.094,4.444,4.444,0,0,1,1,3.1v.922h-5.383a2.1,2.1,0,0,0,.66,1.328,2,2,0,0,0,1.395.5,2.437,2.437,0,0,0,2.039-.945l1.109,1.242a3.389,3.389,0,0,1-1.375,1.121A4.511,4.511,0,0,1,109.965,37.156Zm-.258-6.945a1.411,1.411,0,0,0-1.09.455,2.357,2.357,0,0,0-.535,1.3h3.141v-.181a1.681,1.681,0,0,0-.406-1.165A1.456,1.456,0,0,0,109.707,30.211Zm9.594,4.453a.727.727,0,0,0-.41-.652,4.659,4.659,0,0,0-1.316-.426q-3.016-.633-3.016-2.562a2.323,2.323,0,0,1,.934-1.879,3.766,3.766,0,0,1,2.441-.754,4.053,4.053,0,0,1,2.574.758,2.388,2.388,0,0,1,.965,1.969h-2.258a1.092,1.092,0,0,0-.312-.8,1.322,1.322,0,0,0-.977-.316,1.351,1.351,0,0,0-.883.258.814.814,0,0,0-.312.656.7.7,0,0,0,.355.605,3.657,3.657,0,0,0,1.2.4,9.8,9.8,0,0,1,1.422.379A2.336,2.336,0,0,1,121.5,34.57a2.2,2.2,0,0,1-.992,1.871,4.28,4.28,0,0,1-2.562.715,4.47,4.47,0,0,1-1.887-.379,3.166,3.166,0,0,1-1.293-1.039,2.414,2.414,0,0,1-.469-1.426h2.141a1.179,1.179,0,0,0,.445.922,1.766,1.766,0,0,0,1.109.32,1.635,1.635,0,0,0,.98-.246A.766.766,0,0,0,119.3,34.664ZM35.387,52.352h-4.5V57H28.543V45.625h7.406v1.9H30.887v2.938h4.5ZM41.793,57a2.507,2.507,0,0,1-.227-.758,2.732,2.732,0,0,1-2.133.914,3,3,0,0,1-2.059-.719,2.312,2.312,0,0,1-.816-1.812,2.389,2.389,0,0,1,1-2.062,4.915,4.915,0,0,1,2.879-.727h1.039v-.484a1.393,1.393,0,0,0-.3-.937,1.183,1.183,0,0,0-.949-.352,1.345,1.345,0,0,0-.895.273.929.929,0,0,0-.324.75H36.746a2.268,2.268,0,0,1,.453-1.359,3,3,0,0,1,1.281-.98,4.669,4.669,0,0,1,1.859-.355,3.689,3.689,0,0,1,2.48.785,2.747,2.747,0,0,1,.918,2.207v3.664a4.041,4.041,0,0,0,.336,1.82V57Zm-1.867-1.57a1.945,1.945,0,0,0,.922-.223,1.462,1.462,0,0,0,.625-.6V53.156h-.844q-1.7,0-1.8,1.172l-.008.133a.9.9,0,0,0,.3.7A1.153,1.153,0,0,0,39.926,55.43Zm7.664-6.883.07.945a2.971,2.971,0,0,1,2.43-1.1,2.255,2.255,0,0,1,2.242,1.289,2.9,2.9,0,0,1,2.539-1.289,2.521,2.521,0,0,1,2.047.8,3.681,3.681,0,0,1,.672,2.41V57H55.324V51.609a1.61,1.61,0,0,0-.281-1.051,1.246,1.246,0,0,0-.992-.332,1.409,1.409,0,0,0-1.406.969l.008,5.8H50.395V51.617a1.59,1.59,0,0,0-.289-1.062,1.259,1.259,0,0,0-.984-.328,1.463,1.463,0,0,0-1.391.8V57H45.473V48.547ZM61.707,57H59.441V48.547h2.266Zm-2.4-10.641a1.112,1.112,0,0,1,.34-.836,1.465,1.465,0,0,1,1.848,0,1.193,1.193,0,0,1,0,1.68,1.448,1.448,0,0,1-1.836,0A1.108,1.108,0,0,1,59.309,46.359ZM65.949,57H63.684V45h2.266Zm4.242,0H67.926V48.547h2.266Zm-2.4-10.641a1.112,1.112,0,0,1,.34-.836,1.465,1.465,0,0,1,1.848,0,1.193,1.193,0,0,1,0,1.68,1.448,1.448,0,0,1-1.836,0A1.108,1.108,0,0,1,67.793,46.359ZM76.949,57a2.507,2.507,0,0,1-.227-.758,2.732,2.732,0,0,1-2.133.914,3,3,0,0,1-2.059-.719,2.312,2.312,0,0,1-.816-1.812,2.389,2.389,0,0,1,1-2.062,4.915,4.915,0,0,1,2.879-.727h1.039v-.484a1.393,1.393,0,0,0-.3-.937,1.183,1.183,0,0,0-.949-.352,1.345,1.345,0,0,0-.895.273.929.929,0,0,0-.324.75H71.9a2.268,2.268,0,0,1,.453-1.359,3,3,0,0,1,1.281-.98,4.669,4.669,0,0,1,1.859-.355,3.689,3.689,0,0,1,2.48.785,2.747,2.747,0,0,1,.918,2.207v3.664a4.041,4.041,0,0,0,.336,1.82V57Zm-1.867-1.57A1.945,1.945,0,0,0,76,55.207a1.462,1.462,0,0,0,.625-.6V53.156h-.844q-1.7,0-1.8,1.172l-.008.133a.9.9,0,0,0,.3.7A1.153,1.153,0,0,0,75.082,55.43Zm10.3-4.766a6.134,6.134,0,0,0-.812-.062,1.654,1.654,0,0,0-1.68.867V57H80.629V48.547h2.133l.063,1.008a2.092,2.092,0,0,1,1.883-1.164,2.366,2.366,0,0,1,.7.1Zm4.977,6.492a4.15,4.15,0,0,1-3.027-1.141,4.054,4.054,0,0,1-1.168-3.039v-.219a5.106,5.106,0,0,1,.492-2.277,3.612,3.612,0,0,1,1.395-1.547,3.914,3.914,0,0,1,2.059-.543,3.508,3.508,0,0,1,2.73,1.094,4.444,4.444,0,0,1,1,3.1v.922H88.449a2.1,2.1,0,0,0,.66,1.328,2,2,0,0,0,1.395.5,2.437,2.437,0,0,0,2.039-.945l1.109,1.242a3.389,3.389,0,0,1-1.375,1.121A4.511,4.511,0,0,1,90.355,57.156ZM90.1,50.211a1.411,1.411,0,0,0-1.09.455,2.357,2.357,0,0,0-.535,1.3h3.141v-.181a1.681,1.681,0,0,0-.406-1.165A1.456,1.456,0,0,0,90.1,50.211Zm9.594,4.453a.727.727,0,0,0-.41-.652,4.659,4.659,0,0,0-1.316-.426q-3.016-.633-3.016-2.562a2.323,2.323,0,0,1,.934-1.879,3.766,3.766,0,0,1,2.441-.754,4.053,4.053,0,0,1,2.574.758,2.388,2.388,0,0,1,.965,1.969H99.605a1.092,1.092,0,0,0-.312-.8A1.322,1.322,0,0,0,98.316,50a1.351,1.351,0,0,0-.883.258.814.814,0,0,0-.312.656.7.7,0,0,0,.355.605,3.657,3.657,0,0,0,1.2.4,9.8,9.8,0,0,1,1.422.379,2.336,2.336,0,0,1,1.789,2.273,2.2,2.2,0,0,1-.992,1.871,4.28,4.28,0,0,1-2.562.715,4.47,4.47,0,0,1-1.887-.379,3.166,3.166,0,0,1-1.293-1.039,2.414,2.414,0,0,1-.469-1.426h2.141a1.179,1.179,0,0,0,.445.922,1.766,1.766,0,0,0,1.109.32,1.635,1.635,0,0,0,.98-.246A.766.766,0,0,0,99.691,54.664Z" transform="translate(420 2160)" fill="#12263f"/>
    <path id="Trazado_657331" data-name="Trazado 657331" d="M15.332,13.391A4.185,4.185,0,0,1,14,16.176a4.365,4.365,0,0,1-2.98.98,4.008,4.008,0,0,1-3.23-1.445,5.815,5.815,0,0,1-1.215-3.867V10.75a6.481,6.481,0,0,1,.566-2.789A4.231,4.231,0,0,1,8.746,6.113a4.47,4.47,0,0,1,2.406-.645A4.11,4.11,0,0,1,14.059,6.48a4.235,4.235,0,0,1,1.273,2.8H13.824a3.268,3.268,0,0,0-.848-1.975A2.565,2.565,0,0,0,11.152,6.7,2.684,2.684,0,0,0,8.9,7.759a4.882,4.882,0,0,0-.816,3.026v1.1a5.018,5.018,0,0,0,.773,2.948A2.5,2.5,0,0,0,11.02,15.93a2.886,2.886,0,0,0,1.918-.566,3.143,3.143,0,0,0,.887-1.973Zm1.438-.7a4.993,4.993,0,0,1,.488-2.234A3.643,3.643,0,0,1,18.617,8.93a3.7,3.7,0,0,1,1.988-.539,3.565,3.565,0,0,1,2.793,1.2,4.6,4.6,0,0,1,1.066,3.18v.1a5.036,5.036,0,0,1-.473,2.215,3.589,3.589,0,0,1-1.352,1.527,3.743,3.743,0,0,1-2.02.547,3.556,3.556,0,0,1-2.785-1.2A4.575,4.575,0,0,1,16.77,12.8Zm1.453.172a3.616,3.616,0,0,0,.652,2.258,2.211,2.211,0,0,0,3.5-.012A3.955,3.955,0,0,0,23.02,12.7a3.61,3.61,0,0,0-.66-2.254,2.1,2.1,0,0,0-1.754-.863,2.075,2.075,0,0,0-1.727.852A3.925,3.925,0,0,0,18.223,12.867Zm9.422-4.32.047,1.063a3.08,3.08,0,0,1,2.531-1.219q2.68,0,2.7,3.023V17H31.48V11.406a1.946,1.946,0,0,0-.418-1.352,1.675,1.675,0,0,0-1.277-.437,2.086,2.086,0,0,0-1.234.375,2.546,2.546,0,0,0-.828.984V17H26.277V8.547Zm10.25,6.492,2.094-6.492h1.477L38.434,17h-1.1L34.27,8.547h1.477Zm8.469,2.117a3.693,3.693,0,0,1-2.8-1.129,4.19,4.19,0,0,1-1.078-3.02v-.266a5.073,5.073,0,0,1,.48-2.246,3.748,3.748,0,0,1,1.344-1.547,3.378,3.378,0,0,1,1.871-.559,3.166,3.166,0,0,1,2.563,1.086,4.7,4.7,0,0,1,.914,3.109v.6H43.934a3,3,0,0,0,.73,2.02,2.3,2.3,0,0,0,1.777.77,2.517,2.517,0,0,0,1.3-.312,3.259,3.259,0,0,0,.93-.828l.883.688A3.55,3.55,0,0,1,46.363,17.156Zm-.18-7.578a1.928,1.928,0,0,0-1.469.637A3.1,3.1,0,0,0,43.98,12h4.234v-.109a2.753,2.753,0,0,0-.594-1.707A1.815,1.815,0,0,0,46.184,9.578Zm9.234.266a4.331,4.331,0,0,0-.711-.055A1.9,1.9,0,0,0,52.777,11v6H51.332V8.547h1.406l.023.977a2.251,2.251,0,0,1,2.016-1.133,1.477,1.477,0,0,1,.641.109ZM56.4,12.7a4.968,4.968,0,0,1,.914-3.145,3.151,3.151,0,0,1,4.836-.074l.07-.937h1.32V16.8a3.439,3.439,0,0,1-.973,2.586,3.589,3.589,0,0,1-2.613.945,4.348,4.348,0,0,1-1.789-.391,3.08,3.08,0,0,1-1.336-1.07l.75-.867a2.826,2.826,0,0,0,2.273,1.148,2.214,2.214,0,0,0,1.645-.594,2.269,2.269,0,0,0,.59-1.672v-.727a2.971,2.971,0,0,1-2.367,1,2.887,2.887,0,0,1-2.4-1.2A5.224,5.224,0,0,1,56.4,12.7Zm1.453.164a3.79,3.79,0,0,0,.586,2.246,1.9,1.9,0,0,0,1.641.816,2.117,2.117,0,0,0,2.008-1.242V10.828A2.142,2.142,0,0,0,60.1,9.617a1.921,1.921,0,0,0-1.648.82A4.128,4.128,0,0,0,57.855,12.867ZM69.23,17.156a3.693,3.693,0,0,1-2.8-1.129,4.19,4.19,0,0,1-1.078-3.02v-.266a5.073,5.073,0,0,1,.48-2.246A3.748,3.748,0,0,1,67.18,8.949a3.378,3.378,0,0,1,1.871-.559,3.166,3.166,0,0,1,2.563,1.086,4.7,4.7,0,0,1,.914,3.109v.6H66.8a3,3,0,0,0,.73,2.02,2.3,2.3,0,0,0,1.777.77,2.517,2.517,0,0,0,1.3-.312,3.259,3.259,0,0,0,.93-.828l.883.688A3.55,3.55,0,0,1,69.23,17.156Zm-.18-7.578a1.928,1.928,0,0,0-1.469.637A3.1,3.1,0,0,0,66.848,12h4.234v-.109a2.753,2.753,0,0,0-.594-1.707A1.815,1.815,0,0,0,69.051,9.578Zm6.516-1.031.047,1.063a3.08,3.08,0,0,1,2.531-1.219q2.68,0,2.7,3.023V17H79.4V11.406a1.946,1.946,0,0,0-.418-1.352,1.675,1.675,0,0,0-1.277-.437,2.086,2.086,0,0,0-1.234.375,2.546,2.546,0,0,0-.828.984V17H74.2V8.547Zm10.852,7.43a2.082,2.082,0,0,0,1.352-.469,1.649,1.649,0,0,0,.641-1.172h1.367a2.621,2.621,0,0,1-.5,1.383,3.293,3.293,0,0,1-1.23,1.047,3.55,3.55,0,0,1-1.629.391A3.482,3.482,0,0,1,83.672,16a4.59,4.59,0,0,1-1.02-3.152v-.242a5.089,5.089,0,0,1,.453-2.2,3.451,3.451,0,0,1,1.3-1.492,3.7,3.7,0,0,1,2-.531,3.39,3.39,0,0,1,2.363.852,3.043,3.043,0,0,1,1,2.211H88.41a1.992,1.992,0,0,0-.621-1.348,1.932,1.932,0,0,0-1.379-.527,2.023,2.023,0,0,0-1.707.793,3.724,3.724,0,0,0-.605,2.293v.273a3.65,3.65,0,0,0,.6,2.25A2.033,2.033,0,0,0,86.418,15.977ZM92.973,17H91.527V8.547h1.445ZM91.41,6.3a.863.863,0,0,1,.215-.594.807.807,0,0,1,.637-.242.819.819,0,0,1,.641.242.854.854,0,0,1,.219.594.826.826,0,0,1-.219.586.834.834,0,0,1-.641.234.821.821,0,0,1-.637-.234A.834.834,0,0,1,91.41,6.3ZM100.5,17a3.036,3.036,0,0,1-.2-.891,3.225,3.225,0,0,1-2.406,1.047,2.984,2.984,0,0,1-2.051-.707,2.288,2.288,0,0,1-.8-1.793,2.39,2.39,0,0,1,1-2.051,4.733,4.733,0,0,1,2.824-.73h1.406v-.664A1.623,1.623,0,0,0,99.824,10a1.821,1.821,0,0,0-1.336-.449,2.108,2.108,0,0,0-1.3.391,1.151,1.151,0,0,0-.523.945H95.215a2,2,0,0,1,.449-1.223,3.066,3.066,0,0,1,1.219-.934,4.1,4.1,0,0,1,1.691-.344,3.342,3.342,0,0,1,2.289.73,2.635,2.635,0,0,1,.859,2.012v3.891a4.757,4.757,0,0,0,.3,1.852V17Zm-2.4-1.1a2.54,2.54,0,0,0,1.289-.352,2.127,2.127,0,0,0,.883-.914V12.9H99.145q-2.656,0-2.656,1.555a1.316,1.316,0,0,0,.453,1.063A1.742,1.742,0,0,0,98.105,15.9Zm9.492-3.2a4.952,4.952,0,0,1,.922-3.129,3.137,3.137,0,0,1,4.766-.168V5h1.445V17H113.4l-.07-.906a2.943,2.943,0,0,1-2.414,1.063,2.887,2.887,0,0,1-2.395-1.2,5.008,5.008,0,0,1-.926-3.141Zm1.445.164a3.749,3.749,0,0,0,.594,2.25,1.92,1.92,0,0,0,1.641.813,2.108,2.108,0,0,0,2.008-1.234V10.813a2.125,2.125,0,0,0-1.992-1.2,1.929,1.929,0,0,0-1.656.82A4.128,4.128,0,0,0,109.043,12.867Zm11.438,4.289a3.693,3.693,0,0,1-2.8-1.129,4.19,4.19,0,0,1-1.078-3.02v-.266a5.073,5.073,0,0,1,.48-2.246,3.748,3.748,0,0,1,1.344-1.547,3.378,3.378,0,0,1,1.871-.559,3.166,3.166,0,0,1,2.563,1.086,4.7,4.7,0,0,1,.914,3.109v.6h-5.727a3,3,0,0,0,.73,2.02,2.3,2.3,0,0,0,1.777.77,2.517,2.517,0,0,0,1.3-.312,3.259,3.259,0,0,0,.93-.828l.883.688A3.55,3.55,0,0,1,120.48,17.156Zm-.18-7.578a1.928,1.928,0,0,0-1.469.637A3.1,3.1,0,0,0,118.1,12h4.234v-.109a2.753,2.753,0,0,0-.594-1.707A1.815,1.815,0,0,0,120.3,9.578ZM28.4,31.57a6.867,6.867,0,0,1-.594,2.945,4.472,4.472,0,0,1-1.7,1.953,5.021,5.021,0,0,1-5.059.008,4.515,4.515,0,0,1-1.719-1.941,6.67,6.67,0,0,1-.617-2.9V31.07a6.831,6.831,0,0,1,.605-2.957,4.508,4.508,0,0,1,1.711-1.961,5.014,5.014,0,0,1,5.055,0A4.508,4.508,0,0,1,27.8,28.113a6.811,6.811,0,0,1,.605,2.949Zm-2.375-.516a4.787,4.787,0,0,0-.641-2.719,2.263,2.263,0,0,0-3.648-.012,4.732,4.732,0,0,0-.648,2.691v.555a4.847,4.847,0,0,0,.641,2.7,2.243,2.243,0,0,0,3.656.035,4.819,4.819,0,0,0,.641-2.7ZM30.574,37V30.2H29.316V28.547h1.258v-.719a2.918,2.918,0,0,1,.816-2.207,3.162,3.162,0,0,1,2.285-.785,5.278,5.278,0,0,1,1.148.156l-.023,1.75a2.878,2.878,0,0,0-.687-.07q-1.273,0-1.273,1.2v.68h1.68V30.2H32.84V37Zm9.008.156a4.15,4.15,0,0,1-3.027-1.141,4.054,4.054,0,0,1-1.168-3.039v-.219a5.106,5.106,0,0,1,.492-2.277,3.612,3.612,0,0,1,1.395-1.547,3.914,3.914,0,0,1,2.059-.543,3.508,3.508,0,0,1,2.73,1.094,4.444,4.444,0,0,1,1,3.1v.922H37.676a2.1,2.1,0,0,0,.66,1.328,2,2,0,0,0,1.395.5,2.437,2.437,0,0,0,2.039-.945l1.109,1.242A3.389,3.389,0,0,1,41.5,36.754,4.511,4.511,0,0,1,39.582,37.156Zm-.258-6.945a1.411,1.411,0,0,0-1.09.455,2.357,2.357,0,0,0-.535,1.3H40.84v-.181a1.681,1.681,0,0,0-.406-1.165A1.456,1.456,0,0,0,39.324,30.211Zm9.766.453a6.134,6.134,0,0,0-.812-.062,1.654,1.654,0,0,0-1.68.867V37H44.34V28.547h2.133l.063,1.008a2.092,2.092,0,0,1,1.883-1.164,2.366,2.366,0,0,1,.7.1Zm4.18-4.2v2.078h1.445V30.2H53.27v4.219a1.007,1.007,0,0,0,.18.672.9.9,0,0,0,.688.2,3.6,3.6,0,0,0,.664-.055v1.711a4.648,4.648,0,0,1-1.367.2,2.156,2.156,0,0,1-2.422-2.4V30.2H49.777V28.547h1.234V26.469ZM60.871,37a2.507,2.507,0,0,1-.227-.758,2.732,2.732,0,0,1-2.133.914,3,3,0,0,1-2.059-.719,2.312,2.312,0,0,1-.816-1.812,2.389,2.389,0,0,1,1-2.062,4.915,4.915,0,0,1,2.879-.727h1.039v-.484a1.393,1.393,0,0,0-.3-.937,1.183,1.183,0,0,0-.949-.352,1.345,1.345,0,0,0-.895.273.929.929,0,0,0-.324.75H55.824a2.268,2.268,0,0,1,.453-1.359,3,3,0,0,1,1.281-.98,4.669,4.669,0,0,1,1.859-.355,3.689,3.689,0,0,1,2.48.785,2.747,2.747,0,0,1,.918,2.207v3.664a4.041,4.041,0,0,0,.336,1.82V37ZM59,35.43a1.945,1.945,0,0,0,.922-.223,1.462,1.462,0,0,0,.625-.6V33.156h-.844q-1.7,0-1.8,1.172l-.008.133a.9.9,0,0,0,.3.7A1.153,1.153,0,0,0,59,35.43Zm15.578-1.414A1.2,1.2,0,0,0,74.113,33a6.148,6.148,0,0,0-1.687-.75,11.963,11.963,0,0,1-1.93-.777,3.153,3.153,0,0,1-1.937-2.82A2.747,2.747,0,0,1,69.078,27a3.389,3.389,0,0,1,1.492-1.129,5.616,5.616,0,0,1,2.184-.406,5.112,5.112,0,0,1,2.172.441,3.458,3.458,0,0,1,1.48,1.246,3.261,3.261,0,0,1,.527,1.828H74.59A1.534,1.534,0,0,0,74.1,27.77a2.023,2.023,0,0,0-1.383-.434,2.162,2.162,0,0,0-1.336.363,1.146,1.146,0,0,0-.477.957,1.1,1.1,0,0,0,.559.93,6.311,6.311,0,0,0,1.645.7,7.106,7.106,0,0,1,2.914,1.492A2.972,2.972,0,0,1,76.934,34a2.737,2.737,0,0,1-1.117,2.316,4.891,4.891,0,0,1-3.008.84,5.808,5.808,0,0,1-2.391-.48,3.783,3.783,0,0,1-1.645-1.316,3.371,3.371,0,0,1-.566-1.937h2.352q0,1.883,2.25,1.883a2.189,2.189,0,0,0,1.3-.34A1.106,1.106,0,0,0,74.582,34.016ZM78.02,32.7a5.013,5.013,0,0,1,.484-2.242A3.546,3.546,0,0,1,79.9,28.93a4.069,4.069,0,0,1,2.113-.539A3.849,3.849,0,0,1,84.8,29.438a4.2,4.2,0,0,1,1.207,2.844l.016.578a4.418,4.418,0,0,1-1.086,3.121,4.209,4.209,0,0,1-5.832,0A4.5,4.5,0,0,1,78.02,32.8Zm2.258.16A3.16,3.16,0,0,0,80.73,34.7a1.628,1.628,0,0,0,2.578.008,3.457,3.457,0,0,0,.461-2.015,3.128,3.128,0,0,0-.461-1.831,1.5,1.5,0,0,0-1.3-.649,1.474,1.474,0,0,0-1.281.646A3.516,3.516,0,0,0,80.277,32.856Zm10.656,2.48a1.481,1.481,0,0,0,1.016-.344,1.2,1.2,0,0,0,.406-.914h2.117A2.9,2.9,0,0,1,94,35.652a3.093,3.093,0,0,1-1.262,1.109,3.949,3.949,0,0,1-1.77.395A3.67,3.67,0,0,1,88.113,36a4.56,4.56,0,0,1-1.047-3.184v-.148a4.508,4.508,0,0,1,1.039-3.117,3.627,3.627,0,0,1,2.852-1.164,3.555,3.555,0,0,1,2.543.9,3.2,3.2,0,0,1,.973,2.4H92.355a1.551,1.551,0,0,0-.406-1.072,1.51,1.51,0,0,0-2.223.163,3.333,3.333,0,0,0-.4,1.866v.235a3.375,3.375,0,0,0,.4,1.878A1.377,1.377,0,0,0,90.934,35.336ZM98.145,37H95.879V28.547h2.266Zm-2.4-10.641a1.112,1.112,0,0,1,.34-.836,1.465,1.465,0,0,1,1.848,0,1.193,1.193,0,0,1,0,1.68,1.448,1.448,0,0,1-1.836,0A1.108,1.108,0,0,1,95.746,26.359ZM104.9,37a2.507,2.507,0,0,1-.227-.758,2.732,2.732,0,0,1-2.133.914,3,3,0,0,1-2.059-.719,2.312,2.312,0,0,1-.816-1.812,2.389,2.389,0,0,1,1-2.062,4.915,4.915,0,0,1,2.879-.727h1.039v-.484a1.393,1.393,0,0,0-.3-.937,1.183,1.183,0,0,0-.949-.352,1.345,1.345,0,0,0-.895.273.929.929,0,0,0-.324.75H99.855a2.268,2.268,0,0,1,.453-1.359,3,3,0,0,1,1.281-.98,4.669,4.669,0,0,1,1.859-.355,3.689,3.689,0,0,1,2.48.785,2.747,2.747,0,0,1,.918,2.207v3.664a4.041,4.041,0,0,0,.336,1.82V37Zm-1.867-1.57a1.945,1.945,0,0,0,.922-.223,1.462,1.462,0,0,0,.625-.6V33.156h-.844q-1.7,0-1.8,1.172l-.008.133a.9.9,0,0,0,.3.7A1.153,1.153,0,0,0,103.035,35.43Zm7.93,1.57H108.7V25h2.266Z" transform="translate(684 2160)" fill="#12263f"/>
    <path id="Trazado_657332" data-name="Trazado 657332" d="M23.395,12.992V17H21.051V5.625h4.438a5.134,5.134,0,0,1,2.254.469,3.454,3.454,0,0,1,1.5,1.332,3.714,3.714,0,0,1,.523,1.965,3.266,3.266,0,0,1-1.145,2.637,4.767,4.767,0,0,1-3.168.965Zm0-1.9h2.094a2.059,2.059,0,0,0,1.418-.437,1.591,1.591,0,0,0,.488-1.25A1.876,1.876,0,0,0,26.9,8.055a1.839,1.839,0,0,0-1.359-.531H23.395Zm12.578-.43a6.134,6.134,0,0,0-.812-.062,1.654,1.654,0,0,0-1.68.867V17H31.223V8.547h2.133l.063,1.008A2.092,2.092,0,0,1,35.3,8.391a2.366,2.366,0,0,1,.7.1Zm.453,2.031a5.013,5.013,0,0,1,.484-2.242A3.546,3.546,0,0,1,38.3,8.93a4.069,4.069,0,0,1,2.113-.539,3.849,3.849,0,0,1,2.793,1.047,4.2,4.2,0,0,1,1.207,2.844l.016.578a4.418,4.418,0,0,1-1.086,3.121,4.209,4.209,0,0,1-5.832,0,4.5,4.5,0,0,1-1.09-3.187Zm2.258.16a3.16,3.16,0,0,0,.453,1.843,1.628,1.628,0,0,0,2.578.008,3.457,3.457,0,0,0,.461-2.015,3.128,3.128,0,0,0-.461-1.831,1.5,1.5,0,0,0-1.3-.649,1.474,1.474,0,0,0-1.281.646A3.516,3.516,0,0,0,38.684,12.856Zm9.844-6.387V8.547h1.445V10.2H48.527v4.219a1.007,1.007,0,0,0,.18.672.9.9,0,0,0,.688.2,3.6,3.6,0,0,0,.664-.055v1.711a4.648,4.648,0,0,1-1.367.2,2.156,2.156,0,0,1-2.422-2.4V10.2H45.035V8.547H46.27V6.469Zm6.594,10.688a4.15,4.15,0,0,1-3.027-1.141,4.054,4.054,0,0,1-1.168-3.039v-.219a5.106,5.106,0,0,1,.492-2.277,3.612,3.612,0,0,1,1.395-1.547,3.914,3.914,0,0,1,2.059-.543A3.508,3.508,0,0,1,57.6,9.484a4.444,4.444,0,0,1,1,3.1v.922H53.215a2.1,2.1,0,0,0,.66,1.328,2,2,0,0,0,1.395.5,2.437,2.437,0,0,0,2.039-.945l1.109,1.242a3.389,3.389,0,0,1-1.375,1.121A4.511,4.511,0,0,1,55.121,17.156Zm-.258-6.945a1.411,1.411,0,0,0-1.09.455,2.357,2.357,0,0,0-.535,1.3h3.141v-.181a1.681,1.681,0,0,0-.406-1.165A1.456,1.456,0,0,0,54.863,10.211Zm8.531,5.125a1.481,1.481,0,0,0,1.016-.344,1.2,1.2,0,0,0,.406-.914h2.117a2.9,2.9,0,0,1-.469,1.574A3.093,3.093,0,0,1,65.2,16.762a3.949,3.949,0,0,1-1.77.395A3.67,3.67,0,0,1,60.574,16a4.56,4.56,0,0,1-1.047-3.184v-.148a4.508,4.508,0,0,1,1.039-3.117,3.627,3.627,0,0,1,2.852-1.164,3.555,3.555,0,0,1,2.543.9,3.2,3.2,0,0,1,.973,2.4H64.816a1.551,1.551,0,0,0-.406-1.072,1.51,1.51,0,0,0-2.223.163,3.333,3.333,0,0,0-.4,1.866v.235a3.375,3.375,0,0,0,.4,1.878A1.377,1.377,0,0,0,63.395,15.336Zm8.344,0a1.481,1.481,0,0,0,1.016-.344,1.2,1.2,0,0,0,.406-.914h2.117a2.9,2.9,0,0,1-.469,1.574,3.093,3.093,0,0,1-1.262,1.109,3.949,3.949,0,0,1-1.77.395A3.67,3.67,0,0,1,68.918,16a4.56,4.56,0,0,1-1.047-3.184v-.148A4.508,4.508,0,0,1,68.91,9.555a3.627,3.627,0,0,1,2.852-1.164,3.555,3.555,0,0,1,2.543.9,3.2,3.2,0,0,1,.973,2.4H73.16a1.551,1.551,0,0,0-.406-1.072,1.51,1.51,0,0,0-2.223.163,3.333,3.333,0,0,0-.4,1.866v.235a3.375,3.375,0,0,0,.4,1.878A1.377,1.377,0,0,0,71.738,15.336ZM78.949,17H76.684V8.547h2.266Zm-2.4-10.641a1.112,1.112,0,0,1,.34-.836,1.465,1.465,0,0,1,1.848,0,1.105,1.105,0,0,1,.344.836,1.108,1.108,0,0,1-.348.844,1.448,1.448,0,0,1-1.836,0A1.108,1.108,0,0,1,76.551,6.359ZM80.457,12.7a5.013,5.013,0,0,1,.484-2.242A3.546,3.546,0,0,1,82.336,8.93a4.069,4.069,0,0,1,2.113-.539,3.849,3.849,0,0,1,2.793,1.047,4.2,4.2,0,0,1,1.207,2.844l.016.578a4.418,4.418,0,0,1-1.086,3.121,4.209,4.209,0,0,1-5.832,0,4.5,4.5,0,0,1-1.09-3.187Zm2.258.16a3.16,3.16,0,0,0,.453,1.843,1.628,1.628,0,0,0,2.578.008,3.457,3.457,0,0,0,.461-2.015,3.128,3.128,0,0,0-.461-1.831,1.5,1.5,0,0,0-1.3-.649,1.474,1.474,0,0,0-1.281.646A3.516,3.516,0,0,0,82.715,12.856ZM84.895,5h2.461L85.191,7.422H83.355Zm7.039,3.547.07.977a2.951,2.951,0,0,1,2.43-1.133,2.453,2.453,0,0,1,2,.789,3.682,3.682,0,0,1,.672,2.359V17H94.848V11.594a1.465,1.465,0,0,0-.312-1.043,1.4,1.4,0,0,0-1.039-.324,1.553,1.553,0,0,0-1.43.813V17H89.809V8.547ZM105.957,13.8l1.563-5.258h2.422l-3.4,9.766-.187.445a2.577,2.577,0,0,1-2.5,1.656,3.552,3.552,0,0,1-1-.148V18.555l.344.008a1.857,1.857,0,0,0,.957-.2,1.283,1.283,0,0,0,.5-.648l.266-.7-2.961-8.477h2.43ZM29.105,37V25.625h3.5a5.315,5.315,0,0,1,2.684.676,4.712,4.712,0,0,1,1.848,1.922,5.928,5.928,0,0,1,.664,2.832v.523a5.945,5.945,0,0,1-.652,2.82,4.672,4.672,0,0,1-1.84,1.914,5.355,5.355,0,0,1-2.68.688Zm2.344-9.477v7.594h1.133a2.545,2.545,0,0,0,2.1-.9,4.06,4.06,0,0,0,.742-2.57v-.6a4.124,4.124,0,0,0-.719-2.629,2.537,2.537,0,0,0-2.1-.895Zm11.8,9.633a4.15,4.15,0,0,1-3.027-1.141,4.054,4.054,0,0,1-1.168-3.039v-.219a5.106,5.106,0,0,1,.492-2.277,3.612,3.612,0,0,1,1.395-1.547A3.914,3.914,0,0,1,43,28.391a3.508,3.508,0,0,1,2.73,1.094,4.444,4.444,0,0,1,1,3.1v.922H41.34A2.1,2.1,0,0,0,42,34.836a2,2,0,0,0,1.395.5,2.437,2.437,0,0,0,2.039-.945l1.109,1.242a3.389,3.389,0,0,1-1.375,1.121A4.511,4.511,0,0,1,43.246,37.156Zm-.258-6.945a1.411,1.411,0,0,0-1.09.455,2.357,2.357,0,0,0-.535,1.3H44.5v-.181a1.681,1.681,0,0,0-.406-1.165A1.456,1.456,0,0,0,42.988,30.211Zm9.594,4.453a.727.727,0,0,0-.41-.652,4.659,4.659,0,0,0-1.316-.426q-3.016-.633-3.016-2.562a2.323,2.323,0,0,1,.934-1.879,3.766,3.766,0,0,1,2.441-.754,4.053,4.053,0,0,1,2.574.758,2.388,2.388,0,0,1,.965,1.969H52.5a1.092,1.092,0,0,0-.312-.8A1.322,1.322,0,0,0,51.207,30a1.351,1.351,0,0,0-.883.258.814.814,0,0,0-.312.656.7.7,0,0,0,.355.605,3.657,3.657,0,0,0,1.2.4,9.8,9.8,0,0,1,1.422.379,2.336,2.336,0,0,1,1.789,2.273,2.205,2.205,0,0,1-.992,1.871,4.28,4.28,0,0,1-2.562.715,4.47,4.47,0,0,1-1.887-.379,3.166,3.166,0,0,1-1.293-1.039,2.414,2.414,0,0,1-.469-1.426h2.141a1.179,1.179,0,0,0,.445.922,1.766,1.766,0,0,0,1.109.32,1.635,1.635,0,0,0,.98-.246A.766.766,0,0,0,52.582,34.664ZM61.129,37a2.507,2.507,0,0,1-.227-.758,2.732,2.732,0,0,1-2.133.914,3,3,0,0,1-2.059-.719,2.312,2.312,0,0,1-.816-1.812,2.389,2.389,0,0,1,1-2.062,4.915,4.915,0,0,1,2.879-.727h1.039v-.484a1.393,1.393,0,0,0-.3-.937,1.183,1.183,0,0,0-.949-.352,1.345,1.345,0,0,0-.895.273.929.929,0,0,0-.324.75H56.082a2.268,2.268,0,0,1,.453-1.359,3,3,0,0,1,1.281-.98,4.669,4.669,0,0,1,1.859-.355,3.689,3.689,0,0,1,2.48.785,2.747,2.747,0,0,1,.918,2.207v3.664a4.041,4.041,0,0,0,.336,1.82V37Zm-1.867-1.57a1.945,1.945,0,0,0,.922-.223,1.462,1.462,0,0,0,.625-.6V33.156h-.844q-1.7,0-1.8,1.172l-.008.133a.9.9,0,0,0,.3.7A1.153,1.153,0,0,0,59.262,35.43Zm10.3-4.766a6.134,6.134,0,0,0-.812-.062,1.654,1.654,0,0,0-1.68.867V37H64.809V28.547h2.133L67,29.555a2.092,2.092,0,0,1,1.883-1.164,2.366,2.366,0,0,1,.7.1Zm5.836,0a6.134,6.134,0,0,0-.812-.062,1.654,1.654,0,0,0-1.68.867V37H70.645V28.547h2.133l.063,1.008a2.092,2.092,0,0,1,1.883-1.164,2.366,2.366,0,0,1,.7.1Zm.453,2.031a5.013,5.013,0,0,1,.484-2.242,3.546,3.546,0,0,1,1.395-1.523,4.069,4.069,0,0,1,2.113-.539,3.849,3.849,0,0,1,2.793,1.047,4.2,4.2,0,0,1,1.207,2.844l.016.578A4.418,4.418,0,0,1,82.77,35.98a4.209,4.209,0,0,1-5.832,0,4.5,4.5,0,0,1-1.09-3.187Zm2.258.16a3.16,3.16,0,0,0,.453,1.843,1.628,1.628,0,0,0,2.578.008,3.457,3.457,0,0,0,.461-2.015,3.128,3.128,0,0,0-.461-1.831,1.5,1.5,0,0,0-1.3-.649,1.474,1.474,0,0,0-1.281.646A3.516,3.516,0,0,0,78.105,32.856ZM87.629,37H85.363V25h2.266Zm4.242,0H89.605V25h2.266Zm1.508-4.3a5.013,5.013,0,0,1,.484-2.242,3.546,3.546,0,0,1,1.395-1.523,4.069,4.069,0,0,1,2.113-.539,3.849,3.849,0,0,1,2.793,1.047,4.2,4.2,0,0,1,1.207,2.844l.016.578A4.418,4.418,0,0,1,100.3,35.98a4.209,4.209,0,0,1-5.832,0,4.5,4.5,0,0,1-1.09-3.187Zm2.258.16A3.16,3.16,0,0,0,96.09,34.7a1.628,1.628,0,0,0,2.578.008,3.457,3.457,0,0,0,.461-2.015,3.128,3.128,0,0,0-.461-1.831,1.5,1.5,0,0,0-1.3-.649,1.474,1.474,0,0,0-1.281.646A3.516,3.516,0,0,0,95.637,32.856ZM22.219,57H19.875V45.625h2.344Zm4.1-8.453.07.977a2.951,2.951,0,0,1,2.43-1.133,2.453,2.453,0,0,1,2,.789,3.682,3.682,0,0,1,.672,2.359V57H29.234V51.594a1.465,1.465,0,0,0-.312-1.043,1.4,1.4,0,0,0-1.039-.324,1.553,1.553,0,0,0-1.43.813V57H24.2V48.547Zm9.586-2.078v2.078h1.445V50.2H35.906v4.219a1.007,1.007,0,0,0,.18.672.9.9,0,0,0,.688.2,3.6,3.6,0,0,0,.664-.055v1.711a4.648,4.648,0,0,1-1.367.2,2.156,2.156,0,0,1-2.422-2.4V50.2H32.414V48.547h1.234V46.469ZM42.5,57.156a4.15,4.15,0,0,1-3.027-1.141A4.054,4.054,0,0,1,38.3,52.977v-.219A5.106,5.106,0,0,1,38.8,50.48a3.612,3.612,0,0,1,1.395-1.547,3.914,3.914,0,0,1,2.059-.543,3.508,3.508,0,0,1,2.73,1.094,4.444,4.444,0,0,1,1,3.1v.922H40.594a2.1,2.1,0,0,0,.66,1.328,2,2,0,0,0,1.395.5,2.437,2.437,0,0,0,2.039-.945L45.8,55.633a3.389,3.389,0,0,1-1.375,1.121A4.511,4.511,0,0,1,42.5,57.156Zm-.258-6.945a1.411,1.411,0,0,0-1.09.455,2.357,2.357,0,0,0-.535,1.3h3.141v-.181a1.681,1.681,0,0,0-.406-1.165A1.456,1.456,0,0,0,42.242,50.211Zm4.688,2.5a4.954,4.954,0,0,1,.926-3.133,3,3,0,0,1,2.5-1.187,2.631,2.631,0,0,1,2.164.953l.094-.8h2.047v8.172a3.613,3.613,0,0,1-.5,1.93,3.236,3.236,0,0,1-1.418,1.25,4.985,4.985,0,0,1-2.141.43,4.635,4.635,0,0,1-1.812-.371A3.217,3.217,0,0,1,47.445,59l1-1.375a2.645,2.645,0,0,0,2.047.945,1.936,1.936,0,0,0,1.4-.48,1.8,1.8,0,0,0,.5-1.363v-.453a2.612,2.612,0,0,1-2.055.883,2.992,2.992,0,0,1-2.465-1.191,4.953,4.953,0,0,1-.941-3.16Zm2.258.168a3.085,3.085,0,0,0,.461,1.8,1.466,1.466,0,0,0,1.266.653,1.568,1.568,0,0,0,1.477-.775V51a1.564,1.564,0,0,0-1.461-.775,1.476,1.476,0,0,0-1.277.665A3.477,3.477,0,0,0,49.188,52.879Zm11.953-2.215a6.134,6.134,0,0,0-.812-.062,1.654,1.654,0,0,0-1.68.867V57H56.391V48.547h2.133l.063,1.008a2.092,2.092,0,0,1,1.883-1.164,2.366,2.366,0,0,1,.7.1ZM66.891,57a2.507,2.507,0,0,1-.227-.758,2.732,2.732,0,0,1-2.133.914,3,3,0,0,1-2.059-.719,2.312,2.312,0,0,1-.816-1.812,2.389,2.389,0,0,1,1-2.062,4.915,4.915,0,0,1,2.879-.727H66.57v-.484a1.393,1.393,0,0,0-.3-.937,1.183,1.183,0,0,0-.949-.352,1.345,1.345,0,0,0-.895.273.929.929,0,0,0-.324.75H61.844a2.268,2.268,0,0,1,.453-1.359,3,3,0,0,1,1.281-.98,4.669,4.669,0,0,1,1.859-.355,3.689,3.689,0,0,1,2.48.785,2.747,2.747,0,0,1,.918,2.207v3.664a4.041,4.041,0,0,0,.336,1.82V57Zm-1.867-1.57a1.945,1.945,0,0,0,.922-.223,1.462,1.462,0,0,0,.625-.6V53.156h-.844q-1.7,0-1.8,1.172l-.008.133a.9.9,0,0,0,.3.7A1.153,1.153,0,0,0,65.023,55.43ZM72.953,57H70.688V45h2.266ZM88.2,57H85.852l-4.562-7.484V57H78.945V45.625h2.344l4.57,7.5v-7.5H88.2Zm11.3,0H97.148l-4.562-7.484V57H90.242V45.625h2.344l4.57,7.5v-7.5h2.336Zm8.469-2.344h-4.109L103.07,57h-2.492l4.234-11.375h2.172L111.242,57H108.75Zm-3.477-1.9h2.844L105.9,48.5Z" transform="translate(945 2160)" fill="#12263f"/>
    <g id="Grupo_995760" data-name="Grupo 995760" transform="translate(442.502 2061)">
      <g id="Grupo_995759" data-name="Grupo 995759" clip-path="url(#clip-path)">
        <path id="Trazado_655675" data-name="Trazado 655675" d="M16.941,40.574c-.227-.16-.428-.3-.626-.442a13.125,13.125,0,0,1-5.668-10.463.76.76,0,0,0-.582-.818A5.037,5.037,0,0,1,6.68,24.428a5.115,5.115,0,0,1,2.469-5c.212-.141.726-.164.236-.654-3.068-3.065-3.357-6.7-1.994-10.58A12.274,12.274,0,0,1,18.951.026C22.3.007,25.645.018,28.992.024a3.965,3.965,0,0,1,4.171,3.47c.062.355.122.479.518.538a3.939,3.939,0,0,1,3.5,4.133q.012,4.979-.007,9.958a.773.773,0,0,0,.6.884,5.258,5.258,0,0,1-.038,9.846.753.753,0,0,0-.57.827,13.071,13.071,0,0,1-4.351,9.353c-.449.411-.442.574.029.95a10.994,10.994,0,0,1,3.244,4.236,1.342,1.342,0,0,0,.973.873,16.484,16.484,0,0,1,5.149,1.975.541.541,0,0,0,.677-.051,9.232,9.232,0,0,1,2.08-1.008c.432-.14.39-.314.213-.653a12.749,12.749,0,0,1-1.365-6.074c.024-7.274,0-14.549.012-21.824a17.259,17.259,0,0,1,34.384-2.317,24.155,24.155,0,0,1,.141,2.648c0,7.136-.017,14.272.01,21.408a12.7,12.7,0,0,1-1.37,6.155c-.248.467-.038.526.316.672A12.112,12.112,0,0,1,85,57.446q-.008,10.289,0,20.579A6.644,6.644,0,0,1,78.012,85q-35.518,0-71.036,0A6.643,6.643,0,0,1,0,78.018Q0,67.77,0,57.522A11.964,11.964,0,0,1,8.941,45.6c1.613-.474,3.226-.954,4.85-1.388a1.376,1.376,0,0,0,.985-.769,10.992,10.992,0,0,1,2.165-2.872M8.976,74.429a2.6,2.6,0,0,0-2.331,2.733q-.014,1.2,0,2.4a2.654,2.654,0,1,0,5.307.082q.026-1.28,0-2.562a2.616,2.616,0,0,0-2.975-2.655m66.2,7.822a2.588,2.588,0,0,0,3.167-2.482c.035-.936.034-1.875,0-2.811a2.594,2.594,0,0,0-3.169-2.483,2.553,2.553,0,0,0-2.13,2.564q-.028,1.324,0,2.649a2.554,2.554,0,0,0,2.132,2.563M49.29,35.382a14.282,14.282,0,0,1-1.459-5.23c-.087-1.227-.076-1.228-1.329-1.5,0,3.987-.031,7.968.02,11.949a6.777,6.777,0,0,0,.928,3.257l1.869-2.3a17.868,17.868,0,0,1,2.661-2.07c.358-.2.3-.372.03-.608a14.022,14.022,0,0,1-2.719-3.5M4.158,81.347l.077.118.029-.072-.12-.028c.1-.281-.061-.539-.072-.808-.1-2.462-.526-4.983,1.264-7.108a5.427,5.427,0,0,1,1.916-1.268c.652-.173.739-.543.732-1.14-.032-2.791-.02-5.582-.011-8.373,0-1.023.642-1.669,1.5-1.552.727.1,1.152.656,1.154,1.565.007,2.819,0,5.637.01,8.456,0,.248-.138.545.164.78a14.237,14.237,0,0,1,3.171-1.923,16.045,16.045,0,0,1,3.676-.917c-2.9-3.042-2.963-3.147-4.213-7.625-.111-.4-.364-.329-.622-.371A4.013,4.013,0,0,1,9.3,57.187a3.953,3.953,0,0,1,3.38-3.992c.487-.082.613-.209.618-.7a31.838,31.838,0,0,1,.128-4.964c.058-.352-.07-.455-.4-.352q-1.536.475-3.073.947a9.123,9.123,0,0,0-7.258,8.554c-.085,7.264-.043,14.529-.017,21.793a3.216,3.216,0,0,0,1.481,2.871m20.424-44.16a12.351,12.351,0,0,1,4.714.747.837.837,0,0,0,.9-.173,10.7,10.7,0,0,0,2.644-2.833c.925-1.439.921-1.442-.432-2.515-.26-.206-.532-.4-.778-.619a4.954,4.954,0,0,0-3.575-1.245c-2.873.05-5.748.032-8.622.007a4.285,4.285,0,0,0-3.159,1.2c-.521.4-1.021.838-1.568,1.2a.708.708,0,0,0-.258,1.093,10.949,10.949,0,0,0,4.3,4.456.843.843,0,0,0,1.177-.122A12.162,12.162,0,0,1,23.7,37.357c.3-.019.631.125.877-.17m-8.462-8.6a9.35,9.35,0,0,1,3.954-.691c2.762.039,5.525.032,8.287,0a7.085,7.085,0,0,1,4.733,1.657c.4.326.8.64,1.24.986a1.559,1.559,0,0,0,.1-.328c.033-2.9.053-5.8.1-8.7.007-.392-.216-.445-.48-.523a6.468,6.468,0,0,1-4.211-3.579c-.164-.347-.278-.442-.639-.208a25.634,25.634,0,0,1-13.269,4.085,19.58,19.58,0,0,1-2.049-.2c-.556-.111-.626.071-.618.563.04,2.479.043,4.959.067,7.438,0,.451.044.9.075,1.5a30.353,30.353,0,0,1,2.7-2M53.125,55.819c-.718-.009-1.438,0-2.155-.034-.4-.02-.521.114-.513.512.028,1.382-.038,2.768.04,4.147a9.3,9.3,0,0,0,18.218,1.829c.54-2.013.268-4.065.346-6.1.014-.375-.186-.386-.463-.383-.829.009-1.665-.064-2.486.02a3.014,3.014,0,0,1-2.754-1.148c-.894-1.012-.991-1.013-1.915.032a3.112,3.112,0,0,1-2.684,1.123c-1.875-.076-3.756,0-5.635,0M23.577,68.876a9.249,9.249,0,0,0,10.294-5.655c.925-2.319.586-4.733.658-7.119.013-.424-.308-.3-.527-.305-1.215-.008-2.431-.018-3.646,0a6.568,6.568,0,0,1-4.7-1.72c-.351-.321-.543-.283-.868.018a6.283,6.283,0,0,1-3.712,1.658c-.821.084-1.654.049-2.482.068-.718-.009-1.438,0-2.155-.034-.4-.02-.521.114-.513.512.028,1.382-.038,2.768.04,4.147a9.2,9.2,0,0,0,7.607,8.433M18.6,53.109c1.869.147,3.608.016,5.009-1.528s1.773-1.5,3.27-.014c.2.195.388.394.6.576a3.673,3.673,0,0,0,2.326.97c1.408.047,2.819.006,4.228.029.41.007.514-.149.508-.531-.019-1.188.01-2.377-.012-3.565a9.257,9.257,0,0,0-11.105-8.972,9.015,9.015,0,0,0-5.988,4.056,10.324,10.324,0,0,0-1.489,6.493c.04.817-.364,1.922.172,2.373.557.469,1.635.132,2.487.111m38.507-12.9a1.089,1.089,0,0,0-.246,0,12.034,12.034,0,0,0-9.042,10.962c-.058,1.545.35,1.965,1.915,1.962.3,0,.6-.023.907-.035,1.795.012,3.6-.1,5.382.067,2.183.2,4.015-.2,5.286-2.132a.336.336,0,0,1,.059-.058c.738-.675,1.507-.771,2.083.031a5.29,5.29,0,0,0,5.541,2.136,8.475,8.475,0,0,1,1.076-.008c1.177-.015,1.7-.5,1.63-1.674A11.678,11.678,0,0,0,64.54,40.877a10.681,10.681,0,0,0-7.433-.668M46.485,82.323c.138.008.275.024.413.024q11.824,0,23.648,0c.151,0,.325.066.5-.126-.946-1.636-.621-3.461-.655-5.239a4.428,4.428,0,0,1,.968-2.934c.444-.544.261-.719-.227-1.021-2.192-1.356-4.619-1.354-7.064-1.3-.335.007-.316.2-.345.429a3.988,3.988,0,0,1-4.917,3.423,3.905,3.905,0,0,1-3-3.285c-.048-.236.088-.591-.382-.564a18.748,18.748,0,0,0-3.8.179c-4.065.343-7.652,4.382-7.792,8.775-.053,1.671-.053,1.672,1.575,1.669.359,0,.717-.016,1.076-.025m-31.529,0q8.215.014,16.43.028,4.523.006,9.046,0c.352,0,.7.091.709-.5a9.619,9.619,0,0,0-3.772-8.26c-2.326-1.8-5.027-1.97-7.8-1.867-.393.015-.328.262-.373.5a3.982,3.982,0,0,1-7.9,0c-.069-.386-.166-.508-.552-.5-.94.03-1.886-.043-2.82.036a8.014,8.014,0,0,0-4.523,1.624c-.225.27.075.379.18.526a4.715,4.715,0,0,1,1,2.672c.021,1.91.35,3.867-.634,5.677a2.005,2.005,0,0,0,1.015.067M53.125,21.3c-.663-.009-1.329.016-1.989-.038-.546-.044-.69.139-.684.681.03,2.489-.019,4.978.023,7.467a10.6,10.6,0,0,0,3.478,7.712,1.858,1.858,0,0,0,2.489.415,25.65,25.65,0,0,1,3.637-.358c.5.419,1,.108,1.509.027a26.3,26.3,0,0,1,3.9,1.2.957.957,0,0,0,1.07-.08,10.248,10.248,0,0,0,4.989-7.463c.423-3.076.084-6.185.174-9.279.011-.4-.228-.421-.521-.468a11.61,11.61,0,0,1-7-3.784c-.4-.443-.574-.371-.925.023a11.832,11.832,0,0,1-5.234,3.364,15.919,15.919,0,0,1-4.916.584M16.773,3.021a5.119,5.119,0,0,0-.642.114,9.762,9.762,0,0,0-6.81,8.439,6.23,6.23,0,0,0,5.634,6.976c.3.019.605.061.907.054a22.584,22.584,0,0,0,13.51-4.746A1.44,1.44,0,0,1,31.9,14.942,3.838,3.838,0,0,0,33.775,18c.2.126.411.378.66.23.2-.121.09-.4.091-.614.006-2.791-.028-5.581.015-8.371.03-1.956-.02-2.782-2.471-2.588a1.022,1.022,0,0,1-.166,0,1.337,1.337,0,0,1-1.353-1.379c-.018-.331,0-.663-.006-.994-.02-1.125-.491-1.6-1.633-1.6q-5.016-.008-10.03,0a5.69,5.69,0,0,0-2.109.339M49.143,18.586q2.776.011,5.552.021a8.246,8.246,0,0,0,1.963-.275,9.9,9.9,0,0,0,5.832-4.224A1.4,1.4,0,0,1,65,14.086c.153.2.3.4.446.6a9.256,9.256,0,0,0,6.345,3.824c1.3.178,2.65.052,3.866.838.374-5.5-1.218-10.09-5.509-13.477A13.877,13.877,0,0,0,57.438,3.2a.35.35,0,0,0-.375.124.126.126,0,0,0-.12.032,2.8,2.8,0,0,0-1.182.339,14.506,14.506,0,0,0-7.532,6.679,15.537,15.537,0,0,0-1.692,8.919,6.952,6.952,0,0,1,2.607-.7m33.193,41.1a20.2,20.2,0,0,0-.245-4.576c-1.023-3.948-3.637-6.23-7.535-7.182-.592-.144-.766-.191-.606.544.34,1.556.732,3.145.125,4.723a.694.694,0,0,0,.234.949,3.843,3.843,0,0,1,.846,4.947c-.129.237-.3.432-.231.756.252,1.13.485,2.264.689,3.4.072.4.226.532.639.527q2.775-.034,5.551,0c.457.007.55-.155.541-.57-.025-1.1-.009-2.209-.009-3.523M45.433,48.7a8.988,8.988,0,0,0-4.964,5.169,1.224,1.224,0,0,0,.1,1.22,3.769,3.769,0,0,1-.387,4.608,1.244,1.244,0,0,0-.351.877c.012,3.706.007,7.413.007,11.119a.808.808,0,0,0,.189.687,13.516,13.516,0,0,1,2.447,3.233A12.975,12.975,0,0,1,45.6,71.732c-.588,0-.966,0-1.345,0-1.411-.008-1.905-.606-1.636-1.969.636-3.224,1.261-6.449,1.915-9.669a1.28,1.28,0,0,0-.156-1,3.879,3.879,0,0,1-.186-3.657c.311-.735,1.323-1.156,1.34-1.781.019-.723-.441-1.508-.368-2.325.078-.875.178-1.749.269-2.627M75.68,28.608c-.907.179-1.441.487-1.366,1.518a7.6,7.6,0,0,1-.386,2.441A13.238,13.238,0,0,1,69.1,39.8c-.369.285-.488.441-.057.779A14.507,14.507,0,0,1,72.2,44.168a1.37,1.37,0,0,0,2.469-.106,7.976,7.976,0,0,0,1-3.558c.044-3.947.016-7.9.016-11.9m5.076,52.866a3.653,3.653,0,0,0,1.568-3.036c.027-3.81,0-7.621.023-11.431,0-.467-.126-.608-.6-.6q-2.07.045-4.142,0c-.473-.011-.6.134-.594.6q.043,2.111,0,4.224a.771.771,0,0,0,.594.89A4.841,4.841,0,0,1,80.8,75.664a14.64,14.64,0,0,1-.041,5.81M67.282,69.07c1.777,0,3.319.005,4.861,0,.6,0,1.462.2,1.751-.113.372-.4-.088-1.175-.2-1.783-.353-1.87-.751-3.732-1.118-5.6-.059-.3-.108-.516-.5-.49-.345.023-.5.152-.514.494a3.577,3.577,0,0,1-.09.571,12.221,12.221,0,0,1-4.185,6.923m-15.044,0a12.043,12.043,0,0,1-4.27-7.515c-.051-.35-.2-.451-.534-.473-.406-.027-.427.223-.484.51q-.691,3.49-1.4,6.977c-.068.333-.058.511.362.508,2.036-.014,4.073-.006,6.33-.006m-15.08-7.363a13.144,13.144,0,0,1-4.464,7.412,13.75,13.75,0,0,1,4.464,1.188Zm3.174-12.656a10.17,10.17,0,0,0-2.644-1.039c-.363-.109-.541-.063-.53.4.036,1.4.017,2.811.033,4.216,0,.186-.129.468.234.51.267.031.472.011.585-.3a12.362,12.362,0,0,1,2.321-3.789m34.08-27.314v4.345a2.485,2.485,0,0,0,0-4.345m-26.639-.018a2.482,2.482,0,0,0,0,4.347Zm-10.543.029v4.328c1.5-.555,1.852-3.377,0-4.328m-26.639-.035a2.48,2.48,0,0,0,0,4.35ZM47.81,57.181a1.816,1.816,0,0,0-.005-.413c-.075-.316.242-.847-.194-.916-.472-.074-.848.327-1.034.806a1.247,1.247,0,0,0,.287,1.375c.209.228.5.454.789.365.338-.1.105-.474.152-.721a2.739,2.739,0,0,0,.006-.5m-10.624-1.4c0,.793.019,1.511-.007,2.227-.018.509.206.476.545.309a1.242,1.242,0,0,0,.769-1.337c-.083-.679-.509-1.065-1.307-1.2M13.283,57.2a2.622,2.622,0,0,0-.006-.5c-.058-.3.2-.776-.179-.853-.4-.082-.762.252-.974.645a1.25,1.25,0,0,0,.094,1.4c.216.307.545.585.891.5.373-.09.1-.517.168-.786a1.779,1.779,0,0,0,.006-.413m58.43-.087c0,.276.021.554,0,.829-.059.637.262.534.631.337a1.3,1.3,0,0,0,.282-2.107c-.222-.206-.507-.446-.8-.314-.235.1-.082.443-.1.676-.019.192,0,.386,0,.58M26.574,71.726c-.795,0-1.513.019-2.229-.006-.511-.018-.473.21-.307.547a1.241,1.241,0,0,0,1.338.766c.679-.084,1.063-.512,1.2-1.307m34.527,0c-.795,0-1.513.019-2.229-.006-.511-.018-.473.21-.307.547a1.241,1.241,0,0,0,1.338.766c.679-.084,1.063-.512,1.2-1.307" transform="translate(0 0)" fill="#020101"/>
        <path id="Trazado_655676" data-name="Trazado 655676" d="M155.553,8.7a.126.126,0,0,1,.12-.032.33.33,0,0,0,.375-.124,13.877,13.877,0,0,1,12.706,2.672c4.291,3.388,5.883,7.979,5.509,13.477-1.216-.787-2.568-.66-3.866-.838a9.256,9.256,0,0,1-6.345-3.825c-.149-.2-.293-.4-.446-.6a1.4,1.4,0,0,0-2.506.021,9.9,9.9,0,0,1-5.832,4.224,8.246,8.246,0,0,1-1.963.275q-2.776-.006-5.552-.021a29.97,29.97,0,0,1,.138-3.376,15.786,15.786,0,0,1,5.788-10.311c.623-.516,1.456-.786,1.875-1.546" transform="translate(-98.61 -5.352)" fill="#bb7c64"/>
        <path id="Trazado_655677" data-name="Trazado 655677" d="M40.768,8.393a5.69,5.69,0,0,1,2.109-.339q5.015-.005,10.03,0c1.142,0,1.614.473,1.633,1.6.006.331-.012.664.006.994A1.337,1.337,0,0,0,55.9,12.025a1.021,1.021,0,0,0,.166,0c2.451-.193,2.5.632,2.471,2.588-.043,2.79-.009,5.581-.015,8.372,0,.209.112.492-.091.614-.249.148-.458-.1-.66-.23A3.838,3.838,0,0,1,55.9,20.315a1.44,1.44,0,0,0-2.531-1.085,22.588,22.588,0,0,1-13.511,4.746c-.3.007-.6-.035-.907-.054-.028-.189-.2-.247-.317-.357a7.673,7.673,0,0,1-2.677-5.747,10.981,10.981,0,0,1,4.378-8.873c.192-.16.433-.254.435-.552" transform="translate(-23.996 -5.373)" fill="#bb7c64"/>
        <path id="Trazado_655678" data-name="Trazado 655678" d="M166.56,71.328a25.658,25.658,0,0,0-3.638.358c-.31-.386-.625-.768-.929-1.158a11.15,11.15,0,0,1-2.35-6.088,19.362,19.362,0,0,1,.07-4.537,1.308,1.308,0,0,0,1.678.662,1.364,1.364,0,0,0,.869-1.523c-.011-.22-.01-.441,0-.66a1.384,1.384,0,0,0-.86-1.531,1.342,1.342,0,0,0-1.652.566c-.3-.637-.078-1.313-.143-1.968a15.918,15.918,0,0,0,4.915-.584,11.832,11.832,0,0,0,5.234-3.364c.352-.394.527-.466.925-.023a11.61,11.61,0,0,0,7,3.784c.293.047.532.069.521.468-.089,3.093.249,6.2-.174,9.279a10.247,10.247,0,0,1-4.989,7.463.957.957,0,0,1-1.069.08,26.31,26.31,0,0,0-3.9-1.2,4.962,4.962,0,0,0,3-1.6,1.343,1.343,0,0,0,.064-1.986c-.592-.574-1.32-.5-2.014.207A2.008,2.008,0,0,1,166,67.952a1.3,1.3,0,0,0-1.955-.222c-.613.551-.579,1.3.043,2.046a6.457,6.457,0,0,0,2.47,1.552m8.977-12.6c0-.193.008-.386,0-.578a1.328,1.328,0,1,0-2.653-.02c-.011.192,0,.385,0,.578,0,1.393.437,2.042,1.36,2.019.9-.022,1.3-.643,1.3-2" transform="translate(-106.48 -34.152)" fill="#efd0c6"/>
        <path id="Trazado_655679" data-name="Trazado 655679" d="M40.266,217.24a8.014,8.014,0,0,1,4.523-1.624c.934-.078,1.881-.006,2.82-.036.387-.012.484.11.552.5a3.983,3.983,0,0,0,7.9,0c.046-.235-.02-.483.373-.5,2.778-.1,5.479.066,7.8,1.867a9.619,9.619,0,0,1,3.772,8.26c-.01.592-.358.5-.709.5q-4.523,0-9.046,0-8.215-.01-16.43-.028a3.913,3.913,0,0,0,.957-2.147,18.848,18.848,0,0,0-.014-3.622,3.676,3.676,0,0,0-2.506-3.173" transform="translate(-26.873 -143.862)" fill="#e66c68"/>
        <path id="Trazado_655680" data-name="Trazado 655680" d="M144.895,215.784a18.748,18.748,0,0,1,3.8-.179c.471-.026.335.328.382.564a3.9,3.9,0,0,0,3,3.284,3.987,3.987,0,0,0,4.917-3.423c.029-.225.009-.422.344-.429,2.445-.051,4.872-.054,7.064,1.3.489.3.671.477.227,1.021a4.428,4.428,0,0,0-.968,2.934c.034,1.778-.292,3.6.655,5.239-.175.192-.349.126-.5.126q-11.824.006-23.648,0c-.138,0-.276-.016-.413-.024a13.891,13.891,0,0,1,.327-4.081,10.986,10.986,0,0,1,4.815-6.339" transform="translate(-93.268 -143.882)" fill="#efac72"/>
        <path id="Trazado_655681" data-name="Trazado 655681" d="M158.381,120.127a10.681,10.681,0,0,1,7.433.668,11.678,11.678,0,0,1,7.159,10.584c.07,1.174-.453,1.66-1.63,1.674a8.475,8.475,0,0,0-1.076.008,5.29,5.29,0,0,1-5.542-2.135c-.576-.8-1.345-.706-2.083-.031a.347.347,0,0,0-.059.058c-1.272,1.932-3.1,2.334-5.286,2.133-1.781-.164-3.587-.055-5.382-.068a8.77,8.77,0,0,1-.014-3.356,13.081,13.081,0,0,1,3.181-6.692,23.388,23.388,0,0,1,3.3-2.842" transform="translate(-101.274 -79.918)" fill="#bb7c64"/>
        <path id="Trazado_655682" data-name="Trazado 655682" d="M60.729,120.128a9.257,9.257,0,0,1,11.1,8.972c.022,1.188-.007,2.376.012,3.565.006.382-.1.538-.508.531-1.409-.024-2.82.017-4.228-.029a3.675,3.675,0,0,1-2.326-.97c-.207-.182-.4-.381-.6-.576-1.5-1.49-1.855-1.544-3.269.014s-3.141,1.675-5.009,1.528q0-1.818-.006-3.634a10.458,10.458,0,0,1,4.422-8.917c.181-.134.376-.231.4-.482" transform="translate(-37.31 -80.053)" fill="#bb7c64"/>
        <path id="Trazado_655683" data-name="Trazado 655683" d="M55.875,163.873c.828-.019,1.661.017,2.482-.068a6.285,6.285,0,0,0,3.712-1.658c.325-.3.517-.34.868-.018a6.569,6.569,0,0,0,4.7,1.72c1.215-.017,2.43-.008,3.646,0,.219,0,.539-.119.527.305-.072,2.386.267,4.8-.658,7.119a9.249,9.249,0,0,1-10.293,5.655,11.477,11.477,0,0,1-4.083-4.824,7.293,7.293,0,0,1-.779-3.944c.7.819,1.5.958,2.119.364a2.71,2.71,0,0,0,.046-2.936c-.6-.629-1.383-.538-2.139.25-.3-.637-.077-1.313-.143-1.968m6.646,11.933a5.16,5.16,0,0,0,3.555-1.7,1.32,1.32,0,1,0-1.931-1.794,2.01,2.01,0,0,1-3.272,0,1.289,1.289,0,0,0-1.9-.116,1.274,1.274,0,0,0-.07,1.853,5.148,5.148,0,0,0,3.623,1.757m6.611-8.744h.005a4.945,4.945,0,0,0-.006-.74,1.31,1.31,0,0,0-1.707-1.079,1.331,1.331,0,0,0-.933,1.4c.005.817-.153,1.7.8,2.15a1.323,1.323,0,0,0,1.832-.987,4.184,4.184,0,0,0,.007-.739" transform="translate(-37.277 -108.054)" fill="#eed0c6"/>
        <path id="Trazado_655684" data-name="Trazado 655684" d="M159.684,163.982c1.879-.009,3.76-.08,5.635,0A3.113,3.113,0,0,0,168,162.856c.924-1.045,1.021-1.044,1.915-.032a3.012,3.012,0,0,0,2.754,1.147c.821-.084,1.657-.01,2.486-.019.277,0,.477.008.463.383-.078,2.036.194,4.088-.346,6.1a9.245,9.245,0,0,1-10.612,6.6,11.479,11.479,0,0,1-4.083-4.824,7.293,7.293,0,0,1-.779-3.944c.7.819,1.5.958,2.119.364a2.71,2.71,0,0,0,.046-2.936c-.6-.629-1.383-.537-2.139.25-.305-.637-.078-1.313-.143-1.968m6.647,11.929a4.619,4.619,0,0,0,3.634-1.794,1.316,1.316,0,0,0-1.995-1.717c-1.152,1.137-2.168,1.147-3.277.032a1.291,1.291,0,0,0-1.906-.139,1.3,1.3,0,0,0-.035,1.924,4.7,4.7,0,0,0,3.58,1.694m3.945-8.828c-.037.757.046,1.476.839,1.809a1.246,1.246,0,0,0,1.554-.4,3.011,3.011,0,0,0,.019-2.669,1.256,1.256,0,0,0-1.462-.469,1.207,1.207,0,0,0-.841.837,5.44,5.44,0,0,0-.108.892" transform="translate(-106.558 -108.164)" fill="#eed0c6"/>
        <path id="Trazado_655685" data-name="Trazado 655685" d="M20.621,142.725q1.537-.473,3.073-.947c.331-.1.459,0,.4.352a31.838,31.838,0,0,0-.128,4.964c0,.488-.13.614-.618.7a3.954,3.954,0,0,0-3.38,3.992,4.013,4.013,0,0,0,3.511,3.893c.257.043.51-.027.622.372,1.251,4.479,1.316,4.583,4.213,7.625a16.045,16.045,0,0,0-3.676.917,14.226,14.226,0,0,0-3.171,1.923c-.3-.234-.163-.532-.164-.78-.012-2.818,0-5.637-.01-8.456,0-.909-.427-1.465-1.154-1.565-.854-.117-1.493.53-1.5,1.552-.008,2.791-.021,5.582.011,8.373.007.6-.081.967-.733,1.14a5.422,5.422,0,0,0-1.916,1.268q-.011-7.675-.019-15.35a15.681,15.681,0,0,1,.144-2.554,10.284,10.284,0,0,1,3.688-6.531c.3-.245.742-.406.8-.885" transform="translate(-10.669 -94.597)" fill="#74b2e1"/>
        <path id="Trazado_655686" data-name="Trazado 655686" d="M47.849,55.557a25.635,25.635,0,0,0,13.269-4.085c.361-.234.475-.139.639.208a6.467,6.467,0,0,0,4.211,3.579c.264.077.486.131.48.523-.05,2.9-.07,5.8-.1,8.7a1.539,1.539,0,0,1-.1.328c-.436-.346-.843-.66-1.24-.986a7.087,7.087,0,0,0-4.733-1.657c-2.762.028-5.525.035-8.287,0a9.343,9.343,0,0,0-3.954.691,4.526,4.526,0,0,1-.034-2.674,1.344,1.344,0,0,0,1.647.566,1.383,1.383,0,0,0,.865-1.523c-.011-.246-.011-.494,0-.74a1.38,1.38,0,0,0-.866-1.522,1.342,1.342,0,0,0-1.646.569c-.306-.639-.077-1.316-.144-1.972m13.277,3.3c0,.193-.008.385,0,.578a1.328,1.328,0,1,0,2.653.042c.011-.192,0-.385,0-.578,0-1.4-.426-2.044-1.35-2.029-.9.015-1.308.632-1.307,1.987" transform="translate(-31.907 -34.266)" fill="#eed0c6"/>
        <path id="Trazado_655687" data-name="Trazado 655687" d="M230.611,155.673c0,1.313-.017,2.418.009,3.522.009.416-.084.577-.541.57q-2.775-.039-5.551,0c-.413,0-.567-.128-.639-.528-.2-1.139-.437-2.274-.689-3.4-.073-.324.1-.519.231-.756a3.843,3.843,0,0,0-.846-4.947.693.693,0,0,1-.234-.949c.607-1.578.215-3.167-.125-4.723-.161-.735.013-.688.606-.543,3.9.952,6.512,3.234,7.535,7.182a20.206,20.206,0,0,1,.245,4.576" transform="translate(-148.274 -95.99)" fill="#e5a8b0"/>
        <path id="Trazado_655688" data-name="Trazado 655688" d="M125.365,146.421c-.091.878-.19,1.751-.268,2.627-.074.817.387,1.6.368,2.325-.017.625-1.029,1.046-1.34,1.781a3.879,3.879,0,0,0,.186,3.657,1.281,1.281,0,0,1,.156,1c-.654,3.22-1.279,6.445-1.915,9.669-.269,1.363.226,1.962,1.636,1.969.379,0,.757,0,1.344,0a12.981,12.981,0,0,0-3.121,3.882,13.51,13.51,0,0,0-2.447-3.234.808.808,0,0,1-.189-.687c0-3.706,0-7.413-.007-11.119a1.241,1.241,0,0,1,.351-.877,3.769,3.769,0,0,0,.387-4.608,1.224,1.224,0,0,1-.1-1.22,8.99,8.99,0,0,1,4.964-5.169" transform="translate(-79.932 -97.721)" fill="#e5a8b0"/>
        <path id="Trazado_655689" data-name="Trazado 655689" d="M48.936,93.048a4.283,4.283,0,0,1,3.159-1.2c2.874.024,5.749.042,8.622-.007a4.954,4.954,0,0,1,3.575,1.245c.246.221.519.413.778.619,1.353,1.074,1.356,1.076.432,2.515a10.7,10.7,0,0,1-2.644,2.833.837.837,0,0,1-.9.173,12.345,12.345,0,0,0-4.714-.747,5.771,5.771,0,0,0,2.989-1.787,1.322,1.322,0,0,0-1.942-1.79c-1.408,1.278-2.041,1.28-3.431.014a1.289,1.289,0,0,0-1.795-.057,1.269,1.269,0,0,0-.144,1.847,4.94,4.94,0,0,0,2.621,1.63c.284.076.605.063.824.313a12.162,12.162,0,0,0-3.775,1.028c-.457-.544-.927-1.077-1.368-1.634a9.361,9.361,0,0,1-2.285-5" transform="translate(-32.66 -61.294)" fill="#b97b64"/>
        <path id="Trazado_655690" data-name="Trazado 655690" d="M15.256,144.7c-.061.479-.506.64-.8.885a10.284,10.284,0,0,0-3.688,6.531,15.681,15.681,0,0,0-.144,2.554q0,7.675.019,15.35c-1.79,2.125-1.367,4.646-1.265,7.108.011.268.167.527.072.807l.014-.018a3.218,3.218,0,0,1-1.481-2.872c-.025-7.264-.068-14.529.017-21.793a9.122,9.122,0,0,1,7.258-8.554" transform="translate(-5.304 -96.572)" fill="#5da4d1"/>
        <path id="Trazado_655691" data-name="Trazado 655691" d="M213.665,86.012c0,4,.028,7.948-.016,11.9a7.979,7.979,0,0,1-1,3.558,1.37,1.37,0,0,1-2.469.106,14.513,14.513,0,0,0-3.155-3.592c-.431-.338-.312-.493.057-.779a13.238,13.238,0,0,0,4.83-7.229,7.585,7.585,0,0,0,.386-2.441c-.074-1.03.459-1.339,1.366-1.518" transform="translate(-137.984 -57.404)" fill="#b97b64"/>
        <path id="Trazado_655692" data-name="Trazado 655692" d="M235.29,214.728a14.632,14.632,0,0,0,.041-5.81,4.84,4.84,0,0,0-3.187-3.542.771.771,0,0,1-.594-.89q.04-2.111,0-4.224c-.01-.465.121-.61.594-.6q2.07.046,4.142,0c.47-.01.6.13.6.6-.019,3.81,0,7.621-.023,11.431a3.653,3.653,0,0,1-1.568,3.036" transform="translate(-154.534 -133.254)" fill="#eed0c6"/>
        <path id="Trazado_655693" data-name="Trazado 655693" d="M154.47,68.391a19.345,19.345,0,0,0-.07,4.537,11.152,11.152,0,0,0,2.35,6.088c.3.39.619.772.929,1.158a1.857,1.857,0,0,1-2.489-.415,10.6,10.6,0,0,1-3.478-7.712c-.042-2.488.007-4.978-.023-7.467-.007-.542.138-.725.684-.681.66.053,1.325.029,1.989.038.066.655-.162,1.33.143,1.968a5.189,5.189,0,0,0-.035,2.487" transform="translate(-101.237 -42.642)" fill="#e7b1a0"/>
        <path id="Trazado_655694" data-name="Trazado 655694" d="M150.19,10.075c-.419.76-1.252,1.031-1.875,1.546a15.786,15.786,0,0,0-5.788,10.311,29.966,29.966,0,0,0-.138,3.376,6.949,6.949,0,0,0-2.606.7,15.534,15.534,0,0,1,1.692-8.919,14.5,14.5,0,0,1,7.532-6.679,2.805,2.805,0,0,1,1.182-.339" transform="translate(-93.247 -6.723)" fill="#a5634d"/>
        <path id="Trazado_655695" data-name="Trazado 655695" d="M35.413,9.081c0,.3-.243.392-.435.552A10.981,10.981,0,0,0,30.6,18.506a7.673,7.673,0,0,0,2.677,5.747c.12.109.29.167.317.357a6.229,6.229,0,0,1-5.634-6.976A9.762,9.762,0,0,1,34.771,9.2a5.141,5.141,0,0,1,.642-.114" transform="translate(-18.64 -6.061)" fill="#a5634d"/>
        <path id="Trazado_655696" data-name="Trazado 655696" d="M50.681,172.039a7.3,7.3,0,0,0,.779,3.944,11.48,11.48,0,0,0,4.084,4.824,9.2,9.2,0,0,1-7.607-8.433c-.078-1.379-.012-2.765-.04-4.147-.008-.4.113-.532.513-.512.717.036,1.437.026,2.155.035.066.655-.162,1.331.143,1.968a4.461,4.461,0,0,0-.026,2.322" transform="translate(-31.966 -111.931)" fill="#e7b1a0"/>
        <path id="Trazado_655697" data-name="Trazado 655697" d="M154.489,172.039a7.3,7.3,0,0,0,.779,3.944,11.48,11.48,0,0,0,4.084,4.824,9.2,9.2,0,0,1-7.607-8.433c-.078-1.379-.012-2.765-.04-4.147-.008-.4.113-.532.513-.512.717.036,1.437.026,2.155.035.066.655-.162,1.331.143,1.968a4.461,4.461,0,0,0-.026,2.322" transform="translate(-101.246 -111.931)" fill="#e7b1a0"/>
        <path id="Trazado_655698" data-name="Trazado 655698" d="M142.61,99.054l-1.869,2.3a6.778,6.778,0,0,1-.928-3.257c-.052-3.981-.02-7.962-.02-11.949,1.253.271,1.242.272,1.329,1.5a14.275,14.275,0,0,0,1.459,5.23c-.238.223-.148.514-.149.778-.008,1.427,0,2.854,0,4.281a2.1,2.1,0,0,0,.183,1.121" transform="translate(-93.29 -57.493)" fill="#a5634d"/>
        <path id="Trazado_655699" data-name="Trazado 655699" d="M55.19,120.488c-.027.251-.222.348-.4.482a10.458,10.458,0,0,0-4.422,8.917q.005,1.817.006,3.634c-.851.021-1.929.358-2.487-.112-.535-.45-.131-1.556-.172-2.373a10.325,10.325,0,0,1,1.489-6.493,9.015,9.015,0,0,1,5.988-4.056" transform="translate(-31.771 -80.413)" fill="#a5634d"/>
        <path id="Trazado_655700" data-name="Trazado 655700" d="M153.048,120.876a23.388,23.388,0,0,0-3.3,2.842,13.08,13.08,0,0,0-3.181,6.692,8.77,8.77,0,0,0,.014,3.356c-.3.012-.6.035-.907.035-1.565,0-1.973-.417-1.914-1.962a12.034,12.034,0,0,1,9.042-10.962,1.109,1.109,0,0,1,.246,0" transform="translate(-95.941 -80.667)" fill="#a5634d"/>
        <path id="Trazado_655701" data-name="Trazado 655701" d="M224.191,223.815a2.594,2.594,0,0,1,3.169,2.483c.034.936.034,1.875,0,2.811a2.588,2.588,0,0,1-3.167,2.482,8.742,8.742,0,0,1,0-7.775" transform="translate(-149.016 -149.34)" fill="#eed0c6"/>
        <path id="Trazado_655702" data-name="Trazado 655702" d="M25.048,223.754a2.615,2.615,0,0,1,2.975,2.655q.026,1.28,0,2.562a2.611,2.611,0,0,1-2.975,2.654,8.5,8.5,0,0,1,0-7.871" transform="translate(-16.072 -149.325)" fill="#eed0c6"/>
        <path id="Trazado_655703" data-name="Trazado 655703" d="M202.289,191.63a12.221,12.221,0,0,0,4.186-6.924,3.577,3.577,0,0,0,.09-.571c.014-.342.169-.471.514-.494.393-.026.442.189.5.49.367,1.868.765,3.73,1.118,5.6.115.607.575,1.381.2,1.783-.288.312-1.146.11-1.751.113-1.542.008-3.085,0-4.861,0" transform="translate(-135.007 -122.56)" fill="#b97b64"/>
        <path id="Trazado_655704" data-name="Trazado 655704" d="M143.568,191.629c-2.258,0-4.294-.008-6.33.006-.419,0-.43-.175-.362-.508q.716-3.486,1.4-6.977c.057-.287.077-.536.484-.509.33.022.483.123.533.473a12.043,12.043,0,0,0,4.27,7.515" transform="translate(-91.329 -122.56)" fill="#b97b64"/>
        <path id="Trazado_655705" data-name="Trazado 655705" d="M139.555,216.18a10.986,10.986,0,0,0-4.815,6.339,13.89,13.89,0,0,0-.327,4.081c-.359.009-.717.024-1.076.025-1.628,0-1.628,0-1.575-1.669.14-4.393,3.727-8.433,7.792-8.775" transform="translate(-87.928 -144.278)" fill="#db8f56"/>
        <path id="Trazado_655706" data-name="Trazado 655706" d="M42.721,68.16a4.526,4.526,0,0,0,.034,2.674,30.255,30.255,0,0,0-2.7,2c-.031-.6-.071-1.05-.076-1.5-.024-2.48-.027-4.959-.067-7.438-.008-.493.062-.674.618-.563a19.679,19.679,0,0,0,2.049.2c.067.656-.162,1.333.144,1.972a5.25,5.25,0,0,0,0,2.65" transform="translate(-26.635 -42.248)" fill="#e7b1a0"/>
        <path id="Trazado_655707" data-name="Trazado 655707" d="M174.707,103.855a6.459,6.459,0,0,1-2.47-1.552c-.621-.745-.656-1.495-.043-2.046a1.3,1.3,0,0,1,1.955.222,2.008,2.008,0,0,0,3.112.021c.694-.706,1.423-.781,2.014-.207a1.343,1.343,0,0,1-.064,1.986,4.96,4.96,0,0,1-3,1.6c-.5.081-1.013.392-1.508-.027" transform="translate(-114.627 -66.68)" fill="#050505"/>
        <path id="Trazado_655708" data-name="Trazado 655708" d="M63.69,104.013c-.219-.25-.539-.237-.824-.313a4.938,4.938,0,0,1-2.621-1.63,1.268,1.268,0,0,1,.144-1.847,1.289,1.289,0,0,1,1.795.057c1.39,1.266,2.023,1.264,3.431-.014a1.309,1.309,0,0,1,1.8-.063,1.3,1.3,0,0,1,.143,1.852,5.769,5.769,0,0,1-2.989,1.787c-.246.3-.577.151-.877.17" transform="translate(-39.986 -66.657)" fill="#050505"/>
        <path id="Trazado_655709" data-name="Trazado 655709" d="M102.764,185.526v8.6a13.743,13.743,0,0,0-4.464-1.188,13.144,13.144,0,0,0,4.464-7.412" transform="translate(-65.605 -123.819)" fill="#74b2e1"/>
        <path id="Trazado_655710" data-name="Trazado 655710" d="M44.967,95.471a9.361,9.361,0,0,0,2.285,5c.441.556.911,1.09,1.368,1.634a.843.843,0,0,1-1.177.121,10.945,10.945,0,0,1-4.3-4.456.708.708,0,0,1,.257-1.092c.547-.365,1.048-.8,1.568-1.2" transform="translate(-28.69 -63.717)" fill="#a5634d"/>
        <path id="Trazado_655711" data-name="Trazado 655711" d="M40.1,220.615a3.676,3.676,0,0,1,2.506,3.173,18.848,18.848,0,0,1,.014,3.622,3.913,3.913,0,0,1-.957,2.147,2.009,2.009,0,0,1-1.015-.067c.984-1.811.655-3.767.634-5.678a4.714,4.714,0,0,0-1-2.672c-.105-.147-.4-.256-.18-.526" transform="translate(-26.71 -147.237)" fill="#c04d49"/>
        <path id="Trazado_655712" data-name="Trazado 655712" d="M22.294,223.776a8.5,8.5,0,0,0,0,7.871,2.61,2.61,0,0,1-2.331-2.737q-.014-1.2,0-2.4a2.6,2.6,0,0,1,2.331-2.733" transform="translate(-13.319 -149.347)" fill="#e7b1a0"/>
        <path id="Trazado_655713" data-name="Trazado 655713" d="M147.893,112.558a2.1,2.1,0,0,1-.183-1.121c0-1.427,0-2.854,0-4.281,0-.264-.089-.555.149-.778a14.014,14.014,0,0,0,2.719,3.5c.265.236.329.407-.03.608a17.863,17.863,0,0,0-2.661,2.07" transform="translate(-98.573 -70.996)" fill="#b97b64"/>
        <path id="Trazado_655714" data-name="Trazado 655714" d="M114.893,145.292a12.362,12.362,0,0,0-2.321,3.789c-.112.311-.318.331-.585.3-.364-.042-.232-.324-.234-.51-.016-1.405,0-2.811-.033-4.216-.012-.465.167-.511.53-.4a10.171,10.171,0,0,1,2.644,1.039" transform="translate(-74.561 -96.241)" fill="#74b2e1"/>
        <path id="Trazado_655715" data-name="Trazado 655715" d="M221.716,223.916a8.742,8.742,0,0,0,0,7.775,2.553,2.553,0,0,1-2.132-2.563q-.028-1.324,0-2.649a2.553,2.553,0,0,1,2.13-2.564" transform="translate(-146.542 -149.441)" fill="#e7b1a0"/>
        <path id="Trazado_655716" data-name="Trazado 655716" d="M223.725,65.351a2.485,2.485,0,0,1,0,4.345Z" transform="translate(-149.313 -43.615)" fill="#eed0c6"/>
        <path id="Trazado_655717" data-name="Trazado 655717" d="M141.062,65.3v4.347a2.482,2.482,0,0,1,0-4.347" transform="translate(-93.289 -43.58)" fill="#e7b1a0"/>
        <path id="Trazado_655718" data-name="Trazado 655718" d="M111.935,65.385c1.852.951,1.5,3.772,0,4.328Z" transform="translate(-74.705 -43.638)" fill="#eed0c6"/>
        <path id="Trazado_655719" data-name="Trazado 655719" d="M29.263,65.28v4.35a2.481,2.481,0,0,1,0-4.35" transform="translate(-18.672 -43.568)" fill="#e7b1a0"/>
        <path id="Trazado_655720" data-name="Trazado 655720" d="M141.077,169.232a2.709,2.709,0,0,1-.006.5c-.047.247.186.618-.152.721-.29.089-.581-.137-.789-.365a1.246,1.246,0,0,1-.286-1.375c.186-.479.562-.88,1.034-.806.436.069.118.6.194.916a1.817,1.817,0,0,1,.005.413" transform="translate(-93.267 -112.052)" fill="#e7b1a0"/>
        <path id="Trazado_655721" data-name="Trazado 655721" d="M111.788,167.7c.8.134,1.224.521,1.307,1.2a1.242,1.242,0,0,1-.769,1.337c-.339.167-.564.2-.545-.309.026-.716.007-1.434.007-2.227" transform="translate(-74.601 -111.926)" fill="#eed0c6"/>
        <path id="Trazado_655722" data-name="Trazado 655722" d="M37.268,169.233a1.779,1.779,0,0,1-.006.413c-.066.269.2.7-.168.786-.345.084-.675-.195-.891-.5a1.249,1.249,0,0,1-.094-1.4c.212-.392.571-.726.974-.645.382.077.12.558.179.854a2.6,2.6,0,0,1,.006.5" transform="translate(-23.985 -112.036)" fill="#e7b1a0"/>
        <path id="Trazado_655723" data-name="Trazado 655723" d="M215.562,169.108c0-.194-.015-.388,0-.58.023-.233-.13-.571.1-.676.295-.131.579.108.8.314a1.3,1.3,0,0,1-.282,2.107c-.37.2-.69.3-.632-.337.025-.274,0-.552,0-.829" transform="translate(-143.848 -111.998)" fill="#eed0c6"/>
        <path id="Trazado_655724" data-name="Trazado 655724" d="M74.585,215.634c-.135.8-.519,1.223-1.2,1.307a1.241,1.241,0,0,1-1.338-.766c-.166-.337-.2-.565.307-.547.716.025,1.434.006,2.229.006" transform="translate(-48.012 -143.909)" fill="#eed0c6"/>
        <path id="Trazado_655725" data-name="Trazado 655725" d="M178.393,215.634c-.135.8-.519,1.223-1.2,1.307a1.241,1.241,0,0,1-1.338-.766c-.166-.337-.2-.565.307-.547.716.025,1.434.006,2.229.006" transform="translate(-117.292 -143.909)" fill="#eed0c6"/>
        <path id="Trazado_655726" data-name="Trazado 655726" d="M171.941,9.591a.33.33,0,0,1-.375.124.35.35,0,0,1,.375-.124" transform="translate(-114.502 -6.395)" fill="#a5634d"/>
        <path id="Trazado_655727" data-name="Trazado 655727" d="M12.458,244.592l.121.029-.03.072-.077-.118-.014.018" transform="translate(-8.314 -163.228)" fill="#5da4d1"/>
        <path id="Trazado_655728" data-name="Trazado 655728" d="M202.289,69.923c0,1.357-.4,1.978-1.3,2-.924.023-1.361-.626-1.36-2.019,0-.193-.007-.385,0-.578a1.328,1.328,0,1,1,2.653.02c.01.192,0,.385,0,.578" transform="translate(-133.231 -45.347)" fill="#050505"/>
        <path id="Trazado_655729" data-name="Trazado 655729" d="M159.782,71.083a5.189,5.189,0,0,1,.035-2.487,1.342,1.342,0,0,1,1.652-.566,1.384,1.384,0,0,1,.86,1.531c-.01.22-.011.441,0,.66a1.365,1.365,0,0,1-.869,1.523,1.308,1.308,0,0,1-1.678-.662" transform="translate(-106.548 -45.333)" fill="#050505"/>
        <path id="Trazado_655730" data-name="Trazado 655730" d="M67.9,195.717a5.15,5.15,0,0,1-3.623-1.757,1.274,1.274,0,0,1,.07-1.853,1.289,1.289,0,0,1,1.9.116,2.01,2.01,0,0,0,3.272,0,1.32,1.32,0,1,1,1.931,1.794,5.161,5.161,0,0,1-3.555,1.7" transform="translate(-42.652 -127.966)" fill="#050505"/>
        <path id="Trazado_655731" data-name="Trazado 655731" d="M55.987,174.729a4.461,4.461,0,0,1,.026-2.322c.756-.787,1.543-.879,2.139-.25a2.711,2.711,0,0,1-.046,2.936c-.617.593-1.423.455-2.119-.364" transform="translate(-37.271 -114.621)" fill="#050505"/>
        <path id="Trazado_655732" data-name="Trazado 655732" d="M90.465,173.617a4.183,4.183,0,0,1-.007.739,1.323,1.323,0,0,1-1.832.987c-.954-.445-.8-1.332-.8-2.15a1.331,1.331,0,0,1,.933-1.4,1.31,1.31,0,0,1,1.707,1.079,4.946,4.946,0,0,1,.006.74h-.005" transform="translate(-58.61 -114.61)" fill="#050505"/>
        <path id="Trazado_655733" data-name="Trazado 655733" d="M171.713,195.707a4.7,4.7,0,0,1-3.58-1.694,1.3,1.3,0,0,1,.035-1.924,1.29,1.29,0,0,1,1.906.139c1.11,1.115,2.126,1.105,3.277-.032a1.316,1.316,0,0,1,1.995,1.717,4.619,4.619,0,0,1-3.634,1.794" transform="translate(-111.941 -127.959)" fill="#050505"/>
        <path id="Trazado_655734" data-name="Trazado 655734" d="M159.795,174.729a4.462,4.462,0,0,1,.026-2.322c.756-.787,1.543-.879,2.139-.25a2.711,2.711,0,0,1-.046,2.936c-.617.593-1.423.455-2.119-.364" transform="translate(-106.552 -114.621)" fill="#050505"/>
        <path id="Trazado_655735" data-name="Trazado 655735" d="M191.556,173.532a5.438,5.438,0,0,1,.108-.892,1.207,1.207,0,0,1,.841-.837,1.256,1.256,0,0,1,1.462.469,3.011,3.011,0,0,1-.019,2.669,1.246,1.246,0,0,1-1.554.4c-.793-.334-.876-1.053-.839-1.809" transform="translate(-127.839 -114.612)" fill="#050505"/>
        <path id="Trazado_655736" data-name="Trazado 655736" d="M87.84,69.932c0-1.355.406-1.972,1.307-1.987.924-.015,1.351.626,1.35,2.029,0,.193.008.386,0,.578a1.328,1.328,0,1,1-2.653-.042c-.009-.192,0-.385,0-.578" transform="translate(-58.623 -45.346)" fill="#050505"/>
        <path id="Trazado_655737" data-name="Trazado 655737" d="M48.023,71.245a5.25,5.25,0,0,1,0-2.65,1.343,1.343,0,0,1,1.646-.568,1.38,1.38,0,0,1,.866,1.522c-.011.246-.011.494,0,.74a1.383,1.383,0,0,1-.865,1.523,1.343,1.343,0,0,1-1.647-.566" transform="translate(-31.937 -45.333)" fill="#050505"/>
      </g>
    </g>
    <path id="Trazado_655738" data-name="Trazado 655738" d="M13.461,0V14.957H0V26.331H13.461V41.721h12.4V26.331H39.28V14.957H25.859V0Z" transform="translate(600 2152.987)" fill="#ffd357"/>
    <path id="Trazado_655739" data-name="Trazado 655739" d="M12.158,350.2H48.6V339.965H12.158Zm0-17.279H48.6V322.686H12.158Z" transform="translate(852.395 1830.302)" fill="#ffd357"/>
    <g id="Grupo_995762" data-name="Grupo 995762" transform="translate(703.362 2061)">
      <g id="Grupo_995761" data-name="Grupo 995761" clip-path="url(#clip-path-2)">
        <path id="Trazado_655740" data-name="Trazado 655740" d="M51.224,35.7c1.122.314,1.395.631,1.324,1.941-.044.8.157,1.1,1,1.23,1.548.24,3.074.638,4.594,1.031.439.114.621.056.809-.354q1.588-3.473,3.231-6.921c.226-.473.112-.677-.345-.821a4.037,4.037,0,0,1-.64-.305,2.4,2.4,0,0,1-1.132-3.447c1.555-2.763,3.112-5.529,4.789-8.218A6.631,6.631,0,0,1,70.62,16.7c.536-.014.776-.012.629-.7a7.128,7.128,0,1,1,10.427,4.8c-.206.115-.414.229-.689.38a7.744,7.744,0,0,1,1.934,3.589,7.178,7.178,0,0,1-.33,4.021c-.972,2.67-1.927,5.347-2.9,8.017-.651,1.788-2.056,2.425-3.738,1.563-.872-.447-1.147-.238-1.5.591-.911,2.121-1.917,4.2-2.928,6.277-.27.555-.234.842.309,1.209a42.393,42.393,0,0,1,6.513,5.519c.817.836.858,1.241.254,2.272a1.642,1.642,0,0,1-2.207-.423A42.059,42.059,0,0,0,63.881,44.87,41.364,41.364,0,0,0,47.96,40.932a42.5,42.5,0,0,0-12.886,1.22c-.5.123-.609.279-.4.776.563,1.3,1.066,2.634,1.6,3.953a3.56,3.56,0,0,1-.26,3.324,25.269,25.269,0,0,1-1.773,2.872,4.447,4.447,0,0,0-.663,4.022,1.218,1.218,0,0,0,.943,1.04c.827.233,1.649.482,2.464.754a1.361,1.361,0,0,0,1.4-.266c1.211-.956,2.455-1.869,3.684-2.8a3.6,3.6,0,0,1,5.009,0c.4.308.789.629,1.192.932a3.6,3.6,0,0,1,1.424,4.156q-.873,3.169-1.735,6.341A3.616,3.616,0,0,1,45.7,69.814q-3.965,1.569-7.92,3.163a3.636,3.636,0,0,1-3.406-.26c-1.171-.7-2.351-1.381-3.527-2.07a1.611,1.611,0,0,0-.992-.327,1.384,1.384,0,0,1-1.53-1.077c.118-1.187.6-1.617,1.779-1.606a3.814,3.814,0,0,1,1.93.6c1.149.679,2.308,1.341,3.446,2.039a1.519,1.519,0,0,0,1.5.142q3.7-1.512,7.435-2.952a1.577,1.577,0,0,0,1.046-1.2c.387-1.522.844-3.026,1.226-4.548.682-2.724,1.024-1.929-1.309-3.836a1.1,1.1,0,0,0-1.583-.023c-1.282,1.011-2.6,1.974-3.894,2.973a3.644,3.644,0,0,1-3.6.635,7,7,0,0,0-1.106-.334C32.27,60.662,30.735,59,30.725,56a2.773,2.773,0,0,0-.048-.353,4.082,4.082,0,0,1,.6-2.806c.774-1.23,1.487-2.5,2.274-3.719a1.528,1.528,0,0,0,.115-1.582c-.492-1.142-1-2.285-1.382-3.465-.263-.808-.587-.946-1.381-.643A42.949,42.949,0,0,0,8.076,63,41.316,41.316,0,0,0,2.7,83.686c-.292,1.021-.789,1.426-1.588,1.295C.349,84.855-.024,84.337,0,83.324q.526-21.468,17.1-35.13c.777-.642,1.6-1.228,2.427-1.806.4-.279.533-.5.288-1-1.1-2.263-2.157-4.547-3.2-6.839-.218-.479-.4-.637-.9-.345a3.633,3.633,0,0,1-1.5.534,2.355,2.355,0,0,1-2.4-1.372c-1.2-3.214-2.543-6.389-3.433-9.706-.632-2.356.044-4.259,1.914-6.5A7.2,7.2,0,0,1,6.176,16.44,7.132,7.132,0,0,1,16.885,8.534a7.037,7.037,0,0,1,3.155,7.384c-.144.659-.028.771.622.785a6.7,6.7,0,0,1,5.871,3.286c1.613,2.625,3.131,5.309,4.648,7.992A2.455,2.455,0,0,1,29.925,31.6c-1.043.512-1.042.512-.54,1.591.962,2.066,1.943,4.125,2.871,6.207.244.548.483.649,1.061.469a32.46,32.46,0,0,1,4.856-1.077c.411-.062.545-.2.543-.612q-.022-3.966,0-7.931c0-.412-.095-.613-.542-.559a5.04,5.04,0,0,1-.712,0A2.425,2.425,0,0,1,34.9,26.951c.234-3.048.45-6.1.807-9.137a6.917,6.917,0,0,1,4.606-5.832c-2.582-3.9-2.354-7.572.61-10.195a7.126,7.126,0,0,1,9.438,0c2.942,2.568,3.172,6.287.61,10.193a7.088,7.088,0,0,1,4.645,6.1c.128,1.151.22,2.305.319,3.458.15,1.745.308,3.49.434,5.237a2.43,2.43,0,0,1-2.731,2.895c-.8-.021-1.174.091-1.1,1.018.07.835-.535,1.259-1.309,1.43-1.127-.352-1.33-.616-1.337-1.763,0-.653-.019-1.306.007-1.958a1.3,1.3,0,0,1,1.329-1.371,10.772,10.772,0,0,1,1.691,0c.638.061.811-.159.747-.788q-.385-3.761-.694-7.53A4.36,4.36,0,0,0,48.3,14.3c-.532,0-1.065.03-1.6.046-1.424-.012-2.851-.078-4.272-.023a4.268,4.268,0,0,0-4.093,3.958c-.2,2.187-.384,4.376-.57,6.563-.058.679-.385,1.567-.078,1.987.379.518,1.322.147,2.019.176,1.21.051,1.671.473,1.675,1.675.008,2.494-.01,4.989.011,7.483.006.7-.323,1.64.156,2.04.392.327,1.3,0,1.976.033.647.036.785-.233.779-.829-.028-2.791-.015-5.583-.009-8.373a5.2,5.2,0,0,1,.085-1.15,1.179,1.179,0,0,1,1.153-.941,1.2,1.2,0,0,1,1.252.67,3.648,3.648,0,0,1,.195.84c0,2.513-.006,5.026.013,7.539.005.7-.294,1.575.134,2.063.4.461,1.3.076,1.954.241.722.182.84-.115.824-.761-.032-1.26.2-1.539,1.318-1.832M10.3,11.113a4.389,4.389,0,0,0,3.789,7.714,4.312,4.312,0,0,0,3.364-3.47,4.488,4.488,0,0,0-2.192-4.677,4.284,4.284,0,0,0-4.961.433M44.459,2.867a4.365,4.365,0,0,0-3.28,4.218,4.473,4.473,0,0,0,8.174,2.523,4.465,4.465,0,0,0-.045-5.016,4.39,4.39,0,0,0-4.85-1.725m34.7,7.385a4.4,4.4,0,0,0-3.782,7.681,4.337,4.337,0,0,0,5.02.517A4.442,4.442,0,0,0,82.633,13.9a4.276,4.276,0,0,0-3.479-3.646m-8.594,24q-1.656,3.49-3.31,6.981c-.87,1.844-.849,1.819.9,2.881.6.363.848.307,1.141-.343,1.18-2.621,2.409-5.22,3.629-7.823.537-1.144,1.149-1.367,2.276-.858a12.212,12.212,0,0,1,1.283.612c.538.324.731.141.919-.4.707-2.043,1.369-4.11,2.222-6.093,1.739-4.045.372-6.308-3.415-7.689a.359.359,0,0,0-.088-.01c-1.119-.54-2.228-1.1-3.36-1.615a4.354,4.354,0,0,0-6.007,1.924q-1.637,2.8-3.253,5.616c-1,1.739-1,1.74.837,2.6,1.236.575,1.454,1.16.876,2.406-1.023,2.2-2.056,4.4-3.08,6.6-.274.589-.855,1.293-.706,1.754.181.56,1.16.543,1.745.872.545.307.8.173,1.058-.4,1.2-2.609,2.463-5.191,3.684-7.791.348-.742.811-1.267,1.706-1.064.763.173,1.04.755.942,1.84M16.85,20.734c-1.052.471-2.109.928-3.153,1.416a4.352,4.352,0,0,0-2.447,5.874c.7,1.98,1.424,3.954,2.145,5.928.233.638.322,1.574.778,1.821.546.3,1.252-.41,1.887-.684,1.149-.495,1.755-.3,2.288.837,1.045,2.224,2.074,4.456,3.117,6.681.288.614.47,1.535.946,1.735.5.213,1.134-.593,1.768-.827.615-.227.694-.529.4-1.13-1.236-2.559-2.421-5.144-3.62-7.721-.474-1.019-.36-1.686.345-2.11s1.336-.2,2.005.7q1.55,3.389,3.1,6.777c.284.617.455,1.506.94,1.752.555.282,1.253-.453,1.933-.6.728-.162.652-.5.383-1.062-1.252-2.616-2.468-5.25-3.68-7.885a1.366,1.366,0,0,1,.742-2.1c.5-.25,1.007-.508,1.53-.71.47-.181.459-.4.228-.791-1.4-2.373-2.761-4.767-4.161-7.139a4.236,4.236,0,0,0-2.981-2.047c-1.727-.338-3.084.563-4.5,1.287" transform="translate(0 0)" fill="#030303"/>
        <path id="Trazado_655741" data-name="Trazado 655741" d="M68.5,142.762a1.384,1.384,0,0,0,1.53,1.077,1.611,1.611,0,0,1,.992.327c1.176.689,2.356,1.372,3.527,2.07a3.636,3.636,0,0,0,3.406.259q3.954-1.6,7.92-3.163a3.614,3.614,0,0,0,2.258-2.562q.864-3.171,1.735-6.34a3.6,3.6,0,0,0-1.424-4.155c-.4-.3-.793-.624-1.192-.933a3.6,3.6,0,0,0-5.009,0c-1.229.933-2.473,1.847-3.684,2.8a1.361,1.361,0,0,1-1.4.266c-.814-.272-1.637-.521-2.463-.754a1.219,1.219,0,0,1-.944-1.04,4.448,4.448,0,0,1,.663-4.022,25.27,25.27,0,0,0,1.773-2.872,3.559,3.559,0,0,0,.26-3.324c-.529-1.319-1.032-2.649-1.6-3.953-.214-.5-.1-.653.4-.776a42.513,42.513,0,0,1,12.886-1.22,1.827,1.827,0,0,0,.313.147,41.777,41.777,0,0,1,10.536,4.4,44.243,44.243,0,0,1,11.386,9.522,41.593,41.593,0,0,1,5.126,7.324,42.584,42.584,0,0,1,5.452,21.323c-.415.011-.831.032-1.246.032q-26.291,0-52.581.006a2.351,2.351,0,0,0-.577-1.175c-.929-1.186-1.841-2.387-2.78-3.565a2.819,2.819,0,0,1-.618-1.522c-.163-1.5-.386-2.987-.6-4.478-.139-.973.01-1.2.966-1.407,1.137-.242,1.409-.565,1.463-1.739a21.9,21.9,0,0,0,3.519-.553m36.836-8.437c-1.4.239-3.116.59-4.848.811a4.06,4.06,0,0,0-3.774,3.227,3.575,3.575,0,0,1-1.307,1.944c-.994.8-1.95,1.647-2.885,2.516a3.475,3.475,0,0,0,.535,5.623c.778.489,1.576.944,2.371,1.4a3.531,3.531,0,0,0,4.018-.129c.884-.6,1.784-1.174,2.644-1.805a1.533,1.533,0,0,1,1.572-.207c2.345.827,4.718,1.576,7.057,2.418a3.735,3.735,0,0,0,4.538-1.2c.533-.638,1.09-1.257,1.669-1.852,1.121-1.151,1.759-2.495,1.057-4.027-.759-1.657-1.756-3.2-3.829-3.481-.94-.128-1.878-.279-2.821-.376a1.519,1.519,0,0,1-1.268-.832c-.468-.824-.966-1.633-1.487-2.425a3.545,3.545,0,0,0-3.241-1.609" transform="translate(-40.177 -73.517)" fill="#98c8f5"/>
        <path id="Trazado_655742" data-name="Trazado 655742" d="M33.18,147.126a21.855,21.855,0,0,1-3.519.553,1.468,1.468,0,0,0-1.26-.972,3.653,3.653,0,0,0-3.889,4.045c.166,1.35.425,2.691.524,4.045a7.307,7.307,0,0,0,1.956,4.538c.613.675,1.114,1.452,1.666,2.183-1.513.016-3.025.043-4.538.044q-8.28.01-16.56.006a41.314,41.314,0,0,1,5.375-20.685A42.951,42.951,0,0,1,35.767,121.31c.795-.3,1.118-.165,1.382.643.385,1.18.891,2.323,1.382,3.465A1.528,1.528,0,0,1,38.415,127c-.787,1.221-1.5,2.489-2.274,3.719a4.082,4.082,0,0,0-.6,2.806,2.775,2.775,0,0,1,.048.353c.01,3,1.545,4.664,4.469,5.136a7.029,7.029,0,0,1,1.106.334,3.644,3.644,0,0,0,3.6-.635c1.292-1,2.611-1.963,3.894-2.973a1.1,1.1,0,0,1,1.583.023c2.333,1.908,1.991,1.112,1.309,3.836-.382,1.523-.839,3.027-1.226,4.548a1.576,1.576,0,0,1-1.046,1.2q-3.731,1.441-7.435,2.952a1.519,1.519,0,0,1-1.5-.142c-1.138-.7-2.3-1.359-3.446-2.039a3.813,3.813,0,0,0-1.93-.6c-1.182-.01-1.661.419-1.779,1.606M26.8,131.77a1.428,1.428,0,0,0-1.676.85,1.229,1.229,0,0,0,.427,1.506,2.468,2.468,0,0,0,2.529-.006,1.253,1.253,0,0,0,.372-1.6,1.448,1.448,0,0,0-1.653-.752m3.39,4.626c-1.347-.005-2.1.766-1.742,1.777a1.914,1.914,0,0,0,2.382.862,1.3,1.3,0,0,0,1.1-1.409c-.031-.8-.664-1.226-1.74-1.231M18.225,151.028c-1.343,0-2.106.795-1.7,1.8.343.85,1.08.9,1.858.886a1.441,1.441,0,0,0,1.541-.952c.346-.984-.391-1.729-1.7-1.73" transform="translate(-4.86 -77.881)" fill="#93eec4"/>
        <path id="Trazado_655743" data-name="Trazado 655743" d="M167.073,157.3a42.587,42.587,0,0,0-5.452-21.323,41.593,41.593,0,0,0-5.126-7.325,44.237,44.237,0,0,0-11.386-9.522,41.758,41.758,0,0,0-10.536-4.4,1.827,1.827,0,0,1-.313-.146,41.364,41.364,0,0,1,15.921,3.938,42.059,42.059,0,0,1,12.508,8.942,1.643,1.643,0,0,0,2.207.423c.888.819,1.549,1.834,2.35,2.727-.731.914-.745,1.245-.1,2.211.491.741,1,1.47,1.462,2.229a42.19,42.19,0,0,1,6.275,22.28l-7.806-.037" transform="translate(-86.301 -73.654)" fill="#76b7f4"/>
        <path id="Trazado_655744" data-name="Trazado 655744" d="M135.263,61.429c-1.113.293-1.35.572-1.318,1.832.016.646-.1.943-.824.761-.653-.165-1.549.22-1.954-.241-.429-.488-.129-1.36-.134-2.063-.019-2.513-.01-5.026-.012-7.539,2.472-.015,2.312-.544,2.18-2.844-.1-1.672-.408-3.334-.471-5.005-.086-2.289-.387-4.471-1.988-6.261.533-.016,1.066-.05,1.6-.046a4.36,4.36,0,0,1,4.672,4.41q.309,3.768.694,7.53c.064.629-.108.849-.747.788a10.767,10.767,0,0,0-1.69,0,1.3,1.3,0,0,0-1.33,1.371c-.026.652-.011,1.305-.007,1.958.008,1.147.211,1.411,1.337,1.763q0,1.793-.006,3.586" transform="translate(-84.038 -25.726)" fill="#eb9a43"/>
        <path id="Trazado_655745" data-name="Trazado 655745" d="M233.215,185.839a42.184,42.184,0,0,0-6.275-22.28c-.46-.759-.971-1.489-1.461-2.229-.64-.966-.627-1.3.1-2.211a1.485,1.485,0,0,1,2.058.617,45.34,45.34,0,0,1,8.272,25.749c.015,1-.352,1.529-1.117,1.652-.8.129-1.3-.28-1.581-1.3" transform="translate(-144.636 -102.156)" fill="#030303"/>
        <path id="Trazado_655746" data-name="Trazado 655746" d="M59.114,207.469c-.552-.731-1.052-1.508-1.666-2.183a7.307,7.307,0,0,1-1.956-4.538c-.1-1.354-.358-2.7-.524-4.045a3.653,3.653,0,0,1,3.889-4.045,1.468,1.468,0,0,1,1.26.972c-.053,1.173-.325,1.5-1.463,1.739-.956.2-1.1.435-.966,1.407.213,1.491.436,2.981.6,4.478a2.821,2.821,0,0,0,.618,1.522c.939,1.179,1.851,2.379,2.78,3.565a2.351,2.351,0,0,1,.577,1.175A1.375,1.375,0,0,1,61.21,208.8a1.433,1.433,0,0,1-1.578-.724c-.154-.215-.345-.4-.519-.6" transform="translate(-35.315 -123.833)" fill="#020404"/>
        <path id="Trazado_655747" data-name="Trazado 655747" d="M42.92,70.566c-.669-.9-1.3-1.124-2.005-.7s-.819,1.09-.345,2.11c1.2,2.577,2.384,5.161,3.62,7.721.29.6.211.9-.4,1.13-.634.234-1.265,1.039-1.769.827-.475-.2-.657-1.121-.946-1.735-1.043-2.225-2.072-4.457-3.117-6.681-.532-1.133-1.139-1.332-2.288-.837-.635.274-1.341.981-1.887.684-.455-.248-.545-1.184-.778-1.822-.721-1.974-1.44-3.949-2.145-5.928A4.352,4.352,0,0,1,33.3,59.458c1.043-.488,2.1-.945,3.153-1.416A4.838,4.838,0,0,1,39.7,60.36c1.6,2.553,3.062,5.2,4.563,7.814.522.91.4,1.368-.472,1.943a8.632,8.632,0,0,1-.869.449" transform="translate(-19.607 -37.308)" fill="#4394ef"/>
        <path id="Trazado_655748" data-name="Trazado 655748" d="M114.289,40.073c1.6,1.79,1.9,3.972,1.988,6.261.063,1.672.375,3.333.471,5.005.132,2.3.292,2.829-2.18,2.844a3.648,3.648,0,0,0-.194-.84,1.2,1.2,0,0,0-1.253-.67,1.18,1.18,0,0,0-1.153.942,5.174,5.174,0,0,0-.085,1.149c-.007,2.791-.019,5.583.008,8.374.006.6-.132.865-.779.829-.675-.038-1.585.294-1.976-.033-.479-.4-.15-1.338-.156-2.04-.022-2.494,0-4.989-.011-7.483,0-1.2-.465-1.625-1.675-1.675-.7-.029-1.641.342-2.019-.176-.307-.42.02-1.308.079-1.987.186-2.188.372-4.377.57-6.563a4.268,4.268,0,0,1,4.093-3.958c1.422-.055,2.848.011,4.273.023" transform="translate(-67.586 -25.729)" fill="#f0b45f"/>
        <path id="Trazado_655749" data-name="Trazado 655749" d="M181.047,69.116c.1-1.085-.178-1.667-.942-1.84-.9-.2-1.357.322-1.706,1.064-1.222,2.6-2.482,5.182-3.684,7.791-.261.568-.513.7-1.058.4-.585-.329-1.564-.312-1.745-.872-.149-.461.433-1.165.706-1.754,1.023-2.2,2.056-4.4,3.08-6.6.579-1.246.361-1.831-.876-2.406-1.84-.856-1.842-.857-.837-2.6,1.082-1.873,2.161-3.748,3.253-5.616a4.354,4.354,0,0,1,6.006-1.924c1.132.512,2.24,1.075,3.36,1.615.209,1.3.6,2.578.1,3.922-1.017,2.714-1.941,5.464-2.959,8.178-.571,1.522-1.4,1.687-2.7.645" transform="translate(-110.487 -34.866)" fill="#e64d81"/>
        <path id="Trazado_655750" data-name="Trazado 655750" d="M190.558,72.947c1.3,1.042,2.127.877,2.7-.645,1.018-2.714,1.942-5.464,2.959-8.178.5-1.344.11-2.62-.1-3.922a.356.356,0,0,1,.088.01c3.787,1.381,5.154,3.644,3.415,7.689-.853,1.983-1.515,4.05-2.222,6.093-.188.544-.381.728-.919.4a12.209,12.209,0,0,0-1.283-.612c-1.127-.51-1.739-.286-2.276.858-1.22,2.6-2.449,5.2-3.629,7.823-.293.65-.542.706-1.141.343-1.751-1.062-1.772-1.037-.9-2.881q1.649-3.494,3.311-6.981" transform="translate(-119.998 -38.697)" fill="#e43867"/>
        <path id="Trazado_655751" data-name="Trazado 655751" d="M53.635,68.118a8.627,8.627,0,0,0,.869-.449c.871-.575.994-1.033.472-1.943-1.5-2.617-2.96-5.261-4.563-7.814a4.838,4.838,0,0,0-3.24-2.318c1.414-.725,2.771-1.625,4.5-1.287a4.236,4.236,0,0,1,2.981,2.047c1.4,2.372,2.763,4.766,4.161,7.139.231.393.242.609-.228.791-.523.2-1.027.459-1.53.71a1.366,1.366,0,0,0-.742,2.1c1.212,2.635,2.428,5.269,3.68,7.885.268.561.345.9-.383,1.063-.68.151-1.378.886-1.933.6-.485-.247-.655-1.136-.94-1.753q-1.56-3.385-3.1-6.777" transform="translate(-30.322 -34.86)" fill="#3984ec"/>
        <path id="Trazado_655752" data-name="Trazado 655752" d="M208.08,36.116a4.4,4.4,0,0,1,3.782-7.681c.1.43.189.861.287,1.29.6,2.614-1.5,5.906-4.069,6.391" transform="translate(-132.707 -18.182)" fill="#f4cdc0"/>
        <path id="Trazado_655753" data-name="Trazado 655753" d="M118.55,16.564a4.419,4.419,0,0,1,.008-8.537,5.59,5.59,0,0,1-.008,8.537" transform="translate(-74.099 -5.16)" fill="#f4cdc0"/>
        <path id="Trazado_655754" data-name="Trazado 655754" d="M29.531,38.825a4.389,4.389,0,0,1-3.789-7.714,5.815,5.815,0,0,1,3.965,6.047c-.066.555-.118,1.111-.176,1.667" transform="translate(-15.445 -19.998)" fill="#ba7260"/>
        <path id="Trazado_655755" data-name="Trazado 655755" d="M211,36.383c2.568-.485,4.665-3.777,4.069-6.391-.1-.429-.191-.86-.287-1.29a4.275,4.275,0,0,1,3.479,3.646A4.442,4.442,0,0,1,216.02,36.9a4.337,4.337,0,0,1-5.02-.517" transform="translate(-135.627 -18.449)" fill="#eeb1a1"/>
        <path id="Trazado_655756" data-name="Trazado 655756" d="M32.615,36.977c.058-.556.11-1.112.176-1.667a5.815,5.815,0,0,0-3.965-6.047,4.284,4.284,0,0,1,4.961-.433,4.488,4.488,0,0,1,2.192,4.677,4.311,4.311,0,0,1-3.364,3.47" transform="translate(-18.529 -18.15)" fill="#ac6152"/>
        <path id="Trazado_655757" data-name="Trazado 655757" d="M124.437,16.277a5.59,5.59,0,0,0,.008-8.537,4.39,4.39,0,0,1,4.85,1.725,4.465,4.465,0,0,1,.045,5.016,4.4,4.4,0,0,1-4.9,1.8" transform="translate(-79.986 -4.873)" fill="#eeb1a1"/>
        <path id="Trazado_655758" data-name="Trazado 655758" d="M157.193,170.226a3.545,3.545,0,0,1,3.241,1.609c.521.792,1.019,1.6,1.487,2.425a1.519,1.519,0,0,0,1.268.832c.943.1,1.881.249,2.821.377,2.072.282,3.07,1.824,3.829,3.481.7,1.532.064,2.876-1.056,4.027-.579.6-1.136,1.215-1.669,1.852a3.735,3.735,0,0,1-4.538,1.2c-2.339-.842-4.712-1.591-7.057-2.418a1.534,1.534,0,0,0-1.572.207c-.86.631-1.76,1.208-2.644,1.805a3.531,3.531,0,0,1-4.018.129c-.795-.46-1.593-.916-2.371-1.4a3.475,3.475,0,0,1-.535-5.623c.935-.868,1.891-1.717,2.885-2.516a3.576,3.576,0,0,0,1.307-1.944,4.06,4.06,0,0,1,3.774-3.227c1.732-.22,3.448-.572,4.848-.811m.153,2.674c-1.636.289-3.267.6-4.909.853a1.31,1.31,0,0,0-1.225,1.083,6.523,6.523,0,0,1-2.574,3.723c-.8.609-1.536,1.311-2.282,1.991-.7.641-.663,1.128.129,1.624.678.424,1.389.8,2.066,1.224a1.111,1.111,0,0,0,1.388-.078c.818-.59,1.684-1.113,2.5-1.711a3.964,3.964,0,0,1,3.95-.529c2.372.846,4.77,1.617,7.149,2.443a1.108,1.108,0,0,0,1.367-.244c.725-.825,1.467-1.636,2.205-2.45a.948.948,0,0,0,.074-1.288,2.763,2.763,0,0,0-2.394-1.56c-.618-.006-1.234-.164-1.854-.224a3.949,3.949,0,0,1-3.3-2.105c-.414-.753-.891-1.471-1.335-2.208a.959.959,0,0,0-.951-.543" transform="translate(-92.038 -109.419)" fill="#020404"/>
        <path id="Trazado_655759" data-name="Trazado 655759" d="M58.208,150.831a1.448,1.448,0,0,1,1.653.752,1.252,1.252,0,0,1-.372,1.6,2.467,2.467,0,0,1-2.529.006,1.228,1.228,0,0,1-.427-1.506,1.428,1.428,0,0,1,1.676-.85" transform="translate(-36.271 -96.942)" fill="#020404"/>
        <path id="Trazado_655760" data-name="Trazado 655760" d="M67.606,163.807c1.076,0,1.709.43,1.74,1.231a1.3,1.3,0,0,1-1.1,1.409,1.914,1.914,0,0,1-2.382-.862c-.361-1.011.395-1.783,1.743-1.777" transform="translate(-42.278 -105.292)" fill="#020404"/>
        <path id="Trazado_655761" data-name="Trazado 655761" d="M34.159,204.771c1.307,0,2.044.747,1.7,1.73a1.441,1.441,0,0,1-1.541.952c-.778.01-1.515-.036-1.858-.886-.4-1,.358-1.8,1.7-1.8" transform="translate(-20.794 -131.624)" fill="#020404"/>
        <path id="Trazado_655762" data-name="Trazado 655762" d="M162.156,177.7a.959.959,0,0,1,.951.543c.444.737.921,1.455,1.335,2.208a3.949,3.949,0,0,0,3.3,2.105c.619.06,1.235.218,1.854.224a2.763,2.763,0,0,1,2.394,1.56.948.948,0,0,1-.074,1.288c-.738.814-1.48,1.625-2.205,2.45a1.108,1.108,0,0,1-1.367.244c-2.379-.826-4.777-1.6-7.149-2.443a3.964,3.964,0,0,0-3.95.529c-.812.6-1.678,1.122-2.5,1.711a1.111,1.111,0,0,1-1.388.078c-.677-.427-1.387-.8-2.066-1.224-.793-.5-.832-.983-.129-1.624.746-.68,1.479-1.382,2.282-1.991a6.523,6.523,0,0,0,2.574-3.723,1.31,1.31,0,0,1,1.225-1.083c1.642-.248,3.273-.564,4.909-.853" transform="translate(-96.847 -114.223)" fill="#93eec4"/>
      </g>
    </g>
    <g id="Grupo_995764" data-name="Grupo 995764" transform="translate(960.064 2061)">
      <g id="Grupo_995763" data-name="Grupo 995763" clip-path="url(#clip-path-3)">
        <path id="Trazado_655763" data-name="Trazado 655763" d="M98.757,142.2c.222.834.405,1.483.566,2.139.415,1.692-.322,2.711-2.078,2.829a15.4,15.4,0,0,1-14.433-7.675c-.125-.212-.243-.427-.407-.715C77.649,147.2,70.636,152,60.95,152.014s-16.728-4.763-21.486-13.144c-.321.107-.356.469-.513.719a15.206,15.206,0,0,1-14.3,7.577c-1.863-.067-2.6-1.131-2.139-2.937.158-.62.331-1.235.519-1.932a9.361,9.361,0,0,0-2.223.479,1.961,1.961,0,0,1-2.683-1.813c-.963-7.3,4.423-14.735,11.865-16.38a14.482,14.482,0,0,1,6.283-.1c.716.157.743-.11.73-.66a26.233,26.233,0,0,1,1.274-9.111,23.909,23.909,0,0,1,46.374,5.035,40.245,40.245,0,0,1,.152,4.186c.007.49.064.668.65.568a15.3,15.3,0,0,1,18.073,12.4,12.383,12.383,0,0,1,.17,3.977,1.959,1.959,0,0,1-2.706,1.883c-.685-.17-1.369-.345-2.236-.564M40.906,128.28c.033.585.064,1.332.121,2.077a9.347,9.347,0,0,0,.161,1.059c1.57,8.051,6.236,13.55,14.061,15.872,7.966,2.365,14.976.213,20.617-5.9,4.045-4.384,5.336-9.754,5.056-15.594-.028-.589-.371-.576-.772-.612a30.563,30.563,0,0,1-18.508-8.2c-.508-.469-.744-.345-1.149.06a27.372,27.372,0,0,1-5.134,4.008,28.621,28.621,0,0,1-13.613,4.212c-.66.034-.92.225-.853.911.063.644.014,1.3.014,2.111M61.09,102.43a19.831,19.831,0,0,0-15.5,7.176,19.5,19.5,0,0,0-4.554,10.576c-.149,1.239-.124,1.221,1.1,1.137a23.538,23.538,0,0,0,8.529-2.2,24.944,24.944,0,0,0,13.59-15.492c.244-.753.056-.988-.656-1.028-.875-.049-1.75-.118-2.507-.171m19.753,18.38a20.145,20.145,0,0,0-11.865-16.68c-.5-.23-.754-.283-.945.388a27.265,27.265,0,0,1-4.086,8.46c-.3.419-.251.659.115.959.728.6,1.412,1.25,2.157,1.824a26.947,26.947,0,0,0,13.548,5.477c.455.054,1.235.382,1.076-.428M84.674,132a11.049,11.049,0,0,0,2.422,6.875,11.342,11.342,0,0,0,6.715,4.181c1.077.236,1.146.157.876-.88-.179-.69-.375-1.375-.543-2.068a1.958,1.958,0,0,1,2.529-2.526c.755.188,1.511.377,2.252.611s.887-.044.764-.737a11.389,11.389,0,0,0-11.252-9.331c-3.729.09-3.548-.062-3.763,3.874m-47.543-.361a18.728,18.728,0,0,0-.186-2.052,1.3,1.3,0,0,0-1.263-1.291,11.562,11.562,0,0,0-13.557,9.181c-.156.732.071.936.784.712.742-.232,1.5-.423,2.252-.61a1.955,1.955,0,0,1,2.532,2.458c-.158.695-.367,1.377-.547,2.067-.292,1.115-.229,1.182.882.952a11.493,11.493,0,0,0,9.1-11.415" transform="translate(-10.975 -60.027)" fill="#020203"/>
        <path id="Trazado_655764" data-name="Trazado 655764" d="M1.934,24.853C.727,24.6.1,24.062.017,23.107a2.033,2.033,0,0,1,1.37-2.117Q21.968,10.9,42.536.79a6.222,6.222,0,0,1,6.948.587.6.6,0,0,0,.9,0A6.207,6.207,0,0,1,57.329.789q6.014,2.956,12.034,5.9c1.315.647,1.615,1.361,1.253,2.857-1.022,1.142-1.683,1.279-3.072.6Q61.649,7.263,55.76,4.366a2.748,2.748,0,0,0-2.049-.39,2.32,2.32,0,0,0-1.794,1.967,2.292,2.292,0,0,0,1.229,2.447q4.882,2.829,9.771,5.646,7.162,4.134,14.325,8.264a2.3,2.3,0,0,1,1.367,1.544,1.859,1.859,0,0,1-.748,1.977,1.981,1.981,0,0,1-2.288.028q-5.184-2.989-10.364-5.983a2.983,2.983,0,0,0-2.219-.5,2.6,2.6,0,0,0-2.037,2.224,2.564,2.564,0,0,0,1.4,2.671q4.46,2.587,8.932,5.153A2.721,2.721,0,0,1,72.632,31.1a11.038,11.038,0,0,0,2.938,4.972,16.333,16.333,0,0,0,12.5,4.369c3.408-.145,6.569-1.461,9.851-2.212.267.293.682.119.992.334a1.939,1.939,0,0,1,.947,1.8,1.713,1.713,0,0,1-1.18,1.645C93.1,43.68,87.522,45.381,81.6,43.693c-5.773-1.645-10.27-4.751-12.41-10.613a1.623,1.623,0,0,0-.849-.866c-2.444-1.409-4.83-2.933-7.348-4.2a6.684,6.684,0,0,1-1.375-11.374c-.74-.43-1.455-.829-2.155-1.254-2.411-1.462-4.956-2.7-7.266-4.329a.37.37,0,0,0-.508-.014c-2.985,2.079-6.283,3.634-9.414,5.627a6.861,6.861,0,0,1,2.468,4.146,6.4,6.4,0,0,1-3.12,6.714c-2.7,1.615-5.436,3.164-8.162,4.733a1.506,1.506,0,0,0-.774.8c-2.147,5.857-6.62,9.018-12.411,10.61A22.776,22.776,0,0,1,5.5,43.228C4.355,42.886,3.19,42.6,2.03,42.3.656,41.937.02,41.311,0,40.283s.555-1.631,1.948-2.051c2.037.54,4.076,1.072,6.111,1.62a17.337,17.337,0,0,0,8.959.116c4.99-1.284,8.789-3.941,10.3-9.154a2.416,2.416,0,0,1,1.271-1.4c2.9-1.66,5.784-3.346,8.683-5.008a3.084,3.084,0,0,0,1.507-1.586,2.6,2.6,0,0,0-.722-2.843A2.57,2.57,0,0,0,34.9,19.73c-2.425,1.38-4.833,2.789-7.249,4.183-1.18.681-2.35,1.381-3.55,2.025a1.935,1.935,0,0,1-2.63-2.654,2.828,2.828,0,0,1,1.257-1.04q8.765-5.059,17.532-10.117c2.164-1.248,4.33-2.491,6.487-3.752a2.282,2.282,0,0,0,1.2-2.463,2.318,2.318,0,0,0-1.819-1.945,2.929,2.929,0,0,0-2.132.461Q23.783,14.349,3.57,24.262a5.075,5.075,0,0,1-1.636.591" transform="translate(0 0)" fill="#030303"/>
        <path id="Trazado_655765" data-name="Trazado 655765" d="M178.792,44.307c-3.281.75-6.443,2.067-9.851,2.212a16.333,16.333,0,0,1-12.5-4.369,11.04,11.04,0,0,1-2.938-4.972,2.72,2.72,0,0,0-1.346-1.689q-4.478-2.557-8.932-5.153a2.564,2.564,0,0,1-1.4-2.671,2.6,2.6,0,0,1,2.037-2.224,2.983,2.983,0,0,1,2.219.5q5.177,3,10.364,5.983a1.981,1.981,0,0,0,2.288-.028,1.859,1.859,0,0,0,.748-1.977,2.3,2.3,0,0,0-1.367-1.544q-7.166-4.128-14.326-8.264-4.886-2.821-9.77-5.646a2.292,2.292,0,0,1-1.229-2.447,2.321,2.321,0,0,1,1.794-1.967,2.75,2.75,0,0,1,2.049.391q5.89,2.894,11.784,5.781c1.389.679,2.05.542,3.072-.6l4.369,2.025c-.353,1.371-.032,2.246.989,2.693.972.426,1.835.088,2.6-1.019a26.962,26.962,0,0,0,4.3,2.164c-.435,1.492-.124,2.2,1.294,2.9q6.19,3.044,12.383,6.081a4.713,4.713,0,0,0,1.372.464q0,6.688-.009,13.378" transform="translate(-80.875 -6.075)" fill="#ebc8a9"/>
        <path id="Trazado_655766" data-name="Trazado 655766" d="M4.947,30.931a5.075,5.075,0,0,0,1.636-.591q20.211-9.918,40.424-19.833a2.929,2.929,0,0,1,2.132-.461,2.318,2.318,0,0,1,1.819,1.945,2.282,2.282,0,0,1-1.2,2.463c-2.156,1.261-4.323,2.5-6.487,3.752Q34.507,23.264,25.74,28.322a2.828,2.828,0,0,0-1.257,1.04,1.935,1.935,0,0,0,2.63,2.654c1.2-.644,2.37-1.344,3.55-2.025,2.416-1.394,4.824-2.8,7.249-4.183a2.57,2.57,0,0,1,3.164.246A2.6,2.6,0,0,1,41.8,28.9a3.084,3.084,0,0,1-1.507,1.586c-2.9,1.663-5.783,3.348-8.683,5.008a2.416,2.416,0,0,0-1.271,1.4c-1.514,5.213-5.314,7.87-10.3,9.154a17.337,17.337,0,0,1-8.959-.116C9.039,45.382,7,44.85,4.963,44.31q-.008-6.69-.016-13.379" transform="translate(-3.014 -6.078)" fill="#ebc8a8"/>
        <path id="Trazado_655767" data-name="Trazado 655767" d="M226.817,47.313a4.712,4.712,0,0,1-1.372-.464q-6.188-3.048-12.383-6.081c-1.418-.7-1.729-1.407-1.294-2.9a2.048,2.048,0,0,1,2.977-.616q6.28,3.065,12.552,6.147c1.1.542,1.566,1.26,1.45,2.175-.12.951-.717,1.489-1.929,1.738" transform="translate(-128.892 -22.459)" fill="#040303"/>
        <path id="Trazado_655768" data-name="Trazado 655768" d="M195.238,29.661c-.769,1.107-1.631,1.445-2.6,1.019-1.02-.447-1.342-1.323-.989-2.693.847-1,1.6-1.262,2.522-.859.94.411,1.249,1.143,1.07,2.533" transform="translate(-116.66 -16.415)" fill="#060505"/>
        <path id="Trazado_655769" data-name="Trazado 655769" d="M76.545,156.549c0-.812.05-1.467-.014-2.111-.067-.686.193-.877.853-.911A28.625,28.625,0,0,0,91,149.314a27.366,27.366,0,0,0,5.134-4.008c.406-.406.641-.53,1.149-.06a30.566,30.566,0,0,0,18.508,8.2c.4.036.744.023.772.612.281,5.84-1.011,11.211-5.055,15.595-5.641,6.113-12.652,8.265-20.617,5.9-7.826-2.323-12.491-7.821-14.061-15.872a9.376,9.376,0,0,1-.161-1.059c-.057-.745-.088-1.492-.121-2.077M96.5,169.971a7.84,7.84,0,0,0,5.343-2.115,1.95,1.95,0,1,0-2.565-2.93c-1.941,1.52-3.533,1.521-5.441.005a1.954,1.954,0,1,0-2.519,2.975,7.826,7.826,0,0,0,5.182,2.064m-6.439-9.279a1.931,1.931,0,0,0,1.982-1.945,1.992,1.992,0,0,0-1.926-1.928,1.956,1.956,0,0,0-1.966,1.97,1.9,1.9,0,0,0,1.91,1.9m12.949,0a1.9,1.9,0,0,0,1.936-1.876,1.959,1.959,0,0,0-1.939-2,1.989,1.989,0,0,0-1.952,1.9,1.931,1.931,0,0,0,1.955,1.971" transform="translate(-46.614 -88.296)" fill="#f7dbd4"/>
        <path id="Trazado_655770" data-name="Trazado 655770" d="M96.865,108.494c.757.052,1.631.122,2.507.171.712.04.9.275.656,1.028a24.945,24.945,0,0,1-13.59,15.493,23.538,23.538,0,0,1-8.529,2.2c-1.225.084-1.25.1-1.1-1.137a19.5,19.5,0,0,1,4.554-10.576,19.83,19.83,0,0,1,15.5-7.176" transform="translate(-46.75 -66.091)" fill="#7390a7"/>
        <path id="Trazado_655771" data-name="Trazado 655771" d="M152.128,129.282c.158.81-.622.482-1.076.428a26.95,26.95,0,0,1-13.548-5.476c-.745-.575-1.428-1.228-2.157-1.825-.366-.3-.415-.541-.115-.96a27.26,27.26,0,0,0,4.086-8.46c.191-.67.45-.617.945-.387a20.148,20.148,0,0,1,11.866,16.68" transform="translate(-82.26 -68.499)" fill="#738fa7"/>
        <path id="Trazado_655772" data-name="Trazado 655772" d="M188.571,178.123c.215-3.936.034-3.784,3.763-3.874a11.389,11.389,0,0,1,11.252,9.331c.122.693-.009.975-.764.737s-1.5-.422-2.252-.611a1.958,1.958,0,0,0-2.529,2.526c.168.693.363,1.378.542,2.068.27,1.037.2,1.116-.876.88A11.344,11.344,0,0,1,190.993,185a11.05,11.05,0,0,1-2.422-6.875" transform="translate(-114.872 -106.146)" fill="#738fa7"/>
        <path id="Trazado_655773" data-name="Trazado 655773" d="M43.461,177.709a11.493,11.493,0,0,1-9.1,11.415c-1.111.23-1.174.164-.882-.952.18-.69.389-1.372.547-2.067a1.955,1.955,0,0,0-2.532-2.458c-.755.188-1.51.378-2.252.61-.712.223-.94.02-.784-.712a11.562,11.562,0,0,1,13.558-9.181,1.3,1.3,0,0,1,1.263,1.291,18.729,18.729,0,0,1,.186,2.052" transform="translate(-17.305 -106.092)" fill="#738fa7"/>
        <path id="Trazado_655774" data-name="Trazado 655774" d="M118.291,200.241a7.826,7.826,0,0,1-5.182-2.064,1.954,1.954,0,1,1,2.519-2.975c1.907,1.516,3.5,1.514,5.44-.005a1.95,1.95,0,1,1,2.566,2.93,7.841,7.841,0,0,1-5.343,2.115" transform="translate(-68.407 -118.567)" fill="#040404"/>
        <path id="Trazado_655775" data-name="Trazado 655775" d="M108.184,179.2a1.9,1.9,0,0,1-1.911-1.9,1.957,1.957,0,0,1,1.966-1.971,1.992,1.992,0,0,1,1.927,1.928,1.932,1.932,0,0,1-1.982,1.945" transform="translate(-64.738 -106.803)" fill="#060505"/>
        <path id="Trazado_655776" data-name="Trazado 655776" d="M141.244,179.2a1.931,1.931,0,0,1-1.955-1.971,1.989,1.989,0,0,1,1.952-1.9,1.959,1.959,0,0,1,1.939,2,1.9,1.9,0,0,1-1.936,1.876" transform="translate(-84.85 -106.803)" fill="#060505"/>
      </g>
    </g>
  </g>
</svg>
