<svg xmlns="http://www.w3.org/2000/svg" xmlns:xlink="http://www.w3.org/1999/xlink" width="85" height="85" viewBox="0 0 85 85">
  <defs>
    <clipPath id="clip-path">
      <rect id="Rect치ngulo_310040" data-name="Rect치ngulo 310040" width="73.162" height="72.792" fill="none"/>
    </clipPath>
  </defs>
  <g id="Grupo_992178" data-name="Grupo 992178" transform="translate(-1335 -6589)">
    <rect id="Rect치ngulo_309092" data-name="Rect치ngulo 309092" width="85" height="85" transform="translate(1335 6589)" fill="none"/>
    <g id="Grupo_995785" data-name="Grupo 995785" transform="translate(1340.919 6595.104)">
      <g id="Grupo_995784" data-name="Grupo 995784" clip-path="url(#clip-path)">
        <path id="Trazado_656007" data-name="Trazado 656007" d="M18.4,39.579v-.968q0-12.818,0-25.636a4.8,4.8,0,0,1,5.086-4.926,6.241,6.241,0,0,1,2.132.624c0-.689-.012-1.307,0-1.925a4.81,4.81,0,0,1,9.618,0c.014.618,0,1.236,0,1.929a4.775,4.775,0,0,1,5.586.571c1.684,1.423,1.747,3.379,1.612,5.449a5.156,5.156,0,0,1,3.263-.567,4.781,4.781,0,0,1,3.978,4.845c.011,5.288.02,10.575-.016,15.863-.005.773.2.781.819.562,1.883-.668,3.787-1.278,5.675-1.931a2.142,2.142,0,0,1,1.458-.009q6.856,2.306,13.722,4.586c1.018.34,1.221.613,1.2,1.7-.045,2.78.153,5.565-.126,8.339-1,9.96-5.767,17.618-14.12,23.1a2.231,2.231,0,0,1-2.788,0A30.668,30.668,0,0,1,45.271,60.507c-.091-.16-.19-.316-.393-.654v.936q0,5.939,0,11.878c0,1.127-.412,1.538-1.539,1.538q-11.693,0-23.386,0c-1.133,0-1.545-.407-1.546-1.53,0-4.21-.017-8.42.014-12.63a2.84,2.84,0,0,0-.64-1.9Q9.333,47.294.935,36.408a3.572,3.572,0,0,1,.923-5.55,9.148,9.148,0,0,1,3.86-1.91,6.029,6.029,0,0,1,5.719,2.288q3.137,3.794,6.3,7.567c.182.219.372.432.668.776m48.13-.557q-4.644-1.573-9.288-3.147a1.2,1.2,0,0,0-.8.045c-4.1,1.375-8.19,2.755-12.295,4.1a.589.589,0,0,0-.48.69c.016,1.627,0,3.255.008,4.882A27.28,27.28,0,0,0,45.95,56.532a25.992,25.992,0,0,0,6.426,9.124A23.423,23.423,0,0,0,56.592,69c.334.222.561.052.812-.113A27.92,27.92,0,0,0,68.8,54.083c1.491-4.409,1.374-8.96,1.348-13.511a.482.482,0,0,0-.41-.524c-1.072-.331-2.138-.682-3.207-1.025M41.5,49.445c-.371-3.322-.185-6.656-.23-9.985a1.3,1.3,0,0,1,1.049-1.36c1.5-.479,2.985-1,4.482-1.483.317-.1.5-.209.5-.6-.015-5.739-.007-11.478-.018-17.217a2.4,2.4,0,0,0-3.462-2.069,2.371,2.371,0,0,0-1.342,2.257q0,7.556,0,15.112c0,1.614,0,1.57-1.628,1.632-.7.027-.8-.2-.794-.828.022-7.243.011-14.486.02-21.728a2.785,2.785,0,0,0-.5-1.768,2.352,2.352,0,0,0-2.61-.845,2.377,2.377,0,0,0-1.706,2.456q-.005,11.165,0,22.329c0,1.568,0,1.538-1.6,1.582-.626.017-.83-.1-.828-.793.029-9.147.019-18.295.019-27.442,0-.652.018-1.3-.008-1.954a2.406,2.406,0,1,0-4.8.307q-.007,14.135,0,28.269c0,1.6,0,1.565-1.567,1.614-.666.021-.861-.137-.858-.838.029-7.669.02-15.338.016-23.006a2.416,2.416,0,1,0-4.81.021c0,.927,0,1.855,0,2.782q0,12.556-.013,25.111c0,.572.116.8.725.739a16.01,16.01,0,0,1,1.879-.007,7.194,7.194,0,0,1,6.913,5.978,26.826,26.826,0,0,1,.116,4.2c.027,1.918.007,1.9-1.915,1.857-.4-.01-.5-.128-.494-.51.021-1.378.014-2.757.007-4.135a4.806,4.806,0,0,0-4.962-4.989c-.953-.006-1.908-.048-2.857.013a2.137,2.137,0,0,1-1.927-.908q-4.351-5.278-8.754-10.513A3.6,3.6,0,0,0,4.5,31.978c-.418.275-.829.561-1.244.841-1,.679-1.09,1.255-.336,2.229q8.648,11.17,17.3,22.334a2.679,2.679,0,0,1,.6,1.787c-.025,2.1,0,4.209.013,6.313-.008,1.879.008,3.758-.039,5.637-.014.567.138.7.7.695q10.151-.032,20.3,0c.585,0,.687-.168.684-.709-.024-3.859.008-7.719-.029-11.578a3.472,3.472,0,0,1,.686-2.381.793.793,0,0,0,.118-.893,31.849,31.849,0,0,1-1.761-6.81" transform="translate(0 -1.415)" fill="#020202"/>
        <path id="Trazado_656008" data-name="Trazado 656008" d="M175.984,0a1.452,1.452,0,0,1,1.1.558,16.825,16.825,0,0,0,3.691,2.811,8.464,8.464,0,0,0,8.72-.093,16.442,16.442,0,0,0,3.5-2.7,1.383,1.383,0,0,1,1.254-.537,1.189,1.189,0,0,1,.934.782,1.161,1.161,0,0,1-.319,1.3A22.164,22.164,0,0,0,192.9,4.4c-2.864,3.9-2.875,7.711-.032,11.625a19.78,19.78,0,0,0,1.851,2.17c.667.686.742,1.377.227,1.91-.533.552-1.245.476-1.963-.223a15.97,15.97,0,0,0-4.1-3.01,8.332,8.332,0,0,0-7.857.093,15.322,15.322,0,0,0-3.3,2.337c-.241.219-.469.452-.711.67-.667.6-1.347.633-1.857.092a1.205,1.205,0,0,1,.145-1.8,19.133,19.133,0,0,0,2.288-2.78,9.611,9.611,0,0,0,1.741-4.959,9.332,9.332,0,0,0-1.751-5.556,19.177,19.177,0,0,0-2.4-2.885,1.156,1.156,0,0,1-.27-1.376A1.152,1.152,0,0,1,175.984,0m13.291,14.448a10.942,10.942,0,0,1-.03-8.429,10.964,10.964,0,0,1-8.411.011,10.974,10.974,0,0,1,.011,8.412,10.978,10.978,0,0,1,8.431.005" transform="translate(-122.123 0)" fill="#030303"/>
        <path id="Trazado_656009" data-name="Trazado 656009" d="M18.3,45.908a1.236,1.236,0,0,1,.88.366c.265.229.514.479.8.686a2.9,2.9,0,0,0,3.917-.007c.26-.194.49-.428.739-.638a1.21,1.21,0,1,1,1.69,1.73c-.179.209-.378.4-.547.619a2.957,2.957,0,0,0-.021,4.1c.182.238.4.448.6.676a1.21,1.21,0,1,1-1.691,1.728c-.229-.195-.438-.414-.674-.6a2.956,2.956,0,0,0-4.1-.011c-.258.2-.481.438-.734.644a1.2,1.2,0,0,1-1.682-1.718c.223-.27.477-.516.686-.8a2.9,2.9,0,0,0,0-3.916c-.238-.321-.534-.6-.781-.913a1.13,1.13,0,0,1-.149-1.265,1.154,1.154,0,0,1,1.073-.685m4.215,4.811c.238-.694-.215-.563-.661-.622-.706-.095-.486.335-.551.7-.125.7.326.49.694.549.583.094.631-.177.517-.627" transform="translate(-11.944 -32.071)" fill="#040403"/>
        <path id="Trazado_656010" data-name="Trazado 656010" d="M210.409,71.1a1.8,1.8,0,0,1-.639,1.149c-1.339,1.468-1.5,2.771-.532,4.194a8.061,8.061,0,0,0,.665.812c.635.709.7,1.4.158,1.916-.515.5-1.187.432-1.859-.178-1.914-1.736-3.276-1.739-5.176-.013-.678.616-1.336.68-1.859.179s-.488-1.188.109-1.857c1.785-2,1.773-3.222-.049-5.287a1.216,1.216,0,1,1,1.715-1.708,10.319,10.319,0,0,0,.865.719,2.822,2.822,0,0,0,3.612-.006c.367-.258.684-.587,1.039-.863a1.112,1.112,0,0,1,1.265-.142,1.23,1.23,0,0,1,.685,1.084m-5.391,3.594c-.24.7.211.607.665.608.365,0,.576.049.561-.469-.016-.543-.014-.816-.714-.792-.574.02-.621.207-.512.653" transform="translate(-140.275 -48.808)" fill="#040403"/>
        <path id="Trazado_656011" data-name="Trazado 656011" d="M25.532,195.264c-.506,0-.806-.35-1.143-.649-1-.891-2.084-1.5-3.475-.945a5.11,5.11,0,0,0-1.539,1.055c-.683.632-1.325.686-1.856.177-.551-.527-.5-1.183.16-1.91,1.684-1.869,1.677-3.251-.028-5.122-.643-.706-.7-1.394-.161-1.912.517-.5,1.186-.431,1.859.179,1.913,1.734,3.266,1.737,5.177.01.683-.617,1.335-.679,1.859-.176s.487,1.194-.11,1.859c-1.771,1.975-1.776,3.259,0,5.224a1.293,1.293,0,0,1,.382,1.49,1.149,1.149,0,0,1-1.128.719m-3.622-4.222c.361.02.712.186.673-.449-.033-.539-.02-.79-.714-.794s-.486.354-.546.72c-.1.59.187.624.588.523" transform="translate(-11.964 -129.685)" fill="#040403"/>
        <path id="Trazado_656012" data-name="Trazado 656012" d="M26.44,71.045c-.008-2.1-.038-4.209-.013-6.313a2.678,2.678,0,0,0-.6-1.787Q17.158,51.79,8.522,40.611c-.754-.974-.667-1.55.336-2.229.415-.281.825-.567,1.244-.841a3.6,3.6,0,0,1,5.031.747q4.39,5.245,8.753,10.513a2.137,2.137,0,0,0,1.927.908c.949-.061,1.9-.019,2.857-.013a4.806,4.806,0,0,1,4.962,4.989c.008,1.378.014,2.757-.007,4.135-.006.382.091.5.494.511,1.922.047,1.941.061,1.915-1.857a26.863,26.863,0,0,0-.116-4.2,7.194,7.194,0,0,0-6.913-5.979,16.142,16.142,0,0,0-1.879.007c-.609.057-.726-.167-.725-.738q.028-12.556.013-25.111c0-.927,0-1.854,0-2.782a2.416,2.416,0,1,1,4.81-.021c0,7.669.012,15.338-.017,23.006,0,.7.193.859.858.838,1.566-.049,1.567-.015,1.567-1.614q0-14.135,0-28.269a2.406,2.406,0,1,1,4.8-.308c.026.651.008,1.3.008,1.955,0,9.147.01,18.295-.019,27.442,0,.695.2.81.828.793,1.6-.044,1.6-.014,1.6-1.582q0-11.165,0-22.329a2.377,2.377,0,0,1,1.706-2.456,2.351,2.351,0,0,1,2.61.845,2.782,2.782,0,0,1,.5,1.768c-.008,7.243,0,14.485-.02,21.728,0,.625.1.855.794.829,1.627-.062,1.628-.019,1.628-1.632q0-7.556,0-15.112a2.37,2.37,0,0,1,1.342-2.257,2.4,2.4,0,0,1,3.462,2.068c.011,5.739,0,11.478.018,17.217,0,.393-.179.5-.5.6-1.5.485-2.983,1-4.482,1.483a1.3,1.3,0,0,0-1.049,1.36c.044,3.329-.141,6.664.229,9.985-.945,1.126-1.839,2.3-2.846,3.368a55.779,55.779,0,0,1-9.686,8.206,52.2,52.2,0,0,1-8.128,4.463" transform="translate(-5.604 -6.979)" fill="#f8daaf"/>
        <path id="Trazado_656013" data-name="Trazado 656013" d="M153.6,144.007a26,26,0,0,1-6.426-9.124,27.279,27.279,0,0,1-2.274-10.935c0-1.627.008-3.255-.008-4.882a.589.589,0,0,1,.48-.69c4.1-1.35,8.2-2.73,12.294-4.1a1.206,1.206,0,0,1,.8-.045q4.643,1.576,9.288,3.147a31.237,31.237,0,0,1-.932,9.02c-.112.424-.073.98-.45,1.22-.236.151-.557-.344-.925-.322a.478.478,0,0,1-.074-.007c-.008-.751-.007-1.5-.025-2.252A1.223,1.223,0,0,0,164,123.686c-.722-.019-1.693.249-2.1-.116-.471-.42-.113-1.41-.149-2.151a1.228,1.228,0,0,0-1.362-1.34q-2.254-.02-4.509,0a1.214,1.214,0,0,0-1.35,1.346c-.019.723.252,1.691-.112,2.1-.419.475-1.409.116-2.149.152a1.226,1.226,0,0,0-1.346,1.355q-.02,2.254,0,4.508a1.216,1.216,0,0,0,1.34,1.357c.723.02,1.689-.254,2.107.109.479.416.119,1.407.156,2.147a1.236,1.236,0,0,0,1.351,1.353c.751.018,1.5.017,2.253.025.215.916.52,1.181,1.438,1.176a18.139,18.139,0,0,0,2.978-.1,21.824,21.824,0,0,1-2.915,3.621,30.714,30.714,0,0,1-6.026,4.776" transform="translate(-101.226 -79.767)" fill="#c5c4c8"/>
        <path id="Trazado_656014" data-name="Trazado 656014" d="M69.043,175.407a52.221,52.221,0,0,0,8.128-4.463,55.782,55.782,0,0,0,9.686-8.206c1.007-1.067,1.9-2.242,2.846-3.368a31.867,31.867,0,0,0,1.762,6.81.794.794,0,0,1-.118.893,3.468,3.468,0,0,0-.686,2.381c.037,3.859,0,7.718.029,11.578,0,.54-.1.711-.684.709q-10.151-.036-20.3,0c-.56,0-.712-.128-.7-.695.047-1.878.031-3.758.039-5.637m17.98,3.912c1.247,0,1.247,0,1.247-1.234,0-1.172,0-1.172-1.159-1.172-1.247,0-1.247,0-1.247,1.234,0,1.172,0,1.172,1.159,1.172" transform="translate(-48.207 -111.34)" fill="#f5c481"/>
        <path id="Trazado_656015" data-name="Trazado 656015" d="M173.786,151.419a30.715,30.715,0,0,0,6.027-4.776,21.806,21.806,0,0,0,2.915-3.621,18.069,18.069,0,0,1-2.978.1c-.918.005-1.223-.26-1.438-1.175.751-.008,1.5-.008,2.254-.025a1.224,1.224,0,0,0,1.364-1.338c.022-.723-.244-1.686.121-2.106.42-.484,1.409-.121,2.15-.16a1.237,1.237,0,0,0,1.338-1.368c.017-.751.017-1.5.025-2.254a.449.449,0,0,0,.074.007c.368-.021.689.473.925.323.377-.24.338-.8.45-1.22a31.239,31.239,0,0,0,.932-9.02c1.068.344,2.134.695,3.206,1.026a.481.481,0,0,1,.41.524c.026,4.551.143,9.1-1.348,13.511a27.92,27.92,0,0,1-11.4,14.806c-.251.165-.479.335-.812.113a23.41,23.41,0,0,1-4.217-3.346m9.349-9.186.157.052c.388-.652.789-1.3,1.156-1.961.124-.224.435-.529.232-.715-.26-.239-.662-.1-.972.085a1.116,1.116,0,0,0-.571.983c-.01.519,0,1.038,0,1.556" transform="translate(-121.411 -87.179)" fill="#88878e"/>
        <path id="Trazado_656016" data-name="Trazado 656016" d="M203.254,28.4a10.978,10.978,0,0,0-8.431-.005,10.974,10.974,0,0,0-.011-8.412,10.964,10.964,0,0,0,8.411-.011,10.942,10.942,0,0,0,.03,8.429" transform="translate(-136.101 -13.956)" fill="#f9ed52"/>
        <path id="Trazado_656017" data-name="Trazado 656017" d="M32.213,60.4c.113.451.066.721-.517.627-.368-.059-.819.153-.694-.549.065-.365-.155-.8.551-.7.445.059.9-.072.661.622" transform="translate(-21.644 -41.753)" fill="#f9dd6d"/>
        <path id="Trazado_656018" data-name="Trazado 656018" d="M214.672,84.367c-.109-.445-.062-.632.512-.653.7-.025.7.249.714.792.015.518-.2.47-.561.469-.454,0-.905.093-.665-.608" transform="translate(-149.929 -58.484)" fill="#f9dd6d"/>
        <path id="Trazado_656019" data-name="Trazado 656019" d="M31.6,200.712c-.4.1-.685.067-.588-.523.06-.365-.152-.724.546-.72s.681.256.714.794c.039.635-.312.469-.673.449" transform="translate(-21.65 -139.354)" fill="#f9dd6d"/>
        <path id="Trazado_656020" data-name="Trazado 656020" d="M179.325,140.946c-.008.751-.008,1.5-.025,2.254a1.237,1.237,0,0,1-1.338,1.368c-.74.039-1.73-.324-2.15.16-.365.42-.1,1.383-.121,2.106a1.224,1.224,0,0,1-1.364,1.338c-.751.017-1.5.017-2.254.025-.751-.008-1.5-.007-2.253-.025a1.236,1.236,0,0,1-1.351-1.353c-.036-.74.324-1.73-.155-2.147-.418-.363-1.384-.089-2.107-.109a1.216,1.216,0,0,1-1.341-1.357q-.02-2.254,0-4.508a1.226,1.226,0,0,1,1.346-1.355c.74-.036,1.73.322,2.149-.152.364-.413.093-1.381.112-2.1a1.214,1.214,0,0,1,1.35-1.346q2.254-.021,4.509,0a1.229,1.229,0,0,1,1.362,1.34c.037.741-.321,1.73.149,2.15.409.365,1.38.1,2.1.116a1.223,1.223,0,0,1,1.353,1.347c.018.75.017,1.5.025,2.252m-7.2-4.8c-1.242,0-1.242,0-1.242,1.177,0,2.354-.079,2.432-2.45,2.432-1.159,0-1.159,0-1.159,1.184,0,1.222,0,1.222,1.2,1.222,2.318,0,2.413.094,2.413,2.393,0,1.216,0,1.216,1.2,1.216s1.2,0,1.2-1.215c0-2.3.093-2.394,2.411-2.394,1.2,0,1.2,0,1.2-1.22,0-1.186,0-1.186-1.158-1.186-2.374,0-2.452-.077-2.452-2.429,0-1.18,0-1.18-1.164-1.18" transform="translate(-115.173 -93.428)" fill="#010101"/>
        <path id="Trazado_656021" data-name="Trazado 656021" d="M126.11,219.987c-1.159,0-1.159,0-1.159-1.172,0-1.234,0-1.234,1.247-1.234,1.159,0,1.159,0,1.159,1.172,0,1.234,0,1.234-1.247,1.234" transform="translate(-87.294 -152.008)"/>
        <path id="Trazado_656022" data-name="Trazado 656022" d="M204.8,176.3c0-.519-.008-1.038,0-1.556a1.116,1.116,0,0,1,.57-.983c.31-.186.712-.324.972-.085.2.186-.108.492-.232.715-.367.664-.768,1.309-1.156,1.961l-.157-.052" transform="translate(-143.077 -121.245)" fill="#c2c1c5"/>
        <path id="Trazado_656023" data-name="Trazado 656023" d="M177.717,141.737c1.164,0,1.164,0,1.164,1.18,0,2.352.078,2.429,2.452,2.429,1.158,0,1.158,0,1.158,1.186,0,1.22,0,1.22-1.2,1.22-2.318,0-2.411.093-2.411,2.393,0,1.215,0,1.215-1.2,1.215s-1.2,0-1.2-1.216c0-2.3-.095-2.393-2.413-2.393-1.2,0-1.2,0-1.2-1.222,0-1.184,0-1.184,1.159-1.184,2.371,0,2.45-.079,2.45-2.432,0-1.177,0-1.177,1.242-1.177" transform="translate(-120.768 -99.021)" fill="#68a3f7"/>
      </g>
    </g>
  </g>
</svg>
