<svg xmlns="http://www.w3.org/2000/svg" xmlns:xlink="http://www.w3.org/1999/xlink" width="83" height="83" viewBox="0 0 83 83">
  <defs>
    <clipPath id="clip-path">
      <rect id="Rectángulo_309966" data-name="Rectángulo 309966" width="82.985" height="83" fill="none"/>
    </clipPath>
  </defs>
  <g id="Grupo_995565" data-name="Grupo 995565" transform="translate(-181 -503)">
    <circle id="Elipse_8159" data-name="Elipse 8159" cx="41.5" cy="41.5" r="41.5" transform="translate(181 503)" fill="#ffd357"/>
    <g id="Grupo_995756" data-name="Grupo 995756" transform="translate(181.015 503)">
      <g id="Grupo_995755" data-name="Grupo 995755" clip-path="url(#clip-path)">
        <path id="Trazado_655628" data-name="Trazado 655628" d="M54.485,46.507a14.943,14.943,0,0,1,4.09-3.249c.138-.074.324-.111.324-.332,0-.864.008-1.728,0-2.592,0-.322-.278-.28-.486-.331a6.015,6.015,0,0,1-4.861-6.135c-.005-1.31-.01-2.62.005-3.93a.577.577,0,0,0-.447-.657,3.149,3.149,0,0,1-1.141-5.436c1.821-1.664,1.588-3.728,1.575-5.8,0-.371-.367-.371-.584-.5-3.363-2.078-5.082-5.095-4.692-9.029A9,9,0,0,1,54.731.486,5.433,5.433,0,0,1,56.353.128c4.64-.121,9.3-.526,13.786,1.222A20.028,20.028,0,0,1,82.965,20.812a14.6,14.6,0,0,1-5.449,10.959c-2.052,1.705-3.46,3.91-5.076,5.962a.914.914,0,0,0-.152.627,17.459,17.459,0,0,0,.051,3.5c.248,1.189,1.561,1.626,2.388,2.406a17.7,17.7,0,0,1,3.257,21.658,2.562,2.562,0,0,0-.351,1.335c.014,4.989,0,9.978.024,14.967,0,.621-.14.774-.768.772q-12.628-.036-25.256,0c-.618,0-.788-.133-.775-.766.045-2.2,0-4.4.031-6.605.008-.543-.133-.7-.683-.686-1.532.039-3.066.025-4.6.011a5.35,5.35,0,1,1-.028-10.7c1.533-.014,3.067-.02,4.6.007.5.009.726-.056.714-.654-.044-2.117-.018-4.236-.022-6.354a1.194,1.194,0,0,0-.08-.241c-.447.356-.871.689-1.29,1.028q-7.18,5.81-14.36,11.617a15.711,15.711,0,0,1-2.17,1.552,1.526,1.526,0,0,0-.847,1.589c.044,3.149.006,6.3.031,9.448,0,.544-.071.757-.7.755q-12.712-.036-25.424,0c-.571,0-.67-.178-.669-.7.019-5.017.009-10.034.014-15.051a2.277,2.277,0,0,0-.269-1.19A17.518,17.518,0,0,1,9.273,43.475a3.733,3.733,0,0,0,1.509-3.2A6.146,6.146,0,0,0,9.348,36.03a21.062,21.062,0,0,0-4.4-4.277A11.072,11.072,0,0,1,.031,22.376c-.05-2.842-.032-5.686,0-8.529A14.031,14.031,0,0,1,13.848.033C17.276,0,20.705.009,24.134.031a6.566,6.566,0,0,1,6.372,4.837,1.264,1.264,0,0,0,1.076,1.017A5.826,5.826,0,0,1,30.35,17.4c-.714,0-.994.139-.9.895a11.1,11.1,0,0,1,.01,1.838,4.454,4.454,0,0,0,1.426,3.515c2.06,2.044,1.6,4.5-1.06,5.654-.4.175-.36.425-.36.722,0,1.338.009,2.676,0,4.013a6,6,0,0,1-4.778,5.943c-.448.1-.591.237-.583.691.027,1.477.023,2.954,0,4.431a.928.928,0,0,0,.416.828,19.257,19.257,0,0,1,4.728,5.357.716.716,0,0,0,.913.429c4.17-.975,8.345-1.928,12.519-2.887a1.969,1.969,0,0,0,.793-.439c.866-.7,1.74-1.392,2.613-2.086,2.983-2.37,5.53-2.314,8.4.2M12.4,44.307c-.687.575-1.3,1.051-1.875,1.577C6.169,49.9,4.454,54.866,5.8,60.623A14.2,14.2,0,0,0,16.646,71.742c5.917,1.517,11.363-.024,16.12-3.671,5.172-3.964,10.161-8.167,15.24-12.254.359-.289.418-.474.1-.846q-1.534-1.767-2.994-3.6c-.332-.418-.544-.457-.97-.1-1.588,1.314-3.21,2.587-4.822,3.872-4.094,3.266-8.12,6.622-12.306,9.766a9.6,9.6,0,0,1-10.639.9,9.785,9.785,0,0,1-5.638-8.906,2.151,2.151,0,0,0-.285-1.366c-.932-1.007-.251-1.579.468-2.186A2.225,2.225,0,0,0,11.269,53c.319-.428.547-.29.824.068A6.032,6.032,0,0,1,13.4,56.69a7.229,7.229,0,0,0,4.37,6.848,7.4,7.4,0,0,0,8.075-1.06c.992-.766,1.942-1.587,2.95-2.331a1.134,1.134,0,0,0,.474-1.21c-.066-.553-.449-.621-.849-.754-3.587-1.194-7.168-2.41-10.762-3.583-.5-.163-.587-.337-.41-.809.343-.91.621-1.844.945-2.761.139-.395.1-.591-.373-.693-1.169-.251-2.317-.594-3.486-.844a1.022,1.022,0,0,1-.9-.9c-.307-1.4-.673-2.8-1.038-4.285M10.726,33.184c0-1.109-.024-2.219.011-3.327a.852.852,0,0,0-.547-.889,3.982,3.982,0,0,1,.085-7.093,1.024,1.024,0,0,0,.614-.8,10.387,10.387,0,0,1,7.283-8.362,1.336,1.336,0,0,0,.916-.828,3.831,3.831,0,0,1,3.3-2.477c1.724-.2,1.727-.168,1.727,1.546,0,.2-.016.392,0,.585.038.391-.107.571-.515.53a4.941,4.941,0,0,0-.668,0,1.343,1.343,0,1,0,.024,2.668c2.452.013,4.9.021,7.355,0A3.153,3.153,0,0,0,31.2,8.554a17.763,17.763,0,0,0-2.262-.575c-.642-.111-.839-.385-.834-1.044A3.994,3.994,0,0,0,23.857,2.7c-3.315-.006-6.631-.022-9.947,0A11.362,11.362,0,0,0,2.7,13.9c-.022,2.813-.037,5.628.005,8.44a8.508,8.508,0,0,0,3.666,7.15,22.254,22.254,0,0,1,4.353,3.692M57.871,72.279c2.137-.091,4.713.225,7.255-.222A14.949,14.949,0,0,0,77.381,59.839c1.073-5.8-1.11-11.413-6.726-15.491a.91.91,0,0,0-1.528.57c-.3,1.215-.627,2.424-.881,3.649a1.078,1.078,0,0,1-.965.941c-1.087.234-2.156.553-3.243.782-.558.118-.763.275-.509.879.322.766.474,1.606.812,2.364.33.739.079.959-.615,1.181-3.176,1.018-6.33,2.109-9.5,3.135-.509.165-.7.366-.685.913q.059,2.381,0,4.764c-.015.577.127.75.726.741,2.452-.037,4.9-.014,7.357-.015,4.718,0,7.818-2.979,7.994-7.671a6.2,6.2,0,0,1,1.212-3.408c.38-.538.66-.546,1.06-.043a7.936,7.936,0,0,0,.942.948c.294.262.377.467.084.821a2.994,2.994,0,0,0-.627,1.863A10.153,10.153,0,0,1,61.808,66.928c-3.428,0-6.856.01-10.284-.01-.493,0-.679.092-.662.633.042,1.364.039,2.731,0,4.1-.015.521.135.654.649.646,1.978-.031,3.957-.012,6.358-.012m14.418-39.12a31.693,31.693,0,0,1,3.271-3.224,12.926,12.926,0,0,0,2.1-2.147A13.3,13.3,0,0,0,80,16.8,17.508,17.508,0,0,0,66.948,3.174a37.6,37.6,0,0,0-10.067-.4,6.538,6.538,0,0,0-6,6.411,6.5,6.5,0,0,0,5.6,6.743c3.68.5,7.282.2,10.517-1.939a3.228,3.228,0,0,1,3.559-.141,3.315,3.315,0,0,1,1.732,3.117c0,1.309.028,2.619-.015,3.927a1.047,1.047,0,0,0,.642,1.089,3.832,3.832,0,0,1,.588,6.441,2.827,2.827,0,0,0-1.224,2.9c.044.609.008,1.224.008,1.836M24.019,37.423c-.116-.128-.145-.182-.189-.206-1.936-1.039-2.723-2.558-2.283-4.415a4.136,4.136,0,0,1,4.235-3.311c.952.028,1.057-.32,1.024-1.124-.064-1.575-.019-1.572,1.5-1.584.4,0,.89.138,1.1-.371.192-.474-.242-.7-.5-.958a6.852,6.852,0,0,1-2.118-5.179c.014-.752-.024-1.506.012-2.257.022-.463-.107-.625-.593-.609-1.114.035-2.229.014-3.344.01a3.834,3.834,0,0,1-3.34-1.732c-.314-.467-.567-.458-1.013-.288a7.977,7.977,0,0,0-5.1,7.284c-.022,1.323-.022,1.323-1.342,1.43a1.334,1.334,0,0,0,0,2.669,1.985,1.985,0,0,0,.5,0c.7-.124.866.148.86.844-.036,4.4-.007,8.806-.032,13.209,0,.586.1.857.754.854a9.3,9.3,0,0,1,1.733.237,20.5,20.5,0,0,1,5.556,1.958c0-1.294-.013-2.484.008-3.673.006-.361-.186-.463-.467-.578a6.516,6.516,0,0,1-2.108-1.472c-1.062-1.058-1.067-1.053.022-2.138.819-.817.84-.837,1.659.032a3.683,3.683,0,0,0,3.472,1.368m37.564,4.634c2.423-.728,4.828-.547,7.217-.537.627,0,.836-.121.83-.8-.036-4.1-.02-8.191-.015-12.286,0-.523-.13-1.152.111-1.537.208-.331.88-.056,1.342-.118a1.324,1.324,0,0,0,1.209-1.361,1.293,1.293,0,0,0-1.19-1.291,2.478,2.478,0,0,0-.75-.009c-.574.083-.753-.111-.741-.712.041-2.061.014-4.123.017-6.185,0-.393.025-.779-.4-1.02s-.735.037-1.071.218c-.636.343-1.263.7-1.914,1.013-3,1.434-6.2,1.426-9.412,1.283-.492-.022-.632.067-.595.547a7.4,7.4,0,0,1-2.4,6.479.561.561,0,0,0-.226.663.641.641,0,0,0,.677.384c.445-.009.9.039,1.336-.012.551-.064.649.172.626.659-.038.806-.026,1.616,0,2.423.009.309-.183.744.147.9a1.137,1.137,0,0,0,1.089-.266c.16-.11.318-.225.484-.327a4.033,4.033,0,0,1,4.632.041c1.219.787,1.212.8.341,1.92a3.032,3.032,0,0,0-.3.4c-.321.6-.636.656-1.189.181-.906-.777-1.33-.751-2.307-.087a4.207,4.207,0,0,1-2.4.845c-.4,0-.5.125-.51.521a3.416,3.416,0,0,0,2.021,3.2,3.311,3.311,0,0,0,3.719-.625c.477-.409.851-1.277,1.393-1.171s.974.85,1.453,1.315a.7.7,0,0,0,.06.059c.274.211.306.4.031.667a8.8,8.8,0,0,1-2.89,2.221c-.252.1-.44.193-.429.518.019.6.006,1.21.006,1.893M8.051,69.948c0,3.365.01,6.569-.011,9.772,0,.48.144.6.609.6,2.09-.023,4.18-.01,6.269-.01q6.9,0,13.794-.009c.3,0,.761.231.756-.427-.017-2.224-.006-4.449-.006-6.732-7.712,2.922-14.914,2.624-21.411-3.192m66.913-.035a17.993,17.993,0,0,1-12.881,5.048c-2.62-.028-5.24.012-7.859-.018-.558-.006-.7.16-.682.7.037,1.309.056,2.621-.006,3.928-.032.67.214.758.8.753,3.428-.026,6.856-.013,10.284-.013q4.85,0,9.7,0c.316,0,.661.112.657-.455-.021-3.255-.01-6.51-.01-9.938m-21.292-14.7q3.6-1.2,7.185-2.384c.407-.134.282-.4.2-.662-.33-1-.636-2.017-1.012-3-.177-.465-.076-.626.385-.73,1.112-.252,2.216-.539,3.321-.821,2.248-.573,2.242-.576,2.679-2.851.076-.4.068-.588-.441-.593a11.946,11.946,0,0,0-9.912,4.636,1.3,1.3,0,0,0-.317.988,5.4,5.4,0,0,1-1.762,4.583c-.22.206-.475.394-.323.838m-25.49.059c-2-5.7-7.983-10.153-12.934-10.62a17.331,17.331,0,0,1,.432,1.785c.076.544.362.721.853.834,1.544.353,3.074.765,4.615,1.13.484.115.707.248.476.821-.384.951-.67,1.942-.993,2.918-.1.29-.212.566.238.713,2.4.781,4.789,1.582,7.313,2.419M48.2,69.647c0-.75-.016-1.5.007-2.25.011-.357-.091-.49-.465-.477-.805.027-1.614-.025-2.417.022a2.668,2.668,0,0,0,0,5.321c.8.05,1.612,0,2.416.023.368.012.482-.109.47-.472-.025-.722-.007-1.445-.007-2.167m2.035-22.388c-.854-.013-1.311.249-2.777,1.356-.557.421-.71.693-.159,1.257.717.733,1.331,1.566,1.991,2.354,1.427,1.7,1.428,1.7,3.016.072a2.966,2.966,0,0,0-2.071-5.039M37.922,52.83l-.081-.152c-2.214.512-4.428,1.027-6.644,1.529-.3.068-.433.136-.313.493.324.965.6,1.946.929,3.013l6.11-4.884M26.787,33.364c-.231-.367.531-1.3-.716-1.24-1.187.06-1.957.615-1.958,1.56,0,.792.5,1.131,1.664,1.132,1.01,0,1.01,0,1.01-1.452" transform="translate(0 0)" fill="#020202"/>
        <path id="Trazado_655629" data-name="Trazado 655629" d="M125.1,81.186c-1.333-.028-1.333-.028-1.29-1.333a4.321,4.321,0,0,1,5.007-4.06c.312.044.357.167.347.42-.011.306,0,.613,0,.92,0,1.241,0,1.241-1.245,1.354a1.493,1.493,0,0,0-1.423,1.382c-.04.408.1,1.015-.115,1.179-.291.223-.841.109-1.28.139" transform="translate(-82.301 -50.356)" fill="#030303"/>
        <path id="Trazado_655630" data-name="Trazado 655630" d="M125.031,55.894a2.59,2.59,0,0,0,.418,0c.657-.11.914.081.88.82-.063,1.348.495,1.887,1.857,1.843.649-.021.917.151.8.81a2.969,2.969,0,0,0,0,.5c0,1.47,0,1.47-1.462,1.376a4.36,4.36,0,0,1-3.9-5.075c.066-.286.215-.27.408-.27h1" transform="translate(-82.121 -37.137)" fill="#030303"/>
        <path id="Trazado_655631" data-name="Trazado 655631" d="M103.787,59.88a1.913,1.913,0,0,0,0-.334c-.139-.769.1-1.058.948-1.006,1.2.074,1.768-.549,1.712-1.815-.031-.7.164-.969.857-.839a1.849,1.849,0,0,0,.334,0c1.691,0,1.715,0,1.479,1.673a4.294,4.294,0,0,1-5.016,3.687c-.268-.024-.32-.139-.313-.365.009-.334,0-.669,0-1" transform="translate(-68.971 -37.132)" fill="#030303"/>
        <path id="Trazado_655632" data-name="Trazado 655632" d="M107.8,81.182a2.41,2.41,0,0,0-.418,0c-.763.138-.973-.172-.938-.927.055-1.193-.535-1.8-1.715-1.728-.852.055-1.083-.245-.945-1.008a1.422,1.422,0,0,0,0-.251c0-1.57,0-1.57,1.57-1.43a4.343,4.343,0,0,1,3.793,5.008c-.038.242-.1.344-.346.335-.334-.012-.669,0-1,0" transform="translate(-68.971 -50.382)" fill="#030303"/>
        <path id="Trazado_655633" data-name="Trazado 655633" d="M23.02,132.18c.365,1.49.731,2.881,1.038,4.285a1.022,1.022,0,0,0,.9.9c1.169.25,2.318.593,3.486.844.474.1.513.3.373.693-.324.917-.6,1.851-.945,2.761-.177.471-.089.645.41.809,3.594,1.174,7.174,2.389,10.762,3.583.4.133.783.2.849.754a1.134,1.134,0,0,1-.474,1.21c-1.008.744-1.959,1.564-2.95,2.331a7.4,7.4,0,0,1-8.075,1.06,7.229,7.229,0,0,1-4.369-6.848,6.036,6.036,0,0,0-1.31-3.625c-.278-.357-.505-.5-.824-.068a2.226,2.226,0,0,1-.353.355c-.719.607-1.4,1.179-.468,2.186a2.151,2.151,0,0,1,.285,1.366,9.786,9.786,0,0,0,5.638,8.906,9.6,9.6,0,0,0,10.639-.9c4.185-3.144,8.211-6.5,12.306-9.766,1.611-1.285,3.234-2.558,4.822-3.872.425-.352.638-.314.97.1q1.456,1.831,2.994,3.6c.323.372.264.557-.095.846-5.079,4.087-10.068,8.29-15.24,12.254-4.757,3.646-10.2,5.188-16.12,3.671A14.2,14.2,0,0,1,16.423,148.5c-1.35-5.757.365-10.72,4.723-14.739.571-.526,1.188-1,1.875-1.577" transform="translate(-10.618 -87.873)" fill="#80afea"/>
        <path id="Trazado_655634" data-name="Trazado 655634" d="M16.045,38.526a22.254,22.254,0,0,0-4.353-3.692,8.508,8.508,0,0,1-3.666-7.149c-.042-2.813-.027-5.627-.005-8.441a11.363,11.363,0,0,1,11.208-11.2c3.315-.025,6.631-.01,9.947,0a4,4,0,0,1,4.249,4.231c0,.658.192.933.834,1.044a17.706,17.706,0,0,1,2.262.574,3.153,3.153,0,0,1-.894,6.183c-2.451.023-4.9.015-7.355,0a1.343,1.343,0,1,1-.023-2.668,4.882,4.882,0,0,1,.668,0c.408.041.554-.139.515-.529-.019-.193,0-.39,0-.585,0-1.714,0-1.741-1.727-1.546a3.83,3.83,0,0,0-3.3,2.477,1.334,1.334,0,0,1-.916.828,10.386,10.386,0,0,0-7.282,8.362,1.024,1.024,0,0,1-.614.8,3.982,3.982,0,0,0-.085,7.093.852.852,0,0,1,.547.889c-.035,1.108-.011,2.218-.011,3.327" transform="translate(-5.318 -5.342)" fill="#a97a4d"/>
        <path id="Trazado_655635" data-name="Trazado 655635" d="M158.744,159.757c-2.4,0-4.38-.018-6.358.012-.515.008-.664-.126-.649-.646.038-1.364.041-2.731,0-4.1-.017-.541.17-.636.662-.633,3.428.02,6.856.013,10.284.01a10.153,10.153,0,0,0,10.478-10.165,3,3,0,0,1,.627-1.864c.293-.354.21-.558-.084-.821a7.856,7.856,0,0,1-.942-.947c-.4-.5-.68-.5-1.06.042a6.2,6.2,0,0,0-1.212,3.408c-.176,4.692-3.277,7.668-7.994,7.671-2.452,0-4.905-.021-7.357.015-.6.009-.741-.164-.726-.741q.061-2.381,0-4.764c-.014-.547.176-.749.685-.913,3.174-1.026,6.327-2.117,9.5-3.135.694-.223.944-.442.614-1.182-.338-.758-.489-1.6-.812-2.364-.254-.6-.05-.761.508-.879,1.088-.229,2.157-.547,3.244-.781a1.079,1.079,0,0,0,.965-.941c.253-1.224.581-2.434.88-3.648a.91.91,0,0,1,1.528-.57c5.617,4.078,7.8,9.688,6.726,15.491A14.949,14.949,0,0,1,166,159.535c-2.543.448-5.119.131-7.255.222" transform="translate(-100.872 -87.479)" fill="#bad989"/>
        <path id="Trazado_655636" data-name="Trazado 655636" d="M173.2,38.374c0-.612.036-1.227-.008-1.836a2.826,2.826,0,0,1,1.224-2.9,3.832,3.832,0,0,0-.588-6.441,1.046,1.046,0,0,1-.642-1.088c.043-1.308.01-2.618.014-3.927a3.316,3.316,0,0,0-1.732-3.118,3.229,3.229,0,0,0-3.559.141c-3.235,2.142-6.837,2.443-10.517,1.939a6.5,6.5,0,0,1-5.6-6.744,6.537,6.537,0,0,1,6-6.41,37.6,37.6,0,0,1,10.067.4,17.508,17.508,0,0,1,13.057,13.627A13.3,13.3,0,0,1,178.566,33a12.941,12.941,0,0,1-2.1,2.147,31.728,31.728,0,0,0-3.271,3.224" transform="translate(-100.908 -5.216)" fill="#656c76"/>
        <path id="Trazado_655637" data-name="Trazado 655637" d="M45.306,67.752a3.685,3.685,0,0,1-3.472-1.368c-.819-.87-.84-.849-1.659-.032-1.088,1.086-1.083,1.081-.022,2.138a6.511,6.511,0,0,0,2.108,1.472c.281.115.473.217.467.578-.021,1.189-.008,2.379-.008,3.673a20.5,20.5,0,0,0-5.556-1.957,9.28,9.28,0,0,0-1.733-.238c-.655,0-.757-.268-.754-.854.024-4.4,0-8.806.031-13.209.006-.7-.164-.969-.86-.844a2,2,0,0,1-.5,0,1.334,1.334,0,0,1,0-2.669c1.32-.106,1.32-.106,1.342-1.429a7.978,7.978,0,0,1,5.1-7.284c.446-.17.7-.179,1.013.288a3.834,3.834,0,0,0,3.34,1.732c1.115,0,2.23.025,3.344-.01.485-.015.615.146.593.609-.036.751,0,1.5-.012,2.257a6.85,6.85,0,0,0,2.117,5.179c.261.26.695.484.5.959-.206.509-.695.367-1.1.37-1.521.012-1.566.009-1.5,1.584.033.8-.072,1.152-1.024,1.124a4.136,4.136,0,0,0-4.235,3.312c-.44,1.856.347,3.376,2.283,4.414.045.024.073.078.189.206M45.825,52.9c.517.273.656-.021.744-.442a10.6,10.6,0,0,1,.346-1.373c.166-.469.071-.686-.438-.8-1.247-.274-2.5-.535-3.718-.921-.824-.262-1.23-.153-1.323.763-.05.492-.43,1.053-.284,1.438.178.468.907.351,1.388.516.264.091.427.113.326.49-.259.962.1,1.633.887,1.829a1.337,1.337,0,0,0,1.619-1.16c.075-.331.152-.443.453-.343" transform="translate(-21.288 -30.329)" fill="#e9cfb5"/>
        <path id="Trazado_655638" data-name="Trazado 655638" d="M167.805,73.994c0-.683.014-1.289-.005-1.893-.01-.324.177-.42.429-.517a8.791,8.791,0,0,0,2.889-2.221c.276-.271.243-.456-.031-.667a.754.754,0,0,1-.059-.059c-.479-.465-.9-1.207-1.454-1.315s-.916.762-1.393,1.171a3.311,3.311,0,0,1-3.72.625,3.416,3.416,0,0,1-2.021-3.2c.005-.4.106-.523.51-.521a4.211,4.211,0,0,0,2.4-.845c.977-.664,1.4-.691,2.307.087.553.475.867.417,1.189-.181a3.06,3.06,0,0,1,.305-.4c.872-1.123.878-1.133-.341-1.92a4.035,4.035,0,0,0-4.632-.041c-.165.1-.323.217-.484.327a1.138,1.138,0,0,1-1.09.266c-.33-.157-.138-.593-.147-.9-.023-.807-.036-1.617,0-2.423.023-.487-.075-.724-.626-.659-.44.051-.891,0-1.336.012a.642.642,0,0,1-.677-.384.561.561,0,0,1,.225-.663,7.4,7.4,0,0,0,2.4-6.479c-.038-.48.1-.57.595-.548,3.211.142,6.415.15,9.412-1.283.651-.311,1.279-.671,1.914-1.013.336-.181.636-.466,1.071-.218s.4.626.4,1.02c0,2.061.024,4.124-.016,6.185-.012.6.167.8.74.712a2.482,2.482,0,0,1,.751.009,1.294,1.294,0,0,1,1.19,1.291,1.324,1.324,0,0,1-1.21,1.36c-.462.063-1.134-.213-1.342.118-.241.385-.111,1.014-.111,1.537,0,4.1-.021,8.191.015,12.286.006.68-.2.8-.83.8-2.389-.01-4.794-.192-7.217.537m1.163-19.85c-.048-.265-.225-.311-.362-.381-.5-.253-1.012-.469-1.491-.749-.381-.223-.574-.163-.762.239q-.689,1.472-1.45,2.911c-.179.34-.176.529.2.708,1.029.49,2.042,1.014,3.065,1.515.132.065.323.253.434.049.369-.684.7-1.388,1.039-2.089a.235.235,0,0,0-.064-.215c-1.183-.382-1.549-1.013-.611-1.988" transform="translate(-106.222 -31.937)" fill="#e9cfb5"/>
        <path id="Trazado_655639" data-name="Trazado 655639" d="M24,208.672c6.5,5.816,13.7,6.114,21.411,3.192,0,2.283-.011,4.508.006,6.732.005.658-.461.426-.756.427q-6.9.019-13.794.009c-2.09,0-4.18-.013-6.269.01-.466.005-.612-.118-.609-.6.02-3.2.011-6.407.011-9.772" transform="translate(-15.947 -138.725)" fill="#80b0eb"/>
        <path id="Trazado_655640" data-name="Trazado 655640" d="M181.134,208.568c0,3.429-.011,6.684.01,9.938,0,.566-.341.455-.657.455q-4.85,0-9.7,0c-3.428,0-6.856-.013-10.284.013-.586,0-.832-.082-.8-.753.062-1.307.044-2.619.006-3.928-.015-.537.125-.7.683-.7,2.62.031,5.24-.01,7.859.018a18,18,0,0,0,12.881-5.048" transform="translate(-106.17 -138.656)" fill="#bbda89"/>
        <path id="Trazado_655641" data-name="Trazado 655641" d="M160.028,142.811c-.153-.443.1-.631.323-.837a5.4,5.4,0,0,0,1.762-4.583,1.3,1.3,0,0,1,.317-.989,11.945,11.945,0,0,1,9.911-4.636c.51.005.518.2.441.593-.437,2.275-.43,2.279-2.678,2.852-1.105.281-2.209.568-3.321.82-.462.1-.562.266-.385.731.376.986.683,2,1.013,3,.085.259.21.528-.2.662q-3.589,1.184-7.185,2.384" transform="translate(-106.356 -87.597)" fill="#a8cd74"/>
        <path id="Trazado_655642" data-name="Trazado 655642" d="M58.424,143.831c-2.524-.837-4.916-1.638-7.313-2.419-.45-.146-.334-.422-.237-.712.323-.976.609-1.967.993-2.918.231-.573.008-.706-.476-.821-1.541-.366-3.071-.777-4.615-1.13-.491-.113-.777-.289-.853-.834a17.419,17.419,0,0,0-.432-1.785c4.951.467,10.93,4.921,12.934,10.62" transform="translate(-30.242 -88.558)" fill="#6899e1"/>
        <path id="Trazado_655643" data-name="Trazado 655643" d="M133.18,202.366c0,.722-.017,1.445.007,2.167.012.363-.1.485-.47.473-.8-.026-1.614.027-2.416-.023a2.668,2.668,0,0,1,0-5.321c.8-.048,1.612.005,2.417-.022.374-.013.476.12.465.477-.023.749-.007,1.5-.007,2.25" transform="translate(-84.981 -132.719)" fill="#e9cfb5"/>
        <path id="Trazado_655644" data-name="Trazado 655644" d="M143.357,140.982a2.967,2.967,0,0,1,2.07,5.039c-1.588,1.631-1.589,1.631-3.016-.071-.66-.788-1.275-1.621-1.991-2.354-.551-.564-.4-.836.16-1.257,1.466-1.106,1.923-1.369,2.778-1.357" transform="translate(-93.122 -93.724)" fill="#e9cfb5"/>
        <path id="Trazado_655645" data-name="Trazado 655645" d="M99.088,157.3l-6.11,4.884c-.325-1.068-.6-2.048-.929-3.013-.12-.357.014-.425.313-.493,2.216-.5,4.43-1.018,6.644-1.529l.081.152" transform="translate(-61.165 -104.474)" fill="#7dabe5"/>
        <path id="Trazado_655646" data-name="Trazado 655646" d="M74.612,97.068c0,1.452,0,1.452-1.01,1.452-1.167,0-1.665-.339-1.664-1.132,0-.945.771-1.5,1.958-1.56,1.247-.063.485.872.716,1.24" transform="translate(-47.824 -63.704)" fill="#e98571"/>
        <path id="Trazado_655647" data-name="Trazado 655647" d="M63.869,60.09c-.3-.1-.378.012-.453.343a1.337,1.337,0,0,1-1.619,1.16c-.79-.2-1.146-.867-.887-1.829.1-.378-.061-.4-.326-.49-.48-.165-1.209-.048-1.388-.516-.147-.385.234-.946.284-1.438.093-.916.5-1.024,1.323-.763,1.214.386,2.47.647,3.718.921.509.112.6.328.438.8a10.6,10.6,0,0,0-.346,1.373c-.087.42-.227.715-.744.442" transform="translate(-39.332 -37.517)" fill="#060504"/>
        <path id="Trazado_655648" data-name="Trazado 655648" d="M178.9,63.754c-.939.975-.572,1.606.611,1.988a.235.235,0,0,1,.064.215c-.336.7-.669,1.405-1.039,2.089-.11.2-.3.015-.434-.049-1.024-.5-2.036-1.025-3.065-1.515-.377-.179-.38-.368-.2-.708q.758-1.438,1.45-2.911c.188-.4.381-.462.762-.239.479.28,1,.5,1.491.749.137.07.314.116.362.381" transform="translate(-116.153 -41.547)" fill="#060504"/>
      </g>
    </g>
  </g>
</svg>
