<svg xmlns="http://www.w3.org/2000/svg" xmlns:xlink="http://www.w3.org/1999/xlink" width="110" height="110" viewBox="0 0 110 110">
  <defs>
    <clipPath id="clip-path">
      <rect id="Rect치ngulo_309964" data-name="Rect치ngulo 309964" width="96.349" height="80.642" fill="none"/>
    </clipPath>
  </defs>
  <g id="Grupo_995748" data-name="Grupo 995748" transform="translate(101 7967)">
    <rect id="Rect치ngulo_309963" data-name="Rect치ngulo 309963" width="110" height="110" transform="translate(-101 -7967)" fill="none"/>
    <g id="Grupo_995750" data-name="Grupo 995750" transform="translate(-94.174 -7952.321)">
      <g id="Grupo_995749" data-name="Grupo 995749" clip-path="url(#clip-path)">
        <path id="Trazado_655598" data-name="Trazado 655598" d="M26.425,118.211l2.486-2.688c1.039.663,1.515.619,2.388-.243.826-.814,1.631-1.65,2.466-2.454a7.873,7.873,0,0,1,4.567-2.2,37.982,37.982,0,0,1,4.6-.1c2.857-.019,4.093,1.278,4.108,4.137,0,.742-.246.881-.918.865-1.818-.042-3.637-.03-5.456,0a1.332,1.332,0,0,0-1.475,1.355,1.383,1.383,0,0,0,1.4,1.451c.342.033.689.019,1.034.019q7.055,0,14.11,0c1.262,0,1.677.426,1.694,1.693.006.5.006,1,0,1.5-.014,1.325-.423,1.739-1.743,1.743-2.321.006-4.641-.006-6.961.005-1.07.005-1.715.584-1.687,1.462.028.852.627,1.35,1.681,1.355,2.2.01,4.39,0,6.585,0,1.817,0,2.125.31,2.126,2.131,0,2.813-.041,2.855-2.822,2.856-2.038,0-4.076-.014-6.114.012a1.344,1.344,0,0,0-1.454,1.289,1.4,1.4,0,0,0,1.354,1.5,6.939,6.939,0,0,0,.845.022c2.2,0,4.39-.008,6.585,0,1.15.006,1.576.443,1.6,1.593.012.532.007,1.065,0,1.6-.014,1.324-.432,1.749-1.742,1.752-2.289,0-4.578,0-6.867,0-1.16,0-1.812.541-1.784,1.452.026.869.659,1.365,1.775,1.369,1.536.006,3.073-.011,4.61.006.995.011,1.44.44,1.481,1.416.027.657.02,1.317,0,1.974-.026,1.124-.42,1.547-1.537,1.548-6.177,0-12.355.033-18.531-.036a13.09,13.09,0,0,1-8.99-3.719,4.491,4.491,0,0,0-3.634-1.4c-.728.071-.95-.155-.946-.914q.052-8.039,0-16.078c0-.744.164-1.03.943-1.081a3.18,3.18,0,0,0,1.961-1.027c.627-.615,1.223-1.261,1.871-1.852a1.618,1.618,0,0,0,.373-2.324" transform="translate(-13.254 -68.841)" fill="#f5cdc0"/>
        <path id="Trazado_655599" data-name="Trazado 655599" d="M177.816,127.723q0,6.156,0,12.312c0,1.491-.541,2.03-2.042,2.04-1.41.009-2.822.022-4.231-.007a1.636,1.636,0,0,1-1.751-1.484c-.067-.362.263-.969-.253-1.047a2.132,2.132,0,0,0-1.966.295c-.136.13-.277.255-.417.38a16.728,16.728,0,0,1-11.546,4.441c-5.924-.007-11.848,0-17.772,0a4.057,4.057,0,0,1-4.438-4.427,10.873,10.873,0,0,1,.154-3.175c.117-.386-.121-.464-.385-.606a4,4,0,0,1-2.267-3.816c.025-1.637-.31-3.345.854-4.786.194-.24-.083-.385-.167-.568a7.948,7.948,0,0,1,0-6.946.819.819,0,0,0-.012-.879,7.859,7.859,0,0,1-.225-6.447,3.5,3.5,0,0,1,3.392-2.27c1.879-.056,3.762-.065,5.641-.01.767.023.923-.225.918-.944-.021-3.451,1.5-6.059,4.433-6.544,5.232-.864,10.371-.868,14.439,3.539,2.634,2.853,5.475,5.514,8.224,8.26.2.2.4.4.608.587a.626.626,0,0,0,.6.2c.3-.094.16-.366.175-.56.112-1.518.58-1.959,2.128-1.965q1.881-.007,3.762,0c1.639,0,2.147.5,2.148,2.112q0,6.156,0,12.313m-6.605,3.639c-1.147-.334-1.424-.675-1.427-1.863-.009-3.322,0-6.644-.009-9.966,0-.365.178-.839-.506-.876a4.078,4.078,0,0,1-2.67-1.419c-2.941-2.955-5.9-5.889-8.839-8.849a8.12,8.12,0,0,0-4.245-2.453,23.6,23.6,0,0,0-6.559-.134,3.063,3.063,0,0,0-2.811,2.937c-.063,3.07-.028,6.142-.032,9.213,0,.246-.045.488.346.525,2.451.229,4.136-.81,4.523-3.052a12.046,12.046,0,0,0,.039-1.783c.02-1,.486-1.573,1.313-1.623.843-.051,1.387.465,1.515,1.435a2.488,2.488,0,0,0,2.027,2.374,2.456,2.456,0,0,0,2.741-1.5c.484-.914,1.211-1.246,1.975-.9.785.354,1,1.2.563,2.177a5.286,5.286,0,0,1-7.3,2.469c-.5-.253-.688-.242-1,.264A5.953,5.953,0,0,1,147,121.113c-.334.078-.571.082-.536.63.127,1.942.569,3.952-.715,5.723-.183.253.014.391.1.58a7.774,7.774,0,0,1-.032,7.1c-.1.2-.224.336-.044.577,1.242,1.675.794,3.609.737,5.456-.019.607.1.655.6.652,3.041-.018,6.083.028,9.123-.029a13.046,13.046,0,0,0,8.788-3.51,5.1,5.1,0,0,1,4.121-1.628c.321.033.623.032.695-.409.126-.769.706-1.055,1.377-1.225,1.219.42,1.384.653,1.392,1.984,0,.564.016,1.129,0,1.692-.014.4.15.576.552.554a3.836,3.836,0,0,1,.845.006c.852.146,1.021-.216,1.016-1.025-.034-6.9-.02-13.79-.02-20.685,0-1.46,0-1.423-1.505-1.459-.692-.017-.908.163-.9.884.036,4.168.021,8.337.015,12.505,0,1.245-.218,1.52-1.391,1.876M138.747,121.3c-1.19,0-2.379-.017-3.569,0a1.291,1.291,0,0,0-1.456,1.443c-.025.719-.011,1.439,0,2.159a1.211,1.211,0,0,0,1.252,1.35q3.755.055,7.512,0a1.215,1.215,0,0,0,1.273-1.332c.015-.688.014-1.377,0-2.065-.017-1.079-.468-1.542-1.539-1.556-1.158-.015-2.316,0-3.475,0m-.009,12.767c1.189,0,2.379.015,3.567,0a1.3,1.3,0,0,0,1.452-1.447c.018-.719.016-1.439,0-2.158a1.2,1.2,0,0,0-1.264-1.331q-3.755-.042-7.509,0a1.2,1.2,0,0,0-1.26,1.332c-.016.688-.019,1.376,0,2.064.026,1.1.458,1.53,1.544,1.543,1.157.013,2.315,0,3.473,0m-.908-20.525H135.1a1.224,1.224,0,0,0-1.378,1.311c-.026.751-.029,1.5,0,2.254a1.25,1.25,0,0,0,1.424,1.365c1.848.018,3.7,0,5.545.014.432,0,.611-.1.6-.571-.03-1.252-.033-2.506,0-3.757.014-.511-.173-.64-.648-.625-.939.03-1.879.009-2.819.009m2.117,23.35v0c-.813,0-1.627-.023-2.439.006a1.192,1.192,0,0,0-1.279,1.214,25.072,25.072,0,0,0,0,2.531,1.134,1.134,0,0,0,1.21,1.171q2.532.037,5.066,0a1.174,1.174,0,0,0,1.245-1.244c.036-.748.026-1.5.006-2.25a1.3,1.3,0,0,0-1.464-1.429c-.782-.018-1.564,0-2.345,0" transform="translate(-81.468 -64.031)" fill="#040303"/>
        <path id="Trazado_655600" data-name="Trazado 655600" d="M13.17,113.488a1.618,1.618,0,0,1-.373,2.324c-.648.591-1.245,1.238-1.871,1.852a3.18,3.18,0,0,1-1.961,1.027c-.78.051-.948.336-.943,1.081q.051,8.039,0,16.078c0,.759.218.985.946.914a4.492,4.492,0,0,1,3.634,1.4,13.09,13.09,0,0,0,8.99,3.719c6.176.069,12.354.039,18.531.036,1.117,0,1.511-.424,1.537-1.548.015-.658.023-1.317,0-1.974-.04-.975-.486-1.405-1.481-1.416-1.536-.017-3.073,0-4.61-.006-1.115,0-1.749-.5-1.775-1.369-.028-.911.625-1.449,1.784-1.452,2.289-.005,4.578,0,6.867,0,1.31,0,1.728-.428,1.742-1.752.005-.533.011-1.066,0-1.6-.027-1.151-.454-1.587-1.6-1.593-2.195-.012-4.39,0-6.585,0a6.942,6.942,0,0,1-.845-.022,1.4,1.4,0,0,1-1.354-1.5,1.344,1.344,0,0,1,1.454-1.289c2.038-.026,4.076-.011,6.114-.012,2.781,0,2.823-.043,2.822-2.856,0-1.822-.309-2.131-2.126-2.131-2.2,0-4.39.006-6.585,0-1.054,0-1.653-.5-1.681-1.355-.028-.878.617-1.457,1.687-1.462,2.32-.012,4.64,0,6.961-.005,1.32,0,1.729-.418,1.743-1.743.005-.5.006-1,0-1.5-.017-1.266-.432-1.691-1.694-1.693q-7.055-.008-14.11,0c-.345,0-.692.014-1.034-.019a1.383,1.383,0,0,1-1.4-1.451,1.332,1.332,0,0,1,1.475-1.355c1.818-.027,3.638-.039,5.456,0,.672.016.922-.123.918-.865-.015-2.859-1.251-4.156-4.108-4.137a37.983,37.983,0,0,0-4.6.1,7.873,7.873,0,0,0-4.567,2.2c-.835.8-1.64,1.64-2.466,2.454-.874.862-1.349.906-2.388.243a1.626,1.626,0,0,1,.392-2.253c1.472-1.353,2.718-2.953,4.477-3.989a10.647,10.647,0,0,1,4.314-1.471,34.362,34.362,0,0,1,5.917-.071,6.132,6.132,0,0,1,5.842,6.372c.032,1.412.032,1.412,1.457,1.412,1.568,0,3.135-.016,4.7,0a4.072,4.072,0,0,1,4.237,4.186c.021,1.639.29,3.347-.848,4.791-.228.289.067.447.162.654a7.79,7.79,0,0,1,0,6.861.944.944,0,0,0,.023.995,8.112,8.112,0,0,1,.182,6.454,1.769,1.769,0,0,1-.849,1.093c-1.378.567-1.37,1.619-1.185,2.821a10.359,10.359,0,0,1,.013,1.69,4.08,4.08,0,0,1-4.4,4.4c-5.894.022-11.788.011-17.682,0a17.85,17.85,0,0,1-3.917-.4,16.7,16.7,0,0,1-7.8-4.088,2.076,2.076,0,0,0-1.373-.7c-.83-.035-1.4-.043-1.335,1.107.052.907-.647,1.46-1.606,1.482-1.567.036-3.135.039-4.7,0A1.571,1.571,0,0,1,.01,140.408c-.018-.877-.008-1.755,0-2.632.007-1.187.29-1.542,1.441-1.826,1.145.34,1.377.672,1.381,1.981,0,1.425,0,1.425,1.439,1.416a.52.52,0,0,1,.094,0c.733.126.874-.222.871-.9q-.034-10.708,0-21.416c0-.652-.173-.93-.837-.837a2.307,2.307,0,0,1-.656,0c-.734-.113-.935.17-.929.913.037,4.383,0,8.767.034,13.15a1.761,1.761,0,0,1-1.385,2.019c-.981-.19-1.446-.667-1.447-1.61q-.018-7.794,0-15.587A1.524,1.524,0,0,1,1.629,113.4q2.394-.059,4.79,0c1.04.027,1.538.642,1.63,1.792.02.245-.2.606.2.723a.781.781,0,0,0,.746-.311c.606-.59,1.2-1.2,1.8-1.789.912-.9,1.289-.95,2.381-.328" transform="translate(0 -64.118)" fill="#040404"/>
        <path id="Trazado_655601" data-name="Trazado 655601" d="M81.4,2.523c1.294.377,2.8.787,4.288,1.262a1.273,1.273,0,0,0,1.545-.392C88.071,2.461,89,1.608,89.894.733A1.68,1.68,0,0,1,92.65.707c.968.938,1.942,1.872,2.865,2.853a.959.959,0,0,0,1.146.278c1.373-.426,2.76-.809,4.143-1.2,1.306-.369,2.018.048,2.355,1.381.306,1.213.629,2.422.88,3.646a.8.8,0,0,0,.78.735c1.417.245,2.826.542,4.232.846s1.848,1.113,1.375,2.483c-.387,1.122-.777,2.244-1.209,3.349a.8.8,0,0,0,.29,1.1c1.045.8,2.05,1.649,3.056,2.5a1.642,1.642,0,0,1-.005,2.839c-.985.825-1.965,1.657-2.987,2.434a.892.892,0,0,0-.316,1.254c.443,1.066.8,2.168,1.174,3.261a1.658,1.658,0,0,1-1.384,2.485c-1.406.305-2.817.589-4.234.839a.8.8,0,0,0-.774.742c-.254,1.255-.579,2.5-.9,3.739a1.613,1.613,0,0,1-2.254,1.3c-1.266-.347-2.546-.662-3.782-1.1-.7-.245-.988-.026-1.3.554-.939,1.731-1.922,3.438-2.9,5.147-.926,1.617-2.3,1.625-3.218.021-1.026-1.79-2.06-3.577-3.048-5.388a.7.7,0,0,0-.966-.4q-1.975.6-3.963,1.149A1.621,1.621,0,0,1,79.413,36.2c-.307-1.212-.642-2.42-.875-3.647a.872.872,0,0,0-.845-.8q-2.124-.386-4.237-.826A1.615,1.615,0,0,1,72.1,28.585c.4-1.184.828-2.358,1.265-3.528a.756.756,0,0,0-.277-1.025c-1.071-.816-2.1-1.688-3.13-2.555a1.63,1.63,0,0,1,.017-2.777c.959-.806,1.91-1.626,2.911-2.377a.993.993,0,0,0,.4-1.389c-.446-1.064-.8-2.168-1.171-3.262a1.627,1.627,0,0,1,1.358-2.417c1.437-.308,2.879-.6,4.326-.858a.751.751,0,0,0,.712-.7c.271-1.284.593-2.558.918-3.83A1.659,1.659,0,0,1,81.4,2.523M98.775,6.207a19.846,19.846,0,0,0-2.079.564,2.2,2.2,0,0,1-2.678-.708c-.711-.79-1.524-1.489-2.25-2.266-.369-.4-.605-.386-.971,0-.749.8-1.574,1.528-2.317,2.333a2.156,2.156,0,0,1-2.525.67c-1.121-.389-2.278-.674-3.411-1.029-.457-.143-.679-.041-.782.451-.218,1.039-.506,2.065-.723,3.1a1.927,1.927,0,0,1-1.768,1.662c-1.05.161-2.084.429-3.135.584-.74.109-1.031.321-.671,1.114.386.851.62,1.769.962,2.641a1.765,1.765,0,0,1-.624,2.238c-.881.7-1.732,1.444-2.618,2.14-.373.293-.368.478,0,.768.911.716,1.794,1.467,2.691,2.2a1.688,1.688,0,0,1,.575,2.086c-.362.966-.662,1.954-1.036,2.915-.2.516-.193.765.455.863,1.173.177,2.329.471,3.5.676a1.827,1.827,0,0,1,1.638,1.557c.224,1.07.523,2.124.754,3.193.1.483.3.59.774.439,1.4-.441,2.818-.834,4.228-1.245A2.065,2.065,0,0,1,88.509,34.4c.877,1.6,1.8,3.179,2.776,4.888.966-1.7,1.843-3.243,2.724-4.786.751-1.315,1.214-1.5,2.685-1.073.991.287,2,.526,2.966.878.764.278,1.106.144,1.236-.7.143-.923.452-1.82.634-2.738a1.883,1.883,0,0,1,1.755-1.661c1.02-.147,2.023-.409,3.042-.562.8-.12,1.16-.357.745-1.239-.384-.816-.6-1.708-.932-2.552a1.751,1.751,0,0,1,.621-2.235c.886-.7,1.732-1.443,2.618-2.14.372-.293.374-.475,0-.77-.911-.715-1.793-1.467-2.687-2.2a1.684,1.684,0,0,1-.577-2.084c.367-.963.638-1.965,1.041-2.912.278-.655.008-.807-.547-.9-1.108-.193-2.208-.44-3.32-.615a1.9,1.9,0,0,1-1.756-1.669c-.121-.644-.308-1.275-.458-1.915-.439-1.867-.438-1.867-2.3-1.2" transform="translate(-43.106 0)" fill="#040303"/>
        <path id="Trazado_655602" data-name="Trazado 655602" d="M3.852,154.168a1.761,1.761,0,0,0,1.385-2.019c-.039-4.383,0-8.767-.034-13.15-.006-.743.195-1.026.929-.913a2.279,2.279,0,0,0,.656,0c.664-.092.839.186.837.837q-.032,10.708,0,21.417c0,.676-.138,1.025-.871.9a.518.518,0,0,0-.094,0c-1.435.009-1.435.009-1.439-1.416,0-1.309-.236-1.641-1.381-1.981q.006-1.836.013-3.673" transform="translate(-2.392 -86.009)" fill="#edbd5a"/>
        <path id="Trazado_655603" data-name="Trazado 655603" d="M193.245,139.754c-.672.17-1.251.457-1.377,1.225-.072.442-.374.442-.7.409a5.1,5.1,0,0,0-4.12,1.628,13.046,13.046,0,0,1-8.788,3.51c-3.04.058-6.082.011-9.124.029-.5,0-.614-.045-.6-.652.057-1.847.506-3.781-.737-5.456-.179-.241-.055-.377.045-.577a7.775,7.775,0,0,0,.032-7.1c-.089-.189-.286-.327-.1-.58,1.284-1.771.843-3.78.716-5.723-.036-.547.2-.551.536-.63a5.951,5.951,0,0,0,3.853-2.778c.309-.506.5-.518,1-.264a5.286,5.286,0,0,0,7.3-2.469c.441-.977.222-1.824-.563-2.177-.763-.344-1.491-.012-1.975.9a2.456,2.456,0,0,1-2.741,1.5,2.488,2.488,0,0,1-2.028-2.374c-.127-.969-.671-1.485-1.514-1.435-.827.049-1.292.622-1.313,1.623a12.049,12.049,0,0,1-.038,1.783c-.387,2.242-2.072,3.281-4.523,3.052-.391-.037-.346-.279-.346-.525,0-3.071-.031-6.143.032-9.213a3.063,3.063,0,0,1,2.811-2.937,23.6,23.6,0,0,1,6.559.134,8.118,8.118,0,0,1,4.244,2.453c2.936,2.96,5.9,5.894,8.839,8.849a4.078,4.078,0,0,0,2.67,1.419c.684.037.5.511.506.876.009,3.322,0,6.644.008,9.966,0,1.188.281,1.528,1.427,1.863q0,1.834,0,3.668" transform="translate(-103.502 -68.754)" fill="#f3be8d"/>
        <path id="Trazado_655604" data-name="Trazado 655604" d="M238.03,157.029q0-1.834,0-3.668c1.173-.356,1.389-.631,1.391-1.876.006-4.168.02-8.337-.015-12.505-.006-.721.21-.9.9-.884,1.5.036,1.505,0,1.505,1.459,0,6.9-.015,13.79.02,20.685,0,.809-.164,1.171-1.016,1.025a3.836,3.836,0,0,0-.845-.006c-.4.022-.566-.15-.552-.554.019-.563.007-1.128,0-1.692-.008-1.331-.173-1.564-1.392-1.984" transform="translate(-148.286 -86.029)" fill="#51b9ed"/>
        <path id="Trazado_655605" data-name="Trazado 655605" d="M143.6,151.876c1.158,0,2.316-.012,3.474,0,1.071.014,1.522.478,1.54,1.557.011.688.012,1.377,0,2.065a1.215,1.215,0,0,1-1.273,1.332q-3.755.053-7.511,0a1.211,1.211,0,0,1-1.252-1.351c-.011-.719-.024-1.44,0-2.159a1.291,1.291,0,0,1,1.456-1.442c1.189-.022,2.379-.005,3.569-.005" transform="translate(-86.32 -94.611)" fill="#f1cea6"/>
        <path id="Trazado_655606" data-name="Trazado 655606" d="M143.595,177.55c-1.158,0-2.316.011-3.474,0-1.086-.013-1.518-.446-1.544-1.543-.016-.688-.013-1.376,0-2.064a1.2,1.2,0,0,1,1.26-1.332q3.754-.04,7.509,0a1.2,1.2,0,0,1,1.264,1.331c.016.719.018,1.439,0,2.158a1.3,1.3,0,0,1-1.452,1.447c-1.189.02-2.378,0-3.567.005" transform="translate(-86.324 -107.519)" fill="#f9e3c4"/>
        <path id="Trazado_655607" data-name="Trazado 655607" d="M142.678,131.291c.94,0,1.881.021,2.819-.009.476-.015.662.114.648.625-.034,1.252-.031,2.505,0,3.757.011.472-.168.576-.6.571-1.848-.019-3.7,0-5.545-.014a1.25,1.25,0,0,1-1.424-1.365c-.03-.75-.026-1.5,0-2.254a1.223,1.223,0,0,1,1.377-1.311h2.726" transform="translate(-86.316 -81.785)" fill="#f8e3c4"/>
        <path id="Trazado_655608" data-name="Trazado 655608" d="M148.914,193.231c.782,0,1.564-.014,2.345,0a1.3,1.3,0,0,1,1.464,1.429c.02.75.03,1.5-.006,2.25a1.174,1.174,0,0,1-1.245,1.244q-2.533.036-5.066,0a1.134,1.134,0,0,1-1.21-1.171,25.081,25.081,0,0,1,0-2.531,1.191,1.191,0,0,1,1.279-1.214c.812-.029,1.626-.006,2.439-.006Z" transform="translate(-90.434 -120.375)" fill="#f5d1a9"/>
        <path id="Trazado_655609" data-name="Trazado 655609" d="M92.907,38.951c-1.41.412-2.827.8-4.228,1.246-.478.15-.67.043-.775-.44-.231-1.069-.53-2.123-.754-3.193a1.827,1.827,0,0,0-1.638-1.557c-1.17-.206-2.325-.5-3.5-.676-.648-.1-.656-.347-.455-.864.374-.96.674-1.949,1.036-2.915a1.688,1.688,0,0,0-.575-2.086c-.9-.732-1.78-1.484-2.691-2.2-.37-.29-.374-.475,0-.768.886-.7,1.737-1.438,2.618-2.14a1.766,1.766,0,0,0,.624-2.238c-.342-.872-.576-1.791-.963-2.641-.36-.793-.069-1.006.671-1.114,1.051-.155,2.085-.423,3.135-.584a1.927,1.927,0,0,0,1.768-1.662c.217-1.039.505-2.064.723-3.1.1-.492.325-.594.782-.451,1.134.354,2.29.639,3.411,1.029a2.157,2.157,0,0,0,2.525-.67c.743-.8,1.568-1.533,2.317-2.333.366-.39.6-.4.971,0,.727.778,1.539,1.476,2.25,2.266a2.2,2.2,0,0,0,2.678.708,19.854,19.854,0,0,1,2.079-.565c.11.241.346.222.552.288a2.123,2.123,0,0,1,1.528,2.982c-.166.5-.349,1-.515,1.508a2.129,2.129,0,0,0,.8,2.552,10.912,10.912,0,0,1,1.646,1.529,1.782,1.782,0,0,1-.039,2.6,10.051,10.051,0,0,1-1.452,1.324,2.272,2.272,0,0,0-.929,2.776c.164.57.351,1.135.561,1.689a1.872,1.872,0,0,1-.462,1.972c-.833,1.036-2.085.886-3.173,1.138a2.511,2.511,0,0,0-2.155,1.926c-.153.636-.3,1.272-.469,1.905a2.143,2.143,0,0,1-2.593,1.568c-.545-.133-1.076-.322-1.62-.461-2.061-.529-2.7-.236-3.686,1.66m5.951-15.6c0-1.222.016-2.444,0-3.665-.018-1.068-.6-1.734-1.457-1.716a1.486,1.486,0,0,0-1.4,1.674q-.029,3.618,0,7.236c.008,1.071.6,1.734,1.454,1.716s1.39-.672,1.406-1.767c.017-1.159,0-2.318,0-3.477m-1.4,10.415a1.39,1.39,0,0,0,1.361-1.391,1.4,1.4,0,1,0-2.8.08,1.394,1.394,0,0,0,1.439,1.311" transform="translate(-49.245 -5.789)" fill="#e8555a"/>
        <path id="Trazado_655610" data-name="Trazado 655610" d="M115.805,42.746c.981-1.9,1.625-2.189,3.686-1.66.544.139,1.075.328,1.62.461a2.144,2.144,0,0,0,2.593-1.567c.165-.633.316-1.269.469-1.905a2.511,2.511,0,0,1,2.155-1.926c1.089-.253,2.341-.1,3.174-1.138a1.873,1.873,0,0,0,.462-1.972c-.21-.555-.4-1.12-.561-1.69a2.272,2.272,0,0,1,.929-2.775,10.05,10.05,0,0,0,1.452-1.324,1.782,1.782,0,0,0,.039-2.6,10.889,10.889,0,0,0-1.646-1.529,2.129,2.129,0,0,1-.8-2.552c.166-.5.35-1,.516-1.507a2.123,2.123,0,0,0-1.528-2.983c-.206-.066-.442-.047-.552-.287,1.861-.668,1.86-.667,2.3,1.2.15.639.337,1.271.458,1.915a1.9,1.9,0,0,0,1.756,1.669c1.111.175,2.211.422,3.32.615.555.1.825.25.547.9-.4.947-.674,1.949-1.041,2.912a1.684,1.684,0,0,0,.577,2.084c.894.736,1.776,1.488,2.687,2.2.375.294.374.477,0,.77-.886.7-1.731,1.444-2.618,2.14a1.751,1.751,0,0,0-.621,2.234c.33.844.548,1.736.932,2.552.415.881.055,1.119-.745,1.239-1.019.153-2.022.415-3.043.562a1.883,1.883,0,0,0-1.755,1.661c-.182.919-.491,1.815-.634,2.738-.131.845-.472.978-1.236.7-.967-.352-1.976-.591-2.966-.878-1.472-.426-1.935-.242-2.685,1.073-.881,1.542-1.758,3.087-2.724,4.786-.974-1.709-1.9-3.285-2.775-4.888a2.065,2.065,0,0,0-1.743-1.236" transform="translate(-72.144 -9.584)" fill="#e44142"/>
        <path id="Trazado_655611" data-name="Trazado 655611" d="M126.834,37.7c0,1.159.013,2.318,0,3.477-.016,1.1-.552,1.749-1.406,1.767s-1.446-.645-1.454-1.716q-.027-3.618,0-7.236a1.486,1.486,0,0,1,1.4-1.674c.853-.017,1.439.648,1.457,1.717.02,1.222,0,2.443,0,3.665" transform="translate(-77.222 -20.132)" fill="#0d0505"/>
        <path id="Trazado_655612" data-name="Trazado 655612" d="M125.5,69.574a1.394,1.394,0,0,1-1.439-1.311,1.4,1.4,0,1,1,2.8-.08,1.39,1.39,0,0,1-1.361,1.391" transform="translate(-77.288 -41.592)" fill="#070303"/>
      </g>
    </g>
  </g>
</svg>
