<svg xmlns="http://www.w3.org/2000/svg" xmlns:xlink="http://www.w3.org/1999/xlink" width="85" height="85" viewBox="0 0 85 85">
  <defs>
    <clipPath id="clip-path">
      <rect id="Rect치ngulo_309967" data-name="Rect치ngulo 309967" width="71.812" height="71.747" fill="none"/>
    </clipPath>
  </defs>
  <g id="Grupo_995575" data-name="Grupo 995575" transform="translate(-1335 -6589)">
    <rect id="Rect치ngulo_309092" data-name="Rect치ngulo 309092" width="85" height="85" transform="translate(1335 6589)" fill="none"/>
    <g id="Grupo_995758" data-name="Grupo 995758" transform="translate(1341.594 6595.627)">
      <g id="Grupo_995757" data-name="Grupo 995757" clip-path="url(#clip-path)">
        <path id="Trazado_655649" data-name="Trazado 655649" d="M71.765,16.547c0,.607-.016,1.215.023,1.819.028.423-.147.513-.523.491-.465-.026-.934.007-1.4-.01-.3-.011-.429.106-.4.407.013.139,0,.28,0,.42q0,14.74-.011,29.479a1.275,1.275,0,0,0,.565,1.152,4.693,4.693,0,0,1,1.776,3.64,16.3,16.3,0,0,1-.905,5.416,1.073,1.073,0,0,0,.137.967,4.576,4.576,0,0,1-3.5,7.068c-.219.023-.454-.038-.521.312a8.169,8.169,0,0,1-4.2,5.75,9.408,9.408,0,0,1,4.132,5.876,19.642,19.642,0,0,1,.223,3.973c.006.251-.09.333-.326.314-.163-.013-.327,0-.49,0q-30.43,0-60.859.018c-.686,0-.836-.168-.82-.832a14.2,14.2,0,0,1,.494-4.425,9.508,9.508,0,0,1,3.881-4.922,8.159,8.159,0,0,1-4.2-5.69c-.063-.314-.214-.359-.47-.372A4.578,4.578,0,0,1,.606,60.684a.741.741,0,0,0,.017-.657,9.878,9.878,0,0,1,1.516-9.393,1.24,1.24,0,0,0,.234-.78q-.005-15.229.006-30.46c0-.428-.114-.562-.548-.556-.576.008-1.364.27-1.673-.109-.29-.356-.089-1.113-.1-1.694,0-.163.008-.326.013-.489.186-.006.373-.017.559-.017H71.206c.186,0,.373.011.559.017m-26.6,41.727c0-1.736.008-3.159,0-4.581a1.161,1.161,0,0,0-1.292-1.3A25.43,25.43,0,0,1,32.048,49.5c-.3-.153-.464-.154-.685.127A11.224,11.224,0,0,1,27.058,53a.587.587,0,0,0-.4.634c.013,2.752-.02,5.5.02,8.256a8.073,8.073,0,0,0,5.249,7.332,13.68,13.68,0,0,0,5.6.5,8.051,8.051,0,0,0,7.512-6.729,43.056,43.056,0,0,0,.126-4.714M34.4,42a38.877,38.877,0,0,0-5.237.156,8.894,8.894,0,0,0-6.775,11.362c.084.313.183.405.521.281.431-.159,1.034-.093,1.307-.373.315-.324.107-.934.1-1.417a.534.534,0,0,1,.447-.594,9.878,9.878,0,0,0,5.8-4.663c.279-.475.507-.5.958-.215a23.452,23.452,0,0,0,7.269,2.988,38.75,38.75,0,0,0,5.622.606,2.971,2.971,0,0,1,2.817,2.254,1.668,1.668,0,0,0,1.527,1.388c.585.132.647-.074.75-.495a20.094,20.094,0,0,0,.279-4.945A8.56,8.56,0,0,0,47.3,42.277c-.613-.64-1.274-1.236-1.867-1.893a.749.749,0,0,0-1.074-.179,14.183,14.183,0,0,1-4.021,1.563A38.351,38.351,0,0,1,34.4,42m32.752,7.084V43.907q0-12.147.012-24.294c0-.564-.061-.8-.73-.783-1.842.058-3.688.045-5.531.005-.6-.013-.716.191-.715.751q.027,13.092.012,26.185c0,1.422,0,1.426,1.379,1.8,1.837.5,3.677,1,5.572,1.508M4.682,48.266a10.485,10.485,0,0,1,6.527-1.643c.5.026.424-.3.424-.594q0-13.294.012-26.588c0-.525-.2-.6-.649-.6-1.843.021-3.686.034-5.528-.005-.611-.013-.8.117-.8.777q.037,13.924.017,27.847v.8M13.933,32.7c0,4.408.008,8.816-.011,13.224,0,.523.092.722.673.7a13.215,13.215,0,0,1,5.382.591c.162.064.319.12.383-.116a6.5,6.5,0,0,0,.543-1.782q-.026-12.909,0-25.819c0-.514-.115-.679-.652-.669-1.866.034-3.733.037-5.6,0-.568-.012-.738.115-.735.714.029,4.384.015,8.769.015,13.154M52.074,47.485a11.642,11.642,0,0,1,5.288-.815c.527.044.548-.167.548-.574q-.012-13.331.006-26.661c0-.52-.177-.6-.637-.594-1.889.024-3.78.036-5.669-.005-.59-.013-.676.2-.675.718q.022,11.686.009,23.373a1.812,1.812,0,0,0,.122.819,11.187,11.187,0,0,1,1.007,3.741M23.184,42.6c.116-.022.171-.015.2-.04a10.834,10.834,0,0,1,6.337-2.809c.388-.035.431-.228.43-.551q-.01-9.906,0-19.812c0-.431-.12-.557-.55-.552q-2.941.032-5.881,0c-.425,0-.55.108-.549.545.013,7.724.01,15.447.01,23.219m9.253-13.358q0,4.9,0,9.8c0,.32-.084.632.46.622,1.96-.037,3.921-.033,5.881-.023.471,0,.634-.14.633-.641q-.026-9.766,0-19.532c0-.562-.193-.641-.681-.634-1.843.026-3.688.034-5.531,0-.587-.012-.791.1-.783.75.04,3.22.018,6.44.018,9.661M48.548,40.266c.066-.144.1-.182.1-.219q0-10.364.015-20.728c0-.449-.2-.475-.547-.473-1.961.01-3.922.017-5.883,0-.429,0-.553.118-.552.551q.02,9.489,0,18.978c0,.549.186.507.562.315.89-.456,1.8-.867,2.681-1.348a.609.609,0,0,1,.876.153c.885.926,1.8,1.824,2.748,2.777M20.89,64.221c0-.989.01-1.806,0-2.623a1.008,1.008,0,0,0-1.111-1.1c-2.287,0-4.574,0-6.862,0a3.108,3.108,0,0,1-2.945-1.555c-.429-.822-.994-.818-1.694-.777-.83.049-1.259.442-1.262,1.269-.01,2.4-.05,4.808.033,7.209a5.612,5.612,0,0,0,4.323,5.218,14.642,14.642,0,0,0,4.043.151,5.671,5.671,0,0,0,5.265-4.273,15.349,15.349,0,0,0,.215-3.517m43.942-.1c0-1.087-.05-1.977.017-2.859.051-.677-.209-.788-.813-.777-1.959.036-3.919.009-5.879.015a3.5,3.5,0,0,1-3.109-1.554c-.2-.294-.356-.346-.668-.21-.661.287-1.344.523-2,.812a2.39,2.39,0,0,0-1.392,2.06,40.686,40.686,0,0,0-.026,4.685,5.738,5.738,0,0,0,4.636,5.632,15.839,15.839,0,0,0,3.77.09,5.684,5.684,0,0,0,5.287-4.334,17.5,17.5,0,0,0,.182-3.561M13.659,48.9c-1.262,0-2.289-.022-3.315,0a7.877,7.877,0,0,0-7.879,9.048c.049.426.127.716.736.492a4.629,4.629,0,0,0,2.521-1.57,4.093,4.093,0,0,1,.422-.367,3.676,3.676,0,0,1,2.589-.635.966.966,0,0,0,1.1-.59,3.25,3.25,0,0,1,2.495-1.719c1.51-.26,1.608-.184,1.608,1.332,0,.955,0,.955-.96.975-.84.017-1.3.409-1.313,1.121s.439,1.148,1.273,1.152c2.076.01,4.152-.01,6.228.015.44.005.578-.177.611-.554a3.659,3.659,0,0,1,.534-1.648,1.091,1.091,0,0,0,.093-1.047,11,11,0,0,1-.662-4.393c.056-.8-.215-1.1-.9-1.232-.182-.036-.36-.095-.54-.139a21.9,21.9,0,0,0-4.64-.245M69.437,54.85c0-2.292-.375-2.841-2.3-3.37-2.76-.761-5.518-1.525-8.288-2.248a9.414,9.414,0,0,0-6.151.5.779.779,0,0,0-.579.82,13.26,13.26,0,0,1-.715,4.46.892.892,0,0,0-.041.674c.611,1.507.607,1.509,2.138.908a3.093,3.093,0,0,1,.39-.151,1.205,1.205,0,0,0,.843-.822,3.4,3.4,0,0,1,2.719-2.056c1.492-.254,1.583-.18,1.583,1.291,0,.993,0,.993-.987,1.019-.766.02-1.217.376-1.28,1.01-.076.76.423,1.261,1.3,1.264,2.262.009,4.524-.011,6.786.01a12.542,12.542,0,0,1,3.545.2c.281.084.374-.056.433-.3a9.945,9.945,0,0,0,.6-3.216M40.35,73.379c-.058.144-.083.208-.111.272a4.464,4.464,0,0,1-4.236,3A4.362,4.362,0,0,1,31.68,73.8c-.207-.472-.376-.31-.629-.112a8.236,8.236,0,0,0-3.258,6.734c-.009.679.12.9.859.893,4.715-.039,9.43-.02,14.145-.02,1.254,0,1.271,0,1.221-1.259a8.136,8.136,0,0,0-3.669-6.659m.878-2.179c.222.148.4.258.57.381a10.2,10.2,0,0,1,4.493,7.983c.109,1.816.074,1.807,1.893,1.744.354-.012.475-.1.489-.469a8.7,8.7,0,0,1,.211-1.587,9.3,9.3,0,0,1,4.109-5.794,8,8,0,0,1-4.05-5.134c-.158-.637-.334-1.038-1.092-.976-.634.052-1.255-.738-1.758-.419s-.749,1.033-1.173,1.531A10.989,10.989,0,0,1,41.229,71.2M18.844,73.455a9.433,9.433,0,0,1,4.241,6.43c.079.463-.154,1.127.262,1.347s1,.029,1.512.075.7-.1.672-.645a9.627,9.627,0,0,1,.225-2.777A10.555,10.555,0,0,1,30.607,71.2a10.053,10.053,0,0,1-4.291-3.531c-.454-.7-.768-.745-1.625-.58-1.345.258-1.735.967-2.1,2.109a7.6,7.6,0,0,1-3.747,4.26m39.017,7.839h6.018c1.009,0,1.009,0,.883-.991a6.939,6.939,0,0,0-13.772.348c-.048.567.144.657.644.652,2.076-.023,4.152-.01,6.228-.01m-43.93,0h5.39c1.778,0,1.778,0,1.32-1.767a6.935,6.935,0,0,0-13.573.806c-.114.96-.114.961.773.961h6.09M69.455,62.83A2.344,2.344,0,0,0,67.6,60.524c-.311-.052-.461-.007-.455.368q.031,1.919,0,3.839c-.006.386.144.405.46.338a2.322,2.322,0,0,0,1.848-2.239M4.682,62.75c0-.582-.031-1.166.01-1.745.033-.464-.128-.567-.552-.463a2.326,2.326,0,0,0,.114,4.537c.36.072.443-.038.433-.374-.019-.651-.006-1.3-.006-1.955M47.5,58.184c0,.606.015,1.212-.006,1.817-.014.4.078.538.516.425a2.318,2.318,0,0,0,.063-4.5c-.39-.1-.616-.065-.584.438.04.6.01,1.211.01,1.817m-23.155-.015c0-.583-.029-1.167.009-1.747.031-.491-.131-.62-.6-.49a2.319,2.319,0,0,0,.093,4.5c.367.088.515.033.5-.372-.021-.628-.006-1.258-.005-1.887M35.974,72.047A10.864,10.864,0,0,0,34,72.283c-.308.068-.354.211-.268.5a2.3,2.3,0,0,0,4.36.031c.109-.319.054-.463-.288-.537a12.493,12.493,0,0,0-1.829-.227m12.677-9.4c-.444.078-1.052.025-1.164.236a2.678,2.678,0,0,0-.3,1.6c.07.411.68.482,1.1.6.278.077.37-.039.365-.315-.012-.694,0-1.388,0-2.122m-25.467.039c0,.6-.026,1.2.014,1.795.014.207-.253.615.272.616s1.242-.465,1.237-.8c-.013-1.113-.307-1.455-1.391-1.616a.95.95,0,0,0-.132.009" transform="translate(0 -11.89)" fill="#020202"/>
        <path id="Trazado_655650" data-name="Trazado 655650" d="M.214,2.364C.2,1.712.2,1.059.175.408.161.106.25-.027.563.014a3.217,3.217,0,0,0,.42,0Q36.042.017,71.1,0c.679,0,.9.155.814.828a14.186,14.186,0,0,0-.045,1.535c-.186-.006-.372-.017-.559-.017H.773c-.186,0-.372.012-.559.018" transform="translate(-0.125 0)" fill="#040505"/>
        <path id="Trazado_655651" data-name="Trazado 655651" d="M.27,8.375c.186-.006.372-.018.559-.018H71.368c.186,0,.373.011.559.017q.01,1.147.019,2.294c-.186-.006-.373-.017-.559-.017H.81c-.186,0-.373.011-.559.017Q.261,9.521.27,8.375" transform="translate(-0.181 -6.011)" fill="#969ea8"/>
        <path id="Trazado_655652" data-name="Trazado 655652" d="M113.5,142.513a42.981,42.981,0,0,1-.125,4.714,8.051,8.051,0,0,1-7.512,6.729,13.68,13.68,0,0,1-5.6-.5,8.074,8.074,0,0,1-5.249-7.332c-.04-2.751-.008-5.5-.02-8.256a.587.587,0,0,1,.4-.635,11.226,11.226,0,0,0,4.305-3.369c.221-.282.389-.281.685-.128a25.429,25.429,0,0,0,11.825,2.889,1.161,1.161,0,0,1,1.292,1.3c.011,1.422,0,2.845,0,4.581m-12.62,9.145c.581.115,1.063.04,1.286-.877a1.966,1.966,0,0,1,2.027-1.416,2.033,2.033,0,0,1,2.127,1.374c.218.929.736,1,1.47.921a2.291,2.291,0,0,1,.558,0c.442.062.56-.107.509-.543a4.639,4.639,0,0,0-9.062-.727c-.35,1.242-.333,1.266,1.084,1.266m8.959-10.391c.23-.167.377-.275.525-.38.471-.333,1.3-.64,1.326-1.005.035-.482-.578-1-.873-1.524-.215-.382-.4-.3-.7-.1q-1.987,1.357-4,2.67c-.378.245-.458.366-.017.642,1,.628,1.978,1.306,2.965,1.964,1.581,1.053,1.571,1.047,2.562-.588.183-.3.128-.42-.143-.588-.532-.328-1.042-.692-1.639-1.093m-11.886,3.262c.165-.106.224-.143.282-.181,1.433-.955,2.863-1.914,4.3-2.86.322-.212.2-.333-.035-.489q-2.125-1.408-4.241-2.828c-.216-.145-.322-.139-.5.081-1.246,1.536-1.253,1.531.338,2.6a.407.407,0,0,0,.058.038c.6.274.406.506-.027.755a6.194,6.194,0,0,0-.928.619c-.161.136-.6.155-.405.5.348.61.769,1.178,1.158,1.762" transform="translate(-68.329 -96.129)" fill="#e8ceb5"/>
        <path id="Trazado_655653" data-name="Trazado 655653" d="M90.855,102.293a38.353,38.353,0,0,0,5.933-.229,14.183,14.183,0,0,0,4.021-1.563.748.748,0,0,1,1.074.179c.593.657,1.254,1.253,1.867,1.893a8.56,8.56,0,0,1,2.488,6.054,20.108,20.108,0,0,1-.279,4.945c-.1.421-.165.627-.75.495a1.668,1.668,0,0,1-1.527-1.388,2.972,2.972,0,0,0-2.817-2.254,38.712,38.712,0,0,1-5.622-.606,23.438,23.438,0,0,1-7.269-2.988c-.45-.283-.679-.259-.958.215a9.878,9.878,0,0,1-5.8,4.662.534.534,0,0,0-.447.594c0,.483.212,1.093-.1,1.417-.273.28-.876.215-1.307.373-.338.124-.437.032-.521-.281a8.894,8.894,0,0,1,6.775-11.362,38.831,38.831,0,0,1,5.237-.156" transform="translate(-56.453 -72.185)" fill="#a87a4d"/>
        <path id="Trazado_655654" data-name="Trazado 655654" d="M38.814,170.889a15.319,15.319,0,0,1-.215,3.517,5.67,5.67,0,0,1-5.265,4.273,14.653,14.653,0,0,1-4.043-.151,5.611,5.611,0,0,1-4.323-5.218c-.082-2.4-.043-4.806-.033-7.209,0-.828.432-1.221,1.262-1.27.7-.041,1.266-.045,1.694.777a3.108,3.108,0,0,0,2.945,1.556c2.287.007,4.574,0,6.862,0a1.008,1.008,0,0,1,1.112,1.1c.014.817,0,1.634,0,2.623m-9.228,5.528c.513-.032,1.065.169,1.376-.655a1.046,1.046,0,0,1,1.861.089c.228.606.578.589,1.044.569a7.613,7.613,0,0,1,1.046,0c.426.04.443-.165.393-.5a3.472,3.472,0,0,0-6.678-.771c-.452,1.165-.386,1.264.85,1.264h.108" transform="translate(-17.924 -118.558)" fill="#e8cfb5"/>
        <path id="Trazado_655655" data-name="Trazado 655655" d="M195.288,172.108a17.524,17.524,0,0,1-.182,3.561A5.685,5.685,0,0,1,189.819,180a15.837,15.837,0,0,1-3.77-.091,5.737,5.737,0,0,1-4.636-5.632,40.625,40.625,0,0,1,.026-4.685,2.39,2.39,0,0,1,1.392-2.06c.66-.289,1.344-.524,2-.812.312-.136.468-.084.668.21a3.5,3.5,0,0,0,3.109,1.554c1.96-.007,3.92.021,5.878-.015.6-.011.864.1.813.777-.067.881-.016,1.771-.016,2.859m-9.216,5.628c.564-.018,1.1.154,1.408-.683a1.028,1.028,0,0,1,1.815.087c.234.65.616.61,1.1.6a8.365,8.365,0,0,1,.907,0c.414.035.569-.051.488-.533a3.47,3.47,0,0,0-6.6-.9c-.563,1.255-.457,1.424.89,1.425" transform="translate(-130.457 -119.877)" fill="#e8cfb5"/>
        <path id="Trazado_655656" data-name="Trazado 655656" d="M19.8,131.858a21.9,21.9,0,0,1,4.64.245c.18.045.358.1.54.139.682.136.953.436.9,1.232a11,11,0,0,0,.661,4.393,1.09,1.09,0,0,1-.092,1.047,3.656,3.656,0,0,0-.534,1.648c-.033.377-.172.56-.611.554-2.076-.025-4.152,0-6.228-.015-.834,0-1.288-.434-1.273-1.152s.473-1.1,1.313-1.121c.96-.02.96-.02.96-.975,0-1.515-.1-1.591-1.608-1.332a3.25,3.25,0,0,0-2.495,1.719.967.967,0,0,1-1.1.59,3.674,3.674,0,0,0-2.589.635,4.062,4.062,0,0,0-.422.367,4.63,4.63,0,0,1-2.521,1.57c-.609.224-.687-.066-.736-.492a7.877,7.877,0,0,1,7.879-9.048c1.026-.026,2.053,0,3.315,0" transform="translate(-6.139 -94.843)" fill="#656c76"/>
        <path id="Trazado_655657" data-name="Trazado 655657" d="M200.959,137.885a9.952,9.952,0,0,1-.6,3.216c-.059.239-.152.38-.433.3a12.543,12.543,0,0,0-3.545-.2c-2.262-.021-4.524,0-6.786-.01-.878,0-1.378-.5-1.3-1.264.063-.634.514-.99,1.28-1.01.987-.026.987-.026.987-1.019,0-1.47-.091-1.545-1.583-1.291a3.4,3.4,0,0,0-2.72,2.056,1.2,1.2,0,0,1-.843.822,3.108,3.108,0,0,0-.39.151c-1.531.6-1.527.6-2.138-.908a.89.89,0,0,1,.041-.674,13.267,13.267,0,0,0,.715-4.46.779.779,0,0,1,.578-.82,9.415,9.415,0,0,1,6.151-.5c2.77.723,5.529,1.487,8.288,2.248,1.92.529,2.3,1.078,2.3,3.37" transform="translate(-131.522 -94.926)" fill="#656c76"/>
        <path id="Trazado_655658" data-name="Trazado 655658" d="M111.582,219.078a8.136,8.136,0,0,1,3.669,6.659c.05,1.258.033,1.259-1.221,1.259-4.715,0-9.43-.019-14.145.02-.739.006-.868-.214-.859-.893a8.236,8.236,0,0,1,3.258-6.734c.253-.2.422-.36.629.113a4.362,4.362,0,0,0,4.323,2.85,4.465,4.465,0,0,0,4.236-3c.027-.063.052-.128.11-.272" transform="translate(-71.232 -157.589)" fill="#f3d57e"/>
        <path id="Trazado_655661" data-name="Trazado 655661" d="M188.526,229.547c-2.076,0-4.152-.013-6.228.01-.5.005-.692-.085-.644-.652a6.939,6.939,0,0,1,13.772-.348c.126.99.126.991-.883.991h-6.018" transform="translate(-130.664 -160.143)" fill="#ed8773"/>
        <path id="Trazado_655662" data-name="Trazado 655662" d="M31.915,229.535h-6.09c-.886,0-.886,0-.772-.961a6.935,6.935,0,0,1,13.572-.806c.458,1.767.458,1.767-1.32,1.767Z" transform="translate(-17.983 -160.13)" fill="#6dbde3"/>
        <path id="Trazado_655663" data-name="Trazado 655663" d="M241.541,175.538a2.322,2.322,0,0,1-1.848,2.239c-.315.067-.465.049-.46-.338q.029-1.919,0-3.839c-.006-.375.144-.42.455-.368a2.344,2.344,0,0,1,1.854,2.307" transform="translate(-172.087 -124.597)" fill="#e8ceb5"/>
        <path id="Trazado_655664" data-name="Trazado 655664" d="M10.785,175.455c0,.652-.013,1.3.006,1.955.01.337-.073.447-.433.374a2.326,2.326,0,0,1-.114-4.537c.424-.1.584,0,.552.463-.041.579-.01,1.163-.01,1.745" transform="translate(-6.103 -124.595)" fill="#e8ceb5"/>
        <path id="Trazado_655665" data-name="Trazado 655665" d="M169.187,159.045c0-.606.03-1.214-.009-1.817-.033-.5.194-.538.583-.438a2.318,2.318,0,0,1-.063,4.5c-.438.113-.53-.026-.516-.425.021-.605.005-1.211.005-1.817" transform="translate(-121.692 -112.751)" fill="#e8ceb5"/>
        <path id="Trazado_655666" data-name="Trazado 655666" d="M80.838,159.03c0,.629-.015,1.259.005,1.887.013.4-.135.46-.5.372a2.319,2.319,0,0,1-.092-4.5c.467-.13.63,0,.6.49-.037.58-.009,1.164-.009,1.747" transform="translate(-56.498 -112.752)" fill="#e8ceb5"/>
        <path id="Trazado_655667" data-name="Trazado 655667" d="M122.322,214.332a12.487,12.487,0,0,1,1.829.227c.342.074.4.218.288.537a2.3,2.3,0,0,1-4.36-.031c-.086-.286-.04-.429.268-.5a10.892,10.892,0,0,1,1.976-.236" transform="translate(-86.348 -154.175)" fill="#e8ceb5"/>
        <path id="Trazado_655668" data-name="Trazado 655668" d="M169.517,180.853c0,.733-.008,1.428,0,2.122,0,.275-.087.392-.365.314-.424-.118-1.034-.188-1.1-.6a2.684,2.684,0,0,1,.3-1.6c.112-.211.72-.158,1.164-.236" transform="translate(-120.866 -130.093)" fill="#e8ceb5"/>
        <path id="Trazado_655669" data-name="Trazado 655669" d="M82.5,180.965a.946.946,0,0,1,.132-.009c1.085.161,1.378.5,1.391,1.616,0,.339-.706.8-1.237.8s-.258-.408-.272-.616c-.041-.6-.014-1.2-.014-1.795" transform="translate(-59.312 -130.167)" fill="#e8ceb5"/>
        <path id="Trazado_655670" data-name="Trazado 655670" d="M112.7,185.983c-1.416,0-1.434-.024-1.084-1.266a4.639,4.639,0,0,1,9.062.727c.051.436-.067.605-.509.543a2.291,2.291,0,0,0-.558,0c-.734.079-1.253.008-1.47-.921a2.033,2.033,0,0,0-2.127-1.374,1.966,1.966,0,0,0-2.027,1.416c-.223.916-.706.992-1.286.877" transform="translate(-80.152 -130.453)" fill="#040403"/>
        <path id="Trazado_655671" data-name="Trazado 655671" d="M137.518,152.679c.6.4,1.107.765,1.639,1.093.271.168.326.286.143.588-.991,1.635-.981,1.641-2.562.588-.987-.657-1.96-1.335-2.965-1.964-.441-.276-.361-.4.017-.642q2.019-1.308,4-2.67c.3-.2.487-.285.7.1.3.525.909,1.042.873,1.524-.027.366-.855.672-1.326,1.005-.148.105-.295.213-.525.38" transform="translate(-96.011 -107.541)" fill="#040403"/>
        <path id="Trazado_655672" data-name="Trazado 655672" d="M102.439,155.9c-.389-.584-.81-1.152-1.158-1.762-.2-.348.244-.367.405-.5a6.194,6.194,0,0,1,.928-.619c.433-.249.632-.481.027-.755a.411.411,0,0,1-.058-.038c-1.591-1.069-1.585-1.064-.338-2.6.179-.22.285-.226.5-.081q2.114,1.423,4.241,2.828c.235.156.357.277.035.489-1.439.946-2.869,1.906-4.3,2.86-.058.038-.117.075-.282.181" transform="translate(-72.818 -107.498)" fill="#040403"/>
        <path id="Trazado_655673" data-name="Trazado 655673" d="M38.438,197.2H38.33c-1.236,0-1.3-.1-.85-1.264a3.472,3.472,0,0,1,6.678.771c.051.334.033.539-.393.5a7.613,7.613,0,0,0-1.046,0c-.466.02-.817.036-1.044-.569a1.046,1.046,0,0,0-1.861-.089c-.312.824-.863.623-1.376.655" transform="translate(-26.776 -139.338)" fill="#040403"/>
        <path id="Trazado_655674" data-name="Trazado 655674" d="M195.046,197.2c-1.348,0-1.454-.17-.89-1.424a3.47,3.47,0,0,1,6.6.9c.082.482-.074.568-.488.533a8.279,8.279,0,0,0-.907,0c-.481.012-.862.053-1.1-.6a1.028,1.028,0,0,0-1.815-.087c-.3.837-.843.665-1.408.683" transform="translate(-139.431 -139.337)" fill="#040403"/>
      </g>
    </g>
  </g>
</svg>
