<svg xmlns="http://www.w3.org/2000/svg" xmlns:xlink="http://www.w3.org/1999/xlink" width="295" height="257" viewBox="0 0 295 257">
  <defs>
    <clipPath id="clip-path">
      <rect id="Rectángulo_309889" data-name="Rectángulo 309889" width="258.775" height="257" fill="none"/>
    </clipPath>
  </defs>
  <g id="Grupo_995682" data-name="Grupo 995682" transform="translate(-915 -2347)">
    <g id="Grupo_995681" data-name="Grupo 995681" transform="translate(935 2347)">
      <g id="Grupo_995680" data-name="Grupo 995680" clip-path="url(#clip-path)">
        <path id="Trazado_654466" data-name="Trazado 654466" d="M164.289,52.271a42.176,42.176,0,0,0-4.426,12.578L142.175,61.89s1.068-8.605,3.1-12.041,19.009,2.422,19.009,2.422" transform="translate(78.54 26.941)" fill="#e8b47b"/>
        <path id="Trazado_654467" data-name="Trazado 654467" d="M124.4,26.561c-.858,1.008-1.832,1.346-2.911,2.737-.692.467-1.479,1.478-.962,3.628.635,2.656,2.125,3.055,2.821,3.089a4.645,4.645,0,0,0,1.942.638c1.348.106,1.807-.3,3.066-.25,1.616.067,4.291.821,4.514-.338.238-1.233-3.758-1.785-3.92-1.882.144.011,5.354-.916,5.426-1.992s-5.041-.633-5.328-.7c.3-.017,5.118-1.043,5.053-2.45s-5.323-.214-5.649-.179c.219-.124,3.789-1.978,3.235-2.979-.491-.883-2.593.414-5.128,1.122.093-.185.267-.623.356-.824.523-1.166.27-2.5-.4-2.647s-.953,1.664-2.117,3.027" transform="translate(66.489 12.996)" fill="#e8b47b"/>
        <path id="Trazado_654468" data-name="Trazado 654468" d="M64.776,70.875c-3.078,5.255-5.323,8.211-5.022,11.249.233,2.344,2.173,5.188,5.187,4.761,4.255-.6,8.771-9.743,8.771-9.743Z" transform="translate(32.994 39.153)" fill="#f4e8d0"/>
        <path id="Trazado_654469" data-name="Trazado 654469" d="M87.983,84.28a4.05,4.05,0,0,0-2.95,4.089c.2,1.642,1.68,3.549,2.462,5.09s1.417,3.914,2.47,6.235,2.585,4.628,4.912,4.325,3.394-2.473,3.54-4.375a35.259,35.259,0,0,0-.675-7.23c-.31-1.424-4.393-10.1-9.758-8.135" transform="translate(46.962 46.399)" fill="#f4e8d0"/>
        <path id="Trazado_654470" data-name="Trazado 654470" d="M124.784,129.039c-5.8,9.743-10.291,26.273-14.122,37.111s-7.444,20.691-7.444,20.691h57.036s.438-6.677,6.02-16.311,9.634-21.128,8.649-35.249-50.139-6.241-50.139-6.241" transform="translate(57.02 70.073)" fill="#f46464"/>
        <path id="Trazado_654471" data-name="Trazado 654471" d="M34.522,41.113c3.148,10.614,7.781,17,6.88,26.759S28.181,79.745,23.908,72.64,23.1,54.47,23.1,54.47Z" transform="translate(12.029 22.712)" fill="#684837"/>
        <path id="Trazado_654472" data-name="Trazado 654472" d="M24.156,64.9c-.054-2.107,19.418-6.349,22.866-2.245,2.22,2.642-1.149,9.361-1.149,9.361s15.619,7.39,22.695,17.57c6.488,9.335,9.831,18.719,15.524,24.247s20.691,15.6,24.194,24.468a27.123,27.123,0,0,1,.546,17.3L88.525,166.108s-60.428,12.644-67.6,6.46-5.857-21.02-5.857-21.02S-4.252,115.04,6.585,97.469,25.387,76.779,23.5,71.442s.657-6.54.657-6.54" transform="translate(1.815 33.66)" fill="#ffd357"/>
        <path id="Trazado_654473" data-name="Trazado 654473" d="M19.76,30.217c7.256-1.919,16.131-.3,18.289,6.446S30.1,49.946,30.1,49.946Z" transform="translate(10.916 16.278)" fill="#684837"/>
        <path id="Trazado_654474" data-name="Trazado 654474" d="M30.991,55.76C29.237,63,32.655,70.331,32.655,70.331s-2.114,2.518-8.006,1.889-7.556-20.552-7.556-20.552Z" transform="translate(9.443 28.542)" fill="#dba469"/>
        <path id="Trazado_654475" data-name="Trazado 654475" d="M17.5,65.426c1.829,3.6,6.9,11.783,15.62,8.875S41.9,52.294,40.7,43.96,36.265,30.587,27.09,30.587,11.319,45.278,11.319,45.278Z" transform="translate(6.253 16.897)" fill="#dba469"/>
        <path id="Trazado_654476" data-name="Trazado 654476" d="M31.291,111.228c-6.879,9.311-17.14,6.34-17.809-1.8s2.108-13.182,1.663-25.322S6.488,62.732,8.365,47.86c1.677-13.284,11.542-18.347,17.126-18.843s12.14.554,16.04,3.658c0,0-1.7,6.056-11.052,11-3.7,1.959-9.018,2.992-11.924,3.561-.432,3.158-.879,7.728-.331,10.65.9,4.836,4.785,9.757,8.318,16.729s11.628,27.3,4.749,36.612" transform="translate(4.467 15.965)" fill="#7e563c"/>
        <path id="Trazado_654477" data-name="Trazado 654477" d="M52.408,138.4c-4.71,7.442-35.252,12.7-45.21,0s-9.42-35.141.616-53.27C21.38,91.648,26.076,106.1,27.5,114.249c2.312.48,5.859,1.23,11.226,2.366C59.416,121,57.118,130.953,52.408,138.4" transform="translate(0 47.029)" fill="#ffd357"/>
        <path id="Trazado_654478" data-name="Trazado 654478" d="M22,186.734s-8.265-24.631-8.265-34.922a58.44,58.44,0,0,1,4.133-20.034s24.485-4.589,33.006-4.735c11.193-.189,14.97,5.584,14.97,5.584l-1.97,54.107Z" transform="translate(7.586 70.179)" fill="#f46464"/>
        <path id="Trazado_654479" data-name="Trazado 654479" d="M64.487,111.58a3.659,3.659,0,0,1,5.118-.916c2.681,1.765,3.283,5.159,1.723,6.938s-6.842-6.022-6.842-6.022" transform="translate(35.624 60.765)" fill="#d49666"/>
        <path id="Trazado_654480" data-name="Trazado 654480" d="M102.369,169.872a11.565,11.565,0,0,1-6.121,3.915c2.305,11.226,4.316,23.75,4.316,23.75H41.777l.539-24.8c-5.465-4.552-9.741-12.006-9.984-18.148-.329-8.369,10.352-33.65,16.288-40.8a16.868,16.868,0,0,1,5.426-4.282c4.8-2.411,11-2.832,17.373-.382a29.477,29.477,0,0,1,6.235,3.311c11.25,7.757,18.89,25.328,23.73,34.929s7.062,15.521.986,22.5" transform="translate(17.857 59.376)" fill="#f4e8d0"/>
        <path id="Trazado_654481" data-name="Trazado 654481" d="M63.758,109.839c-.61,2.614-2.305,5.308-6.68,5.288a15.126,15.126,0,0,1-10.693-4.907c4.8-2.409,11-2.83,17.373-.38" transform="translate(25.624 59.769)" fill="#dba469"/>
        <path id="Trazado_654482" data-name="Trazado 654482" d="M183.015,79.2s-11.441,3.232-27.371,0-51.193-25.793-51.193-25.793l-4.185-11.947s5.09-6.812,10.917-2.3,13.48,8.953,21.42,13.334c2.464,1.36,6.765,3.422,11.994,5.938,6.568,3.165,14.6,7.046,22.266,11.159A176.18,176.18,0,0,1,183.015,79.2" transform="translate(55.389 20.78)" fill="#e8b47b"/>
        <path id="Trazado_654483" data-name="Trazado 654483" d="M141.938,61.172s-3.622-4.629-2.276-5.024,21.81,1.914,25.832,4.058-1.551,10.35-1.585,10.9-21.971-9.931-21.971-9.931" transform="translate(76.986 30.993)" fill="#7b9051"/>
        <path id="Trazado_654484" data-name="Trazado 654484" d="M151.495,46.143c-2.076,2-8.486,5.629-15.468,7.4a37.874,37.874,0,0,1-5.662,1.065c-.723,3.238-.55,12.041-2.127,18.227-1.388,5.441-.823,14.9-6.413,16.749S90.216,85.419,86.11,76.552s8.253-12.176,8.253-12.176-3.9-6.45-2.5-10.837c.664-2.088,1.5-4.426,2.2-6.3C90.908,43.89,83.728,36.159,82.336,33.71,80.524,30.55,77.489,25.7,74.7,20.573s-3.651-6.081-3.572-7.638C71.3,9.7,77.141,6.51,80.012,7.252,83.669,8.191,90.376,20.12,93.706,23.2A176.035,176.035,0,0,0,108.157,34.24c3.651,2.549,14.247,4.23,19.947,4.519S148.8,36.869,148.8,36.869c2.5.7,5.227,6.845,2.7,9.274" transform="translate(39.289 3.946)" fill="#df7c36"/>
        <path id="Trazado_654485" data-name="Trazado 654485" d="M121.8,81.153a42.031,42.031,0,0,1-3.616,15.164c-2.186,5.359-4.157,13.9-10.285,13.846s-8.7-3.336-9.471-6.4S102.319,93.69,103.9,85.15A43.474,43.474,0,0,0,104.52,74c-3.56,2.811-7.113,7.973-9.977,9.892-3.994,2.679-12.974,6.457-22.549,8.264S60.386,83.286,64.058,79.4,74.4,75.462,80.585,70.865,90.75,50.549,95.749,49.9c5.859-.768,23.2,6.927,26.593,9.665s.048,14.774-.539,21.59" transform="translate(34.439 27.535)" fill="#73b3e9"/>
        <path id="Trazado_654486" data-name="Trazado 654486" d="M93.373,25.739c-.158-5.109,9.914-5.472,14.3-3.831,4.148,1.554,10.578,6.418,8.947,11.3-1.011,3.024-5.865,6.261-11.494,5.213-4.853-.9-11.6-7.663-11.752-12.685" transform="translate(51.58 11.621)" fill="#df7c36"/>
        <path id="Trazado_654487" data-name="Trazado 654487" d="M61.116,115.408c-.834.475-9.9.921-11.427.329s-1.675-7.754-2.69-10.893,11.184-3.656,11.46-2.409c.782,3.536,3.116,12.713,2.658,12.974" transform="translate(25.93 56.24)" fill="#dba469"/>
        <path id="Trazado_654488" data-name="Trazado 654488" d="M36.6,120.43a7.735,7.735,0,0,0,2.648,1.206,4.917,4.917,0,0,0,2.824-.593,6.429,6.429,0,0,0,3.137,1.062c1.616.1,3.358-1.028,4.367-1.827a11.062,11.062,0,0,0,5.537-2.034l10.9-3.378s2.945,1.147,4.763.616a6.06,6.06,0,0,0,2.982-2.375,6.148,6.148,0,0,0,2.512-.068,3.369,3.369,0,0,0,1.768-1.622S73.416,96,70.151,91.075s-8.967-9.911-17.179-8.368S39.637,89.642,37.544,98.915,36.6,120.43,36.6,120.43" transform="translate(20.048 45.532)" fill="#7e563c"/>
        <path id="Trazado_654489" data-name="Trazado 654489" d="M60.123,119.1c-4.237,1.172-11.4-1.483-14.234-5.783s-4.115-10.825-4.115-10.825S36.482,89.3,47.11,85.687s18.03,3.013,19.742,9.344A38.746,38.746,0,0,1,68,109.854c-.424,2.659-1.9,7.591-7.874,9.243" transform="translate(22.349 46.77)" fill="#dba469"/>
        <path id="Trazado_654490" data-name="Trazado 654490" d="M69.238,97.828a13.872,13.872,0,0,0-11.707-2.855A40.73,40.73,0,0,0,51.6,97.1l-3.186-6.649-.938,8.574s-4.466,2.3-6.522,5.617-2.178-9.1-2.178-9.1l5.171-9.28L52.124,84l3.892-.121,5.9,1.453,3.727,3.342,4.443,8.36Z" transform="translate(21.42 46.336)" fill="#7e563c"/>
        <path id="Trazado_654491" data-name="Trazado 654491" d="M43.457,97.949c-2.552.911-4.446,3.322-3.411,5.784s4.145,2.686,6.474.9-3.063-6.685-3.063-6.685" transform="translate(21.963 54.109)" fill="#dba469"/>
        <path id="Trazado_654492" data-name="Trazado 654492" d="M57.618,94.372c2.43-.616,5.177.371,5.73,2.981s-1.683,4.473-4.418,4.241-1.312-7.222-1.312-7.222" transform="translate(31.624 52.035)" fill="#dba469"/>
        <path id="Trazado_654493" data-name="Trazado 654493" d="M52.631,101.2a1.469,1.469,0,0,1-.7-.154l.31-.578a1.657,1.657,0,0,0,1.453-.265,1.284,1.284,0,0,0,.619-1.239c-.056-.5-.5-.832-1.021-1.214a2.888,2.888,0,0,1-1.548-2.981l.65.1c-.188,1.27.528,1.8,1.287,2.355A2.525,2.525,0,0,1,54.972,98.9a1.937,1.937,0,0,1-.905,1.854,2.649,2.649,0,0,1-1.436.453" transform="translate(28.567 52.354)" fill="#be8b54"/>
        <path id="Trazado_654494" data-name="Trazado 654494" d="M53.435,103.074c-1.928,0-3.808-1.146-5.219-3.31l.55-.36c1.9,2.92,4.729,3.8,7.2,2.234l.351.556a5.366,5.366,0,0,1-2.881.88" transform="translate(26.636 54.913)" fill="#a55c58"/>
        <rect id="Rectángulo_309874" data-name="Rectángulo 309874" width="2.788" height="0.657" transform="matrix(0.994, -0.113, 0.113, 0.994, 63.268, 155.774)" fill="#be8b54"/>
        <rect id="Rectángulo_309875" data-name="Rectángulo 309875" width="1.668" height="0.656" transform="matrix(0.078, -0.997, 0.997, 0.078, 64.4, 157.533)" fill="#be8b54"/>
        <rect id="Rectángulo_309876" data-name="Rectángulo 309876" width="2.363" height="0.657" transform="translate(90.724 149.472) rotate(-18.607)" fill="#be8b54"/>
        <rect id="Rectángulo_309877" data-name="Rectángulo 309877" width="0.656" height="1.657" transform="matrix(0.964, -0.267, 0.267, 0.964, 91.484, 149.6)" fill="#be8b54"/>
        <path id="Trazado_654495" data-name="Trazado 654495" d="M52.732,108.1a10.067,10.067,0,0,1-4.108-.806l.27-.6a10.955,10.955,0,0,0,9.833-.952l.374.54a11.512,11.512,0,0,1-6.37,1.815" transform="translate(26.861 58.416)" fill="#cc9363"/>
        <path id="Trazado_654496" data-name="Trazado 654496" d="M47.348,97.164a.889.889,0,1,0,.542-1.285,1,1,0,0,0-.542,1.285" transform="translate(26.128 52.952)" fill="#684837"/>
        <path id="Trazado_654497" data-name="Trazado 654497" d="M54.338,95.905a.889.889,0,1,0,.542-1.285,1,1,0,0,0-.542,1.285" transform="translate(29.99 52.256)" fill="#684837"/>
        <path id="Trazado_654498" data-name="Trazado 654498" d="M46.211,96.081a1.055,1.055,0,0,1-1-.45.812.812,0,0,1,.067-.858,5.982,5.982,0,0,1,4.074-2,1,1,0,0,1,.95.477c.318.6-.214,1.332-1.462,2.014a6.287,6.287,0,0,1-2.633.821m3.083-2.656a5.533,5.533,0,0,0-3.449,1.687c-.026.042-.082.147-.054.2.144.261,1.431.087,2.738-.627.984-.537,1.265-1,1.2-1.127-.04-.076-.182-.124-.387-.13h-.045" transform="translate(24.927 51.247)" fill="#684837"/>
        <path id="Trazado_654499" data-name="Trazado 654499" d="M55.829,93.006h-.067c-1.458-.014-2.939-.5-2.962-1.534a.971.971,0,0,1,.529-.877,5.15,5.15,0,0,1,4.148.351c.579.349.688.73.677.987-.037.792-1.212,1.073-2.326,1.073m-1.051-2.052a2.4,2.4,0,0,0-1.118.21c-.183.106-.2.213-.2.293.011.48,1.046.88,2.31.893,1.146,0,1.722-.284,1.729-.446,0-.109-.129-.258-.36-.4a5.032,5.032,0,0,0-2.358-.554" transform="translate(29.168 49.882)" fill="#684837"/>
        <path id="Trazado_654500" data-name="Trazado 654500" d="M40.424,97.408s2.884-8.843,10.957-10.861A14.762,14.762,0,0,1,64.788,89.8L66.05,91.73s-7.509-4.623-14.24-2.046-10.951,9.661-10.951,9.661Z" transform="translate(22.331 47.557)" fill="#f4e8d0"/>
        <path id="Trazado_654501" data-name="Trazado 654501" d="M96.274,24.047a7.239,7.239,0,0,0-.071,3.4,14.306,14.306,0,0,0,8.7,8.125,9.328,9.328,0,0,0,10.255-3.345c1.216-1.551,1.2-3.752,3.192-6.348a19.946,19.946,0,0,0,2.875-5.278l-2.574-7.351L105.1,8.694l-7.431,6.6s-.6,6.481-1.4,8.754" transform="translate(53.041 4.803)" fill="#e8b47b"/>
        <path id="Trazado_654502" data-name="Trazado 654502" d="M122.472,23.713a14.537,14.537,0,0,0-3.547,4.879s-1.573.574-.286-1.143a11.364,11.364,0,0,0,1.726-4.16,5.056,5.056,0,0,1-2.386-1.5,4.219,4.219,0,0,1-1.023-2.2,13.976,13.976,0,0,1-2.971-.523,10.556,10.556,0,0,1-5.9-4.5,7.848,7.848,0,0,1-2.231,2.158,4.779,4.779,0,0,1-3.712.428,5.317,5.317,0,0,1-.708,1.441,3.134,3.134,0,0,1-2.922,1.316,15.416,15.416,0,0,1-.779,2.8s-2.475,2.655-1.32-.543a10.407,10.407,0,0,0,.407-6.393c-.247-1.805-1.6-3.092-.841-5.4a2.6,2.6,0,0,1,2.385-1.795,4.188,4.188,0,0,1,4.151-2.813,7.122,7.122,0,0,1,4.1,1.147,9.489,9.489,0,0,1,9.263-.405,7.791,7.791,0,0,1,4.746,5.853,2.449,2.449,0,0,1,2.687.846c.835,1.045.626,2.611.2,3.906a2.441,2.441,0,0,1,1.209.938c1.153,1.653-.157,4.072-2.256,5.654" transform="translate(52.897 3.039)" fill="#7e563c"/>
        <path id="Trazado_654503" data-name="Trazado 654503" d="M98.23,22.252s-1.208,1.764-1.02,2.526,2.5,4.816,6.351,5.537,5.721-.352,6.087-.663.467-2.816.467-2.816Z" transform="translate(53.69 12.292)" fill="#e8b47b"/>
        <path id="Trazado_654504" data-name="Trazado 654504" d="M153.238,62.185c-.919.972-3.81,4.019-3.915,4.052s-26.1-.078-24.3-5.5a29.462,29.462,0,0,1,5.952-9.715c6.568,3.167,14.6,7.048,22.266,11.16" transform="translate(69.014 28.187)" fill="#7b9051"/>
        <path id="Trazado_654505" data-name="Trazado 654505" d="M98.711,21.141a3.355,3.355,0,0,1-3.1-5.949,4.119,4.119,0,0,1,4.263,1.059c.9.857-1.158,4.89-1.158,4.89" transform="translate(51.802 8.254)" fill="#e8b47b"/>
        <path id="Trazado_654506" data-name="Trazado 654506" d="M108.346,24.48c2.813,2.094,5.1,1.22,5.915-.269s.762-3.963-2.639-5.142-3.276,5.41-3.276,5.41" transform="translate(59.852 10.457)" fill="#e8b47b"/>
        <path id="Trazado_654507" data-name="Trazado 654507" d="M19.73,51.725c-3.178,3.448-8.486,1.379-8.545-2.518s4.094-5.95,7.2-4.977Z" transform="translate(6.179 24.301)" fill="#dba469"/>
        <path id="Trazado_654508" data-name="Trazado 654508" d="M76.375,119.539c-.329-1.313-1.354-2.5-1.723-3.886-.38-1.419-1.992-1.375-2.566-2.813s-2.155-2.934-5.5-2.237c-1.481.309-3.016-.369-3.838.2s-3.305,2.874-3.428,3.47,2.956,1.375,5.028-.227a6.51,6.51,0,0,1,1.549-.941,9.334,9.334,0,0,1,.894,3.734c-.062,2.032-.472,4.659-1.847,6.362s-1.889,4.393-1.048,5.522,1.375-2.012,2.381-3.141c.332-.371.675-.737,1-1.105a12.022,12.022,0,0,0-.961,4.081c.082,2.074.43,3.2,1.067,3.182s.8-3.536,2.807-6.112c-.171,2.145-.2,4.575.786,4.839,1.068.287,1.026-2.648,1.868-4.209a4.126,4.126,0,0,0,.231-.526c.014,1.177.157,2.4.672,2.6,1.026.39,1.231-2.669,1.847-4.147a8.344,8.344,0,0,0,.779-4.653" transform="translate(32.767 61.002)" fill="#d49666"/>
        <path id="Trazado_654509" data-name="Trazado 654509" d="M58.009,135.97c-.9-2.08-1.725-2.572-3.394-5.474a35.926,35.926,0,0,1-1.922-4.5c3.954,2.439,7.073,1.09,6.9.228-.193-.972-6.733-2.751-10.28-7.043l-.006,0a4.755,4.755,0,0,0-.607-.6c-2.572-2.024-6.815-3.695-10-5.775a4.292,4.292,0,0,0-6.117.931,3.229,3.229,0,0,0-.371,3.768c.635,1.115,2.287,2.3,3.437,5.162s4.16,4.645,5.693,6.944,3.5,14.833,5.2,15.135-.9-12.617-.629-12.727,2.381,4.379,2.518,5.337a21.98,21.98,0,0,0,.821,4.931c.657,1.8,2.079,3.335,2.6,3.2s-.765-3.777-.739-5.966.138-3.012-.793-5.036l-.011-.026a20.806,20.806,0,0,1,1.927,2.653c.466,1.04.466,2.874,1.807,5.118s2.462,2.9,3.038,2.765-.9-3.231-1.4-5.173a23.266,23.266,0,0,0-1.368-4.9L54.1,134.5c.346.41.714.82,1.1,1.222a11.343,11.343,0,0,0,2.124,3.422c1.889,2,2.9,2.3,3.449,2.135s-1.861-3.229-2.765-5.309" transform="translate(17.552 61.829)" fill="#d49666"/>
        <path id="Trazado_654510" data-name="Trazado 654510" d="M48.974,143.7c-3.2-1.287-6.845,4.432-3.943,6.868,2.808,2.358,2.052,4.114,3.333,4.3s5.491-8.725,4.82-10.067-2.479-.4-4.21-1.1" transform="translate(24.291 79.279)" fill="#dba469"/>
        <path id="Trazado_654511" data-name="Trazado 654511" d="M102.969,48.557c-1.97-1.313-3.01-6.512-3.257-8.279s-.054-6.006-1.725-7.1-3.229.438-3.53,1.833.548,5.749-.3,6.3-5.035-5.281-7.032-5.637-2.874,2.544-2.3,4a4.43,4.43,0,0,0,.574.939,2.51,2.51,0,0,0-1.861.238,3.369,3.369,0,0,0-.9,3.831,4.816,4.816,0,0,0,.683,1.178,2.621,2.621,0,0,0-1.8,1.987,4.013,4.013,0,0,0,.657,2.357c-.851.523-1.223,2.281-.329,3.892,1.231,2.217,2.518,3.558,7.554,4.516s41.979,24.7,41.979,24.7l9.336-2.516V62.87s-35.771-13-37.741-14.313" transform="translate(44.926 18.121)" fill="#e8b47b"/>
        <path id="Trazado_654512" data-name="Trazado 654512" d="M71.453,142.661c2.141-1.366,6.512,4.763,3.943,7.219-1.809,1.731-1.545,3.934-2.658,4.224s-5.637-8.7-5.171-10.162,2.45-.366,3.886-1.281" transform="translate(37.307 78.7)" fill="#dba469"/>
        <path id="Trazado_654513" data-name="Trazado 654513" d="M82.65,13.554c.053-2.315-.618-3.617-.658-5.37-.056-2.381,1.087-4.221.324-4.8s-2.029.309-2.437,1.854c-.071.262-.244.821-.3,1.071C77.7,3.065,76.7-.236,75.546.013c-1.307.276.675,5.586.787,5.921C76.043,5.559,71-1,69.836.146s3.614,7.087,3.89,7.408c-.329-.236-5.683-5.4-6.446-4.42s4.3,6.691,4.448,6.828C71.5,9.878,66.868,6.5,66.5,8.006c-.368,1.543,2.652,3.665,3.945,4.721,1.363,1.113,1.5,1.85,2.872,3.164a7.08,7.08,0,0,0,2.353,1.472c.694.7,2.423,1.906,5.093.3a3.457,3.457,0,0,0,1.886-4.106" transform="translate(36.719 0)" fill="#e8b47b"/>
        <path id="Trazado_654514" data-name="Trazado 654514" d="M185.249,133.4c-1.861,15.4-7.158,45.512-7.849,45.762,0,0-13.526,2.908-34.953-.048A136.025,136.025,0,0,1,104.734,168.1s6.188-16.086,17.353-42.583c6.483-15.383,11.646-27.936,14.805-35.942a181.375,181.375,0,0,0-18.733-10.5,44.8,44.8,0,0,1,2.3-15.475,28.647,28.647,0,0,1,7.317-11.423c20.034,4.486,50.8,14.122,57.474,21.124s1.964,43.857,0,60.1" transform="translate(57.857 28.821)" fill="#7b9051"/>
        <path id="Trazado_654515" data-name="Trazado 654515" d="M148.267,38.716a5.632,5.632,0,0,0-3.251-2.726c-2.507-.938-5.728,2.549-4.389,6.182a4.034,4.034,0,0,0,4.889,2.642Z" transform="translate(77.512 19.796)" fill="#e8b47b"/>
        <path id="Trazado_654516" data-name="Trazado 654516" d="M144.451,42.168c-1.136-4.985-2.214-9.408.441-13.63,2.462-3.915,7.037-.935,7.037-.935Z" transform="translate(79.129 14.649)" fill="#684837"/>
        <path id="Trazado_654517" data-name="Trazado 654517" d="M167.861,59.345s-2.361,6.1-5.028,7.391-9.277,4.347-13.011,2.661-5.839-2.7-6.93-4.081-3.285-6.671-2.954-9.474,3.507-9.6,4.223-11.185,5.747-12.735,5.747-12.735l1.9-4.221,24.336,13.348Z" transform="translate(77.286 15.302)" fill="#e8b47b"/>
        <path id="Trazado_654518" data-name="Trazado 654518" d="M160.828,43.163a39.485,39.485,0,0,0,4.665,1.616,7.13,7.13,0,0,0,.756,7.239c.034.036.059.068.085.1a3.451,3.451,0,0,0-.6,1.042,7.178,7.178,0,0,0-.338,4.078l3.318.289c2.173-4.615,5.093-3.111,6.986-7.1,1.861-3.9.022-8.805-5.378-11.409-.72-3.409-3.262-11.226-11.705-15.035-11.441-5.163-21.708,9.566,2.212,19.182" transform="translate(80.817 12.658)" fill="#7e563c"/>
        <path id="Trazado_654519" data-name="Trazado 654519" d="M158.27,43.755a6.81,6.81,0,0,1,4.752.342,4.269,4.269,0,0,1,1.335,6.616c-1.837,2.385-5.941,3.4-9.051-.871s2.964-6.087,2.964-6.087" transform="translate(85.305 24.018)" fill="#e8b47b"/>
        <path id="Trazado_654520" data-name="Trazado 654520" d="M154.424,26.264c-.269-7.868,13.666-.624,13.019,14.627s-3.654-3.653-3.654-3.653Z" transform="translate(85.305 12.735)" fill="#7e563c"/>
        <path id="Trazado_654521" data-name="Trazado 654521" d="M160.942,32.86c7.213-1.442,10.479,3.294,8.219,7.7s-8.219-7.7-8.219-7.7" transform="translate(88.908 18.007)" fill="#7e563c"/>
        <path id="Trazado_654522" data-name="Trazado 654522" d="M105.064,22.432a1.7,1.7,0,0,1-1.438-.77l.56-.343a1.059,1.059,0,0,0,1.057.441.725.725,0,0,0,.618-.59,2.811,2.811,0,0,0-.455-1.549,3.26,3.26,0,0,1-.453-2.712l.607.251A2.708,2.708,0,0,0,106,19.333a3.238,3.238,0,0,1,.508,1.97,1.374,1.374,0,0,1-1.147,1.1,1.7,1.7,0,0,1-.293.025" transform="translate(57.245 9.34)" fill="#cc9363"/>
        <path id="Trazado_654523" data-name="Trazado 654523" d="M109.494,20.23a2.549,2.549,0,0,0-2.554-.748l-.166-.635a3.149,3.149,0,0,1,3.259,1.008Z" transform="translate(58.984 10.354)" fill="#7f593d"/>
        <path id="Trazado_654524" data-name="Trazado 654524" d="M103.653,18.157a3.269,3.269,0,0,0-3.583-.638l-.295-.587a3.983,3.983,0,0,1,4.317.737Z" transform="translate(55.118 9.168)" fill="#7f593d"/>
        <path id="Trazado_654525" data-name="Trazado 654525" d="M106.024,24.005a5.578,5.578,0,0,1-1.549-.224,4.409,4.409,0,0,1-2.939-2.889l.633-.174a3.744,3.744,0,0,0,2.489,2.431,4.512,4.512,0,0,0,3.437-.309l.349.557a4.866,4.866,0,0,1-2.42.607" transform="translate(56.091 11.446)" fill="#a56f58"/>
        <rect id="Rectángulo_309878" data-name="Rectángulo 309878" width="0.656" height="2.995" transform="translate(147.543 25.154) rotate(-53.6)" fill="#cc9363"/>
        <rect id="Rectángulo_309879" data-name="Rectángulo 309879" width="1.462" height="0.657" transform="matrix(0.654, -0.756, 0.756, 0.654, 147.738, 26.669)" fill="#cc9363"/>
        <rect id="Rectángulo_309880" data-name="Rectángulo 309880" width="0.657" height="2.388" transform="matrix(0.107, -0.994, 0.994, 0.107, 170.79, 33.081)" fill="#cc9363"/>
        <path id="Trazado_654526" data-name="Trazado 654526" d="M111.142,22.5l-.657-.012.026-1.324.657.012Z" transform="translate(61.034 11.694)" fill="#cc9363"/>
        <path id="Trazado_654527" data-name="Trazado 654527" d="M108.594,9.986A9.255,9.255,0,0,0,105.763,6.8l.332-.565a9.771,9.771,0,0,1,3.082,3.448ZM97.772,11.222a5.5,5.5,0,0,1,.214-2.942l-.627-.2a6,6,0,0,0-.216,3.33Zm22.495.73-.657.023a20.5,20.5,0,0,1-.048,2.678l.654.071a20.909,20.909,0,0,0,.051-2.773m2.869,4.873-.621-.216a5.065,5.065,0,0,1-1.11,1.967l.439.489a5.587,5.587,0,0,0,1.292-2.24m-4.474,2.2-.265-.6a5.515,5.515,0,0,1-2.125.436l-.016.657c.036,0,.071,0,.107,0a6.475,6.475,0,0,0,2.3-.494m-10.98-5.013a8.835,8.835,0,0,1-.6-1.492l-.63.18a9.021,9.021,0,0,0,.652,1.628Zm-6.144,2.428a9,9,0,0,1-2.414-1.017l-.362.548a9.5,9.5,0,0,0,2.607,1.1Z" transform="translate(53.59 3.444)" fill="#684837"/>
        <path id="Trazado_654528" data-name="Trazado 654528" d="M110.73,19.363A4.307,4.307,0,0,1,108.2,17.98c-.66-.7-.821-1.375-.444-1.85a.8.8,0,0,1,.9-.228,5.019,5.019,0,0,1,2.824,2.653.64.64,0,0,1-.244.671.85.85,0,0,1-.5.138m-2.385-2.846a.12.12,0,0,0-.079.019c-.177.225.095.661.408.994.817.868,1.962,1.307,2.178,1.157a4.689,4.689,0,0,0-2.111-2.057,1.015,1.015,0,0,0-.4-.112" transform="translate(59.414 8.762)" fill="#684837"/>
        <path id="Trazado_654529" data-name="Trazado 654529" d="M101.145,16.532c-.77,0-1.63-.129-1.725-.691a.9.9,0,0,1,.45-.834c.972-.754,3.766-1.563,4.909-1.059a.848.848,0,0,1,.55.717c.084,1.029-1.554,1.6-3.117,1.8a8.9,8.9,0,0,1-1.067.07m-1.065-.815a6.57,6.57,0,0,0,3.869-.357c.47-.2.742-.444.727-.641s-.484-.255-.627-.264c-1.5-.1-3.774.845-3.968,1.262" transform="translate(54.917 7.619)" fill="#684837"/>
        <path id="Trazado_654530" data-name="Trazado 654530" d="M44.11,93.652s.835,5.815-1.282,6.933a2.121,2.121,0,0,1-3.069-1.1Z" transform="translate(21.964 51.735)" fill="#7e563c"/>
        <path id="Trazado_654531" data-name="Trazado 654531" d="M73.918,117.212l-.643-.138c.014-.064,1.3-6.317-3.03-7.84a5.382,5.382,0,0,0-5.836,1.622l-.511-.415a6.143,6.143,0,0,1,6.564-1.827c4.876,1.715,3.47,8.529,3.456,8.6" transform="translate(35.299 59.809)" fill="#d39644"/>
        <path id="Trazado_654532" data-name="Trazado 654532" d="M159.841,67.112c-4.249-2.67-12.138-5.042-12.218-5.066l.186-.629c.081.023,8.057,2.422,12.381,5.139Z" transform="translate(81.55 33.929)" fill="#687f50"/>
        <path id="Trazado_654533" data-name="Trazado 654533" d="M135.2,174.232l-.633-.174c3.367-12.224,10.966-24.111,11.042-24.23l.553.356c-.076.118-7.621,11.924-10.962,24.049" transform="translate(74.34 82.768)" fill="#c0483e"/>
        <path id="Trazado_654534" data-name="Trazado 654534" d="M154.091,141.27c-18.379,0-39.369-7.236-39.641-7.332l.217-.619c.348.123,35.024,12.076,54.016,5.137l.225.618a43.886,43.886,0,0,1-14.818,2.2" transform="translate(63.225 73.648)" fill="#c0483e"/>
        <path id="Trazado_654535" data-name="Trazado 654535" d="M137.432,161.062c-10.08-7.231-11.272-21.554-11.283-21.7l.655-.05c.011.141,1.184,14.164,11.01,21.214Z" transform="translate(69.687 76.96)" fill="#c0483e"/>
        <path id="Trazado_654536" data-name="Trazado 654536" d="M87.98,42.5a21.393,21.393,0,0,1-4.206-4.418l.542-.373a21.114,21.114,0,0,0,4.06,4.266Z" transform="translate(46.279 20.83)" fill="#cc9363"/>
        <path id="Trazado_654537" data-name="Trazado 654537" d="M85.816,44.5a9.394,9.394,0,0,1-3.386-3.052l.553-.354A8.883,8.883,0,0,0,86.1,43.907Z" transform="translate(45.536 22.7)" fill="#cc9363"/>
        <path id="Trazado_654538" data-name="Trazado 654538" d="M84.57,46.775A13.538,13.538,0,0,1,81.71,44.3l.5-.432A13.1,13.1,0,0,0,84.891,46.2Z" transform="translate(45.138 24.232)" fill="#cc9363"/>
        <rect id="Rectángulo_309881" data-name="Rectángulo 309881" width="0.657" height="16.652" transform="translate(168.539 75.061) rotate(-69.817)" fill="#cc9363"/>
        <path id="Trazado_654539" data-name="Trazado 654539" d="M63.931,80.32l-.351-.554c2.114-1.343,5.679-2.56,9.453-3.848,3.9-1.329,7.925-2.7,10.5-4.283,3.148-1.93,5.615-7.312,7.792-12.062A45.751,45.751,0,0,1,95.018,52.5l.532.385a45.568,45.568,0,0,0-3.628,6.964c-2.215,4.836-4.726,10.316-8.045,12.35-2.639,1.618-6.7,3-10.633,4.345-3.737,1.275-7.265,2.479-9.315,3.78" transform="translate(35.123 29)" fill="#6d98bb"/>
        <path id="Trazado_654540" data-name="Trazado 654540" d="M103.988,36.981c-6.828-2.648-9.835-11.337-9.864-11.424l-.623.21c.124.369,3.131,9.066,10.249,11.828a10.345,10.345,0,0,0,3.758.742c5.513,0,8.61-5,8.645-5.066l-.562-.338c-.171.283-4.275,6.891-11.6,4.049" transform="translate(51.652 14.118)" fill="#c2623b"/>
        <rect id="Rectángulo_309882" data-name="Rectángulo 309882" width="0.657" height="2.7" transform="matrix(0.7, -0.714, 0.714, 0.7, 133.12, 51.42)" fill="#c2623b"/>
        <rect id="Rectángulo_309883" data-name="Rectángulo 309883" width="3.99" height="0.658" transform="translate(169.327 58.499) rotate(-81.113)" fill="#c2623b"/>
        <path id="Trazado_654541" data-name="Trazado 654541" d="M81.733,8.349a5.555,5.555,0,0,1-2.057,7.326,5.926,5.926,0,0,1-7.7-.772l-.484.444a7.109,7.109,0,0,0,4.8,2.068,6.839,6.839,0,0,0,3.741-1.188c4.819-3.108,2.308-8.128,2.282-8.18Z" transform="translate(39.496 4.446)" fill="#c2623b"/>
        <path id="Trazado_654542" data-name="Trazado 654542" d="M74.289,12.178c-1.444-2.183-.321-4.819.5-6.745a11.289,11.289,0,0,0,.543-1.422l.636.165a11.925,11.925,0,0,1-.576,1.515c-.761,1.788-1.8,4.237-.553,6.124Z" transform="translate(40.654 2.216)" fill="#cc9363"/>
        <path id="Trazado_654543" data-name="Trazado 654543" d="M22.81,67.048v-.657c6.492,0,7.421-3.246,7.428-3.279a.415.415,0,0,0-.071-.366c-.121-.144-.489-.374-1.593-.27l-.061-.655c1.08-.1,1.812.076,2.17.52a1.075,1.075,0,0,1,.186.953c-.033.134-1.014,3.754-8.06,3.754" transform="translate(12.601 34.136)" fill="#d39644"/>
        <path id="Trazado_654544" data-name="Trazado 654544" d="M106.991,28.014a15.658,15.658,0,0,1-2.638-.256c-3.254-.557-6.129-3.422-6.25-3.544l.466-.463c.028.028,2.85,2.838,5.9,3.359,2.992.514,4.03.057,4.039.051l.289.591a4.371,4.371,0,0,1-1.8.261" transform="translate(54.194 13.121)" fill="#cc9363"/>
        <path id="Trazado_654545" data-name="Trazado 654545" d="M89.829,66.912l-.469-.461a21.133,21.133,0,0,1,4.893-3.364l.29.59a20.844,20.844,0,0,0-4.715,3.235" transform="translate(49.364 34.851)" fill="#6d98bb"/>
        <path id="Trazado_654546" data-name="Trazado 654546" d="M115.782,80.867A41.711,41.711,0,0,1,125.293,52.6l.478.45a41.031,41.031,0,0,0-9.333,27.788Z" transform="translate(63.942 29.058)" fill="#687f50"/>
        <path id="Trazado_654547" data-name="Trazado 654547" d="M68.9,150.057c-.831-2.855,2.223-5.778,2.979-6.447-.425-1.636-3.383-12.939-4.909-16.956l.615-.233c1.652,4.345,4.948,17.094,4.982,17.223l.051.2-.16.134c-.037.03-3.732,3.128-2.928,5.895Z" transform="translate(36.997 69.838)" fill="#dbc5a6"/>
        <path id="Trazado_654548" data-name="Trazado 654548" d="M50.736,146.95c-1.355-4.636-8.341-6.379-8.411-6.4l-.236-.057-.4-6.529.655-.04.369,6.051c1.295.355,7.321,2.239,8.65,6.787Z" transform="translate(23.032 73.984)" fill="#dbc5a6"/>
        <path id="Trazado_654549" data-name="Trazado 654549" d="M45.843,153.916c-3.979,0-7.208-4.07-7.25-4.123l.519-.4c.2.251,4.865,6.123,9.695,2.939l.362.548a5.951,5.951,0,0,1-3.325,1.04" transform="translate(21.32 82.526)" fill="#dbc5a6"/>
        <path id="Trazado_654550" data-name="Trazado 654550" d="M47.387,129.671a22.609,22.609,0,0,1-3.946-8.541l.646-.115a22.445,22.445,0,0,0,3.831,8.27Z" transform="translate(23.998 66.851)" fill="#b77f4f"/>
        <path id="Trazado_654551" data-name="Trazado 654551" d="M44.706,129.487a56.88,56.88,0,0,1-3.307-8.042l.623-.208a57.577,57.577,0,0,0,3.251,7.917Z" transform="translate(22.87 66.974)" fill="#b77f4f"/>
        <path id="Trazado_654552" data-name="Trazado 654552" d="M41.181,126.395a31.153,31.153,0,0,1-1.386-3.852l.633-.177a31,31,0,0,0,1.351,3.758Z" transform="translate(21.984 67.598)" fill="#b77f4f"/>
        <path id="Trazado_654553" data-name="Trazado 654553" d="M45.792,122.354a7.719,7.719,0,0,0-2.1-3.175l.43-.5a8.255,8.255,0,0,1,2.3,3.488Z" transform="translate(24.139 65.563)" fill="#b77f4f"/>
        <path id="Trazado_654554" data-name="Trazado 654554" d="M65.209,121.543l-.54-.374c1.4-2.034,1.545-2.5,1.776-3.653a14.423,14.423,0,0,0,.2-2.678l.657-.019a14.845,14.845,0,0,1-.211,2.824c-.265,1.321-.484,1.878-1.88,3.9" transform="translate(35.724 63.428)" fill="#b77f4f"/>
        <path id="Trazado_654555" data-name="Trazado 654555" d="M66.818,122.066l-.514-.408c1.6-2.015,1.653-3.168,1.689-3.932l0-.088c.04-.778,0-1.992,0-2l.657-.022c0,.051.042,1.254,0,2.06l0,.087c-.04.846-.1,2.127-1.832,4.308" transform="translate(36.628 63.866)" fill="#b77f4f"/>
        <path id="Trazado_654556" data-name="Trazado 654556" d="M68.787,122.14l-.609-.248a8.959,8.959,0,0,0,.8-5.682l.65-.092a9.5,9.5,0,0,1-.841,6.022" transform="translate(37.663 64.146)" fill="#b77f4f"/>
        <path id="Trazado_654557" data-name="Trazado 654557" d="M43.3,127.692a1.935,1.935,0,1,1,1.936-1.934,1.937,1.937,0,0,1-1.936,1.934m0-3.214a1.278,1.278,0,1,0,1.278,1.279,1.28,1.28,0,0,0-1.278-1.279" transform="translate(22.852 68.402)" fill="#dbc5a6"/>
        <path id="Trazado_654558" data-name="Trazado 654558" d="M93.361,97.58l-.057,0c-2.11-.12-3.066-6.941-3.235-8.307l.65-.081c.4,3.172,1.47,7.667,2.622,7.731a.3.3,0,0,0,.242-.11c.754-.854.328-5.067-.12-7.521l.647-.118c.124.683,1.177,6.7-.036,8.074a.934.934,0,0,1-.714.334" transform="translate(49.755 49.26)" fill="#dbc5a6"/>
        <path id="Trazado_654559" data-name="Trazado 654559" d="M63.423,81.432a1.612,1.612,0,0,1-.922-.278c-1.829-1.233.115-5.4.343-5.876l.591.286c-.512,1.063-1.717,4.272-.567,5.045s3.214-1.32,3.915-2.19l.511.411c-.1.124-2.118,2.6-3.872,2.6" transform="translate(34.097 41.585)" fill="#dbc5a6"/>
        <path id="Trazado_654560" data-name="Trazado 654560" d="M15.588,53.144a3.07,3.07,0,0,1-.354-.022,1.92,1.92,0,0,1-1.878-2.158,2.166,2.166,0,0,1,2.2-2.038,2.312,2.312,0,0,1,2.015,1.279,2.111,2.111,0,0,1-.2,2.094,2.138,2.138,0,0,1-1.788.845m-.182-3.567a1.533,1.533,0,0,0-1.4,1.453,1.276,1.276,0,0,0,1.3,1.441,1.581,1.581,0,0,0,1.532-.556,1.446,1.446,0,0,0,.132-1.434,1.653,1.653,0,0,0-1.47-.9c-.034,0-.067,0-.1,0" transform="translate(7.372 27.024)" fill="#ead8c0"/>
        <path id="Trazado_654561" data-name="Trazado 654561" d="M32.02,51.709a2.368,2.368,0,0,1-.275-.016,1.532,1.532,0,0,1-1.479-1.706A1.707,1.707,0,0,1,32,48.387a1.81,1.81,0,0,1,1.577,1.006,1.643,1.643,0,0,1-.155,1.652,1.68,1.68,0,0,1-1.4.664m-.135-2.67a1.064,1.064,0,0,0-.964,1.014c-.026.262.011.883.9.987a1.1,1.1,0,0,0,1.071-.382,1,1,0,0,0,.09-.99,1.159,1.159,0,0,0-1.032-.626c-.023,0-.045,0-.067,0" transform="translate(16.715 26.727)" fill="#dbc5a6"/>
        <path id="Trazado_654562" data-name="Trazado 654562" d="M31.823,53.824a1.229,1.229,0,0,1-1.088-.68,1.4,1.4,0,0,1,.463-1.882,1.48,1.48,0,0,1,1.528-.026,1.349,1.349,0,0,1,.644,1.2,1.426,1.426,0,0,1-.846,1.2,1.544,1.544,0,0,1-.7.183m-.306-1.987a.74.74,0,0,0-.2,1c.107.2.366.5.911.22a.782.782,0,0,0,.489-.646.7.7,0,0,0-.334-.615.833.833,0,0,0-.863.042" transform="translate(16.88 28.194)" fill="#dbc5a6"/>
        <path id="Trazado_654563" data-name="Trazado 654563" d="M15.327,55.165a1.365,1.365,0,0,1-1.208-.753,1.557,1.557,0,0,1,.512-2.094,1.65,1.65,0,0,1,1.7-.031,1.5,1.5,0,0,1,.717,1.334,1.589,1.589,0,0,1-.945,1.341,1.72,1.72,0,0,1-.779.2m-.376-2.273A.9.9,0,0,0,14.7,54.1a.743.743,0,0,0,1.112.273.944.944,0,0,0,.585-.782.851.851,0,0,0-.405-.748,1.006,1.006,0,0,0-1.039.047" transform="translate(7.689 28.762)" fill="#ead8c0"/>
        <path id="Trazado_654564" data-name="Trazado 654564" d="M21.524,52.973a5.413,5.413,0,0,1-5.294-5.185,5.579,5.579,0,0,1,1.31-3.966,5.141,5.141,0,0,1,3.636-1.832,5.5,5.5,0,0,1,.649,10.976c-.1,0-.2.008-.3.008m-.045-10.336c-.088,0-.175,0-.264.008a4.492,4.492,0,0,0-3.175,1.6,4.921,4.921,0,0,0-1.155,3.5,4.742,4.742,0,0,0,4.9,4.559,4.852,4.852,0,0,0-.307-9.672" transform="translate(8.96 23.191)" fill="#684837"/>
        <path id="Trazado_654565" data-name="Trazado 654565" d="M25.345,54.213a7.367,7.367,0,0,1-2.436-.514l.244-.609c.709.281,2.7.843,3.386.075.646-.722,0-3.58-.633-6.345-.22-.97-.45-1.979-.649-2.985l.644-.127c.2,1,.427,2,.646,2.967C27.3,50,27.9,52.628,27.029,53.6a2.187,2.187,0,0,1-1.684.61" transform="translate(12.655 24.145)" fill="#b77f4f"/>
        <path id="Trazado_654566" data-name="Trazado 654566" d="M25.4,54.661a4.742,4.742,0,0,1-.636-.042,6.358,6.358,0,0,1-4.226-2.852l.529-.388a5.746,5.746,0,0,0,3.775,2.588,4.987,4.987,0,0,0,3.417-.928l.411.512a5.642,5.642,0,0,1-3.271,1.11" transform="translate(11.343 28.383)" fill="#a55c58"/>
        <path id="Trazado_654567" data-name="Trazado 654567" d="M30.756,52.427a5.137,5.137,0,0,1-3.521-1.4,5.659,5.659,0,0,1-.458-7.751,5.141,5.141,0,0,1,3.636-1.832,5.5,5.5,0,0,1,.649,10.976c-.1.006-.2.008-.306.008m-.04-10.336c-.088,0-.175,0-.264.008a4.492,4.492,0,0,0-3.175,1.6,4.921,4.921,0,0,0-1.155,3.5v0a4.923,4.923,0,0,0,1.559,3.341,4.5,4.5,0,0,0,3.342,1.217,4.852,4.852,0,0,0-.307-9.672" transform="translate(14.063 22.889)" fill="#684837"/>
        <path id="Trazado_654568" data-name="Trazado 654568" d="M23.174,45.184l-.616-.225c.4-1.105,1.965-1.638,3.235-1.52a1.971,1.971,0,0,1,1.975,1.521l-.647.1c-.126-.77-1.012-.935-1.389-.97-1-.1-2.276.318-2.557,1.09" transform="translate(12.462 23.988)" fill="#684837"/>
        <path id="Trazado_654569" data-name="Trazado 654569" d="M19.251,42.109c-.907,0-1.664-.214-1.868-.817a.977.977,0,0,1,.273-1c.944-1.057,4.084-1.931,5.688-1.585a1.229,1.229,0,0,1,1.042.779c.25.792-.6,1.569-2.326,2.133a9.758,9.758,0,0,1-2.81.486m3.293-2.818c-1.479,0-3.73.7-4.4,1.442-.126.138-.172.256-.141.349.16.473,1.967.529,3.85-.084,1.365-.446,2-1.008,1.9-1.312-.061-.191-.334-.289-.553-.335a3.172,3.172,0,0,0-.663-.061" transform="translate(9.579 21.342)" fill="#684837"/>
        <path id="Trazado_654570" data-name="Trazado 654570" d="M31.226,41.833a6.7,6.7,0,0,1-1.441-.174c-1.745-.391-3.4-1.337-3.167-2.563a1.113,1.113,0,0,1,.823-.872c1.306-.425,3.838.484,4.917,1.5A1.324,1.324,0,0,1,32.9,41.03c-.152.591-.855.8-1.677.8M28.2,38.774a1.827,1.827,0,0,0-.553.073c-.3.1-.36.258-.382.371-.137.722,1.248,1.481,2.667,1.8,1.4.312,2.271.109,2.338-.154.042-.166-.088-.408-.36-.663a6.484,6.484,0,0,0-3.71-1.428" transform="translate(14.692 21.056)" fill="#684837"/>
        <path id="Trazado_654571" data-name="Trazado 654571" d="M20.3,45.671a1,1,0,0,0,1.028.942,1.125,1.125,0,0,0-.348-2.161,1,1,0,0,0-.68,1.219" transform="translate(11.203 24.551)" fill="#684837"/>
        <path id="Trazado_654572" data-name="Trazado 654572" d="M28.15,44.977a.889.889,0,1,0,1.708-.276.889.889,0,1,0-1.708.276" transform="translate(15.541 24.168)" fill="#684837"/>
        <path id="Trazado_654573" data-name="Trazado 654573" d="M24.815,59.944a11.491,11.491,0,0,1-4.2-.848l.262-.6c.04.017,4.078,1.743,7.186.014l.32.573a7.3,7.3,0,0,1-3.572.862" transform="translate(11.39 32.314)" fill="#b77f4f"/>
        <path id="Trazado_654574" data-name="Trazado 654574" d="M14.367,48.539l-.652-.078.236-2,.652.078Z" transform="translate(7.577 25.665)" fill="#b77f4f"/>
        <path id="Trazado_654575" data-name="Trazado 654575" d="M16.044,47.408a3.887,3.887,0,0,0-3.19-.286l-.227-.616a4.513,4.513,0,0,1,3.788.359Z" transform="translate(6.975 25.544)" fill="#b77f4f"/>
        <path id="Trazado_654576" data-name="Trazado 654576" d="M31.575,72.193a2.764,2.764,0,0,1-1.348-1.77,3.556,3.556,0,0,1,.522-2.468l.546.363a2.938,2.938,0,0,0-.425,1.97,2.14,2.14,0,0,0,1.049,1.346Z" transform="translate(16.665 37.54)" fill="#d39644"/>
        <path id="Trazado_654577" data-name="Trazado 654577" d="M44.952,117.48c-7.924-6.517-17.241-6.935-23.407-7.213-2.805-.126-4.833-.217-5.895-.835-3.373-1.965-2.987-14.7-2.968-15.245l.657.022c-.12,3.578.121,13.188,2.642,14.655.922.537,2.984.63,5.593.747,6.252.281,15.7.706,23.8,7.362Z" transform="translate(6.993 52.031)" fill="#d39644"/>
        <path id="Trazado_654578" data-name="Trazado 654578" d="M25.17,127.991a56.432,56.432,0,0,1-12.738-1.5l.168-.635c.231.062,23.378,6,32.422-6.3l.529.39c-4.747,6.457-13.2,8.046-20.382,8.046" transform="translate(6.868 66.045)" fill="#d39644"/>
        <path id="Trazado_654579" data-name="Trazado 654579" d="M20.454,110.928c-2.159-2.79-2.493-9.749-.994-20.684,1.419-10.362-1.736-17.6-5.076-25.261-.97-2.225-1.973-4.524-2.844-6.89C7.77,47.859,9.924,40.315,9.946,40.24l.63.186c-.022.073-2.11,7.422,1.58,17.44.865,2.347,1.863,4.637,2.83,6.854,3.229,7.408,6.57,15.068,5.125,25.613-1.455,10.6-1.157,17.584.863,20.192Z" transform="translate(5.145 22.229)" fill="#684837"/>
        <path id="Trazado_654580" data-name="Trazado 654580" d="M22.1,99.976c-1.669-3.949-1.323-7.8-.921-12.266a76.672,76.672,0,0,0,.419-8.25C21.437,68.448,16,57.582,15.94,57.475l.587-.3c.054.11,5.564,11.106,5.728,22.274a77.259,77.259,0,0,1-.422,8.316c-.41,4.556-.733,8.155.872,11.954Z" transform="translate(8.806 31.586)" fill="#684837"/>
        <path id="Trazado_654581" data-name="Trazado 654581" d="M11.877,42.976q-1.43,0-2.956-.092l.04-.655c21.7,1.316,28.017-12.2,28.079-12.336l.6.269c-.061.134-5.985,12.814-25.762,12.814" transform="translate(4.928 16.514)" fill="#684837"/>
        <path id="Trazado_654582" data-name="Trazado 654582" d="M63.534,88.164l-.542.373A11.317,11.317,0,0,0,51.43,84.429c-8.773,1.992-10,11.593-10.007,11.69l-.652-.076c.012-.1,1.282-10.159,10.515-12.253a11.98,11.98,0,0,1,12.249,4.375m-23.671,11.6h-.657v7.363h.657Zm-.245,14.066c0,.043.262,4.334.52,6.679l.654-.071c-.256-2.329-.515-6.6-.519-6.647Zm7.47,3.074.559,2.867.644-.127-.557-2.866Zm24.319-8.265-.632.175,1.06,3.81.632-.175Z" transform="translate(21.658 46.105)" fill="#684837"/>
        <path id="Trazado_654583" data-name="Trazado 654583" d="M45.738,166.008l-.351-.554c10.505-6.665,11.173-24.3,11.177-24.474l.657.02c-.006.182-.682,18.157-11.483,25.008" transform="translate(25.073 77.88)" fill="#dbc5a6"/>
        <path id="Trazado_654584" data-name="Trazado 654584" d="M77.505,164.407c-10.954-6.345-12.649-23.845-12.666-24.021l.655-.059c.016.172,1.683,17.337,12.34,23.511Z" transform="translate(35.818 77.52)" fill="#dbc5a6"/>
        <rect id="Rectángulo_309884" data-name="Rectángulo 309884" width="0.658" height="12.035" transform="translate(68.318 171.058) rotate(-8.935)" fill="#dbc5a6"/>
        <path id="Trazado_654585" data-name="Trazado 654585" d="M47.923,130.242l-.082-.652,19.987-2.526-1.042-12.623.655-.054,1.093,13.25Z" transform="translate(26.428 63.19)" fill="#dbc5a6"/>
        <rect id="Rectángulo_309885" data-name="Rectángulo 309885" width="0.657" height="2.515" transform="translate(92.722 170.159) rotate(-5.243)" fill="#dbc5a6"/>
        <rect id="Rectángulo_309886" data-name="Rectángulo 309886" width="0.657" height="28.724" transform="translate(54.135 228.514) rotate(-7.997)" fill="#c0483e"/>
        <path id="Trazado_654586" data-name="Trazado 654586" d="M15.379,135.2l-.116-.647c.147-.026,14.8-2.655,27.8-4.278l.082.65c-12.978,1.622-27.616,4.249-27.762,4.275" transform="translate(8.432 71.964)" fill="#c0483e"/>
        <path id="Trazado_654587" data-name="Trazado 654587" d="M13.855,146.843l-.113-.647c4.219-.731,7.267-2.462,9.058-5.145a12.323,12.323,0,0,0,1.611-8.658l.641-.144a12.8,12.8,0,0,1-1.706,9.167c-1.9,2.838-5.089,4.663-9.492,5.427" transform="translate(7.591 73.057)" fill="#c0483e"/>
        <path id="Trazado_654588" data-name="Trazado 654588" d="M33.916,124.233a6.551,6.551,0,0,1-5.626-2.779,6.072,6.072,0,0,1-.146-5.272,9.9,9.9,0,0,1,5.818-6.081,6.232,6.232,0,0,1,5.184.278,4.211,4.211,0,0,1,2.054,2.711l-.643.138a3.558,3.558,0,0,0-1.74-2.281,5.593,5.593,0,0,0-4.654-.22,9.228,9.228,0,0,0-5.4,5.677,5.448,5.448,0,0,0,.081,4.7c1.84,2.87,5.624,2.451,5.663,2.448l.079.652a6.015,6.015,0,0,1-.669.033" transform="translate(15.261 60.594)" fill="#d39644"/>
        <path id="Trazado_654589" data-name="Trazado 654589" d="M153.193,41.406a.976.976,0,1,1-.413-1.476,1.1,1.1,0,0,1,.413,1.476" transform="translate(83.595 22.026)" fill="#7e5843"/>
        <path id="Trazado_654590" data-name="Trazado 654590" d="M146.987,38.5a.976.976,0,1,1-.413-1.476,1.1,1.1,0,0,1,.413,1.476" transform="translate(80.167 20.419)" fill="#7e5843"/>
        <path id="Trazado_654591" data-name="Trazado 654591" d="M148.63,47.306a3.129,3.129,0,0,1-3-2.667c-.138-1.691,4.407-6.363,4.926-6.891l.469.461c-1.878,1.909-4.826,5.328-4.74,6.376a2.469,2.469,0,0,0,2.416,2.063l.034.655c-.034,0-.07,0-.106,0" transform="translate(80.448 20.853)" fill="#cc9363"/>
        <path id="Trazado_654592" data-name="Trazado 654592" d="M158.082,39.643c-1.091,0-3.057-1.445-4.162-2.616-.986-1.042-1.338-1.855-1.046-2.416.147-.287.553-.737,1.568-.539,1.621.321,4.21,2.336,4.417,4.645a.769.769,0,0,1-.414.857.89.89,0,0,1-.362.068m-4.108-4.962a.545.545,0,0,0-.519.233c-.084.16.022.689.941,1.661,1.475,1.56,3.366,2.585,3.777,2.4.031-.014.037-.113.029-.2-.174-1.944-2.443-3.774-3.889-4.058a1.674,1.674,0,0,0-.34-.037" transform="translate(84.396 18.795)" fill="#684837"/>
        <path id="Trazado_654593" data-name="Trazado 654593" d="M148.867,35.065q-.172,0-.331,0c-1.262-.039-2.007-.267-2.215-.677-.135-.265-.179-.812,1.042-1.489,1.448-.8,4.581-1.583,5.621.14a.837.837,0,0,1,.028.885c-.5.855-2.639,1.146-4.145,1.146m1.85-2.412a5.688,5.688,0,0,0-1.189.138,4.279,4.279,0,0,0-2.616,1.321c.335.441,4.129.46,5.336-.338.295-.2.228-.309.172-.4a1.886,1.886,0,0,0-1.7-.72" transform="translate(80.794 17.679)" fill="#684837"/>
        <path id="Trazado_654594" data-name="Trazado 654594" d="M150.181,49.293a5.107,5.107,0,0,1-1.265-.158,6.835,6.835,0,0,1-5.005-4.663l.638-.158a6.177,6.177,0,0,0,4.53,4.185c3.167.807,5.935-2.284,5.963-2.315l.252-.286,1.368,1.622-.5.424-.886-1.053a7.789,7.789,0,0,1-5.092,2.4" transform="translate(79.499 24.479)" fill="#a56f58"/>
        <path id="Trazado_654595" data-name="Trazado 654595" d="M158.663,50.658a6.547,6.547,0,0,1-3.827-2.749l.564-.335a5.976,5.976,0,0,0,3.412,2.445Z" transform="translate(85.535 26.28)" fill="#cc9363"/>
        <path id="Trazado_654596" data-name="Trazado 654596" d="M151.851,57.219a9.481,9.481,0,0,1-4.313-1.194c-.188-.09-.363-.175-.526-.25l-.222-.1c-1.5-.674-4.3-1.927-5.466-4.024l.574-.318c1.057,1.906,3.726,3.1,5.16,3.743l.224.1c.168.076.349.165.543.259a7.867,7.867,0,0,0,5.868.885A32.2,32.2,0,0,0,160.607,54l.348.557c-1.34.837-4.2,1.647-7.095,2.4a7.9,7.9,0,0,1-2.009.264" transform="translate(78.07 28.358)" fill="#cc9363"/>
        <path id="Trazado_654597" data-name="Trazado 654597" d="M148.238,52.415l-.647-.113a2.528,2.528,0,0,0-1.639-2.717,2.061,2.061,0,0,0-2.782.663l-.573-.323a2.745,2.745,0,0,1,3.609-.945,3.22,3.22,0,0,1,2.032,3.436" transform="translate(78.774 26.89)" fill="#cc9363"/>
        <rect id="Rectángulo_309887" data-name="Rectángulo 309887" width="0.657" height="4.871" transform="matrix(0.108, -0.994, 0.994, 0.108, 243.389, 71.657)" fill="#cc9363"/>
        <rect id="Rectángulo_309888" data-name="Rectángulo 309888" width="2.236" height="0.658" transform="translate(245.225 73.766) rotate(-82.406)" fill="#cc9363"/>
        <path id="Trazado_654598" data-name="Trazado 654598" d="M167.5,42.653c-.41-.132-10.1-3.286-14.838-8.649A20.59,20.59,0,0,1,147.4,23.091l.655-.056A20.331,20.331,0,0,0,153.16,33.57c4.618,5.227,14.447,8.427,14.546,8.458Z" transform="translate(81.425 12.725)" fill="#684837"/>
        <path id="Trazado_654599" data-name="Trazado 654599" d="M148.833,62.434c-4.656-2.024-21.813-7.973-21.985-8.032l.216-.621c.172.061,17.353,6.017,22.032,8.051Z" transform="translate(70.073 29.71)" fill="#687f50"/>
        <path id="Trazado_654600" data-name="Trazado 654600" d="M141.92,61.058c-1.028-1.178-3.342-4.018-2.634-4.941l.522.4c-.2.3.868,2.118,2.608,4.111Z" transform="translate(76.871 31)" fill="#687f50"/>
        <path id="Trazado_654601" data-name="Trazado 654601" d="M130.347,84.3l-.61-.242c1.751-4.418-4.317-7.363-4.378-7.391l.281-.595c.067.033,6.686,3.237,4.707,8.228" transform="translate(69.251 42.024)" fill="#687f50"/>
      </g>
    </g>
    <rect id="Rectángulo_309890" data-name="Rectángulo 309890" width="295" height="257" transform="translate(915 2347)" fill="none"/>
  </g>
</svg>
