<svg xmlns="http://www.w3.org/2000/svg" xmlns:xlink="http://www.w3.org/1999/xlink" width="295" height="288" viewBox="0 0 295 288">
  <defs>
    <clipPath id="clip-path">
      <rect id="Rectángulo_309871" data-name="Rectángulo 309871" width="62.228" height="62.214" fill="none"/>
    </clipPath>
    <clipPath id="clip-path-2">
      <rect id="Rectángulo_309872" data-name="Rectángulo 309872" width="55.009" height="55" fill="none"/>
    </clipPath>
    <clipPath id="clip-path-3">
      <rect id="Rectángulo_309873" data-name="Rectángulo 309873" width="53.198" height="57.5" fill="none"/>
    </clipPath>
  </defs>
  <g id="Grupo_995918" data-name="Grupo 995918" transform="translate(-968 -1174.752)">
    <rect id="Rectángulo_309734" data-name="Rectángulo 309734" width="295" height="88" rx="10" transform="translate(968 1174.752)" fill="#fff0c4"/>
    <rect id="Rectángulo_309735" data-name="Rectángulo 309735" width="295" height="88" rx="10" transform="translate(968 1274.752)" fill="#fff0c4"/>
    <path id="Trazado_654386" data-name="Trazado 654386" d="M10,0H285a10,10,0,0,1,10,10V78a10,10,0,0,1-10,10H10A10,10,0,0,1,0,78V10A10,10,0,0,1,10,0Z" transform="translate(968 1374.752)" fill="#fff0c4"/>
    <g id="Grupo_995491" data-name="Grupo 995491" transform="translate(968 1174.752)">
      <path id="Rectángulo_308910" data-name="Rectángulo 308910" d="M10,0H85a0,0,0,0,1,0,0V88a0,0,0,0,1,0,0H10A10,10,0,0,1,0,78V10A10,10,0,0,1,10,0Z" fill="#f46464"/>
    </g>
    <g id="Grupo_995492" data-name="Grupo 995492" transform="translate(968 1274.752)">
      <path id="Rectángulo_308910-2" data-name="Rectángulo 308910" d="M10,0H85a0,0,0,0,1,0,0V88a0,0,0,0,1,0,0H10A10,10,0,0,1,0,78V10A10,10,0,0,1,10,0Z" fill="#f46464"/>
    </g>
    <g id="Grupo_995493" data-name="Grupo 995493" transform="translate(968 1374.752)">
      <path id="Rectángulo_308910-3" data-name="Rectángulo 308910" d="M10,0H85a0,0,0,0,1,0,0V88a0,0,0,0,1,0,0H10A10,10,0,0,1,0,78V10A10,10,0,0,1,10,0Z" fill="#f46464"/>
    </g>
    <g id="Grupo_995675" data-name="Grupo 995675" transform="translate(979.386 1185.645)">
      <g id="Grupo_995674" data-name="Grupo 995674" clip-path="url(#clip-path)">
        <path id="Trazado_654387" data-name="Trazado 654387" d="M31.111,62.2Q15.9,62.2.687,62.213c-.545,0-.7-.124-.686-.681.041-1.618.026-3.239.006-4.858C0,56.29.086,56.142.5,56.161c.479.022,1.1.213,1.408-.075.337-.318.11-.956.111-1.451q.013-12.935-.006-25.87c0-.543.121-.7.687-.7,4.919.025,9.838.007,14.757.026.49,0,.645-.1.64-.62-.028-2.915,0-5.83-.025-8.745,0-.5.079-.681.642-.673,2.672.036,5.344,0,8.016.026.543,0,.56-.11.315-.548q-1.477-2.643-2.9-5.317A8.173,8.173,0,0,1,27.828.717a8.027,8.027,0,0,1,11.2,6.057,8.633,8.633,0,0,1-1,5.559c-.959,1.753-1.908,3.512-2.881,5.258-.224.4-.158.491.3.488,2.692-.016,5.385,0,8.077-.02.488,0,.643.091.637.615-.029,2.894.011,5.789-.033,8.683-.01.652.2.739.774.736,4.878-.022,9.757,0,14.635-.028.581,0,.679.178.678.706-.015,8.907-.006,17.813-.024,26.72,0,.557.14.711.7.694,1.327-.041,1.327-.012,1.327,1.346,0,1.377-.024,2.754.013,4.129.013.474-.135.55-.57.549q-15.273-.019-30.546-.01M42.158,34.078c0-4.495-.005-8.989.009-13.484,0-.411-.083-.551-.524-.546-2.45.022-4.9.017-7.349,0a.693.693,0,0,0-.709.4c-1.24,2.177-3.7,2.169-4.95-.014a.645.645,0,0,0-.655-.387q-3.7.024-7.41,0c-.394,0-.507.1-.507.5q.018,13.545,0,27.089c0,.458.167.516.559.513,1.943-.018,3.887-.026,5.831,0,.507.008.677-.083.671-.644-.034-2.935,0-5.871-.029-8.807,0-.49.141-.588.6-.584q3.462.035,6.924,0c.443,0,.521.132.519.541-.018,3,0,5.993-.019,8.989,0,.395.1.506.5.5,1.984-.021,3.968-.024,5.952,0,.469.006.605-.109.6-.594-.02-4.495-.012-8.989-.012-13.484M58.2,43.167c0-4.15-.011-8.3.013-12.45,0-.518-.14-.623-.634-.619q-4.373.037-8.746,0c-.562-.006-.693.149-.692.7q.028,11.965.013,23.929c0,1.47,0,1.452,1.5,1.46.433,0,.534-.128.53-.544-.02-2.308,0-4.616-.019-6.924,0-.433.073-.595.554-.584,1.619.034,3.239.029,4.858,0,.468-.008.621.107.614.6-.029,2-.012,4.008-.012,6.012,0,1.438,0,1.417,1.463,1.439.458.007.567-.114.565-.568-.019-4.15-.011-8.3-.011-12.451M4.027,43.106v11.6c0,1.484,0,1.462,1.464,1.479.475.006.566-.152.562-.589-.021-2.287.005-4.575-.022-6.863-.006-.492.146-.607.614-.6,1.619.027,3.239.032,4.858,0,.481-.01.559.151.554.584-.022,2-.01,4.008-.01,6.013,0,1.454,0,1.432,1.432,1.456.487.008.6-.139.6-.611q-.021-12.45,0-24.9c0-.451-.106-.578-.568-.575q-4.433.034-8.867,0c-.494,0-.637.1-.634.619.024,4.13.014,8.26.014,12.39M31.176,58.191H3.243c-1.21,0-1.214,0-1.208,1.185,0,.908-.1.8.812.8q27.994,0,55.987,0c1.366,0,1.334,0,1.377-1.351.018-.559-.164-.653-.677-.652q-14.179.023-28.358.011M37.13,8.161a6.658,6.658,0,0,0-.419-2.311,6.039,6.039,0,0,0-8.185-3.232,6.169,6.169,0,0,0-2.616,8.644c1.45,2.707,2.937,5.394,4.405,8.091.178.326.355.663.784.672.463.009.644-.354.83-.7q2.19-4.018,4.382-8.035a6.463,6.463,0,0,0,.819-3.133M31.145,54.18H17.309c-1.249,0-1.2,0-1.267,1.261-.034.662.212.739.782.738q13.988-.024,27.975-.011c1.375,0,1.356,0,1.381-1.394.008-.466-.1-.608-.593-.606-4.814.02-9.628.012-14.442.012M16.059,41.1V50.87c0,1.286,0,1.256,1.3,1.3.576.019.746-.126.744-.726-.023-6.654-.014-13.308-.014-19.962,0-1.376,0-1.354-1.4-1.382-.494-.01-.647.111-.644.627.024,3.458.012,6.917.012,10.375m28.081,0v9.708c0,1.353,0,1.328,1.367,1.36.522.012.679-.112.677-.661-.021-6.674-.013-13.348-.013-20.022,0-1.378,0-1.347-1.39-1.387-.566-.017-.655.18-.652.688.022,3.438.011,6.876.011,10.314M31.068,52.154h9.775c1.316,0,1.29,0,1.327-1.33.015-.525-.109-.672-.657-.67-6.7.022-13.4.014-20.1.014-1.349,0-1.314,0-1.361,1.35-.02.58.2.648.69.645,3.441-.019,6.881-.01,10.322-.01M29.1,44.161c0,1.153.01,2.307-.006,3.46,0,.36.043.551.487.536,1.031-.036,2.064-.022,3.1-.005.33.005.462-.079.46-.437q-.02-3.581,0-7.163c0-.348-.118-.448-.457-.442-1.032.019-2.064.029-3.1,0-.436-.014-.5.169-.49.534.017,1.173.006,2.347.006,3.521M8.037,53.148v1.513c0,1.586,0,1.574,1.589,1.525.346-.011.444-.118.44-.455-.016-1.331-.007-2.663-.007-3.994,0-1.673,0-1.664-1.663-1.578-.3.015-.37.109-.365.387.015.867.006,1.735.005,2.6m44.134-.022V54.76c0,1.429,0,1.412,1.46,1.427.431,0,.591-.075.577-.556-.04-1.31-.014-2.622-.014-3.933,0-1.577,0-1.561-1.568-1.542-.389,0-.472.132-.462.489.024.826.008,1.654.008,2.481" transform="translate(0 0)" fill="#030202"/>
        <path id="Trazado_654388" data-name="Trazado 654388" d="M104.488,96.37c0,4.495-.008,8.99.012,13.484,0,.485-.134.6-.6.594-1.984-.026-3.968-.022-5.952,0-.4,0-.5-.106-.5-.5.017-3,0-5.993.019-8.989,0-.41-.075-.546-.519-.542q-3.462.037-6.924,0c-.46,0-.6.094-.6.584.026,2.935-.006,5.872.029,8.807.007.56-.164.651-.67.644-1.943-.03-3.887-.022-5.831,0-.392,0-.559-.054-.559-.513q.022-13.545,0-27.089c0-.4.113-.5.507-.5q3.7.026,7.41,0a.645.645,0,0,1,.655.387c1.249,2.183,3.711,2.191,4.95.014a.693.693,0,0,1,.709-.4c2.45.014,4.9.019,7.349,0,.441,0,.526.136.525.547-.014,4.494-.009,8.989-.009,13.484M98.955,98.4h2c1.541,0,1.524,0,1.519-1.532,0-.389-.121-.463-.48-.459-1.675.018-3.35.008-5.024.008-1.584,0-1.572,0-1.52,1.591.011.329.116.4.42.4,1.029-.016,2.058-.006,3.087-.006M87.978,96.415H85.92c-1.512,0-1.5,0-1.5,1.486,0,.384.086.513.494.507,1.674-.024,3.35-.01,5.024-.01,1.54,0,1.529,0,1.5-1.548-.005-.337-.087-.45-.436-.442-1.008.022-2.017.008-3.026.008m.006-8.024H85.865c-1.444,0-1.426,0-1.447,1.42-.006.432.074.585.55.575,1.654-.034,3.309-.013,4.964-.013,1.543,0,1.525,0,1.512-1.54,0-.406-.153-.455-.494-.448-.988.019-1.977.007-2.966.007m10.966,5.994h2.065c1.465,0,1.443,0,1.458-1.481,0-.458-.162-.514-.556-.51-1.66.02-3.32.009-4.981.009-1.511,0-1.5,0-1.488,1.512,0,.36.076.491.465.48,1.011-.029,2.024-.01,3.037-.01M87.984,92.4H85.866c-1.445,0-1.418,0-1.452,1.419-.013.512.175.579.613.572,1.634-.023,3.268-.009,4.9-.009,1.542,0,1.524,0,1.513-1.54,0-.406-.152-.455-.493-.448-.988.019-1.977.007-2.966.007m10.992-2.03h2c1.508,0,1.493,0,1.5-1.491,0-.393-.1-.506-.5-.5-1.674.022-3.35.009-5.024.009-1.538,0-1.526,0-1.5,1.553.006.343.1.444.441.437,1.029-.02,2.058-.007,3.087-.007" transform="translate(-62.33 -62.292)" fill="#e2e5e8"/>
        <path id="Trazado_654389" data-name="Trazado 654389" d="M207.8,136.68c0,4.15-.008,8.3.011,12.45,0,.453-.106.575-.565.568-1.463-.022-1.464,0-1.464-1.439,0-2-.017-4.009.012-6.012.007-.492-.146-.607-.614-.6-1.619.027-3.239.031-4.858,0-.481-.01-.558.151-.554.585.021,2.308,0,4.616.019,6.923,0,.416-.1.546-.53.544-1.5-.008-1.5.01-1.5-1.46q0-11.965-.013-23.929c0-.551.13-.7.692-.7q4.372.045,8.746,0c.494,0,.637.1.634.619-.024,4.15-.013,8.3-.013,12.451m-8.023-10.067c0,1.023,0,1.023.938,1.023,1.055,0,1.055,0,1.055-1.037,0-.994,0-.994-.979-.994-1.015,0-1.015,0-1.015,1.008m4.011.008c0,1.014,0,1.014.947,1.014,1.05,0,1.05,0,1.05-1.045,0-.985,0-.985-.99-.985-1.007,0-1.007,0-1.007,1.016m-3.033,5.026c1.015,0,1.015,0,1.015-1.014v-.061c0-.955,0-.955-.958-.955-1.035,0-1.035,0-1.035,1.049,0,.981,0,.981.978.981m1.015,3.014c0-1.031,0-1.031-.943-1.031-1.05,0-1.05,0-1.05,1.035,0,.994,0,.994,1.025.994.969,0,.969,0,.969-1m2.018-.013c0,1.011,0,1.011.948,1.011,1.049,0,1.049,0,1.049-1.042,0-.988,0-.988-.99-.988-1.007,0-1.007,0-1.007,1.018m-4.011,4.019c0,1,0,1,.953,1,1.041,0,1.041,0,1.041-1.045,0-.983,0-.983-.993-.983s-1,0-1,1.025m4.011,0c0,1,0,1,.894,1,1.1,0,1.1,0,1.1-1.107,0-.921,0-.921-.937-.921-1.06,0-1.06,0-1.06,1.026m0-8.031c0,1.01,0,1.01.95,1.01,1.047,0,1.047,0,1.047-1.046,0-.984,0-.984-.993-.984s-1,0-1,1.02" transform="translate(-149.593 -93.512)" fill="#c9cdd4"/>
        <path id="Trazado_654390" data-name="Trazado 654390" d="M16.494,136.624c0-4.13.01-8.26-.014-12.39,0-.518.139-.623.634-.619q4.433.037,8.867,0c.462,0,.569.124.568.575q-.021,12.45,0,24.9c0,.472-.114.619-.6.611-1.431-.024-1.432,0-1.432-1.456,0-2-.012-4.008.01-6.012,0-.433-.073-.595-.555-.585-1.619.034-3.239.03-4.858,0-.468-.008-.62.107-.614.6.027,2.287,0,4.575.021,6.863,0,.438-.087.595-.562.589-1.464-.017-1.464,0-1.464-1.479v-11.6m8.023-9.952c0-1.062,0-1.062-.961-1.062-1.032,0-1.032,0-1.032,1.061,0,.969,0,.969,1,.969s.992,0,.992-.969m-4.973,2.95c-1.035,0-1.035,0-1.035,1.063a4.247,4.247,0,0,1,0,.486c-.041.356.068.543.462.485a2.905,2.905,0,0,1,.425,0c1.113,0,1.113,0,1.113-1.089,0-.941,0-.941-.962-.941m4.973,1.054c0-1.054,0-1.054-.97-1.054-1.024,0-1.024,0-1.024,1.011s0,1.019,1.01,1.019c.983,0,.983,0,.983-.976m-4.011-4.048c0-1.018,0-1.018-.945-1.018-1.052,0-1.052,0-1.052,1.045,0,.986,0,.986.988.986,1.009,0,1.009,0,1.009-1.013m0,8.037c0-1.03,0-1.03-.934-1.03-1.063,0-1.063,0-1.063,1.036,0,.993,0,.993.977.993,1.02,0,1.02,0,1.02-1m4.011.005c0-1.035,0-1.035-.928-1.035-1.065,0-1.065,0-1.065,1.092,0,.937,0,.937.969.937,1.024,0,1.024,0,1.024-.994m-5.042,5.005c1.031,0,1.031,0,1.031-1.047v-.061c0-.92,0-.92-.924-.92-1.073,0-1.073,0-1.073,1.087,0,.94,0,.94.966.94m5.042-1.023c0-1,0-1-.96-1-1.033,0-1.033,0-1.033,1.063,0,.964,0,.964.939.964,1.054,0,1.054,0,1.054-1.023" transform="translate(-12.468 -93.518)" fill="#c9cdd4"/>
        <path id="Trazado_654391" data-name="Trazado 654391" d="M37.494,238.964q14.179,0,28.358-.011c.513,0,.695.093.677.652-.043,1.35-.011,1.351-1.377,1.351q-27.994,0-55.987,0c-.915,0-.807.1-.812-.8-.006-1.185,0-1.185,1.208-1.185H37.494" transform="translate(-6.318 -180.773)" fill="#c79e7c"/>
        <path id="Trazado_654392" data-name="Trazado 654392" d="M115.068,14.44a6.465,6.465,0,0,1-.819,3.133q-2.2,4.015-4.382,8.035c-.187.342-.367.706-.831.7-.429-.009-.606-.345-.784-.672-1.469-2.7-2.955-5.384-4.406-8.091A6.169,6.169,0,0,1,106.464,8.9a6.039,6.039,0,0,1,8.185,3.232,6.658,6.658,0,0,1,.419,2.311m-5.985,3.871a4.007,4.007,0,1,0-4.038-3.988,4.03,4.03,0,0,0,4.038,3.988" transform="translate(-77.939 -6.278)" fill="#ec8672"/>
        <path id="Trazado_654393" data-name="Trazado 654393" d="M80.978,222.488c4.814,0,9.628.008,14.443-.012.489,0,.6.14.592.606-.025,1.393,0,1.394-1.381,1.394q-13.988,0-27.975.012c-.57,0-.816-.076-.782-.738.064-1.259.018-1.261,1.267-1.261H80.978" transform="translate(-49.834 -168.308)" fill="#c79e7b"/>
        <path id="Trazado_654394" data-name="Trazado 654394" d="M65.915,134.623c0-3.458.011-6.917-.012-10.375,0-.516.15-.637.644-.627,1.4.028,1.4.006,1.4,1.381,0,6.654-.008,13.308.014,19.962,0,.6-.168.744-.744.726-1.3-.042-1.3-.012-1.3-1.3v-9.768" transform="translate(-49.857 -93.522)" fill="#818b95"/>
        <path id="Trazado_654395" data-name="Trazado 654395" d="M181.253,134.61c0-3.438.01-6.876-.011-10.315,0-.508.086-.7.652-.688,1.389.04,1.39.009,1.39,1.387,0,6.674-.007,13.348.014,20.022,0,.549-.156.673-.677.661-1.367-.032-1.367-.008-1.367-1.36V134.61" transform="translate(-137.113 -93.511)" fill="#818b95"/>
        <path id="Trazado_654396" data-name="Trazado 654396" d="M93.378,207.993c-3.441,0-6.881-.009-10.322.01-.495,0-.71-.065-.69-.645.047-1.349.012-1.351,1.361-1.351,6.7,0,13.4.008,20.1-.014.548,0,.672.145.657.67-.038,1.329-.011,1.33-1.327,1.33H93.378" transform="translate(-62.311 -155.838)" fill="#c79e7b"/>
        <path id="Trazado_654397" data-name="Trazado 654397" d="M119.494,168.776c0-1.174.01-2.347-.006-3.521-.005-.366.054-.548.49-.534,1.031.033,2.064.022,3.1,0,.339-.006.458.094.457.442q-.018,3.581,0,7.163c0,.358-.13.442-.46.437-1.032-.017-2.064-.03-3.1.005-.444.015-.492-.176-.487-.536.015-1.153.006-2.307.006-3.46" transform="translate(-90.395 -124.614)" fill="#edcf7a"/>
        <path id="Trazado_654398" data-name="Trazado 654398" d="M32.989,208.906c0-.868.009-1.735-.005-2.6,0-.279.068-.372.365-.387,1.663-.086,1.663-.1,1.663,1.578,0,1.332-.01,2.663.007,3.994,0,.337-.093.445-.44.455-1.59.049-1.589.06-1.589-1.525v-1.513" transform="translate(-24.952 -155.757)" fill="#eed07b"/>
        <path id="Trazado_654399" data-name="Trazado 654399" d="M214.242,208.955c0-.827.016-1.655-.008-2.481-.01-.357.073-.484.462-.489,1.569-.019,1.568-.035,1.568,1.542,0,1.311-.026,2.623.014,3.933.015.481-.145.56-.577.556-1.46-.015-1.46,0-1.46-1.427v-1.634" transform="translate(-162.072 -155.829)" fill="#eed07b"/>
        <path id="Trazado_654400" data-name="Trazado 654400" d="M139.479,142.1c-1.029,0-2.058-.01-3.087.006-.3,0-.409-.069-.42-.4-.053-1.591-.064-1.591,1.52-1.591,1.675,0,3.35.01,5.024-.008.359,0,.478.07.48.459.006,1.532.022,1.532-1.518,1.532h-2" transform="translate(-102.854 -105.999)"/>
        <path id="Trazado_654401" data-name="Trazado 654401" d="M94.282,140.123c1.009,0,2.018.014,3.026-.008.349-.008.43.105.436.442.025,1.548.037,1.548-1.5,1.548-1.675,0-3.35-.014-5.024.01-.407.006-.494-.123-.494-.507,0-1.486-.011-1.486,1.5-1.486h2.058" transform="translate(-68.634 -105.999)"/>
        <path id="Trazado_654402" data-name="Trazado 654402" d="M94.284,107.169c.989,0,1.978.012,2.966-.007.34-.006.491.043.494.448.012,1.541.03,1.541-1.512,1.541-1.655,0-3.31-.021-4.964.013-.476.01-.556-.143-.55-.575.021-1.42,0-1.421,1.447-1.421h2.119" transform="translate(-68.63 -81.07)"/>
        <path id="Trazado_654403" data-name="Trazado 654403" d="M139.517,125.626c-1.012,0-2.025-.019-3.037.01-.388.011-.462-.12-.465-.48-.01-1.512-.022-1.512,1.488-1.512,1.66,0,3.321.012,4.98-.009.394,0,.561.052.556.51-.015,1.481.006,1.481-1.458,1.481h-2.065" transform="translate(-102.898 -93.532)"/>
        <path id="Trazado_654404" data-name="Trazado 654404" d="M94.271,123.649c.989,0,1.978.012,2.966-.007.341-.007.49.042.493.448.011,1.54.029,1.54-1.513,1.54-1.634,0-3.269-.014-4.9.009-.439.006-.626-.061-.614-.572.035-1.418.007-1.419,1.452-1.419h2.119" transform="translate(-68.616 -93.538)"/>
        <path id="Trazado_654405" data-name="Trazado 654405" d="M139.528,109.144c-1.029,0-2.058-.013-3.087.007-.341.007-.435-.094-.441-.437-.028-1.553-.039-1.553,1.5-1.553,1.675,0,3.35.013,5.024-.01.4-.005.5.108.5.5,0,1.491.012,1.491-1.5,1.491h-2" transform="translate(-102.882 -81.063)"/>
        <path id="Trazado_654406" data-name="Trazado 654406" d="M206.094,132.818c0-1.008,0-1.008,1.015-1.008.979,0,.979,0,.979.994,0,1.037,0,1.037-1.055,1.037-.938,0-.938,0-.938-1.023" transform="translate(-155.914 -99.717)" fill="#060606"/>
        <path id="Trazado_654407" data-name="Trazado 654407" d="M222.568,132.826c0-1.016,0-1.016,1.007-1.016.99,0,.99,0,.99.985,0,1.045,0,1.045-1.05,1.045-.947,0-.947,0-.947-1.014" transform="translate(-168.377 -99.717)" fill="#060606"/>
        <path id="Trazado_654408" data-name="Trazado 654408" d="M207.072,150.318c-.978,0-.978,0-.978-.981,0-1.049,0-1.049,1.035-1.049.958,0,.958,0,.958.955v.061c0,1.014,0,1.014-1.015,1.014" transform="translate(-155.914 -112.183)" fill="#060606"/>
        <path id="Trazado_654409" data-name="Trazado 654409" d="M208.087,165.8c0,1,0,1-.969,1-1.024,0-1.024,0-1.024-.994,0-1.035,0-1.035,1.05-1.035.943,0,.943,0,.943,1.031" transform="translate(-155.914 -124.65)" fill="#060606"/>
        <path id="Trazado_654410" data-name="Trazado 654410" d="M222.568,165.786c0-1.018,0-1.018,1.007-1.018.99,0,.99,0,.99.988,0,1.041,0,1.041-1.049,1.041-.948,0-.948,0-.948-1.011" transform="translate(-168.377 -124.65)" fill="#060606"/>
        <path id="Trazado_654411" data-name="Trazado 654411" d="M206.094,182.274c0-1.024,0-1.024,1-1.024s.993,0,.993.982c0,1.045,0,1.045-1.04,1.045-.953,0-.953,0-.953-1" transform="translate(-155.914 -137.119)" fill="#060606"/>
        <path id="Trazado_654412" data-name="Trazado 654412" d="M222.568,182.276c0-1.026,0-1.026,1.06-1.026.936,0,.936,0,.937.921,0,1.107,0,1.107-1.1,1.107-.894,0-.894,0-.894-1" transform="translate(-168.377 -137.119)" fill="#060606"/>
        <path id="Trazado_654413" data-name="Trazado 654413" d="M222.568,149.308c0-1.02,0-1.02,1-1.02s.993,0,.993.984c0,1.046,0,1.046-1.047,1.046-.95,0-.95,0-.95-1.01" transform="translate(-168.377 -112.183)" fill="#060606"/>
        <path id="Trazado_654414" data-name="Trazado 654414" d="M43.3,132.872c0,.969,0,.969-.992.969s-1,0-1-.969c0-1.061,0-1.061,1.032-1.061.961,0,.961,0,.961,1.062" transform="translate(-31.246 -99.717)" fill="#060606"/>
        <path id="Trazado_654415" data-name="Trazado 654415" d="M25.813,148.288c.962,0,.962,0,.962.941,0,1.089,0,1.089-1.114,1.089a2.9,2.9,0,0,0-.424,0c-.393.058-.5-.129-.462-.485a4.242,4.242,0,0,0,0-.485c0-1.063,0-1.063,1.035-1.063" transform="translate(-18.736 -112.183)" fill="#060606"/>
        <path id="Trazado_654416" data-name="Trazado 654416" d="M43.3,149.342c0,.976,0,.976-.983.976-1.01,0-1.01,0-1.01-1.019s0-1.011,1.024-1.011c.97,0,.97,0,.97,1.054" transform="translate(-31.246 -112.183)" fill="#060606"/>
        <path id="Trazado_654417" data-name="Trazado 654417" d="M26.81,132.828c0,1.013,0,1.013-1.009,1.013-.987,0-.987,0-.987-.986,0-1.045,0-1.045,1.052-1.045.945,0,.945,0,.945,1.018" transform="translate(-18.772 -99.717)" fill="#060606"/>
        <path id="Trazado_654418" data-name="Trazado 654418" d="M26.81,165.8c0,1,0,1-1.02,1-.977,0-.977,0-.977-.993,0-1.036,0-1.036,1.063-1.036.934,0,.934,0,.934,1.03" transform="translate(-18.772 -124.65)" fill="#060606"/>
        <path id="Trazado_654419" data-name="Trazado 654419" d="M43.3,165.8c0,.994,0,.994-1.024.994-.969,0-.969,0-.969-.937,0-1.092,0-1.092,1.065-1.092.928,0,.928,0,.928,1.035" transform="translate(-31.246 -124.65)" fill="#060606"/>
        <path id="Trazado_654420" data-name="Trazado 654420" d="M25.779,183.277c-.966,0-.966,0-.966-.94,0-1.087,0-1.087,1.074-1.087.924,0,.924,0,.924.92v.061c0,1.047,0,1.047-1.031,1.047" transform="translate(-18.772 -137.119)" fill="#060606"/>
        <path id="Trazado_654421" data-name="Trazado 654421" d="M43.3,182.254c0,1.023,0,1.023-1.054,1.023-.939,0-.939,0-.939-.964,0-1.063,0-1.063,1.033-1.063.96,0,.96,0,.96,1" transform="translate(-31.246 -137.119)" fill="#060606"/>
        <path id="Trazado_654422" data-name="Trazado 654422" d="M115.367,24.519a4.007,4.007,0,1,1,3.978-4.049,4.03,4.03,0,0,1-3.978,4.049m-.047-5.991a1.98,1.98,0,0,0-1.981,2.02,2,2,0,0,0,4-.034,1.979,1.979,0,0,0-2.015-1.986" transform="translate(-84.223 -12.486)" fill="#040302"/>
        <path id="Trazado_654423" data-name="Trazado 654423" d="M121.564,24.814a1.979,1.979,0,0,1,2.015,1.986,2,2,0,0,1-4,.034,1.98,1.98,0,0,1,1.981-2.02" transform="translate(-90.467 -18.772)" fill="#f1d37d"/>
      </g>
    </g>
    <path id="Trazado_657325" data-name="Trazado 657325" d="M3.047,10.609H4.133a2.387,2.387,0,0,0,1.609-.539,1.8,1.8,0,0,0,.586-1.414,1.764,1.764,0,0,0-1.992-2,2.072,2.072,0,0,0-1.5.535,1.873,1.873,0,0,0-.559,1.418H.836a2.9,2.9,0,0,1,.988-2.246,3.6,3.6,0,0,1,2.512-.895,3.558,3.558,0,0,1,2.523.852,3.076,3.076,0,0,1,.914,2.367,2.5,2.5,0,0,1-.48,1.438,2.9,2.9,0,0,1-1.309,1.039,2.8,2.8,0,0,1,1.449.984,2.734,2.734,0,0,1,.512,1.68,3.1,3.1,0,0,1-1,2.43,3.745,3.745,0,0,1-2.6.9,3.844,3.844,0,0,1-2.605-.867A2.877,2.877,0,0,1,.734,14H2.188a1.859,1.859,0,0,0,.586,1.438,2.229,2.229,0,0,0,1.57.539,2.187,2.187,0,0,0,1.6-.547,2.108,2.108,0,0,0,.555-1.57,1.912,1.912,0,0,0-.609-1.523,2.655,2.655,0,0,0-1.758-.547H3.047Zm8.984,0h1.086a2.387,2.387,0,0,0,1.609-.539,1.8,1.8,0,0,0,.586-1.414,1.764,1.764,0,0,0-1.992-2,2.072,2.072,0,0,0-1.5.535,1.873,1.873,0,0,0-.559,1.418H9.82a2.9,2.9,0,0,1,.988-2.246,3.6,3.6,0,0,1,2.512-.895,3.558,3.558,0,0,1,2.523.852,3.076,3.076,0,0,1,.914,2.367,2.5,2.5,0,0,1-.48,1.438,2.9,2.9,0,0,1-1.309,1.039,2.8,2.8,0,0,1,1.449.984,2.734,2.734,0,0,1,.512,1.68,3.1,3.1,0,0,1-1,2.43,3.745,3.745,0,0,1-2.6.9,3.844,3.844,0,0,1-2.605-.867,2.877,2.877,0,0,1-1-2.289h1.453a1.859,1.859,0,0,0,.586,1.438,2.229,2.229,0,0,0,1.57.539,2.187,2.187,0,0,0,1.6-.547,2.108,2.108,0,0,0,.555-1.57,1.912,1.912,0,0,0-.609-1.523,2.655,2.655,0,0,0-1.758-.547H12.031Zm15.914,4.148a1.064,1.064,0,0,0-.441-.91,4.249,4.249,0,0,0-1.539-.559,7.277,7.277,0,0,1-1.742-.562,2.479,2.479,0,0,1-.953-.781,1.869,1.869,0,0,1-.309-1.078,2.193,2.193,0,0,1,.879-1.758,3.432,3.432,0,0,1,2.246-.719,3.532,3.532,0,0,1,2.332.742,2.357,2.357,0,0,1,.895,1.9H27.859a1.3,1.3,0,0,0-.5-1.023,1.888,1.888,0,0,0-1.27-.43,1.976,1.976,0,0,0-1.234.344,1.082,1.082,0,0,0-.445.9.877.877,0,0,0,.414.789,5.1,5.1,0,0,0,1.5.508,7.8,7.8,0,0,1,1.754.578,2.558,2.558,0,0,1,1,.809,1.988,1.988,0,0,1,.324,1.152,2.163,2.163,0,0,1-.906,1.816,3.8,3.8,0,0,1-2.352.684,4.257,4.257,0,0,1-1.8-.359,2.922,2.922,0,0,1-1.223-1,2.42,2.42,0,0,1-.441-1.395h1.445a1.5,1.5,0,0,0,.582,1.152,2.258,2.258,0,0,0,1.434.426,2.331,2.331,0,0,0,1.316-.332A1.02,1.02,0,0,0,27.945,14.758Zm6.836,2.4a3.693,3.693,0,0,1-2.8-1.129,4.19,4.19,0,0,1-1.078-3.02v-.266a5.073,5.073,0,0,1,.48-2.246A3.748,3.748,0,0,1,32.73,8.949,3.378,3.378,0,0,1,34.6,8.391a3.166,3.166,0,0,1,2.563,1.086,4.7,4.7,0,0,1,.914,3.109v.6H32.352a3,3,0,0,0,.73,2.02,2.3,2.3,0,0,0,1.777.77,2.517,2.517,0,0,0,1.3-.312,3.259,3.259,0,0,0,.93-.828l.883.688A3.55,3.55,0,0,1,34.781,17.156ZM34.6,9.578a1.928,1.928,0,0,0-1.469.637A3.1,3.1,0,0,0,32.4,12h4.234v-.109a2.753,2.753,0,0,0-.594-1.707A1.815,1.815,0,0,0,34.6,9.578ZM39.4,12.7a4.952,4.952,0,0,1,.922-3.129,3.137,3.137,0,0,1,4.766-.168V5h1.445V17H45.2l-.07-.906a2.943,2.943,0,0,1-2.414,1.063,2.887,2.887,0,0,1-2.395-1.2,5.008,5.008,0,0,1-.926-3.141Zm1.445.164a3.749,3.749,0,0,0,.594,2.25,1.92,1.92,0,0,0,1.641.813A2.108,2.108,0,0,0,45.086,14.7V10.813a2.125,2.125,0,0,0-1.992-1.2,1.929,1.929,0,0,0-1.656.82A4.128,4.128,0,0,0,40.844,12.867Zm11.438,4.289a3.693,3.693,0,0,1-2.8-1.129,4.19,4.19,0,0,1-1.078-3.02v-.266a5.073,5.073,0,0,1,.48-2.246A3.748,3.748,0,0,1,50.23,8.949,3.378,3.378,0,0,1,52.1,8.391a3.166,3.166,0,0,1,2.563,1.086,4.7,4.7,0,0,1,.914,3.109v.6H49.852a3,3,0,0,0,.73,2.02,2.3,2.3,0,0,0,1.777.77,2.517,2.517,0,0,0,1.3-.312,3.259,3.259,0,0,0,.93-.828l.883.688A3.55,3.55,0,0,1,52.281,17.156ZM52.1,9.578a1.928,1.928,0,0,0-1.469.637A3.1,3.1,0,0,0,49.9,12h4.234v-.109a2.753,2.753,0,0,0-.594-1.707A1.815,1.815,0,0,0,52.1,9.578Zm10.07,5.18a1.064,1.064,0,0,0-.441-.91,4.249,4.249,0,0,0-1.539-.559,7.277,7.277,0,0,1-1.742-.562,2.479,2.479,0,0,1-.953-.781,1.869,1.869,0,0,1-.309-1.078,2.193,2.193,0,0,1,.879-1.758,3.432,3.432,0,0,1,2.246-.719,3.532,3.532,0,0,1,2.332.742,2.357,2.357,0,0,1,.895,1.9H62.086a1.3,1.3,0,0,0-.5-1.023,1.888,1.888,0,0,0-1.27-.43,1.976,1.976,0,0,0-1.234.344,1.082,1.082,0,0,0-.445.9.877.877,0,0,0,.414.789,5.1,5.1,0,0,0,1.5.508A7.8,7.8,0,0,1,62.3,12.7a2.558,2.558,0,0,1,1,.809,1.988,1.988,0,0,1,.324,1.152,2.163,2.163,0,0,1-.906,1.816,3.8,3.8,0,0,1-2.352.684,4.257,4.257,0,0,1-1.8-.359,2.922,2.922,0,0,1-1.223-1A2.42,2.42,0,0,1,56.9,14.4h1.445a1.5,1.5,0,0,0,.582,1.152,2.258,2.258,0,0,0,1.434.426,2.331,2.331,0,0,0,1.316-.332A1.02,1.02,0,0,0,62.172,14.758ZM73.547,9.844a4.331,4.331,0,0,0-.711-.055A1.9,1.9,0,0,0,70.906,11v6H69.461V8.547h1.406l.023.977a2.251,2.251,0,0,1,2.016-1.133,1.477,1.477,0,0,1,.641.109Zm4.836,7.313a3.693,3.693,0,0,1-2.8-1.129,4.19,4.19,0,0,1-1.078-3.02v-.266a5.073,5.073,0,0,1,.48-2.246,3.748,3.748,0,0,1,1.344-1.547A3.378,3.378,0,0,1,78.2,8.391a3.166,3.166,0,0,1,2.563,1.086,4.7,4.7,0,0,1,.914,3.109v.6H75.953a3,3,0,0,0,.73,2.02,2.3,2.3,0,0,0,1.777.77,2.517,2.517,0,0,0,1.3-.312,3.259,3.259,0,0,0,.93-.828l.883.688A3.55,3.55,0,0,1,78.383,17.156ZM78.2,9.578a1.928,1.928,0,0,0-1.469.637A3.1,3.1,0,0,0,76,12h4.234v-.109a2.753,2.753,0,0,0-.594-1.707A1.815,1.815,0,0,0,78.2,9.578Zm4.8,3.125a4.968,4.968,0,0,1,.914-3.145,3.151,3.151,0,0,1,4.836-.074l.07-.937h1.32V16.8a3.439,3.439,0,0,1-.973,2.586,3.589,3.589,0,0,1-2.613.945,4.348,4.348,0,0,1-1.789-.391,3.08,3.08,0,0,1-1.336-1.07l.75-.867a2.826,2.826,0,0,0,2.273,1.148,2.214,2.214,0,0,0,1.645-.594,2.269,2.269,0,0,0,.59-1.672v-.727a2.971,2.971,0,0,1-2.367,1,2.887,2.887,0,0,1-2.4-1.2A5.224,5.224,0,0,1,83.008,12.7Zm1.453.164a3.79,3.79,0,0,0,.586,2.246,1.9,1.9,0,0,0,1.641.816A2.117,2.117,0,0,0,88.7,14.688V10.828A2.142,2.142,0,0,0,86.7,9.617a1.921,1.921,0,0,0-1.648.82A4.128,4.128,0,0,0,84.461,12.867ZM93.9,17H92.453V8.547H93.9ZM92.336,6.3a.863.863,0,0,1,.215-.594.807.807,0,0,1,.637-.242.819.819,0,0,1,.641.242.854.854,0,0,1,.219.594.826.826,0,0,1-.219.586.834.834,0,0,1-.641.234.821.821,0,0,1-.637-.234A.834.834,0,0,1,92.336,6.3ZM95.828,12.7a4.993,4.993,0,0,1,.488-2.234A3.643,3.643,0,0,1,97.676,8.93a3.7,3.7,0,0,1,1.988-.539,3.565,3.565,0,0,1,2.793,1.2,4.6,4.6,0,0,1,1.066,3.18v.1a5.036,5.036,0,0,1-.473,2.215,3.589,3.589,0,0,1-1.352,1.527,3.743,3.743,0,0,1-2.02.547,3.556,3.556,0,0,1-2.785-1.2A4.575,4.575,0,0,1,95.828,12.8Zm1.453.172a3.616,3.616,0,0,0,.652,2.258,2.211,2.211,0,0,0,3.5-.012,3.955,3.955,0,0,0,.648-2.418,3.61,3.61,0,0,0-.66-2.254,2.1,2.1,0,0,0-1.754-.863,2.075,2.075,0,0,0-1.727.852A3.925,3.925,0,0,0,97.281,12.867Zm9.422-4.32.047,1.063a3.08,3.08,0,0,1,2.531-1.219q2.68,0,2.7,3.023V17h-1.445V11.406a1.946,1.946,0,0,0-.418-1.352,1.675,1.675,0,0,0-1.277-.437,2.086,2.086,0,0,0-1.234.375,2.546,2.546,0,0,0-.828.984V17h-1.445V8.547ZM119.383,17a3.036,3.036,0,0,1-.2-.891,3.225,3.225,0,0,1-2.406,1.047,2.984,2.984,0,0,1-2.051-.707,2.288,2.288,0,0,1-.8-1.793,2.39,2.39,0,0,1,1-2.051,4.733,4.733,0,0,1,2.824-.73h1.406v-.664A1.623,1.623,0,0,0,118.7,10a1.821,1.821,0,0,0-1.336-.449,2.108,2.108,0,0,0-1.3.391,1.151,1.151,0,0,0-.523.945h-1.453a2,2,0,0,1,.449-1.223,3.066,3.066,0,0,1,1.219-.934,4.1,4.1,0,0,1,1.691-.344,3.342,3.342,0,0,1,2.289.73,2.635,2.635,0,0,1,.859,2.012v3.891a4.757,4.757,0,0,0,.3,1.852V17Zm-2.4-1.1a2.54,2.54,0,0,0,1.289-.352,2.127,2.127,0,0,0,.883-.914V12.9h-1.133q-2.656,0-2.656,1.555a1.316,1.316,0,0,0,.453,1.063A1.742,1.742,0,0,0,116.984,15.9Zm7.453,1.1h-1.445V5h1.445Zm5.82.156a3.693,3.693,0,0,1-2.8-1.129,4.19,4.19,0,0,1-1.078-3.02v-.266a5.073,5.073,0,0,1,.48-2.246,3.748,3.748,0,0,1,1.344-1.547,3.378,3.378,0,0,1,1.871-.559,3.166,3.166,0,0,1,2.563,1.086,4.7,4.7,0,0,1,.914,3.109v.6h-5.727a3,3,0,0,0,.73,2.02,2.3,2.3,0,0,0,1.777.77,2.517,2.517,0,0,0,1.3-.312,3.258,3.258,0,0,0,.93-.828l.883.688A3.55,3.55,0,0,1,130.258,17.156Zm-.18-7.578a1.928,1.928,0,0,0-1.469.637A3.1,3.1,0,0,0,127.875,12h4.234v-.109a2.753,2.753,0,0,0-.594-1.707A1.815,1.815,0,0,0,130.078,9.578Zm10.07,5.18a1.064,1.064,0,0,0-.441-.91,4.249,4.249,0,0,0-1.539-.559,7.277,7.277,0,0,1-1.742-.562,2.479,2.479,0,0,1-.953-.781,1.869,1.869,0,0,1-.309-1.078,2.193,2.193,0,0,1,.879-1.758,3.432,3.432,0,0,1,2.246-.719,3.532,3.532,0,0,1,2.332.742,2.357,2.357,0,0,1,.895,1.9h-1.453a1.3,1.3,0,0,0-.5-1.023,1.888,1.888,0,0,0-1.27-.43,1.976,1.976,0,0,0-1.234.344,1.082,1.082,0,0,0-.445.9.877.877,0,0,0,.414.789,5.1,5.1,0,0,0,1.5.508,7.8,7.8,0,0,1,1.754.578,2.558,2.558,0,0,1,1,.809,1.988,1.988,0,0,1,.324,1.152,2.163,2.163,0,0,1-.906,1.816,3.8,3.8,0,0,1-2.352.684,4.257,4.257,0,0,1-1.8-.359,2.922,2.922,0,0,1-1.223-1,2.42,2.42,0,0,1-.441-1.395h1.445a1.5,1.5,0,0,0,.582,1.152,2.258,2.258,0,0,0,1.434.426,2.331,2.331,0,0,0,1.316-.332A1.02,1.02,0,0,0,140.148,14.758Zm3.359,1.484a.905.905,0,0,1,.223-.625.848.848,0,0,1,.668-.25.874.874,0,0,1,.676.25.887.887,0,0,1,.23.625.839.839,0,0,1-.23.6.89.89,0,0,1-.676.242.8.8,0,0,1-.891-.844Z" transform="translate(1065 1208.752)" fill="#12263f"/>
    <path id="Trazado_657326" data-name="Trazado 657326" d="M8.4,17H.945V15.961l3.938-4.375A9.355,9.355,0,0,0,6.09,9.973a2.693,2.693,0,0,0,.332-1.285,2.041,2.041,0,0,0-.539-1.461,1.885,1.885,0,0,0-1.437-.57A2.232,2.232,0,0,0,2.77,7.27a2.343,2.343,0,0,0-.6,1.707H.727A3.355,3.355,0,0,1,1.738,6.438a3.751,3.751,0,0,1,2.707-.969A3.6,3.6,0,0,1,6.953,6.3a2.838,2.838,0,0,1,.922,2.215q0,1.68-2.141,4l-3.047,3.3H8.4Zm8.984,0H9.93V15.961l3.938-4.375a9.355,9.355,0,0,0,1.207-1.613,2.693,2.693,0,0,0,.332-1.285,2.041,2.041,0,0,0-.539-1.461,1.885,1.885,0,0,0-1.437-.57,2.232,2.232,0,0,0-1.676.613,2.343,2.343,0,0,0-.6,1.707H9.711a3.355,3.355,0,0,1,1.012-2.539,3.751,3.751,0,0,1,2.707-.969,3.6,3.6,0,0,1,2.508.832,2.838,2.838,0,0,1,.922,2.215q0,1.68-2.141,4l-3.047,3.3h5.711Zm8.664-4.852a6.61,6.61,0,0,1-.867,3.773,3.084,3.084,0,0,1-2.711,1.234,3.107,3.107,0,0,1-2.7-1.207,6.274,6.274,0,0,1-.906-3.605v-1.93a6.463,6.463,0,0,1,.867-3.727,3.108,3.108,0,0,1,2.719-1.219,3.136,3.136,0,0,1,2.7,1.176,6.237,6.237,0,0,1,.891,3.629ZM24.6,10.172A5.3,5.3,0,0,0,24.086,7.5a1.775,1.775,0,0,0-1.633-.84,1.751,1.751,0,0,0-1.617.836,5.171,5.171,0,0,0-.523,2.57v2.313a5.381,5.381,0,0,0,.535,2.723,1.771,1.771,0,0,0,1.621.879,1.747,1.747,0,0,0,1.59-.828,5.186,5.186,0,0,0,.543-2.609Zm10.8,5.8a2.082,2.082,0,0,0,1.352-.469,1.649,1.649,0,0,0,.641-1.172h1.367a2.621,2.621,0,0,1-.5,1.383,3.293,3.293,0,0,1-1.23,1.047,3.55,3.55,0,0,1-1.629.391A3.482,3.482,0,0,1,32.652,16a4.59,4.59,0,0,1-1.02-3.152v-.242a5.089,5.089,0,0,1,.453-2.2,3.451,3.451,0,0,1,1.3-1.492,3.7,3.7,0,0,1,2-.531,3.39,3.39,0,0,1,2.363.852,3.043,3.043,0,0,1,1,2.211H37.391a1.992,1.992,0,0,0-.621-1.348,1.932,1.932,0,0,0-1.379-.527,2.023,2.023,0,0,0-1.707.793,3.724,3.724,0,0,0-.605,2.293v.273a3.65,3.65,0,0,0,.6,2.25A2.033,2.033,0,0,0,35.4,15.977Zm8.492,1.18a3.693,3.693,0,0,1-2.8-1.129,4.19,4.19,0,0,1-1.078-3.02v-.266A5.073,5.073,0,0,1,40.5,10.5,3.748,3.748,0,0,1,41.84,8.949a3.378,3.378,0,0,1,1.871-.559,3.166,3.166,0,0,1,2.563,1.086,4.7,4.7,0,0,1,.914,3.109v.6H41.461a3,3,0,0,0,.73,2.02,2.3,2.3,0,0,0,1.777.77,2.517,2.517,0,0,0,1.3-.312,3.259,3.259,0,0,0,.93-.828l.883.688A3.55,3.55,0,0,1,43.891,17.156Zm-.18-7.578a1.928,1.928,0,0,0-1.469.637A3.1,3.1,0,0,0,41.508,12h4.234v-.109a2.753,2.753,0,0,0-.594-1.707A1.815,1.815,0,0,0,43.711,9.578Zm6.516-1.031.047,1.063A3.08,3.08,0,0,1,52.8,8.391q2.68,0,2.7,3.023V17H54.063V11.406a1.946,1.946,0,0,0-.418-1.352,1.675,1.675,0,0,0-1.277-.437,2.086,2.086,0,0,0-1.234.375,2.546,2.546,0,0,0-.828.984V17H48.859V8.547ZM59.648,6.5V8.547h1.578V9.664H59.648v5.249a1.173,1.173,0,0,0,.211.763.888.888,0,0,0,.719.254,3.5,3.5,0,0,0,.688-.094V17a4.215,4.215,0,0,1-1.109.155A1.8,1.8,0,0,1,58.7,16.57a2.517,2.517,0,0,1-.492-1.664V9.664H56.664V8.547H58.2V6.5ZM67,9.844a4.331,4.331,0,0,0-.711-.055A1.9,1.9,0,0,0,64.359,11v6H62.914V8.547H64.32l.023.977a2.251,2.251,0,0,1,2.016-1.133A1.477,1.477,0,0,1,67,8.5Zm.789,2.852a4.993,4.993,0,0,1,.488-2.234A3.643,3.643,0,0,1,69.637,8.93a3.7,3.7,0,0,1,1.988-.539,3.565,3.565,0,0,1,2.793,1.2,4.6,4.6,0,0,1,1.066,3.18v.1a5.036,5.036,0,0,1-.473,2.215,3.589,3.589,0,0,1-1.352,1.527,3.743,3.743,0,0,1-2.02.547,3.556,3.556,0,0,1-2.785-1.2A4.575,4.575,0,0,1,67.789,12.8Zm1.453.172a3.616,3.616,0,0,0,.652,2.258,2.211,2.211,0,0,0,3.5-.012,3.955,3.955,0,0,0,.648-2.418,3.61,3.61,0,0,0-.66-2.254,2.1,2.1,0,0,0-1.754-.863,2.075,2.075,0,0,0-1.727.852A3.925,3.925,0,0,0,69.242,12.867Zm12.977,1.891a1.064,1.064,0,0,0-.441-.91,4.249,4.249,0,0,0-1.539-.559,7.277,7.277,0,0,1-1.742-.562,2.479,2.479,0,0,1-.953-.781,1.869,1.869,0,0,1-.309-1.078,2.193,2.193,0,0,1,.879-1.758,3.432,3.432,0,0,1,2.246-.719,3.532,3.532,0,0,1,2.332.742,2.357,2.357,0,0,1,.895,1.9H82.133a1.3,1.3,0,0,0-.5-1.023,1.888,1.888,0,0,0-1.27-.43,1.976,1.976,0,0,0-1.234.344,1.082,1.082,0,0,0-.445.9.877.877,0,0,0,.414.789,5.1,5.1,0,0,0,1.5.508,7.8,7.8,0,0,1,1.754.578,2.558,2.558,0,0,1,1,.809,1.988,1.988,0,0,1,.324,1.152,2.163,2.163,0,0,1-.906,1.816,3.8,3.8,0,0,1-2.352.684,4.257,4.257,0,0,1-1.8-.359,2.922,2.922,0,0,1-1.223-1,2.42,2.42,0,0,1-.441-1.395h1.445a1.5,1.5,0,0,0,.582,1.152,2.258,2.258,0,0,0,1.434.426,2.331,2.331,0,0,0,1.316-.332A1.02,1.02,0,0,0,82.219,14.758Zm8.648,1.063h4.945V17H89.1V15.938l4.664-6.2H89.172v-1.2h6.406V9.57ZM96.93,12.7a4.993,4.993,0,0,1,.488-2.234A3.643,3.643,0,0,1,98.777,8.93a3.7,3.7,0,0,1,1.988-.539,3.565,3.565,0,0,1,2.793,1.2,4.6,4.6,0,0,1,1.066,3.18v.1a5.036,5.036,0,0,1-.473,2.215,3.589,3.589,0,0,1-1.352,1.527,3.743,3.743,0,0,1-2.02.547A3.556,3.556,0,0,1,98,15.961,4.575,4.575,0,0,1,96.93,12.8Zm1.453.172a3.616,3.616,0,0,0,.652,2.258,2.211,2.211,0,0,0,3.5-.012,3.955,3.955,0,0,0,.648-2.418,3.61,3.61,0,0,0-.66-2.254,2.1,2.1,0,0,0-1.754-.863,2.075,2.075,0,0,0-1.727.852A3.925,3.925,0,0,0,98.383,12.867Zm9.422-4.32.047,1.063a3.08,3.08,0,0,1,2.531-1.219q2.68,0,2.7,3.023V17h-1.445V11.406a1.946,1.946,0,0,0-.418-1.352,1.675,1.675,0,0,0-1.277-.437,2.086,2.086,0,0,0-1.234.375,2.546,2.546,0,0,0-.828.984V17h-1.445V8.547ZM120.484,17a3.036,3.036,0,0,1-.2-.891,3.225,3.225,0,0,1-2.406,1.047,2.984,2.984,0,0,1-2.051-.707,2.288,2.288,0,0,1-.8-1.793,2.39,2.39,0,0,1,1-2.051,4.733,4.733,0,0,1,2.824-.73h1.406v-.664A1.623,1.623,0,0,0,119.8,10a1.821,1.821,0,0,0-1.336-.449,2.108,2.108,0,0,0-1.3.391,1.151,1.151,0,0,0-.523.945H115.2a2,2,0,0,1,.449-1.223,3.066,3.066,0,0,1,1.219-.934,4.1,4.1,0,0,1,1.691-.344,3.342,3.342,0,0,1,2.289.73,2.635,2.635,0,0,1,.859,2.012v3.891a4.757,4.757,0,0,0,.3,1.852V17Zm-2.4-1.1a2.54,2.54,0,0,0,1.289-.352,2.127,2.127,0,0,0,.883-.914V12.9h-1.133q-2.656,0-2.656,1.555a1.316,1.316,0,0,0,.453,1.063A1.742,1.742,0,0,0,118.086,15.9Zm7.453,1.1h-1.445V5h1.445Zm5.82.156a3.693,3.693,0,0,1-2.8-1.129,4.19,4.19,0,0,1-1.078-3.02v-.266a5.073,5.073,0,0,1,.48-2.246,3.748,3.748,0,0,1,1.344-1.547,3.378,3.378,0,0,1,1.871-.559,3.166,3.166,0,0,1,2.563,1.086,4.7,4.7,0,0,1,.914,3.109v.6H128.93a3,3,0,0,0,.73,2.02,2.3,2.3,0,0,0,1.777.77,2.517,2.517,0,0,0,1.3-.312,3.258,3.258,0,0,0,.93-.828l.883.688A3.55,3.55,0,0,1,131.359,17.156Zm-.18-7.578a1.928,1.928,0,0,0-1.469.637A3.1,3.1,0,0,0,128.977,12h4.234v-.109a2.753,2.753,0,0,0-.594-1.707A1.815,1.815,0,0,0,131.18,9.578Zm10.07,5.18a1.064,1.064,0,0,0-.441-.91,4.249,4.249,0,0,0-1.539-.559,7.277,7.277,0,0,1-1.742-.562,2.479,2.479,0,0,1-.953-.781,1.869,1.869,0,0,1-.309-1.078,2.193,2.193,0,0,1,.879-1.758,3.432,3.432,0,0,1,2.246-.719,3.532,3.532,0,0,1,2.332.742,2.357,2.357,0,0,1,.895,1.9h-1.453a1.3,1.3,0,0,0-.5-1.023,1.888,1.888,0,0,0-1.27-.43,1.976,1.976,0,0,0-1.234.344,1.082,1.082,0,0,0-.445.9.877.877,0,0,0,.414.789,5.1,5.1,0,0,0,1.5.508,7.8,7.8,0,0,1,1.754.578,2.558,2.558,0,0,1,1,.809,1.988,1.988,0,0,1,.324,1.152,2.163,2.163,0,0,1-.906,1.816,3.8,3.8,0,0,1-2.352.684,4.257,4.257,0,0,1-1.8-.359,2.922,2.922,0,0,1-1.223-1,2.42,2.42,0,0,1-.441-1.395h1.445A1.5,1.5,0,0,0,138,15.551a2.258,2.258,0,0,0,1.434.426,2.331,2.331,0,0,0,1.316-.332A1.02,1.02,0,0,0,141.25,14.758Zm3.359,1.484a.905.905,0,0,1,.223-.625.848.848,0,0,1,.668-.25.874.874,0,0,1,.676.25.887.887,0,0,1,.23.625.839.839,0,0,1-.23.6.89.89,0,0,1-.676.242.8.8,0,0,1-.891-.844Z" transform="translate(1065 1308.752)" fill="#12263f"/>
    <path id="Trazado_657327" data-name="Trazado 657327" d="M3.047,10.609H4.133a2.387,2.387,0,0,0,1.609-.539,1.8,1.8,0,0,0,.586-1.414,1.764,1.764,0,0,0-1.992-2,2.072,2.072,0,0,0-1.5.535,1.873,1.873,0,0,0-.559,1.418H.836a2.9,2.9,0,0,1,.988-2.246,3.6,3.6,0,0,1,2.512-.895,3.558,3.558,0,0,1,2.523.852,3.076,3.076,0,0,1,.914,2.367,2.5,2.5,0,0,1-.48,1.438,2.9,2.9,0,0,1-1.309,1.039,2.8,2.8,0,0,1,1.449.984,2.734,2.734,0,0,1,.512,1.68,3.1,3.1,0,0,1-1,2.43,3.745,3.745,0,0,1-2.6.9,3.844,3.844,0,0,1-2.605-.867A2.877,2.877,0,0,1,.734,14H2.188a1.859,1.859,0,0,0,.586,1.438,2.229,2.229,0,0,0,1.57.539,2.187,2.187,0,0,0,1.6-.547,2.108,2.108,0,0,0,.555-1.57,1.912,1.912,0,0,0-.609-1.523,2.655,2.655,0,0,0-1.758-.547H3.047ZM15.4,8.547l.039.938a3.122,3.122,0,0,1,2.508-1.094A2.417,2.417,0,0,1,20.359,9.75a3.2,3.2,0,0,1,1.1-.984,3.242,3.242,0,0,1,1.6-.375q2.781,0,2.828,2.945V17H24.438V11.422a1.941,1.941,0,0,0-.414-1.355,1.823,1.823,0,0,0-1.391-.449,1.916,1.916,0,0,0-1.336.48,1.949,1.949,0,0,0-.617,1.293V17H19.227V11.461a1.613,1.613,0,0,0-1.8-1.844,1.934,1.934,0,0,0-1.945,1.211V17H14.031V8.547ZM29.633,17H28.188V8.547h1.445ZM28.07,6.3a.863.863,0,0,1,.215-.594.807.807,0,0,1,.637-.242.819.819,0,0,1,.641.242.854.854,0,0,1,.219.594.826.826,0,0,1-.219.586.834.834,0,0,1-.641.234.821.821,0,0,1-.637-.234A.834.834,0,0,1,28.07,6.3ZM33.516,17H32.07V5h1.445ZM37.4,17H35.953V5H37.4Zm1.93-4.3a4.993,4.993,0,0,1,.488-2.234A3.643,3.643,0,0,1,41.176,8.93a3.7,3.7,0,0,1,1.988-.539,3.565,3.565,0,0,1,2.793,1.2,4.6,4.6,0,0,1,1.066,3.18v.1a5.036,5.036,0,0,1-.473,2.215A3.589,3.589,0,0,1,45.2,16.609a3.743,3.743,0,0,1-2.02.547,3.556,3.556,0,0,1-2.785-1.2A4.575,4.575,0,0,1,39.328,12.8Zm1.453.172a3.616,3.616,0,0,0,.652,2.258,2.211,2.211,0,0,0,3.5-.012,3.955,3.955,0,0,0,.648-2.418,3.61,3.61,0,0,0-.66-2.254,2.1,2.1,0,0,0-1.754-.863,2.075,2.075,0,0,0-1.727.852A3.925,3.925,0,0,0,40.781,12.867ZM50.2,8.547l.047,1.063a3.08,3.08,0,0,1,2.531-1.219q2.68,0,2.7,3.023V17H54.039V11.406a1.946,1.946,0,0,0-.418-1.352,1.675,1.675,0,0,0-1.277-.437,2.086,2.086,0,0,0-1.234.375,2.546,2.546,0,0,0-.828.984V17H48.836V8.547Zm10.969,8.609a3.693,3.693,0,0,1-2.8-1.129,4.19,4.19,0,0,1-1.078-3.02v-.266a5.073,5.073,0,0,1,.48-2.246,3.748,3.748,0,0,1,1.344-1.547,3.378,3.378,0,0,1,1.871-.559,3.166,3.166,0,0,1,2.563,1.086,4.7,4.7,0,0,1,.914,3.109v.6H58.742a3,3,0,0,0,.73,2.02,2.3,2.3,0,0,0,1.777.77,2.517,2.517,0,0,0,1.3-.312,3.259,3.259,0,0,0,.93-.828l.883.688A3.55,3.55,0,0,1,61.172,17.156Zm-.18-7.578a1.928,1.928,0,0,0-1.469.637A3.1,3.1,0,0,0,58.789,12h4.234v-.109a2.753,2.753,0,0,0-.594-1.707A1.815,1.815,0,0,0,60.992,9.578Zm10.07,5.18a1.064,1.064,0,0,0-.441-.91,4.249,4.249,0,0,0-1.539-.559,7.277,7.277,0,0,1-1.742-.562,2.479,2.479,0,0,1-.953-.781,1.869,1.869,0,0,1-.309-1.078,2.193,2.193,0,0,1,.879-1.758A3.432,3.432,0,0,1,69.2,8.391a3.532,3.532,0,0,1,2.332.742,2.357,2.357,0,0,1,.895,1.9H70.977a1.3,1.3,0,0,0-.5-1.023,1.888,1.888,0,0,0-1.27-.43,1.976,1.976,0,0,0-1.234.344,1.082,1.082,0,0,0-.445.9.877.877,0,0,0,.414.789,5.1,5.1,0,0,0,1.5.508,7.8,7.8,0,0,1,1.754.578,2.558,2.558,0,0,1,1,.809,1.988,1.988,0,0,1,.324,1.152,2.163,2.163,0,0,1-.906,1.816,3.8,3.8,0,0,1-2.352.684,4.257,4.257,0,0,1-1.8-.359,2.922,2.922,0,0,1-1.223-1,2.42,2.42,0,0,1-.441-1.395h1.445a1.5,1.5,0,0,0,.582,1.152,2.258,2.258,0,0,0,1.434.426,2.331,2.331,0,0,0,1.316-.332A1.02,1.02,0,0,0,71.063,14.758ZM78,12.7a4.952,4.952,0,0,1,.922-3.129,3.137,3.137,0,0,1,4.766-.168V5h1.445V17H83.8l-.07-.906a2.943,2.943,0,0,1-2.414,1.063,2.887,2.887,0,0,1-2.395-1.2A5.008,5.008,0,0,1,78,12.813Zm1.445.164a3.749,3.749,0,0,0,.594,2.25,1.92,1.92,0,0,0,1.641.813A2.108,2.108,0,0,0,83.688,14.7V10.813a2.125,2.125,0,0,0-1.992-1.2,1.929,1.929,0,0,0-1.656.82A4.128,4.128,0,0,0,79.445,12.867Zm11.438,4.289a3.693,3.693,0,0,1-2.8-1.129,4.19,4.19,0,0,1-1.078-3.02v-.266a5.073,5.073,0,0,1,.48-2.246,3.748,3.748,0,0,1,1.344-1.547A3.378,3.378,0,0,1,90.7,8.391a3.166,3.166,0,0,1,2.563,1.086,4.7,4.7,0,0,1,.914,3.109v.6H88.453a3,3,0,0,0,.73,2.02,2.3,2.3,0,0,0,1.777.77,2.517,2.517,0,0,0,1.3-.312,3.259,3.259,0,0,0,.93-.828l.883.688A3.55,3.55,0,0,1,90.883,17.156ZM90.7,9.578a1.928,1.928,0,0,0-1.469.637A3.1,3.1,0,0,0,88.5,12h4.234v-.109a2.753,2.753,0,0,0-.594-1.707A1.815,1.815,0,0,0,90.7,9.578Zm16.266,3.289a5.026,5.026,0,0,1-.891,3.113,2.846,2.846,0,0,1-2.391,1.176,2.947,2.947,0,0,1-2.477-1.133l-.07.977H99.813V5h1.445V9.477a2.93,2.93,0,0,1,2.414-1.086,2.863,2.863,0,0,1,2.418,1.164,5.177,5.177,0,0,1,.879,3.188Zm-1.445-.164a3.906,3.906,0,0,0-.57-2.281,1.888,1.888,0,0,0-1.641-.8,2.122,2.122,0,0,0-2.055,1.328V14.6a2.181,2.181,0,0,0,2.07,1.328,1.878,1.878,0,0,0,1.617-.8A4.153,4.153,0,0,0,105.523,12.7Zm6.773,4.453a3.693,3.693,0,0,1-2.8-1.129,4.19,4.19,0,0,1-1.078-3.02v-.266a5.073,5.073,0,0,1,.48-2.246,3.748,3.748,0,0,1,1.344-1.547,3.378,3.378,0,0,1,1.871-.559,3.166,3.166,0,0,1,2.563,1.086,4.7,4.7,0,0,1,.914,3.109v.6h-5.727a3,3,0,0,0,.73,2.02,2.3,2.3,0,0,0,1.777.77,2.517,2.517,0,0,0,1.3-.312,3.259,3.259,0,0,0,.93-.828l.883.688A3.55,3.55,0,0,1,112.3,17.156Zm-.18-7.578a1.928,1.928,0,0,0-1.469.637A3.1,3.1,0,0,0,109.914,12h4.234v-.109a2.753,2.753,0,0,0-.594-1.707A1.815,1.815,0,0,0,112.117,9.578Zm6.516-1.031.047,1.063a3.08,3.08,0,0,1,2.531-1.219q2.68,0,2.7,3.023V17h-1.445V11.406a1.946,1.946,0,0,0-.418-1.352,1.675,1.675,0,0,0-1.277-.437,2.086,2.086,0,0,0-1.234.375,2.546,2.546,0,0,0-.828.984V17h-1.445V8.547ZM129.6,17.156a3.693,3.693,0,0,1-2.8-1.129,4.19,4.19,0,0,1-1.078-3.02v-.266a5.073,5.073,0,0,1,.48-2.246,3.748,3.748,0,0,1,1.344-1.547,3.378,3.378,0,0,1,1.871-.559,3.166,3.166,0,0,1,2.563,1.086,4.7,4.7,0,0,1,.914,3.109v.6h-5.727a3,3,0,0,0,.73,2.02,2.3,2.3,0,0,0,1.777.77,2.517,2.517,0,0,0,1.3-.312,3.258,3.258,0,0,0,.93-.828l.883.688A3.55,3.55,0,0,1,129.6,17.156Zm-.18-7.578a1.928,1.928,0,0,0-1.469.637A3.1,3.1,0,0,0,127.219,12h4.234v-.109a2.753,2.753,0,0,0-.594-1.707A1.815,1.815,0,0,0,129.422,9.578ZM135.055,17V9.664h-1.336V8.547h1.336V7.828a2.937,2.937,0,0,1,.809-2.2,3.136,3.136,0,0,1,2.285-.789,6.881,6.881,0,0,1,2.211.477l-.242,1.219a5.008,5.008,0,0,0-1.859-.391,1.819,1.819,0,0,0-1.34.418,1.723,1.723,0,0,0-.41,1.254v.734h1.727V9.664h-1.727V17Zm6.023,0h-1.453V8.547h1.453Zm5.742-1.023a2.082,2.082,0,0,0,1.352-.469,1.649,1.649,0,0,0,.641-1.172h1.367a2.621,2.621,0,0,1-.5,1.383,3.293,3.293,0,0,1-1.23,1.047,3.55,3.55,0,0,1-1.629.391A3.482,3.482,0,0,1,144.074,16a4.59,4.59,0,0,1-1.02-3.152v-.242a5.089,5.089,0,0,1,.453-2.2,3.451,3.451,0,0,1,1.3-1.492,3.7,3.7,0,0,1,2-.531,3.39,3.39,0,0,1,2.363.852,3.043,3.043,0,0,1,1,2.211h-1.367a1.992,1.992,0,0,0-.621-1.348,1.932,1.932,0,0,0-1.379-.527,2.023,2.023,0,0,0-1.707.793,3.724,3.724,0,0,0-.605,2.293v.273a3.65,3.65,0,0,0,.6,2.25A2.033,2.033,0,0,0,146.82,15.977ZM153.375,17H151.93V8.547h1.445ZM151.813,6.3a.863.863,0,0,1,.215-.594.807.807,0,0,1,.637-.242.819.819,0,0,1,.641.242.854.854,0,0,1,.219.594.826.826,0,0,1-.219.586.834.834,0,0,1-.641.234.821.821,0,0,1-.637-.234A.834.834,0,0,1,151.813,6.3ZM160.906,17a3.036,3.036,0,0,1-.2-.891,3.225,3.225,0,0,1-2.406,1.047,2.984,2.984,0,0,1-2.051-.707,2.287,2.287,0,0,1-.8-1.793,2.39,2.39,0,0,1,1-2.051,4.733,4.733,0,0,1,2.824-.73h1.406v-.664A1.623,1.623,0,0,0,160.227,10a1.821,1.821,0,0,0-1.336-.449,2.107,2.107,0,0,0-1.3.391,1.151,1.151,0,0,0-.523.945h-1.453a2,2,0,0,1,.449-1.223,3.066,3.066,0,0,1,1.219-.934,4.1,4.1,0,0,1,1.691-.344,3.342,3.342,0,0,1,2.289.73,2.635,2.635,0,0,1,.859,2.012v3.891a4.757,4.757,0,0,0,.3,1.852V17Zm-2.4-1.1a2.54,2.54,0,0,0,1.289-.352,2.127,2.127,0,0,0,.883-.914V12.9h-1.133q-2.656,0-2.656,1.555a1.316,1.316,0,0,0,.453,1.063A1.742,1.742,0,0,0,158.508,15.9Zm9.969-6.055a4.331,4.331,0,0,0-.711-.055A1.9,1.9,0,0,0,165.836,11v6h-1.445V8.547H165.8l.023.977a2.251,2.251,0,0,1,2.016-1.133,1.477,1.477,0,0,1,.641.109Zm2.9,7.156H169.93V8.547h1.445ZM169.813,6.3a.863.863,0,0,1,.215-.594.807.807,0,0,1,.637-.242.819.819,0,0,1,.641.242.854.854,0,0,1,.219.594.826.826,0,0,1-.219.586.834.834,0,0,1-.641.234.821.821,0,0,1-.637-.234A.834.834,0,0,1,169.813,6.3ZM173.3,12.7a4.993,4.993,0,0,1,.488-2.234,3.642,3.642,0,0,1,1.359-1.531,3.7,3.7,0,0,1,1.988-.539,3.565,3.565,0,0,1,2.793,1.2A4.6,4.6,0,0,1,181,12.766v.1a5.036,5.036,0,0,1-.473,2.215,3.589,3.589,0,0,1-1.352,1.527,3.743,3.743,0,0,1-2.02.547,3.556,3.556,0,0,1-2.785-1.2A4.575,4.575,0,0,1,173.3,12.8Zm1.453.172a3.616,3.616,0,0,0,.652,2.258,2.211,2.211,0,0,0,3.5-.012,3.954,3.954,0,0,0,.648-2.418,3.61,3.61,0,0,0-.66-2.254,2.1,2.1,0,0,0-1.754-.863,2.075,2.075,0,0,0-1.727.852A3.925,3.925,0,0,0,174.758,12.867Zm12.977,1.891a1.064,1.064,0,0,0-.441-.91,4.249,4.249,0,0,0-1.539-.559,7.277,7.277,0,0,1-1.742-.562,2.479,2.479,0,0,1-.953-.781,1.869,1.869,0,0,1-.309-1.078,2.193,2.193,0,0,1,.879-1.758,3.432,3.432,0,0,1,2.246-.719,3.532,3.532,0,0,1,2.332.742,2.357,2.357,0,0,1,.895,1.9h-1.453a1.3,1.3,0,0,0-.5-1.023,1.888,1.888,0,0,0-1.27-.43,1.976,1.976,0,0,0-1.234.344,1.082,1.082,0,0,0-.445.9.877.877,0,0,0,.414.789,5.1,5.1,0,0,0,1.5.508,7.8,7.8,0,0,1,1.754.578,2.558,2.558,0,0,1,1,.809,1.988,1.988,0,0,1,.324,1.152,2.163,2.163,0,0,1-.906,1.816,3.8,3.8,0,0,1-2.352.684,4.257,4.257,0,0,1-1.8-.359,2.922,2.922,0,0,1-1.223-1,2.42,2.42,0,0,1-.441-1.395h1.445a1.5,1.5,0,0,0,.582,1.152,2.258,2.258,0,0,0,1.434.426,2.331,2.331,0,0,0,1.316-.332A1.02,1.02,0,0,0,187.734,14.758ZM.742,34.7a4.952,4.952,0,0,1,.922-3.129,2.915,2.915,0,0,1,2.414-1.184A2.932,2.932,0,0,1,6.43,31.406V27H7.875V39H6.547l-.07-.906a2.943,2.943,0,0,1-2.414,1.063,2.887,2.887,0,0,1-2.395-1.2,5.008,5.008,0,0,1-.926-3.141Zm1.445.164a3.749,3.749,0,0,0,.594,2.25,1.92,1.92,0,0,0,1.641.813A2.108,2.108,0,0,0,6.43,36.7V32.813a2.125,2.125,0,0,0-1.992-1.2,1.929,1.929,0,0,0-1.656.82A4.128,4.128,0,0,0,2.188,34.867Zm11.438,4.289a3.693,3.693,0,0,1-2.8-1.129,4.19,4.19,0,0,1-1.078-3.02v-.266a5.073,5.073,0,0,1,.48-2.246,3.748,3.748,0,0,1,1.344-1.547,3.378,3.378,0,0,1,1.871-.559,3.166,3.166,0,0,1,2.563,1.086,4.7,4.7,0,0,1,.914,3.109v.6H11.2a3,3,0,0,0,.73,2.02,2.3,2.3,0,0,0,1.777.77,2.517,2.517,0,0,0,1.3-.312,3.258,3.258,0,0,0,.93-.828l.883.688A3.55,3.55,0,0,1,13.625,39.156Zm-.18-7.578a1.928,1.928,0,0,0-1.469.637A3.1,3.1,0,0,0,11.242,34h4.234v-.109a2.753,2.753,0,0,0-.594-1.707A1.815,1.815,0,0,0,13.445,31.578ZM24.125,39H22.68V27h1.445Zm1.93-4.3a4.993,4.993,0,0,1,.488-2.234A3.643,3.643,0,0,1,27.9,30.93a3.7,3.7,0,0,1,1.988-.539,3.565,3.565,0,0,1,2.793,1.2,4.6,4.6,0,0,1,1.066,3.18v.1a5.036,5.036,0,0,1-.473,2.215,3.589,3.589,0,0,1-1.352,1.527,3.743,3.743,0,0,1-2.02.547,3.556,3.556,0,0,1-2.785-1.2A4.575,4.575,0,0,1,26.055,34.8Zm1.453.172a3.616,3.616,0,0,0,.652,2.258,2.211,2.211,0,0,0,3.5-.012A3.955,3.955,0,0,0,32.3,34.7a3.61,3.61,0,0,0-.66-2.254,2.1,2.1,0,0,0-1.754-.863,2.075,2.075,0,0,0-1.727.852A3.925,3.925,0,0,0,27.508,34.867Zm12.977,1.891a1.064,1.064,0,0,0-.441-.91,4.249,4.249,0,0,0-1.539-.559,7.277,7.277,0,0,1-1.742-.562,2.479,2.479,0,0,1-.953-.781,1.869,1.869,0,0,1-.309-1.078,2.193,2.193,0,0,1,.879-1.758,3.432,3.432,0,0,1,2.246-.719,3.532,3.532,0,0,1,2.332.742,2.357,2.357,0,0,1,.895,1.9H40.4a1.3,1.3,0,0,0-.5-1.023,1.888,1.888,0,0,0-1.27-.43,1.976,1.976,0,0,0-1.234.344,1.082,1.082,0,0,0-.445.9.877.877,0,0,0,.414.789,5.1,5.1,0,0,0,1.5.508,7.8,7.8,0,0,1,1.754.578,2.558,2.558,0,0,1,1,.809,1.988,1.988,0,0,1,.324,1.152,2.163,2.163,0,0,1-.906,1.816,3.8,3.8,0,0,1-2.352.684,4.257,4.257,0,0,1-1.8-.359,2.922,2.922,0,0,1-1.223-1,2.42,2.42,0,0,1-.441-1.395h1.445a1.5,1.5,0,0,0,.582,1.152,2.258,2.258,0,0,0,1.434.426,2.331,2.331,0,0,0,1.316-.332A1.02,1.02,0,0,0,40.484,36.758Zm14.43-1.891a5.062,5.062,0,0,1-.883,3.109,2.829,2.829,0,0,1-2.391,1.18,3.1,3.1,0,0,1-2.422-.977v4.07H47.773v-11.7h1.32l.07.938a2.977,2.977,0,0,1,2.453-1.094,2.882,2.882,0,0,1,2.41,1.148,5.117,5.117,0,0,1,.887,3.2ZM53.469,34.7a3.735,3.735,0,0,0-.609-2.258,1.963,1.963,0,0,0-1.672-.828,2.125,2.125,0,0,0-1.969,1.164V36.82A2.129,2.129,0,0,0,51.2,37.977a1.954,1.954,0,0,0,1.652-.824A4.077,4.077,0,0,0,53.469,34.7Zm7.367-2.859a4.331,4.331,0,0,0-.711-.055A1.9,1.9,0,0,0,58.2,33v6H56.75V30.547h1.406l.023.977A2.251,2.251,0,0,1,60.2,30.391a1.477,1.477,0,0,1,.641.109Zm.789,2.852a4.993,4.993,0,0,1,.488-2.234,3.643,3.643,0,0,1,1.359-1.531,3.7,3.7,0,0,1,1.988-.539,3.565,3.565,0,0,1,2.793,1.2,4.6,4.6,0,0,1,1.066,3.18v.1a5.036,5.036,0,0,1-.473,2.215A3.589,3.589,0,0,1,67.5,38.609a3.743,3.743,0,0,1-2.02.547,3.556,3.556,0,0,1-2.785-1.2A4.575,4.575,0,0,1,61.625,34.8Zm1.453.172a3.616,3.616,0,0,0,.652,2.258,2.211,2.211,0,0,0,3.5-.012,3.955,3.955,0,0,0,.648-2.418,3.61,3.61,0,0,0-.66-2.254,2.1,2.1,0,0,0-1.754-.863,2.075,2.075,0,0,0-1.727.852A3.925,3.925,0,0,0,63.078,34.867Zm7.711-.164a4.968,4.968,0,0,1,.914-3.145,3.151,3.151,0,0,1,4.836-.074l.07-.937h1.32V38.8a3.439,3.439,0,0,1-.973,2.586,3.589,3.589,0,0,1-2.613.945,4.348,4.348,0,0,1-1.789-.391,3.08,3.08,0,0,1-1.336-1.07l.75-.867a2.826,2.826,0,0,0,2.273,1.148,2.214,2.214,0,0,0,1.645-.594,2.269,2.269,0,0,0,.59-1.672v-.727a2.971,2.971,0,0,1-2.367,1,2.887,2.887,0,0,1-2.4-1.2A5.224,5.224,0,0,1,70.789,34.7Zm1.453.164a3.79,3.79,0,0,0,.586,2.246,1.9,1.9,0,0,0,1.641.816,2.117,2.117,0,0,0,2.008-1.242V32.828a2.142,2.142,0,0,0-1.992-1.211,1.921,1.921,0,0,0-1.648.82A4.128,4.128,0,0,0,72.242,34.867ZM84.2,31.844a4.331,4.331,0,0,0-.711-.055A1.9,1.9,0,0,0,81.555,33v6H80.109V30.547h1.406l.023.977a2.251,2.251,0,0,1,2.016-1.133,1.477,1.477,0,0,1,.641.109ZM90.43,39a3.036,3.036,0,0,1-.2-.891,3.225,3.225,0,0,1-2.406,1.047,2.984,2.984,0,0,1-2.051-.707,2.288,2.288,0,0,1-.8-1.793,2.39,2.39,0,0,1,1-2.051,4.733,4.733,0,0,1,2.824-.73H90.2v-.664A1.623,1.623,0,0,0,89.75,32a1.821,1.821,0,0,0-1.336-.449,2.108,2.108,0,0,0-1.3.391,1.151,1.151,0,0,0-.523.945H85.141a2,2,0,0,1,.449-1.223,3.066,3.066,0,0,1,1.219-.934,4.1,4.1,0,0,1,1.691-.344,3.342,3.342,0,0,1,2.289.73,2.635,2.635,0,0,1,.859,2.012v3.891a4.757,4.757,0,0,0,.3,1.852V39Zm-2.4-1.1a2.54,2.54,0,0,0,1.289-.352,2.127,2.127,0,0,0,.883-.914V34.9H89.07q-2.656,0-2.656,1.555a1.316,1.316,0,0,0,.453,1.063A1.742,1.742,0,0,0,88.031,37.9Zm7.242-7.352.039.938a3.122,3.122,0,0,1,2.508-1.094,2.417,2.417,0,0,1,2.414,1.359,3.2,3.2,0,0,1,1.1-.984,3.242,3.242,0,0,1,1.6-.375q2.781,0,2.828,2.945V39h-1.445V33.422a1.941,1.941,0,0,0-.414-1.355,1.823,1.823,0,0,0-1.391-.449,1.916,1.916,0,0,0-1.336.48,1.949,1.949,0,0,0-.617,1.293V39H99.1V33.461a1.613,1.613,0,0,0-1.8-1.844,1.934,1.934,0,0,0-1.945,1.211V39H93.906V30.547ZM113.156,39a3.036,3.036,0,0,1-.2-.891,3.225,3.225,0,0,1-2.406,1.047,2.984,2.984,0,0,1-2.051-.707,2.288,2.288,0,0,1-.8-1.793,2.39,2.39,0,0,1,1-2.051,4.733,4.733,0,0,1,2.824-.73h1.406v-.664A1.623,1.623,0,0,0,112.477,32a1.821,1.821,0,0,0-1.336-.449,2.108,2.108,0,0,0-1.3.391,1.151,1.151,0,0,0-.523.945h-1.453a2,2,0,0,1,.449-1.223,3.066,3.066,0,0,1,1.219-.934,4.1,4.1,0,0,1,1.691-.344,3.342,3.342,0,0,1,2.289.73,2.635,2.635,0,0,1,.859,2.012v3.891a4.757,4.757,0,0,0,.3,1.852V39Zm-2.4-1.1a2.54,2.54,0,0,0,1.289-.352,2.127,2.127,0,0,0,.883-.914V34.9H111.8q-2.656,0-2.656,1.555a1.316,1.316,0,0,0,.453,1.063A1.742,1.742,0,0,0,110.758,37.9Zm10.8-1.141a1.064,1.064,0,0,0-.441-.91,4.249,4.249,0,0,0-1.539-.559,7.277,7.277,0,0,1-1.742-.562,2.479,2.479,0,0,1-.953-.781,1.869,1.869,0,0,1-.309-1.078,2.193,2.193,0,0,1,.879-1.758,3.432,3.432,0,0,1,2.246-.719,3.532,3.532,0,0,1,2.332.742,2.357,2.357,0,0,1,.895,1.9h-1.453a1.3,1.3,0,0,0-.5-1.023,1.888,1.888,0,0,0-1.27-.43,1.976,1.976,0,0,0-1.234.344,1.082,1.082,0,0,0-.445.9.877.877,0,0,0,.414.789,5.1,5.1,0,0,0,1.5.508,7.8,7.8,0,0,1,1.754.578,2.558,2.558,0,0,1,1,.809,1.988,1.988,0,0,1,.324,1.152,2.163,2.163,0,0,1-.906,1.816,3.8,3.8,0,0,1-2.352.684,4.257,4.257,0,0,1-1.8-.359,2.922,2.922,0,0,1-1.223-1,2.42,2.42,0,0,1-.441-1.395h1.445a1.5,1.5,0,0,0,.582,1.152,2.258,2.258,0,0,0,1.434.426,2.331,2.331,0,0,0,1.316-.332A1.02,1.02,0,0,0,121.563,36.758Zm10.055.125,1.969-6.336h1.547l-3.4,9.758q-.789,2.109-2.508,2.109l-.273-.023-.539-.1V41.117l.391.031a1.923,1.923,0,0,0,1.145-.3,2.148,2.148,0,0,0,.676-1.086l.32-.859-3.016-8.359h1.578ZM6.016,58.758a1.064,1.064,0,0,0-.441-.91,4.249,4.249,0,0,0-1.539-.559,7.277,7.277,0,0,1-1.742-.562,2.479,2.479,0,0,1-.953-.781,1.869,1.869,0,0,1-.309-1.078,2.193,2.193,0,0,1,.879-1.758,3.432,3.432,0,0,1,2.246-.719,3.532,3.532,0,0,1,2.332.742,2.357,2.357,0,0,1,.895,1.9H5.93a1.3,1.3,0,0,0-.5-1.023,1.888,1.888,0,0,0-1.27-.43,1.976,1.976,0,0,0-1.234.344,1.082,1.082,0,0,0-.445.9.877.877,0,0,0,.414.789,5.1,5.1,0,0,0,1.5.508,7.8,7.8,0,0,1,1.754.578,2.558,2.558,0,0,1,1,.809,1.988,1.988,0,0,1,.324,1.152,2.163,2.163,0,0,1-.906,1.816,3.8,3.8,0,0,1-2.352.684,4.257,4.257,0,0,1-1.8-.359,2.922,2.922,0,0,1-1.223-1A2.42,2.42,0,0,1,.742,58.4H2.188a1.5,1.5,0,0,0,.582,1.152,2.258,2.258,0,0,0,1.434.426,2.331,2.331,0,0,0,1.316-.332A1.02,1.02,0,0,0,6.016,58.758Zm6.836,2.4a3.693,3.693,0,0,1-2.8-1.129,4.19,4.19,0,0,1-1.078-3.02v-.266a5.073,5.073,0,0,1,.48-2.246A3.748,3.748,0,0,1,10.8,52.949a3.378,3.378,0,0,1,1.871-.559,3.166,3.166,0,0,1,2.563,1.086,4.7,4.7,0,0,1,.914,3.109v.6H10.422a3,3,0,0,0,.73,2.02,2.3,2.3,0,0,0,1.777.77,2.517,2.517,0,0,0,1.3-.312,3.258,3.258,0,0,0,.93-.828l.883.688A3.55,3.55,0,0,1,12.852,61.156Zm-.18-7.578a1.928,1.928,0,0,0-1.469.637A3.1,3.1,0,0,0,10.469,56H14.7v-.109a2.753,2.753,0,0,0-.594-1.707A1.815,1.815,0,0,0,12.672,53.578Zm9.234.266a4.331,4.331,0,0,0-.711-.055A1.9,1.9,0,0,0,19.266,55v6H17.82V52.547h1.406l.023.977a2.251,2.251,0,0,1,2.016-1.133,1.477,1.477,0,0,1,.641.109Zm4.258,5.2,2.094-6.492h1.477L26.7,61H25.6l-3.062-8.453h1.477ZM32.7,61H31.25V52.547H32.7ZM31.133,50.3a.863.863,0,0,1,.215-.594.807.807,0,0,1,.637-.242.819.819,0,0,1,.641.242.854.854,0,0,1,.219.594.826.826,0,0,1-.219.586.834.834,0,0,1-.641.234.821.821,0,0,1-.637-.234A.834.834,0,0,1,31.133,50.3ZM38.4,59.977a2.082,2.082,0,0,0,1.352-.469,1.649,1.649,0,0,0,.641-1.172h1.367a2.621,2.621,0,0,1-.5,1.383,3.293,3.293,0,0,1-1.23,1.047,3.55,3.55,0,0,1-1.629.391A3.482,3.482,0,0,1,35.652,60a4.59,4.59,0,0,1-1.02-3.152v-.242a5.089,5.089,0,0,1,.453-2.2,3.451,3.451,0,0,1,1.3-1.492,3.7,3.7,0,0,1,2-.531,3.39,3.39,0,0,1,2.363.852,3.043,3.043,0,0,1,1,2.211H40.391a1.992,1.992,0,0,0-.621-1.348,1.932,1.932,0,0,0-1.379-.527,2.023,2.023,0,0,0-1.707.793,3.724,3.724,0,0,0-.605,2.293v.273a3.65,3.65,0,0,0,.6,2.25A2.033,2.033,0,0,0,38.4,59.977ZM44.953,61H43.508V52.547h1.445ZM43.391,50.3a.863.863,0,0,1,.215-.594.807.807,0,0,1,.637-.242.819.819,0,0,1,.641.242.854.854,0,0,1,.219.594.826.826,0,0,1-.219.586.834.834,0,0,1-.641.234.821.821,0,0,1-.637-.234A.834.834,0,0,1,43.391,50.3ZM46.883,56.7a4.993,4.993,0,0,1,.488-2.234A3.643,3.643,0,0,1,48.73,52.93a3.7,3.7,0,0,1,1.988-.539,3.565,3.565,0,0,1,2.793,1.2,4.6,4.6,0,0,1,1.066,3.18v.1a5.036,5.036,0,0,1-.473,2.215,3.589,3.589,0,0,1-1.352,1.527,3.743,3.743,0,0,1-2.02.547,3.556,3.556,0,0,1-2.785-1.2A4.575,4.575,0,0,1,46.883,56.8Zm1.453.172a3.616,3.616,0,0,0,.652,2.258,2.211,2.211,0,0,0,3.5-.012,3.955,3.955,0,0,0,.648-2.418,3.61,3.61,0,0,0-.66-2.254,2.1,2.1,0,0,0-1.754-.863,2.075,2.075,0,0,0-1.727.852A3.925,3.925,0,0,0,48.336,56.867Zm12.977,1.891a1.064,1.064,0,0,0-.441-.91,4.249,4.249,0,0,0-1.539-.559,7.277,7.277,0,0,1-1.742-.562,2.479,2.479,0,0,1-.953-.781,1.869,1.869,0,0,1-.309-1.078,2.193,2.193,0,0,1,.879-1.758,3.432,3.432,0,0,1,2.246-.719,3.532,3.532,0,0,1,2.332.742,2.357,2.357,0,0,1,.895,1.9H61.227a1.3,1.3,0,0,0-.5-1.023,1.888,1.888,0,0,0-1.27-.43,1.976,1.976,0,0,0-1.234.344,1.082,1.082,0,0,0-.445.9.877.877,0,0,0,.414.789,5.1,5.1,0,0,0,1.5.508,7.8,7.8,0,0,1,1.754.578,2.558,2.558,0,0,1,1,.809,1.988,1.988,0,0,1,.324,1.152,2.163,2.163,0,0,1-.906,1.816,3.8,3.8,0,0,1-2.352.684,4.257,4.257,0,0,1-1.8-.359,2.922,2.922,0,0,1-1.223-1,2.42,2.42,0,0,1-.441-1.395h1.445a1.5,1.5,0,0,0,.582,1.152,2.258,2.258,0,0,0,1.434.426,2.331,2.331,0,0,0,1.316-.332A1.02,1.02,0,0,0,61.313,58.758ZM68.25,56.7a4.952,4.952,0,0,1,.922-3.129,3.137,3.137,0,0,1,4.766-.168V49h1.445V61H74.055l-.07-.906a2.943,2.943,0,0,1-2.414,1.063,2.887,2.887,0,0,1-2.395-1.2,5.008,5.008,0,0,1-.926-3.141Zm1.445.164a3.749,3.749,0,0,0,.594,2.25,1.92,1.92,0,0,0,1.641.813A2.108,2.108,0,0,0,73.938,58.7V54.813a2.125,2.125,0,0,0-1.992-1.2,1.929,1.929,0,0,0-1.656.82A4.128,4.128,0,0,0,69.7,56.867Zm11.438,4.289a3.693,3.693,0,0,1-2.8-1.129,4.19,4.19,0,0,1-1.078-3.02v-.266a5.073,5.073,0,0,1,.48-2.246,3.748,3.748,0,0,1,1.344-1.547,3.378,3.378,0,0,1,1.871-.559,3.166,3.166,0,0,1,2.563,1.086,4.7,4.7,0,0,1,.914,3.109v.6H78.7a3,3,0,0,0,.73,2.02,2.3,2.3,0,0,0,1.777.77,2.517,2.517,0,0,0,1.3-.312,3.259,3.259,0,0,0,.93-.828l.883.688A3.55,3.55,0,0,1,81.133,61.156Zm-.18-7.578a1.928,1.928,0,0,0-1.469.637A3.1,3.1,0,0,0,78.75,56h4.234v-.109a2.753,2.753,0,0,0-.594-1.707A1.815,1.815,0,0,0,80.953,53.578ZM87.672,61H86.227V49h1.445Zm8.109,0h-1.5V49.625h1.5Zm11.109-3.609a4.185,4.185,0,0,1-1.332,2.785,4.365,4.365,0,0,1-2.98.98,4.008,4.008,0,0,1-3.23-1.445,5.815,5.815,0,0,1-1.215-3.867V54.75a6.481,6.481,0,0,1,.566-2.789,4.231,4.231,0,0,1,1.605-1.848,4.47,4.47,0,0,1,2.406-.645,4.11,4.11,0,0,1,2.906,1.012,4.235,4.235,0,0,1,1.273,2.8h-1.508a3.268,3.268,0,0,0-.848-1.975,2.565,2.565,0,0,0-1.824-.611,2.684,2.684,0,0,0-2.254,1.063,4.882,4.882,0,0,0-.816,3.026v1.1a5.018,5.018,0,0,0,.773,2.948,2.5,2.5,0,0,0,2.164,1.095,2.886,2.886,0,0,0,1.918-.566,3.143,3.143,0,0,0,.887-1.973ZM108.938,61V49.625h3.719a4.317,4.317,0,0,1,2.785.766,2.759,2.759,0,0,1,.934,2.266,2.31,2.31,0,0,1-.453,1.41,2.937,2.937,0,0,1-1.234.949,2.638,2.638,0,0,1,1.457.98,2.814,2.814,0,0,1,.535,1.723,3.042,3.042,0,0,1-.992,2.406,4.1,4.1,0,0,1-2.8.875Zm1.5-5.32v4.094h2.477a2.385,2.385,0,0,0,1.652-.543,1.907,1.907,0,0,0,.605-1.5q0-2.055-2.234-2.055Zm0-1.2H112.7a2.375,2.375,0,0,0,1.574-.493,1.654,1.654,0,0,0,.59-1.339,1.626,1.626,0,0,0-.547-1.366,2.686,2.686,0,0,0-1.664-.427h-2.219Zm14.734,1.5H120.4V61h-1.5V49.625h7.047v1.227H120.4v3.9h4.773Zm.547,4.266a.905.905,0,0,1,.223-.625.848.848,0,0,1,.668-.25.874.874,0,0,1,.676.25.887.887,0,0,1,.23.625.839.839,0,0,1-.23.6.89.89,0,0,1-.676.242.8.8,0,0,1-.891-.844Z" transform="translate(1065 1386.252)" fill="#12263f"/>
    <g id="Grupo_995677" data-name="Grupo 995677" transform="translate(982.995 1291.752)">
      <g id="Grupo_995676" data-name="Grupo 995676" clip-path="url(#clip-path-2)">
        <path id="Trazado_654424" data-name="Trazado 654424" d="M39.11,48.552c1.655,1.65,3.213,3.2,4.769,4.756a3.432,3.432,0,0,1,.368.39.8.8,0,0,1-.555,1.292,3.4,3.4,0,0,1-.429.007H11.733c-.071,0-.143,0-.215,0a.8.8,0,0,1-.867-.5.843.843,0,0,1,.254-.971c1.334-1.324,2.66-2.657,3.991-3.984.3-.3.611-.592.935-.9a.909.909,0,0,0-.61-.085q-7.036-.007-14.073,0C.238,48.552,0,48.316,0,47.417q0-15.09,0-30.18c0-.874.245-1.122,1.1-1.124.591,0,1.182-.017,1.772.007.29.011.386-.088.348-.361a1.507,1.507,0,0,1,0-.268c.026-.638.039-1.164-.7-1.577a2.186,2.186,0,0,1-.782-2.627A2.419,2.419,0,0,1,4,9.673q3.062-.02,6.123,0c.371,0,.473-.088.47-.466-.018-2.685-.011-5.37-.009-8.055C10.582.242,10.82,0,11.713,0H43.3c.889,0,1.129.244,1.13,1.157,0,2.667.011,5.334-.01,8,0,.428.118.523.529.518,1.969-.022,3.939-.013,5.908-.009A2.4,2.4,0,0,1,53.313,11.5a2.366,2.366,0,0,1-1.266,2.738.448.448,0,0,0-.268.452c-.043,1.425-.048,1.424,1.375,1.425.34,0,.681-.012,1.02,0a.8.8,0,0,1,.829.8c.01.125,0,.251,0,.376V47.368c0,.967-.221,1.184-1.207,1.184H39.11ZM47.8,14.523c-.731-.006-1.461-.017-2.192-.019-1.233,0-1.225,0-1.167,1.231.012.264.077.385.364.38,1-.018,2-.017,2.994-.023.411.006.821.018,1.232.019,1.184,0,1.174,0,1.141-1.205-.008-.291-.076-.419-.391-.407-.66.024-1.321.018-1.982.025M49.2,11.3c-1.194-.006-2.388-.015-3.583-.017-1.274,0-1.265,0-1.2,1.286.014.26.093.33.342.327,1.479-.015,2.959-.016,4.438-.022.572.006,1.144.025,1.716.014a.8.8,0,1,0,0-1.6c-.572-.011-1.144.008-1.716.014m1.824,35.62c.661.006,1.323,0,1.983.025.316.012.394-.117.389-.409q-.022-1.206,0-2.413c.005-.291-.073-.42-.389-.408-.66.025-1.322.019-1.983.025-2.072-.006-4.144-.009-6.216-.024-.288,0-.366.114-.363.381q.016,1.232,0,2.465c0,.267.075.383.363.381,2.072-.015,4.144-.017,6.216-.024m-17.08-19.51c-1.252-.006-2.5-.015-3.756-.016-3.686,0-7.372.006-11.058-.011-.395,0-.52.082-.5.494.037.785.026,1.574,0,2.361-.009.312.091.388.39.383,1.038-.017,2.075-.006,3.113-.007L33.946,30.6c.7.006,1.392,0,2.088.023.254.007.343-.07.339-.331q-.021-1.285,0-2.571c0-.261-.084-.338-.339-.331-.7.02-1.392.017-2.088.023m0,4.833c-1.77-.006-3.541-.006-5.312-.023-.265,0-.337.079-.328.334.018.518.005,1.037.005,1.556q0,6.171,0,12.341c0,.215-.131.5.319.5,1.77-.026,3.541-.02,5.312-.025.643.006,1.289-.014,1.93.028.408.026.505-.1.5-.5-.021-2.11-.01-4.22-.01-6.331,0-2.486-.006-4.971.008-7.457,0-.348-.087-.464-.445-.446-.66.035-1.322.02-1.984.026M37.6,53.369h3.955c-.025-.075-.027-.114-.047-.134Q39.255,50.975,37,48.716a.54.54,0,0,0-.429-.166c-.661.012-1.322.016-1.983.023a1.388,1.388,0,0,0-.16-.018q-7.973,0-15.945-.009a.777.777,0,0,0-.6.286q-1.247,1.259-2.505,2.505c-.656.647-1.325,1.283-1.988,1.924l.068.124h.566q9.046,0,18.093,0c1.825,0,3.65-.009,5.475-.014M50.925,42.09c.644.005,1.29-.021,1.931.026.455.034.549-.111.549-.552q-.023-11.648-.011-23.3a1.548,1.548,0,0,1,0-.214c.036-.254-.062-.341-.324-.333-.715.021-1.431.016-2.146.021-1.986-.005-3.973,0-5.959-.028-.45-.008-.552.108-.551.553q.023,11.649.011,23.3a1.515,1.515,0,0,1,0,.214c-.036.257.064.334.326.332,2.058-.016,4.116-.016,6.174-.022M11.387,19.319c.691.19.816.374.816,1.222q0,12.726,0,25.452c0,.947,0,.915.957.959.515.023.648-.114.647-.638q-.026-14.5-.012-29c0-.98.226-1.206,1.2-1.206H39.75c.214,0,.429-.011.643-.017.69.191.819.38.819,1.222q0,14.36,0,28.72c0,.9,0,.908.9.9.771-.006.689.111.689-.678q0-21.983,0-43.966a2.915,2.915,0,0,1,0-.322c.033-.285-.094-.371-.369-.362-.679.02-1.359.016-2.039.022-.2-.006-.393-.017-.59-.017Q26.35,1.613,12.9,1.6c-.543,0-.709.113-.706.687.026,4.761.015,9.522.014,14.284,0,.79-.138.98-.816,1.169-3.149-.006-6.3,0-9.446-.026-.387,0-.328.207-.328.436q0,11.754-.009,23.507c0,.392.118.458.478.456,2.612-.016,5.225-.029,7.837.007.58.008.676-.168.674-.7q-.028-10.465-.012-20.931c0-.814.117-.978.807-1.169M39.563,32.355c0-4.654-.009-9.308.012-13.962,0-.536-.122-.682-.674-.681q-11.387.03-22.773.014c-.684,0-.684,0-.684.7q0,13.8,0,27.6c0,.914,0,.876.9.927.56.032.674-.15.673-.683Q16.986,36.631,17,26.991c0-.971.24-1.213,1.195-1.213h18.53c1.057,0,1.277.223,1.277,1.3q0,9.451,0,18.9c0,.964,0,.931.958.974.518.023.611-.164.61-.634-.016-4.654-.009-9.308-.009-13.962M26.7,39.584c0-2.308-.007-4.616.008-6.923,0-.344-.079-.447-.436-.444q-3.6.025-7.193,0c-.35,0-.441.09-.44.44q.018,6.923,0,13.847c0,.344.079.446.436.444q3.6-.025,7.193,0c.35,0,.443-.09.44-.44-.016-2.308-.008-4.616-.008-6.923M6.073,46.938c1.34,0,2.681-.008,4.022.006.333,0,.48-.073.468-.443-.025-.8-.016-1.608,0-2.412,0-.275-.09-.375-.37-.374q-4.1.011-8.2,0c-.328,0-.381.136-.376.416.014.768.026,1.538,0,2.3-.015.394.089.523.5.514,1.322-.027,2.645-.01,3.968-.01M7.15,12.89h2.3c1.139,0,1.123,0,1.134-1.141,0-.367-.086-.481-.468-.478-1.963.02-3.927.007-5.891.01-.625,0-.994.3-1,.791-.008.508.375.814,1.032.816.964,0,1.928,0,2.892,0m.534,3.222H9.452c1.126,0,1.111,0,1.113-1.131,0-.371-.1-.491-.482-.485-1.356.02-2.713.008-4.07.008-1.223,0-1.208,0-1.185,1.212.007.354.147.407.447.4.8-.015,1.607-.005,2.41-.005" transform="translate(0 0)" fill="#050304"/>
        <path id="Trazado_654425" data-name="Trazado 654425" d="M52.906,23.579c.679-.189.816-.379.817-1.169,0-4.761.012-9.522-.014-14.284,0-.574.163-.689.706-.687q13.454.026,26.907.013c.2,0,.393.011.59.017V21.932c-.215.006-.429.016-.643.017H56.51c-.969,0-1.195.226-1.2,1.206q0,14.5.012,29c0,.524-.133.662-.647.638-.956-.044-.957-.012-.957-.959q0-12.726,0-25.452c0-.849-.125-1.033-.816-1.222V23.579m9.673-3.24a2.417,2.417,0,1,0-2.422-2.428,2.43,2.43,0,0,0,2.422,2.428M69,15.506a2.417,2.417,0,1,0,2.447,2.4A2.429,2.429,0,0,0,69,15.506m6.5,0a2.417,2.417,0,1,0,2.387,2.462A2.426,2.426,0,0,0,75.5,15.506" transform="translate(-41.519 -5.838)" fill="#ffe7a2"/>
        <path id="Trazado_654426" data-name="Trazado 654426" d="M95.875,96.934c0,4.654-.006,9.308.009,13.962,0,.47-.091.658-.61.634-.956-.043-.958-.01-.958-.974q0-9.451,0-18.9c0-1.073-.22-1.3-1.277-1.3H74.509c-.955,0-1.195.242-1.195,1.213q0,9.639.012,19.278c0,.533-.113.715-.673.683-.9-.051-.9-.013-.9-.927V83c0-.7,0-.7.684-.7q11.387,0,22.773-.014c.552,0,.676.145.674.681-.022,4.654-.013,9.308-.013,13.962" transform="translate(-56.312 -64.579)" fill="#5a6471"/>
        <path id="Trazado_654427" data-name="Trazado 654427" d="M17.234,82.335v1.577c-.69.191-.807.355-.807,1.17q0,10.465.012,20.931c0,.534-.094.711-.674.7-2.612-.036-5.225-.023-7.837-.007-.36,0-.478-.064-.478-.456Q7.47,94.5,7.46,82.745c0-.229-.059-.439.328-.436,3.149.022,6.3.02,9.446.026" transform="translate(-5.847 -64.593)" fill="#d9fcfa"/>
        <path id="Trazado_654428" data-name="Trazado 654428" d="M212.873,106.672c-2.058.005-4.116.006-6.174.022-.262,0-.362-.076-.326-.332a1.55,1.55,0,0,0,0-.215q0-11.649-.011-23.3c0-.445.1-.56.551-.553,1.986.033,3.972.022,5.959.028v24.349" transform="translate(-161.948 -64.583)" fill="#d9fcfa"/>
        <path id="Trazado_654429" data-name="Trazado 654429" d="M94.64,157.05c0,2.308-.008,4.616.008,6.923,0,.351-.09.442-.44.44q-3.6-.024-7.193,0c-.357,0-.437-.1-.436-.444q.017-6.923,0-13.847c0-.35.09-.442.44-.44q3.6.024,7.193,0c.357,0,.438.1.436.444-.015,2.308-.008,4.616-.008,6.923" transform="translate(-67.945 -117.467)" fill="#fefefe"/>
        <path id="Trazado_654430" data-name="Trazado 654430" d="M86.452,230.374c-1.825,0-3.65.014-5.475.014q-9.046,0-18.093,0h-.566l-.068-.124c.663-.641,1.331-1.276,1.988-1.923q1.261-1.244,2.505-2.505a.776.776,0,0,1,.6-.285q7.973.014,15.945.009a1.445,1.445,0,0,1,.16.018,28.981,28.981,0,0,0,1.728,2.729,14.729,14.729,0,0,1,1.281,2.067" transform="translate(-48.852 -177.006)" fill="#b8c0c5"/>
        <path id="Trazado_654431" data-name="Trazado 654431" d="M137.126,164.4c-1.771.006-3.541,0-5.312.025-.451.007-.319-.282-.32-.5q-.007-6.171,0-12.341c0-.519.012-1.038-.005-1.556-.009-.255.064-.336.328-.334,1.77.017,3.541.017,5.312.023V164.4" transform="translate(-103.179 -117.477)" fill="#d9fcfa"/>
        <path id="Trazado_654432" data-name="Trazado 654432" d="M187.675,21.959V7.495c.68-.006,1.36,0,2.039-.022.275-.008.4.078.37.362a2.863,2.863,0,0,0,0,.322q0,21.983,0,43.966c0,.789.082.672-.689.678-.9.007-.9,0-.9-.9q0-14.36,0-28.72c0-.841-.129-1.03-.819-1.222" transform="translate(-147.282 -5.864)" fill="#edcf7a"/>
        <path id="Trazado_654433" data-name="Trazado 654433" d="M236.608,106.7V82.347c.715-.005,1.431,0,2.146-.021.262-.008.36.079.324.333a1.55,1.55,0,0,0,0,.215q0,11.648.011,23.3c0,.442-.094.586-.548.553-.641-.047-1.287-.021-1.931-.026" transform="translate(-185.683 -64.606)" fill="#a4f3ec"/>
        <path id="Trazado_654434" data-name="Trazado 654434" d="M101.876,130.436l-11.808.017c-1.038,0-2.076-.011-3.113.007-.3,0-.4-.071-.39-.383.023-.786.034-1.575,0-2.361-.02-.411.106-.5.5-.494,3.686.016,7.372.008,11.058.01,1.252,0,2.5.011,3.756.016v3.187" transform="translate(-67.93 -99.84)" fill="#d9fcfa"/>
        <path id="Trazado_654435" data-name="Trazado 654435" d="M157.723,164.38V149.7c.661-.006,1.324.009,1.984-.026.359-.019.447.1.446.445-.014,2.486-.008,4.972-.008,7.457,0,2.11-.011,4.22.01,6.331,0,.4-.093.527-.5.5-.641-.042-1.286-.021-1.93-.027" transform="translate(-123.776 -117.458)" fill="#a0eee7"/>
        <path id="Trazado_654436" data-name="Trazado 654436" d="M11.921,206.323c-1.323,0-2.646-.017-3.968.01-.412.008-.516-.121-.5-.515.03-.767.018-1.537,0-2.3,0-.28.048-.418.376-.416q4.1.017,8.2,0c.28,0,.374.1.37.374-.012.8-.021,1.609,0,2.412.012.369-.135.446-.469.443-1.34-.014-2.681-.006-4.022-.006" transform="translate(-5.848 -159.385)" fill="#5a6471"/>
        <path id="Trazado_654437" data-name="Trazado 654437" d="M213.089,206.311c-2.072.006-4.144.009-6.217.024-.288,0-.366-.114-.363-.381q.016-1.232,0-2.465c0-.267.075-.383.363-.381,2.072.015,4.144.017,6.217.024v3.18" transform="translate(-162.062 -159.393)" fill="#5a6471"/>
        <path id="Trazado_654438" data-name="Trazado 654438" d="M163.728,230.39a14.73,14.73,0,0,0-1.281-2.067,28.98,28.98,0,0,1-1.728-2.729c.661-.007,1.322-.01,1.982-.022a.539.539,0,0,1,.429.166q2.249,2.263,4.505,4.519c.02.02.022.059.047.134Z" transform="translate(-126.128 -177.021)" fill="#a7aeb6"/>
        <path id="Trazado_654439" data-name="Trazado 654439" d="M18.916,53.985c-.964,0-1.928,0-2.892,0-.657,0-1.04-.308-1.032-.816.008-.492.377-.79,1-.791,1.964,0,3.927.009,5.891-.01.382,0,.472.11.468.478-.011,1.141,0,1.141-1.134,1.141h-2.3" transform="translate(-11.766 -41.096)" fill="#b8c0c5"/>
        <path id="Trazado_654440" data-name="Trazado 654440" d="M25.265,68.961c-.8,0-1.607-.01-2.41.005-.3.006-.441-.048-.447-.4-.022-1.212-.038-1.212,1.185-1.212,1.357,0,2.714.012,4.07-.008.377-.006.483.115.482.485,0,1.131.013,1.131-1.113,1.131H25.265" transform="translate(-17.58 -52.85)" fill="#5a6471"/>
        <path id="Trazado_654441" data-name="Trazado 654441" d="M157.723,130.448v-3.187c.7-.006,1.392,0,2.088-.023.254-.007.342.07.338.331q-.02,1.285,0,2.571c0,.261-.084.338-.338.331-.7-.02-1.392-.017-2.088-.023" transform="translate(-123.776 -99.852)" fill="#a0eee7"/>
        <path id="Trazado_654442" data-name="Trazado 654442" d="M211.089,54c-1.479.006-2.959.007-4.438.023-.249,0-.329-.068-.342-.327-.067-1.287-.076-1.289,1.2-1.286,1.194,0,2.388.011,3.583.017a2.587,2.587,0,0,1,0,1.573" transform="translate(-161.886 -41.13)" fill="#b8c0c5"/>
        <path id="Trazado_654443" data-name="Trazado 654443" d="M237.079,206.3v-3.18c.661-.006,1.323,0,1.983-.025.316-.012.394.117.389.409q-.022,1.206,0,2.413c.005.292-.073.42-.388.408-.66-.025-1.322-.019-1.983-.025" transform="translate(-186.052 -159.386)" fill="#4a5460"/>
        <path id="Trazado_654444" data-name="Trazado 654444" d="M209.787,68.974c-1,.006-2,.006-2.994.024-.287.005-.352-.116-.364-.38-.058-1.233-.066-1.234,1.167-1.231.731,0,1.461.012,2.192.019v1.569" transform="translate(-161.983 -52.882)" fill="#5a6471"/>
        <path id="Trazado_654445" data-name="Trazado 654445" d="M222.1,68.95V67.381c.661-.006,1.322,0,1.982-.025.315-.012.383.116.391.407.033,1.206.042,1.208-1.141,1.205-.411,0-.821-.012-1.232-.019" transform="translate(-174.301 -52.859)" fill="#4a5460"/>
        <path id="Trazado_654446" data-name="Trazado 654446" d="M228.6,54a2.587,2.587,0,0,0,0-1.573c.572-.006,1.144-.025,1.716-.014a.8.8,0,1,1,0,1.6c-.572.012-1.144-.008-1.716-.014" transform="translate(-179.402 -41.133)" fill="#a7aeb6"/>
        <path id="Trazado_654447" data-name="Trazado 654447" d="M89.016,49.752a2.417,2.417,0,1,1,2.418-2.433,2.431,2.431,0,0,1-2.418,2.433M89,48.138a.8.8,0,1,0-.785-.842.8.8,0,0,0,.785.842" transform="translate(-67.956 -35.25)" fill="#040202"/>
        <path id="Trazado_654448" data-name="Trazado 654448" d="M118.937,44.917a2.417,2.417,0,1,1-2.393,2.456,2.428,2.428,0,0,1,2.393-2.456m.019,1.614a.8.8,0,1,0,.8.77.8.8,0,0,0-.8-.77" transform="translate(-91.46 -35.249)" fill="#040202"/>
        <path id="Trazado_654449" data-name="Trazado 654449" d="M148.944,44.916a2.417,2.417,0,1,1-2.452,2.4,2.429,2.429,0,0,1,2.452-2.4m.764,2.441a.8.8,0,1,0-.794.779.8.8,0,0,0,.794-.779" transform="translate(-114.963 -35.249)" fill="#040202"/>
        <path id="Trazado_654450" data-name="Trazado 654450" d="M94.919,54.021a.8.8,0,1,1,.806-.766.8.8,0,0,1-.806.766" transform="translate(-73.873 -41.133)" fill="#f3e484"/>
        <path id="Trazado_654451" data-name="Trazado 654451" d="M124.868,52.414a.8.8,0,1,1-.791.783.8.8,0,0,1,.791-.783" transform="translate(-97.372 -41.133)" fill="#f3e484"/>
        <path id="Trazado_654452" data-name="Trazado 654452" d="M155.622,53.241a.8.8,0,1,1-.8-.827.8.8,0,0,1,.8.827" transform="translate(-120.876 -41.133)" fill="#f3e484"/>
      </g>
    </g>
    <g id="Grupo_995679" data-name="Grupo 995679" transform="translate(983.9 1390.502)">
      <g id="Grupo_995678" data-name="Grupo 995678" clip-path="url(#clip-path-3)">
        <path id="Trazado_654453" data-name="Trazado 654453" d="M96.727,62.362H90.219c-.007-3.125-.007-6.25-.032-9.375a.9.9,0,0,1,.434-.819,8.526,8.526,0,0,0,3.61-6.561c.191-2.987.09-5.987.044-8.981A2.952,2.952,0,0,0,91.2,33.837c-.376.011-.853.4-1.057.114s-.05-.793-.054-1.2c0-.038,0-.075,0-.112a2.96,2.96,0,0,0-3.9-2.8c-.367.12-.429.013-.537-.275a2.73,2.73,0,0,0-1.6-1.635.5.5,0,0,1-.364-.58c.009-2.882,0-5.764.007-8.647a1.773,1.773,0,0,1,1.716-1.9,1.75,1.75,0,0,1,1.7,1.908c.007,1.535,0,3.069,0,4.6,0,.936-.011,1.872.005,2.807.011.6.317.908.837.913s.817-.306.843-.9c.007-.168,0-.337,0-.505q0-6.794,0-13.588a4.907,4.907,0,0,1,.058-.837,1.548,1.548,0,0,1,1.294-1.3,1.687,1.687,0,0,1,2.08,1.794c.007,3.875,0,7.749,0,11.623,0,.605.339.964.861.949.5-.015.805-.357.822-.937.006-.206,0-.412,0-.618q0-6.766,0-13.532a1.7,1.7,0,0,1,3.328-.548,3.031,3.031,0,0,1,.094.946q0,6.766,0,13.532c0,1.1.555,1.427,1.5.909q.008,4.237.017,8.474A7.949,7.949,0,0,0,96.2,34.752a.834.834,0,0,0,.092,1.279.825.825,0,0,0,1.219-.217,8.421,8.421,0,0,1,.661-.759,4.718,4.718,0,0,1,5.252-1.106,2.3,2.3,0,0,0,2.751-.78q1.5-1.915,3-3.835a1.685,1.685,0,0,1-.464,1.66c-1.9,2.5-3.85,4.969-5.756,7.468a16.476,16.476,0,0,1-3.608,3.623,6.179,6.179,0,0,0-2.61,5.356c-.014,4.974,0,9.948-.005,14.921" transform="translate(-64.858 -5.762)" fill="#f4cbbd"/>
        <path id="Trazado_654454" data-name="Trazado 654454" d="M81.748,23.572q-1.5,1.918-3,3.835A2.3,2.3,0,0,1,76,28.186a4.718,4.718,0,0,0-5.252,1.107,8.418,8.418,0,0,0-.661.759.825.825,0,0,1-1.219.217.834.834,0,0,1-.092-1.279,7.953,7.953,0,0,1,2.667-2.256,7.029,7.029,0,0,1,3-.585c.485.039.611-.069.61-.574-.02-6.4-.013-12.8-.014-19.193,0-.168.008-.338-.008-.5a1.793,1.793,0,0,0-1.494-1.6,1.745,1.745,0,0,0-1.8,1.069,2.465,2.465,0,0,0-.124.993q0,5.472,0,10.944a1.814,1.814,0,0,1-.19.974c-.948.518-1.5.187-1.5-.909q0-6.766,0-13.532a3.03,3.03,0,0,0-.094-.945,1.7,1.7,0,0,0-3.328.548q-.009,6.766,0,13.532c0,.206,0,.412,0,.618-.017.58-.319.922-.822.937-.522.015-.86-.343-.861-.949,0-3.874,0-7.749,0-11.623a1.687,1.687,0,0,0-2.08-1.794,1.548,1.548,0,0,0-1.294,1.3,4.86,4.86,0,0,0-.058.837q-.005,6.794,0,13.588c0,.169,0,.337,0,.505-.026.591-.321.9-.843.9s-.826-.316-.837-.913c-.017-.936-.005-1.872-.005-2.807,0-1.535,0-3.07,0-4.6a1.75,1.75,0,0,0-1.695-1.907,1.773,1.773,0,0,0-1.716,1.9c0,2.882,0,5.764-.007,8.647a.5.5,0,0,0,.364.58,2.732,2.732,0,0,1,1.6,1.635c.108.288.17.4.537.275a2.96,2.96,0,0,1,3.9,2.8c0,.038,0,.075,0,.112,0,.411-.142.93.054,1.2s.681-.1,1.057-.114a2.953,2.953,0,0,1,3.072,2.789c.047,2.994.148,5.994-.044,8.981a8.526,8.526,0,0,1-3.61,6.561.9.9,0,0,0-.434.819c.025,3.125.025,6.25.032,9.375-.115.477-.348.842-.9.824a.829.829,0,0,1-.829-.821c.007-3.331.025-6.662.01-9.993a1.335,1.335,0,0,1,.7-1.275,6.645,6.645,0,0,0,3.255-4.994,87.358,87.358,0,0,0,.124-9.477,1.072,1.072,0,0,0-.736-.976,1.234,1.234,0,0,0-1.746,1.129c-.026,1.2-.006,2.4-.01,3.593,0,.717-.291,1.1-.833,1.1s-.847-.367-.852-1.073c0-.131,0-.262,0-.393q0-3.566,0-7.131a1.482,1.482,0,0,0-.337-1.095,1.2,1.2,0,0,0-1.379-.337,1.268,1.268,0,0,0-.836,1.324c-.007,2.19,0,4.379,0,6.569,0,.693-.279,1.024-.832,1.024s-.845-.348-.85-1.022c-.008-1.029,0-2.059,0-3.088,0-1.871.008-3.743-.007-5.615A1.248,1.248,0,0,0,55.511,23.6a1.28,1.28,0,0,0-1.273,1.236c-.014.186-.01.374-.01.561q0,3.986,0,7.973a2.417,2.417,0,0,1-.067.665.824.824,0,0,1-1.6-.137,3.973,3.973,0,0,1-.017-.56c0-2.059.007-4.117-.005-6.176a1.3,1.3,0,0,0-1.279-1.413A1.333,1.333,0,0,0,50,27.185c-.01.749-.015,1.5,0,2.246a.909.909,0,0,1-.8,1.035c-.684-.14-.884-.373-.888-1.061,0-.749-.006-1.5,0-2.246a2.98,2.98,0,0,1,4.257-2.8,2.692,2.692,0,0,1,1.356-1.955c.634-.289.678-.683.673-1.258-.023-2.695.067-5.393-.032-8.084a3.481,3.481,0,0,1,4.968-3.34c.028.015.071,0,.155,0,0-1.265-.006-2.533,0-3.8a3.406,3.406,0,0,1,3.045-3.5,3.083,3.083,0,0,1,1.748.271c.232.1.35.181.459-.174A3.294,3.294,0,0,1,68.4,0,3.417,3.417,0,0,1,71.59,3.011a3.661,3.661,0,0,1,2.252-.381,3.457,3.457,0,0,1,2.877,3.494q.006,9.966.008,19.931c0,.206-.135.515.115.6.27.1.47-.146.635-.36q1.744-2.268,3.494-4.532a3.37,3.37,0,0,1,5.789.313,3.307,3.307,0,0,1-.447,3.864q-3.207,4.151-6.424,8.295a11.423,11.423,0,0,1-2.869,2.656,7.674,7.674,0,0,1-1.911.918.533.533,0,0,0-.451.624c.017,1.946.01,3.893.007,5.839,0,.756-.151.956-.852,1.173a.924.924,0,0,1-.838-1.006c.012-2.336.007-4.673,0-7.009a.867.867,0,0,1,.737-.965,8.577,8.577,0,0,0,4.932-3.379q3.113-4,6.208-8.022a3.447,3.447,0,0,0,.467-.759,1.667,1.667,0,0,0-2.755-1.8,12.957,12.957,0,0,0-.818,1.059" transform="translate(-37.436 0)" fill="#040303"/>
        <path id="Trazado_654455" data-name="Trazado 654455" d="M30.287,111.765a.909.909,0,0,0,.8-1.035c-.017-.748-.012-1.5,0-2.246a1.333,1.333,0,0,1,1.262-1.436,1.3,1.3,0,0,1,1.278,1.413c.013,2.059,0,4.117.005,6.176a3.974,3.974,0,0,0,.017.56.824.824,0,0,0,1.6.137,2.417,2.417,0,0,0,.067-.665q.006-3.986,0-7.973c0-.187,0-.375.01-.561A1.28,1.28,0,0,1,36.6,104.9a1.248,1.248,0,0,1,1.226,1.277c.015,1.871.006,3.743.007,5.615,0,1.029-.006,2.059,0,3.088.005.674.3,1.021.85,1.022s.831-.331.832-1.024c0-2.19,0-4.379,0-6.569a1.268,1.268,0,0,1,.836-1.324,1.2,1.2,0,0,1,1.379.337,1.482,1.482,0,0,1,.337,1.095q-.008,3.566,0,7.131c0,.131,0,.262,0,.393.006.706.305,1.083.852,1.073s.831-.387.833-1.1c0-1.2-.016-2.4.01-3.593a1.234,1.234,0,0,1,1.746-1.129,1.072,1.072,0,0,1,.736.976,87.356,87.356,0,0,1-.124,9.477,6.645,6.645,0,0,1-3.255,4.994,1.336,1.336,0,0,0-.7,1.275c.016,3.331,0,6.662-.009,9.993H32.8c-.007-.2-.019-.41-.019-.615,0-3.234-.008-6.468.007-9.7a1.172,1.172,0,0,0-.587-1.116,10.339,10.339,0,0,1-1.553-1.194c-2.318-2.13-4.267-4.6-6.4-6.906a1.2,1.2,0,0,1,.076-1.757,1.275,1.275,0,0,1,1.771.078c.611.631,1.17,1.311,1.77,1.952a1.74,1.74,0,0,0,2,.46,1.806,1.806,0,0,0,1.213-1.716c.012-.673-.021-1.347.01-2.018a1,1,0,0,0-.8-1.163l0-2.437" transform="translate(-18.527 -81.298)" fill="#f7d9cf"/>
        <path id="Trazado_654456" data-name="Trazado 654456" d="M154.078,99.224a12.957,12.957,0,0,1,.818-1.059,1.667,1.667,0,0,1,2.755,1.8,3.446,3.446,0,0,1-.467.759q-3.1,4.016-6.208,8.022a8.577,8.577,0,0,1-4.932,3.379.867.867,0,0,0-.737.965c0,2.336.009,4.673,0,7.009a.924.924,0,0,0,.838,1.006l-.015,2.857c-.716.251-.817.394-.819,1.188q-.009,3.609-.016,7.217c-1.024,0-2.048,0-3.072-.014-.2,0-.413.066-.587-.1,0-4.974-.009-9.948,0-14.921a6.18,6.18,0,0,1,2.61-5.356,16.462,16.462,0,0,0,3.608-3.623c1.906-2.5,3.853-4.967,5.756-7.468a1.684,1.684,0,0,0,.464-1.66" transform="translate(-109.766 -75.652)" fill="#f0c1af"/>
        <path id="Trazado_654457" data-name="Trazado 654457" d="M24.57,146.245a1,1,0,0,1,.8,1.163c-.031.672,0,1.346-.01,2.019a1.806,1.806,0,0,1-1.213,1.716,1.74,1.74,0,0,1-2-.46c-.6-.641-1.159-1.321-1.77-1.952a1.275,1.275,0,0,0-1.771-.078,1.2,1.2,0,0,0-.076,1.757c2.13,2.3,4.08,4.777,6.4,6.906a10.338,10.338,0,0,0,1.553,1.194,1.172,1.172,0,0,1,.587,1.116c-.015,3.234-.008,6.468-.007,9.7,0,.205.012.41.019.616-.165.639-.466.883-1,.805-.472-.069-.707-.4-.708-1.041,0-3.124-.008-6.248.007-9.372a.88.88,0,0,0-.408-.831,28.229,28.229,0,0,1-4.633-4.546q-1.467-1.624-2.929-3.252a2.954,2.954,0,1,1,4.36-3.968c.454.5.893,1.008,1.349,1.5.12.13.218.384.421.312.247-.088.121-.36.127-.549.016-.523,0-1.047.006-1.571,0-.793.137-.972.892-1.188" transform="translate(-12.807 -113.341)" fill="#040404"/>
        <path id="Trazado_654458" data-name="Trazado 654458" d="M9.533,61.739a6.987,6.987,0,0,1-2.957,4.747.748.748,0,0,1-.525.155A8.172,8.172,0,0,1,1.5,65.1a3.446,3.446,0,0,1-1.31-3.916,3.018,3.018,0,0,1,3.4-1.951c.2.027.355.074.542-.119a2.961,2.961,0,0,1,3.5-.833c1.224.522,1.91,1.638,1.9,3.458M7.847,61.68c.017-1.163-.359-1.739-1.088-1.921-.695-.174-1.2.116-1.624.938a.833.833,0,0,1-1.242.449c-.137-.058-.268-.135-.41-.179a1.285,1.285,0,0,0-1.36.246,1.349,1.349,0,0,0-.394,1.331,2,2,0,0,0,.609,1.049A5.933,5.933,0,0,0,5.72,64.917a.271.271,0,0,0,.2-.059A5.52,5.52,0,0,0,7.847,61.68" transform="translate(0 -44.965)" fill="#040304"/>
        <path id="Trazado_654459" data-name="Trazado 654459" d="M193.489,41.174a3.089,3.089,0,0,1,1.788-3.055,2.875,2.875,0,0,1,3.326.492.49.49,0,0,0,.549.086,2.9,2.9,0,0,1,3.206.866,2.968,2.968,0,0,1,.525,3.289,4.753,4.753,0,0,1-1.913,2.207A7.631,7.631,0,0,1,197.7,46.3a.982.982,0,0,1-.709-.075,7.487,7.487,0,0,1-3.417-4.4,5.825,5.825,0,0,1-.089-.651m1.7.162a3.354,3.354,0,0,0,1.122,2.1c1.479,1.449,1.079,1.366,3,.61a3.413,3.413,0,0,0,1.947-1.684,1.412,1.412,0,0,0-.266-1.788,1.352,1.352,0,0,0-1.794-.014.856.856,0,0,1-1.407-.293,1.363,1.363,0,0,0-1.6-.714c-.64.191-1.006.743-1,1.783" transform="translate(-149.956 -29.294)" fill="#040304"/>
        <path id="Trazado_654460" data-name="Trazado 654460" d="M189.581,192.035a4.4,4.4,0,0,1-1.337,2.628,9.167,9.167,0,0,1-2.871,2.01,1.08,1.08,0,0,1-.648.1,6.675,6.675,0,0,1-4.734-4.258,3.067,3.067,0,0,1,4.386-3.533.524.524,0,0,0,.6-.04c2.107-1.208,4.62.254,4.609,3.1m-1.688-.247a1.438,1.438,0,0,0-.823-1.479,1.368,1.368,0,0,0-1.541.327c-.706.709-.88.711-1.662.027a1.308,1.308,0,0,0-1.507-.232,1.282,1.282,0,0,0-.779,1.253,2.41,2.41,0,0,0,.549,1.5,6.429,6.429,0,0,0,2.522,1.81.4.4,0,0,0,.414-.047,7.106,7.106,0,0,0,2.052-1.536,2.825,2.825,0,0,0,.776-1.62" transform="translate(-139.406 -146.1)" fill="#030303"/>
        <path id="Trazado_654461" data-name="Trazado 654461" d="M157.906,223.105q.007-3.609.016-7.218c0-.793.1-.936.819-1.187a.985.985,0,0,1,.874,1.1c-.011,2.348,0,4.695-.007,7.042,0,.609-.261.965-.721,1.041s-.8-.2-.981-.777" transform="translate(-122.379 -166.394)" fill="#060606"/>
        <path id="Trazado_654462" data-name="Trazado 654462" d="M151.064,32.955a1.814,1.814,0,0,0,.19-.974q0-5.472,0-10.943a2.469,2.469,0,0,1,.124-.993,1.745,1.745,0,0,1,1.8-1.069,1.793,1.793,0,0,1,1.494,1.6c.016.167.007.337.007.5,0,6.4-.007,12.8.014,19.193,0,.506-.125.613-.61.575a7.025,7.025,0,0,0-3,.585q-.009-4.237-.017-8.474" transform="translate(-117.076 -14.696)" fill="#f2c2b0"/>
        <path id="Trazado_654463" data-name="Trazado 654463" d="M13.666,67.508a5.52,5.52,0,0,1-1.923,3.178.271.271,0,0,1-.2.059,5.933,5.933,0,0,1-3.382-1.323,2,2,0,0,1-.609-1.049,1.349,1.349,0,0,1,.394-1.331A1.285,1.285,0,0,1,9.3,66.8c.142.044.272.121.41.179a.833.833,0,0,0,1.242-.449c.428-.822.93-1.112,1.624-.938.729.182,1.1.758,1.088,1.921" transform="translate(-5.82 -50.793)" fill="#eda1d9"/>
        <path id="Trazado_654464" data-name="Trazado 654464" d="M201.031,47.176c0-1.04.361-1.591,1-1.783a1.363,1.363,0,0,1,1.6.714.856.856,0,0,0,1.407.293,1.352,1.352,0,0,1,1.794.014A1.412,1.412,0,0,1,207.1,48.2a3.413,3.413,0,0,1-1.947,1.684c-1.921.756-1.521.839-3-.61a3.354,3.354,0,0,1-1.122-2.1" transform="translate(-155.801 -35.133)" fill="#eda1d9"/>
        <path id="Trazado_654465" data-name="Trazado 654465" d="M193.758,197.587a2.825,2.825,0,0,1-.776,1.62,7.106,7.106,0,0,1-2.052,1.536.4.4,0,0,1-.414.047,6.429,6.429,0,0,1-2.522-1.81,2.41,2.41,0,0,1-.549-1.5,1.282,1.282,0,0,1,.779-1.253,1.308,1.308,0,0,1,1.507.232c.782.684.957.682,1.662-.027a1.368,1.368,0,0,1,1.541-.327,1.438,1.438,0,0,1,.823,1.479" transform="translate(-145.272 -151.898)" fill="#eda1d9"/>
      </g>
    </g>
  </g>
</svg>
