<svg xmlns="http://www.w3.org/2000/svg" width="67" height="67" viewBox="0 0 67 67">
  <g id="Grupo_995504" data-name="Grupo 995504" transform="translate(-303 -3225)">
    <g id="Grupo_995501" data-name="Grupo 995501" transform="translate(307.183 3229.149)">
      <path id="Trazado_654103" data-name="Trazado 654103" d="M336.394,58.632c-.607-.008-1.408.216-1.767-.086s-.169-1.154-.1-1.743a2.608,2.608,0,0,0-1.116-2.63,13.9,13.9,0,0,1-1.45-1.387,4.071,4.071,0,0,1-1.234-2.969q0-2.954,0-5.908a4.629,4.629,0,0,1,.644-2.421,2.185,2.185,0,0,0,.305-1.222q-.023-1.891,0-3.781a3.283,3.283,0,0,1,4.508-3.123c.244.09.368.17.531-.155a3.21,3.21,0,0,1,4.174-1.752,1.2,1.2,0,0,0,.179.026c.119-.161.06-.34.06-.5,0-4.628,0-9.256.014-13.884a.878.878,0,0,0-.431-.811,25.418,25.418,0,0,1-6.338-6.206,9.867,9.867,0,0,1-1.139-2.124.489.489,0,0,0-.559-.367q-4.166.015-8.332,0a.524.524,0,0,0-.573.357,2.254,2.254,0,0,1-.93,1.042c-.266.158-.271.3-.167.564q1.219,3.127,2.4,6.267a1.116,1.116,0,0,0,.567.556,8.509,8.509,0,1,1-8.754.02,1.411,1.411,0,0,0,.654-.774q1.132-3,2.312-5.986a.482.482,0,0,0-.214-.7,2.723,2.723,0,0,1-1.1-3.01,2.851,2.851,0,0,1,2.38-2.093,2.788,2.788,0,0,1,2.835,1.51.59.59,0,0,0,.626.371c2.6-.011,5.2-.008,7.8,0,.264,0,.463.044.457-.372A4.7,4.7,0,0,1,335.527.495a5.528,5.528,0,0,1,6.137,1.09c.323.28.459.342.815.018A5.622,5.622,0,0,1,348.12.285a4.8,4.8,0,0,1,3.4,4.847c0,.448.074.585.551.58,2.541-.026,5.082-.018,7.623-.006a.665.665,0,0,0,.725-.4,2.767,2.767,0,0,1,2.794-1.478,2.854,2.854,0,0,1,2.4,2.075,2.694,2.694,0,0,1-1.034,2.978.581.581,0,0,0-.24.847c.783,1.97,1.542,3.949,2.295,5.93a1.265,1.265,0,0,0,.569.7,8.5,8.5,0,0,1-4.9,15.806A8.5,8.5,0,0,1,358.5,16.386a1.407,1.407,0,0,0,.649-.777q1.123-2.974,2.289-5.932c.128-.325.18-.555-.2-.754a1.453,1.453,0,0,1-.717-.763c-.188-.545-.559-.58-1.043-.577-2.639.017-5.279.008-7.919.009-.245,0-.479-.05-.613.286a16.757,16.757,0,0,1-4.457,5.946,28.907,28.907,0,0,1-3.122,2.521.672.672,0,0,0-.35.612q.017,7.149.009,14.3a1.866,1.866,0,0,0,.026.219c2.744-.561,4.085.249,4.734,2.878a3.665,3.665,0,0,1,2.163-.193,3.266,3.266,0,0,1,2.522,3.109c.019,4.627.039,9.254-.011,13.88a4.706,4.706,0,0,1-2.354,4.063.853.853,0,0,0-.473.883c.039.707,0,1.418.018,2.126.01.321-.062.455-.413.432-.49-.033-.984-.015-1.476-.018,0-1.142.017-2.285-.02-3.426a1.237,1.237,0,0,1,.881-1.345,2.908,2.908,0,0,0,1.936-2.668c.074-2.005.02-4.015.02-6.027a.646.646,0,0,0-.194,0,3.2,3.2,0,0,1-3.368-.578c-.232-.2-.327-.058-.486.061a3.225,3.225,0,0,1-4.183-.011c-.221-.165-.33-.167-.535.007a3.3,3.3,0,0,1-2.3.762c-.571-.014-1.143-.014-1.713.005-.156.005-.412-.152-.454.187a.461.461,0,0,0,.295.511,5.645,5.645,0,0,0,1.222.422,6.652,6.652,0,0,1,5.079,5.776c.055.446.046.775-.564.667a3.35,3.35,0,0,0-.884,0c-.329.031-.408-.085-.443-.414a4.7,4.7,0,0,0-3.718-4.209,6.105,6.105,0,0,1-2.052-.863,1.612,1.612,0,0,1-.833-1.628,10.54,10.54,0,0,0,.009-1.181c.008-.842.334-1.162,1.193-1.166,1,0,2.01,0,3.014,0a1.367,1.367,0,0,0,1.346-.877,1.444,1.444,0,0,0-1.462-1.948c-1.162-.026-2.325-.011-3.487-.007a3.272,3.272,0,0,0-3.44,3.454c0,1.832.013,3.664-.007,5.5a2.544,2.544,0,0,0,.851,1.99c.848.794,1.67,1.616,2.51,2.419a1.269,1.269,0,0,1,.432.989c-.017,1.2-.012,2.4-.015,3.6M349.642,5.394c0-2.023-1.066-3.259-2.784-3.459A3.874,3.874,0,0,0,343.02,3.96a1.055,1.055,0,0,1-.944.684,1.04,1.04,0,0,1-.941-.687,3.761,3.761,0,0,0-3.015-2.015,3.072,3.072,0,0,0-3.6,3.116,6.076,6.076,0,0,0,.952,3.242,22.917,22.917,0,0,0,6.376,6.483c.21.156.341.089.514-.039A24.641,24.641,0,0,0,348.187,9.1a7.1,7.1,0,0,0,1.455-3.7M326,28.226a6.592,6.592,0,1,0-9.574-9.062,6.491,6.491,0,0,0,.118,9.024c0-.527.006-1.012,0-1.5a2.788,2.788,0,0,1,1.511-2.668c.277-.152.281-.261.176-.536a3.244,3.244,0,0,1,1.075-3.895,3.288,3.288,0,0,1,3.956.014,3.23,3.23,0,0,1,1.061,3.849c-.145.365-.027.443.247.606A2.771,2.771,0,0,1,326,26.541c.008.53,0,1.061,0,1.684m32.152.039c0-.6.006-1.089,0-1.573a2.789,2.789,0,0,1,1.511-2.669c.276-.152.282-.26.176-.536a3.244,3.244,0,0,1,1.074-3.9,3.288,3.288,0,0,1,3.956.013,3.25,3.25,0,0,1,1.066,3.851c-.113.293-.114.413.187.58a2.759,2.759,0,0,1,1.486,2.565c0,.518,0,1.037,0,1.625a6.59,6.59,0,1,0-9.456.04M345.86,38.309c0-1.18,0-2.36,0-3.539,0-1.011-.577-1.663-1.439-1.649a1.449,1.449,0,0,0-1.394,1.634q-.006,3.569,0,7.138a1.428,1.428,0,1,0,2.833.015c.006-1.2,0-2.4,0-3.6m-27.422-10.4c0,.452.017.905-.006,1.356a.464.464,0,0,0,.342.526,6.587,6.587,0,0,0,5,0c.215-.085.353-.184.347-.461-.019-.924.005-1.848-.013-2.772a.924.924,0,0,0-1-.994q-1.828-.023-3.657,0a.93.93,0,0,0-1,.991c-.016.452,0,.9,0,1.356m44.435-2.351c-.609,0-1.219-.013-1.828,0a.929.929,0,0,0-.994,1c-.017.9.007,1.809-.012,2.713a.473.473,0,0,0,.351.519,6.62,6.62,0,0,0,5,0,.474.474,0,0,0,.334-.53c-.014-.884,0-1.769-.009-2.654a.954.954,0,0,0-1.072-1.046c-.59-.01-1.18,0-1.769,0M350.588,39.761c0-.747.006-1.494,0-2.241a1.422,1.422,0,1,0-2.832-.024q-.014,2.24,0,4.481a1.419,1.419,0,1,0,2.831.024c.012-.747,0-1.494,0-2.24m-9.46-.582c0-1.614.018-3.149-.007-4.683a1.408,1.408,0,0,0-2.815,0c-.026,1.319,0,2.638-.015,3.957,0,.254.066.344.33.336a4.752,4.752,0,0,1,2.507.385m-7.554.138a5.92,5.92,0,0,1,2.608-.528c.192.012.224-.1.222-.257-.008-.767.031-1.538-.027-2.3a1.4,1.4,0,0,0-2.794.077c-.039.979-.01,1.961-.01,3.009m-12.3-28.15-1.585,4.149a9.355,9.355,0,0,1,3.167-.042l-1.582-4.107m41.61.007L361.294,15.3a8.894,8.894,0,0,1,3.175,0l-1.587-4.127M319.859,22.238a1.415,1.415,0,1,0,1.435-1.408,1.43,1.43,0,0,0-1.435,1.408m41.608.019a1.415,1.415,0,1,0,1.416-1.428,1.431,1.431,0,0,0-1.416,1.428M322.217,6.636a.944.944,0,1,0-.92.952.942.942,0,0,0,.92-.952m41.608,0a.944.944,0,1,0-.918.954.942.942,0,0,0,.918-.954" transform="translate(-312.763 -0.003)" fill="#020202"/>
      <path id="Trazado_654104" data-name="Trazado 654104" d="M400.356,189.664c0-1.2,0-2.4.015-3.6a1.269,1.269,0,0,0-.432-.989c-.84-.8-1.662-1.625-2.51-2.419a2.543,2.543,0,0,1-.851-1.99c.02-1.832,0-3.664.007-5.5a3.272,3.272,0,0,1,3.439-3.454c1.162,0,2.325-.019,3.487.007a1.444,1.444,0,0,1,1.463,1.948,1.367,1.367,0,0,1-1.346.877c-1,.008-2.009,0-3.014,0-.859,0-1.185.324-1.193,1.166a10.475,10.475,0,0,1-.009,1.181,1.612,1.612,0,0,0,.833,1.628,6.1,6.1,0,0,0,2.052.863,4.7,4.7,0,0,1,3.718,4.209c.035.329.114.444.443.414a3.349,3.349,0,0,1,.884,0c.61.108.62-.222.564-.667a6.652,6.652,0,0,0-5.079-5.776,5.641,5.641,0,0,1-1.222-.422.461.461,0,0,1-.295-.511c.042-.339.3-.182.454-.187.571-.02,1.143-.019,1.714-.005a3.305,3.305,0,0,0,2.3-.762c.2-.173.315-.172.535-.007a3.225,3.225,0,0,0,4.183.011c.159-.118.254-.256.486-.061a3.2,3.2,0,0,0,3.368.578.645.645,0,0,1,.194,0c0,2.012.055,4.022-.02,6.027a2.908,2.908,0,0,1-1.936,2.668,1.237,1.237,0,0,0-.881,1.345c.036,1.141.016,2.284.02,3.426H400.356" transform="translate(-376.725 -131.035)" fill="#f7d9b1"/>
      <path id="Trazado_654105" data-name="Trazado 654105" d="M419.725,11.534a7.1,7.1,0,0,1-1.455,3.7,24.649,24.649,0,0,1-5.827,5.648c-.173.128-.3.2-.514.039a22.915,22.915,0,0,1-6.377-6.483A6.078,6.078,0,0,1,404.6,11.2a3.073,3.073,0,0,1,3.6-3.116,3.762,3.762,0,0,1,3.015,2.015,1.04,1.04,0,0,0,.941.687,1.056,1.056,0,0,0,.944-.684,3.873,3.873,0,0,1,3.837-2.025c1.718.2,2.781,1.437,2.784,3.459" transform="translate(-382.846 -6.143)" fill="#bd7068"/>
      <path id="Trazado_654106" data-name="Trazado 654106" d="M332.127,83.156c0-.623.006-1.154,0-1.684a2.772,2.772,0,0,0-1.43-2.482c-.274-.162-.392-.241-.246-.606a3.23,3.23,0,0,0-1.061-3.849,3.288,3.288,0,0,0-3.956-.014,3.244,3.244,0,0,0-1.075,3.895c.106.275.1.384-.176.536a2.788,2.788,0,0,0-1.511,2.668c.007.485,0,.97,0,1.5a6.491,6.491,0,0,1-.118-9.024,6.592,6.592,0,1,1,9.574,9.062" transform="translate(-318.888 -54.933)" fill="#e2e2e2"/>
      <path id="Trazado_654107" data-name="Trazado 654107" d="M498.356,83.178a6.6,6.6,0,1,1,9.456-.039c0-.588,0-1.107,0-1.625a2.759,2.759,0,0,0-1.486-2.565c-.3-.167-.3-.287-.187-.58a3.25,3.25,0,0,0-1.066-3.851,3.288,3.288,0,0,0-3.957-.013,3.244,3.244,0,0,0-1.074,3.895c.106.276.1.384-.176.536a2.789,2.789,0,0,0-1.511,2.669c.007.485,0,.97,0,1.573" transform="translate(-452.965 -54.917)" fill="#e2e2e2"/>
      <path id="Trazado_654108" data-name="Trazado 654108" d="M443.35,145.007c0,1.2,0,2.4,0,3.6a1.429,1.429,0,1,1-2.833-.015q-.006-3.569,0-7.138a1.449,1.449,0,0,1,1.394-1.634c.863-.014,1.436.638,1.439,1.649,0,1.18,0,2.36,0,3.539" transform="translate(-410.253 -106.701)" fill="#f7d9b1"/>
      <path id="Trazado_654109" data-name="Trazado 654109" d="M336.7,110.208c0-.452-.013-.9,0-1.356a.93.93,0,0,1,1-.991q1.828-.022,3.657,0a.923.923,0,0,1,1,.994c.018.924-.007,1.848.013,2.772.006.277-.132.376-.347.461a6.587,6.587,0,0,1-5,0,.464.464,0,0,1-.342-.526c.024-.451.006-.9.007-1.356" transform="translate(-331.021 -82.305)" fill="#7b98c6"/>
      <path id="Trazado_654110" data-name="Trazado 654110" d="M515.186,107.862c.59,0,1.18-.009,1.769,0a.955.955,0,0,1,1.072,1.046c.014.884-.005,1.769.009,2.654a.474.474,0,0,1-.335.53,6.618,6.618,0,0,1-5,0,.473.473,0,0,1-.352-.519c.019-.9,0-1.808.012-2.712a.929.929,0,0,1,.994-1c.609-.017,1.219,0,1.829,0" transform="translate(-465.076 -82.311)" fill="#7b98c6"/>
      <path id="Trazado_654111" data-name="Trazado 654111" d="M463.3,155.6c0,.747.009,1.494,0,2.241a1.419,1.419,0,1,1-2.831-.024q-.015-2.24,0-4.481a1.422,1.422,0,1,1,2.832.024c.008.747,0,1.494,0,2.241" transform="translate(-425.477 -115.839)" fill="#f7d9b0"/>
      <path id="Trazado_654112" data-name="Trazado 654112" d="M423.374,145.878a4.754,4.754,0,0,0-2.508-.385c-.264.008-.332-.082-.33-.336.012-1.319-.011-2.639.015-3.957a1.408,1.408,0,0,1,2.815,0c.026,1.535.008,3.07.008,4.683" transform="translate(-395.009 -106.702)" fill="#f7d9b1"/>
      <path id="Trazado_654113" data-name="Trazado 654113" d="M400.592,152.106c0-1.048-.029-2.029.01-3.008a1.4,1.4,0,0,1,2.794-.077c.059.763.019,1.534.027,2.3,0,.159-.03.269-.222.257a5.919,5.919,0,0,0-2.608.528" transform="translate(-379.781 -112.792)" fill="#f6d8b0"/>
      <path id="Trazado_654114" data-name="Trazado 654114" d="M342.723,89.339a1.415,1.415,0,1,1,1.423,1.42,1.43,1.43,0,0,1-1.423-1.42" transform="translate(-335.626 -67.104)" fill="#7997c4"/>
      <path id="Trazado_654115" data-name="Trazado 654115" d="M518.384,89.358a1.415,1.415,0,1,1,1.442,1.4,1.43,1.43,0,0,1-1.442-1.4" transform="translate(-469.68 -67.104)" fill="#7997c4"/>
      <path id="Trazado_654116" data-name="Trazado 654116" d="M346.6,25a.944.944,0,1,1-.937-.935A.941.941,0,0,1,346.6,25" transform="translate(-337.142 -18.362)" fill="#5b5b5b"/>
      <path id="Trazado_654117" data-name="Trazado 654117" d="M522.257,24.993a.944.944,0,1,1-.939-.933.942.942,0,0,1,.939.933" transform="translate(-471.195 -18.362)" fill="#5b5b5b"/>
    </g>
    <rect id="Rectángulo_309742" data-name="Rectángulo 309742" width="67" height="67" transform="translate(303 3225)" fill="none"/>
  </g>
</svg>
