<svg xmlns="http://www.w3.org/2000/svg" width="67" height="67" viewBox="0 0 67 67">
  <g id="Grupo_995511" data-name="Grupo 995511" transform="translate(-303 -3225)">
    <rect id="Rectángulo_309742" data-name="Rectángulo 309742" width="67" height="67" transform="translate(303 3225)" fill="none"/>
    <g id="Grupo_995516" data-name="Grupo 995516" transform="translate(307.239 3233.054)">
      <path id="Trazado_654136" data-name="Trazado 654136" d="M694.365,25.85c.594-.33.819-.3,1.29.15a4,4,0,0,0,1.494,1.172.566.566,0,0,1,.286.218,5.506,5.506,0,0,1,1.175,3.359,2.1,2.1,0,0,1-.817,1.406c-.218.191-.256.34-.006.524a1.424,1.424,0,0,1,.258.258c.459.574.849.9,1.7.431a2.64,2.64,0,0,1,3.372,1.176,2.667,2.667,0,0,1-.4,3.467q-4.193,4.213-8.408,8.4a3.326,3.326,0,0,1-.5.339.8.8,0,0,0,.631.15c3.076.006,6.153,0,9.229.013a2.473,2.473,0,0,1,2.342,1.748,2.51,2.51,0,0,1-.921,2.778,2.424,2.424,0,0,1-1.664.481.567.567,0,0,0-.609.348,8.174,8.174,0,0,0-1.083,3.92.949.949,0,0,1-.721,1.059c-.685-.133-.854-.332-.848-1a4.438,4.438,0,0,1,.016-.467c.025-.221-.049-.308-.282-.3-.951.017-1.9.018-2.855.025l-4.536-.017c-.765,0-1.53.01-2.295-.006a.752.752,0,0,1-.8-.776.771.771,0,0,1,.8-.781c.156-.01.313,0,.469,0l6.674-.02,2.814.02c.158,0,.287.009.355-.2.192-.589.415-1.167.63-1.759a.877.877,0,0,0-.151-.027q-1.46,0-2.919.013c-.1-.005-.208-.015-.312-.015H673.257c-.139,0-.277.013-.416.02-.363-.007-.726-.026-1.089-.016-.2.005-.426-.09-.592.088-.56.6-1.114,1.205-1.734,1.879h1.849c.191.006.381.017.572.017h11.474a3.937,3.937,0,0,1,.469.007.773.773,0,0,1,.72.81.751.751,0,0,1-.734.741c-.172.017-.347.007-.521.008-4.677,0-9.353.01-14.03,0-.393,0-.5.115-.517.485a10.542,10.542,0,0,0,.745,4.432c.217.528.459.867,1.092.673a1.668,1.668,0,0,1,.468-.007q13.221,0,26.442,0c.208,0,.415-.018.623-.027h3.12c-.283-.62-.631-1.221.121-1.711a.9.9,0,0,1,1.13.66c.034.1.09.188.127.285a1.113,1.113,0,0,0,1.18.827,2.42,2.42,0,0,1,2.362,2.482,2.531,2.531,0,0,1-2.43,2.508c-.087.006-.174,0-.261,0q-16.352,0-32.7,0a2.53,2.53,0,0,1-2.621-1.875c-.019-.067-.033-.135-.055-.2-.083-.252.131-.62-.145-.755a1.694,1.694,0,0,0-.823-.025,2.09,2.09,0,0,1-2.16-1.228,13.172,13.172,0,0,1-.97-2.245c-.172.21-.281.36-.406.5-1.425,1.547-2.833,3.11-4.286,4.631a3.79,3.79,0,0,1-6.506-2.015,3.694,3.694,0,0,1,1.275-3.461q3.242-2.984,6.478-5.976,2.338-2.158,4.674-4.316a.859.859,0,0,1,1.292-.126.828.828,0,0,1-.108,1.174q-2.726,2.535-5.469,5.052c-1.978,1.823-3.967,3.634-5.932,5.472a2.105,2.105,0,0,0-.373,2.709,2.15,2.15,0,0,0,3.485.434c.464-.468.9-.963,1.348-1.447q4.758-5.135,9.515-10.271c1.178-1.273,2.348-2.554,3.529-3.825.178-.192.2-.339,0-.524-.406-.378-.8-.766-1.2-1.15-.442-.528-.448-.535-.943-.108a12.307,12.307,0,0,0-.9.847,1.039,1.039,0,0,1-1.417.283c-.3-.735-.268-.882.341-1.44.179-.164.349-.341.539-.492a1.867,1.867,0,0,0,.853-1.838,2.545,2.545,0,0,1,3.229-2.555.607.607,0,0,0,.726-.26c1.161-1.407,2.336-2.8,3.506-4.2a.194.194,0,0,0,.02-.057c-1.417-.681-1.632-2.09-1.94-3.388a1.961,1.961,0,0,1,.833-1.868c.221-.2.245-.346,0-.529a1.384,1.384,0,0,1-.258-.257c-.457-.59-.857-.88-1.7-.423a2.823,2.823,0,0,1-3.063-4.538c.89-.928,1.814-1.824,2.724-2.733q3.466-3.466,6.932-6.932a2.6,2.6,0,0,1,2.85-.755,2.928,2.928,0,0,1,2.038,2.419,2.417,2.417,0,0,1-.449,1.826c-.158.221-.154.356.051.512a2.489,2.489,0,0,1,.222.22c.284.281.526.705.863.8s.541-.433.857-.626a2.174,2.174,0,0,1,1.942-.253c.587.208,1.162.452,1.736.7a1.28,1.28,0,0,1,.762.677,3.99,3.99,0,0,0,1.143,1.451.88.88,0,0,1,.185,1.211c-.545.383-.835.395-1.266-.084-.314-.35-.48-.259-.765.028q-5.757,5.784-11.536,11.546c-.074.074-.141.154-.221.221-.157.13-.144.233,0,.373.541.513,1.07,1.038,1.6,1.558.507.52,1.03,1.027,1.516,1.567.245.272.38.26.637,0q5.839-5.865,11.7-11.7c.263-.262.253-.4-.007-.65-.54-.514-.555-.688-.251-1.318m-18.84,23.236.007-.01a3.389,3.389,0,0,1-1.287-.047.328.328,0,0,0-.383.062c-.363.4-.731.8-1.149,1.255h1.8c.121.005.243.016.364.016h26.5c.121,0,.243-.01.364-.016.623.005,1.247.028,1.87.011a.939.939,0,0,0,.945-.966.928.928,0,0,0-.945-.909c-.623-.015-1.246.007-1.87.013-.225-.007-.451-.02-.676-.02q-11.34,0-22.68-.008a4.317,4.317,0,0,0-2.726.562l-.13.057m-8.3,9.193c-.039-.577-.078-1.153-.125-1.846-.37.391-.665.7-.953,1.007-1.009,1.088-1.008,1.089-.485,2.474a.361.361,0,0,0,.061.081,5.112,5.112,0,0,0,.7,1.44.418.418,0,0,0,.38.223c.4,0,.8,0,1.2,0,.2,0,.308-.043.193-.271a12.516,12.516,0,0,1-.971-3.11m7.594-13.444c-.572-.582-1.127-1.181-1.721-1.74a1.109,1.109,0,0,0-1.552.053,1.078,1.078,0,0,0,.016,1.508c.577.6,1.186,1.171,1.781,1.754.251.264.491.539.755.788a1.1,1.1,0,0,0,1.55.061,1.124,1.124,0,0,0,.028-1.592c-.265-.3-.571-.556-.858-.832m2.7-5.855q-1.194,1.4-2.388,2.79c-.548.636-.552.633.1,1.192.165.177.325.36.5.531.659.663.673.677,1.395.087,1.167-.954,2.311-1.937,3.475-2.894.285-.235.29-.4.015-.651-.449-.409-.864-.854-1.294-1.283-1-1-1-1-1.8.229M701.728,64.5c.623.01,1.246.043,1.868.022a.95.95,0,0,0,.963-.956.919.919,0,0,0-.913-.944,8.873,8.873,0,0,0-1.913.028c-.121-.007-.242-.019-.364-.019h-30.6a2.576,2.576,0,0,0-.364.014.865.865,0,0,0-.807.816.907.907,0,0,0,.651,1,2.175,2.175,0,0,0,.723.058q15.09,0,30.181,0c.191,0,.381-.013.572-.02m-13.153-17.6a2.321,2.321,0,0,1-.123-2.236c.588-.862.139-1.265-.421-1.743a1.615,1.615,0,0,1-.256-.259c-.188-.255-.34-.193-.519.018a2,2,0,0,1-1.2.776,4.929,4.929,0,0,1-3.661-1.254.571.571,0,0,1-.188-.306c-.107-.437-.289-.29-.518-.1-1.14.965-2.272,1.941-3.438,2.874-.533.426-1.034.807-.7,1.592a.445.445,0,0,1,.008.258c-.085.363.111.384.4.384,2.728-.008,5.457-.005,8.185-.005ZM684.1,18.118a1.489,1.489,0,0,0-.265-.711c-.589-.793-1.347-.813-2.117-.043q-4.614,4.607-9.222,9.219a3.517,3.517,0,0,0-.249.266,1.148,1.148,0,0,0,.173,1.778,1.114,1.114,0,0,0,1.67-.032q4.805-4.784,9.591-9.587a1.4,1.4,0,0,0,.42-.889m17.867,17.971a1.311,1.311,0,0,0-.854-1.276,1.112,1.112,0,0,0-1.316.336q-4.793,4.785-9.577,9.577a1.12,1.12,0,0,0,.007,1.7,1.108,1.108,0,0,0,1.769.075q4.816-4.8,9.619-9.609a1.008,1.008,0,0,0,.353-.8m-16.538,5.848c.35.055.55-.169.762-.381q4.94-4.943,9.881-9.885c1.25-1.254,1.206-.882.536-2.607-.255-.656-.364-.675-.875-.164l-11.8,11.8c-.086.086-.174.17-.253.263-.112.131-.112.27.057.337a10.437,10.437,0,0,0,1.694.638m3-20.187c-.332-.029-.5.213-.7.407q-4.92,4.917-9.835,9.837c-1.427,1.431-1.232.916-.553,2.718.232.616.274.62.729.166l11.863-11.861a3.218,3.218,0,0,0,.285-.3c.085-.11.091-.244-.052-.306a7.731,7.731,0,0,0-1.741-.657m9.318,13.212c.009-.154-.095-.208-.164-.279-.255-.262-.538-.5-.766-.781-.271-.334-.453-.33-.766-.013-2.1,2.128-4.22,4.234-6.332,6.349-.342.343-.909.684-.937,1.058-.032.434.627.712.94,1.1.212.262.368.259.615.01q3.58-3.608,7.183-7.194c.084-.084.162-.176.227-.249m-12.5-12.6c-.069-.077-.124-.144-.185-.2a11.283,11.283,0,0,1-.8-.816c-.273-.338-.451-.266-.726.012-2.1,2.124-4.225,4.228-6.331,6.349-.351.353-1.007.683-.951,1.088s.656.754,1.005,1.138c.161.178.269.2.454.013q3.659-3.676,7.331-7.339c.072-.072.134-.155.206-.24" transform="translate(-652.701 -15.215)" fill="#030202"/>
      <path id="Trazado_654137" data-name="Trazado 654137" d="M800.54,63.25c-.3.629-.289.8.251,1.318.26.247.27.388.007.65q-5.865,5.838-11.7,11.7c-.257.258-.393.27-.637,0-.485-.54-1.009-1.046-1.516-1.566.105-.089.218-.171.315-.269q6.115-6.11,12.226-12.225c.109-.109.2-.237.3-.357a3.893,3.893,0,0,1,.761.749" transform="translate(-758.876 -52.615)" fill="#eea74a"/>
      <path id="Trazado_654138" data-name="Trazado 654138" d="M793.272,58.329c-.1.119-.188.248-.3.357q-6.111,6.114-12.226,12.225c-.1.1-.21.179-.315.269-.533-.52-1.062-1.046-1.6-1.558-.148-.14-.162-.243,0-.373.08-.066.148-.147.221-.221q5.771-5.77,11.536-11.546c.286-.287.451-.378.765-.028.43.479.721.468,1.265.084.131.338.481.493.659.792" transform="translate(-752.369 -48.444)" fill="#f2c179"/>
      <path id="Trazado_654139" data-name="Trazado 654139" d="M660.5,180.638a2.105,2.105,0,0,1,.373-2.709c1.965-1.837,3.954-3.648,5.932-5.471q2.737-2.523,5.469-5.052a.828.828,0,0,0,.108-1.174c.524-.436.965-.966,1.532-1.354a1.039,1.039,0,0,0,1.417-.283,12.382,12.382,0,0,1,.9-.847c.5-.426.5-.42.943.108,0,.2-.158.3-.273.424q-1.813,1.969-3.627,3.938-2.557,2.769-5.118,5.534c-1.1,1.181-2.241,2.322-3.3,3.538-.512.588-1.086,1.115-1.573,1.729a3.74,3.74,0,0,1-2.788,1.619" transform="translate(-658.611 -132.453)" fill="#7d4234"/>
      <path id="Trazado_654140" data-name="Trazado 654140" d="M864.554,207.815c.952-.007,1.9-.008,2.855-.025.234,0,.307.083.282.3a4.471,4.471,0,0,0-.016.467c-.005.671.163.871.848,1a11.1,11.1,0,0,0,.312,2.073c-.751.49-.4,1.091-.121,1.711h-3.12c-.239-.624-.518-1.236-.707-1.875a9.046,9.046,0,0,1-.333-3.659" transform="translate(-820.216 -167.53)" fill="#bdb2af"/>
      <path id="Trazado_654141" data-name="Trazado 654141" d="M757.572,194.4a9.045,9.045,0,0,0,.333,3.659c.189.639.468,1.251.707,1.875-.208.009-.415.027-.623.027q-13.221,0-26.442,0a1.668,1.668,0,0,0-.467.007c-.633.193-.875-.145-1.092-.674a10.542,10.542,0,0,1-.745-4.431c.013-.371.125-.487.517-.486,4.677.014,9.353.006,14.03,0,.174,0,.349.01.521-.008a.751.751,0,0,0,.734-.741.773.773,0,0,0-.72-.81,3.94,3.94,0,0,0-.469-.007H732.381c-.191,0-.382-.011-.572-.017.07-.357.4-.507.608-.75.336-.388.787-.682.958-1.2.139-.007.277-.02.416-.02h24.516c.1,0,.208.01.312.015a19.43,19.43,0,0,0-.73,1.954l-6.674.02c-.157,0-.314-.008-.469,0a.771.771,0,0,0-.8.781.752.752,0,0,0,.8.776c.765.016,1.53,0,2.295.006l4.536.017m-13.363,3.534h8.761a2.93,2.93,0,0,0,.52-.018.723.723,0,0,0,.634-.664.738.738,0,0,0-.5-.822,1.5,1.5,0,0,0-.617-.06q-8.762,0-17.523,0a2.176,2.176,0,0,0-.567.044.718.718,0,0,0-.568.774.725.725,0,0,0,.679.733,3.965,3.965,0,0,0,.521.013h8.657" transform="translate(-713.234 -154.11)" fill="#dcd1cd"/>
      <path id="Trazado_654142" data-name="Trazado 654142" d="M765.637,243.9c-.191.007-.381.02-.572.02q-15.09,0-30.181,0a2.177,2.177,0,0,1-.723-.058.907.907,0,0,1-.651-1,.865.865,0,0,1,.806-.816,2.577,2.577,0,0,1,.364-.014h30.6c.121,0,.243.013.364.019a1.884,1.884,0,0,1,0,1.85" transform="translate(-716.609 -194.609)" fill="#e74e81"/>
      <path id="Trazado_654143" data-name="Trazado 654143" d="M758.175,174.823a4.317,4.317,0,0,1,2.726-.562q11.34.02,22.68.008c.225,0,.451.013.676.02a2.071,2.071,0,0,1,0,1.851c-.121.005-.243.016-.364.016H757.4c-.122,0-.243-.01-.364-.016a8.265,8.265,0,0,0,1.018-1.27l-.006.009.13-.057" transform="translate(-735.221 -141.01)" fill="#e74e81"/>
      <path id="Trazado_654144" data-name="Trazado 654144" d="M661.743,182.2a3.74,3.74,0,0,0,2.788-1.619c.487-.615,1.061-1.141,1.573-1.729,1.058-1.215,2.2-2.357,3.3-3.538q2.566-2.761,5.118-5.534,1.816-1.967,3.627-3.938c.115-.125.276-.222.273-.424.4.384.8.772,1.2,1.15.2.185.177.332,0,.524-1.181,1.271-2.35,2.552-3.529,3.825q-4.755,5.137-9.515,10.271c-.448.484-.884.979-1.349,1.447a2.149,2.149,0,0,1-3.485-.434" transform="translate(-659.852 -134.017)" fill="#64352b"/>
      <path id="Trazado_654145" data-name="Trazado 654145" d="M756.726,24.112a1.4,1.4,0,0,1-.42.889q-4.791,4.8-9.591,9.587a1.114,1.114,0,0,1-1.67.032,1.148,1.148,0,0,1-.173-1.778,3.559,3.559,0,0,1,.25-.266q4.61-4.61,9.222-9.219c.771-.769,1.528-.749,2.117.043a1.489,1.489,0,0,1,.265.711" transform="translate(-725.329 -21.209)" fill="#7b4133"/>
      <path id="Trazado_654146" data-name="Trazado 654146" d="M842.427,109.858a1.009,1.009,0,0,1-.353.8q-4.809,4.8-9.619,9.609a1.108,1.108,0,0,1-1.769-.075,1.12,1.12,0,0,1-.007-1.7q4.783-4.794,9.577-9.577a1.112,1.112,0,0,1,1.316-.336,1.312,1.312,0,0,1,.854,1.276" transform="translate(-793.164 -88.984)" fill="#64352b"/>
      <path id="Trazado_654147" data-name="Trazado 654147" d="M802.31,92.351a10.415,10.415,0,0,1-1.694-.638c-.17-.067-.17-.206-.057-.337.079-.092.167-.177.253-.263l11.8-11.8c.511-.511.62-.492.875.165.671,1.725.715,1.353-.535,2.607q-4.935,4.948-9.881,9.885c-.212.212-.412.436-.762.381" transform="translate(-769.586 -65.629)" fill="#64352b"/>
      <path id="Trazado_654148" data-name="Trazado 654148" d="M779.678,46.461a7.742,7.742,0,0,1,1.741.657c.143.063.136.2.052.306a3.177,3.177,0,0,1-.285.3L769.323,59.588c-.455.455-.5.45-.729-.166-.678-1.8-.873-1.286.553-2.718q4.909-4.927,9.835-9.836c.194-.194.364-.435.7-.407" transform="translate(-743.955 -39.927)" fill="#7d4234"/>
      <path id="Trazado_654149" data-name="Trazado 654149" d="M834.227,104.709c-.066.072-.143.164-.227.249q-3.593,3.595-7.183,7.194c-.247.249-.4.252-.615-.01-.313-.386-.972-.664-.94-1.1.028-.374.595-.715.937-1.058,2.111-2.116,4.233-4.221,6.332-6.349.313-.317.494-.321.766.013.229.282.512.519.767.78.069.071.173.125.164.279" transform="translate(-789.185 -84.963)" fill="#955143"/>
      <path id="Trazado_654150" data-name="Trazado 654150" d="M774.3,44.7c-.072.085-.134.168-.206.24q-3.667,3.669-7.331,7.339c-.185.186-.292.165-.454-.013-.349-.384-.947-.721-1.005-1.138s.6-.735.951-1.088c2.106-2.12,4.228-4.225,6.331-6.349.275-.278.453-.35.726-.012a11.258,11.258,0,0,0,.8.816c.06.061.115.128.185.2" transform="translate(-741.759 -37.546)" fill="#ac6152"/>
      <path id="Trazado_654151" data-name="Trazado 654151" d="M762.756,125.288c.8-1.227.8-1.227,1.8-.229.43.43.846.875,1.294,1.283.275.25.27.416-.015.651-1.165.958-2.308,1.94-3.476,2.894-.722.59-.736.576-1.395-.087-.171-.172-.331-.354-.5-.531a33.539,33.539,0,0,0,2.405-2.373,1.084,1.084,0,0,0-.121-1.609" transform="translate(-737.941 -101.523)" fill="#64352b"/>
      <path id="Trazado_654152" data-name="Trazado 654152" d="M743.517,150.783c-.595-.583-1.2-1.154-1.781-1.754a1.078,1.078,0,0,1-.016-1.508,1.109,1.109,0,0,1,1.552-.053c.593.559,1.149,1.158,1.72,1.74a2,2,0,0,1-1.476,1.575" transform="translate(-722.873 -119.588)" fill="#ac6152"/>
      <path id="Trazado_654153" data-name="Trazado 654153" d="M866.293,192.8a19.449,19.449,0,0,1,.73-1.954q1.459-.007,2.919-.013a.865.865,0,0,1,.151.027c-.215.592-.439,1.171-.63,1.759-.068.209-.2.2-.355.2l-2.814-.02" transform="translate(-821.639 -154.118)" fill="#c9bebb"/>
      <path id="Trazado_654154" data-name="Trazado 654154" d="M887.21,243.723a1.884,1.884,0,0,0,0-1.85,8.876,8.876,0,0,1,1.914-.028.919.919,0,0,1,.913.944.95.95,0,0,1-.963.956c-.622.021-1.245-.013-1.868-.022" transform="translate(-838.183 -194.435)" fill="#c3355f"/>
      <path id="Trazado_654155" data-name="Trazado 654155" d="M716.5,221.2a12.518,12.518,0,0,0,.971,3.11c.115.227,0,.272-.193.271-.4,0-.8,0-1.2,0a.418.418,0,0,1-.38-.223,5.108,5.108,0,0,1-.7-1.44,6.158,6.158,0,0,1,1.5-1.717" transform="translate(-701.975 -178.134)" fill="#e74e81"/>
      <path id="Trazado_654156" data-name="Trazado 654156" d="M887.251,176.183a2.071,2.071,0,0,0,0-1.851c.623-.006,1.247-.028,1.87-.013a.928.928,0,0,1,.945.909.939.939,0,0,1-.945.966c-.623.017-1.247-.006-1.87-.011" transform="translate(-838.215 -141.052)" fill="#e23866"/>
      <path id="Trazado_654157" data-name="Trazado 654157" d="M760.849,128.887a1.084,1.084,0,0,1,.121,1.609,33.555,33.555,0,0,1-2.405,2.373c-.656-.558-.652-.555-.1-1.192q1.2-1.391,2.388-2.79" transform="translate(-736.034 -105.122)" fill="#7b4133"/>
      <path id="Trazado_654158" data-name="Trazado 654158" d="M751.448,158.468a2,2,0,0,0,1.476-1.575c.287.276.593.536.858.832a1.124,1.124,0,0,1-.028,1.592,1.1,1.1,0,0,1-1.55-.061c-.264-.25-.5-.525-.755-.788" transform="translate(-730.804 -127.273)" fill="#955143"/>
      <path id="Trazado_654159" data-name="Trazado 654159" d="M736.116,190.783c-.171.519-.622.813-.958,1.2-.21.243-.538.393-.608.75H732.7c.621-.674,1.174-1.279,1.735-1.879.166-.178.394-.082.592-.088.362-.01.726.009,1.089.016" transform="translate(-715.976 -154.049)" fill="#c9bebb"/>
      <path id="Trazado_654160" data-name="Trazado 654160" d="M714.959,214.216a6.162,6.162,0,0,0-1.5,1.717.366.366,0,0,1-.061-.081c-.523-1.385-.524-1.386.485-2.474.288-.311.583-.616.953-1.007.047.692.086,1.269.125,1.845" transform="translate(-700.433 -171.153)" fill="#e23866"/>
      <path id="Trazado_654161" data-name="Trazado 654161" d="M751.239,176.877a8.283,8.283,0,0,1-1.018,1.27h-1.8c.418-.456.786-.853,1.149-1.255a.328.328,0,0,1,.383-.062,3.388,3.388,0,0,0,1.287.047" transform="translate(-728.409 -143.016)" fill="#e23866"/>
      <path id="Trazado_654162" data-name="Trazado 654162" d="M762,176.952l-.13.057.13-.057" transform="translate(-739.05 -143.139)" fill="#e23866"/>
      <path id="Trazado_654163" data-name="Trazado 654163" d="M763.568,218.883h-8.657a3.965,3.965,0,0,1-.521-.013.725.725,0,0,1-.679-.733.718.718,0,0,1,.568-.774,2.176,2.176,0,0,1,.567-.044q8.762,0,17.523,0a1.5,1.5,0,0,1,.617.06.739.739,0,0,1,.5.822.723.723,0,0,1-.634.664,2.929,2.929,0,0,1-.52.018h-8.761" transform="translate(-732.593 -175.063)" fill="#030202"/>
    </g>
  </g>
</svg>
