<svg xmlns="http://www.w3.org/2000/svg" xmlns:xlink="http://www.w3.org/1999/xlink" width="339.66" height="213.409" viewBox="0 0 339.66 213.409">
  <defs>
    <clipPath id="clip-path">
      <rect id="Rectángulo_309927" data-name="Rectángulo 309927" width="339.66" height="213.409" fill="#f46464"/>
    </clipPath>
    <clipPath id="clip-path-2">
      <rect id="Rectángulo_309926" data-name="Rectángulo 309926" width="161.372" height="198.72" fill="none"/>
    </clipPath>
    <clipPath id="clip-path-4">
      <rect id="Rectángulo_309924" data-name="Rectángulo 309924" width="157.963" height="110.576" fill="none"/>
    </clipPath>
  </defs>
  <g id="Grupo_995715" data-name="Grupo 995715" transform="translate(-810 -7206)">
    <g id="Grupo_995712" data-name="Grupo 995712" transform="translate(810 7206)">
      <g id="Grupo_995711" data-name="Grupo 995711" clip-path="url(#clip-path)">
        <path id="Trazado_655038" data-name="Trazado 655038" d="M339.65,109.12c.2-2.492-2.627-4.176-4.445-5.321s-6.129-2.357-9.3-2.9-5.523-1.819-7.274-1.347-17.58,8.554-18.927,8.621c-.9.045-17.38-.846-31.106-2.673a164.623,164.623,0,0,0-6.434-18.1c-.179-.359,4.85-11.5,8.083-11.765s11.854.629,16.165,0,4.531-7.922,4.041-5.3,1.078-4.041,1.168-4.76-.629-2.065-1.257-3.233-1.931-.27-1.976-2.874,2.35-4.58,3.241-6.017,4.573-1.257,4.3-2.245-.808-2.335-.359-2.6,3.413,0,3.862-1.706-3.143-6.915-3.862-8.083-1.437-1.078-1.527-2.515,1.078-12.393,1.078-12.393,7.162.091,4.58-6.736a10.209,10.209,0,0,0-2.48-3.8.814.814,0,0,0-1.374.361l-.008.03-.269.988s-.628-2.964-4.939-5.388S275.37,3.44,273.844,3.08c-.806-.19-.11-.354.727-.467a.415.415,0,0,0,.1-.8C273,1.19,270.3.4,268.276.925a18.9,18.9,0,0,0-4.221,1.437l.719-2.245a1.732,1.732,0,0,0-2.066.639,17.621,17.621,0,0,0-1.167,2.236,27.571,27.571,0,0,1-5.658-.719c-2.066-.628-5.052,1.079-6.2,2.425a37.768,37.768,0,0,0-4.94,9.7,37.386,37.386,0,0,0-1.707,10.957c0,4.131-3.772,19.039-3.772,19.039l-3.682,9.07a23.931,23.931,0,0,0-15.662,1.42c-18.418,5.609-28.356,25.875-31.127,37.376-1.521,6.311-3.62,21.6-5.537,37.137l-1.153-.558-35.585,6.31a101.85,101.85,0,0,0,5.534,18.639L0,161.114v52.295H164.277c2.069,0,111.341-37.929,113.049-38.522a.085.085,0,0,1,.022-.005c.018.027.5.535-1.438-30q-.195-3.064-.511-6.061a250.358,250.358,0,0,0,24.69-5.4s1.978-.393,4.672,1.628,3.3,1.819,5.995,1.953,17.378.539,17.714.539,4.378-1.01,4.58-3.3-2.492-4.513-2.492-4.513,4.513.4,5.119-2.762a5.72,5.72,0,0,0-.943-4.85s3.772-1.482,3.7-4.243a7.4,7.4,0,0,0-2.155-4.715s3.166-1.549,3.368-4.041m-62.3,65.762h0" transform="translate(0 0)" fill="#f46464"/>
      </g>
    </g>
    <g id="Grupo_995717" data-name="Grupo 995717">
      <g id="Grupo_995710" data-name="Grupo 995710" transform="translate(927.149 7206)">
        <g id="Grupo_995709" data-name="Grupo 995709" clip-path="url(#clip-path-2)">
          <g id="Grupo_995708" data-name="Grupo 995708">
            <g id="Grupo_995707" data-name="Grupo 995707" clip-path="url(#clip-path-2)">
              <path id="Trazado_654983" data-name="Trazado 654983" d="M57.5,94.516,52.11,105.021,36.057,109l-12.917-3.127L19.869,93.519c2.275-4.115,20.313-24.71,20.313-24.71l9.143,13.573Z" transform="translate(-4.702 -16.284)" fill="#d39665"/>
              <path id="Trazado_654984" data-name="Trazado 654984" d="M63.525,97.421l-5.394,10.506c-17.969-8.733-11.86-26.2-11.647-26.839l.852.639,8.01,3.561Z" transform="translate(-10.724 -19.19)" fill="#bf7f4b"/>
              <path id="Trazado_654985" data-name="Trazado 654985" d="M172.755,241.7c.4,2-12.832,1.885-21.8,1.443-3.779-.183-6.809-.427-7.733-.6-1.237-.221-.336-3.481,1.2-7.328.321-.786.656-1.6,1.015-2.412.672-1.542,1.4-3.107,2.084-4.534.71-1.5,1.389-2.863,1.924-3.924.7-1.382,1.16-2.252,1.16-2.252l8.756.374,4.6.2-3.092,4.427-3.443,4.947s14.771,6.809,15.336,9.656" transform="translate(-33.756 -52.56)" fill="#12263f"/>
              <path id="Trazado_654986" data-name="Trazado 654986" d="M155.457,250.114s-2.267,1.985-11.641,1.13c-8.252-.756-21.129-5.023-25.061-8.359a3.813,3.813,0,0,1-1.076-1.3c-.908-2.191,2.985-9.313,5.893-14.114,1.611-2.672,2.908-4.626,2.908-4.626l5.282,1.962,8.206,3.038,1.611.6,2.519.931-2.351,3.992-1.305,2.221-2.031,3.435,6.6,4.29Z" transform="translate(-27.817 -52.737)" fill="#12263f"/>
              <path id="Trazado_654987" data-name="Trazado 654987" d="M145.964,229.379l-3.655,6.211a72.158,72.158,0,0,1-16.794-3.8l-.076-4.32c1.611-2.667,2.914-4.627,2.914-4.627Z" transform="translate(-29.685 -52.736)" fill="#5840e2"/>
              <path id="Trazado_654988" data-name="Trazado 654988" d="M90.717,150.314a119.3,119.3,0,0,1-8.832,18.641c-5.145,8.809-12.45,18.534-21.671,23.816a29.685,29.685,0,0,1-9.542,3.557c-.588.107-1.176.206-1.748.3a103.255,103.255,0,0,1-24.755,1.328c-7.893-.618-11.84-2.2-11.84-2.2s-1.031-2.092-2.489-5.71A144.283,144.283,0,0,1,2,163.642c-.435-2.26-.817-4.588-1.122-6.962-2.4-18.328-.588-39.58,14.29-55.5,0,0,19.6,16.191,27.557,11.931,1.023-.55,1.908-1.046,2.672-1.5a22.962,22.962,0,0,0,3.992-2.786c.916-.863.786-1.176.786-1.176a55.462,55.462,0,0,1,7.435,2.985c.374.176.748.359,1.137.55.321.153.649.321.977.489.183.092.366.191.557.29,1.672.87,3.427,1.87,5.176,3.008.3.191.6.389.885.588.336.221.672.458,1,.7.267.183.542.382.809.58.336.244.664.5.992.748.3.229.6.466.893.718.13.1.252.206.374.313.16.13.328.267.489.412.183.153.359.313.534.473s.351.313.527.473a34.344,34.344,0,0,1,4.168,4.572c.122.16.252.328.374.5.2.275.389.557.58.84.382.573.756,1.145,1.122,1.71.794,1.221,1.557,2.435,2.282,3.618.137.221.267.435.4.649a.456.456,0,0,1,.069.115c.321.519.626,1.031.924,1.534q.481.813.939,1.6c1.779,3.053,3.282,5.847,4.489,8.183.122.237.244.466.359.695.176.343.344.672.5.992.267.534.519,1.031.74,1.489s.435.885.618,1.275c.786,1.626,1.191,2.565,1.191,2.565" transform="translate(0 -23.944)" fill="#1cf290"/>
              <path id="Trazado_654989" data-name="Trazado 654989" d="M105.983,150.679a22.145,22.145,0,0,1-5.84,6.282c-1.328.954-2.992,1.794-4.542,1.412a3.087,3.087,0,0,1-.427-.137,5,5,0,0,1-2.092-1.878c-.107-.145-.206-.29-.305-.435-1.076-1.557-2.122-3.145-3.122-4.756q-.664-1.065-1.305-2.153c-.214-.366-.427-.733-.641-1.107-.168-.29-.336-.58-.5-.87a.664.664,0,0,1-.076-.145q-.172-.286-.321-.573-1-1.786-1.924-3.611a1.327,1.327,0,0,0-.076-.145,7.953,7.953,0,0,1-.847-2.359,3.577,3.577,0,0,1-.046-.809c.069-1,.588-1.931.656-2.939a4.895,4.895,0,0,0-2.29-4.015c-1.305-.947-2.84-1.519-4.221-2.343-3.191-1.908-5.374-5.015-7.267-8.252-.435-.733-.847-1.466-1.26-2.2l.427-.206.84-.4q1.637-2.737,3.259-5.481c.374.176.748.359,1.137.55.321.153.649.321.977.489.183.092.366.191.557.29,1.672.87,3.427,1.87,5.175,3.008.3.191.6.389.885.588.336.221.672.458,1,.7.267.183.542.374.809.58.336.244.664.5.992.748.3.229.6.466.893.718.13.1.252.206.374.313.16.13.328.267.489.412.183.153.359.313.534.473s.351.313.527.473a34.343,34.343,0,0,1,4.168,4.572c.122.16.252.328.374.5.2.275.389.557.58.84.382.573.756,1.145,1.122,1.71.794,1.221,1.557,2.435,2.282,3.618.137.221.267.435.4.649a.457.457,0,0,1,.069.115c.321.519.626,1.031.924,1.534q.481.813.939,1.6c1.779,3.053,3.282,5.847,4.488,8.183.122.237.244.466.359.695.176.343.344.672.5.992.267.534.511,1.031.74,1.489s.435.885.618,1.275" transform="translate(-16.457 -26.873)" fill="#07d074"/>
              <path id="Trazado_654990" data-name="Trazado 654990" d="M193.977,169.623c-4.756,12.183-14.725,23.572-17.534,26.191-4.259,3.977-11.359,12.5-11.359,12.5l-2.809-.679-3.969-.954-7.45-1.794-2.244-.542L172.748,141a22.112,22.112,0,0,1,5.779-1.114,18.808,18.808,0,0,1,6.366.626c4.076,1.176,8.191,4.13,10.58,10.717,2.03,5.611.962,12.114-1.5,18.4" transform="translate(-35.169 -33.093)" fill="#5840e2"/>
              <path id="Trazado_654991" data-name="Trazado 654991" d="M133.138,196.811c-.015.031-.031.053-.046.084-.618,1.053-1.5,2.343-2.466,3.672-2.679,3.664-6.008,7.6-6.008,7.6l-3.2-.55-2.252-.389-.885-.153-10.13-1.748h-.008a10.941,10.941,0,0,1-.649,2.053,19.864,19.864,0,0,1-9.069,9.748c-4.954,2.748-12.4,4.656-23.511,3.817-15.03-1.13-25.389-4.679-32.557-9.328a34.762,34.762,0,0,1-10.7-10.626.007.007,0,0,1-.008-.008c5.122.328,13.862.092,21.122-4.679a.3.3,0,0,0,.084-.046c.122-.061.244-.122.366-.191a20.137,20.137,0,0,0,2.412-1.489c.336-.237.656-.489.969-.748a15.554,15.554,0,0,0,5-7.3A17.275,17.275,0,0,0,62.3,179.6q.687-1.637,1.511-3.511v-.008a208.652,208.652,0,0,1,13.053-25.1c.466-.756.947-1.519,1.427-2.275.153-.237.3-.466.45-.695.115-.176.229-.351.344-.534a1.114,1.114,0,0,0,.069-.1c2.328-3.565,4.847-7.092,7.542-10.435.053-.076.122-.16.183-.237a.007.007,0,0,1,.008-.008c.5-.611.985-1.206,1.489-1.8.634-.748,1.275-1.481,1.916-2.206,11.229-12.5,25.076-21.275,40.862-17.977,12.2,2.55,17.878,9.817,19.694,19.053,4.672,23.656-16.076,60.175-17.71,63.037" transform="translate(-7.49 -26.983)" fill="#7b65fd"/>
              <path id="Trazado_654992" data-name="Trazado 654992" d="M89.406,150.287v.038a96.757,96.757,0,0,1-2.771,16.74C83.856,178.233,78.376,192.9,67.7,204.393a56.764,56.764,0,0,1-11.519,9.565,55.144,55.144,0,0,1-11.939,5.626c-.641.214-1.267.42-1.885.618a34.762,34.762,0,0,1-10.7-10.626.007.007,0,0,1-.008-.008c5.122.328,13.862.092,21.122-4.679a.3.3,0,0,0,.084-.046c.122-.061.244-.122.366-.191a20.139,20.139,0,0,0,2.412-1.489c.336-.237.656-.489.969-.748a15.554,15.554,0,0,0,5-7.3,17.275,17.275,0,0,0,.695-6.931q.687-1.637,1.511-3.519a208.652,208.652,0,0,1,13.053-25.1l2.1-1.557.42-.305,1.206-.893Z" transform="translate(-7.49 -35.566)" fill="#5840e2"/>
              <path id="Trazado_654993" data-name="Trazado 654993" d="M131.868,217.45s16.112-28.526,18.788-52.213c-1.176,12.7-4.064,38.87-8.656,53.96Z" transform="translate(-31.207 -39.104)" fill="#5840e2"/>
              <path id="Trazado_654994" data-name="Trazado 654994" d="M104.589,143.893a24.427,24.427,0,0,1-.9,3.588c-.282.84-.6,1.672-.947,2.489a50.754,50.754,0,0,1-3.305,6.282c-.679,1.122-1.374,2.221-2.069,3.321l-2.4-2.557-1.725-1.847-.672-.718L92,153.84c0-.221.008-.435.023-.656.008-.183.023-.359.046-.542.015-.153.031-.313.061-.473a11.653,11.653,0,0,1,1.9-4.847,2.582,2.582,0,0,1,1.893-1.343,1.2,1.2,0,0,1,1.1.969q.641-1.878,1.458-3.687c.4-.908,1.038-1.931,2.031-1.954.16.458.313.916.466,1.382l.069.206a4.18,4.18,0,0,1,.115-.443.007.007,0,0,1,.008-.008,9.046,9.046,0,0,1,1.092-2.45,9.178,9.178,0,0,1,.794-1.084c.382-.443,1.046-.87,1.5-.5l.023.023a1.186,1.186,0,0,1,.275.824,19.227,19.227,0,0,1-.26,4.634" transform="translate(-21.772 -32.722)" fill="#bf7f4b"/>
              <path id="Trazado_654995" data-name="Trazado 654995" d="M61.865,184.175l-3.877.92c1.081-.6-1.91,8.843-10.769,13.888-13.36-.017-34.729-7.276-39.927-32.207C4.233,152.095,6.141,141.4,8.85,134.347a3.722,3.722,0,0,0,2.1-2.19c1.082-2.692,3.758-4.089,5.922-5.819l16.2,39.16,28.33,15.55a21.749,21.749,0,0,1,.469,3.127" transform="translate(-1.355 -29.898)" fill="#07d074"/>
              <path id="Trazado_654996" data-name="Trazado 654996" d="M21.554,118.517C10.61,122.5,2.809,140.1,15.589,165.664s34.081,24.425,45.726,20.449,19.029-34.365,19.029-34.365l-7.383-3.692-19.6,11.36s-16.188-46.578-31.809-40.9" transform="translate(-2.123 -27.934)" fill="#4affac"/>
              <path id="Trazado_654997" data-name="Trazado 654997" d="M40.22,66.469S36.812,78.4,56.977,86.918s29.537-23.006,30.39-28.686,3.976-13.917-12.5-21.869S40.788,28.127,35.108,48.292s9.656,27.265,9.656,27.265Z" transform="translate(-8.01 -7.411)" fill="#d39665"/>
              <path id="Trazado_654998" data-name="Trazado 654998" d="M94.787,68.007c-2.812,2.237-6.47,3.86-8.785,6.649-2.143,2.582-2.567,6.084-3.785,9.117-.815,2.031-2,4.537-3.976,5.709-.714.422-2.3.3-2.8.691-.327.257-.861,1.889-1.283,2.418a11.4,11.4,0,0,1-6.375,3.862c17.5,4.471,26.076-21.884,27.47-28.839-.156.131-.306.263-.469.394" transform="translate(-16.042 -16.001)" fill="#bf7f4b"/>
              <path id="Trazado_654999" data-name="Trazado 654999" d="M87.3,32.057s10.65,9.514,11.645,16.473-6.391,9.514-7.811,9.514-6.391.71-6.817-1.136,4.4-2.84,4.4-2.84-9.088,4.26-14.485,2.84-6.106-4.544-6.106-4.544L79.777,50.8s-12.5,3.834-19.313.853-9.23-4.545-10.509-8.237S47.825,27.228,57.2,24.956s19.739-3.834,30.106,7.1" transform="translate(-11.639 -5.519)" fill="#684837"/>
              <path id="Trazado_655000" data-name="Trazado 655000" d="M44.369,22.632s-18.745-5.964-2.7-18.6,28.26,7.384,18.035,19.739Z" transform="translate(-8.325 0)" fill="#684837"/>
              <path id="Trazado_655001" data-name="Trazado 655001" d="M55.7,40.478a29.786,29.786,0,0,0-.409,5.837,3.007,3.007,0,0,1-.187,1.406c-.162.307-.477.494-.682.775l-1.236,5.564a7.411,7.411,0,0,1-5.053,2.88c-3.323.35-2.412-3.014-2.412-3.014l-5.213,7.351-5.521,4.95a3.735,3.735,0,0,1-.826-.068c-2.42-.4-4.243-2.786-5.249-5.121a21.78,21.78,0,0,1,2.735-21.4c1.108-1.431,2.394-2.727,3.51-4.141.247-.3.486-.613.708-.928,1.108-1.585,1.968-3.392,3.442-4.627a12.378,12.378,0,0,1,2.872-1.662q3.055-1.406,6.211-2.59c1.321-.5,2.88-.963,4.1-.238a4.931,4.931,0,0,1,1.73,2.385c1.073,2.377,2.156,4.831,2.2,7.438a27.66,27.66,0,0,1-.716,5.2" transform="translate(-6.453 -5.936)" fill="#684837"/>
              <path id="Trazado_655002" data-name="Trazado 655002" d="M51.443,54.309a26.072,26.072,0,0,0,5.147,4.3,8.782,8.782,0,0,0,6.455,1.171,9.8,9.8,0,0,0,2.986-1.447A20,20,0,0,0,74.389,39Z" transform="translate(-12.174 -9.229)" fill="#684837"/>
              <path id="Trazado_655003" data-name="Trazado 655003" d="M89.659,80.25c-.568,1.349-.142,5.325,2.272,6.177s3.053-3.337,3.053-3.337Z" transform="translate(-21.165 -18.991)" fill="#58afa3"/>
              <path id="Trazado_655004" data-name="Trazado 655004" d="M78.835,74.873a5.564,5.564,0,0,1-2.045.716,7.193,7.193,0,0,1-4.141-.656.908.908,0,0,1-.136-.06c-3.689-1.781-5.692-6.271-5.394-6.254a18.3,18.3,0,0,1,7.32,2.011,11.821,11.821,0,0,1,3.4,2.718,6.536,6.536,0,0,1,1,1.525" transform="translate(-15.877 -16.239)" fill="#d0d0d0"/>
              <path id="Trazado_655005" data-name="Trazado 655005" d="M95.344,81.739a4,4,0,0,1-.119.878,2.566,2.566,0,0,1-.708.357,2.786,2.786,0,0,1-1.9-.025,5.4,5.4,0,0,1-2.283-1.781l-.145-1.142.3-.111A22.794,22.794,0,0,0,93.759,80c.946.085,1.653.451,1.585,1.738" transform="translate(-21.343 -18.912)" fill="#d0d0d0"/>
              <path id="Trazado_655006" data-name="Trazado 655006" d="M90.051,81.692s-.257,3.533,2.379,4.517" transform="translate(-21.309 -19.333)" fill="none" stroke="#58afa3" stroke-linecap="round" stroke-linejoin="round" stroke-width="0.5"/>
              <path id="Trazado_655007" data-name="Trazado 655007" d="M90.007,80.994a4.483,4.483,0,0,0,2.769,2.521c1.882.391,2.2-.462,2.2-.462" transform="translate(-21.3 -19.167)" fill="none" stroke="#52336f" stroke-linecap="round" stroke-linejoin="round" stroke-width="1"/>
              <path id="Trazado_655008" data-name="Trazado 655008" d="M87.2,87.394l-1.278-1.562-2.867,4.287s-2.283-1.031-2.734-1.295c-.178.512-.453,2.256,3.258,3.753,4.4,1.776,3.621-5.183,3.621-5.183" transform="translate(-18.986 -20.312)" fill="#bf7f4b"/>
              <path id="Trazado_655009" data-name="Trazado 655009" d="M73.352,84.219a29.394,29.394,0,0,1,3.275-3.309l.187-.225c-1.5.705-3.212.875-4.73,1.55a7.716,7.716,0,0,0-3.657,3.42,2.844,2.844,0,0,0-.409,1.758,1.292,1.292,0,0,0,1.24,1.127" transform="translate(-16.091 -19.094)" fill="#d0d0d0"/>
              <path id="Trazado_655010" data-name="Trazado 655010" d="M72.938,92.209a2.971,2.971,0,0,0,.466,2.876,5.2,5.2,0,0,0,2.5,1.674,4.863,4.863,0,0,0,3.45.064c.4-.167.8-.478.814-.908.017-.45-.392-.79-.779-1.019-1.927-1.143-4.26-1.421-6.228-2.492Z" transform="translate(-17.215 -21.821)" fill="#623a6b"/>
              <path id="Trazado_655011" data-name="Trazado 655011" d="M77.316,71.539a6.4,6.4,0,0,0,1.146,1.523,2.16,2.16,0,0,0,1.752.591,3.081,3.081,0,0,0,.991-.427,1.8,1.8,0,0,0,.617-.5,1.86,1.86,0,0,0,.008-1.559,9.623,9.623,0,0,0-1.511-3.4,6.559,6.559,0,0,0-2.82-1.913,22.732,22.732,0,0,0-3.334-.869,10.947,10.947,0,0,1-1.3-.339c-.863-.3-1.644-.8-2.5-1.133a3.362,3.362,0,0,0-2.662-.085,2.133,2.133,0,0,0-1.182,1.827,1.977,1.977,0,0,0,1.16,1.818,4.715,4.715,0,0,0,1.342.248c3.032.339,5.647,2.2,8.111,4a5.314,5.314,0,0,1,1.812,1.851Z" transform="translate(-15.742 -14.953)" fill="#623a6b"/>
              <path id="Trazado_655012" data-name="Trazado 655012" d="M73.242,92.382a58.789,58.789,0,0,0,6.843,3.48A1.553,1.553,0,0,0,80,94.606a3.352,3.352,0,0,0-.812-1,6.885,6.885,0,0,0-2.972-1.611,5.257,5.257,0,0,0-3.344.271Z" transform="translate(-17.246 -21.734)" fill="#322237"/>
              <path id="Trazado_655013" data-name="Trazado 655013" d="M93.4,73.673a4.262,4.262,0,0,1,2.16-1.033,2.692,2.692,0,0,1,2.24.689,1.981,1.981,0,0,1,.416,2.231,1.066,1.066,0,0,1-.408.455,1.4,1.4,0,0,1-.45.135,8.418,8.418,0,0,1-3.6-.165,1.648,1.648,0,0,1-.874-.463,1.215,1.215,0,0,1,.038-1.423,3.114,3.114,0,0,1,1.2-.917Z" transform="translate(-21.929 -17.184)" fill="#322237"/>
              <path id="Trazado_655014" data-name="Trazado 655014" d="M83.135,70.555a8.14,8.14,0,0,0-.9-2.915,7.931,7.931,0,0,0-2.073-2.025,19.5,19.5,0,0,0-6.522-3.665,2.162,2.162,0,0,0-2.153.292.85.85,0,0,0-.244.595c.018.413.4.7.753.924l6.889,4.427c.64.411,1.281.823,1.956,1.175a9.559,9.559,0,0,1,2.207,1.31Z" transform="translate(-16.859 -14.626)" fill="#322237"/>
              <path id="Trazado_655015" data-name="Trazado 655015" d="M79.419,73.971v.051a2.8,2.8,0,0,1-1.048,2.19,7.192,7.192,0,0,1-4.141-.656,2.779,2.779,0,0,1-.46-1.534,2.834,2.834,0,0,1,2.249-2.769,11.815,11.815,0,0,1,3.4,2.718" transform="translate(-17.458 -16.862)" fill="#322237"/>
              <path id="Trazado_655016" data-name="Trazado 655016" d="M96.072,81.765a2.451,2.451,0,0,1-.2.434,3.541,3.541,0,0,1-.622.8,2.786,2.786,0,0,1-1.9-.025,2.6,2.6,0,0,1,.366-2.019,3.4,3.4,0,0,1,.776-.929c.946.085,1.653.451,1.585,1.738" transform="translate(-22.071 -18.939)" fill="#322237"/>
              <path id="Trazado_655017" data-name="Trazado 655017" d="M74.536,78.772a8.518,8.518,0,0,0,5.142-.55,11.5,11.5,0,0,0,2.21-1.057,3.632,3.632,0,0,0,1.536-1.653c.165-.464-.573-.663-.737-.2a3.316,3.316,0,0,1-1.543,1.415,12.6,12.6,0,0,1-1.955.869,7.581,7.581,0,0,1-4.45.444.382.382,0,0,0-.2.736" transform="translate(-17.575 -17.76)" fill="#be7e4b"/>
              <path id="Trazado_655018" data-name="Trazado 655018" d="M67.008,68.391s8.095-.053,11.982,6.6" transform="translate(-15.858 -16.185)" fill="none" stroke="#623a6b" stroke-linecap="round" stroke-linejoin="round" stroke-width="1"/>
              <path id="Trazado_655019" data-name="Trazado 655019" d="M90.312,79.837a1.722,1.722,0,0,0,.2.06,22.793,22.793,0,0,0,3.272.085c.946.085,1.653.451,1.585,1.738a4,4,0,0,1-.119.878c-.017.076-.034.17-.06.255" transform="translate(-21.372 -18.894)" fill="none" stroke="#4e9b90" stroke-linecap="round" stroke-linejoin="round" stroke-width="1"/>
              <path id="Trazado_655020" data-name="Trazado 655020" d="M53.809,54.851C51.835,57.826,47.477,64.4,46,66.73a7.176,7.176,0,0,1-4.035-5.575c-.5-3.93,4.247-14,11.84-6.3" transform="translate(-9.924 -12.313)" fill="#bf7f4b"/>
              <path id="Trazado_655021" data-name="Trazado 655021" d="M89.113,74.855s-4.757,13.065-6.674,12.5a10.883,10.883,0,0,1-3.408-1.989" transform="translate(-18.703 -17.715)" fill="none" stroke="#bf7f4b" stroke-linecap="round" stroke-linejoin="round" stroke-width="1"/>
              <path id="Trazado_655022" data-name="Trazado 655022" d="M102.274,54.121a13.04,13.04,0,0,1-.337,8.175A9.149,9.149,0,0,1,96.8,67.051a23.082,23.082,0,0,1-7.027,1.371c-3.347.257-7.007.26-9.682-1.768a10.994,10.994,0,0,0,8.784-6.313,18.376,18.376,0,0,1-24.847-.706,1.445,1.445,0,0,1-.439-2.258A24.9,24.9,0,0,1,85.111,46.991Z" transform="translate(-14.964 -11.11)" fill="#684837"/>
              <path id="Trazado_655023" data-name="Trazado 655023" d="M85.528,140.52a7.3,7.3,0,0,1-4.863,6.663c-2.345.779-4.988.307-7.288,1.208-2.324.911-3.892,3.042-5.662,4.8s-4.27,3.288-6.645,2.523c0,0,5.545,4.619,13.64-2.2s10.224-4.047,10.224-4.047Z" transform="translate(-14.452 -33.254)" fill="#07d074"/>
              <path id="Trazado_655024" data-name="Trazado 655024" d="M45.847,157.248a28.311,28.311,0,0,0,4.492,7.809,11.327,11.327,0,0,0,8.1,3.769,17.223,17.223,0,0,0,9.331-2.658,35.447,35.447,0,0,0,4.12-2.9,32.607,32.607,0,0,0,2.872-2.726,13.142,13.142,0,0,1,3.46-2.794,4.756,4.756,0,0,1,2.045-.505,6.319,6.319,0,0,1,2.969,1.005c.433.233.819-.426.385-.659a6.325,6.325,0,0,0-4.377-1,7.626,7.626,0,0,0-3.257,1.741c-1.025.852-1.921,1.844-2.857,2.789a27.141,27.141,0,0,1-3.407,2.848,20.1,20.1,0,0,1-9.019,3.992,11,11,0,0,1-8.969-2.579c-2.488-2.282-3.9-5.482-5.227-8.52-.2-.449-.853-.061-.659.385" transform="translate(-10.841 -37.035)" fill="#07d074"/>
              <path id="Trazado_655025" data-name="Trazado 655025" d="M53.45,170.624q-2.133,4.9-4.265,9.8c-.193.446.464.835.66.385q2.132-4.9,4.263-9.8c.195-.446-.464-.835-.659-.385" transform="translate(-11.631 -40.331)" fill="#07d074"/>
              <path id="Trazado_655026" data-name="Trazado 655026" d="M56.114,171.106v10.437a.382.382,0,0,0,.763,0V171.106a.382.382,0,0,0-.763,0" transform="translate(-13.279 -40.405)" fill="#07d074"/>
              <path id="Trazado_655027" data-name="Trazado 655027" d="M154.362,175.5a90.631,90.631,0,0,0,1.839-15.837.382.382,0,0,0-.763,0,89.415,89.415,0,0,1-1.811,15.634c-.1.479.637.685.736.2" transform="translate(-36.354 -37.698)" fill="#5840e2"/>
              <path id="Trazado_655028" data-name="Trazado 655028" d="M154.857,170.322q-.755-4.258-1.508-8.517c-.085-.482-.821-.278-.736.2q.753,4.258,1.508,8.517c.085.482.821.278.736-.2" transform="translate(-36.114 -38.226)" fill="#5840e2"/>
              <path id="Trazado_655029" data-name="Trazado 655029" d="M68.532,116.691a7.8,7.8,0,0,0,1.9,5.127c.322.373.86-.169.54-.54a6.981,6.981,0,0,1-1.677-4.587.382.382,0,0,0-.763,0" transform="translate(-16.218 -27.528)" fill="#07d074"/>
              <path id="Trazado_655030" data-name="Trazado 655030" d="M16.825,108.54l4.7,3.822a.394.394,0,0,0,.54,0,.385.385,0,0,0,0-.54L17.364,108a.393.393,0,0,0-.54,0,.384.384,0,0,0,0,.54" transform="translate(-3.955 -25.533)" fill="#07d074"/>
              <path id="Trazado_655031" data-name="Trazado 655031" d="M34.852,119.575a21.689,21.689,0,0,0,9.382,2.542,36.086,36.086,0,0,0,9.658-.342,12.713,12.713,0,0,0,4.892-2.031c.4-.282.016-.944-.385-.659-2.524,1.8-5.64,2.27-8.669,2.369a38.806,38.806,0,0,1-9.449-.646,17.388,17.388,0,0,1-5.043-1.893.382.382,0,0,0-.385.659" transform="translate(-8.204 -28.129)" fill="#07d074"/>
              <path id="Trazado_655032" data-name="Trazado 655032" d="M23.93,118.183a22.7,22.7,0,0,0-2.914,13.164c.042.485.805.49.763,0a21.981,21.981,0,0,1,2.81-12.778.382.382,0,0,0-.659-.385" transform="translate(-4.954 -27.924)" fill="#07d074"/>
              <path id="Trazado_655033" data-name="Trazado 655033" d="M14.834,137.609a26.081,26.081,0,0,1,16.793,7.5,25.009,25.009,0,0,1,3.342,4.095c.268.411.929.028.66-.385a26.869,26.869,0,0,0-15.378-11.112,26.02,26.02,0,0,0-5.417-.863c-.491-.025-.489.738,0,.763" transform="translate(-3.424 -32.385)" fill="#07d074"/>
              <path id="Trazado_655034" data-name="Trazado 655034" d="M57.88,217.057a53.66,53.66,0,0,0,19.049,3.056,39.969,39.969,0,0,0,16.7-4.153,34.383,34.383,0,0,0,6.879-4.574,35.25,35.25,0,0,0,5.879-6.656c1.908-2.732,3.666-5.573,5.474-8.371l5.639-8.724,11.33-17.527,1.4-2.161c.268-.414-.393-.8-.659-.385l-11.123,17.207c-3.669,5.677-7.321,11.365-11.01,17.03a45.453,45.453,0,0,1-5.622,7.331,32.246,32.246,0,0,1-6.487,5.031,38.018,38.018,0,0,1-16.093,5.053,50.711,50.711,0,0,1-18.861-2.156q-1.15-.346-2.286-.736c-.466-.16-.666.578-.2.736" transform="translate(-13.635 -39.612)" fill="#5840e2"/>
              <path id="Trazado_655035" data-name="Trazado 655035" d="M76.411,30.076a8.22,8.22,0,0,0-4.041-.668,20,20,0,0,0-11.283,4.074,27.516,27.516,0,0,1,9.406.756c-1.785,1.074-4.438.456-5.8,2.035a52.864,52.864,0,0,1,9.52,1.293c.347.08.776.266.756.621-.018.321-.393.478-.7.56L67.375,40.57c4.676,2.644,10.446,2.018,15.7,3.143a49.184,49.184,0,0,0-6.2,1.967.9.9,0,0,0-.482.329c-.269.466.38.916.9,1.051a21.813,21.813,0,0,0,10.649.073A8.3,8.3,0,0,1,84.183,50.2a43.471,43.471,0,0,0,9.142.177.88.88,0,0,1,.6.089.708.708,0,0,1,.242.447c.3,1.454-1.071,2.662-2.29,3.511a6.446,6.446,0,0,0,4.65-6.711,3.5,3.5,0,0,0-1.65-2.825,9.262,9.262,0,0,1-2.654,1.311c-.428-.548.734-1.314.392-1.919a.93.93,0,0,0-.695-.35l-3.6-.641,1.253-2.245a35.582,35.582,0,0,1-8.431-.753,4.477,4.477,0,0,1-2.586-1.219,10.455,10.455,0,0,0,3.028-1.495l-7.348-2.109c-.748-.215-1.687-.763-1.433-1.5.272-.79,1.624-.662,1.963-1.426-.188-.742-1.763-.5-1.718-1.265.021-.371.463-.541.827-.616a24.357,24.357,0,0,1,3.332-.444Z" transform="translate(-14.456 -6.956)" fill="#563c35"/>
              <path id="Trazado_655036" data-name="Trazado 655036" d="M59.435,5.059A6.237,6.237,0,0,0,54.994,3.8a16.646,16.646,0,0,0-4.782.84c-1.7.565-3.478,1.6-3.928,3.34l6.295-1.012a8.1,8.1,0,0,0-4.825,2.647,4.619,4.619,0,0,0-.492,5.236.668.668,0,0,0,.223.236c.293.159.624-.124.838-.38L51.9,10.415a19.4,19.4,0,0,1,3.41-3.453A6.545,6.545,0,0,1,59.867,5.6Z" transform="translate(-10.953 -0.898)" fill="#563c35"/>
            </g>
          </g>
        </g>
      </g>
      <g id="Grupo_995716" data-name="Grupo 995716" transform="translate(928.109 7294.025)" opacity="0.25" style="mix-blend-mode: multiply;isolation: isolate">
        <g id="Grupo_995705" data-name="Grupo 995705">
          <g id="Grupo_995704" data-name="Grupo 995704" clip-path="url(#clip-path-4)">
            <path id="Trazado_655037" data-name="Trazado 655037" d="M143.564,133.633l.134,15.042s-6.947-12.643-12.418-22.365c-4.265-7.573-13.078-11-16.763-12.142-11.926.991-22.531,8.519-31.481,18.4l-.023-.023c-.45-.371-1.114.053-1.5.492a9.1,9.1,0,0,0-.794,1.074c-.725-1.173-1.488-2.376-2.281-3.586-.366-.56-.74-1.127-1.122-1.695-.191-.28-.381-.56-.58-.832-.122-.174-.252-.34-.374-.5a34.144,34.144,0,0,0-4.166-4.532c-.175-.159-.351-.318-.526-.469s-.351-.318-.534-.469c-.16-.144-.328-.28-.488-.409-.122-.106-.244-.212-.374-.31-.3-.25-.6-.484-.893-.711-.328-.25-.656-.5-.992-.741-.267-.2-.542-.393-.809-.575-.328-.242-.664-.477-1-.7-.29-.2-.588-.393-.885-.583-1.747-1.127-3.5-2.118-5.173-2.981-.87,3.026-3.258,5.281-5.936,6.9a30.869,30.869,0,0,1-9.469,3.609,66.279,66.279,0,0,1-9.728.726,54.124,54.124,0,0,0-7.264.567,29.2,29.2,0,0,0-9.522,3.336,27.6,27.6,0,0,0-3.136,2.02,28.746,28.746,0,0,0-6.012,5.939,32.521,32.521,0,0,0-2.3,3.556v.008a40.208,40.208,0,0,0-2.48,5.394,88.8,88.8,0,0,0-3.235,11.03c-.1.409-.2.825-.3,1.241.305,2.353.687,4.66,1.122,6.9a142.094,142.094,0,0,0,7.836,26.169c1.457,3.586,2.487,5.659,2.487,5.659s3.945,1.566,11.834,2.179a34.6,34.6,0,0,0,10.7,10.531c7.165,4.607,17.518,8.125,32.542,9.245,11.109.832,18.548-1.059,23.5-3.783,3.929,3.306,16.8,7.535,25.049,8.284,9.37.847,11.636-1.12,11.636-1.12l-10.438-6.733c8.965.439,22.2.552,21.791-1.43-.565-2.822-15.329-9.57-15.329-9.57l3.441-4.9,2.808.673s7.1-8.443,11.353-12.385c2.808-2.595,12.773-13.882,17.526-25.957-.023-.409-.053-.809-.092-1.21,1.61-20.4-7.035-25.934-8.988-27.644M49.35,186.606c-13.635-1.074-22.455-3.533-29.772-14.5.45.333,15.588,11.507,29.772,10.206,13.955-1.286,19.937-8.246,20.3-8.677-.29.605-6.966,14.019-20.3,12.967m94.215-52.973c.989,4.131.813,9.352.134,15.042" transform="translate(-1.151 -114.167)" fill="#4d2e54"/>
          </g>
        </g>
      </g>
    </g>
  </g>
</svg>
