<svg id="Grupo_995714" data-name="Grupo 995714" xmlns="http://www.w3.org/2000/svg" xmlns:xlink="http://www.w3.org/1999/xlink" width="302.097" height="213.867" viewBox="0 0 302.097 213.867">
  <defs>
    <clipPath id="clip-path">
      <rect id="Rectángulo_309942" data-name="Rectángulo 309942" width="302.097" height="213.867" fill="none"/>
    </clipPath>
  </defs>
  <g id="Grupo_995713" data-name="Grupo 995713" clip-path="url(#clip-path)">
    <path id="Trazado_655039" data-name="Trazado 655039" d="M33.821,145.67H7.853a59.967,59.967,0,0,1,1.961-10.787c2.116-1.849,16.468-1.546,17.134.555a18.528,18.528,0,0,1,.6,3.122c6.274,1.6,6.274,7.11,6.274,7.11" transform="translate(3.981 67.765)" fill="#f4e8d0"/>
    <path id="Trazado_655040" data-name="Trazado 655040" d="M53.281,145.67H28.8a63.04,63.04,0,0,1,1.848-10.787c2-1.849,15.526-1.546,16.153.555a19.565,19.565,0,0,1,.565,3.122,7.648,7.648,0,0,1,5.915,7.11" transform="translate(14.601 67.765)" fill="#f4e8d0"/>
    <path id="Trazado_655041" data-name="Trazado 655041" d="M22.567,137.749a45.618,45.618,0,0,0-5.073-.8l.077-.856a46.065,46.065,0,0,1,5.184.818Z" transform="translate(8.869 68.996)" fill="#dbc5a6"/>
    <path id="Trazado_655042" data-name="Trazado 655042" d="M42.4,137.745a26.107,26.107,0,0,0-4.016-.8l.071-.857a26.47,26.47,0,0,1,4.167.824Z" transform="translate(19.459 68.996)" fill="#dbc5a6"/>
    <path id="Trazado_655043" data-name="Trazado 655043" d="M8,140.959l-.026-.859c.157,0,15.8-.472,19.511-.472a29.668,29.668,0,0,1,5.939.481l-.188.839a29.478,29.478,0,0,0-5.751-.46c-3.7,0-19.327.466-19.485.47" transform="translate(4.043 70.79)" fill="#dbc5a6"/>
    <path id="Trazado_655044" data-name="Trazado 655044" d="M28.927,141.289l-.045-.857c.151-.009,15.071-.8,18.443-.8a32.267,32.267,0,0,1,5.567.408l-.163.845a31.947,31.947,0,0,0-5.4-.393c-3.349,0-18.247.793-18.4.8" transform="translate(14.643 70.79)" fill="#dbc5a6"/>
    <path id="Trazado_655045" data-name="Trazado 655045" d="M11.6,128.116l-.951,9.583a23.808,23.808,0,0,0,5.614.919,58.3,58.3,0,0,0,6.028-.543l2.143-9.37Z" transform="translate(5.4 64.953)" fill="#dba469"/>
    <path id="Trazado_655046" data-name="Trazado 655046" d="M31.869,129.225l-.524,7.983a32.512,32.512,0,0,0,6.4.848,19.078,19.078,0,0,0,4.9-.684l.924-8.147Z" transform="translate(15.892 65.516)" fill="#dba469"/>
    <path id="Trazado_655047" data-name="Trazado 655047" d="M169.272,131.132c-2.078,3.252,2.99,15.814,8.6,15.721s11.1,3.484,15.876,3.484h13.439s2.591-2.774-2.743-6.628-9.063-6.2-12.085-10.481-4.376-8.477-9.494-8.754-6.566,4.037-9.34,4.963-3.544.586-4.254,1.7" transform="translate(85.578 63.1)" fill="#f4e8d0"/>
    <path id="Trazado_655048" data-name="Trazado 655048" d="M170.38,129.238c-3.428,1.049,2.928,16.03,8.138,14.119s-4.408-15.26-8.138-14.119" transform="translate(85.888 65.487)" fill="#ddccad"/>
    <path id="Trazado_655049" data-name="Trazado 655049" d="M200.382,148.691c-.274-2.594-2.336-3.89-5.193-5.684-3.184-2-7.149-4.491-10.258-9.9-3.927-6.83-6.5-7.61-9.165-6.682l-.283-.812c3.677-1.282,6.534.7,10.195,7.066,3,5.223,6.866,7.649,9.97,9.6,2.946,1.851,5.273,3.314,5.589,6.322Z" transform="translate(88.967 63.497)" fill="#dbc5a6"/>
    <path id="Trazado_655050" data-name="Trazado 655050" d="M65.711,108.846c-.369,3.611-3.514,8.407-3.514,8.407l-51.268-3.11S6.918,111.435,7.385,107s4.846-61.776,10.766-67.141A37.4,37.4,0,0,1,29.543,32.54a32.1,32.1,0,0,1,11.919-2.2,30.945,30.945,0,0,1,11.962,2.36c4.972,2.08,9.111,5.389,11.334,9.655,2.868,5.5,1.323,62.893.952,66.5" transform="translate(3.725 15.379)" fill="#07d074"/>
    <path id="Trazado_655051" data-name="Trazado 655051" d="M10.57,82.555c-1.757,10.82.741,31.611.741,40.951s-2.158,31.782-2.158,31.782S16,157.261,20.4,157.261a26.7,26.7,0,0,0,7.338-.925s5.98-24.415,6.967-32.736S39.7,100.942,39.7,100.942s2.776,20.53,2.5,26.818-2.218,28.114-2.218,28.114a66.751,66.751,0,0,0,9.848,1.386,35.66,35.66,0,0,0,6.427-.646s4.964-23.706,6.32-34.064-1.356-36.868-1.356-36.868-6.792-4.711-19.482-5.2c-14.782-.571-31.168,2.072-31.168,2.072" transform="translate(4.64 40.763)" fill="#d5644d"/>
    <path id="Trazado_655052" data-name="Trazado 655052" d="M136.867,58.2c-15.415,7.668-8.356,27.18-22.227,46.417S95.4,120.891,88.929,128.429c-4.785,5.573-1.986,17.709,6.983,19.1s20.206-3.792,28.066-16.646S135.818,86.3,135.818,86.3Z" transform="translate(43.915 29.506)" fill="#5840e2"/>
    <path id="Trazado_655053" data-name="Trazado 655053" d="M107.922,115.463c-2.636,3.911-13.766,7.1-19.042,9.034s-11.976,2.658-12.243,1.615c-.173-.692,2.132-1.7,4.648-2.729-3.929.757-9.722,1.148-9.643-.05.1-1.454,3.364-.562,10.79-3.749-4.718.6-11.214-.811-11.155-1.8.047-.921,3.222-.888,9.924-1.525-4.283-.827-8.582-2.859-8.266-3.74.411-1.141,9.024.845,12.891.654a15.83,15.83,0,0,0,6.653-1.851s-5.668-2.517-4.822-5.07c.39-1.162,4.67,1.572,9.221,2.1,3.16.366,4.272-.3,8.059.457s5.11,3.5,2.985,6.652" transform="translate(36.136 53.726)" fill="#d49666"/>
    <path id="Trazado_655054" data-name="Trazado 655054" d="M166.207,24.5c-.452.933-3.728,2.042-8.6,3.189-2.744.651-5.992,1.31-9.529,1.961-5.038.925-10.653,1.828-16.188,2.627-7.05,1.02-13.967,1.879-19.405,2.426-7.006.71-11.556.9-10.757.244,2.4-1.953,6.326-3.67,11.09-5.149A133.986,133.986,0,0,1,130.5,25.857c4.2-.68,8.45-1.228,12.481-1.641,5.461-.564,10.514-.882,14.509-.94,4.55-.081,7.731.17,8.545.755.008.008.023.015.03.023a.335.335,0,0,1,.14.443" transform="translate(51.53 11.793)" fill="#d39644"/>
    <path id="Trazado_655055" data-name="Trazado 655055" d="M123.316,42.385c-7.176,3.189-13.353-2.464-14.419-8.56a9.567,9.567,0,0,1,.332-4.905,134.011,134.011,0,0,1,17.683-3.936A31.663,31.663,0,0,1,128.3,31.4c.451,4.491-.466,8.974-4.987,10.986" transform="translate(55.122 12.667)" fill="#684837"/>
    <path id="Trazado_655056" data-name="Trazado 655056" d="M27.887,77.832a43.6,43.6,0,0,1,5.971,5.535c.663,1-4.5,0-4.5,0Z" transform="translate(14.138 39.46)" fill="#dba469"/>
    <path id="Trazado_655057" data-name="Trazado 655057" d="M39.092,37.951c-.286,1.074-12.158.989-13.718-.109-.57-.4.669-8.646.274-12.451s13.56-1.448,13.573.032c.035,4.2.6,9.815-.13,12.528" transform="translate(12.787 11.829)" fill="#dba469"/>
    <path id="Trazado_655058" data-name="Trazado 655058" d="M12.479,38.831a8.939,8.939,0,0,0,2.711,2.006,5.708,5.708,0,0,0,3.346.009,7.454,7.454,0,0,0,3.3,1.959c1.808.5,4.055-.356,5.392-1.019A12.819,12.819,0,0,0,34,40.815L50.27,39.753a11.986,11.986,0,0,0,4.747.948,3.92,3.92,0,0,0,2.856-1.769,4.359,4.359,0,0,0,2.263.235,5.659,5.659,0,0,0,2.893-1.952S60.1,20.01,57.591,13.635,49.812.237,40.129.008s-16.791,4.649-21.4,14.657-6.252,24.166-6.252,24.166" transform="translate(6.327 0)" fill="#7e563c"/>
    <path id="Trazado_655059" data-name="Trazado 655059" d="M37.66,43.68c-5.086.307-12.568-4.429-14.744-9.988S20.86,20.427,20.86,20.427,18.039,4.2,30.958,2.664s19.714,7.762,20.13,15.353A44.95,44.95,0,0,1,48.814,35.1c-1.121,2.913-3.984,8.148-11.155,8.581" transform="translate(10.443 1.266)" fill="#dba469"/>
    <path id="Trazado_655060" data-name="Trazado 655060" d="M53.384,21.469a15.059,15.059,0,0,0-12.508-5.52c-2.946.051-7.316.442-7.316.442L30.883,5.319,28.422,17.58s-5.618,1.531-8.748,4.8S19.4,11.534,19.4,11.534L27.5,2.26l9.818-.594,4.441.8,6.335,3.068,3.421,4.688,3.022,10.549Z" transform="translate(9.231 0.845)" fill="#7e563c"/>
    <path id="Trazado_655061" data-name="Trazado 655061" d="M23.1,16.71c-3.113.417-5.841,2.694-5.261,5.736s4.052,4.043,7.124,2.583S23.1,16.71,23.1,16.71" transform="translate(9.003 8.472)" fill="#dba469"/>
    <path id="Trazado_655062" data-name="Trazado 655062" d="M40.646,16.27c2.9-.115,5.781,1.668,5.778,4.759s-2.985,4.666-6.032,3.745.255-8.5.255-8.5" transform="translate(19.824 8.246)" fill="#dba469"/>
    <path id="Trazado_655063" data-name="Trazado 655063" d="M28.053,56.88c-13.073-1.124-19.613,9.4-19.613,9.4S7.841,45.332,17.3,36.86Z" transform="translate(4.275 18.688)" fill="#07d074"/>
    <path id="Trazado_655064" data-name="Trazado 655064" d="M56.312,71.386a15.224,15.224,0,0,0-15.6-9.818l4.336-25.812c2.3,2.722,4.128,5.651,7.547,13.56s3.713,22.07,3.713,22.07" transform="translate(20.643 18.128)" fill="#07d074"/>
    <path id="Trazado_655065" data-name="Trazado 655065" d="M36.4,77.568a62.463,62.463,0,0,0-3.4,6.4l2.777.1,2.473-2.11Z" transform="translate(16.735 39.326)" fill="#dba469"/>
    <path id="Trazado_655066" data-name="Trazado 655066" d="M116.975,30.675c-4.161-2.077-6.13,1.227-6.109,3.416a5.416,5.416,0,0,0,6.9,5.017c5.3-1.112-.793-8.433-.793-8.433" transform="translate(56.208 15.218)" fill="#d49666"/>
    <path id="Trazado_655067" data-name="Trazado 655067" d="M28.05,50.173S27.3,52.917,20.6,56.617s-12.163,2.96-12.163,2.96,6.54-10.528,19.613-9.4" transform="translate(4.277 25.395)" fill="#687f50"/>
    <path id="Trazado_655068" data-name="Trazado 655068" d="M56.312,62.721a23.867,23.867,0,0,1-9.462-3.477A16.829,16.829,0,0,1,40.716,52.9a15.224,15.224,0,0,1,15.6,9.818" transform="translate(20.643 26.793)" fill="#687f50"/>
    <path id="Trazado_655069" data-name="Trazado 655069" d="M45.957,33.452c-1.1,3.092-3.773,7.347-10.062,7.133-7.014-.246-11.7-4.727-13.819-7.288a32.094,32.094,0,0,1,11.919-2.2,30.95,30.95,0,0,1,11.962,2.36" transform="translate(11.192 15.763)" fill="#dba469"/>
    <path id="Trazado_655070" data-name="Trazado 655070" d="M57.2,89.844c-.259-2.339-1.221-5.927-5.394-6.756S31.914,80.166,23.9,84.176c-2.271,1.132-3.456,3.758-3.4,7.827s.865,28.979,1.694,30.948,7.8,9.247,20.316,7.524,15.233-7.829,15.6-11.468S57.46,92.188,57.2,89.844m-4.972,4.934S42.3,102.945,25.07,97.211c-.089-.029-1.169-6.792.273-8.781s12.119-2.774,17.21-2.841,8.227.524,8.967,2.292.71,6.9.71,6.9" transform="translate(10.395 41.471)" fill="#73b3e9"/>
    <path id="Trazado_655071" data-name="Trazado 655071" d="M50.693,91.155s-9.928,8.168-27.159,2.434c0,0,13.442-8.567,27.159-2.434" transform="translate(11.931 45.093)" fill="#6993d6"/>
    <path id="Trazado_655072" data-name="Trazado 655072" d="M43.878,112.421l13.84-21.455.433-15.876L72.639,91.028,60.772,94.511l-14.96,31.733s-6.188-4.544-1.933-13.822" transform="translate(21.489 38.07)" fill="#73b3e9"/>
    <path id="Trazado_655073" data-name="Trazado 655073" d="M52.893,75.158C54.314,73.068,70.126,87.8,67.382,91.1S51.26,77.563,52.893,75.158" transform="translate(26.746 38.002)" fill="#6993d6"/>
    <path id="Trazado_655074" data-name="Trazado 655074" d="M39.315,106.024c-.717.074-1.191-.5-1.495-1.294-.288,1.264-.761,2.337-1.531,2.493-.814.17-1.228-.857-1.427-2.152-.149,1.124-.518,2.019-1.325,2.042-.844.014-1.421-.8-1.805-1.805-.148.784-.5,1.361-1.2,1.338-2.08-.066-2.523-5.157-3.285-6.4s-.88-5.764-1.2-8.213-6.2-15.166-8.236-19.975-6.628-17-6.628-17a20.126,20.126,0,0,1,13.147-4.964s10.223,38.22,10.8,39.929,5.083,5.815,5.9,7.872.458,7.9-1.716,8.13" transform="translate(5.672 25.393)" fill="#dba469"/>
    <path id="Trazado_655075" data-name="Trazado 655075" d="M47.594,99.015c-.518,2.146-2.782,6.983-4.691,6.459-.4-.112-.583-.488-.621-1.035a2.612,2.612,0,0,1-1.968.931c-.384-.059-.539-.443-.547-.992a3.581,3.581,0,0,1-2.456.984c-.674-.051-.776-.842-.6-1.923-.732.674-1.554,1.065-2.294.674-1.819-.955,1.332-6.164,1.088-9.337S35.691,90.3,36.83,88.6s8.013-35.726,8.013-35.726c7.42-.806,12.341,5.378,12.341,5.378s-9.716,28.559-10.795,31,1.724,7.612,1.206,9.758" transform="translate(17.161 26.772)" fill="#dba469"/>
    <path id="Trazado_655076" data-name="Trazado 655076" d="M101.272,104.657c-2.678,3.463-10.632,9.2-11.926,10.446s-.88,7.857-.784,11.283-.193,14.33,0,19.28c.176,4.949.318,16.7.318,16.7s3.558-3.382,4.209-2.782-4.483,8.834-5.778,8.834A3.654,3.654,0,0,1,85,167.35s-3.092-7.672-2.4-8,2.36,2.774,2.774,2.589-.643-18.17-.785-24.184.371-16.92-.827-19.369-9.248-4.483-12.534-7.725S63.777,94.846,64.931,94.2s8.153,3.189,12.651,7.184c4.95,4.387,7.324,15.2,7.324,15.2s.326-5.505,0-12.348-3.055-9.936-7.863-17.9c-4.809-7.945-.2-14.612.511-14.973,1.8-.933-1.3,4.529,2.729,9.107C83.317,83.927,88.1,85.946,90,91.5c2.316-5.933,6.947-10.136,8.079-9.78,1.007.31.185,10.462-3.654,16.875a20.839,20.839,0,0,1,2.131-.651c5.963-1.524,9.89-7.3,10.63-6.7s-3.232,9.945-5.918,13.414" transform="translate(32.82 36.128)" fill="#7b9051"/>
    <path id="Trazado_655077" data-name="Trazado 655077" d="M81.186,122.422c-1.911-3.7-5.18-5.363-6.628-8.6s.185-9.957,1.2-10.234,3.329,5.733,3.792,8.385,1.386,8.631,1.386,8.631Z" transform="translate(37.51 52.513)" fill="#7b9051"/>
    <path id="Trazado_655078" data-name="Trazado 655078" d="M103.437,124.984v3.329a17.579,17.579,0,0,0-5.365,2.774c-2.455,1.939-7.636,11.239-7.636,11.239a29.231,29.231,0,0,1,.9-7.407l-4.281,6.067a26.36,26.36,0,0,1,1.221-7.916L83.6,137.421a39.1,39.1,0,0,1,4.527-8.775l-4.854,1.561s4.574-6.192,9.013-5.823,3.935,1.569,11.149.6" transform="translate(42.219 63.053)" fill="#f4e8d0"/>
    <path id="Trazado_655079" data-name="Trazado 655079" d="M87.985,118.8c-.77,2.863-.8,6.688-5.638,7.916a4.814,4.814,0,0,0-2.169,1.1c-.473-5.638,1.111-8.59,2.413-10.07,1.353-1.539,4.409-4.595,5.053-6.2s1.109,4.379.341,7.25" transform="translate(40.606 56.418)" fill="#7b9051"/>
    <path id="Trazado_655080" data-name="Trazado 655080" d="M117.27,60.153c-1.29,7.738,12.207,15.769,28.16,11.768s20.5-5.4,23.416-15.1c3.638-12.092-1.837-19.024-5.8-20.724-4.162-1.787-12.06-2.009-22,6.3s-22.438,9.714-23.779,17.76" transform="translate(59.411 17.787)" fill="#5840e2"/>
    <path id="Trazado_655081" data-name="Trazado 655081" d="M151.843,48.191c25.994,12.023,28.214,27.929,31.727,46.055s10.855,29.875,7.461,42.786c-6.905,26.262-52.827,23.922-74.23,10.573-22.135-13.8,0-31.05.555-44.979s-1.6-37.614,14.434-44.818,20.053-9.618,20.053-9.618" transform="translate(54.239 24.432)" fill="#5840e2"/>
    <path id="Trazado_655082" data-name="Trazado 655082" d="M109.2,110.091c28.176-5.8,47.315-5.356,55.81-4.034s-5.846,22.207-16,22.306-20.717-.577-29.308-6.774-10.5-11.5-10.5-11.5" transform="translate(55.364 53.346)" fill="#ebc031"/>
    <path id="Trazado_655083" data-name="Trazado 655083" d="M132.038,27.844c-7.259,11.417,9.036,22.881,15.508,10.386,5.8-11.192-11.057-17.388-15.508-10.386" transform="translate(66.016 12.615)" fill="#684837"/>
    <path id="Trazado_655084" data-name="Trazado 655084" d="M115.438,108.465s-16.923,29.409-18.311,36.992,3.977,13.008,7.769,13.008h68.99s-18.311-18.542-28.576-18.78-10.267-4.4-18.378-4.771-11.4.277-11.4.277l4.81,3.422,10.326.06s13.869-11.348,18.311-21.331-33.54-8.878-33.54-8.878" transform="translate(49.128 54.972)" fill="#f46464"/>
    <path id="Trazado_655085" data-name="Trazado 655085" d="M148.83,66.605c-7.288,13.949-7.435,28.36-12.534,35.512s-18.108,23.119-21.56,30.333,7.94,12.547,12.824,11.991c12.454-1.418,14.241-11.62,18.619-17.354s11.1-10.974,15.537-17.941,7.336-20.284,9.556-26.387S158.88,47.37,148.83,66.605" transform="translate(57.845 30.495)" fill="#5840e2"/>
    <path id="Trazado_655086" data-name="Trazado 655086" d="M111.5,121.831a117.546,117.546,0,0,0-14.921,4.1c-2.461.888-1.109,4.654,2.066,3.975s15.585-3.543,15.585-3.543Z" transform="translate(48.321 61.767)" fill="#684837"/>
    <path id="Trazado_655087" data-name="Trazado 655087" d="M127.264,124.716l2.279,1.228s-.429,5.831-3.232,6.851a3.368,3.368,0,0,1-2.487-.1,1.917,1.917,0,0,1-.873.747,4.159,4.159,0,0,1-2.708.326,1.508,1.508,0,0,1-.9.88,4.24,4.24,0,0,1-3.07.03h-.008a.378.378,0,0,1-.066.089c-1.022.954-3.486,1.576-7.089-.31s-6.1-6.008-3.514-10.2,10.291-7.827,14.545-15.1c0,0,8.343,3.636,9.774,9.277.306,1.21-2.649,6.289-2.649,6.289" transform="translate(52.994 55.338)" fill="#d49666"/>
    <path id="Trazado_655088" data-name="Trazado 655088" d="M200.01,151.972a44.434,44.434,0,0,0-2.158-9.927s-15.166-6.828-26.311-9.046c-2.39-.476-4.363-.946-5.99-1.389A70.988,70.988,0,0,0,169,124.537a85.351,85.351,0,0,0,2.853-8.192S167.658,106.5,153,105.624s-17.54,6.212-17.54,6.212C129.6,122.81,127.7,143.71,127.7,143.71l9.547,16.215h61.206a16.294,16.294,0,0,0,1.557-7.954" transform="translate(64.742 53.512)" fill="#f46464"/>
    <path id="Trazado_655089" data-name="Trazado 655089" d="M126.793,132.453c-.307,2.435-.555,5.178.8,7.645s6.1,7.922,8.477,7.922h18.712a2.1,2.1,0,0,0,.246-2.866,30.52,30.52,0,0,1-4.623-8.355c-1.079-3.361-3.052-7.769-16.184-7.769-6.174,0-7.429,3.422-7.429,3.422" transform="translate(64.16 65.417)" fill="#7e563c"/>
    <path id="Trazado_655090" data-name="Trazado 655090" d="M140.532,142.406c11.006-5.133,14.52-20.3,14.52-20.3l2.851.755s.062,17.139-13.441,24.076-3.93-4.532-3.93-4.532" transform="translate(69.58 61.907)" fill="#7e563c"/>
    <path id="Trazado_655091" data-name="Trazado 655091" d="M96.455,134.78c2.357-4.012,5.965-4.994,11.1-3.838a19.065,19.065,0,0,1,12.485,9.063c2.634,4.717,5.594,4.024,6.1,5.133a3.7,3.7,0,0,1,.277,2.143H101.541c-3.052,0-7.259-8.8-5.086-12.5" transform="translate(48.597 66.157)" fill="#7e563c"/>
    <path id="Trazado_655092" data-name="Trazado 655092" d="M109.465,137.75s6.29-7.276,8.417-11.807l3.163.246s-3.168,9.741-8.716,15.753Z" transform="translate(55.497 63.852)" fill="#7e563c"/>
    <path id="Trazado_655093" data-name="Trazado 655093" d="M65.038,145.751c.339-2,8.046-3.422,10.388-5.148s7.09-7.306,12.609-7.09,10.388,5.919,13.563,7.46,6.259.371,8.293,1.727a8.085,8.085,0,0,1,2.791,3.052Z" transform="translate(32.973 67.686)" fill="#684837"/>
    <path id="Trazado_655094" data-name="Trazado 655094" d="M144.333,39.9S142.992,58.082,132.3,60,117.11,49.929,115.328,43.08s-4.429-17.5-1.578-20.471,20.01-7.151,23.7-5.19,7.464,16.963,6.887,22.483" transform="translate(57.033 8.575)" fill="#d49666"/>
    <path id="Trazado_655095" data-name="Trazado 655095" d="M122.091,44.47c1.353,3.089,2.348,11.254,2.74,11.869s2.842,1.076,6.97-.267c4.3-1.4,8.734-5.565,8.805-6.515s-4.72-15.979-4.72-15.979Z" transform="translate(61.899 17.024)" fill="#d49666"/>
    <path id="Trazado_655096" data-name="Trazado 655096" d="M166.008,26.717c-3.581-2.553-52.506,1.264-64.306,10.912C101.946,35.2,112.733,25.3,112.733,25.3a83.25,83.25,0,0,1,20.316-6.4c11.283-1.938,18.081-.274,18.081-.274s.089.038.259.1c1.665.666,11,4.468,14.619,7.983" transform="translate(51.562 9.109)" fill="#ffd357"/>
    <path id="Trazado_655097" data-name="Trazado 655097" d="M147.678,23.559c-.17-.066-.259-.1-.259-.1s-6.8-1.664-18.081.274a83.25,83.25,0,0,0-20.316,6.4c1.206-6.813,3.795-16.061,3.795-16.061a23.544,23.544,0,0,1,13.192-5.422c8.293-.77,13.361.969,13.361.969Z" transform="translate(55.273 4.283)" fill="#ffd357"/>
    <path id="Trazado_655098" data-name="Trazado 655098" d="M117.866,120.25c-1.31.764-1.557,4.393.309,4.747s4.993-1.124,7.829-1.341,3.531.695,4.887-.169,3.529-4.947,1.478-6.335-12.1,1.7-14.5,3.1" transform="translate(59.231 59.217)" fill="#684837"/>
    <path id="Trazado_655099" data-name="Trazado 655099" d="M143.7,27.68c-.252,1.775-1.007,3.232-2.619,3.781-2.375.806-4.786-.2-6.91-1.82a27.082,27.082,0,0,1-5.1-5.43c5.46-.564,10.513-.882,14.508-.94a15.572,15.572,0,0,1,.119,4.409" transform="translate(65.439 11.798)" fill="#684837"/>
    <path id="Trazado_655100" data-name="Trazado 655100" d="M130.6,28.656s1.4-3.474,5.024-3.451c4.464.026,5.853,7.133,1.784,9.862s-6.167.172-6.167.172Z" transform="translate(66.213 12.779)" fill="#d49666"/>
    <path id="Trazado_655101" data-name="Trazado 655101" d="M124.758,30.58a1.03,1.03,0,1,0,.818-1.4,1.159,1.159,0,0,0-.818,1.4" transform="translate(63.243 14.792)" fill="#7e5843"/>
    <path id="Trazado_655102" data-name="Trazado 655102" d="M115.764,32.465a1.03,1.03,0,1,0,.818-1.394,1.159,1.159,0,0,0-.818,1.394" transform="translate(58.683 15.748)" fill="#7e5843"/>
    <path id="Trazado_655103" data-name="Trazado 655103" d="M108.672,118.383c-4.1,3.439-9.274,3.392-8.4,4.964s3.085,1.551,4.592,1.192,4.932-.96,4.932-.96Z" transform="translate(50.789 60.019)" fill="#d49666"/>
    <path id="Trazado_655104" data-name="Trazado 655104" d="M29.439,87.157l-.847-.151a12.778,12.778,0,0,0,.193-3.727l.832-.211a13.844,13.844,0,0,1-.178,4.088" transform="translate(14.496 42.115)" fill="#be8b54"/>
    <path id="Trazado_655105" data-name="Trazado 655105" d="M26.777,87.408c0-.026-.191-2.615-.306-3.588l.854-.1c.116.992.3,3.517.309,3.626Z" transform="translate(13.42 42.445)" fill="#be8b54"/>
    <rect id="Rectángulo_309928" data-name="Rectángulo 309928" width="0.86" height="3.234" transform="translate(36.358 126.978) rotate(-9.467)" fill="#be8b54"/>
    <path id="Trazado_655106" data-name="Trazado 655106" d="M36.341,87.9l-.684-.523A21.892,21.892,0,0,0,38.1,83.2l.794.33A22.613,22.613,0,0,1,36.341,87.9" transform="translate(18.078 42.18)" fill="#be8b54"/>
    <path id="Trazado_655107" data-name="Trazado 655107" d="M38.306,88.1l-.549-.662a9.069,9.069,0,0,0,2.346-3.5l.806.3a9.769,9.769,0,0,1-2.6,3.858" transform="translate(19.142 42.559)" fill="#be8b54"/>
    <path id="Trazado_655108" data-name="Trazado 655108" d="M40.186,87.652l-.607-.607a7.836,7.836,0,0,0,1.346-1.9l.781.362a8.5,8.5,0,0,1-1.519,2.146" transform="translate(20.066 43.167)" fill="#be8b54"/>
    <rect id="Rectángulo_309929" data-name="Rectángulo 309929" width="2.145" height="0.86" transform="translate(52.098 123.33) rotate(-81.842)" fill="#be8b54"/>
    <path id="Trazado_655109" data-name="Trazado 655109" d="M31.062,82.616c-.053-.1-.536-.879-.974-1.57l.726-.46c.974,1.542,1.014,1.64,1.031,1.676l-.793.335.4-.167Z" transform="translate(15.254 40.856)" fill="#be8b54"/>
    <path id="Trazado_655110" data-name="Trazado 655110" d="M123.234,42.051a4.494,4.494,0,0,1-.473-.021l.1-.854a5.689,5.689,0,0,0,3.879-1.189,6.6,6.6,0,0,0,2.077-4.822l.859.06a7.415,7.415,0,0,1-2.393,5.431,6.42,6.42,0,0,1-4.045,1.4" transform="translate(62.238 17.828)" fill="#a55c58"/>
    <path id="Trazado_655111" data-name="Trazado 655111" d="M125.772,25.33h-.053c-1.81-.011-2.851-.514-2.854-1.38a1.284,1.284,0,0,1,.779-1.114c1.392-.8,4.566-.913,5.758-.211a1.038,1.038,0,0,1,.594.928c-.02,1.308-2.517,1.777-4.224,1.777m1.222-2.315a6.678,6.678,0,0,0-2.922.565c-.219.125-.348.262-.347.366,0,.178.588.515,2,.524,2.009,0,3.407-.6,3.413-.931,0-.054-.089-.125-.172-.175a4.352,4.352,0,0,0-1.971-.35" transform="translate(62.291 11.235)" fill="#684837"/>
    <path id="Trazado_655112" data-name="Trazado 655112" d="M113.235,29.2a1.137,1.137,0,0,1-1.059-.511,1.433,1.433,0,0,1,.173-1.519c.77-1.279,2.958-2.851,4.378-2.851l.072,0a1.24,1.24,0,0,1,1.123.678c.592,1.186-.787,2.6-2.416,3.486a5.248,5.248,0,0,1-2.271.716m-.316-.945c.1.167.955.134,2.179-.527,1.4-.758,2.324-1.81,2.056-2.346-.047-.093-.13-.191-.387-.2-1.005-.029-2.987,1.281-3.68,2.434-.169.282-.234.529-.167.642" transform="translate(56.8 12.328)" fill="#684837"/>
    <path id="Trazado_655113" data-name="Trazado 655113" d="M136.917,46.423l.775.372c-3.887,8.059-9.924,8.713-11.762,8.713h-.047l0-.859h.044c1.7,0,7.316-.619,10.986-8.227m-11.539-8.035c-.6.461-2.532,1.644-3.433,1.071-.853-.544-1.014-3.7-1.172-6.757-.054-1.079-.112-2.2-.2-3.309l-.856.066c.086,1.1.143,2.217.2,3.287.19,3.719.341,6.658,1.569,7.438a1.96,1.96,0,0,0,1.071.289,6.659,6.659,0,0,0,3.344-1.4Zm17.091-10.352-.423-.747-3.709,2.1.423.749,1.326-.752,1.4,1.638.654-.559-1.291-1.51Z" transform="translate(60.695 13.835)" fill="#b7724f"/>
    <path id="Trazado_655114" data-name="Trazado 655114" d="M112.746,23.762l-.377-.773c.179-.087,18.066-8.658,33.726-4.388l-.228.83c-15.347-4.186-32.946,4.245-33.122,4.331" transform="translate(56.97 8.826)" fill="#e0af24"/>
    <path id="Trazado_655115" data-name="Trazado 655115" d="M115.524,20.016l-.4-.758a42.822,42.822,0,0,1,27.712-2.74l-.2.835a41.882,41.882,0,0,0-27.108,2.663" transform="translate(58.364 7.794)" fill="#e0af24"/>
    <path id="Trazado_655116" data-name="Trazado 655116" d="M138.435,29.958l-.615-.6c.7-.71,1.052-2.945,1.129-3.746l.856.083c-.032.326-.338,3.213-1.37,4.266" transform="translate(69.873 12.983)" fill="#563c35"/>
    <path id="Trazado_655117" data-name="Trazado 655117" d="M139.4,28.185l2.916-2.235-.523-.683-2.841,2.176a6.4,6.4,0,0,0-1.615-1.582,5.985,5.985,0,0,0-8.516,1.866,6.4,6.4,0,0,0-.859,2.351,3.748,3.748,0,0,0-3.611-.342,2.962,2.962,0,0,0-1.51,1.4,6.16,6.16,0,0,0-6.385-2.627,6.292,6.292,0,0,0-4.642,7.576,6.5,6.5,0,0,0,2.722,4.033,5.986,5.986,0,0,0,4.661.907,6.291,6.291,0,0,0,4.642-7.574,6.667,6.667,0,0,0-.392-1.216,1.812,1.812,0,0,1,1.246-1.709,2.825,2.825,0,0,1,3.2.624,6.74,6.74,0,0,0,.146,1.382,6.36,6.36,0,0,0,6.112,5.077,5.907,5.907,0,0,0,1.27-.137A6,6,0,0,0,139.27,34.7a6.5,6.5,0,0,0,.787-4.8,6.635,6.635,0,0,0-.66-1.71m-20.387,12a5.132,5.132,0,0,1-4-.781,5.643,5.643,0,0,1-2.363-3.5,5.433,5.433,0,0,1,3.986-6.551,5.143,5.143,0,0,1,1.085-.118,5.5,5.5,0,0,1,5.274,4.4,5.431,5.431,0,0,1-3.986,6.549m19.526-5.933a5.144,5.144,0,0,1-3.3,2.38,5.431,5.431,0,0,1-6.359-4.284,5.641,5.641,0,0,1,.68-4.17,5.129,5.129,0,0,1,7.3-1.6,5.732,5.732,0,0,1,1.682,7.675" transform="translate(56.608 12.581)" fill="#563c35"/>
    <path id="Trazado_655118" data-name="Trazado 655118" d="M91.545,113.912c-1.6,0-2.606-.927-3.651-1.894a10.8,10.8,0,0,0-2.673-1.979l.377-.772a11.594,11.594,0,0,1,2.88,2.119c1.313,1.213,2.26,2.092,4.369,1.451l.249.823a5.331,5.331,0,0,1-1.549.252" transform="translate(43.206 55.397)" fill="#b7724f"/>
    <path id="Trazado_655119" data-name="Trazado 655119" d="M82.539,107.62C74.395,92.282,66.094,88.61,66.01,88.575l.338-.791c.35.148,8.665,3.829,16.951,19.433Z" transform="translate(33.466 44.505)" fill="#687f50"/>
    <path id="Trazado_655120" data-name="Trazado 655120" d="M80.909,100.641l-.853-.107c.788-6.242,3.151-10.4,6.482-11.408l.249.823c-2.948.891-5.145,4.889-5.877,10.692" transform="translate(40.587 45.186)" fill="#687f50"/>
    <path id="Trazado_655121" data-name="Trazado 655121" d="M80.853,95.458l-.769-.383c.03-.062,3.047-6.212,1.73-10.205l.817-.268c1.429,4.33-1.647,10.591-1.778,10.856" transform="translate(40.602 42.892)" fill="#687f50"/>
    <path id="Trazado_655122" data-name="Trazado 655122" d="M83.117,98.288l-.839-.187a19.1,19.1,0,0,0-.922-10.222,16.118,16.118,0,0,0-4.334-5.461c-1.974-1.849-3.841-3.594-4.242-6.313l.85-.127c.357,2.423,2.117,4.069,3.98,5.811a16.792,16.792,0,0,1,4.541,5.76,19.631,19.631,0,0,1,.967,10.739" transform="translate(36.898 38.52)" fill="#687f50"/>
    <path id="Trazado_655123" data-name="Trazado 655123" d="M82.943,92.865l-.829-.225c.089-.33,2.209-8.106,4.8-12.5l.74.437c-2.53,4.293-4.69,12.207-4.711,12.286" transform="translate(41.631 40.631)" fill="#687f50"/>
    <path id="Trazado_655124" data-name="Trazado 655124" d="M81.907,102.977l-.847-.148c.048-.276,1.221-6.8,4.5-9.506a19.6,19.6,0,0,1,4.542-2.63,16.137,16.137,0,0,0,5.318-3.4l.616.6a17.035,17.035,0,0,1-5.576,3.579A18.633,18.633,0,0,0,86.1,93.986c-3.032,2.506-4.185,8.926-4.2,8.991" transform="translate(41.096 44.259)" fill="#687f50"/>
    <path id="Trazado_655125" data-name="Trazado 655125" d="M79.812,118.915a29.584,29.584,0,0,0-1.765-3.529A19.179,19.179,0,0,1,75.1,105.192l.859-.033a18.461,18.461,0,0,0,2.833,9.806,30.339,30.339,0,0,1,1.813,3.629Z" transform="translate(38.077 53.314)" fill="#687f50"/>
    <path id="Trazado_655126" data-name="Trazado 655126" d="M80.928,124.491l-.8-.307a22.927,22.927,0,0,1,4.209-6.828,9.751,9.751,0,0,0,2.386-3.933l.838.19A10.488,10.488,0,0,1,85,117.9a21.877,21.877,0,0,0-4.067,6.589" transform="translate(40.621 57.504)" fill="#687f50"/>
    <path id="Trazado_655127" data-name="Trazado 655127" d="M86.94,139.783a2.263,2.263,0,0,1-1.462-.594c-1.6-1.322-2.575-1.709-3.814-.322l-.64-.573c1.852-2.074,3.553-.964,5,.232.912.755,1.524.347,2.529-.439a7.975,7.975,0,0,1,.9-.639c1.57-.9,2.934-.009,3.948.868l-.562.65c-1.218-1.052-2.074-1.278-2.958-.772a7.3,7.3,0,0,0-.8.57,3.682,3.682,0,0,1-2.143,1.019" transform="translate(41.078 69.494)" fill="#7f593d"/>
    <path id="Trazado_655128" data-name="Trazado 655128" d="M113.588,128.035c-3.492-.769-5.454-2.285-6.56-5.071l.8-.318c1,2.523,2.723,3.84,5.947,4.55Z" transform="translate(54.262 62.18)" fill="#b7724f"/>
    <path id="Trazado_655129" data-name="Trazado 655129" d="M116.049,127c-2.735-.876-4.9-1.567-6.066-4.262l.79-.342c.967,2.233,2.565,2.833,5.538,3.784Z" transform="translate(55.76 62.051)" fill="#b7724f"/>
    <path id="Trazado_655130" data-name="Trazado 655130" d="M119.2,126.49l-.5-.187c-3.177-1.187-4.773-1.784-5.359-3.9l.827-.231c.47,1.691,1.747,2.169,4.833,3.321l.5.187Z" transform="translate(57.465 61.942)" fill="#b7724f"/>
    <path id="Trazado_655131" data-name="Trazado 655131" d="M142.8,54.947v-.859c8.772,0,16.266-7.906,18.571-13.248.6-1.385.46-1.689.455-1.7-.466-.137-2.851,1.644-5.083,3.77l-.592-.622c1.843-1.756,5.1-4.589,6.192-3.828.671.467.283,1.637-.184,2.72C159.7,46.9,152.062,54.947,142.8,54.947m34,9.467.324-.8c-6.549-2.67-12.137,5.564-12.372,5.916l.716.476c.053-.08,5.431-8,11.333-5.6M159.914,78.7c-2.774,4.584-4.684,12.274-6.369,19.059-1.279,5.152-2.487,10.02-3.786,12.1-1.4,2.248-5.282,7.582-9.39,13.228-2.484,3.415-5.133,7.057-7.482,10.358l0-.029c-9.536,1.432-14.378,5.035-14.58,5.187l.52.686c.045-.035,4.6-3.407,13.387-4.887-1.81,2.554-3.407,4.865-4.524,6.6l.725.466c2.649-4.125,7.966-11.43,12.656-17.876,4.116-5.659,8.005-11.006,9.423-13.28,1.37-2.2,2.539-6.9,3.891-12.351,1.67-6.726,3.561-14.348,6.269-18.819ZM123.33,116.655a66.7,66.7,0,0,0,4.337-9.518c.818-2.673.9-6.1,1-10.074a74.252,74.252,0,0,1,2.084-18.028l-.829-.223A74.9,74.9,0,0,0,127.81,97.04c-.1,3.909-.181,7.285-.964,9.845a66.4,66.4,0,0,1-4.28,9.378c-2.386,4.649-5.089,9.921-6.2,14.55-1.947,8.133-.014,10.923.071,11.039l.7-.5c-.017-.026-1.768-2.666.069-10.336,1.084-4.53,3.761-9.752,6.124-14.359m36.653-46.468-.288-.811a29.122,29.122,0,0,1-22.117-2.107l-.413.752a29.555,29.555,0,0,0,14.176,3.522,26.418,26.418,0,0,0,8.641-1.356M95.764,137.871a6.169,6.169,0,0,0-5.514,4.355l.83.226A5.205,5.205,0,0,1,95.8,138.73a8.749,8.749,0,0,1,6.59,3.5,6.956,6.956,0,0,1,1.181,6.576c-1.822,5.607-7.533,4.217-7.776,4.155l-.214.833a8.748,8.748,0,0,0,1.939.2,6.752,6.752,0,0,0,6.869-4.925,7.858,7.858,0,0,0-1.316-7.363c-1.805-2.37-4.837-3.963-7.312-3.834m68.428-4.94a107.12,107.12,0,0,0,10.279-12c.243-.369.707-1.194,1.295-2.346a26.6,26.6,0,0,1,10.4,12.987l.806-.3a26.959,26.959,0,0,0-10.813-13.463c3.908-7.882,12-27.588,4.926-35.453l-.64.576c7.567,8.406-3.79,33.119-6.69,37.526-2.328,3.538-8.991,10.92-16.58,18.366l.6.613c1.923-1.885,3.786-3.767,5.535-5.586l0,.006c.2-.024,20.1-2.146,28.844,11.426l.722-.466c-7.9-12.259-24.486-12.131-28.684-11.89m-34.123,8.575-.078.856c.089.008,8.795.883,11.334,8.8l.821-.261c-2.719-8.469-11.985-9.387-12.077-9.4" transform="translate(45.756 19.435)" fill="#361cc7"/>
    <path id="Trazado_655132" data-name="Trazado 655132" d="M170.576,128.232a108.557,108.557,0,0,0-12.428-1.622l.044-.857c.033,0,2.212.117,6.159.628,1.571.2,3.828.54,6.379,1Zm-47.7,6.07-.591-.625-4.239,4.015.591.625Zm15.566-20.84-.8-.306c-.683,1.8-1.914,6.243-2.993,10.814l.836.2c1.071-4.539,2.289-8.941,2.961-10.707m58.634,21.979-.758.408c.059.109,5.822,11.013,1.053,19.954l.76.405c4.982-9.343-.995-20.655-1.055-20.768" transform="translate(59.848 57.369)" fill="#d03333"/>
    <path id="Trazado_655133" data-name="Trazado 655133" d="M151.476,145.938c-1.489-1.132-2.737-3.407-4.06-5.817-1.475-2.69-3-5.473-4.827-6.48-3.763-2.077-8.361-2.179-14.9-.333l-.234-.827c6.78-1.911,11.577-1.786,15.552.408,2.043,1.127,3.632,4.021,5.167,6.819,1.276,2.327,2.482,4.524,3.826,5.544Z" transform="translate(64.617 66.486)" fill="#684837"/>
    <path id="Trazado_655134" data-name="Trazado 655134" d="M119.966,145.606c-2.208-1.007-3.4-2.9-4.672-4.9a21.151,21.151,0,0,0-3.885-4.913c-3.793-3.358-11.028-4.452-14.328-.775l-.639-.574c3.614-4.03,11.455-2.912,15.537.705a22.193,22.193,0,0,1,4.042,5.1c1.249,1.971,2.327,3.674,4.3,4.575Z" transform="translate(48.895 66.867)" fill="#684837"/>
    <rect id="Rectángulo_309930" data-name="Rectángulo 309930" width="4.962" height="0.86" transform="translate(130.223 191.287) rotate(-16.911)" fill="#dbc5a6"/>
    <rect id="Rectángulo_309931" data-name="Rectángulo 309931" width="5.665" height="0.859" transform="translate(130.215 195.792) rotate(-39.665)" fill="#dbc5a6"/>
    <rect id="Rectángulo_309932" data-name="Rectángulo 309932" width="5.112" height="0.859" transform="translate(133.22 197.701) rotate(-50.697)" fill="#dbc5a6"/>
    <path id="Trazado_655135" data-name="Trazado 655135" d="M33.766,23a2.13,2.13,0,0,1-1.356-.41l.556-.656a1.9,1.9,0,0,0,1.661.041,1.445,1.445,0,0,0,.972-1.213c.054-.562-.366-1.037-.854-1.585-.773-.87-1.735-1.95-1.047-3.8l.806.3c-.508,1.367.137,2.092.883,2.931a2.964,2.964,0,0,1,1.067,2.242,2.3,2.3,0,0,1-1.5,1.924A3.18,3.18,0,0,1,33.766,23" transform="translate(16.431 7.792)" fill="#be8b54"/>
    <path id="Trazado_655136" data-name="Trazado 655136" d="M34.3,25.47c-2.713,0-5.077-1.858-6.355-5.167l.8-.309c1.442,3.74,4.409,5.4,7.561,4.238l.3.806a6.626,6.626,0,0,1-2.307.433" transform="translate(14.168 10.137)" fill="#a56f58"/>
    <rect id="Rectángulo_309933" data-name="Rectángulo 309933" width="0.86" height="3.231" transform="translate(28.685 29.683) rotate(-84.54)" fill="#be8b54"/>
    <rect id="Rectángulo_309934" data-name="Rectángulo 309934" width="1.932" height="0.859" transform="translate(29.574 31.127) rotate(-73.503)" fill="#be8b54"/>
    <rect id="Rectángulo_309935" data-name="Rectángulo 309935" width="2.739" height="0.86" transform="translate(61.405 28.296) rotate(-6.54)" fill="#be8b54"/>
    <rect id="Rectángulo_309936" data-name="Rectángulo 309936" width="0.859" height="1.92" transform="translate(62.193 28.678) rotate(-3.419)" fill="#be8b54"/>
    <path id="Trazado_655137" data-name="Trazado 655137" d="M34.232,31.085a13.134,13.134,0,0,1-7.565-2.235l.511-.692a12.639,12.639,0,0,0,11.33,1.284l.332.794a12.079,12.079,0,0,1-4.607.848" transform="translate(13.52 14.276)" fill="#be8b54"/>
    <path id="Trazado_655138" data-name="Trazado 655138" d="M27.672,16.983a1.159,1.159,0,0,0,1.077,1.206,1.159,1.159,0,0,0,.924-1.326A1.159,1.159,0,0,0,28.6,15.656a1.158,1.158,0,0,0-.924,1.326" transform="translate(14.028 7.937)" fill="#684837"/>
    <path id="Trazado_655139" data-name="Trazado 655139" d="M36.149,17.248a1.03,1.03,0,1,0,2-.121,1.03,1.03,0,1,0-2,.121" transform="translate(18.326 8.071)" fill="#684837"/>
    <path id="Trazado_655140" data-name="Trazado 655140" d="M27.56,15.242c-.916,0-1.7-.223-1.894-.86a.987.987,0,0,1,.292-1,7.065,7.065,0,0,1,5.148-1.3,1.209,1.209,0,0,1,1,.8c.226.785-.568,1.512-2.178,1.991a8.709,8.709,0,0,1-2.364.372m2.67-2.4a6.342,6.342,0,0,0-3.645,1.123c-.083.087-.1.146-.1.163.086.273,1.492.426,3.192-.081,1.225-.365,1.635-.808,1.6-.93-.023-.077-.164-.157-.372-.206a2.9,2.9,0,0,0-.674-.068" transform="translate(12.992 6.076)" fill="#684837"/>
    <path id="Trazado_655141" data-name="Trazado 655141" d="M39.82,14.31a6.4,6.4,0,0,1-1.361-.164c-1.67-.372-3.252-1.293-3.023-2.509a1.172,1.172,0,0,1,.845-.9c1.246-.408,3.647.449,4.667,1.408a1.339,1.339,0,0,1,.539,1.329c-.158.616-.847.841-1.668.841m-2.783-2.826a1.634,1.634,0,0,0-.49.065c-.234.077-.255.191-.265.246-.1.512.986,1.2,2.366,1.513,1.316.294,1.979.06,2.009-.053.02-.078-.045-.252-.3-.488a5.82,5.82,0,0,0-3.323-1.282" transform="translate(17.955 5.388)" fill="#684837"/>
    <path id="Trazado_655142" data-name="Trazado 655142" d="M19.636,20.815l-.859-.006A51.813,51.813,0,0,1,20.6,8.62l.826.241a50.856,50.856,0,0,0-1.792,11.953" transform="translate(9.52 4.37)" fill="#684837"/>
    <path id="Trazado_655143" data-name="Trazado 655143" d="M17.07,29.973l-.857-.048c.274-4.908.582-8.4.585-8.433l.857.075c0,.035-.31,3.513-.585,8.406" transform="translate(8.22 10.896)" fill="#684837"/>
    <rect id="Rectángulo_309937" data-name="Rectángulo 309937" width="4.275" height="0.86" transform="translate(33.125 41.783) rotate(-89.598)" fill="#684837"/>
    <rect id="Rectángulo_309938" data-name="Rectángulo 309938" width="0.86" height="5.143" transform="translate(63.03 33.905) rotate(-8.306)" fill="#684837"/>
    <path id="Trazado_655144" data-name="Trazado 655144" d="M44.372,19.613h-.859c0-7.984-5.639-14.946-5.7-15.016l.665-.546c.24.292,5.892,7.273,5.891,15.561" transform="translate(19.173 2.054)" fill="#684837"/>
    <path id="Trazado_655145" data-name="Trazado 655145" d="M36.89,103.341a32.923,32.923,0,0,1-14.416-3.495l.419-.75c.167.093,16.883,9.2,30.236-2.841l.577.637a24.467,24.467,0,0,1-16.816,6.448" transform="translate(11.394 48.8)" fill="#6993d6"/>
    <path id="Trazado_655146" data-name="Trazado 655146" d="M37.951,112.526c-8.365,0-14.809-5.139-14.91-5.22l.544-.666c.624.509,15.444,12.3,29.24-1.741l.612.6c-5.237,5.327-10.679,7.024-15.486,7.024" transform="translate(11.682 53.183)" fill="#6993d6"/>
    <path id="Trazado_655147" data-name="Trazado 655147" d="M11.5,154.392l-.851-.125c.024-.16,2.345-16.077,2.892-31.382a134.211,134.211,0,0,0-.75-19.128,184.709,184.709,0,0,1-1.007-20.1l.86.006a183.881,183.881,0,0,0,1,20.014,135.111,135.111,0,0,1,.755,19.237c-.55,15.355-2.878,31.317-2.9,31.476" transform="translate(5.4 42.414)" fill="#c0483e"/>
    <path id="Trazado_655148" data-name="Trazado 655148" d="M8.75,83.547l-.33-.793c.133-.057,3.445-1.388,18.5-2.372l.056.859c-14.811.967-18.2,2.292-18.229,2.306" transform="translate(4.269 40.753)" fill="#717b40"/>
    <rect id="Rectángulo_309939" data-name="Rectángulo 309939" width="0.86" height="12.422" transform="translate(29.862 63.384) rotate(-9.461)" fill="#00a359"/>
    <rect id="Rectángulo_309940" data-name="Rectángulo 309940" width="12.095" height="0.86" transform="matrix(0.068, -0.998, 0.998, 0.068, 60.933, 79.666)" fill="#00a359"/>
    <path id="Trazado_655149" data-name="Trazado 655149" d="M55.664,89.647c-2.948-.643-3.368-3.9-3.385-4.034l.854-.1c.012.113.369,2.786,2.713,3.3Z" transform="translate(26.505 43.353)" fill="#6993d6"/>
    <path id="Trazado_655150" data-name="Trazado 655150" d="M36.779,43.322c-10.1,0-16.358-9.533-16.42-9.631l.722-.464c.06.092,6.07,9.236,15.7,9.236,9.547,0,12.032-8.79,12.056-8.879l.829.226c-.024.095-2.687,9.512-12.885,9.512" transform="translate(10.322 16.846)" fill="#00a359"/>
    <rect id="Rectángulo_309941" data-name="Rectángulo 309941" width="302.097" height="0.859" transform="translate(0 213.008)" fill="#cacaca"/>
  </g>
</svg>
