<svg xmlns="http://www.w3.org/2000/svg" xmlns:xlink="http://www.w3.org/1999/xlink" width="505" height="279.714" viewBox="0 0 505 279.714">
  <defs>
    <clipPath id="clip-path">
      <rect id="Rectángulo_309891" data-name="Rectángulo 309891" width="273.559" height="341.698" fill="#fff6db"/>
    </clipPath>
    <clipPath id="clip-path-2">
      <rect id="Rectángulo_309922" data-name="Rectángulo 309922" width="505" height="279.714" fill="none"/>
    </clipPath>
  </defs>
  <g id="Grupo_995699" data-name="Grupo 995699" transform="translate(-915 -8007.9)">
    <g id="Grupo_995696" data-name="Grupo 995696" transform="translate(1315 8007.9) rotate(90)">
      <g id="Grupo_995683" data-name="Grupo 995683" clip-path="url(#clip-path)">
        <path id="Trazado_654602" data-name="Trazado 654602" d="M264.032,170.7s29.2,73.372-14.63,108.685-101.06-50.617-144.782,38.093C73.745,380.118-9.779,348.075.944,281.755c12.2-75.467,54.774-24.152,29.475-190.783C17.891,8.459,193.292-52.518,264.032,170.7" transform="translate(0 -9.49)" fill="#fff6db"/>
        <path id="Trazado_654603" data-name="Trazado 654603" d="M469.678,32.932s17.923,8.2,15.528,19.948-24.646,1.673-28.278-8.83,6.576-14.986,12.75-11.118" transform="translate(-269.256 -18.627)" fill="#fff6db"/>
        <path id="Trazado_654604" data-name="Trazado 654604" d="M400.546,6.226A8.568,8.568,0,0,1,412.721.934c3.811,1.909,7.485,5.141,6.37,10.343-2.156,10.067-12.4,4.726-16.848,1.2-1.886-1.5-2.128-4.624-1.7-6.247" transform="translate(-236.318 0)" fill="#fff6db"/>
        <path id="Trazado_654605" data-name="Trazado 654605" d="M532.91,691.906s17.494-6.6,23.715,2-15.089,16.888-24.106,12.965-5.825-13.256.391-14.962" transform="translate(-311.021 -406.974)" fill="#fff6db"/>
        <path id="Trazado_654606" data-name="Trazado 654606" d="M615.918,662.881a7.581,7.581,0,0,0-4.408,10.887c1.774,3.328,4.714,6.5,9.291,5.4,8.855-2.133,8.38-11.538,1.573-15.372a10.428,10.428,0,0,0-6.456-.918" transform="translate(-360.408 -391.162)" fill="#fff6db"/>
      </g>
    </g>
    <g id="Grupo_995698" data-name="Grupo 995698" transform="translate(915 8007.9)">
      <g id="Grupo_995697" data-name="Grupo 995697" clip-path="url(#clip-path-2)">
        <path id="Trazado_654690" data-name="Trazado 654690" d="M338.832,207.64h-21.3c-4.746,0-12.213-1.738-12.991-3.492s-1.731-16.071-1.855-19c-.125-3.118,19.663-1.817,21.1-.78.912.67,3.025,6.173,4.428,10.054a23.727,23.727,0,0,1,6.172,2.775c5.557,3.67,4.45,10.443,4.45,10.443" transform="translate(118.108 71.482)" fill="#f4e8d0"/>
        <path id="Trazado_654691" data-name="Trazado 654691" d="M319.38,194.7a7.5,7.5,0,0,1-3.719-.861c-1.97-1.228-3.608-7.971-3.788-8.736l.763-.145c.471,2,2.016,7.4,3.47,8.305a7.318,7.318,0,0,0,5.083.5c.354-.118.506-.247.528-.323.26-.887-1.5-5.252-2.662-7.8l.72-.266c.32.7,3.107,6.834,2.7,8.24-.1.342-.441.612-1.012.8a6.876,6.876,0,0,1-2.078.281" transform="translate(121.693 72.173)" fill="#d1b389"/>
        <path id="Trazado_654692" data-name="Trazado 654692" d="M304.155,177.8l1.576,9.558s6.551,1.086,9.382.7a22.306,22.306,0,0,0,4.811-1.19l-.688-9.627Z" transform="translate(118.681 69.157)" fill="#e8b47b"/>
        <path id="Trazado_654693" data-name="Trazado 654693" d="M282.265,197.141c-1.275-.442-2.4-.792-3.4-1.072.128-4.151-.677-9.262-1.661-10.18-1.461-1.364-17.739-5.512-21.9-3.58-1.214.564-5.041,17.852-4.457,19.021s15.23,6.854,20.166,6.854h20.166s.926-7.632-8.914-11.042" transform="translate(97.857 70.94)" fill="#f4e8d0"/>
        <path id="Trazado_654694" data-name="Trazado 654694" d="M290.825,201.507a33.741,33.741,0,0,0-7.867-1.151,54.475,54.475,0,0,0-5.685.438,58.21,58.21,0,0,1-7.867.5c-3.645-.1-10.55-3.4-15.118-5.589-1.419-.68-2.647-1.266-3.4-1.575l.295-.722c.779.317,2.014.909,3.446,1.593,4.51,2.158,11.323,5.416,14.8,5.512a57.751,57.751,0,0,0,7.76-.5,54.916,54.916,0,0,1,5.771-.442,34.028,34.028,0,0,1,8.08,1.179Z" transform="translate(97.895 75.47)" fill="#d1b389"/>
        <path id="Trazado_654695" data-name="Trazado 654695" d="M270.483,195.508a12.024,12.024,0,0,1-5.208-1.164c-2.267-1.237-2.825-9.73-2.882-10.695l.779-.046c.2,3.477,1.054,9.281,2.476,10.057,2.1,1.143,5.694,1.264,6.438.833.381-.495.031-4.916-.531-8.714l.772-.115c.6,4.032,1.1,8.952.15,9.5a4.415,4.415,0,0,1-1.994.341" transform="translate(102.386 71.642)" fill="#d1b389"/>
        <path id="Trazado_654696" data-name="Trazado 654696" d="M257.86,176.013l-1.937,8.705a54.669,54.669,0,0,0,8.995,2.085c3.836.4,6.124.434,6.124.434l2.356-7.372Z" transform="translate(99.861 68.68)" fill="#e8b47b"/>
        <path id="Trazado_654697" data-name="Trazado 654697" d="M175.646,189.184c-.919.259-4.6,6.559-4.18,8.963s6.2,6.837,7.42,7.292,24.112,0,24.112,0,.683-3.006-3.36-5.831-4.482-3.263-6.332-5.406-11.895-6.641-17.658-5.017" transform="translate(66.893 73.685)" fill="#f4e8d0"/>
        <path id="Trazado_654698" data-name="Trazado 654698" d="M182.315,201.314a14.442,14.442,0,0,1-2.4-.16c-4.014-.7-8.24-6.858-8.418-7.119l.644-.438c.042.061,4.219,6.145,7.909,6.79,2.2.384,6.673-.051,10.617-.437a55.445,55.445,0,0,1,7.075-.445,13.314,13.314,0,0,1,4.938,1.077l-.368.687a13.01,13.01,0,0,0-4.627-.987,54.723,54.723,0,0,0-6.941.443c-2.875.281-6.028.588-8.427.588" transform="translate(66.918 75.542)" fill="#d1b389"/>
        <path id="Trazado_654699" data-name="Trazado 654699" d="M190.373,187.783c1.767-4.981-12.426-3.331-12.426-3.331l-2.532,7.424,0,.015,0,.006h0c-.214,1.027,8.8,6.348,12.816,5.5.93-.2,1.333-.525,1.349-.926l.01,0-.01-.04a.76.76,0,0,0-.056-.268,16.525,16.525,0,0,1,.851-8.38" transform="translate(68.445 71.871)" fill="#e8b47b"/>
        <path id="Trazado_654700" data-name="Trazado 654700" d="M104.071,188.749c-.99.968-5.812,6.588-5.846,8.717s7.761,8.155,7.761,8.155h21.384a6.524,6.524,0,0,0-3.8-5.294c-3.751-1.949-4.529-2.338-5.261-3.8a14.76,14.76,0,0,0-5.5-6.163c-3.512-2.338-8.109-2.233-8.74-1.615" transform="translate(38.327 73.503)" fill="#f4e8d0"/>
        <path id="Trazado_654701" data-name="Trazado 654701" d="M126.059,201.652c-2.988-1.068-8-.758-12.036-.507a35.437,35.437,0,0,1-5.672.1c-3.071-.423-6.32-3.117-8.917-7.393l.666-.4c2.473,4.075,5.52,6.635,8.358,7.026a35.228,35.228,0,0,0,5.516-.11c4.105-.253,9.207-.569,12.346.552Z" transform="translate(38.799 75.484)" fill="#d1b389"/>
        <path id="Trazado_654702" data-name="Trazado 654702" d="M104.935,186.046l-1.824,4.173a10.439,10.439,0,0,0,4.054,3.849,11.089,11.089,0,0,0,6.111,1.36l2.548-3.474Z" transform="translate(40.234 72.595)" fill="#d49666"/>
        <path id="Trazado_654703" data-name="Trazado 654703" d="M60.6,204.241v.024a3.519,3.519,0,0,1-1.348,1.964H35.539a18.651,18.651,0,0,0-4.887-2.3c-2.479-.655-5.915-4.287-5.892-5.284s1.684-3.142,1.684-3.142.856-7.146,2.751-8.261c1.652-.975,8.487-.257,12.516,1.738s7.132,5.526,8.861,7.147,5.167,1.87,7.795,3.234a4.337,4.337,0,0,1,2.228,4.88" transform="translate(9.662 72.894)" fill="#f4e8d0"/>
        <path id="Trazado_654704" data-name="Trazado 654704" d="M58.531,201.2c-4.928-1.114-15.239,1.817-20.218,0-1.161-.5-2.237-.941-2.968-1.3a22.119,22.119,0,0,1-8.9-6.843s-1.66,2.144-1.684,3.14,3.414,4.629,5.893,5.284a18.7,18.7,0,0,1,4.887,2.3H59.248a3.521,3.521,0,0,0,1.348-1.963V201.8a15.393,15.393,0,0,0-2.066-.6" transform="translate(9.661 75.334)" fill="#ddccad"/>
        <path id="Trazado_654705" data-name="Trazado 654705" d="M41.811,202.291c-3.218,0-5.244-1.048-7.752-2.347-.556-.288-1.141-.591-1.773-.9a19.882,19.882,0,0,1-6.544-5.693l.635-.45a19.456,19.456,0,0,0,6.25,5.443c.638.313,1.228.617,1.789.908,2.74,1.418,4.717,2.441,8.284,2.233,1.654-.1,3.51-.245,5.305-.385,3.085-.245,6-.474,7.964-.474,3.217,0,4.431.915,4.481.954l-.478.614c-.007,0-1.1-.788-4-.788-1.934,0-4.834.228-7.9.471-1.8.142-3.658.289-5.32.386-.324.018-.635.028-.937.028" transform="translate(10.045 75.27)" fill="#d1b389"/>
        <path id="Trazado_654706" data-name="Trazado 654706" d="M44.1,195.161l.007,0-.007-.011a1.321,1.321,0,0,0-.021-.238,3.511,3.511,0,0,0-1.12-1.732,7.93,7.93,0,0,1-.464-6.36c1.695-4.019-12.6-2.476-12.6-2.476l-1.607,5.437c-.4,2.526,15.9,8.857,15.811,5.377" transform="translate(11.036 71.819)" fill="#d49666"/>
        <path id="Trazado_654707" data-name="Trazado 654707" d="M240.481,105.522c-3.836.5-9.5,8.5-13.021,14.08-2.932-9.263-10.187-24.808-10.187-24.808s-9.207,19.215-6.4,27.01,12.492,19.124,17.3,19.3,20.105-15.654,23.079-20.7-4.841-15.651-10.77-14.877" transform="translate(82.076 36.989)" fill="#73b3e9"/>
        <path id="Trazado_654708" data-name="Trazado 654708" d="M354.735,92.545c-4.75,0-12.612-9.142-12.983-9.578l-.941-1.1,1.367.482c1.486.524,14.523,5.215,14.906,8.358a1.421,1.421,0,0,1-.759,1.4,2.832,2.832,0,0,1-1.589.445m-11.375-8.939c3.282,3.583,9.769,9.655,12.535,7.842.409-.267.431-.5.413-.649-.222-1.836-7.543-5.17-12.948-7.193" transform="translate(132.985 31.943)" fill="#c0483e"/>
        <rect id="Rectángulo_309896" data-name="Rectángulo 309896" width="0.779" height="7.614" transform="matrix(0.998, -0.064, 0.064, 0.998, 350.151, 32.459)" fill="#7f593d"/>
        <path id="Trazado_654709" data-name="Trazado 654709" d="M337.372,88.6c-.916-1.258-1.478-5.569.309-6.738s7.4-1.186,8.379-.163-2.793,7.859-2.793,7.859-3.167,2.794-5.894-.958" transform="translate(131.306 31.591)" fill="#d5644d"/>
        <path id="Trazado_654710" data-name="Trazado 654710" d="M251.195,101.637s-1.425.573-5.444-.89,2.18-2.641,2.533-2.751,3.118,1.717,3.118,1.717Z" transform="translate(95.365 38.236)" fill="#687f50"/>
        <path id="Trazado_654711" data-name="Trazado 654711" d="M253.389,116.947c-1.514,2.1-2.534,4.919-5.55,5.4a4.245,4.245,0,0,1-3.049-.912,5.382,5.382,0,0,1-2.064.873c-1.682.266-3.477-.763-4.777-2.393a7.208,7.208,0,0,1-4.529-3.6,4.9,4.9,0,0,1-.217-2.728,4.486,4.486,0,0,1-1.489-1.8c-1.848-3.8,1.364-6.337,3.266-8.091.881-.817,2.361-3.514,4.051-6.811.36-.125,12.182-6.031,17.624,2.137-2.853,3.734-4.717,6.046-5.355,9.647-.272,1.5-.545,2.712-.8,3.7a3.043,3.043,0,0,1,2.892,4.575" transform="translate(90.199 36.954)" fill="#e8b47b"/>
        <path id="Trazado_654712" data-name="Trazado 654712" d="M298.1,34.94c15.537,1.04,18.075,7.664,19.923,15.555s1.946,20.752,11.244,36.626c6.033,10.3-22.645,7.668-22.937,6.856s-4.189-20.3-4.189-20.3,1.656-15.5,1.948-16.663S298.1,34.94,298.1,34.94" transform="translate(116.318 13.634)" fill="#7b9051"/>
        <path id="Trazado_654713" data-name="Trazado 654713" d="M310.6,48.324C328.523,101.777,352,104.5,352,104.5v17.39a49.413,49.413,0,0,1-9.986-2.825,57.719,57.719,0,0,1-29.226-18.705C299.783,85.021,310.6,48.324,310.6,48.324" transform="translate(119.55 18.856)" fill="#16c173"/>
        <path id="Trazado_654714" data-name="Trazado 654714" d="M255.087,82.459A293.3,293.3,0,0,0,250.9,45.948s17.765-13.133,29.5-3.285-25.316,39.8-25.316,39.8" transform="translate(97.901 15.218)" fill="#f46464"/>
        <path id="Trazado_654715" data-name="Trazado 654715" d="M255.872,90.311c-.585,9.548-.1,34.584,1.558,37.6s10.717,9.449,15.1,8.671,5.749-58.94,5.749-58.94l-9.451-6.43Z" transform="translate(99.749 27.789)" fill="#f46464"/>
        <path id="Trazado_654716" data-name="Trazado 654716" d="M212.321,77.127c-.228,3.41-2.274,5.294-4.97,5.586s2.989-5.586,2.989-5.586Z" transform="translate(80.626 30.095)" fill="#7e563c"/>
        <path id="Trazado_654717" data-name="Trazado 654717" d="M255.154,30.42c-6.834,3.082-9.352,11.626-8.248,17.8s7.4,12.079,13.834,10.2,22.537-14.288,39.618-14.939,17.081-1.493,17.405-1.428,3.053-14.743-6.754-19.1-44.62,2.4-55.855,7.47" transform="translate(96.245 8.411)" fill="#5840e2"/>
        <path id="Trazado_654718" data-name="Trazado 654718" d="M190.88,75.295c1.038,2.173,26.109,4.233,28.781-1.126s-14.528-8.921-14.528-8.921L191.774,70.8Z" transform="translate(74.481 25.46)" fill="#7e563c"/>
        <path id="Trazado_654719" data-name="Trazado 654719" d="M180.4,142.818a44.71,44.71,0,0,1,5.943,13.022s-10.522,18.315-11.009,18.412-1.8-3.263-1.8-3.263-1.9,3.945-2.728,3.751-5.406-23.088-5.406-23.088-7.21-14.76-6.966-15.832,7.6-12.032,9.4-12.567S180.4,142.818,180.4,142.818" transform="translate(61.819 48.089)" fill="#f4e8d0"/>
        <path id="Trazado_654720" data-name="Trazado 654720" d="M213.155,90.857c2.907-.17,5.878,3.678,7.144,7.867s-2.825,29.909-6.722,41.015-.423-48.882-.423-48.882" transform="translate(82.617 35.45)" fill="#ffd357"/>
        <path id="Trazado_654721" data-name="Trazado 654721" d="M193.688,79.887s-15.929.5-19.4,5.244-4.351,12.275-6.008,16.075,3.541,3.475,3.541,3.475-.455-10.425,3.831-10.944,11.982,7.956,11.982,7.956l36.793-1.981s4.162-3.6,4.386-8.1-2.762-8.2-8.672-10.217-26.45-1.51-26.45-1.51" transform="translate(65.534 31.15)" fill="#ffd357"/>
        <path id="Trazado_654722" data-name="Trazado 654722" d="M171.1,101.3s.129,18.844,1.429,29.67,6.235,17.384,9.385,18.424,9.384.715,9.644.584,4.871-40.267,3.962-43.709-6.235-8.917-7.924-11.765-3.182-5.234-6.624-5.828-8.833.512-8.833.512L169.8,95.55Z" transform="translate(66.255 34.532)" fill="#ffd357"/>
        <path id="Trazado_654723" data-name="Trazado 654723" d="M109.365,145.045c-4.335,9.743-4.385,13.785,1.8,17.341a36.254,36.254,0,0,0,12.519,4.271l1.852-21.612L115.7,135.3Z" transform="translate(41.476 52.795)" fill="#73a8e9"/>
        <path id="Trazado_654724" data-name="Trazado 654724" d="M164.7,113.142,111.784,106l-.63,6.253c-2.064-.2-1.732,3.159-2.8,3.991-2.922,2.29-1.412,11.35.926,21.629s0-.634,0-.634l52.965-5.846Z" transform="translate(41.653 41.361)" fill="#73b3e9"/>
        <path id="Trazado_654725" data-name="Trazado 654725" d="M138.963,97.4c-11.109-.042-27.671,5.155-28.581,12.168s15.134,16.432,20.59,15.847,11.252-8.248,11.252-8.248,14.319,7.5,18.972,4.011,1.975-13-11.885-19.776-10.349-4-10.349-4" transform="translate(43.056 37.788)" fill="#73b3e9"/>
        <path id="Trazado_654726" data-name="Trazado 654726" d="M84.8,47.547c-4.741-5.2-13.509-8.717-21.562-8.45C46.193,39.66,31.931,43.261,28.165,49.8c-1.592,2.765-1.066,9.166.114,15.78-2.039,3.5-1.5,10.379.924,16.97,3.248,8.833,5.846,16.25,5.846,16.25S55.461,90.477,55.777,89.7s11.357-5.975,11.357-5.975,14.678-7.73,14.612-7.924S89.539,52.742,84.8,47.547" transform="translate(10.544 15.25)" fill="#5840e2"/>
        <path id="Trazado_654727" data-name="Trazado 654727" d="M71.779,44.116c-8.757,4.13-23.9,6.036-25.27,2.191a1.636,1.636,0,0,1-.074-.758c-.008-.008-.008-.008-.008-.015a.05.05,0,0,0,.008-.033c.032-.163.065-.334.1-.5,1.051-3.715,9.263-10.559,18.729-14.012,8.309-3.031,17.686-2.811,20.667-.848l.327.245.057.049h.008a1.9,1.9,0,0,1,.431.555c1.321,2.7-8.5,10.085-14.972,13.132" transform="translate(18.114 11.191)" fill="#c0483e"/>
        <path id="Trazado_654728" data-name="Trazado 654728" d="M98.615,83.877c-5.187-6.084-9.631-10.9-12.744-14.156,1.646-3.577,3.125-7.046.388-10.457-4.141-5.163-29.226-12.275-34.1-10.229s-5.505,7.014-2.776,13.809-6.053,5.383-6.053,5.383c-15.673,9.3-19.667,28.057-19.229,32.442s3.021,13.735,10.912,15.586a9.453,9.453,0,0,0,1.337.213c-1.066,6.717-1.386,19.074,10.458,19.674-.138.541-.218.865-.218.865s-3.979,6.494,1.087,6.82,45.61-4.546,45.61-4.546,4.855.866,3.028-5.782c-.065-.241-.133-.467-.2-.685,1.615-2.3,3.467-6.261,4.382-12.89.182-1.322.307-2.558.4-3.745a17.107,17.107,0,0,0,1.8-1.189c8.573-6.364,6.04-19.225-4.091-31.111" transform="translate(9.393 18.993)" fill="#ffd357"/>
        <path id="Trazado_654729" data-name="Trazado 654729" d="M77.2,85.62s-3.8-13.367-8.675-21.5l.507-1.107A29.474,29.474,0,0,1,74.672,67.8C77.7,71.007,80.59,81.344,81.01,87.438S77.2,85.62,77.2,85.62" transform="translate(26.737 24.59)" fill="#5840e2"/>
        <path id="Trazado_654730" data-name="Trazado 654730" d="M44.215,58.872c-1.924-.286-5.723,1.912-6.893,4.659,2.167,1.672,11.179,7.262,14,20.116s1.656,27.379-2,34.116A104.373,104.373,0,0,1,39.278,132.1s1.526.859,2.5.286,17.373-9.827,18.283-31.934S53.939,69.306,44.215,58.872" transform="translate(14.563 22.962)" fill="#5840e2"/>
        <path id="Trazado_654731" data-name="Trazado 654731" d="M100.649,164.827c-.585-10.586-2.922-28.448-8.443-54.361,0,0-3.638-1.1-15.458-1.1S47.1,113.713,47.1,113.713c-6.43,16.075-7.307,28.74-9.548,43.547s-6.684,39.857-9.692,52.754c-2.159,9.255,15.631,10.978,17.825,5.853,1.946-4.552,14.957-38.246,19.372-50.715a211.313,211.313,0,0,0,6.6-25.167c5.181,20.576,9.3,39.216,10.934,50.236,1.754,11.821,3.507,23.9,5.2,26.888s15.652,1.949,15.522-2.662-2.078-39.034-2.662-49.62" transform="translate(10.8 42.673)" fill="#73b3e9"/>
        <path id="Trazado_654732" data-name="Trazado 654732" d="M81.2,134.673c-.368-2.561-4.9-1.624-5.033.975s1.526,15.976,2.7,18.314,2.678,2.632,2.678,2.632,1.739-7.438-.341-21.921" transform="translate(29.719 51.959)" fill="#73b3e9"/>
        <path id="Trazado_654733" data-name="Trazado 654733" d="M35.777,134.334c-1.7,1.123-1.266,5.261-1.266,5.261h.877s-2.646,14.831-2.1,16.172,10.278,3.117,12.421,2,6.153-17.633,6.316-20.492-12.794-5.229-16.253-2.939" transform="translate(12.962 52.059)" fill="#73b3e9"/>
        <path id="Trazado_654734" data-name="Trazado 654734" d="M130.214,106.721c-2.557,1.1-5.331,2.258-5.555,2.807-.77,1.889,4.653,15.366,6.8,15.487s6.745-4.408,8.159-4.457,4.36,4.435,6.161,3.994-.535-13.411-2.411-15c-1.385-1.175-6.626-3-6.626-3Z" transform="translate(48.613 41.577)" fill="#df7c36"/>
        <path id="Trazado_654735" data-name="Trazado 654735" d="M174.961,128.352c-6.624-10.457-9.612-15.978-20.913-18.672s-15.978-.065-15.978-.065c-6.332,1.136-12.925,5.747-14.678,7.891s-6.366,10.326-13.185,19.485S94.974,154.183,92.854,156.4c-3.43,3.584,6.342,17.4,14.384,10.57a132.564,132.564,0,0,0,15.51-15.615c-1,4.992-3.018,13.464-3.253,14.6-1.2,5.821,9.028,11.17,28.317,11.17s22.136-6.364,22.072-8.313c-.036-1.075-.346-8.623-.335-11.927.318-.019.631-.046.93-.088,6.43-.909,8.377-4.157,9.352-6.626s1.753-11.365-4.871-21.822" transform="translate(35.956 42.323)" fill="#df7c36"/>
        <path id="Trazado_654736" data-name="Trazado 654736" d="M117.767,113.186a4.783,4.783,0,0,0,.222,1.387,50.99,50.99,0,0,1,1.725,15.053c-.535,8.377-5.43,21.449-5.43,21.449l-.435,2.16s11.5-14.956,12.62-27.231-.309-16.883-.958-16.852-7.258,2.5-7.745,4.033" transform="translate(44.424 42.592)" fill="#73b3e9"/>
        <path id="Trazado_654737" data-name="Trazado 654737" d="M102.746,144.335a6.7,6.7,0,0,0-7.087-.684l-.025-.022c-.22.111-.449.241-.681.381a6.962,6.962,0,0,0-.8.519l0,0c-3.02,2.112-6.05,5.9-6,7.135a2.43,2.43,0,0,0,1.657,2.067,2.946,2.946,0,0,0-.61,3,4.2,4.2,0,0,0,3.759,2.249c.744,2.338,2.354,2.368,4.485,2.127.678,1.429,2.112,1.692,4.469,1.421,2.753-.317,3.758-1.443,3.338-2.461-.585-1.412-3.289-1.364-3.289-1.364a11.6,11.6,0,0,0,1.949-4.773,2.135,2.135,0,0,0-.253-.975L106.3,155.3c.076-3,.759-7.721-3.552-10.96" transform="translate(34.399 55.777)" fill="#dba469"/>
        <path id="Trazado_654738" data-name="Trazado 654738" d="M136.683,143.314a11.912,11.912,0,0,0,.724-6.27c-.78-3.165-2.728-6.844-8.037-6.893-2.78-.025-6.941,2.07-7.649,3.434s-1.875,5.529-.924,6.772a3.327,3.327,0,0,0,2.5.99,3.035,3.035,0,0,0,.762,2.693,2.027,2.027,0,0,0,2.593.075,3.289,3.289,0,0,0,.232,1.649c1.152,2.2,3.94,1.611,4.03,1.507.127.694.279,1.146.776,1.343,2.265.9,6.2-1.608,6.007-4.214-.06-.808-.474-1.086-1.016-1.086" transform="translate(46.996 50.785)" fill="#dba469"/>
        <path id="Trazado_654739" data-name="Trazado 654739" d="M141.1,110.416c-.357.374,2.826,4.931,4.091,10.521a50.817,50.817,0,0,1,.847,15.491h3.927a61.54,61.54,0,0,0,.78-13.413c-.391-7.371-2.924-9.223-4.19-10.261s-4.7-3.132-5.455-2.338" transform="translate(55.045 43.016)" fill="#73b3e9"/>
        <path id="Trazado_654740" data-name="Trazado 654740" d="M156.366,185.849s-1.738,3.227-7.03,4.98a18.878,18.878,0,0,1-10.817-.163s6.04-8.2,17.847-4.817" transform="translate(54.05 72.199)" fill="#ebc031"/>
        <path id="Trazado_654741" data-name="Trazado 654741" d="M281.2,36.686c10.618-4.14,24.331-4.191,29.36-3.435A40.412,40.412,0,0,1,320.9,36.686l8.281,31.469.685,19.094s2.627,21.431,1.264,39.259-56.407,14.711-60.889,11.984-6.819-3.9-6.722-6.918-.159-24.07.328-42.58,5.712-41.687,5.712-41.687Z" transform="translate(102.822 12.829)" fill="#16c173"/>
        <path id="Trazado_654742" data-name="Trazado 654742" d="M170.417,199.387C158.61,196,152.57,204.2,152.57,204.2s-5.939-16.133-8.737-23.67a44.139,44.139,0,0,0-3.819-7.973c-1.606,3.741-3.147,8.876-4.816,12.259-2.634,5.354-13.179,23.482-13.179,23.482a16.678,16.678,0,0,1-10.328-.731c-5.65-2.16-9.181-7.942-9.181-7.942s4.778-10.717,7.311-17.778,4.2-14.115,8.457-31.517c0,0,13.631,4.513,27.488,4.513,9.11,0,17.742-4,17.742-4s3.013,15.367,4.128,22.912,2.782,25.626,2.782,25.626" transform="translate(39.999 58.66)" fill="#ffd357"/>
        <path id="Trazado_654743" data-name="Trazado 654743" d="M291.52,71.528c-4.677,10.912-36.3,53.178-37.117,54.152-5.441-8.167-16.972-6.159-17.33-6.033,1.941-3.82,4.154-8.45,6.032-11.94,3.507-6.524,20.407-37.712,24.162-45.694,2.761-5.872,7.28-21.986,20.45-25.571,5.7-1.551,8.48,24.176,3.8,35.087" transform="translate(92.506 14.193)" fill="#16c173"/>
        <path id="Trazado_654744" data-name="Trazado 654744" d="M271.434,38.764c.1-.115,3.945-5.358,8.573-4.335s7.228,13.509,6.642,22.6-3.945,16.991-7.607,23.43c-3.906,6.869-11.473,13.671-11.473,13.671s-1.855.566-1.268-1.032,12.57-18.121,13.414-32.026c.779-12.859-2.08-22.993-3.7-22.733a20.152,20.152,0,0,0-4.4,1.714s-.583-.833-.175-1.292" transform="translate(103.866 13.383)" fill="#f46464"/>
        <path id="Trazado_654745" data-name="Trazado 654745" d="M316.71,87.286s-2.085-22.879-5.846-35.563c-3.512-11.849-7.037-17-13.646-18.346,1.988-1.1,6.43-.717,9.453,1.513s8.277,8.074,10.039,21.807c1.746,13.732,0,30.59,0,30.59" transform="translate(115.975 12.792)" fill="#f46464"/>
        <path id="Trazado_654746" data-name="Trazado 654746" d="M341.576,207.5s-2.276,2.853-7.863,3.242-15.128-1.816-15.128-1.816-4.225-25.135-6.172-44.229c-1.357-13.313-5.418-29.539-7.748-38.15-2.369,8.682-5.922,21.518-8.323,29.382-3.9,12.758-16.812,56.013-16.812,56.013s-2.283,2-9.687.687-15.3-7.015-15.3-7.015,9.546-34.815,12.47-52.74,4.481-42.537,4.871-47.167c0,0,25.329-6.15,39.615-6.15s21.565,1.817,21.565,1.817,4.029,23.186,5.066,41.244,3.445,64.882,3.445,64.882" transform="translate(99.323 38.846)" fill="#73b3e9"/>
        <path id="Trazado_654747" data-name="Trazado 654747" d="M265.928,21.5a8.852,8.852,0,0,1-6.181,6.648c-5.362,1.582-8.643.389-9.633-1.513s-1.513-6.4-1.513-6.4l-.335-2.487a3.788,3.788,0,0,1,.678-2.961,5.568,5.568,0,0,1,4.513-1.731c1.481.289,4.069,2.627,4.069,2.627l-1.068.163a.572.572,0,0,0-.484.609l.437,4.675a10.268,10.268,0,0,1,2.969-.521,41.374,41.374,0,0,1,6.546.888" transform="translate(96.85 5.074)" fill="#f4e8d0"/>
        <path id="Trazado_654748" data-name="Trazado 654748" d="M350.195,93.124c.7-2.137.6-3.57-1.6-5.273a7.787,7.787,0,0,0-8.9-1.082,2.618,2.618,0,0,0-1.218,3.812,2.879,2.879,0,0,0-1.4,1.164,2.291,2.291,0,0,0,.268,2.914,2.232,2.232,0,0,0-1.4,1.115c-.683,1.46.3,3.083.959,3.872a1.941,1.941,0,0,0-.8.7c-1.595,2.515,3.218,3.975,3.218,3.975s.973,5,3.516,4.03,5.976-2.165,6-4.246,1.325-3.9,1.7-5.572-1.055-3.271-.352-5.408" transform="translate(130.995 33.494)" fill="#e8b47b"/>
        <path id="Trazado_654749" data-name="Trazado 654749" d="M334.089,90.961c.755-2.362,2.29-5.65,3.727-5.552s3.317,2.846,2,5.71-3.583,3.4-4.9,2.425a2.45,2.45,0,0,1-.829-2.582" transform="translate(130.327 33.326)" fill="#e8b47b"/>
        <path id="Trazado_654750" data-name="Trazado 654750" d="M339.537,98.967S338.48,187.1,333.545,240.5h2.3s6.578-90.442,6.968-140.321Z" transform="translate(130.149 38.617)" fill="#7e563c"/>
        <path id="Trazado_654751" data-name="Trazado 654751" d="M248.807,100.176c.122,4.019,4.432,6.576,3.922,8.013s-4.848,2.387-7.137-1.852-4.846-5.65-4.846-5.65Z" transform="translate(93.939 39.089)" fill="#e8b47b"/>
        <path id="Trazado_654752" data-name="Trazado 654752" d="M192.182,89.413c-3.965,2.7-12.056,23.365-15,29.811-2.5,5.465-11.982,26.3-11.982,26.3s-.147,2.386,2.728,4.481,8.719,2.728,8.719,2.728,11.9-17.877,16.642-24.955,9.937-13.51,9.677-22.991-5.455-19-10.781-15.377" transform="translate(64.459 34.582)" fill="#73b3e9"/>
        <path id="Trazado_654753" data-name="Trazado 654753" d="M185.511,129.315c-3.248,16.951-5.066,28.057-4.871,29.486s5.391,4.546,5.391,4.546,39.423.585,42.02-1.038,2.664-3.9,1.949-7.47.149-13.584.05-30.769c-.057-10.022,1.248-27.423-6.35-32.684s-15.815-6.544-25.264-4.791-11.822,3.621-11.822,3.621Z" transform="translate(70.48 33.501)" fill="#73b3e9"/>
        <path id="Trazado_654754" data-name="Trazado 654754" d="M182.876,90.391a6.387,6.387,0,0,1,4.834-3.264c2.516-.146,7.425,1.461,10.631,6.772s4.424,13.168-.937,24.7c-3.93,8.452-13.844,17.935-13.844,17.935a1.8,1.8,0,0,1-1.029-.071,1.669,1.669,0,0,1-.628-.809s10.7-16,12.344-21c2.466-7.5,1.036-13.493-1.183-17.536-1.918-3.491-5.349-5.119-8.842-5.733L182.616,94a7.147,7.147,0,0,1,.26-3.61" transform="translate(70.979 33.993)" fill="#ffd357"/>
        <path id="Trazado_654755" data-name="Trazado 654755" d="M247.126,199.178c-.877-5.358-5.785-24.237-7.734-32.226s-8.427-28.544-8.427-28.544a104.827,104.827,0,0,1-15.538,1.412,215.716,215.716,0,0,1-29.324-1.867c-.065,2.338-3.93,30.85-5.034,38.643s-6.04,25.784-6.04,25.784A19.36,19.36,0,0,0,188,208.693c6.576.573,9.011-1.44,9.011-1.44s6.431-18.283,7.7-26.661c1.257-8.319,4.361-23.091,5.26-26.864,2.643,6.656,6.819,15.281,8.085,19.988,1.852,6.876,7.21,27.384,9.06,30.4s20.859.25,20.009-4.941" transform="translate(68.296 53.83)" fill="#f46464"/>
        <path id="Trazado_654756" data-name="Trazado 654756" d="M179.04,137.83c-1.825-2.308-2.419-1.091-1.51-3.852.6-1.838-3.573-4.335-6.884-4.546a4.023,4.023,0,0,0-3.573,1.3c-3.6,3.865-4.741,5.943-4.774,7.4a5.257,5.257,0,0,0,.812,2.85,4.42,4.42,0,0,0-.1,2.248,2.708,2.708,0,0,0,2.484,1.82,2.628,2.628,0,0,0,1.718,2.151,3.435,3.435,0,0,0,2.406-.459c.195,1.176.674,2.062,1.7,1.945,2.858-.325,1.754-5.943,3.962-7.989s3.6-.292,3.6-.292a2.084,2.084,0,0,0,.146-2.577" transform="translate(63.329 50.499)" fill="#e8b47b"/>
        <path id="Trazado_654757" data-name="Trazado 654757" d="M287.365,132.261a4.5,4.5,0,0,1-2.019.156c-1,5.939-3.92,22.656-5.354,23.5-1.761,1.02-18.346-2.135-18.807-2.922-.382-.663,2.4-16.625,3.32-21.815a.509.509,0,0,1-.2-.11c-.9-.81-.849-6.585,2.829-8.035,4.186-1.652,21.331.538,22.01,1.216s-.359,7.093-1.777,8.012" transform="translate(101.901 47.772)" fill="#73b3e9"/>
        <path id="Trazado_654758" data-name="Trazado 654758" d="M311.716,123.089c-.929,1.186,1.5,7.635,1.5,7.635s.67,24.3,1.96,25.327,3.095,1.237,3.507.619-.257-14.7-.516-18.776-.67-7.428-.67-7.428,2.889-3.662.516-7.376-6.293,0-6.293,0" transform="translate(121.549 47.385)" fill="#73b3e9"/>
        <path id="Trazado_654759" data-name="Trazado 654759" d="M79.2,86.7c4.335,13.807-1.506,32.084-1.506,32.084l-1.382.774S79.463,99.25,75.858,88,79.2,86.7,79.2,86.7" transform="translate(29.195 32.245)" fill="#5840e2"/>
        <path id="Trazado_654760" data-name="Trazado 654760" d="M50.84,35.43c-8.219,4.214-1.956,16.443,6,12.576s1.956-16.657-6-12.576" transform="translate(18.33 13.515)" fill="#7e563c"/>
        <path id="Trazado_654761" data-name="Trazado 654761" d="M81.27,82.067c-2.894-3.088-3.546-6.373-4.5-5.287s-.6,4.3,1.628,5.287,2.868,0,2.868,0" transform="translate(29.764 29.877)" fill="#d49666"/>
        <path id="Trazado_654762" data-name="Trazado 654762" d="M46.16,80.935c4.343-4.248,5.322-8.772,6.747-7.278s.9,5.914-2.444,7.278-4.3,0-4.3,0" transform="translate(18.012 28.627)" fill="#d49666"/>
        <path id="Trazado_654763" data-name="Trazado 654763" d="M55.937,44.69s-2.145,10.012-1.945,10.9c.113.5,6.863,4.7,10,4.472s.694-6.715,2.419-10.5-10.47-4.868-10.47-4.868" transform="translate(21.062 17.438)" fill="#d49666"/>
        <path id="Trazado_654764" data-name="Trazado 654764" d="M83.341,81.17a6.1,6.1,0,0,0-3.216-2.241c-1.558-.56-5.76-.584-6.441.391a1.607,1.607,0,0,0,.47,2.4,2.167,2.167,0,0,0-1.36,1.312,2.521,2.521,0,0,0,1.3,2.9c-1.158.987-.21,2.369.777,2.726-.57.815-.295,2.294,1.621,2.815,2.241.609,2.63-.22,3.362.267A4.6,4.6,0,0,1,81.1,93.2s2.99-1.9,3.552-4.547a9.7,9.7,0,0,0-1.311-7.485" transform="translate(28.36 30.647)" fill="#d49666"/>
        <path id="Trazado_654765" data-name="Trazado 654765" d="M62.15,85.058c.6-1.436.706-2.9-.859-3.791a8.6,8.6,0,0,0-1.214-.443,3.446,3.446,0,0,0-.848-3.275c-1.689-1.3-8.151-.924-9.223,0s-3.3,2.858-4.807,3.378-1.785.178-2.4.787c-2.573,2.54-1.315,9.474,2.607,11.375s8.045.129,10.415-.325,2.63,1.526,2.63,1.526,4.125-.471,4.709-3.068a2.245,2.245,0,0,0-.841-2.16,1.861,1.861,0,0,0,1.291-1.855,2.415,2.415,0,0,0-1.458-2.148" transform="translate(16.175 29.932)" fill="#d49666"/>
        <path id="Trazado_654766" data-name="Trazado 654766" d="M54.476,51.3c1.112,3.139,4.382,10.376,11.832,8.929s9.538-17.065,9.448-24.013-2.2-11.414-9.708-12.394S51.576,34.156,51.576,34.156Z" transform="translate(20.125 9.272)" fill="#d49666"/>
        <path id="Trazado_654767" data-name="Trazado 654767" d="M62.846,46.045a4.147,4.147,0,0,1-1.083-.14,5.364,5.364,0,0,1-3.227-2.842l.684-.375a4.629,4.629,0,0,0,2.735,2.462,3.993,3.993,0,0,0,2.807-.38l.4.666a4.843,4.843,0,0,1-2.32.609" transform="translate(22.841 16.657)" fill="#a56f58"/>
        <path id="Trazado_654768" data-name="Trazado 654768" d="M64.448,30.4c7.15,3.767,6.143,8.736,6.143,8.736S74.3,37.262,73.9,33.388,65,26.473,65,26.473Z" transform="translate(25.148 10.33)" fill="#7e563c"/>
        <path id="Trazado_654769" data-name="Trazado 654769" d="M69.646,34.97a4.968,4.968,0,0,1-1.621-.335c-1.44-.525-2.737-1.529-2.39-2.583a1.051,1.051,0,0,1,.859-.706c1.154-.213,3.181.824,3.975,1.795a1.2,1.2,0,0,1,.325,1.247,1.115,1.115,0,0,1-1.148.582M66.839,32.1a1.154,1.154,0,0,0-.2.017c-.213.039-.245.138-.26.184-.145.439.733,1.175,1.916,1.608,1.13.414,1.739.289,1.779.192.026-.065-.013-.225-.206-.462A5,5,0,0,0,66.839,32.1" transform="translate(25.589 12.22)" fill="#684837"/>
        <path id="Trazado_654770" data-name="Trazado 654770" d="M59.154,37.871a.733.733,0,1,0,.685-.924.826.826,0,0,0-.685.924" transform="translate(23.082 14.416)" fill="#7e5843"/>
        <path id="Trazado_654771" data-name="Trazado 654771" d="M65.859,38.545a.733.733,0,1,0,.685-.924.826.826,0,0,0-.685.924" transform="translate(25.698 14.679)" fill="#7e5843"/>
        <path id="Trazado_654772" data-name="Trazado 654772" d="M76.989,29.562,49.649,35.72s.1-1.016.3-2.466v-.01c.4-2.81,1.222-7.218,2.6-8.928,2.087-2.591,14.208-6.209,17.059-4.219a25.582,25.582,0,0,1,4.782,5.514.227.227,0,0,0,.024.033c1.467,2.085,2.575,3.918,2.575,3.918" transform="translate(19.373 7.618)" fill="#d5644d"/>
        <path id="Trazado_654773" data-name="Trazado 654773" d="M70.882,26.654C68.614,34.116,55.6,40.371,55.6,40.371s-4.995,2.123-5.383-1.539S64.2,25.059,64.2,25.059Z" transform="translate(19.59 9.778)" fill="#7e563c"/>
        <path id="Trazado_654774" data-name="Trazado 654774" d="M76.989,28.19l-27.34,6.159s.1-1.016.3-2.466v-.01c.285-.327,6.232-7.161,14.647-8.415,8.008-1.2,9.6.53,9.793.781a.227.227,0,0,0,.024.033c1.467,2.085,2.575,3.918,2.575,3.918" transform="translate(19.373 8.99)" fill="#ebc031"/>
        <path id="Trazado_654775" data-name="Trazado 654775" d="M48.667,40.286H48.66v-.014c0,.007,0,.007.007.014" transform="translate(18.987 15.714)" fill="#df8756"/>
        <path id="Trazado_654776" data-name="Trazado 654776" d="M85.9,31.764c-2.982-1.963-12.357-2.183-20.667.847-9.467,3.455-17.678,10.3-18.729,14.012a76.27,76.27,0,0,1,3.781-12.129s5.532-7.3,13.774-9.1,12.9-.3,12.9-.3Z" transform="translate(18.145 9.563)" fill="#d5644d"/>
        <path id="Trazado_654777" data-name="Trazado 654777" d="M57.309,41.908c-2.968,2.482-7.089.221-6.722-2.974s3.986-4.431,6.419-3.3Z" transform="translate(19.73 13.744)" fill="#d49666"/>
        <path id="Trazado_654778" data-name="Trazado 654778" d="M64.819,38.678c-.076-.81-.156-1.653-.211-2.491l-.777.051c.056.845.136,1.7.213,2.513.206,2.192.438,4.677-.12,5.158-.592.509-2.133-.161-2.627-.435l-.378.68a5.641,5.641,0,0,0,2.376.719,1.7,1.7,0,0,0,1.139-.373c.863-.744.653-2.985.386-5.822" transform="translate(23.77 14.12)" fill="#b77f4f"/>
        <path id="Trazado_654779" data-name="Trazado 654779" d="M58.182,49.146l-.4.667A9.285,9.285,0,0,0,62.1,51.033a5.752,5.752,0,0,0,2.138-.392l-.288-.724c-2.668,1.059-5.742-.751-5.772-.77" transform="translate(22.546 19.177)" fill="#b77f4f"/>
        <path id="Trazado_654780" data-name="Trazado 654780" d="M51.991,37.146l.174.759a3.691,3.691,0,0,1,1.207-.017l-.309,1.223.755.19.3-1.183a2.176,2.176,0,0,1,.523.335l.519-.582a3.848,3.848,0,0,0-3.167-.726" transform="translate(20.287 14.463)" fill="#b77f4f"/>
        <path id="Trazado_654781" data-name="Trazado 654781" d="M59.33,33.768c-1.126,0-2.192-.252-2.342-1.013a.919.919,0,0,1,.367-.9,6.657,6.657,0,0,1,4.941-.712,1.128,1.128,0,0,1,.847.841c.132.748-.68,1.344-2.227,1.633a8.894,8.894,0,0,1-1.585.149m1.519-2.046a5.578,5.578,0,0,0-2.985.724c-.074.064-.12.127-.114.157.054.27,1.364.559,3.021.25,1.171-.22,1.628-.591,1.6-.733-.015-.081-.142-.171-.341-.242a3.708,3.708,0,0,0-1.184-.157" transform="translate(22.23 12.075)" fill="#684837"/>
        <path id="Trazado_654782" data-name="Trazado 654782" d="M71.634,60.789c-.295,0-.617-.01-.973-.028-9.241-.481-20.807-7.331-22.107-9.426a.777.777,0,0,1-.118-.73c.571-1.321,5.152-.215,7.832.559l-.217.749c-3.266-.945-6.4-1.411-6.866-1.032.582,1.478,12.255,8.618,21.518,9.1,2.345.122,2.623-.222,2.634-.238C73.31,59.291,71,57.857,68.38,56.7l.316-.712c2.14.944,5.687,2.714,5.393,3.951-.139.583-.887.848-2.455.848" transform="translate(18.881 19.507)" fill="#d39644"/>
        <path id="Trazado_654783" data-name="Trazado 654783" d="M74.436,81.426l-.167-.762a10.465,10.465,0,0,1,3.874-.218l-.232.744a9.849,9.849,0,0,0-3.475.236" transform="translate(28.98 31.34)" fill="#b7724f"/>
        <path id="Trazado_654784" data-name="Trazado 654784" d="M74.516,84.338l-.293-.723c.108-.044,2.721-1.087,4.5-.46l-.259.735c-1.5-.528-3.922.438-3.945.448" transform="translate(28.962 32.369)" fill="#b7724f"/>
        <path id="Trazado_654785" data-name="Trazado 654785" d="M75.331,86.275l-.325-.708a5.626,5.626,0,0,1,3.977-.235l-.292.723a4.862,4.862,0,0,0-3.36.22" transform="translate(29.267 33.187)" fill="#b7724f"/>
        <rect id="Rectángulo_309897" data-name="Rectángulo 309897" width="0.779" height="2.825" transform="matrix(0.064, -0.998, 0.998, 0.064, 73.07, 110.864)" fill="#b7724f"/>
        <rect id="Rectángulo_309898" data-name="Rectángulo 309898" width="0.78" height="3.156" transform="translate(74.152 114.635) rotate(-80.235)" fill="#b7724f"/>
        <path id="Trazado_654786" data-name="Trazado 654786" d="M56.557,86.172a6.353,6.353,0,0,0-2.81-.666l-.068-.777a7.071,7.071,0,0,1,3.231.748Z" transform="translate(20.946 33.056)" fill="#b7724f"/>
        <path id="Trazado_654787" data-name="Trazado 654787" d="M100.553,147.468c-2.376-.546-2.608,2.5-2.525,3.7.1,1.4,2.034,6.028,3.982,5.345s.449-3.856.573-5.735c.133-2.023-.617-2.988-2.03-3.313" transform="translate(38.246 57.517)" fill="#dba469"/>
        <path id="Trazado_654788" data-name="Trazado 654788" d="M125.182,104.045c1.218,4.531,2.094,8.622,2.094,8.622s9.79,8.865,11.933,8.671,1.949-8.379,1.949-9.256-1.234-9.774-1.234-9.774Z" transform="translate(48.846 39.92)" fill="#e8b47b"/>
        <path id="Trazado_654789" data-name="Trazado 654789" d="M140.452,92.375a4.155,4.155,0,0,1,.286,4.871h-1.317l-.762-5.326.528-1.589,1.143.7Z" transform="translate(54.105 35.247)" fill="#7e563c"/>
        <path id="Trazado_654790" data-name="Trazado 654790" d="M122.3,107.765s.894,3.57,2.035,4.881,6.089,4.759,12.756,4.027a9.81,9.81,0,0,0,9.042-7.679c.6-2.222-.086-5.625.7-9.36.735-3.488-.662-7.964-.662-7.964l-4.793-5.73-16.625,1.305-4.26,10s1.621,7.716,1.8,10.521" transform="translate(47.016 33.533)" fill="#e8b47b"/>
        <path id="Trazado_654791" data-name="Trazado 654791" d="M133.263,101.441a1.879,1.879,0,0,1-1.091-.335l.453-.634a1.227,1.227,0,0,0,1.329-.011.838.838,0,0,0,.389-.909c-.1-.5-.633-.962-1.2-1.451a3.8,3.8,0,0,1-1.727-2.708l.779-.008c.008.869.713,1.481,1.46,2.127a3.786,3.786,0,0,1,1.449,1.888,1.611,1.611,0,0,1-.73,1.717,2.061,2.061,0,0,1-1.115.325" transform="translate(51.281 37.219)" fill="#cc9363"/>
        <path id="Trazado_654792" data-name="Trazado 654792" d="M134.964,97.551l-.585-.516a3.58,3.58,0,0,1,2.235-1.158,2.471,2.471,0,0,1,1.846.747l-.535.567a1.713,1.713,0,0,0-1.271-.537,2.821,2.821,0,0,0-1.69.9" transform="translate(52.435 37.411)" fill="#684837"/>
        <path id="Trazado_654793" data-name="Trazado 654793" d="M126.585,98.477,125.969,98a4.038,4.038,0,0,1,5.106-.99l-.37.685a3.221,3.221,0,0,0-4.121.783" transform="translate(49.153 37.642)" fill="#684837"/>
        <path id="Trazado_654794" data-name="Trazado 654794" d="M133.208,103.654a5.179,5.179,0,0,1-3.855-1.8l.61-.485a4.37,4.37,0,0,0,3.777,1.469,5.241,5.241,0,0,0,3.542-1.9l.641.445a5.986,5.986,0,0,1-4.089,2.23,5.178,5.178,0,0,1-.627.039" transform="translate(50.474 39.387)" fill="#a56f58"/>
        <path id="Trazado_654795" data-name="Trazado 654795" d="M137.463,95.184a6.209,6.209,0,0,1-2.331-.5c-1.032-.45-1.515-1.1-1.328-1.791a.95.95,0,0,1,.863-.659c1.228-.2,3.685.708,4.25,1.56a.749.749,0,0,1,.046.837,1.72,1.72,0,0,1-1.5.549m-2.413-2.2c-.352,0-.485.083-.493.114-.088.317.4.659.888.872,1.271.557,2.7.506,2.858.247a5.516,5.516,0,0,0-3.217-1.233h-.036" transform="translate(52.195 35.981)" fill="#684837"/>
        <path id="Trazado_654796" data-name="Trazado 654796" d="M125.248,97.417a.807.807,0,0,1-.731-.331,1.055,1.055,0,0,1,.1-1.108c.7-1.251,3.309-3.385,4.774-3.385h.017a1,1,0,0,1,.923.523c.564,1.072-.936,2.441-2.527,3.364a6.443,6.443,0,0,1-2.557.937m-.068-.774a7.725,7.725,0,0,0,3.988-2.166c.4-.425.578-.8.474-1s-.613-.053-.763,0c-1.652.569-3.667,2.615-3.7,3.165" transform="translate(48.541 36.13)" fill="#684837"/>
        <path id="Trazado_654797" data-name="Trazado 654797" d="M123.18,99.613c.058-.145,2.124-7.251,2.124-7.251s-3.8.681-5.338,1.8-.464,5.951-.464,5.951Z" transform="translate(46.488 36.04)" fill="#7e563c"/>
        <path id="Trazado_654798" data-name="Trazado 654798" d="M124.851,103.39a3.915,3.915,0,0,1-6.054-4.966c1.412-1.492,3.708-1.325,5.06-.815s.994,5.78.994,5.78" transform="translate(45.999 37.945)" fill="#e8b47b"/>
        <rect id="Rectángulo_309899" data-name="Rectángulo 309899" width="0.779" height="3.496" transform="translate(165.717 138.147) rotate(-76.688)" fill="#cc9363"/>
        <rect id="Rectángulo_309900" data-name="Rectángulo 309900" width="1.705" height="0.78" transform="translate(166.616 139.676) rotate(-72.244)" fill="#cc9363"/>
        <path id="Trazado_654799" data-name="Trazado 654799" d="M128.591,130.42c-3.362-.535-6.439-1.852-6.138,0s3.507,3.994,5.261,3.751.877-3.751.877-3.751" transform="translate(47.774 50.517)" fill="#dba469"/>
        <path id="Trazado_654800" data-name="Trazado 654800" d="M122.283,99.918s3.977-4.707,4.9-7.621-5.629.908-5.629.908Z" transform="translate(47.431 35.587)" fill="#7e563c"/>
        <path id="Trazado_654801" data-name="Trazado 654801" d="M137.414,90.911a6.8,6.8,0,0,1,3.028,5.48c.128,3.783.863-2.829.863-2.829l-.8-2.651Z" transform="translate(53.619 35.473)" fill="#7e563c"/>
        <path id="Trazado_654802" data-name="Trazado 654802" d="M138.694,102.181c3.977.962,6.028-1.022,6.227-2.994s-1-4.6-5.185-4.312-1.041,7.307-1.041,7.307" transform="translate(53.675 37.011)" fill="#e8b47b"/>
        <rect id="Rectángulo_309901" data-name="Rectángulo 309901" width="2.787" height="0.779" transform="matrix(0.957, -0.291, 0.291, 0.957, 194.076, 135.275)" fill="#cc9363"/>
        <rect id="Rectángulo_309902" data-name="Rectángulo 309902" width="0.78" height="1.546" transform="matrix(0.927, -0.374, 0.374, 0.927, 195.004, 135.435)" fill="#cc9363"/>
        <path id="Trazado_654803" data-name="Trazado 654803" d="M123.445,97.014c-2.533,1.218-3.637,1.672-3.637,1.672s-.395-9.2,2.273-11.68c1.734-1.614,9.352-5.433,13.606-5.564a9.841,9.841,0,0,1,7.632,3.323c.941.975,3.214,6.843,3.214,6.843Z" transform="translate(46.741 31.777)" fill="#1cf290"/>
        <path id="Trazado_654804" data-name="Trazado 654804" d="M132.774,109.057a19.659,19.659,0,0,1-5.5-.847l.242-.741a18.17,18.17,0,0,0,6.873.709c3.277-.42,4.55-1.454,4.563-1.464l.5.594c-.056.049-1.426,1.19-4.967,1.643a13.276,13.276,0,0,1-1.715.106" transform="translate(49.663 41.64)" fill="#cc9363"/>
        <path id="Trazado_654805" data-name="Trazado 654805" d="M131.734,123.851c-.086,0-.174,0-.26-.01-3.053-.232-6.619-11.75-7.015-13.062l.745-.225c1.44,4.76,4.431,12.366,6.328,12.51,1.444.117,3.154-1.013,4.659-2.006,1.342-.886,2.609-1.721,3.691-1.721,1.2,0,2.362.944,3.387,1.777.884.72,1.8,1.462,2.381,1.265a.366.366,0,0,0,.143-.186c.752-1.625-.612-8.8-1.354-10.7l.726-.282c.628,1.61,2.3,9.239,1.335,11.313a1.049,1.049,0,0,1-.6.6c-.987.339-2.027-.5-3.125-1.4-.969-.79-1.971-1.6-2.894-1.6-.848,0-2.02.773-3.263,1.592-1.528,1.008-3.248,2.142-4.885,2.142" transform="translate(48.564 43.138)" fill="#c2623b"/>
        <path id="Trazado_654806" data-name="Trazado 654806" d="M129.116,130.086l-.509-.591c1.226-1.054,3.563-.915,6.268-.756,1.208.07,2.454.142,3.722.124,4.05-.064,18.23,0,18.373,0l0,.779c-.143,0-14.316-.063-18.356,0-1.3.021-2.558-.053-3.78-.125-2.536-.147-4.728-.278-5.714.57" transform="translate(50.182 50.191)" fill="#c2623b"/>
        <path id="Trazado_654807" data-name="Trazado 654807" d="M148.859,144.23c-5.482,0-13.952-.222-15.882-1.543l.439-.644c2.192,1.5,15.319,1.483,20.191,1.351l.022.78c-.234.006-2.166.056-4.771.056" transform="translate(51.888 55.425)" fill="#c2623b"/>
        <path id="Trazado_654808" data-name="Trazado 654808" d="M134.182,141.978l-.752-.207a9.5,9.5,0,0,0-.9-7.695,5.863,5.863,0,0,0-3.6-3.086l.156-.763a6.623,6.623,0,0,1,4.132,3.481,10.211,10.211,0,0,1,.962,8.27" transform="translate(50.31 50.815)" fill="#c2623b"/>
        <path id="Trazado_654809" data-name="Trazado 654809" d="M104.908,152.476l-.78-.008a9.023,9.023,0,0,0-4.108-8.08c-3.079-2.212-6.492-.085-6.527-.063l-.418-.659c.039-.024,3.894-2.426,7.4.089a9.857,9.857,0,0,1,4.433,8.721" transform="translate(36.318 55.646)" fill="#c2623b"/>
        <path id="Trazado_654810" data-name="Trazado 654810" d="M109.333,125.65a103.483,103.483,0,0,1,.475-15.184l.774.086a102.6,102.6,0,0,0-.471,15.045Z" transform="translate(42.613 43.104)" fill="#6993d6"/>
        <path id="Trazado_654811" data-name="Trazado 654811" d="M117.326,114.68l-.78-.019a6.1,6.1,0,0,1,4.057-5.426c3.314-1.082,4.761.822,4.823.9l-.63.462c-.044-.061-1.2-1.522-3.95-.623a5.213,5.213,0,0,0-3.52,4.7" transform="translate(45.476 42.494)" fill="#6993d6"/>
        <path id="Trazado_654812" data-name="Trazado 654812" d="M149.809,118.891c-.007-.053-.73-5.359-4.567-7.539a2.923,2.923,0,0,0-3.649.167l-.57-.531a3.706,3.706,0,0,1,4.6-.314c4.179,2.374,4.925,7.885,4.955,8.119Z" transform="translate(55.027 42.938)" fill="#6993d6"/>
        <path id="Trazado_654813" data-name="Trazado 654813" d="M119.716,113.836c-6.736-2.363-8.928-7.314-9.018-7.524l.716-.307a14.831,14.831,0,0,0,8.561,7.1Z" transform="translate(43.194 41.363)" fill="#6993d6"/>
        <path id="Trazado_654814" data-name="Trazado 654814" d="M139.833,155.186c-10.689,0-24.7-3.962-24.843-4l.213-.748c.139.039,14.052,3.97,24.63,3.97a46.535,46.535,0,0,0,18.631-3.945l.346.7a47.336,47.336,0,0,1-18.978,4.027" transform="translate(44.869 58.7)" fill="#c2623b"/>
        <path id="Trazado_654815" data-name="Trazado 654815" d="M94.629,157.717c-.84-2.3,1.375-5.6,1.471-5.735l.644.438c-.021.031-2.085,3.1-1.382,5.03Z" transform="translate(36.85 59.303)" fill="#be8b54"/>
        <path id="Trazado_654816" data-name="Trazado 654816" d="M91.354,156.071c-.417-1.918,2.034-5.1,2.315-5.455l.612.482c-.7.888-2.452,3.485-2.165,4.807Z" transform="translate(35.628 58.77)" fill="#be8b54"/>
        <path id="Trazado_654817" data-name="Trazado 654817" d="M89.792,151.632l-.692-.359a9.334,9.334,0,0,1,1.959-2.483l.509.591a8.688,8.688,0,0,0-1.775,2.251" transform="translate(34.767 58.058)" fill="#be8b54"/>
        <path id="Trazado_654818" data-name="Trazado 654818" d="M99.045,153.507a17.509,17.509,0,0,1-1.059-2.29l.734-.266a16.9,16.9,0,0,0,1.008,2.177Z" transform="translate(38.234 58.902)" fill="#be8b54"/>
        <path id="Trazado_654819" data-name="Trazado 654819" d="M127.707,143.909c-.268-2.023,1.257-4.887,1.322-5.008l.687.37c-.015.028-1.471,2.762-1.236,4.535Z" transform="translate(49.819 54.199)" fill="#be8b54"/>
        <path id="Trazado_654820" data-name="Trazado 654820" d="M125.406,141.585l-.774-.081a18,18,0,0,1,1.483-4.766l.7.334a17.547,17.547,0,0,0-1.414,4.513" transform="translate(48.631 53.356)" fill="#be8b54"/>
        <path id="Trazado_654821" data-name="Trazado 654821" d="M122.992,139.722l-.773-.095a20.366,20.366,0,0,1,1.589-5.192l.706.329a19.9,19.9,0,0,0-1.522,4.957" transform="translate(47.69 52.457)" fill="#be8b54"/>
        <path id="Trazado_654822" data-name="Trazado 654822" d="M123.3,132.032l-.377-.681a15.285,15.285,0,0,1,2.965-1.189l.209.751a14.745,14.745,0,0,0-2.8,1.119" transform="translate(47.964 50.789)" fill="#be8b54"/>
        <path id="Trazado_654823" data-name="Trazado 654823" d="M121.815,98.331l-.717-.306a25.558,25.558,0,0,0,1.362-4.942l.769.124a25.877,25.877,0,0,1-1.414,5.124" transform="translate(47.252 36.321)" fill="#684837"/>
        <path id="Trazado_654824" data-name="Trazado 654824" d="M54.027,44.894a5.426,5.426,0,0,1-3.688-1.279c-2.252-1.964-2.269-5.443-2.269-5.59h.779c0,.033.022,3.278,2,5a5.157,5.157,0,0,0,4.268,1.005l.107.772a8.654,8.654,0,0,1-1.2.088" transform="translate(18.757 14.837)" fill="#684837"/>
        <path id="Trazado_654825" data-name="Trazado 654825" d="M125.781,94.373l-.341-.189-.386,0c-.006-.058-.032-.188-.07-.375-1.518-7.764.888-10.7,3.174-11.8l.336.7c-2.964,1.421-3.887,5.1-2.744,10.942.1.5.111.571.031.717" transform="translate(48.584 32)" fill="#00bf68"/>
        <path id="Trazado_654826" data-name="Trazado 654826" d="M134.242,89.036a7.162,7.162,0,0,1-4.525-2.989.973.973,0,0,1,.264-1.255c1.169-.88,4.628-.81,5.379-.242.587.445.555,1.9.345,2.8-.225.963-.674,1.557-1.262,1.67a1.115,1.115,0,0,1-.2.018M133.055,84.9a5.119,5.119,0,0,0-2.6.514c-.054.04-.121.09-.021.316.492,1.109,3.188,2.671,3.866,2.522.225-.043.457-.391.6-.908a3.328,3.328,0,0,0-.014-2.176,4.291,4.291,0,0,0-1.832-.268" transform="translate(50.57 32.826)" fill="#00bf68"/>
        <path id="Trazado_654827" data-name="Trazado 654827" d="M77.239,208.048c-.046-.324-4.66-32.426-6.007-40.071s-8.689-38.089-8.762-38.4l.758-.182c.074.306,7.422,30.78,8.772,38.442s5.965,39.772,6.011,40.1Z" transform="translate(24.376 50.492)" fill="#6993d6"/>
        <rect id="Rectángulo_309903" data-name="Rectángulo 309903" width="8.371" height="0.78" transform="matrix(0.397, -0.918, 0.918, 0.397, 179.659, 231.069)" fill="#d3a244"/>
        <path id="Trazado_654828" data-name="Trazado 654828" d="M137.713,187.722l-.564-.539c.079-.083,8.19-8.38,19.578-3.861l-.288.724c-10.906-4.329-18.648,3.6-18.726,3.676" transform="translate(53.516 71.007)" fill="#d3a244"/>
        <path id="Trazado_654829" data-name="Trazado 654829" d="M120.7,192.522c-10.518,0-17.162-9.035-17.234-9.134l.633-.456c.075.1,7.679,10.418,19.371,8.593l.12.77a18.613,18.613,0,0,1-2.889.227" transform="translate(40.371 71.38)" fill="#d3a244"/>
        <path id="Trazado_654830" data-name="Trazado 654830" d="M193.354,85c-5.883,4.6,6.045,17.733,17.685,17.151s6.439-11.932,3.452-15.13C210.65,82.912,200.654,79.3,193.354,85" transform="translate(74.842 32.016)" fill="#73b3e9"/>
        <path id="Trazado_654831" data-name="Trazado 654831" d="M192.39,71.614c-4.451,4.189-1.821,14.386,8.116,11.5s-5.748-12.079-5.748-12.079Z" transform="translate(74.255 27.716)" fill="#7e563c"/>
        <rect id="Rectángulo_309904" data-name="Rectángulo 309904" width="5.234" height="0.78" transform="translate(277.905 207.421) rotate(-69.337)" fill="#c0483e"/>
        <path id="Trazado_654832" data-name="Trazado 654832" d="M207.669,92.682c-.235.883-4.528,1.315-10.618-3.165-.462-.339-.058-5.081-.382-8.2s11.131-1.189,11.141.025c.029,3.446.455,9.118-.14,11.345" transform="translate(76.737 31.068)" fill="#e8b47b"/>
        <path id="Trazado_654833" data-name="Trazado 654833" d="M206.3,94.887c-4.175.252-10.317-3.635-12.1-8.2S192.514,75.8,192.514,75.8s-2.316-13.322,8.29-14.58,16.182,6.373,16.524,12.6a36.891,36.891,0,0,1-1.866,14.022c-.92,2.391-3.271,6.688-9.157,7.044" transform="translate(75.036 23.834)" fill="#e8b47b"/>
        <path id="Trazado_654834" data-name="Trazado 654834" d="M204.489,68.907s7.146,3.057,8.078,7.763.859,1.589.859,1.589a4.249,4.249,0,0,0,.968-4.565c-.9-3.058-3.7-7.344-7.276-7.223s-2.629,2.437-2.629,2.437" transform="translate(79.747 25.936)" fill="#7e563c"/>
        <path id="Trazado_654835" data-name="Trazado 654835" d="M194.147,73.728c-2.925.107-4.759,1.97-4.282,4.465s3.289,3.562,5.81,2.362-1.528-6.827-1.528-6.827" transform="translate(74.056 28.769)" fill="#e8b47b"/>
        <path id="Trazado_654836" data-name="Trazado 654836" d="M208.729,73.336c2.384-.093,4.745,1.369,4.743,3.906s-2.451,3.83-4.952,3.074.209-6.98.209-6.98" transform="translate(80.951 28.614)" fill="#e8b47b"/>
        <path id="Trazado_654837" data-name="Trazado 654837" d="M209.63,67.694s-.124,6.868-16.578,8.411c-3.017.284-.275-5.63-.275-5.63a41.466,41.466,0,0,1,16.853-2.78" transform="translate(74.776 26.391)" fill="#7e563c"/>
        <path id="Trazado_654838" data-name="Trazado 654838" d="M191.5,77.748c2.158-3.537,11.357-6.908,19.1-5.883s9.679,4.757,9.679,4.757a6.376,6.376,0,0,0,.874-4.845,6.713,6.713,0,0,0-2.394-4.007s-3.132-10.483-15.328-8.576a13.829,13.829,0,0,0-11.8,10.3,6.831,6.831,0,0,0-1.432,4.164,9.249,9.249,0,0,0,1.3,4.086" transform="translate(74.214 23.007)" fill="#1cf290"/>
        <path id="Trazado_654839" data-name="Trazado 654839" d="M203.724,79.307a1.711,1.711,0,0,1-1.093-.336l.5-.6a1.426,1.426,0,0,0,1.247.025,1.079,1.079,0,0,0,.727-.906c.039-.4-.222-.715-.655-1.2a2.7,2.7,0,0,1-.83-3.032l.73.271c-.386,1.041.108,1.6.681,2.244a2.36,2.36,0,0,1,.849,1.8,1.848,1.848,0,0,1-1.211,1.55,2.549,2.549,0,0,1-.951.186" transform="translate(79.067 28.586)" fill="#be8b54"/>
        <path id="Trazado_654840" data-name="Trazado 654840" d="M204.5,81.373a5.489,5.489,0,0,1-4.727-2.979l.673-.395a4.566,4.566,0,0,0,6.147,2.1l.334.7a5.627,5.627,0,0,1-2.427.576" transform="translate(77.951 30.435)" fill="#a56f58"/>
        <path id="Trazado_654841" data-name="Trazado 654841" d="M199.048,74.061a.807.807,0,1,0,.724-1.038.907.907,0,0,0-.724,1.038" transform="translate(77.668 28.493)" fill="#684837"/>
        <path id="Trazado_654842" data-name="Trazado 654842" d="M206.08,74.061a.807.807,0,1,0,.724-1.038.907.907,0,0,0-.724,1.038" transform="translate(80.411 28.493)" fill="#684837"/>
        <path id="Trazado_654843" data-name="Trazado 654843" d="M198.435,72.386c-.742,0-1.38-.184-1.543-.708a.834.834,0,0,1,.243-.84,5.494,5.494,0,0,1,4.082-1.036,1,1,0,0,1,.819.667c.186.646-.448,1.239-1.739,1.624a6.86,6.86,0,0,1-1.861.292m2.088-1.875-.128,0a4.173,4.173,0,0,0-2.757.951,2.948,2.948,0,0,0,1.925.013c1.165-.246,1.7-.663,1.724-.791-.017-.051-.225-.175-.765-.175" transform="translate(76.815 27.208)" fill="#684837"/>
        <path id="Trazado_654844" data-name="Trazado 654844" d="M208.67,72.2a5.032,5.032,0,0,1-1.07-.128c-1.335-.3-2.6-1.04-2.412-2.028a.97.97,0,0,1,.7-.748,4.79,4.79,0,0,1,3.708,1.115,1.1,1.1,0,0,1,.438,1.093c-.132.512-.7.7-1.362.7m-2.184-2.21a1.187,1.187,0,0,0-.359.047c-.153.05-.165.114-.174.152-.044.239.3.563.891.823a3.34,3.34,0,0,0,2.433.292c0-.035-.028-.146-.217-.324a4.572,4.572,0,0,0-2.575-.99" transform="translate(80.057 27.006)" fill="#684837"/>
        <path id="Trazado_654845" data-name="Trazado 654845" d="M203.181,86.348c-2.145,0-5.1-1.654-5.224-1.725l.384-.678c.028.017,2.9,1.624,4.841,1.624a9.552,9.552,0,0,0,3.684-.524l.342.7a9.874,9.874,0,0,1-4.026.6" transform="translate(77.243 32.755)" fill="#be8b54"/>
        <path id="Trazado_654846" data-name="Trazado 654846" d="M192.231,67.676l-.306-.717a50.761,50.761,0,0,1,15.629-3.587c6.453-.229,10.237,2.254,10.4,2.358l-.432.649a17.9,17.9,0,0,0-9.936-2.227,49.883,49.883,0,0,0-15.351,3.524" transform="translate(74.889 24.722)" fill="#00bf68"/>
        <rect id="Rectángulo_309905" data-name="Rectángulo 309905" width="0.78" height="2.743" transform="translate(265.71 106.326) rotate(-83.891)" fill="#be8b54"/>
        <rect id="Rectángulo_309906" data-name="Rectángulo 309906" width="1.429" height="0.779" transform="translate(266.729 107.481) rotate(-84.055)" fill="#be8b54"/>
        <path id="Trazado_654847" data-name="Trazado 654847" d="M209.258,99.38c-10.211,0-15.832-9.455-15.889-9.552l.674-.392c.054.093,5.458,9.164,15.216,9.164.138,0,.275,0,.414,0,2.721-.072,4.689-.874,5.854-2.387,1.849-2.4,1.069-5.819,1.061-5.854l.759-.179c.036.154.87,3.816-1.2,6.508-1.315,1.709-3.485,2.614-6.451,2.691-.146,0-.292.006-.437.006" transform="translate(75.453 34.898)" fill="#6993d6"/>
        <path id="Trazado_654848" data-name="Trazado 654848" d="M204.986,152.009l-.78-.033s1.051-24.846,1.46-34.989a153.253,153.253,0,0,0-.6-20.628l.774-.086a154.013,154.013,0,0,1,.6,20.746c-.407,10.143-1.458,34.99-1.458,34.99" transform="translate(79.681 37.566)" fill="#6993d6"/>
        <path id="Trazado_654849" data-name="Trazado 654849" d="M187.567,129.41l-.637-.45c.06-.083,5.947-8.433,8.865-16.566,3.224-8.983.72-15.36-1.948-19.128-3.168-4.472-9.7-4.92-9.77-4.923l.047-.779c.282.018,6.977.477,10.358,5.251,2.776,3.919,5.384,10.54,2.046,19.841-2.956,8.237-8.9,16.67-8.963,16.753" transform="translate(71.827 34.168)" fill="#d3a244"/>
        <path id="Trazado_654850" data-name="Trazado 654850" d="M171.231,101.165h-.78v-.628c-.007-5.519-.014-11.226,5.1-11.662a6.306,6.306,0,0,1,4.9,1.429,7.877,7.877,0,0,1,2.405,5.614c.135,3.131.136,4.463.136,4.475h-.78c0-.013,0-1.33-.135-4.442a7.3,7.3,0,0,0-2.141-5.062,5.581,5.581,0,0,0-4.315-1.239c-4.4.377-4.393,5.482-4.386,10.885Z" transform="translate(66.51 34.666)" fill="#d3a244"/>
        <path id="Trazado_654851" data-name="Trazado 654851" d="M167.368,143.435a9.65,9.65,0,0,1,.25-5.292l.726.285a8.962,8.962,0,0,0-.221,4.814Z" transform="translate(65.205 53.903)" fill="#cc9363"/>
        <path id="Trazado_654852" data-name="Trazado 654852" d="M186.519,133.72l-.506-.594c.095-.081,9.4-8.01,12.367-11.359l.583.516c-3,3.391-12.06,11.109-12.444,11.437" transform="translate(72.582 47.514)" fill="#6993d6"/>
        <path id="Trazado_654853" data-name="Trazado 654853" d="M215.249,133.911a31.059,31.059,0,0,0-2.259-11.4l.709-.323a31.187,31.187,0,0,1,2.33,11.719Z" transform="translate(83.109 47.677)" fill="#6993d6"/>
        <rect id="Rectángulo_309907" data-name="Rectángulo 309907" width="12.721" height="0.779" transform="matrix(0.633, -0.774, 0.774, 0.633, 160.022, 203.527)" fill="#c2623b"/>
        <path id="Trazado_654854" data-name="Trazado 654854" d="M218.129,194.494c-.064-.222-6.385-22.4-8.309-28.428s-6.508-18.228-6.553-18.351l.728-.274c.047.122,4.638,12.342,6.567,18.387s8.252,28.229,8.316,28.453Z" transform="translate(79.314 57.532)" fill="#c0483e"/>
        <path id="Trazado_654855" data-name="Trazado 654855" d="M182.9,148.618l-.152-.765a16.867,16.867,0,0,0,10.62-8.372l.692.363a17.354,17.354,0,0,1-11.161,8.774" transform="translate(71.308 54.426)" fill="#c0483e"/>
        <rect id="Rectángulo_309908" data-name="Rectángulo 309908" width="19.228" height="0.779" transform="matrix(0.606, -0.795, 0.795, 0.606, 235.037, 218.835)" fill="#d1b389"/>
        <path id="Trazado_654856" data-name="Trazado 654856" d="M167.931,154.5a10.511,10.511,0,0,1-.334-1.586l.772-.106a10.018,10.018,0,0,0,.3,1.457Z" transform="translate(65.396 59.627)" fill="#d1b389"/>
        <path id="Trazado_654857" data-name="Trazado 654857" d="M168.4,153.862l-.763-.156a5.8,5.8,0,0,1,.823-2.045,5.116,5.116,0,0,1,.663-.812l.548.555a4.255,4.255,0,0,0-.562.687,5.071,5.071,0,0,0-.709,1.771m3.759-3.848-.277-.73.121-.046a8.039,8.039,0,0,0,2.461-1.262l.5.6a8.819,8.819,0,0,1-2.683,1.393Zm4.613-4.091-.737-.253a4.343,4.343,0,0,0,.231-1.405,5.113,5.113,0,0,0-.192-1.357l.751-.209a5.864,5.864,0,0,1,.22,1.565,5.128,5.128,0,0,1-.272,1.659" transform="translate(65.413 55.681)" fill="#d1b389"/>
        <path id="Trazado_654858" data-name="Trazado 654858" d="M173.02,141.481a6.9,6.9,0,0,0-1.057-1.023l.474-.617a7.516,7.516,0,0,1,1.179,1.14Z" transform="translate(67.1 54.566)" fill="#d1b389"/>
        <rect id="Rectángulo_309909" data-name="Rectángulo 309909" width="0.779" height="2.715" transform="translate(222.464 185.318) rotate(-83.119)" fill="#d1b389"/>
        <rect id="Rectángulo_309910" data-name="Rectángulo 309910" width="3.479" height="0.779" transform="translate(223.29 186.859) rotate(-87.03)" fill="#d1b389"/>
        <path id="Trazado_654859" data-name="Trazado 654859" d="M282.5,35.462c-3.115,1.28,7.055,9.352,15.718,8.379,5.493-.617,6.364-8.768,3.311-9.806s-15.392-.067-19.029,1.428" transform="translate(110.008 13.111)" fill="#e8b47b"/>
        <path id="Trazado_654860" data-name="Trazado 654860" d="M295.931,19.081c3.649,13.8,5.794,19.774,5.6,20.814s-2.294,6.972-8.087,6.879a12.811,12.811,0,0,1-9.189-4.346s-.592-6.755-4.064-11.042,15.741-12.3,15.741-12.3" transform="translate(109.167 7.445)" fill="#e8b47b"/>
        <path id="Trazado_654861" data-name="Trazado 654861" d="M338.354,199.715c-.021-.014-2.194-1.425-6.531-1.364a48.569,48.569,0,0,0-5.944.51,70.378,70.378,0,0,1-8.472.69c-6.431.108-13.738-2.4-13.812-2.423l.256-.737c.071.025,7.239,2.455,13.543,2.38a69.7,69.7,0,0,0,8.387-.683,49.371,49.371,0,0,1,6.035-.517h.161c4.472,0,6.709,1.429,6.8,1.492Z" transform="translate(118.463 76.632)" fill="#d1b389"/>
        <path id="Trazado_654862" data-name="Trazado 654862" d="M278.193,156.734c-3.6,0-14.294-2.226-15.644-2.511l.16-.762c5.659,1.19,15.059,2.908,16.181,2.436,1-.69,3.6-12.577,5.529-23.408l.063-.354.359.035a4.325,4.325,0,0,0,2-.288,8.536,8.536,0,0,0,1.226-3.407c.459-2.145.425-3.514.2-3.88-.874-.984-15.786-2.49-20.364-1.364l-.186-.756c4.411-1.089,20.272.192,21.212,1.71.649,1.05.015,4.194-.41,5.711-.437,1.554-.883,2.456-1.326,2.682a4.8,4.8,0,0,1-2.067.388c-1.041,5.807-4.25,22.949-5.935,23.653a2.938,2.938,0,0,1-1,.117" transform="translate(102.447 47.631)" fill="#6993d6"/>
        <rect id="Rectángulo_309911" data-name="Rectángulo 309911" width="0.78" height="19.916" transform="translate(367.339 179.524) rotate(-86.967)" fill="#6993d6"/>
        <path id="Trazado_654863" data-name="Trazado 654863" d="M291.029,125.994l-.74-.245a7.323,7.323,0,0,1,1.811-2.559,9.928,9.928,0,0,0,3.2-6.33,131.468,131.468,0,0,0,0-14.992l.777-.043a132.05,132.05,0,0,1,0,15.113,10.709,10.709,0,0,1-3.4,6.783,6.817,6.817,0,0,0-1.642,2.273" transform="translate(113.271 39.732)" fill="#6993d6"/>
        <path id="Trazado_654864" data-name="Trazado 654864" d="M291.1,125.592l-.779-.044c.007-.1.582-10.31.295-23.486l.779-.017c.289,13.208-.289,23.446-.295,23.547" transform="translate(113.282 39.818)" fill="#6993d6"/>
        <path id="Trazado_654865" data-name="Trazado 654865" d="M267.624,114.235l-.071-.777c6.71-.613,8.988-9.291,9.01-9.378l.067-.261.267-.031c.132-.014,13.361-1.506,26.279-2.18a98.191,98.191,0,0,1,21.43.931l.263.051.046.264c.011.058,1.059,5.886,3.494,7.59l-.448.638c-2.406-1.685-3.519-6.6-3.762-7.825a100.425,100.425,0,0,0-20.982-.873c-11.889.621-24.048,1.935-25.97,2.148-.448,1.545-2.971,9.093-9.622,9.7" transform="translate(104.399 39.582)" fill="#6993d6"/>
        <path id="Trazado_654866" data-name="Trazado 654866" d="M316.271,157.419a3.34,3.34,0,0,1-2.575-1.41c-1.1-1.457-3.118-30.516-2.8-32.322.374-2.1,2.975-2.272,3.085-2.279l.046.779c-.021,0-2.1.146-2.363,1.638-.275,1.54,1.71,30.2,2.655,31.722a2.546,2.546,0,0,0,1.949,1.093l.026.78Z" transform="translate(121.3 47.374)" fill="#6993d6"/>
        <rect id="Rectángulo_309912" data-name="Rectángulo 309912" width="4.337" height="0.78" transform="matrix(0.992, -0.123, 0.123, 0.992, 433.005, 178.406)" fill="#6993d6"/>
        <path id="Trazado_654867" data-name="Trazado 654867" d="M275.972,23.172c-4.04-2.469-7.668-4.613-8.753-9.1-1.005-4.162,3.929-5.269,3.929-5.269Z" transform="translate(104.216 3.434)" fill="#684837"/>
        <path id="Trazado_654868" data-name="Trazado 654868" d="M300.81,22s2.518,5.508,1.65,8.113-3.115,8.96-6.645,10.346-5.564,2.127-7.186,1.956-6.546-2.134-8.191-4.165-4.1-8.529-4.688-10.03l-4.729-12.042-1.567-3.991,24.58-7.507Z" transform="translate(105.141 1.827)" fill="#e8b47b"/>
        <path id="Trazado_654869" data-name="Trazado 654869" d="M276.308,19.389a5.059,5.059,0,0,0-3.792.381c-2.176,1.026-1.952,5.284,1.226,6.7a3.621,3.621,0,0,0,4.763-1.488Z" transform="translate(105.777 7.488)" fill="#e8b47b"/>
        <path id="Trazado_654870" data-name="Trazado 654870" d="M287.628,13.321a39.011,39.011,0,0,0,4.229-2.1,6.568,6.568,0,0,0,5.4,4.137,1.13,1.13,0,0,1,.125.007,3.129,3.129,0,0,0,.3,1.073,6.535,6.535,0,0,0,2.526,2.844l2.426-2.049c-1.653-4.425,1.328-5.426-.093-9.262-1.382-3.758-5.929-5.665-11.319-3.7A20.312,20.312,0,0,0,273.193,2.5c-11.184,4.392-8.148,20.758,14.436,10.82" transform="translate(104.14 0.442)" fill="#7e563c"/>
        <path id="Trazado_654871" data-name="Trazado 654871" d="M289.923,15.041a6.3,6.3,0,0,1,3.3-2.929,3.952,3.952,0,0,1,5.249,3.391c.395,2.76-1.586,6.136-6.428,5.438s-2.12-5.9-2.12-5.9" transform="translate(112.831 4.632)" fill="#e8b47b"/>
        <path id="Trazado_654872" data-name="Trazado 654872" d="M281.737,24.327a2.56,2.56,0,0,1-1.661-.576c-1.214-1.005-1.393-6.66-1.417-7.785l.78-.017c.056,2.647.443,6.63,1.133,7.2a2.229,2.229,0,0,0,2.811-.259l.585.513a3.1,3.1,0,0,1-2.231.922" transform="translate(108.733 6.224)" fill="#cc9363"/>
        <path id="Trazado_654873" data-name="Trazado 654873" d="M282.593,13.446h-.12c-1.367-.021-2.16-.332-2.356-.927a1.316,1.316,0,0,1,.691-1.485c1.312-.9,4.317-1.322,6.036.079a.8.8,0,0,1,.327.923c-.37,1.013-3.095,1.411-4.578,1.411m1.317-2.458a5.019,5.019,0,0,0-2.659.687c-.179.124-.47.366-.392.6.029.089.368.353,1.5.388,1.943.065,3.881-.541,4.072-.877-.011-.006-.033-.032-.079-.07a3.9,3.9,0,0,0-2.443-.727" transform="translate(109.281 3.981)" fill="#684837"/>
        <path id="Trazado_654874" data-name="Trazado 654874" d="M273.423,17.663a.682.682,0,0,1-.208-.033c-.293-.093-.73-.442-.37-1.759.475-1.742,2.007-4.13,3.827-3.7a.852.852,0,0,1,.667.612c.271.986-1.141,2.805-2.156,3.787-.961.927-1.485,1.089-1.76,1.089m2.833-4.757a2.418,2.418,0,0,0-1.636,1.107A5.113,5.113,0,0,0,273.5,16.88c.642-.129,2.958-2.566,3.1-3.737.022-.182-.018-.192-.1-.21a1.087,1.087,0,0,0-.238-.028" transform="translate(106.411 4.731)" fill="#684837"/>
        <path id="Trazado_654875" data-name="Trazado 654875" d="M281.958,27.456l-.021-.78a5.871,5.871,0,0,0,2.925-.894c2.539-1.55,2.281-5.333,2.279-5.37l-.035-.45,2.06.149-.056.777-1.179-.085c0,1.148-.252,4.172-2.664,5.644a6.636,6.636,0,0,1-3.31,1.009" transform="translate(110.012 7.789)" fill="#a56f58"/>
        <path id="Trazado_654876" data-name="Trazado 654876" d="M292.849,19a4.965,4.965,0,0,1-1.617-.247l.264-.731a4.677,4.677,0,0,0,1.532.2l.046.776c-.011,0-.095.006-.225.006" transform="translate(113.639 7.033)" fill="#cc9363"/>
        <path id="Trazado_654877" data-name="Trazado 654877" d="M283.978,35.345a5.29,5.29,0,0,1-1.4-.175l.2-.752c1.92.521,4.517-.506,5.764-1l.211-.083c.16-.063.335-.125.524-.193a7.2,7.2,0,0,0,4.336-3.282,29.745,29.745,0,0,0,2.919-6.058l.762.165a29.5,29.5,0,0,1-3,6.28,7.984,7.984,0,0,1-4.749,3.63c-.182.064-.35.125-.5.185l-.209.083a13.906,13.906,0,0,1-4.855,1.2" transform="translate(110.262 9.287)" fill="#cc9363"/>
        <path id="Trazado_654878" data-name="Trazado 654878" d="M283.06,30.321a2.618,2.618,0,0,1,1.754-3.108,3.042,3.042,0,0,1,3.7.9l-.631.456a2.26,2.26,0,0,0-2.761-.639,1.826,1.826,0,0,0-1.31,2.173Z" transform="translate(110.418 10.509)" fill="#cc9363"/>
        <rect id="Rectángulo_309913" data-name="Rectángulo 309913" width="4.511" height="0.78" transform="translate(404.767 21.773) rotate(-39.572)" fill="#cc9363"/>
        <rect id="Rectángulo_309914" data-name="Rectángulo 309914" width="0.779" height="2.07" transform="translate(406.448 20.878) rotate(-38.156)" fill="#cc9363"/>
        <rect id="Rectángulo_309915" data-name="Rectángulo 309915" width="0.779" height="2.401" transform="translate(378.544 30.207) rotate(-79.191)" fill="#cc9363"/>
        <rect id="Rectángulo_309916" data-name="Rectángulo 309916" width="0.779" height="1.582" transform="matrix(0.998, -0.062, 0.062, 0.998, 379.59, 30.108)" fill="#cc9363"/>
        <path id="Trazado_654879" data-name="Trazado 654879" d="M277.268,10.9c-.242,0-.48-.006-.716-.018A19.155,19.155,0,0,1,265.859,7.3l.495-.6a18.748,18.748,0,0,0,10.236,3.4c6.441.3,14.882-4.123,14.967-4.168l.366.688c-.342.181-8.142,4.275-14.654,4.275" transform="translate(103.738 2.317)" fill="#684837"/>
        <path id="Trazado_654880" data-name="Trazado 654880" d="M284.991,5.043s-5.023-3.653-3.523-4.531,3.888,4.029,3.823,3.991.7-4.6,2.33-4.5-1.681,4.482-1.632,4.41,2.655-1.927,4.871-1.889S294.88,4.36,295.2,6.943s-10.205-1.9-10.205-1.9" transform="translate(109.72 0)" fill="#7e563c"/>
        <path id="Trazado_654881" data-name="Trazado 654881" d="M249.185,16.418s-3.507,2.533-3.328,2.808,5.178-.552,5.178-.552-.584-2.419-1.85-2.256" transform="translate(95.931 6.403)" fill="#ebbe56"/>
        <path id="Trazado_654882" data-name="Trazado 654882" d="M282.963,16.062a.807.807,0,1,0,.462-1.179.908.908,0,0,0-.462,1.179" transform="translate(110.391 5.797)" fill="#684837"/>
        <path id="Trazado_654883" data-name="Trazado 654883" d="M275.915,18.812a.807.807,0,1,0,.388-1.205.908.908,0,0,0-.388,1.205" transform="translate(107.632 6.854)" fill="#684837"/>
        <path id="Trazado_654884" data-name="Trazado 654884" d="M290.487,13.24l-.356-.692a20.367,20.367,0,0,0,2.947-1.791,24.169,24.169,0,0,0-3.793.712l-.195-.755c4.752-1.216,4.907-.613,4.992-.289.065.256.221.854-3.6,2.815" transform="translate(112.803 3.897)" fill="#cacaca"/>
        <path id="Trazado_654885" data-name="Trazado 654885" d="M297.263,46.524c-11.443,0-17.551-10.689-17.619-10.809l.68-.381c.074.132,7.472,13.06,21.181,9.918,5.555-1.276,4.729-9.891,4.721-9.98l.774-.081c.04.382.906,9.389-5.322,10.821a19.826,19.826,0,0,1-4.415.512" transform="translate(109.117 13.732)" fill="#687f50"/>
        <path id="Trazado_654886" data-name="Trazado 654886" d="M295.927,118.744l-.774-.081c5.14-49.49.057-75.606.006-75.865l.763-.153c.051.259,5.16,26.474.006,76.1" transform="translate(115.169 16.64)" fill="#687f50"/>
        <path id="Trazado_654887" data-name="Trazado 654887" d="M312.4,90.943c-.017-.289-1.326-17.9-1.34-18.081l.779-.057c.136,1.834,1.333,17.932,1.34,18.1l-.779.032.389-.017Z" transform="translate(121.374 28.409)" fill="#687f50"/>
        <rect id="Rectángulo_309917" data-name="Rectángulo 309917" width="5.492" height="0.78" transform="matrix(0.572, -0.82, 0.82, 0.572, 366.387, 112.022)" fill="#687f50"/>
        <path id="Trazado_654888" data-name="Trazado 654888" d="M256.288,100c-4.429-9.364-17.4-6.506-17.518-6.457l-.129-.31-.406-.2c.246-.492,3.551-.772,5.263-.748,3.752.035,10.493,1.041,13.495,7.383Z" transform="translate(92.959 36.007)" fill="#687f50"/>
        <path id="Trazado_654889" data-name="Trazado 654889" d="M241.934,115.827a6.945,6.945,0,0,1-4.013-6.427l.779.025a6.045,6.045,0,0,0,3.537,5.683Z" transform="translate(92.835 42.688)" fill="#be8b54"/>
        <path id="Trazado_654890" data-name="Trazado 654890" d="M236.4,114.843c-.118-.142-2.886-3.492-1.771-6.5l.73.271c-.958,2.583,1.613,5.691,1.638,5.723Z" transform="translate(91.449 42.277)" fill="#be8b54"/>
        <path id="Trazado_654891" data-name="Trazado 654891" d="M232.355,109.307c-.017-.257-.138-2.544.52-3.571l.656.42a7.037,7.037,0,0,0-.4,3.1Z" transform="translate(90.658 41.258)" fill="#be8b54"/>
        <path id="Trazado_654892" data-name="Trazado 654892" d="M242.25,112.619l-.117-.769a5.44,5.44,0,0,0,2.545-1.314,4.774,4.774,0,0,0,1.147-3.118l.78-.008a5.514,5.514,0,0,1-1.4,3.7,6.108,6.108,0,0,1-2.96,1.511" transform="translate(94.48 41.911)" fill="#be8b54"/>
        <path id="Trazado_654893" data-name="Trazado 654893" d="M245.22,111.375a.961.961,0,0,0-.31-.727,1.184,1.184,0,0,0-.794-.179l-.129-.767a1.905,1.905,0,0,1,1.407.336,1.7,1.7,0,0,1,.6,1.287Z" transform="translate(95.204 42.797)" fill="#be8b54"/>
        <path id="Trazado_654894" data-name="Trazado 654894" d="M343.184,97.076a19.85,19.85,0,0,0-6.577-.8l-.061-.776a20.226,20.226,0,0,1,6.87.833Z" transform="translate(131.32 37.252)" fill="#be8b54"/>
        <path id="Trazado_654895" data-name="Trazado 654895" d="M343.709,92.7a13.049,13.049,0,0,0-6.256-.007l-.231-.744a13.548,13.548,0,0,1,6.669-.007Z" transform="translate(131.584 35.718)" fill="#be8b54"/>
        <path id="Trazado_654896" data-name="Trazado 654896" d="M337.57,89.332l-.159-.762c.17-.036,4.19-.854,6.95.008l-.232.744c-2.566-.8-6.52,0-6.559.01" transform="translate(131.658 34.41)" fill="#be8b54"/>
        <path id="Trazado_654897" data-name="Trazado 654897" d="M257.411,53.711a4.87,4.87,0,0,1-3.147-1.261c-2.21-1.867-3.849-5.71-3.986-9.344-.182-4.863,2.046-9.156,4.967-9.57a4.929,4.929,0,0,1,3.637,1.3,10.147,10.147,0,0,1,3.626,6.957c.221,3.07-.747,6.27-2.409,7.964a3.257,3.257,0,0,1-2.451,1.118c-2.679-.14-4.914-3.708-4.881-7.789.026-3.238,1.108-5.155,3.216-5.7a2.074,2.074,0,0,1,1.9.439c1.2.984,1.734,3.14,1.642,4.761-.1,1.821-.673,3.328-1.483,3.933a1.349,1.349,0,0,1-1.139.261c-1.293-.3-1.5-3.14-1.535-4l.779-.031c.058,1.489.448,3.16.934,3.274a.584.584,0,0,0,.495-.127,4.924,4.924,0,0,0,1.171-3.353,5.392,5.392,0,0,0-1.357-4.115,1.3,1.3,0,0,0-1.209-.286c-1.746.45-2.607,2.071-2.63,4.952-.032,3.677,1.866,6.884,4.143,7.005a2.566,2.566,0,0,0,1.853-.887c1.514-1.545,2.394-4.5,2.188-7.361a9.362,9.362,0,0,0-3.338-6.407,4.233,4.233,0,0,0-3.038-1.137c-2.223.316-4.479,3.915-4.3,8.769.128,3.431,1.653,7.04,3.709,8.778a3.892,3.892,0,0,0,3.079,1.047c3.851-.5,7.429-4.144,6.742-11.136a13.725,13.725,0,0,0-5.487-9.7,6.021,6.021,0,0,0-4.678-1.323c-3.866.973-6.281,6.321-6.008,13.31l-.779.031c-.291-7.481,2.3-13.015,6.6-14.1a6.789,6.789,0,0,1,5.316,1.442,14.533,14.533,0,0,1,5.817,10.264c.737,7.511-3.195,11.432-7.417,11.986a4.37,4.37,0,0,1-.538.035" transform="translate(96.619 11.652)" fill="#9f8eff"/>
        <rect id="Rectángulo_309918" data-name="Rectángulo 309918" width="0.779" height="6.53" transform="translate(352.656 32.616) rotate(-4.996)" fill="#7f593d"/>
        <path id="Trazado_654898" data-name="Trazado 654898" d="M251.159,18.093l-.77-.117c.015-.1.389-2.418,1.9-2.537,1.531-.15,2.026,2.21,2.045,2.309l-.763.15c-.092-.453-.51-1.717-1.219-1.684-.744.06-1.116,1.411-1.189,1.878" transform="translate(97.702 6.022)" fill="#7f593d"/>
        <path id="Trazado_654899" data-name="Trazado 654899" d="M257.572,22.008a3.749,3.749,0,0,1-3.742-2.978l.767-.139a2.973,2.973,0,0,0,3.526,2.3,6.356,6.356,0,0,0,4.582-2.626l.667.4a7.06,7.06,0,0,1-5.16,3,5.757,5.757,0,0,1-.639.038" transform="translate(99.045 7.246)" fill="#d1b389"/>
        <path id="Trazado_654900" data-name="Trazado 654900" d="M253.169,30.239l-.613-.481c.594-.759,1.67-2.026,2.405-1.98a.663.663,0,0,1,.513.291c.332.48.079,1.443-.007,1.727l-.745-.225a2.769,2.769,0,0,0,.132-1,7.1,7.1,0,0,0-1.685,1.667" transform="translate(98.547 10.839)" fill="#7f593d"/>
        <path id="Trazado_654901" data-name="Trazado 654901" d="M270.209,100.6l-.46-.628c.114-.083,11.5-8.477,15.9-18.038l.708.325c-4.486,9.747-16.035,18.256-16.151,18.341" transform="translate(105.256 31.971)" fill="#687f50"/>
        <path id="Trazado_654902" data-name="Trazado 654902" d="M312.177,98.217c-.246-5.63-3.959-14.665-4-14.757l.72-.3c.154.375,3.8,9.253,4.057,15.021Z" transform="translate(120.252 32.45)" fill="#687f50"/>
        <path id="Trazado_654903" data-name="Trazado 654903" d="M263.934,58.979a1.074,1.074,0,0,1-.469-.1c-.6-.295-.956-1.289-1.062-2.951-.149-2.352.286-6.261,1.692-7.186,1.667-1.1,5.794-.425,7.442.873a1.761,1.761,0,0,1,.76,2.031c-.716,1.98-5.113,6.174-7.47,7.125a2.422,2.422,0,0,1-.894.209m.375-9.914.214.327c-.865.569-1.517,3.722-1.342,6.484.1,1.629.455,2.217.627,2.3.031.013.207.079.727-.131,2.173-.879,6.377-4.866,7.029-6.667.051-.145.211-.584-.51-1.154-1.525-1.2-5.247-1.681-6.531-.836Z" transform="translate(102.379 18.804)" fill="#d1b389"/>
        <path id="Trazado_654904" data-name="Trazado 654904" d="M122.168,95.551c9.157-4.531,13.157-11.08,20.17-10.3s4.549,9.131,4.549,9.131-1.9-1.657-7.2-1.379a144.644,144.644,0,0,0-17.521,2.548" transform="translate(47.67 33.24)" fill="#ddccad"/>
        <path id="Trazado_654905" data-name="Trazado 654905" d="M142.607,192.069c-2.554-10.486-10.029-28.264-10.1-28.442l.719-.3c.075.178,7.575,18.014,10.142,28.56Z" transform="translate(51.703 63.729)" fill="#d3a244"/>
        <path id="Trazado_654906" data-name="Trazado 654906" d="M105.888,197.353l-.694-.355c.072-.142,7.28-14.263,8.812-18.479,1.524-4.187,2.534-17.461,2.544-17.593l.022-.293.285-.06c7.916-1.67,8.694-6.467,8.722-6.67l.773.106c-.031.224-.831,5.418-9.047,7.265-.16,2.03-1.115,13.524-2.566,17.512-1.549,4.26-8.554,17.984-8.851,18.566" transform="translate(41.047 60.053)" fill="#d3a244"/>
        <path id="Trazado_654907" data-name="Trazado 654907" d="M270.631,87.214l-.608-.487c7.257-9.046,11.085-18.253,11.7-28.149.612-9.794-2.4-21.338-4.077-22.637l.477-.616c2.092,1.618,4.989,13.5,4.379,23.3-.628,10.061-4.511,19.413-11.874,28.587" transform="translate(105.363 13.784)" fill="#c0483e"/>
        <path id="Trazado_654908" data-name="Trazado 654908" d="M256.305,114.753l-.179-.759c.128-.031,3.118-.774,3.061-3.6-.064-3.142-.642-19.122-.649-19.282l.78-.029c.006.161.585,16.147.649,19.3.069,3.459-3.624,4.362-3.662,4.372" transform="translate(99.94 35.541)" fill="#c0483e"/>
        <path id="Trazado_654909" data-name="Trazado 654909" d="M257.949,59.4c0-.014-.132-1.405-.325-4.414-.17-2.637-5.4-2.621-5.466-2.626l-.007-.78c.256.014,6.035-.013,6.25,3.355.192,3,.323,4.378.324,4.39Z" transform="translate(98.389 20.127)" fill="#c0483e"/>
        <path id="Trazado_654910" data-name="Trazado 654910" d="M275.231,180.443c-9.68,0-19.592-6.665-20.086-7l.438-.644c.142.095,14.181,9.535,24.815,6.1l.241.742a17.536,17.536,0,0,1-5.408.8" transform="translate(99.558 67.426)" fill="#6993d6"/>
        <path id="Trazado_654911" data-name="Trazado 654911" d="M311.4,177.36a45.3,45.3,0,0,1-11.38-1.5l.22-.747c.136.039,13.684,3.94,23.2-1.134l.367.688a26.569,26.569,0,0,1-12.409,2.69" transform="translate(117.066 67.888)" fill="#6993d6"/>
        <path id="Trazado_654912" data-name="Trazado 654912" d="M252.358,107.519a6.982,6.982,0,0,0-4.4-3.986c-2.114-.5-3.837-1.266-5.323-.7s-3.537,1.027-4.225,2.569a2.533,2.533,0,0,0,1.677,3.288c-.146,1.269-.127,2.605.523,2.9a3.685,3.685,0,0,0,2.732.316,1.711,1.711,0,0,0,.229.952c.7.745,2.579.413,3.142-.357a1.126,1.126,0,0,0,.1-.178c.1.423.257.723.5.79a2.082,2.082,0,0,0,2.34-.516.59.59,0,0,0,.1-.14,1.139,1.139,0,0,0,.822.342c1.729,0,2.166-3.986,1.786-5.279" transform="translate(92.954 40.048)" fill="#dba469"/>
        <path id="Trazado_654913" data-name="Trazado 654913" d="M240.17,119.316c-3.818-.98-7.9-4.565-9.7-8.523-1.1-2.415-1.212-4.634-.321-6.414l.7.349c-.987,1.974-.363,4.212.334,5.742,1.715,3.762,5.58,7.166,9.189,8.092Z" transform="translate(89.57 40.728)" fill="#6993d6"/>
        <rect id="Rectángulo_309919" data-name="Rectángulo 309919" width="4.546" height="0.78" transform="translate(306.777 160.222) rotate(-57.671)" fill="#6993d6"/>
        <path id="Trazado_654914" data-name="Trazado 654914" d="M216.616,125.482l-.78-.006.093-10.863.779.006Z" transform="translate(84.219 44.722)" fill="#6993d6"/>
        <path id="Trazado_654915" data-name="Trazado 654915" d="M242.314,110.4l-.642-.439a7.857,7.857,0,0,0,1.236-2.89l.779.058a8.465,8.465,0,0,1-1.372,3.271" transform="translate(94.3 41.777)" fill="#cc9363"/>
        <path id="Trazado_654916" data-name="Trazado 654916" d="M244.767,110.625l-.574-.525a3.638,3.638,0,0,0,.829-2.4l.779-.039a4.359,4.359,0,0,1-1.033,2.964" transform="translate(95.284 42.009)" fill="#cc9363"/>
        <path id="Trazado_654917" data-name="Trazado 654917" d="M247.035,110.149l-.667-.4a3.712,3.712,0,0,0,.506-2.03l.776-.065a4.467,4.467,0,0,1-.614,2.5" transform="translate(96.133 42.005)" fill="#cc9363"/>
        <path id="Trazado_654918" data-name="Trazado 654918" d="M240.046,107.759l-.56-.542a23.475,23.475,0,0,0,1.672-1.96l.624.467a23.653,23.653,0,0,1-1.736,2.035" transform="translate(93.448 41.071)" fill="#cc9363"/>
        <path id="Trazado_654919" data-name="Trazado 654919" d="M130.45,143.175l-.331-.706a5.265,5.265,0,0,0,2.106-2.593l.731.272a5.962,5.962,0,0,1-2.507,3.026" transform="translate(50.772 54.58)" fill="#be8b54"/>
        <path id="Trazado_654920" data-name="Trazado 654920" d="M164.331,142a10.6,10.6,0,0,1,.582-4.681l.716.309a9.956,9.956,0,0,0-.521,4.314Z" transform="translate(64.107 53.581)" fill="#cc9363"/>
        <path id="Trazado_654921" data-name="Trazado 654921" d="M163.354,138.7l-.777-.054a6.868,6.868,0,0,1,1.342-3.487l.6.495a6.131,6.131,0,0,0-1.168,3.046" transform="translate(63.438 52.739)" fill="#cc9363"/>
        <rect id="Rectángulo_309920" data-name="Rectángulo 309920" width="505" height="0.78" transform="translate(0 278.934)" fill="#cacaca"/>
        <path id="Trazado_654922" data-name="Trazado 654922" d="M42.942,158.606a27.534,27.534,0,0,1-8.869-1.567l.37-.687c1.583.854,8.911,2.06,10.768,1.161,1.129-.548,4.631-9.342,5.4-16.186.321-2.86.049-4.795-.767-5.448-3.317-2.658-12.121-1.8-12.207-1.792l-.079-.774c.374-.04,9.21-.9,12.775,1.957,1.062.852,1.417,2.918,1.054,6.143-.683,6.077-4.119,15.969-5.836,16.8a6.522,6.522,0,0,1-2.608.391" transform="translate(13.295 51.96)" fill="#6993d6"/>
        <rect id="Rectángulo_309921" data-name="Rectángulo 309921" width="0.78" height="13.278" transform="translate(49.205 192.139) rotate(-86.212)" fill="#6993d6"/>
        <path id="Trazado_654923" data-name="Trazado 654923" d="M80.739,154.8h-.78c0-6.235-2.063-21.408-2.084-21.561l.772-.106c.021.153,2.092,15.378,2.092,21.666" transform="translate(30.387 51.95)" fill="#6993d6"/>
        <path id="Trazado_654924" data-name="Trazado 654924" d="M59.774,134.868l-.716-.309c2.349-5.441,3.37-8.608,3.762-11.685l.773.1c-.4,3.156-1.437,6.381-3.819,11.895" transform="translate(23.044 47.946)" fill="#6993d6"/>
        <path id="Trazado_654925" data-name="Trazado 654925" d="M40.466,122.432a9.638,9.638,0,0,1-1.154-.07l.093-.774c7.351.893,11.629-7.727,11.672-7.814l.09-.188.207-.028c.138-.019,13.877-1.888,21.156-1.952s12.978.514,13.035.521l.307.032.039.306c.006.051.673,5.038,4.111,7.253l-.421.653c-3.27-2.1-4.211-6.312-4.415-7.5-1.26-.117-6.378-.549-12.647-.489-6.754.06-19.138,1.688-20.86,1.918-.66,1.239-4.639,8.129-11.213,8.129" transform="translate(15.34 43.547)" fill="#6993d6"/>
        <path id="Trazado_654926" data-name="Trazado 654926" d="M39.808,69.071c-1.075-6.444-1.917-16.973-2.1-19.3a60.941,60.941,0,0,0-10.336,3.71l-.342-.7A62.357,62.357,0,0,1,37.974,48.9l.446-.108.033.459c.01.124.922,12.487,2.123,19.692Z" transform="translate(10.548 19.039)" fill="#9f8eff"/>
        <path id="Trazado_654927" data-name="Trazado 654927" d="M31.063,71.751C29.135,64.378,28,59.465,27.991,59.416l.76-.175c.011.049,1.141,4.952,3.065,12.313Z" transform="translate(10.922 23.116)" fill="#9f8eff"/>
        <path id="Trazado_654928" data-name="Trazado 654928" d="M52.264,76.745A54.339,54.339,0,0,0,40.089,60.315l.5-.594A55.183,55.183,0,0,1,52.969,76.413Z" transform="translate(15.643 23.303)" fill="#9f8eff"/>
        <path id="Trazado_654929" data-name="Trazado 654929" d="M41.276,118.914l-.566-.535c.082-.088,8.323-8.832,10.755-13.267,2.42-4.414,3.911-15.517,3.925-15.63l.774.1c-.063.463-1.525,11.362-4.015,15.9-2.48,4.522-10.531,13.066-10.873,13.428" transform="translate(15.885 34.916)" fill="#9f8eff"/>
        <path id="Trazado_654930" data-name="Trazado 654930" d="M47.3,108.1l-.274.068.071.384v.389a1.586,1.586,0,0,0,.395-.086c6.374-1.618,27.9-6.459,37.252-.8l.4-.667c-9.61-5.818-31.4-.927-37.847.71" transform="translate(18.351 40.822)" fill="#d39644"/>
        <path id="Trazado_654931" data-name="Trazado 654931" d="M74.517,118.892l.772.111c4.153-28.7-1.565-43.779-2.835-46.669a5.41,5.41,0,0,0,3.8-1.632,6.486,6.486,0,0,0,1.407-4.589l-.774.078a5.771,5.771,0,0,1-1.211,3.988A4.9,4.9,0,0,1,71.866,71.6c-11.37,0-25.88-11.489-26.025-11.605l-.488.609c.6.478,14.667,11.612,26.265,11.769.874,1.874,7.2,16.785,2.9,46.519" transform="translate(17.697 23.41)" fill="#d39644"/>
        <path id="Trazado_654932" data-name="Trazado 654932" d="M44.062,80.944a2.879,2.879,0,0,0,.773.769c.7.368,1.292-.327,1.913-1.062a6.291,6.291,0,0,1,1.328-1.29c.947-.583,2.055.877,2.066.891l.626-.464c-.063-.083-1.546-2.046-3.1-1.09a6.8,6.8,0,0,0-1.514,1.45c-.282.334-.813.952-.959.874a2.865,2.865,0,0,1-.525-.567,6.53,6.53,0,0,0-1.6-1.532l.523-2.341-.762-.171-.482,2.166a4.4,4.4,0,0,0-2.3-.19c-3.267.525-10.945,5.94-11.27,6.17l.45.637c.079-.056,7.855-5.54,10.942-6.038a3.791,3.791,0,0,1,3.89,1.789" transform="translate(11.23 29.816)" fill="#d39644"/>
        <path id="Trazado_654933" data-name="Trazado 654933" d="M52.345,89.5l-.777.05a.965.965,0,0,1-.51.916,2.156,2.156,0,0,1-1.2-.2c-.587-.195-1.191-.4-1.6-.028a1.819,1.819,0,0,0-.389,1.246,4.118,4.118,0,0,1-.806,2.406c-1.1,1.372-6.078,3.343-11.847,4.685l.177.76c5.087-1.184,10.857-3.177,12.28-4.96a4.9,4.9,0,0,0,.973-2.824,2.1,2.1,0,0,1,.132-.731,2.188,2.188,0,0,1,.838.185,2.583,2.583,0,0,0,1.75.175,1.738,1.738,0,0,0,.986-1.685" transform="translate(13.739 34.923)" fill="#d39644"/>
        <path id="Trazado_654934" data-name="Trazado 654934" d="M81.74,79.911l-.339.7c.667.323,2.4,2.639,2.54,6.191.129,3.35-1.557,6.841-5.034,7.032l.043.777c3.456-.189,5.936-3.559,5.769-7.838-.149-3.856-2.045-6.412-2.979-6.863" transform="translate(30.79 31.181)" fill="#d39644"/>
        <path id="Trazado_654935" data-name="Trazado 654935" d="M72.724,187.266c.31,2.148.723,9.969.723,9.969L86.5,193.906a15.633,15.633,0,0,1-2.053-4.354c-.423-1.957-.512-2.341-.7-3.442-.42-2.413-11.205-.147-11.017,1.157" transform="translate(28.376 72.205)" fill="#d49666"/>
        <path id="Trazado_654936" data-name="Trazado 654936" d="M105.244,194.624a5.057,5.057,0,0,0-2.8-.327c-5.049.42-11.269,3.616-14.558,5.323s-6.858.7-13.951,5.736c0,0-.437-1.091-.9-2.572-.827-2.619-1.746-6.453-.492-7.482,2.807-2.308,6.392-3.912,9.189-3.959s5.386.7,8.363-.311,6.071-2.822,9.936-1.543a8.5,8.5,0,0,1,4.147,3.3,11.045,11.045,0,0,1,1.068,1.839" transform="translate(28.065 73.767)" fill="#f4e8d0"/>
        <path id="Trazado_654937" data-name="Trazado 654937" d="M100,198.866c-6.188,3.484-20.17,5.027-21.682,5.027H73.372c7.091-5.035,10.661-4.029,13.951-5.736s9.508-4.9,14.558-5.323a5.062,5.062,0,0,1,2.8.327c1.472.866-.133,3.149-4.677,5.705" transform="translate(28.63 75.229)" fill="#7e563c"/>
        <path id="Trazado_654938" data-name="Trazado 654938" d="M104.933,193.708a5.057,5.057,0,0,0-2.8-.327c-5.049.42-11.269,3.616-14.558,5.323s-6.858.7-13.951,5.736c0,0-.437-1.091-.9-2.572,5.736-3.819,10.24-3.211,12.991-4.357s12.782-7.949,18.152-5.643a11.045,11.045,0,0,1,1.068,1.839" transform="translate(28.376 74.682)" fill="#ddccad"/>
        <path id="Trazado_654939" data-name="Trazado 654939" d="M72.991,202.283l-.42-.656a27.306,27.306,0,0,1,5.562-2.668,29.582,29.582,0,0,1,4.034-.877,14.089,14.089,0,0,0,3.431-.831c.286-.143.762-.4,1.371-.737,2.86-1.567,8.184-4.481,11.48-5.046,3.984-.681,5.383.013,5.53.095l-.38.68c-.007,0-1.3-.645-5.019-.006-3.17.544-8.619,3.527-11.238,4.962-.621.339-1.105.6-1.4.749a14.259,14.259,0,0,1-3.652.9,28.731,28.731,0,0,0-3.925.852,26.953,26.953,0,0,0-5.38,2.58" transform="translate(28.317 74.595)" fill="#d1b389"/>
        <path id="Trazado_654940" data-name="Trazado 654940" d="M64.955,37.449c-.018-.56-.662-.767-.94-.831a2.015,2.015,0,0,0-2.077.559l-.691-.36a2.727,2.727,0,0,1,2.942-.958,1.738,1.738,0,0,1,1.546,1.565Z" transform="translate(23.899 13.96)" fill="#684837"/>
        <path id="Trazado_654941" data-name="Trazado 654941" d="M59.746,43.186c-.1,0-.207,0-.311-.011a4.357,4.357,0,0,1-3.065-1.589,4.79,4.79,0,0,1,.464-6.555,4.395,4.395,0,0,1,3.26-1.141,4.574,4.574,0,0,1,4.134,4.959,4.718,4.718,0,0,1-1.533,3.185,4.371,4.371,0,0,1-2.949,1.152m.038-8.527a3.593,3.593,0,0,0-2.426.951,4.008,4.008,0,0,0-.389,5.479,3.576,3.576,0,0,0,5.2.367,3.94,3.94,0,0,0,1.28-2.661,3.791,3.791,0,0,0-3.413-4.126c-.085-.007-.17-.01-.254-.01" transform="translate(21.573 13.22)" fill="#684837"/>
        <path id="Trazado_654942" data-name="Trazado 654942" d="M68.245,43.789c-.1,0-.2,0-.307-.01a4.574,4.574,0,0,1-4.134-4.96,4.724,4.724,0,0,1,1.533-3.185,4.357,4.357,0,0,1,6.327.449,4.714,4.714,0,0,1,1.068,3.368,4.589,4.589,0,0,1-4.486,4.337m.042-8.527a3.593,3.593,0,0,0-2.426.951,3.942,3.942,0,0,0-1.28,2.661,3.7,3.7,0,1,0,7.374.524,3.939,3.939,0,0,0-.891-2.817,3.579,3.579,0,0,0-2.522-1.31c-.085-.007-.17-.01-.254-.01" transform="translate(24.891 13.455)" fill="#684837"/>
        <path id="Trazado_654943" data-name="Trazado 654943" d="M140.645,189.184l2.078,8.124s15.648-3.128,12.662-4.432-4.2-6.471-4.2-6.471a8.638,8.638,0,0,0-5.608-.911c-3.081.6-4.928,3.69-4.928,3.69" transform="translate(54.88 72.324)" fill="#d49666"/>
        <path id="Trazado_654944" data-name="Trazado 654944" d="M166.557,200.888c-3.6,2.112-11.231,4.333-11.231,4.333h-12.6s-2.611-9.4-1.98-10.8c.873-1.949,4.093-1.005,6.883-3.406s6.655-1.722,9.516-.616,9.352,2.01,11.721,2.985a1.4,1.4,0,0,1,.227.117c2.066,1.154.951,5.347-2.533,7.389" transform="translate(54.88 73.9)" fill="#f4e8d0"/>
        <path id="Trazado_654945" data-name="Trazado 654945" d="M165.974,199.837c-3.6,2.112-11.231,4.333-11.231,4.333h-12.6c1.949-3.849,9.712-8.331,14.644-9.049s7.287-4.146,11.722-2.673c2.066,1.154.951,5.347-2.533,7.389" transform="translate(55.463 74.952)" fill="#7e563c"/>
        <path id="Trazado_654946" data-name="Trazado 654946" d="M142.155,202.338l-.722-.295a12.838,12.838,0,0,1,8.572-7.4,25.56,25.56,0,0,1,4.28-.938,11.364,11.364,0,0,0,2.429-.552,23.206,23.206,0,0,0,2.245-.88,10.775,10.775,0,0,1,4.988-1.168l-.019.779a9.964,9.964,0,0,0-4.657,1.1,23.744,23.744,0,0,1-2.317.906,11.959,11.959,0,0,1-2.568.582,25.082,25.082,0,0,0-4.166.916,12.061,12.061,0,0,0-8.065,6.943" transform="translate(55.187 74.569)" fill="#d1b389"/>
        <path id="Trazado_654947" data-name="Trazado 654947" d="M216.9,195.232c.614-3.678-2.39-8.254-2.823-9.558s3.735-3.563,6.473-3.911,5.561.174,5.865.913.719,6.858,6.41,7.82-15.925,4.735-15.925,4.735" transform="translate(83.521 70.881)" fill="#e8b47b"/>
        <path id="Trazado_654948" data-name="Trazado 654948" d="M242.145,198.53c-6.8,3.1-18.127,5.44-21.673,5.523h-.008c-.2,0-.375,0-.523-.01l-.024,0a.893.893,0,0,1-.744-.335c-1.514-1.567-5.248-9.264-3.827-12.248,1.418-2.96,7.064-4.4,10.732-4.54,2.341-.095,6.467.573,12.366.27s9.452,1.468,10.848,2.616a.307.307,0,0,1,.064.068c.057.061.114.121.163.181a.489.489,0,0,1,.089.14.218.218,0,0,1,.049.068c.788,1.529-.562,5.09-7.511,8.269" transform="translate(83.905 72.932)" fill="#f4e8d0"/>
        <path id="Trazado_654949" data-name="Trazado 654949" d="M240.982,197.866c-6.8,3.1-18.127,5.44-21.673,5.523H219.3a5.122,5.122,0,0,0-.523-.01l-.024,0c-.488.025-.726-.107-.744-.335-.057-.726,2.2-2.386,5.865-2.623,4.8-.311,8.177-3.495,11.975-6.952,3.585-3.274,10.357-6.134,12.342-4.258.057.061.114.121.163.181a.489.489,0,0,1,.089.14.218.218,0,0,1,.049.068c.788,1.529-.562,5.09-7.511,8.269" transform="translate(85.067 73.596)" fill="#7e563c"/>
        <path id="Trazado_654950" data-name="Trazado 654950" d="M217.378,201.532l-.637-.45c1.941-2.74,4.545-3.463,7.857-3.706,2.725-.2,4.122-1.461,6.235-3.371.525-.474,1.091-.984,1.725-1.522,4.392-3.727,8.783-5.383,13.064-4.913l-.085.774c-4.048-.441-8.252,1.15-12.474,4.732-.628.534-1.187,1.038-1.707,1.507-2.153,1.945-3.709,3.35-6.7,3.571-3.708.271-5.749,1.219-7.278,3.378" transform="translate(84.572 73.159)" fill="#d1b389"/>
      </g>
    </g>
  </g>
</svg>
