<svg xmlns="http://www.w3.org/2000/svg" xmlns:xlink="http://www.w3.org/1999/xlink" width="61.286" height="83" viewBox="0 0 61.286 83">
  <defs>
    <clipPath id="clip-path">
      <rect id="Rectángulo_309923" data-name="Rectángulo 309923" width="61.286" height="83" fill="none"/>
    </clipPath>
  </defs>
  <g id="Grupo_1071827" data-name="Grupo 1071827" transform="translate(-191.857 -503)">
    <g id="Grupo_995701" data-name="Grupo 995701" transform="translate(191.857 503)">
      <g id="Grupo_995700" data-name="Grupo 995700" clip-path="url(#clip-path)">
        <path id="Trazado_654951" data-name="Trazado 654951" d="M54.937,38.581c1.089-.429,1.429-.33,2.1.642a14.45,14.45,0,0,1,2.619,8.756,1.828,1.828,0,0,1-1.909,1.951c-.27.01-.54.006-.81,0-.325-.006-.625-.067-.615.461.009.493.264.479.614.5a4.432,4.432,0,0,1-.062,8.863,2.136,2.136,0,0,0-2.23,1.285,9.043,9.043,0,0,1-3.674,3.672,1.272,1.272,0,0,0-.76,1.317c.052,1.574.018,1.621,1.6,1.564a7.511,7.511,0,0,1,5.745,1.888,6.737,6.737,0,0,1,2.207,4.878c.054,2.16.032,4.321.012,6.482A2.027,2.027,0,0,1,57.582,83Q33.768,83,9.952,83a2.02,2.02,0,0,1-2.219-2.209c-.022-1.755,0-3.511-.009-5.267a1.289,1.289,0,0,1,1.191-1.457c.951.24,1.233.556,1.244,1.5.017,1.431.03,2.862-.008,4.292-.015.557.134.727.71.725q9.635-.031,19.27,0c.531,0,.679-.145.671-.673q-.045-2.753,0-5.507a6.688,6.688,0,0,1,1.834-4.544,7.484,7.484,0,0,1,6.237-2.264c1.5.064,1.478.012,1.491-1.449,0-.529-.144-.679-.674-.675q-4.777.036-9.554,0c-.462,0-.635.127-.753.579a2.935,2.935,0,0,1-3.008,2.325q-3.522.032-7.044,0a3.045,3.045,0,0,1-3.109-2.72c-.057-.346-.142-.69-.164-1.038-.028-.436-.2-.6-.658-.589-1.538.026-3.077.031-4.615,0-.511-.011-.637.157-.628.643.028,1.538.018,3.077.007,4.616-.007,1.016-.266,1.33-1.245,1.584a1.326,1.326,0,0,1-1.2-1.54c.022-1.458-.051-2.919.028-4.373.045-.821-.232-.989-.98-.936A13.741,13.741,0,0,1,4.1,63.987,4.622,4.622,0,0,1,.285,57.76C1.528,54.2,2.84,50.672,4.127,47.131Q5.451,43.49,6.79,39.854a4.354,4.354,0,0,1,4.387-3.044c2.942,0,5.885-.016,8.827.013.562.006.731-.136.717-.71-.033-1.325,0-1.326-1.253-1.63a8.838,8.838,0,0,1-6.8-8.16c-.028-.476-.179-.587-.614-.561a5.692,5.692,0,0,1-2.159-.23A4.494,4.494,0,0,1,6.987,20.29,4.35,4.35,0,0,1,11.2,16.722a2.7,2.7,0,0,1,.566,0c.78.147.94-.226.894-.923-.029-.435-.105-.615-.581-.6a10.887,10.887,0,0,1-2.017-.069,3.6,3.6,0,0,1-3.109-3.893,3.691,3.691,0,0,1,3.474-3.428c1.3-.085,1.3-.085,1.624-1.328A8.641,8.641,0,0,1,20.2.035q5.547-.07,11.095,0a8.616,8.616,0,0,1,8.185,6.511c.31,1.21.311,1.2,1.521,1.267a3.58,3.58,0,0,1,3.219,2.1,3.52,3.52,0,0,1-.329,3.754,3.652,3.652,0,0,1-2.975,1.546c-.35.016-.7,0-1.053,0-1.041,0-1.021,0-.984,1.061.013.358.113.46.462.451a8.387,8.387,0,0,1,1.614.057c2.384.408,3.755,2.306,3.618,4.952a4.327,4.327,0,0,1-4.124,4.026c-.5.037-1.154-.212-1.47.125-.267.285-.157.916-.229,1.391a8.837,8.837,0,0,1-7.167,7.3c-.263.047-.708-.06-.743.31a9.51,9.51,0,0,0,.052,1.84c.015.146.287.081.441.082,1.269.005,2.538-.017,3.806.015a1.337,1.337,0,0,0,.9-.431,14.154,14.154,0,0,1,15.4-1.942c1.3.573,1.386.806,1.162,2.182a1.775,1.775,0,0,1-2.208.022,1.857,1.857,0,0,0-.963-.355,10.794,10.794,0,0,0-6.334-.625,11.973,11.973,0,0,0-9.758,11.006c-.031.71.186.869.843.835,1.023-.052,2.05-.011,3.075-.015a8.429,8.429,0,0,0,6.89-3.3c.736-.922,1.508-.919,2.255.015A8.469,8.469,0,0,0,51.305,47.3a15.442,15.442,0,0,0,3.949.168,7.722,7.722,0,0,1,1.05.039c.859.145.986-.281.9-1a12.269,12.269,0,0,0-2.2-5.925,1.539,1.539,0,0,1-.07-2M25.28,65.9c.214.013.428.038.642.039,1.084,0,1.206-.158,1.045-1.231-.308-2.048-.6-4.1-.892-6.149-.233-1.624-.229-1.625-1.922-1.493-2.426-.013-4.853-.019-7.279-.045-.375,0-.52.088-.512.491.024,1.214.013,2.428.006,3.642,0,.265.02.417.36.481a1.929,1.929,0,0,1,1.6,1.875c.074.561.22,1.112.284,1.673a.741.741,0,0,0,.846.758c1.941-.018,3.882-.028,5.823-.041m14.582-55.64c-.161-.008-.323-.023-.485-.023H11.039c-.135,0-.271-.006-.4,0a1.244,1.244,0,0,0-1.255,1.221,1.23,1.23,0,0,0,1.17,1.3,5.594,5.594,0,0,0,.727.018q13.885,0,27.771,0c.269,0,.538-.023.807-.035a8.078,8.078,0,0,0,1.127.026,1.268,1.268,0,0,0-.07-2.532c-.347-.024-.7.012-1.049.021m-7.1-7.523a3.4,3.4,0,0,0-1.331-.276c-3.776,0-7.553-.048-11.327.013A6.165,6.165,0,0,0,14.408,7.09c-.144.549-.109.747.535.729,1.563-.045,3.128-.012,4.693-.015l15.534-.028c.536.009,1.072.013,1.608.029.311.009.47-.011.4-.435a6.1,6.1,0,0,0-4.42-4.631M34.35,22.188c.512.008,1.027-.008,1.536.03.479.036.591-.173.585-.613-.021-1.457-.008-2.916-.008-4.374,0-2.059,0-2.059-2.1-1.983q-9.354-.014-18.708-.036c-.465,0-.6.15-.591.6.021,1.917.03,3.835,0,5.752-.01.567.208.661.7.654,1.863-.024,3.726-.017,5.589,0a1.318,1.318,0,0,0,.939-.36,5.1,5.1,0,0,1,6.985.033,1.093,1.093,0,0,0,.783.326c1.431-.021,2.861-.021,4.292-.029m.01,2.483c-1.511-.009-3.022-.03-4.532-.024a2.77,2.77,0,0,1-2.039-.813,2.7,2.7,0,0,0-4.027-.024,2.846,2.846,0,0,1-2.111.838c-2-.016-3.995,0-5.992-.009-.348,0-.575-.015-.6.481a6.5,6.5,0,0,0,6.694,7.161q4.008.017,8.017,0a3.4,3.4,0,0,0,1.515-.17A6.352,6.352,0,0,0,36.452,26.2c.08-1.558.08-1.559-1.447-1.552-.215,0-.43.018-.645.028M46.387,63.748c3.217-.125,6.458-2.968,7.247-6.426.529-2.317.188-4.681.276-7.023.013-.362-.211-.371-.473-.368a10.871,10.871,0,0,1-7.863-3.03c-.23-.215-.36-.216-.588,0a10.848,10.848,0,0,1-7.862,3.031c-.255,0-.484-.008-.474.362.053,2-.079,3.993.078,5.99.043.539.258.636.746.633,3.1-.02,6.208-.013,9.312-.009,1.58,0,2.167.744,1.93,2.319a8.631,8.631,0,0,1-2.374,4.48l-.125.071c.019.018.047.053.056.049a.855.855,0,0,0,.113-.079M55.26,80.542c.538.008,1.078,0,1.613.033.4.027.495-.128.491-.506-.019-1.885.027-3.772-.023-5.657a4.375,4.375,0,0,0-3.7-4.249,13.971,13.971,0,0,0-2.726-.137c-.565-.057-.8.133-1,.7a4.631,4.631,0,0,1-4.169,3.318,4.263,4.263,0,0,1-4.673-2.485c-.633-1.544-1.555-1.654-2.843-1.528-.241.023-.486,0-.728.009a4.492,4.492,0,0,0-4.269,4.274c-.05,1.915-.006,3.832-.023,5.747,0,.363.059.531.477.516.889-.032,1.781-.034,2.67,0,.453.017.538-.167.526-.566-.024-.836-.019-1.673,0-2.509.017-.883.484-1.43,1.192-1.441s1.209.543,1.23,1.409c.021.836.029,1.674,0,2.509-.017.441.086.6.566.6q5.422-.031,10.844,0c.423,0,.557-.111.541-.539-.032-.863-.025-1.727,0-2.59a1.268,1.268,0,0,1,1.259-1.386,1.242,1.242,0,0,1,1.164,1.378c.013.539,0,1.079,0,1.619,0,1.562,0,1.562,1.585,1.482m-21.831-41.3c-.913,0-1.67.031-2.424-.011a.931.931,0,0,0-.942.546,5.026,5.026,0,0,1-8.623-.026.89.89,0,0,0-.874-.519c-3.159.021-6.318.013-9.477.01A1.939,1.939,0,0,0,9.1,40.6q-3.282,9-6.536,18.009a2.182,2.182,0,0,0,2.1,2.981c2.916.033,5.832,0,8.748.019.442,0,.544-.156.536-.563-.022-1.134-.035-2.269,0-3.4.018-.523-.174-.638-.651-.622-.917.032-1.837.042-2.753,0A1.729,1.729,0,0,1,8.862,54.67c.842-2.417,1.743-4.814,2.619-7.219a1.184,1.184,0,0,1,1.162-.848c.9-.012,1.4.831,1.058,1.818-.624,1.78-1.283,3.548-1.926,5.321-.31.854-.309.856.57.856H25.223c1.9,0,2.236.229,3,2.028.229.535.709.26,1.055.25.454-.014.137-.359.108-.543a5.078,5.078,0,0,1,.051-2.167,4.385,4.385,0,0,1,4.219-3.272c.4-.024.573-.1.573-.545,0-.486-.3-.415-.591-.417-.27,0-.54.007-.81,0a1.8,1.8,0,0,1-1.914-1.858,15.852,15.852,0,0,1,.143-2.827,14.951,14.951,0,0,1,2.368-6m12.734,20.1c-3.677,0-7.291.006-10.9-.009-.427,0-.558.124-.543.549.03.889.025,1.781,0,2.671-.01.395.137.505.517.5,2.131-.018,4.264.038,6.392-.032a4.754,4.754,0,0,0,4.536-3.682m1.631,8.595h0c0-.459-.024-.918.007-1.375.028-.424-.145-.493-.519-.422a10.506,10.506,0,0,1-4.015,0c-.408-.08-.511.043-.5.44.027.862-.007,1.726.014,2.588a2.513,2.513,0,0,0,2.464,2.486,2.542,2.542,0,0,0,2.54-2.422c.025-.43,0-.863,0-1.294M28.381,36.3h.006a6.613,6.613,0,0,1,.007-.89c.08-.582-.159-.724-.717-.707-1.321.041-2.645.024-3.967.006-.387-.005-.606.053-.581.518.038.7-.014,1.405.028,2.1a2.563,2.563,0,0,0,2.636,2.42,2.594,2.594,0,0,0,2.586-2.481c.016-.323,0-.648,0-.972m3.912,24.884c0-.4-.027-.809.007-1.21.039-.466-.073-.68-.6-.649a22.242,22.242,0,0,1-2.418,0c-.5-.025-.671.106-.572.623.15.791.28,1.589.353,2.39.053.58.291.812.865.71a2.817,2.817,0,0,1,.483,0c1.886,0,1.886,0,1.886-1.862M12.64,21.237c0-.538,0-1.077,0-1.615,0-.2.066-.444-.274-.472-1.775-.145-3.234.291-2.964,2.575.137,1.156,1.1,1.755,2.727,1.6,1.114-.109.254-1.033.5-1.524.076-.15.012-.371.011-.559m26.254.014c0,.538-.005,1.076,0,1.614,0,.2-.063.445.274.473,1.7.136,3.19-.282,2.968-2.512-.119-1.2-1.068-1.819-2.746-1.655-1.1.108-.234,1.033-.488,1.522-.077.148-.012.37-.011.559M56.341,55.386c-.043.51-.082,1.02-.129,1.53-.02.224-.05.4.278.454a2.172,2.172,0,0,0,2.326-1.691A2.044,2.044,0,0,0,57.2,53.338c-.631-.117-.975.012-.873.756a9.8,9.8,0,0,1,.011,1.292M33.192,56.905c.33,0,.573-.01.814,0,.3.017.368-.126.32-.392a17.87,17.87,0,0,1-.106-2.74c0-.2.066-.447-.279-.463A2.027,2.027,0,0,0,31.919,56.2a1.047,1.047,0,0,0,1.273.707" transform="translate(0 0)" fill="#020202"/>
        <path id="Trazado_654952" data-name="Trazado 654952" d="M27.454,203.983c.978-.254,1.238-.568,1.245-1.584.011-1.539.021-3.078-.007-4.616-.009-.486.117-.654.628-.644,1.538.033,3.077.028,4.615,0,.453-.007.63.153.658.589.022.348.107.692.164,1.038a3.045,3.045,0,0,0,3.109,2.72q3.522.033,7.044,0a2.935,2.935,0,0,0,3.008-2.326c.119-.452.291-.583.753-.579q4.777.034,9.554,0c.531,0,.679.146.674.675-.013,1.461.01,1.513-1.491,1.449a7.483,7.483,0,0,0-6.236,2.264,6.687,6.687,0,0,0-1.835,4.544q-.041,2.753,0,5.507c.009.529-.139.674-.671.673q-9.635-.027-19.27,0c-.576,0-.724-.169-.71-.725.038-1.43.024-2.861.008-4.292-.011-.943-.294-1.259-1.244-1.5q0-1.6,0-3.2" transform="translate(-18.538 -133.119)" fill="#948ec5"/>
        <path id="Trazado_654953" data-name="Trazado 654953" d="M157.738,114.054a1.538,1.538,0,0,0,.07,2,12.271,12.271,0,0,1,2.2,5.926c.084.724-.042,1.149-.9,1a7.668,7.668,0,0,0-1.05-.039,4.367,4.367,0,0,0-.151-1.193,13.166,13.166,0,0,0-5.058-9.284c-.23-.187-.609-.288-.605-.7a1.855,1.855,0,0,1,.963.355,1.774,1.774,0,0,0,2.208-.022,6.148,6.148,0,0,1,2.328,1.951" transform="translate(-102.801 -75.473)" fill="#776d77"/>
        <path id="Trazado_654954" data-name="Trazado 654954" d="M38.459,120.809a14.95,14.95,0,0,0-2.368,6,15.852,15.852,0,0,0-.143,2.827,1.8,1.8,0,0,0,1.914,1.858c.27.009.54,0,.81,0,.291,0,.59-.07.591.417,0,.441-.172.521-.573.545a4.385,4.385,0,0,0-4.219,3.272,5.073,5.073,0,0,0-.051,2.167c.029.184.346.529-.108.543-.346.011-.827.285-1.055-.25-.768-1.8-1.1-2.028-3-2.028H17.374c-.879,0-.88,0-.57-.856.644-1.773,1.3-3.541,1.926-5.321.347-.987-.155-1.83-1.058-1.818a1.183,1.183,0,0,0-1.162.848c-.876,2.405-1.776,4.8-2.619,7.219a1.729,1.729,0,0,0,1.684,2.351c.916.043,1.836.032,2.754,0,.476-.016.669.1.651.622-.04,1.133-.027,2.269,0,3.4.008.408-.094.566-.536.563-2.916-.018-5.832.013-8.748-.019a2.182,2.182,0,0,1-2.1-2.981q3.234-9.017,6.536-18.009a1.94,1.94,0,0,1,1.989-1.359c3.159,0,6.318.011,9.477-.01a.89.89,0,0,1,.874.519,5.026,5.026,0,0,0,8.623.026.931.931,0,0,1,.942-.546c.753.041,1.51.011,2.424.011" transform="translate(-5.03 -81.568)" fill="#948ec4"/>
        <path id="Trazado_654955" data-name="Trazado 654955" d="M118.776,110.05c0,.408.375.509.605.7a13.166,13.166,0,0,1,5.058,9.284,4.354,4.354,0,0,1,.151,1.193,15.428,15.428,0,0,1-3.949-.168,8.469,8.469,0,0,1-4.894-3.087c-.747-.935-1.519-.937-2.255-.016a8.427,8.427,0,0,1-6.89,3.3c-1.025,0-2.052-.038-3.075.015-.657.033-.874-.126-.843-.835a11.973,11.973,0,0,1,9.758-11.006,10.794,10.794,0,0,1,6.334.625" transform="translate(-69.336 -73.753)" fill="#8d828f"/>
        <path id="Trazado_654956" data-name="Trazado 654956" d="M124.319,226.08c-1.585.079-1.585.079-1.585-1.482,0-.54.01-1.079,0-1.619a1.243,1.243,0,0,0-1.164-1.379,1.268,1.268,0,0,0-1.259,1.386c-.021.863-.028,1.728,0,2.59.016.428-.117.541-.541.539q-5.422-.024-10.844,0c-.48,0-.583-.158-.566-.6.032-.835.025-1.673,0-2.509-.022-.867-.522-1.419-1.23-1.409s-1.175.558-1.192,1.441c-.016.836-.021,1.673,0,2.509.012.4-.073.583-.526.566-.889-.034-1.781-.032-2.67,0-.418.015-.48-.153-.477-.516.017-1.916-.027-3.833.023-5.747a4.491,4.491,0,0,1,4.269-4.274c.242-.01.487.015.728-.009,1.289-.126,2.211-.016,2.843,1.528a4.263,4.263,0,0,0,4.673,2.485,4.63,4.63,0,0,0,4.169-3.318c.192-.567.431-.757,1-.7a13.975,13.975,0,0,1,2.726.136,1.361,1.361,0,0,0,.436.84,5.381,5.381,0,0,1,1.2,3.573c-.048,1.987-.013,3.977-.014,5.966" transform="translate(-69.059 -145.538)" fill="#e1f3fa"/>
        <path id="Trazado_654957" data-name="Trazado 654957" d="M122.547,160.892a8.632,8.632,0,0,0,2.374-4.48c.237-1.575-.351-2.318-1.93-2.319-3.1,0-6.208-.011-9.312.01-.488,0-.7-.094-.745-.633-.157-2-.025-3.994-.078-5.99-.01-.371.219-.365.474-.362a10.847,10.847,0,0,0,7.861-3.031c.228-.216.359-.215.588,0a10.874,10.874,0,0,0,7.863,3.03c.262,0,.487.006.473.368-.088,2.341.253,4.706-.276,7.023-.79,3.458-4.031,6.3-7.247,6.426ZM127,149.942a1.222,1.222,0,1,0-2.429-.025,1.249,1.249,0,0,0,1.2,1.419A1.234,1.234,0,0,0,127,149.942m-8.617.048c.013-.869-.437-1.408-1.183-1.418a1.238,1.238,0,0,0-1.244,1.378,1.253,1.253,0,0,0,1.244,1.386,1.213,1.213,0,0,0,1.183-1.345" transform="translate(-76.205 -97.186)" fill="#f3d0a7"/>
        <path id="Trazado_654958" data-name="Trazado 654958" d="M62.564,79.77a3.4,3.4,0,0,1-1.515.17q-4.008.013-8.017,0a6.5,6.5,0,0,1-6.694-7.161c.026-.5.254-.483.6-.481,2,.007,4-.007,5.992.009a2.845,2.845,0,0,0,2.111-.838,2.7,2.7,0,0,1,4.027.024,2.771,2.771,0,0,0,2.039.812c1.511-.006,3.022.015,4.532.024a15.413,15.413,0,0,1-.084,2.73,8.136,8.136,0,0,1-2.995,4.708m-5.519-2.728c.7,0,1.4.019,2.1-.005a1.2,1.2,0,1,0,.077-2.4q-2.18-.06-4.364,0a1.2,1.2,0,1,0,.084,2.405c.7.023,1.4,0,2.1,0" transform="translate(-31.283 -47.661)" fill="#f5d1a8"/>
        <path id="Trazado_654959" data-name="Trazado 654959" d="M65.663,53.818c-1.43.008-2.861.008-4.291.029a1.09,1.09,0,0,1-.783-.326,5.1,5.1,0,0,0-6.984-.032,1.32,1.32,0,0,1-.939.36c-1.863-.014-3.726-.021-5.589,0-.5.006-.714-.087-.7-.654.035-1.917.025-3.835,0-5.752,0-.452.126-.6.591-.6q9.354.033,18.708.036-.006,3.47-.013,6.94m-1.125-3.859a1.216,1.216,0,1,0-2.429-.037,1.217,1.217,0,1,0,2.429.037M50.8,48.66a1.2,1.2,0,0,0-1.175,1.35,1.227,1.227,0,0,0,1.232,1.23,1.268,1.268,0,0,0,1.193-1.287A1.225,1.225,0,0,0,50.8,48.66" transform="translate(-31.313 -31.63)" fill="#7c8a96"/>
        <path id="Trazado_654960" data-name="Trazado 654960" d="M64.984,12.858l-15.534.028c-1.564,0-3.13-.03-4.693.015-.644.019-.679-.18-.535-.729a6.165,6.165,0,0,1,5.692-4.614c3.775-.061,7.552-.018,11.327-.013a3.4,3.4,0,0,1,1.331.275c-.037.425.333.587.55.846a6.78,6.78,0,0,1,1.861,4.191" transform="translate(-29.814 -5.082)" fill="#948ec5"/>
        <path id="Trazado_654961" data-name="Trazado 654961" d="M59.356,34.03c-.269.012-.538.035-.807.035q-13.886,0-27.771,0a5.594,5.594,0,0,1-.727-.018,1.23,1.23,0,0,1-1.17-1.3,1.244,1.244,0,0,1,1.255-1.221c.134-.011.27-.005.4-.005H58.879c.161,0,.323.015.485.023a2.758,2.758,0,0,1-.007,2.484" transform="translate(-19.501 -21.284)" fill="#a9a6d1"/>
        <path id="Trazado_654962" data-name="Trazado 654962" d="M59.3,184.467c-1.941.013-3.882.023-5.823.041a.74.74,0,0,1-.845-.758c-.064-.561-.211-1.112-.284-1.673a1.93,1.93,0,0,0-1.6-1.875c-.339-.063-.361-.216-.36-.481.007-1.214.019-2.429-.006-3.643-.008-.4.137-.5.512-.491,2.426.027,4.853.033,7.279.046.211,1.375.459,2.745.622,4.125a26.093,26.093,0,0,1,.5,4.709" transform="translate(-34.02 -118.566)" fill="#f5d1a8"/>
        <path id="Trazado_654963" data-name="Trazado 654963" d="M118.345,182.7a4.754,4.754,0,0,1-4.536,3.682c-2.129.069-4.262.014-6.392.032-.38,0-.527-.107-.517-.5.022-.89.028-1.781,0-2.671-.014-.424.116-.55.543-.549,3.614.015,7.228.009,10.9.009" transform="translate(-72.183 -123.364)" fill="#e1f3fa"/>
        <path id="Trazado_654964" data-name="Trazado 654964" d="M136.729,205.4c0,.431.021.864,0,1.294a2.542,2.542,0,0,1-2.54,2.422,2.513,2.513,0,0,1-2.464-2.486c-.021-.862.013-1.726-.014-2.588-.012-.4.092-.52.5-.44a10.5,10.5,0,0,0,4.015,0c.374-.071.547,0,.519.422-.031.456-.007.916-.007,1.374Z" transform="translate(-88.934 -137.466)" fill="#f1bc8c"/>
        <path id="Trazado_654965" data-name="Trazado 654965" d="M76.47,108.453c0,.324.014.649,0,.972a2.594,2.594,0,0,1-2.586,2.481,2.563,2.563,0,0,1-2.636-2.42c-.042-.7.01-1.4-.028-2.1-.025-.466.194-.523.581-.518,1.322.018,2.646.034,3.967-.006.558-.017.8.124.717.707a6.613,6.613,0,0,0-.007.89Z" transform="translate(-48.089 -72.154)" fill="#f1bc8c"/>
        <path id="Trazado_654966" data-name="Trazado 654966" d="M166.8,226.434c0-1.988-.034-3.978.014-5.966a5.381,5.381,0,0,0-1.2-3.573,1.361,1.361,0,0,1-.436-.84,4.376,4.376,0,0,1,3.7,4.249c.05,1.884,0,3.771.023,5.656,0,.378-.092.533-.491.506-.536-.037-1.076-.024-1.613-.033" transform="translate(-111.538 -145.892)" fill="#cceaf8"/>
        <path id="Trazado_654967" data-name="Trazado 654967" d="M75.5,184.455a26.092,26.092,0,0,0-.5-4.709c-.163-1.38-.411-2.75-.622-4.125,1.693-.132,1.69-.132,1.922,1.493.293,2.05.584,4.1.892,6.149.161,1.073.039,1.235-1.045,1.23-.214,0-.428-.025-.642-.039" transform="translate(-50.223 -118.554)" fill="#f1bc8c"/>
        <path id="Trazado_654968" data-name="Trazado 654968" d="M105.775,53.845q.006-3.47.013-6.94c2.1-.077,2.1-.077,2.1,1.983,0,1.458-.013,2.916.008,4.374.006.441-.105.65-.585.613-.51-.038-1.024-.022-1.536-.03" transform="translate(-71.425 -31.657)" fill="#5e6d76"/>
        <path id="Trazado_654969" data-name="Trazado 654969" d="M96.326,83.349a8.139,8.139,0,0,0,3-4.708,15.443,15.443,0,0,0,.084-2.73c.215-.01.43-.027.645-.028,1.526-.007,1.526-.006,1.446,1.553a6.352,6.352,0,0,1-5.171,5.913" transform="translate(-65.045 -51.24)" fill="#f1bc8c"/>
        <path id="Trazado_654970" data-name="Trazado 654970" d="M91.925,184.532c0,1.862,0,1.862-1.886,1.862a2.785,2.785,0,0,0-.483,0c-.575.1-.812-.13-.865-.71-.073-.8-.2-1.6-.353-2.39-.1-.517.072-.648.573-.623a22.239,22.239,0,0,0,2.418,0c.532-.032.644.182.6.649-.033.4-.007.806-.007,1.209" transform="translate(-59.632 -123.349)" fill="#7fdac2"/>
        <path id="Trazado_654971" data-name="Trazado 654971" d="M32.118,61c0,.188.064.409-.012.559-.248.492.612,1.415-.5,1.524-1.63.16-2.59-.439-2.727-1.6-.27-2.283,1.189-2.72,2.964-2.575.341.028.272.271.275.472.007.538,0,1.077,0,1.615" transform="translate(-19.477 -39.767)" fill="#f1bc8c"/>
        <path id="Trazado_654972" data-name="Trazado 654972" d="M119.608,61.057c0-.188-.065-.41.012-.559.254-.49-.616-1.415.488-1.522,1.677-.164,2.627.456,2.746,1.655.221,2.23-1.27,2.649-2.968,2.512-.337-.027-.271-.272-.274-.473-.007-.538,0-1.076,0-1.614" transform="translate(-80.714 -39.806)" fill="#f1bc8c"/>
        <path id="Trazado_654973" data-name="Trazado 654973" d="M103.28,13.471a6.78,6.78,0,0,0-1.861-4.191c-.217-.259-.587-.421-.55-.846a6.1,6.1,0,0,1,4.42,4.631c.069.424-.091.444-.4.435-.536-.016-1.072-.02-1.608-.029" transform="translate(-68.111 -5.695)" fill="#8a87af"/>
        <path id="Trazado_654974" data-name="Trazado 654974" d="M173.2,166.214a9.737,9.737,0,0,0-.011-1.292c-.1-.744.243-.873.873-.756a2.044,2.044,0,0,1,1.613,2.342,2.172,2.172,0,0,1-2.326,1.691c-.327-.056-.3-.23-.278-.454.047-.51.086-1.02.129-1.531" transform="translate(-116.86 -110.828)" fill="#f1bc8c"/>
        <path id="Trazado_654975" data-name="Trazado 654975" d="M99.154,167.753a1.047,1.047,0,0,1-1.273-.707A2.027,2.027,0,0,1,99.9,164.16c.345.016.274.263.279.463a17.87,17.87,0,0,0,.106,2.74c.047.267-.021.409-.32.392-.241-.013-.484,0-.814,0" transform="translate(-65.962 -110.848)" fill="#f1bc8c"/>
        <path id="Trazado_654976" data-name="Trazado 654976" d="M122.726,34.023a2.758,2.758,0,0,0,.007-2.484c.35-.009.7-.045,1.049-.021a1.268,1.268,0,0,1,.07,2.532,8.029,8.029,0,0,1-1.127-.027" transform="translate(-82.871 -21.277)" fill="#8a87af"/>
        <path id="Trazado_654977" data-name="Trazado 654977" d="M142.489,196.213a.837.837,0,0,1-.114.079c-.008,0-.037-.032-.056-.049l.125-.071.044.041" transform="translate(-96.102 -132.466)" fill="#f3d0a7"/>
        <path id="Trazado_654978" data-name="Trazado 654978" d="M151.37,159.6A1.234,1.234,0,0,1,150.145,161a1.249,1.249,0,0,1-1.2-1.419,1.222,1.222,0,1,1,2.429.025" transform="translate(-100.573 -106.848)" fill="#020202"/>
        <path id="Trazado_654979" data-name="Trazado 654979" d="M124.84,159.652A1.213,1.213,0,0,1,123.657,161a1.253,1.253,0,0,1-1.244-1.386,1.238,1.238,0,0,1,1.244-1.378c.746.01,1.2.55,1.183,1.419" transform="translate(-82.66 -106.848)" fill="#020202"/>
        <path id="Trazado_654980" data-name="Trazado 654980" d="M72.339,85.4c-.7,0-1.4.019-2.1,0a1.2,1.2,0,1,1-.084-2.405q2.181-.06,4.364,0a1.2,1.2,0,1,1-.077,2.4c-.7.024-1.4.005-2.1.006" transform="translate(-46.577 -56.022)" fill="#020202"/>
        <path id="Trazado_654981" data-name="Trazado 654981" d="M97.262,53.738a1.217,1.217,0,1,1-2.429-.037,1.216,1.216,0,1,1,2.429.037" transform="translate(-64.036 -35.409)" fill="#020202"/>
        <path id="Trazado_654982" data-name="Trazado 654982" d="M57.557,52.439a1.225,1.225,0,0,1,1.25,1.293,1.268,1.268,0,0,1-1.193,1.287,1.227,1.227,0,0,1-1.232-1.23,1.2,1.2,0,0,1,1.175-1.35" transform="translate(-38.072 -35.409)" fill="#020202"/>
      </g>
    </g>
  </g>
</svg>
