<svg xmlns="http://www.w3.org/2000/svg" xmlns:xlink="http://www.w3.org/1999/xlink" width="85" height="85" viewBox="0 0 85 85">
  <defs>
    <clipPath id="clip-path">
      <rect id="Rect치ngulo_309950" data-name="Rect치ngulo 309950" width="69.223" height="69.204" fill="none"/>
    </clipPath>
  </defs>
  <g id="Grupo_995528" data-name="Grupo 995528" transform="translate(-1335 -6589)">
    <rect id="Rect치ngulo_309092" data-name="Rect치ngulo 309092" width="85" height="85" transform="translate(1335 6589)" fill="none"/>
    <g id="Grupo_995732" data-name="Grupo 995732" transform="translate(1342.888 6596.898)">
      <g id="Grupo_995731" data-name="Grupo 995731" clip-path="url(#clip-path)">
        <path id="Trazado_655434" data-name="Trazado 655434" d="M110.156,69.2q-5.964,0-11.929,0c-1.749,0-2.538-.79-2.589-2.54a5.459,5.459,0,0,1,.822-3.523.331.331,0,0,0,0-.479c-1.8-2.248-2.38-4.943-2.754-7.7-.166-1.218-.2-2.454-.278-3.683a.787.787,0,0,0-.321-.706c-7.557-5.273-6.274-16.3-.9-21.315a19.524,19.524,0,0,1,6.93-4.158c.2-.072.59,0,.548-.378-.033-.305-.354-.244-.564-.29a4.187,4.187,0,0,1-3.481-4.261c-.021-3.348-.117-6.7.024-10.044a9.452,9.452,0,0,1,4.956-7.921A16.354,16.354,0,0,1,108.261.074a21.189,21.189,0,0,1,9.85,1.338,10.143,10.143,0,0,1,6.475,7.938,4.933,4.933,0,0,1,.071.832c0,3.3.015,6.6,0,9.906a4.19,4.19,0,0,1-3.537,4.354c-.209.047-.522.008-.523.335,0,.294.312.236.481.3a17.345,17.345,0,0,1,8.793,6.307c3.2,4.562,3.489,11.283.682,15.68a12.282,12.282,0,0,1-3.129,3.338,1.234,1.234,0,0,0-.565,1.08,24.447,24.447,0,0,1-1.627,8.851,8.31,8.31,0,0,1-1.3,2.215.479.479,0,0,0-.026.7,5.608,5.608,0,0,1,.673,4.1,2.018,2.018,0,0,1-2.219,1.86c-.186,0-.372,0-.558,0h-11.65M97.8,37.014a3.773,3.773,0,0,0-.014,1.208c.085-.539.138-.879.192-1.219a5.4,5.4,0,0,1,2.743-3.751c2.524-1.42,7.231-1.227,9.163,1.183.145.181.268.3.487.053,1.611-1.818,3.734-2.2,6.013-2.1,3.126.141,5.3,1.848,5.935,4.617l.166,1.013a2.2,2.2,0,0,0,.005-1.006c-.031-1.191-.03-1.19,1.219-1.3a3.838,3.838,0,0,0,.552-.078c.313-.076.393.055.419.352.3,3.451-.517,6.51-3.151,8.91a12.167,12.167,0,0,1-5.051,2.7c-.419.115-.6.235-.5.738.243,1.181.417,2.378.59,3.572.054.376.212.452.556.39a22.164,22.164,0,0,0,7.339-2.506,10.647,10.647,0,0,0,5.472-6.966,12.977,12.977,0,0,0-.878-8.377c-1.65-3.629-4.611-5.787-8.263-7.116-1.215-.442-1.216-.437-2.029.508-.121.141-.248.277-.379.409a10.126,10.126,0,0,1-6.677,2.926c-4.178.327-7.985-.4-10.694-4-.185-.246-.35-.214-.594-.141-4.729,1.408-9.753,4.848-10.318,11.924a10.482,10.482,0,0,0,3.8,9.488,19.743,19.743,0,0,0,9.351,3.866c.355.065.434-.109.478-.409q.213-1.447.464-2.887c.208-1.208.214-1.207-.913-1.569-5.329-1.713-8.233-6.007-7.677-11.321.044-.423.14-.6.578-.462a1.928,1.928,0,0,0,.414.055c1.251.113,1.251.112,1.207,1.307m11.714-21.823a12.486,12.486,0,0,1-2.153-2.637c-.587-1.021-.589-1.02.5-1.382.22-.074.447-.132.659-.223.322-.139.509-.052.657.268a6,6,0,0,0,1.066,1.541c2.036,2.219,4.69,2.894,7.554,2.98,1.594.048,1.243.089,1.282-1.223.006-.186,0-.372,0-.558,0-1.783,0-1.77,1.777-1.687.379.018.469.152.462.5-.018.79.029,1.582-.015,2.37-.04.707.526.553.857.608.425.07.257-.344.259-.545.016-1.58,0-3.161.013-4.741a6.1,6.1,0,0,0-.355-2.117c-1.066-3-3.394-4.556-6.294-5.393a21.732,21.732,0,0,0-8.633-.536,13.235,13.235,0,0,0-5.218,1.611A7.4,7.4,0,0,0,97.87,10.9c.026,1.417-.007,2.835.018,4.253,0,.2-.233.667.281.59.341-.051.873.062.834-.635-.053-.95-.044-1.906,0-2.858a3.239,3.239,0,0,1,1.892-3.015c.21-.1.427-.162.468-.452.064-.457.051-1.1.405-1.273.4-.192.875.3,1.333.446.088.029.169.079.258.1.339.1.4.278.3.627a5.3,5.3,0,0,0-.137,2.2c.326,2.243,2.784,3.9,6,4.3m-8.106-3.379c-.24.144-.183.375-.183.572,0,3.022-.059,6.046.019,9.066a7.525,7.525,0,0,0,5.18,6.994,11.686,11.686,0,0,0,6.934.164,7.342,7.342,0,0,0,5.457-5.578,21.053,21.053,0,0,0,.274-4.508c.024-.487-.156-.561-.589-.548a13.946,13.946,0,0,1-6.186-1.1c-.538-.239-.7-.116-.675.432.018.435-.154.608-.627.508-.749-.158-1.521-.209-2.265-.38-3.292-.758-6.194-2.043-7.338-5.618m7.624,29.778c0-1.138.006-2.275,0-3.412a3.264,3.264,0,0,0-2.235-3.2,6.435,6.435,0,0,0-4.033-.136,3.33,3.33,0,0,0-2.658,3.512c0,1.369.023,2.74-.013,4.108a1.243,1.243,0,0,0,.537,1.112,10.742,10.742,0,0,0,4.439,2.054,2.214,2.214,0,0,0,.89.072,5.9,5.9,0,0,1,2.555.04c.471.125.536-.048.529-.465-.023-1.23-.008-2.46-.008-3.69M120.2,40.3c0-.721.006-1.441,0-2.162a3.271,3.271,0,0,0-2.144-3.127,6.212,6.212,0,0,0-3.356-.329c-2.432.4-3.426,1.574-3.426,4.007V44.9c0,.883,0,.863.9.757a10.615,10.615,0,0,1,1.462-.036,6.507,6.507,0,0,0,1.24.077,11.072,11.072,0,0,0,4.514-1.909,1.635,1.635,0,0,0,.828-1.674A14.435,14.435,0,0,1,120.2,40.3m-4.47,21.086c1.3,0,2.6-.019,3.9.01.449.01.588-.108.582-.572-.026-1.926-.011-3.852-.011-5.779,0-1.164,0-1.162-1.1-.918-.271.06-.553.087-.816.171-.73.233-1.585.059-2.221.49a4.965,4.965,0,0,1-4.314.661c-.477-.131-.487.059-.485.42.01,1.648.019,3.3-.006,4.943-.007.444.1.6.569.585,1.3-.033,2.6-.011,3.9-.011m-11.153,0c1.323,0,2.646-.015,3.968.009.4.007.506-.118.5-.509-.02-1.671-.013-3.342,0-5.013,0-.352,0-.56-.481-.426a4.777,4.777,0,0,1-4.306-.669,1.141,1.141,0,0,0-.516-.184,22.876,22.876,0,0,1-3.133-.626c-.4-.107-.508-.057-.5.377q.03,3.272,0,6.544c0,.4.112.511.506.5,1.322-.023,2.646-.009,3.968-.009m-1.126,5.576v.005c1.695,0,3.389-.01,5.084.008.381,0,.53-.086.512-.494a20.474,20.474,0,0,1,0-2.227c.035-.527-.128-.652-.648-.647-2.855.027-5.71.013-8.565.013a1.743,1.743,0,0,0-1.788,1.242,4.994,4.994,0,0,0-.184,1.37c-.044.56.1.763.711.746,1.624-.046,3.249-.016,4.874-.016m13.4.005H121.1c1.424,0,1.577-.193,1.29-1.628-.192-.963-.846-1.711-1.566-1.714-3.041-.012-6.083,0-9.124-.014-.405,0-.445.171-.437.5.017.766.034,1.533-.005,2.3-.024.464.13.579.579.572,1.671-.026,3.343-.01,5.015-.01m-7.816-16.176h-.007c0-.6.008-1.208,0-1.811a1.029,1.029,0,0,0-.837-1.053,5.593,5.593,0,0,0-1.105-.1c-.319-.026-.45.1-.5.413q-.357,2.233-.748,4.46a.462.462,0,0,0,.379.609,3.519,3.519,0,0,0,2.117-.1c.5-.148.8-.354.717-.959a10.479,10.479,0,0,1-.014-1.462m2.232-.042c0,.6,0,1.208,0,1.812,0,.183-.023.364.209.461a3.955,3.955,0,0,0,2.437.346c.469-.1.637-.32.535-.829-.251-1.25-.448-2.512-.655-3.771-.162-.986-.154-.987-1.159-.922-1.021.066-1.356.416-1.367,1.44-.005.488,0,.976,0,1.464M97.728,60.631c.064-.041.129-.063.129-.085q.013-3.552.018-7.1a.391.391,0,0,0-.265-.428c-.619-.249-1.228-.52-1.908-.81a18.963,18.963,0,0,0,2.026,8.427M124.6,52.207c-.616.262-1.157.522-1.718.721a.631.631,0,0,0-.464.723c.019,2.205.008,4.411.014,6.617,0,.115-.091.284.146.354a18.945,18.945,0,0,0,2.022-8.415M98.981,17.794a2.415,2.415,0,0,0-1.08,2.638,1.7,1.7,0,0,0,1.08,1.587Zm22.345,4.235a1.994,1.994,0,0,0,1.091-2.135c-.042-.8-.113-1.622-1.091-2.043Z" transform="translate(-63.256 0)" fill="#020202"/>
        <path id="Trazado_655435" data-name="Trazado 655435" d="M14.6,203.533c4.556,0,9.112.012,13.667-.016.552,0,.69.188.747.678a9.843,9.843,0,0,1-5.044,9.539,16.732,16.732,0,0,1-7.389,2A21.9,21.9,0,0,1,6.132,214.27a9.908,9.908,0,0,1-6.108-9.8c.063-.936.063-.936.977-.936H14.6m-.032,2.233c-3.906,0-7.811.008-11.716-.01-.507,0-.6.1-.509.618A7.769,7.769,0,0,0,7.2,212.3a15.7,15.7,0,0,0,5.48,1.21,20.278,20.278,0,0,0,8.784-1.055,7.818,7.818,0,0,0,5.241-6.013c.11-.563.012-.695-.563-.691-3.859.024-7.718.012-11.577.012" transform="translate(0 -146.608)" fill="#020202"/>
        <path id="Trazado_655436" data-name="Trazado 655436" d="M15.263,119.753A11.162,11.162,0,1,1,4.052,130.881a11.18,11.18,0,0,1,11.211-11.128m8.878,11.182a8.928,8.928,0,1,0-8.931,8.908,8.952,8.952,0,0,0,8.931-8.908" transform="translate(-2.919 -86.267)" fill="#030303"/>
        <path id="Trazado_655437" data-name="Trazado 655437" d="M128.106,106.485c-.632-2.769-2.809-4.476-5.935-4.617-2.279-.1-4.4.283-6.013,2.1-.22.247-.342.128-.487-.053-1.932-2.409-6.638-2.6-9.163-1.182a5.4,5.4,0,0,0-2.743,3.75l-.178.011c.044-1.194.044-1.194-1.207-1.307a1.927,1.927,0,0,1-.414-.055c-.438-.141-.534.039-.578.462-.555,5.314,2.348,9.608,7.677,11.321,1.127.362,1.12.361.912,1.569q-.248,1.441-.464,2.888c-.044.3-.123.474-.478.409a19.748,19.748,0,0,1-9.35-3.866,10.484,10.484,0,0,1-3.8-9.488c.565-7.076,5.589-10.516,10.318-11.924.245-.073.41-.1.594.141,2.71,3.608,6.517,4.331,10.695,4a10.125,10.125,0,0,0,6.677-2.926c.131-.132.258-.268.379-.409.813-.945.814-.95,2.029-.508,3.652,1.329,6.613,3.488,8.262,7.116a12.978,12.978,0,0,1,.879,8.377,10.649,10.649,0,0,1-5.472,6.966,22.156,22.156,0,0,1-7.339,2.506c-.345.062-.5-.015-.556-.39-.172-1.195-.346-2.391-.59-3.572-.1-.5.081-.623.5-.738a12.16,12.16,0,0,0,5.051-2.7c2.634-2.4,3.456-5.458,3.151-8.909-.026-.3-.107-.428-.42-.352a3.829,3.829,0,0,1-.551.079c-1.25.114-1.25.113-1.219,1.3l-.171-.006" transform="translate(-69.042 -69.48)" fill="#ec8673"/>
        <path id="Trazado_655438" data-name="Trazado 655438" d="M135.344,20.9c-3.212-.4-5.669-2.054-6-4.3a5.294,5.294,0,0,1,.137-2.2c.1-.35.035-.53-.3-.627-.089-.025-.17-.075-.258-.1-.458-.15-.934-.638-1.333-.446-.354.17-.341.817-.405,1.274-.041.29-.258.352-.468.452a3.239,3.239,0,0,0-1.892,3.016c-.039.951-.049,1.908,0,2.858.039.7-.493.584-.834.635-.514.077-.278-.386-.281-.59-.025-1.417.008-2.835-.018-4.253a7.4,7.4,0,0,1,4.061-6.879,13.233,13.233,0,0,1,5.218-1.611,21.727,21.727,0,0,1,8.633.536c2.9.837,5.228,2.394,6.294,5.393a6.1,6.1,0,0,1,.355,2.117c-.015,1.58,0,3.161-.013,4.741,0,.2.166.616-.259.545-.331-.055-.9.1-.857-.608.044-.787,0-1.58.015-2.37.008-.345-.082-.479-.462-.5-1.778-.083-1.777-.1-1.777,1.687,0,.186,0,.372,0,.558-.039,1.312.312,1.271-1.282,1.223-2.865-.086-5.518-.761-7.554-2.98A6,6,0,0,1,135,16.929c-.147-.32-.335-.407-.657-.268-.212.092-.439.15-.659.223-1.085.362-1.084.362-.5,1.383a12.487,12.487,0,0,0,2.153,2.636" transform="translate(-89.084 -5.712)" fill="#656c76"/>
        <path id="Trazado_655439" data-name="Trazado 655439" d="M135.915,42.24c1.144,3.574,4.047,4.86,7.338,5.618.745.171,1.517.222,2.265.38.474.1.646-.072.627-.508-.023-.548.137-.671.675-.432a13.943,13.943,0,0,0,6.186,1.1c.433-.013.613.061.589.548a21.05,21.05,0,0,1-.274,4.507,7.342,7.342,0,0,1-5.457,5.578,11.688,11.688,0,0,1-6.934-.163,7.526,7.526,0,0,1-5.18-6.994c-.078-3.02-.022-6.044-.019-9.066,0-.2-.057-.428.183-.572m12.377,13.014c.017-.376-.31-.324-.489-.371a12.039,12.039,0,0,0-5.094-.221c-1.867.309-1.856.306-1.21,2.058.122.329.256.424.6.341a10.154,10.154,0,0,1,5.149-.012c.159.043.376.167.471-.1.2-.566.386-1.136.574-1.693m-8.234-3.747a4.1,4.1,0,0,0,2.508-.763c.709-.5.709-.5.116-1.089-.246-.246-.509-.477-.736-.739-.211-.244-.372-.25-.629-.044a1.491,1.491,0,0,1-1.871.187c-.681-.5-1.043-.233-1.445.287a3.021,3.021,0,0,1-.488.494c-.31.251-.315.438.023.686a4.517,4.517,0,0,0,2.521.98m9.128,0a3.764,3.764,0,0,0,2.042-.586c1.03-.622,1.029-.63.166-1.482-.165-.163-.343-.315-.491-.492-.216-.259-.392-.3-.681-.06a1.438,1.438,0,0,1-1.807.19c-.707-.535-1.082-.24-1.5.29a2.988,2.988,0,0,1-.489.493c-.353.276-.235.458.066.681a4.568,4.568,0,0,0,2.7.966" transform="translate(-97.761 -30.428)" fill="#e8ceb5"/>
        <path id="Trazado_655440" data-name="Trazado 655440" d="M140.677,130.692c0,1.23-.015,2.461.008,3.691.008.417-.057.59-.529.465a5.9,5.9,0,0,0-2.555-.04,2.219,2.219,0,0,1-.89-.072,10.749,10.749,0,0,1-4.439-2.054,1.243,1.243,0,0,1-.537-1.112c.036-1.369.011-2.739.013-4.108a3.33,3.33,0,0,1,2.658-3.512,6.437,6.437,0,0,1,4.033.136,3.265,3.265,0,0,1,2.235,3.2c.007,1.137,0,2.275,0,3.412" transform="translate(-94.899 -89.103)" fill="#c9a072"/>
        <path id="Trazado_655441" data-name="Trazado 655441" d="M180.625,129.42a14.434,14.434,0,0,0,.015,1.811,1.636,1.636,0,0,1-.828,1.674,11.073,11.073,0,0,1-4.514,1.909,6.53,6.53,0,0,1-1.24-.077,10.573,10.573,0,0,0-1.462.035c-.9.107-.9.127-.9-.756v-6.207c0-2.433.994-3.608,3.426-4.007a6.215,6.215,0,0,1,3.356.328,3.271,3.271,0,0,1,2.144,3.127c.007.721,0,1.441,0,2.162" transform="translate(-123.686 -89.116)" fill="#c9a072"/>
        <path id="Trazado_655442" data-name="Trazado 655442" d="M176.129,200.506c-1.3,0-2.6-.022-3.9.011-.469.012-.576-.141-.569-.585.025-1.647.016-3.3.005-4.943,0-.361.008-.55.485-.42a4.964,4.964,0,0,0,4.314-.661c.636-.431,1.492-.257,2.221-.49.263-.084.544-.111.816-.171,1.1-.244,1.1-.245,1.1.918,0,1.926-.015,3.853.011,5.779.006.464-.134.582-.582.572-1.3-.029-2.6-.01-3.9-.01" transform="translate(-123.66 -139.117)" fill="#caa072"/>
        <path id="Trazado_655443" data-name="Trazado 655443" d="M136.224,200.308c-1.323,0-2.646-.014-3.968.009-.395.007-.51-.107-.507-.5q.028-3.272,0-6.544c0-.434.109-.484.5-.377a22.905,22.905,0,0,0,3.133.626,1.141,1.141,0,0,1,.516.184,4.776,4.776,0,0,0,4.306.669c.485-.134.483.073.481.426-.009,1.671-.015,3.342,0,5.013,0,.391-.1.516-.5.509-1.322-.024-2.645-.009-3.968-.009" transform="translate(-94.908 -138.919)" fill="#caa072"/>
        <path id="Trazado_655444" data-name="Trazado 655444" d="M129.324,230.835c-1.625,0-3.251-.03-4.874.015-.607.017-.755-.186-.711-.746a5,5,0,0,1,.184-1.37,1.743,1.743,0,0,1,1.788-1.241c2.855,0,5.71.014,8.565-.013.519-.005.683.12.647.647a20.546,20.546,0,0,0,0,2.227c.017.408-.131.5-.513.494-1.694-.018-3.389-.008-5.083-.008Z" transform="translate(-89.133 -163.87)" fill="#aab1bb"/>
        <path id="Trazado_655445" data-name="Trazado 655445" d="M177.247,230.851c-1.672,0-3.344-.016-5.015.01-.449.007-.6-.107-.579-.572.039-.764.022-1.532.005-2.3-.007-.326.032-.5.437-.5,3.041.017,6.083,0,9.124.014.72,0,1.374.751,1.566,1.714.287,1.435.134,1.628-1.29,1.628h-4.249" transform="translate(-123.652 -163.881)" fill="#aab1bb"/>
        <path id="Trazado_655446" data-name="Trazado 655446" d="M155.429,174.015a10.434,10.434,0,0,0,.014,1.461c.086.606-.221.812-.717.959a3.519,3.519,0,0,1-2.117.1.463.463,0,0,1-.379-.609q.39-2.228.748-4.46c.05-.313.181-.438.5-.413a5.6,5.6,0,0,1,1.105.1,1.03,1.03,0,0,1,.838,1.053c.011.6,0,1.208,0,1.812h.007" transform="translate(-109.651 -123.221)" fill="#e8ceb5"/>
        <path id="Trazado_655447" data-name="Trazado 655447" d="M171.691,173.958c0-.488,0-.976,0-1.464.011-1.023.345-1.373,1.367-1.44,1.005-.065,1-.063,1.159.922.207,1.259.4,2.52.655,3.771.1.51-.067.726-.535.829a3.954,3.954,0,0,1-2.437-.346c-.232-.1-.208-.279-.209-.461,0-.6,0-1.208,0-1.812" transform="translate(-123.68 -123.206)" fill="#e8ceb5"/>
        <path id="Trazado_655448" data-name="Trazado 655448" d="M118.056,195.116a18.96,18.96,0,0,1-2.026-8.427c.68.291,1.29.562,1.908.81a.391.391,0,0,1,.266.428q-.01,3.552-.018,7.1c0,.022-.065.044-.129.085" transform="translate(-83.585 -134.485)" fill="#ea8572"/>
        <path id="Trazado_655449" data-name="Trazado 655449" d="M213.749,186.7a18.95,18.95,0,0,1-2.023,8.415c-.237-.07-.145-.239-.146-.354-.006-2.206,0-4.411-.014-6.617a.63.63,0,0,1,.464-.723c.562-.2,1.1-.459,1.718-.722" transform="translate(-152.405 -134.493)" fill="#ea8572"/>
        <path id="Trazado_655450" data-name="Trazado 655450" d="M124.913,63.635V67.86a1.694,1.694,0,0,1-1.08-1.587,2.415,2.415,0,0,1,1.08-2.638" transform="translate(-89.188 -45.841)" fill="#e8ceb5"/>
        <path id="Trazado_655451" data-name="Trazado 655451" d="M207.671,68.017V63.839c.978.421,1.049,1.238,1.091,2.043a1.994,1.994,0,0,1-1.091,2.135" transform="translate(-149.6 -45.988)" fill="#e8ceb5"/>
        <path id="Trazado_655452" data-name="Trazado 655452" d="M123.394,132.34l.178-.011-.192,1.219a3.765,3.765,0,0,1,.014-1.208" transform="translate(-88.848 -95.326)" fill="#656c76"/>
        <path id="Trazado_655453" data-name="Trazado 655453" d="M211.225,132.334l.171.006a2.2,2.2,0,0,1-.005,1.006l-.166-1.013" transform="translate(-152.16 -95.33)" fill="#656c76"/>
        <path id="Trazado_655454" data-name="Trazado 655454" d="M20.513,211.528c3.859,0,7.718.011,11.577-.012.575,0,.674.128.563.691a7.818,7.818,0,0,1-5.241,6.013,20.278,20.278,0,0,1-8.784,1.055,15.7,15.7,0,0,1-5.48-1.21,7.769,7.769,0,0,1-4.861-5.929c-.1-.517,0-.621.509-.618,3.905.019,7.811.01,11.716.01" transform="translate(-5.946 -152.37)" fill="#c69e7b"/>
        <path id="Trazado_655455" data-name="Trazado 655455" d="M29.9,136.69a8.928,8.928,0,1,1-8.89-8.948,8.953,8.953,0,0,1,8.89,8.948m-10.016,3.329H18.206c-1.784,0-1.769,0-1.715,1.792.012.391.149.459.489.445.58-.023,1.162-.006,1.742-.006,1.129,0,1.129,0,1.129,1.111s0,1.122,1.119,1.122,1.113,0,1.113-1.127a4.682,4.682,0,0,0,0-.627c-.056-.419.139-.5.513-.486.766.026,1.534-.014,2.3.016.409.017.56-.07.553-.524-.029-1.882-.025-3.764,0-5.646.005-.418-.086-.555-.531-.546-1.51.03-3.021.011-4.531.011-1.679,0-1.66,0-1.658-1.71,0-.44.123-.54.545-.533,1.487.026,2.974.01,4.461.01,1.784,0,1.769,0,1.715-1.792-.012-.391-.148-.459-.488-.445-.58.023-1.162.006-1.743.006-1.129,0-1.129,0-1.129-1.111s0-1.121-1.119-1.121-1.113,0-1.113,1.127a4.682,4.682,0,0,0,0,.627c.056.419-.139.5-.513.486-.766-.025-1.534.014-2.3-.017-.409-.016-.559.07-.553.524.029,1.882.025,3.764,0,5.646-.005.418.086.555.531.546,1.487-.031,2.974-.012,4.461-.012,1.783,0,1.77,0,1.725,1.78-.009.371-.117.468-.473.46-.952-.022-1.905-.008-2.858-.008" transform="translate(-8.673 -92.022)" fill="#f3d57e"/>
        <path id="Trazado_655456" data-name="Trazado 655456" d="M162.192,86.808c-.188.557-.374,1.127-.574,1.693-.094.267-.312.143-.471.1a10.154,10.154,0,0,0-5.149.012c-.343.083-.478-.011-.6-.341-.646-1.751-.657-1.748,1.209-2.058a12.04,12.04,0,0,1,5.094.222c.179.048.506-.005.489.371" transform="translate(-111.661 -61.983)" fill="#050404"/>
        <path id="Trazado_655457" data-name="Trazado 655457" d="M144.106,68.212a4.518,4.518,0,0,1-2.521-.98c-.338-.248-.333-.435-.023-.686a3.018,3.018,0,0,0,.488-.494c.4-.52.765-.787,1.445-.287a1.491,1.491,0,0,0,1.871-.187c.257-.207.418-.2.629.044.227.262.49.493.736.739.593.591.593.592-.116,1.089a4.094,4.094,0,0,1-2.507.763" transform="translate(-101.81 -47.133)" fill="#070606"/>
        <path id="Trazado_655458" data-name="Trazado 655458" d="M176.225,68.222a4.568,4.568,0,0,1-2.7-.966c-.3-.223-.419-.4-.066-.681a2.988,2.988,0,0,0,.489-.493c.422-.53.8-.825,1.5-.29a1.438,1.438,0,0,0,1.807-.19c.289-.237.465-.2.681.06.147.178.326.329.491.492.863.852.864.86-.166,1.482a3.764,3.764,0,0,1-2.042.586" transform="translate(-124.8 -47.144)" fill="#070606"/>
        <path id="Trazado_655459" data-name="Trazado 655459" d="M31.308,142.893c.953,0,1.906-.015,2.858.008.357.008.464-.089.473-.46.045-1.781.058-1.78-1.725-1.78-1.487,0-2.975-.019-4.461.012-.445.009-.536-.128-.531-.546.023-1.882.027-3.764,0-5.646-.007-.454.143-.541.553-.524.766.031,1.534-.009,2.3.017.374.013.569-.067.513-.486a4.682,4.682,0,0,1,0-.627c0-1.127,0-1.127,1.113-1.127s1.119,0,1.119,1.121,0,1.111,1.129,1.111c.581,0,1.163.016,1.743-.006.34-.013.476.055.488.445.054,1.793.069,1.792-1.715,1.792-1.487,0-2.974.016-4.461-.01-.422-.007-.544.093-.545.533,0,1.711-.021,1.71,1.658,1.71,1.51,0,3.021.019,4.531-.011.445-.009.536.128.531.546-.023,1.882-.027,3.765,0,5.646.007.454-.144.54-.553.524-.766-.031-1.534.009-2.3-.016-.374-.012-.569.068-.513.486a4.687,4.687,0,0,1,0,.627c0,1.127,0,1.127-1.113,1.127s-1.119,0-1.119-1.122,0-1.111-1.129-1.111c-.581,0-1.162-.017-1.742.006-.34.013-.476-.054-.489-.445-.054-1.793-.069-1.792,1.715-1.792h1.673" transform="translate(-20.101 -94.896)"/>
      </g>
    </g>
  </g>
</svg>
