<svg xmlns="http://www.w3.org/2000/svg" width="400" height="427" viewBox="0 0 400 427">
  <g id="Grupo_995919" data-name="Grupo 995919" transform="translate(-810 -1025)">
    <rect id="Rectángulo_309789" data-name="Rectángulo 309789" width="400" height="427" rx="18" transform="translate(810 1025)" fill="#ffd357"/>
    <circle id="Elipse_8197" data-name="Elipse 8197" cx="116.5" cy="116.5" r="116.5" transform="translate(893.5 1108)" fill="#ffda72"/>
    <g id="Grupo_995535" data-name="Grupo 995535" transform="translate(878 1370.5)">
      <rect id="Rectángulo_308408" data-name="Rectángulo 308408" width="264" height="34" rx="17" fill="#fff"/>
      <path id="Trazado_657326" data-name="Trazado 657326" d="M20.355,14.656H16.246L15.465,17H12.973L17.207,5.625h2.172L23.637,17H21.145Zm-3.477-1.9h2.844L18.293,8.5Zm11.188,2.578a1.481,1.481,0,0,0,1.016-.344,1.2,1.2,0,0,0,.406-.914h2.117a2.9,2.9,0,0,1-.469,1.574,3.093,3.093,0,0,1-1.262,1.109,3.949,3.949,0,0,1-1.77.395A3.67,3.67,0,0,1,25.246,16,4.56,4.56,0,0,1,24.2,12.82v-.148a4.508,4.508,0,0,1,1.039-3.117A3.627,3.627,0,0,1,28.09,8.391a3.555,3.555,0,0,1,2.543.9,3.2,3.2,0,0,1,.973,2.4H29.488a1.551,1.551,0,0,0-.406-1.072,1.51,1.51,0,0,0-2.223.163,3.333,3.333,0,0,0-.4,1.866v.235a3.375,3.375,0,0,0,.4,1.878A1.377,1.377,0,0,0,28.066,15.336ZM32.543,12.7a5.013,5.013,0,0,1,.484-2.242A3.546,3.546,0,0,1,34.422,8.93a4.069,4.069,0,0,1,2.113-.539,3.849,3.849,0,0,1,2.793,1.047,4.2,4.2,0,0,1,1.207,2.844l.016.578a4.418,4.418,0,0,1-1.086,3.121,4.209,4.209,0,0,1-5.832,0,4.5,4.5,0,0,1-1.09-3.187Zm2.258.16a3.16,3.16,0,0,0,.453,1.843,1.628,1.628,0,0,0,2.578.008,3.457,3.457,0,0,0,.461-2.015,3.128,3.128,0,0,0-.461-1.831,1.5,1.5,0,0,0-1.3-.649,1.474,1.474,0,0,0-1.281.646A3.516,3.516,0,0,0,34.8,12.856Zm9.258-4.309.07.945a2.971,2.971,0,0,1,2.43-1.1A2.255,2.255,0,0,1,48.8,9.68,2.9,2.9,0,0,1,51.34,8.391a2.521,2.521,0,0,1,2.047.8,3.681,3.681,0,0,1,.672,2.41V17H51.793V11.609a1.61,1.61,0,0,0-.281-1.051,1.246,1.246,0,0,0-.992-.332,1.409,1.409,0,0,0-1.406.969l.008,5.8H46.863V11.617a1.59,1.59,0,0,0-.289-1.062,1.259,1.259,0,0,0-.984-.328,1.463,1.463,0,0,0-1.391.8V17H41.941V8.547Zm19.344,4.3a5.07,5.07,0,0,1-.887,3.129,2.843,2.843,0,0,1-2.395,1.176,2.633,2.633,0,0,1-2.07-.891V20.25H55.793V8.547h2.094l.078.828a2.654,2.654,0,0,1,2.141-.984,2.862,2.862,0,0,1,2.43,1.156,5.207,5.207,0,0,1,.867,3.188Zm-2.258-.164a3.327,3.327,0,0,0-.418-1.82,1.361,1.361,0,0,0-1.215-.641,1.479,1.479,0,0,0-1.461.813V14.5a1.5,1.5,0,0,0,1.477.836Q61.145,15.336,61.145,12.688ZM69.7,17a2.507,2.507,0,0,1-.227-.758,2.732,2.732,0,0,1-2.133.914,3,3,0,0,1-2.059-.719,2.312,2.312,0,0,1-.816-1.812,2.389,2.389,0,0,1,1-2.062,4.915,4.915,0,0,1,2.879-.727h1.039v-.484a1.393,1.393,0,0,0-.3-.937,1.183,1.183,0,0,0-.949-.352,1.345,1.345,0,0,0-.895.273.929.929,0,0,0-.324.75H64.652a2.268,2.268,0,0,1,.453-1.359,3,3,0,0,1,1.281-.98,4.669,4.669,0,0,1,1.859-.355,3.689,3.689,0,0,1,2.48.785,2.747,2.747,0,0,1,.918,2.207v3.664a4.041,4.041,0,0,0,.336,1.82V17Zm-1.867-1.57a1.945,1.945,0,0,0,.922-.223,1.462,1.462,0,0,0,.625-.6V13.156h-.844q-1.7,0-1.8,1.172l-.008.133a.9.9,0,0,0,.3.7A1.153,1.153,0,0,0,67.832,15.43Zm7.625-6.883.07.977a2.951,2.951,0,0,1,2.43-1.133,2.453,2.453,0,0,1,2,.789,3.682,3.682,0,0,1,.672,2.359V17H78.371V11.594a1.465,1.465,0,0,0-.312-1.043,1.4,1.4,0,0,0-1.039-.324,1.553,1.553,0,0,0-1.43.813V17H73.332V8.547ZM79.941,5.1a2.187,2.187,0,0,1-.516,1.48,1.6,1.6,0,0,1-1.258.6,1.908,1.908,0,0,1-.527-.066A3.539,3.539,0,0,1,77,6.828a3.435,3.435,0,0,0-.586-.27,1.432,1.432,0,0,0-.391-.051.627.627,0,0,0-.465.2.759.759,0,0,0-.191.555L74.059,7.18A2.22,2.22,0,0,1,74.57,5.7a1.578,1.578,0,0,1,1.254-.609,1.614,1.614,0,0,1,.441.059,4.86,4.86,0,0,1,.676.285,4.392,4.392,0,0,0,.648.273,1.48,1.48,0,0,0,.375.047.659.659,0,0,0,.473-.191.728.728,0,0,0,.2-.551Zm7.3,11.9a2.507,2.507,0,0,1-.227-.758,2.732,2.732,0,0,1-2.133.914,3,3,0,0,1-2.059-.719A2.312,2.312,0,0,1,82,14.625a2.389,2.389,0,0,1,1-2.062,4.915,4.915,0,0,1,2.879-.727h1.039v-.484a1.393,1.393,0,0,0-.3-.937,1.183,1.183,0,0,0-.949-.352,1.345,1.345,0,0,0-.895.273.929.929,0,0,0-.324.75H82.191a2.268,2.268,0,0,1,.453-1.359,3,3,0,0,1,1.281-.98,4.669,4.669,0,0,1,1.859-.355,3.689,3.689,0,0,1,2.48.785,2.747,2.747,0,0,1,.918,2.207v3.664a4.041,4.041,0,0,0,.336,1.82V17Zm-1.867-1.57a1.945,1.945,0,0,0,.922-.223,1.462,1.462,0,0,0,.625-.6V13.156h-.844q-1.7,0-1.8,1.172l-.008.133a.9.9,0,0,0,.3.7A1.153,1.153,0,0,0,85.371,15.43Zm7.664-6.883.07.945a2.971,2.971,0,0,1,2.43-1.1A2.255,2.255,0,0,1,97.777,9.68a2.9,2.9,0,0,1,2.539-1.289,2.521,2.521,0,0,1,2.047.8,3.681,3.681,0,0,1,.672,2.41V17H100.77V11.609a1.61,1.61,0,0,0-.281-1.051,1.246,1.246,0,0,0-.992-.332,1.409,1.409,0,0,0-1.406.969L98.1,17H95.84V11.617a1.59,1.59,0,0,0-.289-1.062,1.259,1.259,0,0,0-.984-.328,1.463,1.463,0,0,0-1.391.8V17H90.918V8.547ZM107.152,17h-2.266V8.547h2.266Zm-2.4-10.641a1.112,1.112,0,0,1,.34-.836,1.465,1.465,0,0,1,1.848,0,1.105,1.105,0,0,1,.344.836,1.108,1.108,0,0,1-.348.844,1.448,1.448,0,0,1-1.836,0A1.108,1.108,0,0,1,104.754,6.359Zm8.148,10.8a4.15,4.15,0,0,1-3.027-1.141,4.054,4.054,0,0,1-1.168-3.039v-.219a5.106,5.106,0,0,1,.492-2.277,3.612,3.612,0,0,1,1.395-1.547,3.914,3.914,0,0,1,2.059-.543,3.508,3.508,0,0,1,2.73,1.094,4.444,4.444,0,0,1,1,3.1v.922H111a2.1,2.1,0,0,0,.66,1.328,2,2,0,0,0,1.395.5,2.437,2.437,0,0,0,2.039-.945l1.109,1.242a3.389,3.389,0,0,1-1.375,1.121A4.511,4.511,0,0,1,112.9,17.156Zm-.258-6.945a1.411,1.411,0,0,0-1.09.455,2.357,2.357,0,0,0-.535,1.3h3.141v-.181a1.681,1.681,0,0,0-.406-1.165A1.456,1.456,0,0,0,112.645,10.211Zm7.094-1.664.07.977a2.951,2.951,0,0,1,2.43-1.133,2.453,2.453,0,0,1,2,.789,3.682,3.682,0,0,1,.672,2.359V17h-2.258V11.594a1.465,1.465,0,0,0-.312-1.043,1.4,1.4,0,0,0-1.039-.324,1.553,1.553,0,0,0-1.43.813V17h-2.258V8.547Zm9.586-2.078V8.547h1.445V10.2h-1.445v4.219a1.007,1.007,0,0,0,.18.672.9.9,0,0,0,.688.2,3.6,3.6,0,0,0,.664-.055v1.711a4.648,4.648,0,0,1-1.367.2,2.156,2.156,0,0,1-2.422-2.4V10.2h-1.234V8.547h1.234V6.469Zm2.117,6.227a5.013,5.013,0,0,1,.484-2.242A3.546,3.546,0,0,1,133.32,8.93a4.069,4.069,0,0,1,2.113-.539,3.849,3.849,0,0,1,2.793,1.047,4.2,4.2,0,0,1,1.207,2.844l.016.578a4.418,4.418,0,0,1-1.086,3.121,4.209,4.209,0,0,1-5.832,0,4.5,4.5,0,0,1-1.09-3.187Zm2.258.16a3.16,3.16,0,0,0,.453,1.843,1.628,1.628,0,0,0,2.578.008,3.457,3.457,0,0,0,.461-2.015,3.128,3.128,0,0,0-.461-1.831,1.5,1.5,0,0,0-1.3-.649,1.474,1.474,0,0,0-1.281.646A3.516,3.516,0,0,0,133.7,12.856ZM147.465,17h-2.344V5.625h2.344Zm4.1-8.453.07.977a2.951,2.951,0,0,1,2.43-1.133,2.453,2.453,0,0,1,2,.789,3.682,3.682,0,0,1,.672,2.359V17H154.48V11.594a1.465,1.465,0,0,0-.312-1.043,1.4,1.4,0,0,0-1.039-.324,1.553,1.553,0,0,0-1.43.813V17h-2.258V8.547Zm9.586-2.078V8.547H162.6V10.2h-1.445v4.219a1.007,1.007,0,0,0,.18.672.9.9,0,0,0,.688.2,3.6,3.6,0,0,0,.664-.055v1.711a4.648,4.648,0,0,1-1.367.2,2.156,2.156,0,0,1-2.422-2.4V10.2H157.66V8.547h1.234V6.469Zm6.594,10.688a4.15,4.15,0,0,1-3.027-1.141,4.054,4.054,0,0,1-1.168-3.039v-.219a5.106,5.106,0,0,1,.492-2.277,3.612,3.612,0,0,1,1.395-1.547,3.914,3.914,0,0,1,2.059-.543,3.508,3.508,0,0,1,2.73,1.094,4.444,4.444,0,0,1,1,3.1v.922H165.84a2.1,2.1,0,0,0,.66,1.328,2,2,0,0,0,1.395.5,2.437,2.437,0,0,0,2.039-.945l1.109,1.242a3.389,3.389,0,0,1-1.375,1.121A4.511,4.511,0,0,1,167.746,17.156Zm-.258-6.945a1.411,1.411,0,0,0-1.09.455,2.357,2.357,0,0,0-.535,1.3H169v-.181a1.681,1.681,0,0,0-.406-1.165A1.456,1.456,0,0,0,167.488,10.211Zm7.094-1.664.07.977a2.951,2.951,0,0,1,2.43-1.133,2.453,2.453,0,0,1,2,.789,3.682,3.682,0,0,1,.672,2.359V17H177.5V11.594a1.465,1.465,0,0,0-.312-1.043,1.4,1.4,0,0,0-1.039-.324,1.553,1.553,0,0,0-1.43.813V17h-2.258V8.547Zm11.461,6.117a.727.727,0,0,0-.41-.652,4.659,4.659,0,0,0-1.316-.426q-3.016-.633-3.016-2.562a2.323,2.323,0,0,1,.934-1.879,3.766,3.766,0,0,1,2.441-.754,4.053,4.053,0,0,1,2.574.758,2.388,2.388,0,0,1,.965,1.969h-2.258a1.092,1.092,0,0,0-.312-.8,1.322,1.322,0,0,0-.977-.316,1.351,1.351,0,0,0-.883.258.814.814,0,0,0-.312.656.7.7,0,0,0,.355.605,3.657,3.657,0,0,0,1.2.4,9.8,9.8,0,0,1,1.422.379,2.336,2.336,0,0,1,1.789,2.273,2.205,2.205,0,0,1-.992,1.871,4.28,4.28,0,0,1-2.562.715,4.47,4.47,0,0,1-1.887-.379,3.166,3.166,0,0,1-1.293-1.039,2.414,2.414,0,0,1-.469-1.426h2.141a1.179,1.179,0,0,0,.445.922,1.766,1.766,0,0,0,1.109.32,1.635,1.635,0,0,0,.98-.246A.766.766,0,0,0,186.043,14.664ZM192.074,17h-2.266V8.547h2.266Zm-2.4-10.641a1.112,1.112,0,0,1,.34-.836,1.465,1.465,0,0,1,1.848,0,1.105,1.105,0,0,1,.344.836,1.109,1.109,0,0,1-.348.844,1.448,1.448,0,0,1-1.836,0A1.109,1.109,0,0,1,189.676,6.359Zm7.422,7.883,1.57-5.7h2.359L198.176,17H196.02l-2.852-8.453h2.359Zm4.453-1.547a5.013,5.013,0,0,1,.484-2.242A3.546,3.546,0,0,1,203.43,8.93a4.069,4.069,0,0,1,2.113-.539,3.849,3.849,0,0,1,2.793,1.047,4.2,4.2,0,0,1,1.207,2.844l.016.578a4.418,4.418,0,0,1-1.086,3.121,4.209,4.209,0,0,1-5.832,0,4.5,4.5,0,0,1-1.09-3.187Zm2.258.16a3.16,3.16,0,0,0,.453,1.843,1.628,1.628,0,0,0,2.578.008,3.457,3.457,0,0,0,.461-2.015,3.128,3.128,0,0,0-.461-1.831,1.5,1.5,0,0,0-1.3-.649,1.474,1.474,0,0,0-1.281.646A3.516,3.516,0,0,0,203.809,12.856Z" transform="translate(20.5 7)" fill="#12263f"/>
    </g>
    <g id="Grupo_995729" data-name="Grupo 995729" transform="translate(930.994 1145.49)">
      <rect id="Rectángulo_309948" data-name="Rectángulo 309948" width="80.911" height="36.145" transform="translate(48.928 119.635)" fill="#f4f3ff"/>
      <path id="Trazado_655398" data-name="Trazado 655398" d="M492.918,134.85c-.513-.019-1.026-.052-1.539-.052q-33.243,0-66.486,0c-3.077,0-3.836.752-3.837,3.8q0,11.953,0,23.906c0,2.556.88,3.435,3.415,3.443,1.594,0,3.189-.025,4.782.009a2.32,2.32,0,1,1-.049,4.615c-5.3.02-10.594.077-15.888-.027a6.882,6.882,0,0,1-6.256-4.069,1.639,1.639,0,0,0-1.755-1.054c-3.856.042-7.713.027-11.569.014-1.794-.006-2.871-.887-2.867-2.286s1.092-2.319,2.872-2.332c3.7-.028,7.405-.044,11.106.014,1.012.016,1.418-.151,1.4-1.3-.074-4.42-.058-8.842-.008-13.263.011-.976-.205-1.312-1.252-1.292-3.752.067-7.507.032-11.26.023-1.8,0-2.865-.875-2.861-2.293s1.1-2.321,2.872-2.33c3.7-.018,7.4-.039,11.106.017,1,.015,1.456-.12,1.4-1.289a22.949,22.949,0,0,1,3.937-14.317,2.035,2.035,0,0,0-1.35-.186c-4.988-.011-9.975,0-14.963-.01-1.9,0-3.014-.886-3-2.341s1.1-2.283,3.039-2.284q9.718-.009,19.437,0a3,3,0,0,0,2-.533,22.681,22.681,0,0,1,14.7-4.59c1.316.033,1.993-.19,2.457-1.662a11.965,11.965,0,0,1,8.406-8.085c.363-.112,1.131.041,1.016-.619-.1-.6-.777-.308-1.185-.308q-23.138-.024-46.278-.014c-2.445,0-3.628-.786-3.59-2.377.036-1.534,1.16-2.254,3.536-2.254q21.134,0,42.267,0h1.741a35.973,35.973,0,0,1-3.908-6.128,24.574,24.574,0,0,1-2.408-8.222c-.112-1.241-.587-1.558-1.817-1.541-5.912.082-11.825.05-17.738.057-.463,0-.927.016-1.388-.017a2.3,2.3,0,1,1,.025-4.6c1.488-.062,2.982-.017,4.473-.017H421.8a110.525,110.525,0,0,1,.031-15.808h-1.572q-12.957,0-25.916,0a10.568,10.568,0,0,1-1.386-.031,2.3,2.3,0,0,1-.143-4.548,7.622,7.622,0,0,1,1.538-.049c11.981-.006,23.961-.027,35.942.012,1.175,0,1.592-.242,1.524-1.493a22.888,22.888,0,0,1,4.019-14.3H394.78c-.412,0-.823.013-1.234,0-1.634-.064-2.7-1.012-2.678-2.372s1.064-2.25,2.744-2.251q14.268-.012,28.538,0c5.6,0,11.21-.008,16.814.009a3.034,3.034,0,0,0,1.992-.6,21.249,21.249,0,0,1,12.087-4.469,107.262,107.262,0,0,1,14.332.112,20.713,20.713,0,0,1,10.5,4.029,4.647,4.647,0,0,0,2.964.931q22.059-.041,44.118-.017a12.057,12.057,0,0,1,1.387.022,2.142,2.142,0,0,1,2.023,1.987,2.174,2.174,0,0,1-1.48,2.426,4.855,4.855,0,0,1-1.979.191q-19.745.008-39.491,0h-1.652c-.2.569.224.821.42,1.146a22.266,22.266,0,0,1,3.283,12.783c-.075,1.622.451,1.878,1.935,1.871,11.878-.059,23.756-.028,35.634-.02a6.226,6.226,0,0,1,1.533.075,2.292,2.292,0,0,1-.2,4.515,10.147,10.147,0,0,1-1.54.037q-12.881,0-25.762,0h-1.629a89,89,0,0,1,.03,15.808h1.561q13.035,0,26.07.008a5.709,5.709,0,0,1,1.82.208,2.071,2.071,0,0,1,1.459,2.278,2.1,2.1,0,0,1-1.779,2.041,9.686,9.686,0,0,1-1.844.094c-11.929,0-23.859.012-35.788-.06-1.259-.007-1.652.35-1.807,1.533a27.3,27.3,0,0,1-5.833,13.537c-.148.188-.265.4-.42.639a2.986,2.986,0,0,0,1.707.178q21.134.018,42.267.01c2.4,0,3.485.7,3.515,2.26.03,1.618-1.1,2.371-3.579,2.371H479.469a6.494,6.494,0,0,0-.925.009c-.417.06-1.1-.26-1.179.329-.084.607.666.5,1.049.618a12.314,12.314,0,0,1,8.606,8.679c.242.807.547,1.069,1.355,1.042,5.83-.2,11.206,1.137,15.859,4.815a2.331,2.331,0,0,0,1.618.313q9.025.007,18.049,0h1.08c2.32,0,3.456.785,3.422,2.354-.034,1.532-1.127,2.276-3.359,2.276q-7.1,0-14.192,0H509.3c0,.209-.057.388.008.486a22.658,22.658,0,0,1,3.716,13.889c-.061,1.185.305,1.453,1.448,1.431,3.8-.075,7.609-.038,11.415-.02a2.292,2.292,0,0,1,2.463,1.9,2.207,2.207,0,0,1-1.312,2.532,3.054,3.054,0,0,1-1.513.19c-3.754,0-7.507.029-11.261-.016-.9-.011-1.253.172-1.24,1.173q.083,6.709,0,13.418c-.015,1.079.37,1.268,1.329,1.255,3.5-.048,6.992-.02,10.489-.018a11.224,11.224,0,0,1,1.233.027,2.328,2.328,0,0,1,2.328,2.38,2.266,2.266,0,0,1-2.457,2.212c-3.856.035-7.714.059-11.569-.015a2.193,2.193,0,0,0-2.339,1.372,6.773,6.773,0,0,1-6.275,3.777q-33.32.048-66.64.015c-1.684,0-2.679-.888-2.691-2.3-.013-1.461,1.005-2.326,2.811-2.326q25.916-.008,51.831-.006c.616,0,1.232-.033,1.847-.051.461.019.922.052,1.383.053,3.2.009,3.9-.68,3.9-3.855,0-7.452-.114-14.906.041-22.354.1-4.934-1.217-5.169-5.323-4.887M503.1,165.9c.359.017.718.048,1.077.049,3.517.022,4.235-.693,4.235-4.213q0-11.719,0-23.438a21.372,21.372,0,0,0-.364-4.444c-1.49-7.063-7.559-13.032-14.191-13.928a19.171,19.171,0,0,0-5.482-.493c-.835-.018-.888.464-.886,1.088.01,2.877.029,5.753-.012,8.629-.012.823.283,1.05,1.071,1.033,2.106-.044,4.212-.02,6.319-.014,5.018.014,7.952,2.928,7.958,7.928q.013,12.251,0,24.5a7.662,7.662,0,0,1-.24,2.594c-.156.446-.173.848.514.707M468.848,38.28a19.685,19.685,0,0,0-1.953-.4,91.359,91.359,0,0,0-12.927-.163,18.06,18.06,0,0,0-17.531,17.774c-.043,3.111-.043,3.111,3.134,3.11.462,0,.925-.022,1.386,0,.648.038.949-.124,1.105-.881.567-2.754,2.185-4.2,5.062-4.225q12.558-.121,25.116-.009c2.781.022,4.268,1.433,4.974,4.315.13.531.279.873.893.743.051.007.1.017.153.02,4.781.192,4.781.192,4.5-4.6C482.334,46.69,476,39.551,468.848,38.28m9.261,25.007c-3.309-.218-4.448-1.087-5.4-4.4-.266-.933-.85-.723-1.412-.724-7.761-.011-15.522.016-23.283-.036-1.051-.007-1.341.333-1.552,1.308a4.731,4.731,0,0,1-4.778,3.792c-1.336.023-2.677.07-4.008-.016-1.011-.066-1.288.259-1.279,1.27.049,5.7-.025,11.409.038,17.112A22.274,22.274,0,0,0,445.406,99.7a21.93,21.93,0,0,0,19.44,4.215,2.13,2.13,0,0,0,.458-.009c9.438-2.285,16.971-11.187,17.434-20.9.242-5.07.124-10.158.116-15.238,0-1.467.666-3.448-.279-4.271-.994-.865-2.936-.255-4.465-.213M446.64,106.059c0,3.909-.041,7.605.009,11.3a13.039,13.039,0,0,0,11.715,12.761,12.852,12.852,0,0,0,13.9-10.088c.926-4.547.185-9.2.4-14.014a29.01,29.01,0,0,1-12.907,3.217,28.639,28.639,0,0,1-13.118-3.178m-30.218,44.31c0-4.264-.03-8.528.008-12.791a7.247,7.247,0,0,1,7.418-7.408c2.312-.032,4.624-.023,6.936,0,.671.007,1.034-.1,1.024-.911-.041-2.979-.03-5.959-.007-8.939,0-.682-.291-.836-.92-.893a18.368,18.368,0,0,0-20.022,18.135c-.035,8.322-.009,16.644-.008,24.966a6.109,6.109,0,0,0,.043,1.076c.341,1.9,2.062,2.785,5.144,2.292,1.648-.263.009-1.527.367-2.289a3.151,3.151,0,0,0,.018-1.22q0-6.011,0-12.021m71.072-79.227c0,2.254-.009,4.508.008,6.762,0,.376-.158.817.339,1.078,2.179,1.143,5.214-.483,5.275-2.934.082-3.276.067-6.557,0-9.834a2.828,2.828,0,0,0-3.018-2.981c-.358-.017-.723.036-1.075-.014-1.154-.164-1.626.2-1.56,1.47.111,2.146.03,4.3.031,6.453m-55.7-.028c0-2.262-.038-4.525.019-6.785.022-.89-.277-1.2-1.139-1.106-.559.059-1.132-.015-1.695.028A2.7,2.7,0,0,0,426.235,66q-.079,5.165,0,10.332a2.6,2.6,0,0,0,2.755,2.688c.564.029,1.135-.039,1.695.019.891.093,1.142-.276,1.122-1.138-.051-2.26-.017-4.523-.017-6.785m15.937,59.047A20.315,20.315,0,0,1,443,123.137c-.515-1.214,0-3.073-1.422-3.59-1.223-.445-2.734-.1-4.118-.1-.051,0-.1,0-.154,0-.663-.072-.9.231-.894.886q.032,4.535,0,9.07c0,.624.266.773.829.77,3.366-.015,6.733-.007,10.481-.007m23.848,0H473.1c2.982,0,5.963-.019,8.945.011.742.007.826-.365.82-.955-.017-1.8,0-3.6,0-5.4,0-4.581,0-4.561-4.675-4.4-.752.026-1.119.234-1.248.986a17.656,17.656,0,0,1-5.363,9.754m8.492-15.349c.609-.216,1.9.459,2.179-.248.313-.809-.62-1.727-1.23-2.474a5.95,5.95,0,0,0-.972-.972c-.761-.581-1.631-1.562-2.483-1.216-.727.295-.26,1.553-.276,2.375-.05,2.535-.019,2.535,2.781,2.535M442,109.623a8.1,8.1,0,0,0-4.664,3.822c-.648,1.117-.425,1.5.87,1.386a23.54,23.54,0,0,1,2.909-.007c.628.024.923-.136.9-.84-.047-1.373-.014-2.75-.014-4.361" transform="translate(-370.396 -12.591)" fill="#0f0d0e"/>
      <path id="Trazado_655399" data-name="Trazado 655399" d="M459.607,12.955h-65.1c-2.48,0-3.64-.74-3.644-2.32S392.029,8.31,394.5,8.31q65.1,0,130.2,0a12.161,12.161,0,0,1,1.693.068,2.116,2.116,0,0,1,1.989,2.174,2.144,2.144,0,0,1-1.985,2.338,10.343,10.343,0,0,1-1.692.061q-32.549,0-65.1,0" transform="translate(-370.396 -3.174)" fill="#131112"/>
      <path id="Trazado_655400" data-name="Trazado 655400" d="M463.58,218.815c0,.822.02,1.645-.006,2.466a4.836,4.836,0,0,1-4.82,4.964c-1.692.08-3.394.074-5.087.006a4.928,4.928,0,0,1-4.942-5.043q-.06-2.388,0-4.779a4.884,4.884,0,0,1,4.786-5.02c1.639-.1,3.289-.076,4.932-.028,3.23.1,5.083,2.022,5.138,5.275.012.719,0,1.439,0,2.158m-10.281-.1c.022,3.422-.349,2.983,3.06,2.985,2.878,0,2.5.346,2.513-2.535.019-3.01,0-3.01-2.96-3.016-2.613-.006-2.613-.006-2.613,2.567" transform="translate(-392.482 -80.715)" fill="#100e0f"/>
      <path id="Trazado_655401" data-name="Trazado 655401" d="M372.632,172.846c0,.771.009,1.541,0,2.312a4.736,4.736,0,0,1-4.83,5.053c-1.744.063-3.5.068-5.239,0a4.748,4.748,0,0,1-4.763-4.977c-.02-1.644-.024-3.288,0-4.932a4.757,4.757,0,0,1,4.537-4.9,47.011,47.011,0,0,1,5.7-.007,4.727,4.727,0,0,1,4.592,4.835c.02.873,0,1.746,0,2.619m-7.439,2.747c2.807,0,2.807,0,2.807-2.767,0-2.836,0-2.836-2.761-2.836-2.812,0-2.812,0-2.812,2.786,0,2.817,0,2.817,2.766,2.817" transform="translate(-357.761 -63.134)" fill="#100e0f"/>
      <path id="Trazado_655402" data-name="Trazado 655402" d="M372.63,73.627c0,.822.012,1.644,0,2.466a4.776,4.776,0,0,1-4.8,4.958c-1.744.074-3.5.075-5.239,0a4.81,4.81,0,0,1-4.794-4.976c-.022-1.695-.033-3.391,0-5.086a4.68,4.68,0,0,1,4.5-4.746c1.844-.1,3.7-.091,5.547-.025a4.7,4.7,0,0,1,4.778,4.943c.014.822,0,1.644,0,2.466m-7.413,2.809c2.781,0,2.781,0,2.781-2.816,0-2.787,0-2.787-2.788-2.787s-2.786,0-2.786,2.8,0,2.805,2.793,2.805" transform="translate(-357.759 -25.27)" fill="#100e0f"/>
      <path id="Trazado_655403" data-name="Trazado 655403" d="M365.315,47.917c-.925,0-1.851.033-2.774-.007a4.739,4.739,0,0,1-4.74-4.838c-.031-1.695-.029-3.391,0-5.086a4.8,4.8,0,0,1,4.707-4.9c1.795-.082,3.6-.078,5.393,0a4.763,4.763,0,0,1,4.725,4.869c.029,1.643.021,3.288,0,4.931a4.748,4.748,0,0,1-5,5.036c-.77.02-1.542,0-2.312,0ZM368,40.472c0-2.777,0-2.777-2.663-2.777-2.911,0-2.911,0-2.911,2.838,0,2.755,0,2.755,2.819,2.755,2.754,0,2.754,0,2.754-2.816" transform="translate(-357.759 -12.613)" fill="#100e0f"/>
      <path id="Trazado_655404" data-name="Trazado 655404" d="M365.289,198.545c.925,0,1.852-.042,2.774.008a4.668,4.668,0,0,1,4.56,4.677c.043,1.746.033,3.494.006,5.24a4.761,4.761,0,0,1-4.7,4.9c-1.794.083-3.6.082-5.393,0a4.815,4.815,0,0,1-4.739-5.029q-.028-2.389,0-4.778a4.767,4.767,0,0,1,4.869-5.026c.872-.028,1.747,0,2.62,0Zm-2.86,7.481c0,2.731,0,2.731,2.708,2.731,2.865,0,2.865,0,2.865-2.883,0-2.71,0-2.71-2.707-2.71-2.867,0-2.867,0-2.867,2.862" transform="translate(-357.763 -75.82)" fill="#100e0f"/>
      <path id="Trazado_655405" data-name="Trazado 655405" d="M496.673,218.761c.419,5.688-1.718,7.6-7.45,7.583-5.51-.014-7.546-1.654-7.539-7.575.007-5.805,2.006-7.8,7.453-7.419.716.05,1.439-.007,2.158.01,3.409.08,5.324,2,5.375,5.4.01.668,0,1.336,0,2m-7.466,2.934c3.2-.014,2.891.32,2.9-2.882.006-2.676,0-2.676-3.019-2.678-2.8,0-2.8,0-2.8,2.712,0,3.275-.234,2.818,2.922,2.847" transform="translate(-405.082 -80.701)" fill="#100e0f"/>
      <path id="Trazado_655406" data-name="Trazado 655406" d="M546.324,218.859c0,.82.017,1.641,0,2.461a4.8,4.8,0,0,1-4.532,4.9,41.572,41.572,0,0,1-5.687.013,4.805,4.805,0,0,1-4.613-4.984c-.024-1.692-.035-3.385.007-5.076a4.649,4.649,0,0,1,4.229-4.674,39.639,39.639,0,0,1,6.142-.035,4.75,4.75,0,0,1,4.456,4.935c.017.82,0,1.64,0,2.461m-7.431,2.792c2.8,0,2.8,0,2.8-2.832s0-2.829-2.82-2.829c-2.78,0-2.78,0-2.78,2.842,0,2.819,0,2.819,2.8,2.819" transform="translate(-424.094 -80.722)" fill="#100e0f"/>
      <path id="Trazado_655407" data-name="Trazado 655407" d="M372.618,239.05c0,.925.031,1.851-.007,2.774a4.726,4.726,0,0,1-4.516,4.582c-1.9.078-3.8.073-5.7,0a4.75,4.75,0,0,1-4.592-4.678c-.05-1.849-.059-3.7,0-5.549a4.718,4.718,0,0,1,4.678-4.574c1.8-.043,3.6-.038,5.4,0a4.7,4.7,0,0,1,4.734,4.668c.03.924,0,1.849,0,2.775m-7.393-2.823c-2.807,0-2.807,0-2.807,2.768,0,2.807,0,2.807,2.77,2.807,2.8,0,2.8,0,2.8-2.77,0-2.8,0-2.8-2.768-2.8" transform="translate(-357.753 -88.444)" fill="#0e0c0d"/>
      <path id="Trazado_655408" data-name="Trazado 655408" d="M357.807,106.627c0-.925-.038-1.851.007-2.773a4.723,4.723,0,0,1,4.562-4.529q2.849-.088,5.7,0a4.638,4.638,0,0,1,4.537,4.535c.059,1.9.061,3.8,0,5.7a4.712,4.712,0,0,1-4.542,4.556c-1.9.08-3.8.082-5.7,0a4.777,4.777,0,0,1-4.564-4.715c-.031-.923,0-1.849,0-2.774Zm4.623-.035c0,2.919,0,2.919,2.972,2.919,2.6,0,2.6,0,2.6-2.669,0-2.909,0-2.909-2.971-2.909-2.6,0-2.6,0-2.6,2.659" transform="translate(-357.765 -37.917)" fill="#0e0c0d"/>
      <path id="Trazado_655409" data-name="Trazado 655409" d="M372.618,139.756c.437,5.862-1.64,7.834-7.411,7.416-.971-.07-1.954.019-2.927-.031a4.708,4.708,0,0,1-4.471-4.457c-.081-1.949-.082-3.906,0-5.855a4.749,4.749,0,0,1,4.626-4.487c1.745-.063,3.494-.04,5.24-.011a4.786,4.786,0,0,1,4.942,4.959c.014.822,0,1.644,0,2.466m-7.277-2.8c-2.928,0-2.928,0-2.928,2.962,0,2.616,0,2.616,2.647,2.616,2.928,0,2.928,0,2.928-2.953,0-2.626,0-2.626-2.647-2.626" transform="translate(-357.748 -50.529)" fill="#0e0c0d"/>
      <path id="Trazado_655410" data-name="Trazado 655410" d="M372.608,7.452c0,.976.041,1.954-.008,2.928a4.674,4.674,0,0,1-4.456,4.463c-1.95.071-3.906.069-5.857,0a4.692,4.692,0,0,1-4.477-4.45c-.082-1.949-.08-3.907,0-5.856A4.709,4.709,0,0,1,362.273.062c1.949-.083,3.908-.083,5.856,0a4.711,4.711,0,0,1,4.478,4.616c.035.923.006,1.849.006,2.774h-.006m-4.619.128c0-2.915,0-2.915-2.968-2.915-2.607,0-2.607,0-2.607,2.661,0,2.914,0,2.914,2.969,2.914,2.606,0,2.606,0,2.606-2.659" transform="translate(-357.748 0)" fill="#0e0c0d"/>
      <path id="Trazado_655411" data-name="Trazado 655411" d="M555.977,197.753c4.106-.282,5.426-.047,5.323,4.887-.156,7.449-.04,14.9-.041,22.354,0,3.174-.7,3.864-3.9,3.854-.461,0-.922-.035-1.383-.053.831-2.325.616-4.741.618-7.136q.009-8.693,0-17.385c0-2.193.174-4.4-.62-6.521" transform="translate(-433.455 -75.496)" fill="#e0def1"/>
      <path id="Trazado_655412" data-name="Trazado 655412" d="M397.43,112.138c-1.388,0-2.776.044-4.162-.014a2.3,2.3,0,1,1,0-4.594q4.238-.086,8.478,0a2.3,2.3,0,1,1,0,4.6c-1.436.059-2.877.012-4.315.011" transform="translate(-370.395 -41.051)" fill="#131112"/>
      <path id="Trazado_655413" data-name="Trazado 655413" d="M516.47,219.679c2.467,0,3.6.724,3.615,2.3s-1.132,2.333-3.579,2.333c-2.5,0-3.569-.683-3.581-2.3s1.074-2.339,3.545-2.339" transform="translate(-417.013 -83.899)" fill="#100e0f"/>
      <path id="Trazado_655414" data-name="Trazado 655414" d="M492.983,119.463a21.929,21.929,0,0,1-19.44-4.215,22.274,22.274,0,0,1-8.966-18.108c-.063-5.7.01-11.408-.038-17.112-.009-1.011.268-1.336,1.279-1.27,1.331.086,2.671.039,4.008.016a4.731,4.731,0,0,0,4.778-3.792c.211-.975.5-1.315,1.552-1.308,7.761.052,15.522.025,23.283.036.562,0,1.146-.209,1.412.724.947,3.313,2.087,4.182,5.4,4.4,0,5.95.046,11.9,0,17.851a25.622,25.622,0,0,1-7.434,18.1,46.111,46.111,0,0,1-5.825,4.681m-5.19-22.271a7.252,7.252,0,0,0-6.162,3.276,2.321,2.321,0,0,0,.345,3.406c1.1.821,2.3.592,3.351-.638,1.676-1.967,3.234-1.948,4.948.061a2.309,2.309,0,1,0,3.691-2.76,7.165,7.165,0,0,0-6.172-3.344m-7.915-9.154h-.017a13.306,13.306,0,0,0-.007-1.386,2.349,2.349,0,0,0-2.275-2.273,2.321,2.321,0,0,0-2.309,2.23,16.644,16.644,0,0,0-.025,2.464,2.319,2.319,0,1,0,4.629.044c.028-.357,0-.719,0-1.079m15.845-.109c0,.462-.022.927,0,1.387a2.147,2.147,0,0,0,2.115,2.214,2.264,2.264,0,0,0,2.462-2.044,10.38,10.38,0,0,0,.04-1.539c0-2.423-.806-3.618-2.407-3.566-1.536.05-2.225,1.148-2.215,3.548" transform="translate(-398.533 -28.137)" fill="#f4cdb0"/>
      <path id="Trazado_655415" data-name="Trazado 655415" d="M506.262,61.39c-.615.13-.763-.211-.893-.743-.706-2.882-2.193-4.293-4.974-4.315q-12.558-.1-25.116.009c-2.878.028-4.495,1.471-5.062,4.225-.156.756-.457.918-1.106.881-.46-.027-.924,0-1.386,0-3.176,0-3.176,0-3.134-3.111a18.06,18.06,0,0,1,17.531-17.773,91.267,91.267,0,0,1,12.927.163,19.486,19.486,0,0,1,1.954.4c.025.546.453.736.833,1A20.023,20.023,0,0,1,504.9,51.32a23.911,23.911,0,0,1,1.36,10.069" transform="translate(-398.55 -15.433)" fill="#a8715c"/>
      <path id="Trazado_655416" data-name="Trazado 655416" d="M481.094,151.2a28.647,28.647,0,0,0,13.118,3.178,29.015,29.015,0,0,0,12.907-3.217c-.219,4.817.522,9.467-.4,14.014a12.852,12.852,0,0,1-13.9,10.088A13.039,13.039,0,0,1,481.1,162.5c-.049-3.7-.009-7.392-.009-11.3" transform="translate(-404.85 -57.73)" fill="#f1b2a0"/>
      <path id="Trazado_655417" data-name="Trazado 655417" d="M428.764,203.748q0,6.011,0,12.021a3.152,3.152,0,0,1-.017,1.22c-.359.762,1.281,2.025-.367,2.289-3.082.493-4.8-.391-5.144-2.292a6.107,6.107,0,0,1-.043-1.076c0-8.322-.026-16.644.008-24.966a18.368,18.368,0,0,1,20.022-18.135c.629.057.926.21.92.893-.022,2.98-.033,5.96.007,8.939.011.807-.352.919-1.023.912-2.312-.026-4.624-.034-6.936,0a7.247,7.247,0,0,0-7.418,7.408c-.037,4.264-.008,8.528-.009,12.791" transform="translate(-382.739 -65.97)" fill="#f0a856"/>
      <path id="Trazado_655418" data-name="Trazado 655418" d="M557.5,173.653c6.632.9,12.7,6.866,14.191,13.928a21.376,21.376,0,0,1,.364,4.444q0,11.719,0,23.438c0,3.521-.718,4.235-4.236,4.213-.359,0-.718-.032-1.076-.049.838-2.325.621-4.744.622-7.141.007-7.133.054-14.266-.019-21.4a20.575,20.575,0,0,0-3.16-10.589,25.144,25.144,0,0,0-6.686-6.845" transform="translate(-434.036 -66.321)" fill="#ee9063"/>
      <path id="Trazado_655419" data-name="Trazado 655419" d="M510.559,122.5a46.12,46.12,0,0,0,5.826-4.681,25.625,25.625,0,0,0,7.433-18.1c.05-5.95.007-11.9,0-17.851,1.529-.042,3.471-.653,4.465.213.946.823.276,2.8.279,4.271.009,5.079.126,10.167-.115,15.238-.464,9.713-8,18.615-17.434,20.9a2.091,2.091,0,0,1-.458.01" transform="translate(-416.109 -31.172)" fill="#f1b2a0"/>
      <path id="Trazado_655420" data-name="Trazado 655420" d="M553.556,173.348a25.145,25.145,0,0,1,6.686,6.845,20.575,20.575,0,0,1,3.16,10.589c.073,7.133.025,14.266.019,21.4,0,2.4.215,4.815-.622,7.141-.688.141-.671-.261-.514-.707a7.679,7.679,0,0,0,.239-2.594q.008-12.25,0-24.5c0-5-2.939-7.914-7.957-7.928-2.106-.006-4.214-.031-6.319.014-.788.017-1.083-.21-1.071-1.033.041-2.876.021-5.753.012-8.629,0-.624.05-1.105.885-1.088a19.175,19.175,0,0,1,5.482.493" transform="translate(-430.094 -66.016)" fill="#eda555"/>
      <path id="Trazado_655421" data-name="Trazado 655421" d="M547.179,89.81c0-2.152.08-4.307-.031-6.453-.065-1.272.407-1.634,1.561-1.47.352.05.716,0,1.074.014a2.828,2.828,0,0,1,3.018,2.981c.067,3.277.082,6.558,0,9.834-.061,2.451-3.1,4.077-5.275,2.934-.5-.261-.336-.7-.339-1.078-.017-2.254-.009-4.508-.009-6.762" transform="translate(-430.081 -31.26)" fill="#e8ac9a"/>
      <path id="Trazado_655422" data-name="Trazado 655422" d="M453.623,89.8c0,2.262-.035,4.524.017,6.785.02.862-.23,1.231-1.122,1.137-.559-.058-1.13.01-1.7-.019a2.6,2.6,0,0,1-2.755-2.689q-.083-5.165,0-10.331a2.7,2.7,0,0,1,2.742-2.747c.563-.043,1.136.031,1.7-.028.862-.091,1.161.216,1.139,1.106-.057,2.26-.019,4.523-.019,6.785" transform="translate(-392.227 -31.276)" fill="#f1b2a0"/>
      <path id="Trazado_655423" data-name="Trazado 655423" d="M526.294,61.83a23.911,23.911,0,0,0-1.36-10.069,20.023,20.023,0,0,0-7.067-9.193c-.38-.269-.808-.459-.833-1.005,7.155,1.271,13.485,8.41,13.912,15.688.281,4.791.281,4.791-4.5,4.6-.051,0-.1-.013-.153-.02" transform="translate(-418.582 -15.873)" fill="#9e5b4c"/>
      <path id="Trazado_655424" data-name="Trazado 655424" d="M475.877,183.517c-3.749,0-7.115-.008-10.481.008-.563,0-.833-.146-.829-.77q.031-4.535,0-9.07c0-.656.23-.958.893-.887a1.423,1.423,0,0,0,.154,0c1.384,0,2.9-.342,4.118.1,1.423.518.907,2.377,1.422,3.59a20.307,20.307,0,0,0,4.724,7.025" transform="translate(-398.543 -65.947)" fill="#f0a856"/>
      <path id="Trazado_655425" data-name="Trazado 655425" d="M521.45,183.553a17.654,17.654,0,0,0,5.362-9.753c.128-.752.5-.961,1.248-.986,4.676-.162,4.675-.182,4.675,4.4,0,1.8-.012,3.6.005,5.4.006.59-.078.962-.82.954-2.982-.03-5.963-.011-8.946-.01H521.45" transform="translate(-420.268 -65.982)" fill="#f0a856"/>
      <path id="Trazado_655426" data-name="Trazado 655426" d="M533.387,162.308c-2.8,0-2.831,0-2.781-2.535.016-.823-.451-2.08.276-2.375.854-.346,1.722.635,2.484,1.216a5.939,5.939,0,0,1,.971.972c.61.747,1.543,1.665,1.23,2.474-.274.708-1.571.033-2.179.249" transform="translate(-423.714 -60.085)" fill="#f6f8f9"/>
      <path id="Trazado_655427" data-name="Trazado 655427" d="M470.5,156.988c0,1.611-.033,2.987.014,4.361.025.7-.271.864-.9.84a23.54,23.54,0,0,0-2.909.007c-1.3.111-1.518-.268-.87-1.386a8.1,8.1,0,0,1,4.664-3.822" transform="translate(-398.894 -59.957)" fill="#f6f8f9"/>
      <path id="Trazado_655428" data-name="Trazado 655428" d="M456.143,221.688c0-2.572,0-2.572,2.613-2.567,2.964.006,2.979.006,2.96,3.016-.017,2.881.366,2.537-2.513,2.535-3.409,0-3.038.437-3.06-2.985" transform="translate(-395.326 -83.686)" fill="#243953"/>
      <path id="Trazado_655429" data-name="Trazado 655429" d="M492.047,224.68c-3.156-.028-2.919.428-2.922-2.847,0-2.714,0-2.714,2.8-2.712,3.021,0,3.026,0,3.019,2.678-.007,3.2.3,2.867-2.9,2.882" transform="translate(-407.922 -83.686)" fill="#243953"/>
      <path id="Trazado_655430" data-name="Trazado 655430" d="M541.753,224.513c-2.8,0-2.8,0-2.8-2.819,0-2.842,0-2.842,2.779-2.842,2.82,0,2.82,0,2.82,2.829s0,2.832-2.8,2.832" transform="translate(-426.954 -83.584)" fill="#70cc93"/>
      <path id="Trazado_655431" data-name="Trazado 655431" d="M498,111.724a7.165,7.165,0,0,1,6.172,3.344,2.308,2.308,0,1,1-3.69,2.76c-1.715-2.009-3.273-2.028-4.948-.061-1.048,1.23-2.254,1.46-3.351.638a2.321,2.321,0,0,1-.345-3.406A7.253,7.253,0,0,1,498,111.724" transform="translate(-408.738 -42.669)" fill="#100e0f"/>
      <path id="Trazado_655432" data-name="Trazado 655432" d="M486.472,94.652c0,.36.023.721,0,1.079a2.319,2.319,0,1,1-4.629-.044,16.57,16.57,0,0,1,.025-2.465,2.321,2.321,0,0,1,2.309-2.23,2.35,2.35,0,0,1,2.275,2.273,13.3,13.3,0,0,1,.007,1.386h.017" transform="translate(-405.127 -34.751)" fill="#131112"/>
      <path id="Trazado_655433" data-name="Trazado 655433" d="M514.987,94.545c-.011-2.4.679-3.5,2.215-3.548,1.6-.052,2.409,1.143,2.407,3.566a10.38,10.38,0,0,1-.04,1.539,2.264,2.264,0,0,1-2.462,2.044,2.147,2.147,0,0,1-2.115-2.214c-.027-.46,0-.925,0-1.387" transform="translate(-417.797 -34.753)" fill="#100e0f"/>
    </g>
  </g>
</svg>
