<svg xmlns="http://www.w3.org/2000/svg" width="400" height="427" viewBox="0 0 400 427">
  <g id="Grupo_995918" data-name="Grupo 995918" transform="translate(4013 10676)">
    <rect id="Rect치ngulo_309791" data-name="Rect치ngulo 309791" width="400" height="427" rx="18" transform="translate(-4013 -10676)" fill="#ffd357"/>
    <g id="Grupo_995536" data-name="Grupo 995536" transform="translate(-3945 -10330.5)">
      <rect id="Rect치ngulo_308408" data-name="Rect치ngulo 308408" width="264" height="34" rx="17" fill="#fff"/>
      <path id="Trazado_657325" data-name="Trazado 657325" d="M14.887,14.656H10.777L10,17H7.5L11.738,5.625H13.91L18.168,17H15.676Zm-3.477-1.9h2.844L12.824,8.5ZM22.6,15.336a1.481,1.481,0,0,0,1.016-.344,1.2,1.2,0,0,0,.406-.914h2.117a2.9,2.9,0,0,1-.469,1.574,3.093,3.093,0,0,1-1.262,1.109,3.949,3.949,0,0,1-1.77.395A3.67,3.67,0,0,1,19.777,16,4.56,4.56,0,0,1,18.73,12.82v-.148A4.508,4.508,0,0,1,19.77,9.555a3.627,3.627,0,0,1,2.852-1.164,3.555,3.555,0,0,1,2.543.9,3.2,3.2,0,0,1,.973,2.4H24.02a1.551,1.551,0,0,0-.406-1.072,1.51,1.51,0,0,0-2.223.163,3.333,3.333,0,0,0-.4,1.866v.235a3.375,3.375,0,0,0,.4,1.878A1.377,1.377,0,0,0,22.6,15.336ZM27.074,12.7a5.013,5.013,0,0,1,.484-2.242A3.546,3.546,0,0,1,28.953,8.93a4.069,4.069,0,0,1,2.113-.539,3.849,3.849,0,0,1,2.793,1.047,4.2,4.2,0,0,1,1.207,2.844l.016.578A4.418,4.418,0,0,1,34,15.98a3.775,3.775,0,0,1-2.914,1.176,3.793,3.793,0,0,1-2.918-1.172,4.5,4.5,0,0,1-1.09-3.187Zm2.258.16a3.16,3.16,0,0,0,.453,1.843,1.628,1.628,0,0,0,2.578.008,3.457,3.457,0,0,0,.461-2.015,3.128,3.128,0,0,0-.461-1.831,1.5,1.5,0,0,0-1.3-.649,1.474,1.474,0,0,0-1.281.646A3.516,3.516,0,0,0,29.332,12.856ZM38.59,8.547l.07.945a2.971,2.971,0,0,1,2.43-1.1A2.255,2.255,0,0,1,43.332,9.68a2.9,2.9,0,0,1,2.539-1.289,2.521,2.521,0,0,1,2.047.8,3.681,3.681,0,0,1,.672,2.41V17H46.324V11.609a1.61,1.61,0,0,0-.281-1.051,1.246,1.246,0,0,0-.992-.332,1.409,1.409,0,0,0-1.406.969l.008,5.8H41.395V11.617a1.59,1.59,0,0,0-.289-1.062,1.259,1.259,0,0,0-.984-.328,1.463,1.463,0,0,0-1.391.8V17H36.473V8.547Zm19.344,4.3a5.07,5.07,0,0,1-.887,3.129,2.843,2.843,0,0,1-2.395,1.176,2.633,2.633,0,0,1-2.07-.891V20.25H50.324V8.547h2.094l.078.828a2.654,2.654,0,0,1,2.141-.984,2.862,2.862,0,0,1,2.43,1.156,5.207,5.207,0,0,1,.867,3.188Zm-2.258-.164a3.327,3.327,0,0,0-.418-1.82,1.361,1.361,0,0,0-1.215-.641,1.479,1.479,0,0,0-1.461.813V14.5a1.5,1.5,0,0,0,1.477.836Q55.676,15.336,55.676,12.688ZM64.23,17A2.507,2.507,0,0,1,64,16.242a2.732,2.732,0,0,1-2.133.914,3,3,0,0,1-2.059-.719A2.312,2.312,0,0,1,59,14.625a2.389,2.389,0,0,1,1-2.062,4.915,4.915,0,0,1,2.879-.727H63.91v-.484a1.393,1.393,0,0,0-.3-.937,1.183,1.183,0,0,0-.949-.352,1.345,1.345,0,0,0-.895.273.929.929,0,0,0-.324.75H59.184a2.268,2.268,0,0,1,.453-1.359,3,3,0,0,1,1.281-.98,4.669,4.669,0,0,1,1.859-.355,3.689,3.689,0,0,1,2.48.785,2.747,2.747,0,0,1,.918,2.207v3.664a4.041,4.041,0,0,0,.336,1.82V17Zm-1.867-1.57a1.945,1.945,0,0,0,.922-.223,1.462,1.462,0,0,0,.625-.6V13.156h-.844q-1.7,0-1.8,1.172l-.008.133a.9.9,0,0,0,.3.7A1.153,1.153,0,0,0,62.363,15.43Zm7.625-6.883.07.977a2.951,2.951,0,0,1,2.43-1.133,2.453,2.453,0,0,1,2,.789,3.682,3.682,0,0,1,.672,2.359V17H72.9V11.594a1.465,1.465,0,0,0-.312-1.043,1.4,1.4,0,0,0-1.039-.324,1.553,1.553,0,0,0-1.43.813V17H67.863V8.547ZM74.473,5.1a2.187,2.187,0,0,1-.516,1.48,1.6,1.6,0,0,1-1.258.6,1.908,1.908,0,0,1-.527-.066,3.539,3.539,0,0,1-.637-.285,3.435,3.435,0,0,0-.586-.27,1.432,1.432,0,0,0-.391-.051.627.627,0,0,0-.465.2.759.759,0,0,0-.191.555L68.59,7.18A2.22,2.22,0,0,1,69.1,5.7a1.578,1.578,0,0,1,1.254-.609,1.614,1.614,0,0,1,.441.059,4.86,4.86,0,0,1,.676.285,4.392,4.392,0,0,0,.648.273,1.48,1.48,0,0,0,.375.047.659.659,0,0,0,.473-.191.728.728,0,0,0,.2-.551ZM81.77,17a2.507,2.507,0,0,1-.227-.758,2.732,2.732,0,0,1-2.133.914,3,3,0,0,1-2.059-.719,2.312,2.312,0,0,1-.816-1.812,2.389,2.389,0,0,1,1-2.062,4.915,4.915,0,0,1,2.879-.727h1.039v-.484a1.393,1.393,0,0,0-.3-.937,1.183,1.183,0,0,0-.949-.352,1.345,1.345,0,0,0-.895.273.929.929,0,0,0-.324.75H76.723a2.268,2.268,0,0,1,.453-1.359,3,3,0,0,1,1.281-.98,4.669,4.669,0,0,1,1.859-.355,3.689,3.689,0,0,1,2.48.785,2.747,2.747,0,0,1,.918,2.207v3.664a4.041,4.041,0,0,0,.336,1.82V17ZM79.9,15.43a1.945,1.945,0,0,0,.922-.223,1.462,1.462,0,0,0,.625-.6V13.156h-.844q-1.7,0-1.8,1.172l-.008.133a.9.9,0,0,0,.3.7A1.153,1.153,0,0,0,79.9,15.43Zm7.664-6.883.07.945a2.971,2.971,0,0,1,2.43-1.1A2.255,2.255,0,0,1,92.309,9.68a2.9,2.9,0,0,1,2.539-1.289,2.521,2.521,0,0,1,2.047.8,3.681,3.681,0,0,1,.672,2.41V17H95.3V11.609a1.61,1.61,0,0,0-.281-1.051,1.246,1.246,0,0,0-.992-.332,1.409,1.409,0,0,0-1.406.969l.008,5.8H90.371V11.617a1.59,1.59,0,0,0-.289-1.062,1.259,1.259,0,0,0-.984-.328,1.463,1.463,0,0,0-1.391.8V17H85.449V8.547ZM101.684,17H99.418V8.547h2.266Zm-2.4-10.641a1.112,1.112,0,0,1,.34-.836,1.465,1.465,0,0,1,1.848,0,1.105,1.105,0,0,1,.344.836,1.108,1.108,0,0,1-.348.844,1.448,1.448,0,0,1-1.836,0A1.108,1.108,0,0,1,99.285,6.359Zm8.148,10.8a4.15,4.15,0,0,1-3.027-1.141,4.054,4.054,0,0,1-1.168-3.039v-.219a5.106,5.106,0,0,1,.492-2.277,3.612,3.612,0,0,1,1.395-1.547,3.914,3.914,0,0,1,2.059-.543,3.508,3.508,0,0,1,2.73,1.094,4.444,4.444,0,0,1,1,3.1v.922h-5.383a2.1,2.1,0,0,0,.66,1.328,2,2,0,0,0,1.395.5,2.437,2.437,0,0,0,2.039-.945l1.109,1.242a3.389,3.389,0,0,1-1.375,1.121A4.511,4.511,0,0,1,107.434,17.156Zm-.258-6.945a1.411,1.411,0,0,0-1.09.455,2.357,2.357,0,0,0-.535,1.3h3.141v-.181a1.681,1.681,0,0,0-.406-1.165A1.456,1.456,0,0,0,107.176,10.211Zm7.094-1.664.07.977a2.951,2.951,0,0,1,2.43-1.133,2.453,2.453,0,0,1,2,.789,3.682,3.682,0,0,1,.672,2.359V17h-2.258V11.594a1.465,1.465,0,0,0-.312-1.043,1.4,1.4,0,0,0-1.039-.324,1.553,1.553,0,0,0-1.43.813V17h-2.258V8.547Zm9.586-2.078V8.547H125.3V10.2h-1.445v4.219a1.007,1.007,0,0,0,.18.672.9.9,0,0,0,.688.2,3.6,3.6,0,0,0,.664-.055v1.711a4.648,4.648,0,0,1-1.367.2,2.156,2.156,0,0,1-2.422-2.4V10.2h-1.234V8.547H121.6V6.469Zm2.117,6.227a5.013,5.013,0,0,1,.484-2.242,3.546,3.546,0,0,1,1.395-1.523,4.069,4.069,0,0,1,2.113-.539,3.849,3.849,0,0,1,2.793,1.047,4.2,4.2,0,0,1,1.207,2.844l.016.578a4.418,4.418,0,0,1-1.086,3.121,4.209,4.209,0,0,1-5.832,0,4.5,4.5,0,0,1-1.09-3.187Zm2.258.16a3.16,3.16,0,0,0,.453,1.843,1.628,1.628,0,0,0,2.578.008,3.457,3.457,0,0,0,.461-2.015,3.128,3.128,0,0,0-.461-1.831,1.5,1.5,0,0,0-1.3-.649,1.474,1.474,0,0,0-1.281.646A3.516,3.516,0,0,0,128.23,12.856Zm13.617.137V17H139.5V5.625h4.438a5.134,5.134,0,0,1,2.254.469,3.454,3.454,0,0,1,1.5,1.332,3.714,3.714,0,0,1,.523,1.965,3.266,3.266,0,0,1-1.145,2.637,4.767,4.767,0,0,1-3.168.965Zm0-1.9h2.094a2.059,2.059,0,0,0,1.418-.437,1.591,1.591,0,0,0,.488-1.25,1.876,1.876,0,0,0-.492-1.352A1.839,1.839,0,0,0,144,7.523h-2.148Zm12.578-.43a6.134,6.134,0,0,0-.812-.062,1.654,1.654,0,0,0-1.68.867V17h-2.258V8.547h2.133l.063,1.008a2.092,2.092,0,0,1,1.883-1.164,2.366,2.366,0,0,1,.7.1Zm4.977,6.492a4.15,4.15,0,0,1-3.027-1.141,4.054,4.054,0,0,1-1.168-3.039v-.219a5.106,5.106,0,0,1,.492-2.277,3.612,3.612,0,0,1,1.395-1.547,3.914,3.914,0,0,1,2.059-.543,3.508,3.508,0,0,1,2.73,1.094,4.444,4.444,0,0,1,1,3.1v.922H157.5a2.1,2.1,0,0,0,.66,1.328,2,2,0,0,0,1.395.5,2.437,2.437,0,0,0,2.039-.945l1.109,1.242a3.389,3.389,0,0,1-1.375,1.121A4.511,4.511,0,0,1,159.4,17.156Zm-.258-6.945a1.411,1.411,0,0,0-1.09.455,2.357,2.357,0,0,0-.535,1.3h3.141v-.181a1.681,1.681,0,0,0-.406-1.165A1.456,1.456,0,0,0,159.145,10.211Zm8.078,4.031,1.57-5.7h2.359L168.3,17h-2.156l-2.852-8.453h2.359Zm8.813,2.914a4.15,4.15,0,0,1-3.027-1.141,4.054,4.054,0,0,1-1.168-3.039v-.219a5.106,5.106,0,0,1,.492-2.277,3.612,3.612,0,0,1,1.395-1.547,3.914,3.914,0,0,1,2.059-.543,3.508,3.508,0,0,1,2.73,1.094,4.444,4.444,0,0,1,1,3.1v.922h-5.383a2.1,2.1,0,0,0,.66,1.328,2,2,0,0,0,1.395.5,2.437,2.437,0,0,0,2.039-.945l1.109,1.242a3.389,3.389,0,0,1-1.375,1.121A4.511,4.511,0,0,1,176.035,17.156Zm-.258-6.945a1.411,1.411,0,0,0-1.09.455,2.357,2.357,0,0,0-.535,1.3h3.141v-.181a1.681,1.681,0,0,0-.406-1.165A1.456,1.456,0,0,0,175.777,10.211Zm7.094-1.664.07.977a2.951,2.951,0,0,1,2.43-1.133,2.453,2.453,0,0,1,2,.789,3.682,3.682,0,0,1,.672,2.359V17h-2.258V11.594a1.465,1.465,0,0,0-.312-1.043,1.4,1.4,0,0,0-1.039-.324,1.553,1.553,0,0,0-1.43.813V17h-2.258V8.547Zm9.586-2.078V8.547H193.9V10.2h-1.445v4.219a1.007,1.007,0,0,0,.18.672.9.9,0,0,0,.688.2,3.6,3.6,0,0,0,.664-.055v1.711a4.648,4.648,0,0,1-1.367.2,2.156,2.156,0,0,1-2.422-2.4V10.2h-1.234V8.547H190.2V6.469ZM197.543,17h-2.266V8.547h2.266Zm-2.4-10.641a1.112,1.112,0,0,1,.34-.836,1.465,1.465,0,0,1,1.848,0,1.105,1.105,0,0,1,.344.836,1.109,1.109,0,0,1-.348.844,1.448,1.448,0,0,1-1.836,0A1.109,1.109,0,0,1,195.145,6.359Zm7.422,7.883,1.57-5.7H206.5L203.645,17h-2.156l-2.852-8.453H201ZM207.02,12.7a5.013,5.013,0,0,1,.484-2.242A3.546,3.546,0,0,1,208.9,8.93a4.069,4.069,0,0,1,2.113-.539A3.849,3.849,0,0,1,213.8,9.438a4.2,4.2,0,0,1,1.207,2.844l.016.578a4.418,4.418,0,0,1-1.086,3.121,4.209,4.209,0,0,1-5.832,0,4.5,4.5,0,0,1-1.09-3.187Zm2.258.16a3.16,3.16,0,0,0,.453,1.843,1.628,1.628,0,0,0,2.578.008,3.457,3.457,0,0,0,.461-2.015,3.128,3.128,0,0,0-.461-1.831,1.5,1.5,0,0,0-1.3-.649,1.474,1.474,0,0,0-1.281.646A3.516,3.516,0,0,0,209.277,12.856Z" transform="translate(20.5 7)" fill="#12263f"/>
    </g>
    <circle id="Elipse_8204" data-name="Elipse 8204" cx="116.5" cy="116.5" r="116.5" transform="translate(-3929.5 -10595)" fill="#ffda72"/>
    <g id="Grupo_995730" data-name="Grupo 995730" transform="translate(-3891.74 -10555.488)">
      <path id="Trazado_655367" data-name="Trazado 655367" d="M15.2,158.638c-2.014.031-2.711-.5-3.05-2.434a22.5,22.5,0,0,1-.416-3.512c-.015-1.059-.357-1.364-1.425-1.35a9.575,9.575,0,0,1-8.272-3.961,9.334,9.334,0,0,1-.962-10.168,9.4,9.4,0,0,1,8.457-5.507c2.1-.112,2-.082,2.141-2.258a3.548,3.548,0,0,0-1.88-3.683,12.587,12.587,0,0,1-5.023-14.1A12.985,12.985,0,0,1,16.6,102.433c3.512-.177,6.88.216,9.8,2.4.575.429.758.11,1.039-.305,2.956-4.385,7.144-6.191,12.361-6.143,8.838.082,17.678.021,26.518.023,2.589,0,3.236.687,3.285,3.279a26.691,26.691,0,0,1-9.124,21.2,1.909,1.909,0,0,0-.672,1.606c.026,1.9.081,3.807-.017,5.7-.062,1.187.264,1.533,1.5,1.528a9.808,9.808,0,1,1,.2,19.61c-1.274.028-1.729.247-1.8,1.636a22.877,22.877,0,0,1-7.233,15.676c-.781.758-.781,1.063.039,1.8a24.458,24.458,0,0,1,8.459,18.308c.033,1.387.045,2.776.017,4.163-.037,1.81-.854,2.625-2.655,2.643-2.466.024-4.934.006-7.4.006q-18.578,0-37.155,0c-2.608,0-3.2-.658-3.283-3.276-.166-5.207.409-10.248,2.956-14.912a26.187,26.187,0,0,1,6.432-7.739c-.98-1.065-1.92-2.009-2.771-3.028-1.251-1.5-1.226-2.2-.023-3.8,1.467-.773,2.58-.373,3.628.878A18.766,18.766,0,0,0,36.2,170.793c9.23.153,18.186-7.882,18.786-17.187.542-8.408.108-16.843.192-25.266.018-1.734.015-1.7-1.535-1.053-8.861,3.7-17.913,3.39-24.474-4.142A16.744,16.744,0,0,1,25.4,126.5a14.31,14.31,0,0,1-7.712,1.608c-1.166-.082-1.465.286-1.453,1.44.061,5.64.015,11.281.033,16.921a45.339,45.339,0,0,0,.491,9.347,2.329,2.329,0,0,1-1.561,2.82m2.194-51.516a8.03,8.03,0,0,0-8.439,8.314,7.887,7.887,0,0,0,8.423,7.946,8.261,8.261,0,0,0,8.5-3.663,2.351,2.351,0,0,0,.309-2.3,11.054,11.054,0,0,1-.778-5.116c.312-2.425-1.085-3.54-2.932-4.422a9.085,9.085,0,0,0-5.086-.758m10.786,83.761q13.62.025,27.24.059c.609,0,.921-.1.931-.825a20.466,20.466,0,0,0-8.159-17.25,1.083,1.083,0,0,0-1.365-.137,24.428,24.428,0,0,1-13.99,2.633,24.624,24.624,0,0,1-8.151-2.595,1.265,1.265,0,0,0-1.632.268,20.4,20.4,0,0,0-7.95,16.9c.007.837.3,1.025,1.071,1.016,4-.048,8-.048,12.006-.065m12.04-87.775A8.89,8.89,0,0,0,29.974,112.8c.415,6.659,6.232,12.369,12.708,12.067a15.481,15.481,0,0,0,5.468-.579c9.619-2.331,17.033-11.64,16.723-20.968.009-.214-.107-.273-.3-.239l-24.356.028M11.633,141.576c0-1.435-.032-2.87.013-4.3.023-.725-.211-.941-.951-.975-3.346-.154-5.891,1.933-5.984,4.988-.1,3.193,2.3,5.455,5.694,5.474.91,0,1.3-.213,1.246-1.19-.073-1.328-.019-2.663-.019-3.995m48.186-.135c0,1.435,0,2.869,0,4.3,0,.553.042.932.789,1.016a5.453,5.453,0,0,0,6.13-4.722,5.235,5.235,0,0,0-5.227-5.741c-1.252-.057-1.91.136-1.721,1.614a28.124,28.124,0,0,1,.031,3.53" transform="translate(0 -37.594)" fill="#030303"/>
      <path id="Trazado_655368" data-name="Trazado 655368" d="M180.017,70.414c-1.459.565-2.983.318-4.482.367-.659-2-1.156-2.362-3.375-2.364q-16.5-.007-33,0a7.436,7.436,0,0,1-6.278-11.708c1.435-2.166.779-3.743-1.751-4.18a14.459,14.459,0,0,1-8.656-4.626,14.052,14.052,0,0,1-3.017-14.759,14,14,0,0,1,11.427-9.594c2.767-.5,3.479-2.012,1.972-4.309a7.137,7.137,0,0,1-.459-7.724,7.323,7.323,0,0,1,6.96-3.98q19.043.017,38.086,0a7.214,7.214,0,0,1,6.832,3.926,7.242,7.242,0,0,1-.478,7.864c-1.418,2.151-.738,3.75,1.825,4.171a14.885,14.885,0,0,1,4.65,1.518,14.669,14.669,0,0,1-4.657,27.5c-2.535.472-3.243,1.964-1.911,4.025,2.617,4.048,1.742,8.292-2.3,10.913a2.619,2.619,0,0,0-1.389,2.959m-21.744-3.943a21.626,21.626,0,0,0,21.169-16.865c.355-1.623.735-2.509,2.619-2.921a6.791,6.791,0,0,0,5.022-7.5,7.2,7.2,0,0,0-7-6.538c-.711-.049-1.334.036-1.7-.876A20.954,20.954,0,0,0,168.361,20.73a1.411,1.411,0,0,1-.847-1.137,6.466,6.466,0,0,0-5.56-5.761,1.734,1.734,0,0,1-1.443-1.068,5.6,5.6,0,0,0-7.7-2.614,1.838,1.838,0,0,1-1.924-.069,5.674,5.674,0,0,0-8.08,4.081,9.869,9.869,0,0,0,1.7,7.464c.595.906.465,1.307-.316,1.955a19.434,19.434,0,0,0-5.615,7.612,2.03,2.03,0,0,1-2.082,1.495,7.2,7.2,0,0,0-.682,14.327c.85.12,1.069.438,1.194,1.222a21.66,21.66,0,0,0,21.269,18.234" transform="translate(-45.274 -2.899)" fill="#dbe3f8"/>
      <path id="Trazado_655369" data-name="Trazado 655369" d="M177.172,67.549a2.62,2.62,0,0,1,1.391-2.96c4.042-2.621,4.917-6.864,2.3-10.913-1.333-2.061-.624-3.553,1.91-4.024a14.669,14.669,0,0,0,4.658-27.5,14.891,14.891,0,0,0-4.65-1.519c-2.562-.421-3.242-2.02-1.825-4.171a7.242,7.242,0,0,0,.478-7.864A7.214,7.214,0,0,0,174.6,4.674q-19.043,0-38.086,0a7.323,7.323,0,0,0-6.961,3.98,7.138,7.138,0,0,0,.46,7.724c1.507,2.3.793,3.812-1.973,4.31a14,14,0,0,0-11.426,9.594,14.05,14.05,0,0,0,3.017,14.758,14.458,14.458,0,0,0,8.657,4.626c2.53.437,3.186,2.014,1.75,4.179a7.436,7.436,0,0,0,6.277,11.708q16.5-.009,33,0c2.217,0,2.715.363,3.374,2.363-.368,1.67-1.389,2.3-3.106,2.292-11-.047-21.994,0-32.991-.03-8.7-.02-14.193-7.19-11.969-15.623.221-.834.009-.988-.7-1.265-7.941-3.112-12.816-10.052-12.828-18.177-.012-8.1,4.932-15.1,12.847-18.143.635-.245.914-.407.681-1.257C122.351,7.377,127.948.063,136.587.049q18.962-.031,37.924,0c8.551.015,14.161,7.337,11.9,15.583-.3,1.108.254,1.148.943,1.411A19.312,19.312,0,0,1,196.123,46.6a18.3,18.3,0,0,1-8.728,6.564c-.943.335-1.195.634-.888,1.724a12.01,12.01,0,0,1-5.356,13.59c-1.8,1.072-2.8.839-3.979-.929" transform="translate(-42.43 -0.034)" fill="#040404"/>
      <path id="Trazado_655370" data-name="Trazado 655370" d="M24.593,176.014a2.33,2.33,0,0,0,1.561-2.82,45.342,45.342,0,0,1-.491-9.347c-.017-5.641.028-11.282-.032-16.921-.012-1.154.287-1.522,1.453-1.439a14.313,14.313,0,0,0,7.712-1.608c-.514,4.023-.2,8.071-.364,12.1-1.689-.721-2.794-.518-3.486.641-.679,1.137-.312,2.341,1.022,3.434a12.248,12.248,0,0,0,2.519,1.414c0,2.152-.012,4.3,0,6.456.035,8.348,3.452,14.87,10.512,19.413a1.073,1.073,0,0,1,.6.829,18.766,18.766,0,0,1-15.511-7.107c-1.047-1.25-2.16-1.65-3.628-.878a23.664,23.664,0,0,1-1.864-4.171" transform="translate(-9.392 -54.971)" fill="#f2c9bc"/>
      <path id="Trazado_655371" data-name="Trazado 655371" d="M154.185,116.17a10.713,10.713,0,1,1-10.7,10.693,10.763,10.763,0,0,1,10.7-10.693m.1,16.793a6.08,6.08,0,1,0-6.162-6,6.121,6.121,0,0,0,6.162,6" transform="translate(-54.8 -44.388)" fill="#040404"/>
      <path id="Trazado_655372" data-name="Trazado 655372" d="M125.7,136.191a6.7,6.7,0,1,1-6.772,6.668,6.67,6.67,0,0,1,6.772-6.668m-.094,4.639a2.056,2.056,0,1,0,2.1,1.99,2.022,2.022,0,0,0-2.1-1.99" transform="translate(-45.419 -52.035)" fill="#040404"/>
      <path id="Trazado_655373" data-name="Trazado 655373" d="M51.673,186.1a1.073,1.073,0,0,0-.6-.829c-7.06-4.544-10.476-11.065-10.512-19.413-.009-2.152,0-4.3,0-6.456a8.242,8.242,0,0,0,7.64-1.6c1.242-1.064,1.476-2.44.625-3.5s-2.154-1.107-3.53-.107c-1.786,1.3-3.106,1.221-4.79-.277.159-4.034-.15-8.081.364-12.1a16.717,16.717,0,0,0,3.768-3.356c6.56,7.531,15.613,7.843,24.474,4.141,1.551-.648,1.554-.681,1.536,1.053-.085,8.423.35,16.858-.192,25.266-.6,9.3-9.556,17.34-18.786,17.187m-.516-19.678a9.977,9.977,0,0,0-6.827,2.7,2.273,2.273,0,0,0-.4,3.386c.879,1.022,2.168,1.063,3.415.109,2.764-2.115,4.97-2.129,7.644-.049,1.3,1.012,2.653.969,3.526-.115.854-1.06.689-2.3-.5-3.385a10.012,10.012,0,0,0-6.855-2.645m8.206-6.724a7.608,7.608,0,0,0,5.443-2.119,2.307,2.307,0,1,0-2.92-3.568c-2.076,1.446-2.939,1.451-4.972.026a2.313,2.313,0,1,0-2.872,3.616,7.579,7.579,0,0,0,5.32,2.045" transform="translate(-15.471 -52.897)" fill="#f7dbcd"/>
      <path id="Trazado_655374" data-name="Trazado 655374" d="M87.388,106.221c.31,9.329-7.1,18.637-16.723,20.968a15.481,15.481,0,0,1-5.468.579.967.967,0,0,0-.442-.768,12.87,12.87,0,0,1-3.662-4.071c-2.575-3.983-3.026-10.971-.257-14.558.619-.8,1.609-1.3,1.9-2.362l24.356-.028.3.239" transform="translate(-22.514 -40.497)" fill="#a38080"/>
      <path id="Trazado_655375" data-name="Trazado 655375" d="M50.237,221.191a24.425,24.425,0,0,0,13.99-2.633,1.083,1.083,0,0,1,1.365.137,20.464,20.464,0,0,1,8.159,17.25c-.01.729-.322.827-.931.825q-13.619-.044-27.24-.059a27.616,27.616,0,0,1,.492-6.236,24.063,24.063,0,0,1,4.165-9.284" transform="translate(-17.4 -83.423)" fill="#d794cc"/>
      <path id="Trazado_655376" data-name="Trazado 655376" d="M42.169,221.2A24.063,24.063,0,0,0,38,230.489a27.616,27.616,0,0,0-.492,6.236c-4,.017-8,.017-12.007.065-.774.009-1.063-.179-1.07-1.016a20.4,20.4,0,0,1,7.95-16.9,1.264,1.264,0,0,1,1.631-.268,24.632,24.632,0,0,0,8.152,2.595" transform="translate(-9.332 -83.437)" fill="#cf79bb"/>
      <path id="Trazado_655377" data-name="Trazado 655377" d="M26.085,112.473a9.083,9.083,0,0,1,5.085.758c1.847.882,3.244,2,2.932,4.422a11.054,11.054,0,0,0,.778,5.116,2.35,2.35,0,0,1-.309,2.3,8.26,8.26,0,0,1-8.5,3.663,1.481,1.481,0,0,0-.565-1.041,10.306,10.306,0,0,1-.117-13.88,2.724,2.724,0,0,0,.7-1.339" transform="translate(-8.69 -42.947)" fill="#a38080"/>
      <path id="Trazado_655378" data-name="Trazado 655378" d="M58.729,105.972c-.29,1.058-1.281,1.561-1.9,2.362-2.769,3.587-2.318,10.575.257,14.558a12.87,12.87,0,0,0,3.662,4.071.96.96,0,0,1,.442.767c-6.476.3-12.292-5.408-12.707-12.067a8.889,8.889,0,0,1,10.246-9.691" transform="translate(-18.508 -40.46)" fill="#946c6b"/>
      <path id="Trazado_655379" data-name="Trazado 655379" d="M22.927,112.518a2.724,2.724,0,0,1-.7,1.339,10.306,10.306,0,0,0,.117,13.88,1.481,1.481,0,0,1,.565,1.041,7.887,7.887,0,0,1-8.422-7.945,8.03,8.03,0,0,1,8.439-8.315" transform="translate(-5.533 -42.991)" fill="#946c6b"/>
      <path id="Trazado_655380" data-name="Trazado 655380" d="M14.543,165c0,1.332-.054,2.667.019,3.995.053.977-.335,1.2-1.246,1.19-3.4-.02-5.791-2.281-5.694-5.474.093-3.055,2.638-5.142,5.984-4.988.74.034.973.25.951.975-.045,1.433-.014,2.868-.013,4.3" transform="translate(-2.909 -61.019)" fill="#ddab9d"/>
      <path id="Trazado_655381" data-name="Trazado 655381" d="M96.742,164.865a28.126,28.126,0,0,0-.03-3.53c-.19-1.478.469-1.671,1.721-1.614a5.235,5.235,0,0,1,5.227,5.741,5.453,5.453,0,0,1-6.13,4.722c-.747-.084-.791-.463-.789-1.016.007-1.435,0-2.869,0-4.3" transform="translate(-36.924 -61.018)" fill="#ddab9d"/>
      <path id="Trazado_655382" data-name="Trazado 655382" d="M104.775,106.215l-.3-.239c.19-.034.306.025.3.239" transform="translate(-39.902 -40.492)" fill="#946c6b"/>
      <path id="Trazado_655383" data-name="Trazado 655383" d="M165.094,67.686a21.661,21.661,0,0,1-21.269-18.234c-.125-.784-.343-1.1-1.193-1.222a7.2,7.2,0,0,1,.682-14.327,2.031,2.031,0,0,0,2.082-1.495,19.433,19.433,0,0,1,5.615-7.612c.783-.648.911-1.049.317-1.955a9.869,9.869,0,0,1-1.7-7.464,5.674,5.674,0,0,1,8.081-4.081,1.837,1.837,0,0,0,1.923.069,5.605,5.605,0,0,1,7.7,2.614,1.732,1.732,0,0,0,1.442,1.068,6.465,6.465,0,0,1,5.56,5.761,1.412,1.412,0,0,0,.847,1.137,20.955,20.955,0,0,1,10.027,11.041c.362.913.985.827,1.7.876a7.2,7.2,0,0,1,7,6.538,6.791,6.791,0,0,1-5.021,7.5c-1.885.412-2.263,1.3-2.619,2.921a21.625,21.625,0,0,1-21.169,16.865m-5.855-44.431c2.988.7,6.015.3,9.022.253.967-.014,1.45-.9,1.476-1.872a1.866,1.866,0,0,0-1.567-1.993,6.689,6.689,0,0,0-1.53-.07c-2.526-.015-3.033-.438-3.343-2.923-.078-.633-.273-1.108-.962-1.176-.725-.071-1.079.284-1.286,1.005-.687,2.4-1.744,2.844-3.958,1.765a4.369,4.369,0,0,1-.684-1.689c-.095-.724-.52-1.318-1.329-1.15-.748.156-1,.853-1.006,1.558a6.79,6.79,0,0,0,5.167,6.291m1.241,5.024a10.934,10.934,0,0,1-3.851-.964,1.45,1.45,0,0,0-1.783.257,17.215,17.215,0,0,0-6.113,9.179c-.927,3.434-.7,6.945-.515,10.413a16.9,16.9,0,0,0,17.494,15.827c6.955.085,13.7-5.089,15.757-12.076,1.068-3.628.836-7.346.615-11.026-.355-5.915-3.312-10.34-8.294-13.467a1.075,1.075,0,0,0-1.588.1,6.378,6.378,0,0,1-4.786,1.732c-2.312-.033-4.624.011-6.936.022m28.843,12.842a2.573,2.573,0,0,0-1.731-2.453c-.6-.225-.954-.166-.88.638.089.961.047,1.934.117,2.9.035.47-.3,1.167.292,1.363.619.2,1.133-.315,1.559-.767a2.65,2.65,0,0,0,.642-1.679m-45.808-.085h.012a2.2,2.2,0,0,0-.009-.609c-.179-.6.6-1.6-.412-1.763-.918-.146-1.559.66-1.89,1.518a2.46,2.46,0,0,0,.747,2.9c.339.305.767.638,1.227.507.626-.177.255-.774.31-1.178a10.206,10.206,0,0,0,.014-1.376" transform="translate(-52.095 -4.114)" fill="#030303"/>
      <path id="Trazado_655384" data-name="Trazado 655384" d="M38.15,163.186c1.683,1.5,3,1.575,4.79.277,1.375-1,2.676-.961,3.53.107s.617,2.439-.626,3.5a8.242,8.242,0,0,1-7.64,1.6,12.232,12.232,0,0,1-2.519-1.414c-1.334-1.093-1.7-2.3-1.023-3.434.692-1.159,1.8-1.362,3.487-.641" transform="translate(-13.111 -62.174)" fill="#040404"/>
      <path id="Trazado_655385" data-name="Trazado 655385" d="M157.144,135.827a6.079,6.079,0,1,1,6.083-6.081,6.119,6.119,0,0,1-6.083,6.081" transform="translate(-57.662 -47.252)" fill="#dbe3f8"/>
      <path id="Trazado_655386" data-name="Trazado 655386" d="M128.465,143.7a2.056,2.056,0,1,1-2.043,2.045,2.025,2.025,0,0,1,2.043-2.045" transform="translate(-48.283 -54.901)" fill="#dbe3f8"/>
      <path id="Trazado_655387" data-name="Trazado 655387" d="M52.909,183.7a10.013,10.013,0,0,1,6.855,2.645c1.194,1.08,1.36,2.325.506,3.385-.873,1.083-2.224,1.127-3.526.115-2.674-2.08-4.881-2.066-7.644.049-1.247.954-2.536.914-3.415-.109a2.273,2.273,0,0,1,.4-3.386,9.979,9.979,0,0,1,6.827-2.7" transform="translate(-17.223 -70.18)" fill="#040404"/>
      <path id="Trazado_655388" data-name="Trazado 655388" d="M67.116,168.967a7.58,7.58,0,0,1-5.319-2.045,2.313,2.313,0,1,1,2.872-3.616c2.033,1.425,2.9,1.42,4.972-.026a2.307,2.307,0,1,1,2.92,3.568,7.609,7.609,0,0,1-5.445,2.119" transform="translate(-23.225 -62.17)" fill="#040404"/>
      <path id="Trazado_655389" data-name="Trazado 655389" d="M172.435,37.8c2.312-.011,4.625-.055,6.936-.022a6.374,6.374,0,0,0,4.786-1.732,1.075,1.075,0,0,1,1.588-.1c4.982,3.127,7.939,7.552,8.294,13.467.221,3.68.453,7.4-.615,11.027-2.057,6.987-8.8,12.161-15.757,12.075a19.113,19.113,0,0,1-9.306-12.159c-.258-1.027-1.135-2.16-.1-3.275,5.065,4.785,12.152,5.108,16.916.773,1.329-1.21,1.565-2.538.64-3.61-.949-1.1-2.24-1.069-3.636.088a7.425,7.425,0,0,1-10.079,0c-1.548-1.265-2.309-1.247-3.882.087a15.08,15.08,0,0,1,.485-9.3c.019,1.179.009,2.36.065,3.537a2.316,2.316,0,0,0,2.4,2.445,2.25,2.25,0,0,0,2.216-2.439c.033-.974.015-1.95.008-2.925-.019-2.758-1.571-3.668-4-2.349.062-.29.106-.587.19-.871.543-1.82,1.934-3.127,2.862-4.714m13,9.145h.015c0-.666.03-1.334-.006-2a2.128,2.128,0,0,0-2.14-2.183,2.056,2.056,0,0,0-2.333,1.784A13.184,13.184,0,0,0,181,49.431a2.257,2.257,0,0,0,4.416-.337,21.489,21.489,0,0,0,.013-2.15" transform="translate(-64.05 -13.633)" fill="#f7dbce"/>
      <path id="Trazado_655390" data-name="Trazado 655390" d="M163.5,57.691c-1.031,1.116-.153,2.249.1,3.275a19.117,19.117,0,0,0,9.306,12.159A16.9,16.9,0,0,1,155.414,57.3c-.182-3.469-.412-6.979.514-10.413a17.216,17.216,0,0,1,6.114-9.179,1.449,1.449,0,0,1,1.783-.257,10.934,10.934,0,0,0,3.851.964c-.928,1.587-2.32,2.894-2.862,4.713-.085.284-.128.58-.19.871l-.684,1.731a15.089,15.089,0,0,0-.485,9.3,2.9,2.9,0,0,0,.043,2.663" transform="translate(-59.292 -14.246)" fill="#f3cabd"/>
      <path id="Trazado_655391" data-name="Trazado 655391" d="M169.867,21.179c2.214,1.079,3.271.632,3.958-1.765.206-.721.561-1.077,1.286-1.006.689.068.883.544.962,1.176.31,2.485.816,2.908,3.343,2.923a6.691,6.691,0,0,1,1.53.07,1.868,1.868,0,0,1,1.567,1.993c-.027.971-.51,1.857-1.476,1.872-3.007.045-6.034.451-9.022-.253.01-.516-.4-.786-.659-1.148a5.876,5.876,0,0,1-1.49-3.862" transform="translate(-64.871 -7.048)" fill="#4e4990"/>
      <path id="Trazado_655392" data-name="Trazado 655392" d="M168.008,21.124a5.876,5.876,0,0,0,1.49,3.862c.261.363.669.632.659,1.148a6.79,6.79,0,0,1-5.167-6.291c.008-.7.258-1.4,1.006-1.558.808-.169,1.234.425,1.328,1.15a4.37,4.37,0,0,0,.684,1.689" transform="translate(-63.012 -6.993)" fill="#403c78"/>
      <path id="Trazado_655393" data-name="Trazado 655393" d="M220.4,58.324A2.644,2.644,0,0,1,219.76,60c-.426.452-.941.972-1.559.768-.595-.2-.258-.893-.292-1.363-.07-.964-.028-1.936-.117-2.9-.075-.8.276-.863.88-.638a2.571,2.571,0,0,1,1.731,2.454" transform="translate(-83.174 -21.315)" fill="#ddab9d"/>
      <path id="Trazado_655394" data-name="Trazado 655394" d="M146.367,58.3a10.209,10.209,0,0,1-.014,1.376c-.056.4.315,1-.31,1.178-.46.131-.888-.2-1.227-.507a2.46,2.46,0,0,1-.747-2.9c.331-.858.972-1.664,1.89-1.518,1.014.162.233,1.164.412,1.763a2.2,2.2,0,0,1,.009.609Z" transform="translate(-54.947 -21.372)" fill="#ddab9d"/>
      <path id="Trazado_655395" data-name="Trazado 655395" d="M168.382,68.049a2.9,2.9,0,0,1-.043-2.663c1.573-1.334,2.335-1.351,3.882-.087a7.425,7.425,0,0,0,10.079,0c1.4-1.158,2.687-1.189,3.637-.088.925,1.072.69,2.4-.64,3.61-4.765,4.336-11.851,4.013-16.916-.772" transform="translate(-64.176 -24.604)" fill="#040404"/>
      <path id="Trazado_655396" data-name="Trazado 655396" d="M193.5,51.34a21.489,21.489,0,0,1-.013,2.15,2.257,2.257,0,0,1-4.416.337,13.184,13.184,0,0,1-.035-4.883,2.056,2.056,0,0,1,2.333-1.784,2.128,2.128,0,0,1,2.14,2.183c.036.664.006,1.332.006,2H193.5" transform="translate(-72.114 -18.029)" fill="#040404"/>
      <path id="Trazado_655397" data-name="Trazado 655397" d="M169.312,49.529,170,47.8c2.429-1.319,3.98-.41,4,2.349.007.975.025,1.952-.008,2.926a2.249,2.249,0,0,1-2.216,2.438,2.316,2.316,0,0,1-2.4-2.445c-.055-1.177-.046-2.358-.065-3.537" transform="translate(-64.663 -18.049)" fill="#040404"/>
    </g>
  </g>
</svg>
