<svg xmlns="http://www.w3.org/2000/svg" xmlns:xlink="http://www.w3.org/1999/xlink" width="67" height="67" viewBox="0 0 67 67">
  <defs>
    <clipPath id="clip-path">
      <rect id="Rect치ngulo_356294" data-name="Rect치ngulo 356294" width="52.182" height="49.391" fill="none"/>
    </clipPath>
  </defs>
  <g id="Grupo_1071805" data-name="Grupo 1071805" transform="translate(-915 -774.752)">
    <rect id="Rect치ngulo_309742" data-name="Rect치ngulo 309742" width="67" height="67" transform="translate(915 774.752)" fill="none"/>
    <g id="Grupo_1071804" data-name="Grupo 1071804" transform="translate(923.518 783.661)">
      <path id="Trazado_771369" data-name="Trazado 771369" d="M45.5,12.636,50.018,8.17l3.828,3.785L49.328,16.42Z" transform="translate(-5.584 -1.003)" fill="#fcd9d9"/>
      <g id="Grupo_1071803" data-name="Grupo 1071803" transform="translate(0 0)">
        <g id="Grupo_1071802" data-name="Grupo 1071802" clip-path="url(#clip-path)">
          <path id="Trazado_771370" data-name="Trazado 771370" d="M27.717,12A14.3,14.3,0,1,1,13.252,26.3,14.386,14.386,0,0,1,27.717,12" transform="translate(-1.626 -1.472)" fill="#d7deed"/>
          <path id="Trazado_771371" data-name="Trazado 771371" d="M4.42,12,8.247,8.216l4.519,4.465L8.938,16.466Z" transform="translate(-0.542 -1.008)" fill="#fcd9d9"/>
          <path id="Trazado_771372" data-name="Trazado 771372" d="M12.793,42.573,8.267,47.047,4.451,43.275,8.977,38.8Z" transform="translate(-0.546 -4.761)" fill="#fcd9d9"/>
          <path id="Trazado_771373" data-name="Trazado 771373" d="M45.546,42.563l3.828-3.785,4.519,4.467L50.064,47.03Z" transform="translate(-5.589 -4.759)" fill="#fcd9d9"/>
          <path id="Trazado_771374" data-name="Trazado 771374" d="M56.176,41.7l.8,8.422-8.519-.79Z" transform="translate(-5.946 -5.117)" fill="#fcd9d9"/>
          <path id="Trazado_771375" data-name="Trazado 771375" d="M9.835,5.89,2.114,13.522,1.315,5.1Z" transform="translate(-0.161 -0.626)" fill="#fcd9d9"/>
          <path id="Trazado_771376" data-name="Trazado 771376" d="M9.835,49.333l-8.519.789.8-8.421,1.953,1.93Z" transform="translate(-0.161 -5.117)" fill="#fcd9d9"/>
          <path id="Trazado_771377" data-name="Trazado 771377" d="M56.975,5.1l-.8,8.422L48.455,5.889Z" transform="translate(-5.946 -0.626)" fill="#fcd9d9"/>
          <path id="Trazado_771378" data-name="Trazado 771378" d="M27.568,41.4a15.516,15.516,0,0,1-15.53-15.352,15.532,15.532,0,0,1,31.061,0A15.516,15.516,0,0,1,27.568,41.4m0-28.512A13.16,13.16,0,1,0,40.88,26.052,13.219,13.219,0,0,0,27.568,12.893" transform="translate(-1.477 -1.313)"/>
          <path id="Trazado_771379" data-name="Trazado 771379" d="M28.676,37.941a9.992,9.992,0,0,1-7.277-3.07,1.1,1.1,0,0,1,0-1.579,1.134,1.134,0,0,1,1.6,0,7.618,7.618,0,0,0,5.68,2.369,7.777,7.777,0,0,0,7.81-7.719,1.154,1.154,0,0,1,2.307,0,10.17,10.17,0,0,1-10.117,10" transform="translate(-2.585 -3.289)"/>
          <path id="Trazado_771380" data-name="Trazado 771380" d="M19.464,27.954a1.168,1.168,0,0,1-1.154-1.14A9.961,9.961,0,0,1,28.338,16.9a1.141,1.141,0,1,1,0,2.281,7.777,7.777,0,0,0-7.81,7.72,1.017,1.017,0,0,1-1.065,1.053" transform="translate(-2.247 -2.074)"/>
          <path id="Trazado_771381" data-name="Trazado 771381" d="M56.018,14.415a1.09,1.09,0,0,1-.8-.351L47.5,6.432a1.1,1.1,0,0,1-.266-1.14,1.037,1.037,0,0,1,.976-.7l8.519-.79a1.146,1.146,0,0,1,.888.351,1.118,1.118,0,0,1,.355.877l-.8,8.422a1.165,1.165,0,0,1-.709.965ZM50.781,6.607l4.349,4.3.444-4.825Z" transform="translate(-5.788 -0.466)"/>
          <path id="Trazado_771382" data-name="Trazado 771382" d="M49.176,17.33a1.091,1.091,0,0,1-.8-.35l-3.816-3.772a1.3,1.3,0,0,1-.355-.79,1.071,1.071,0,0,1,.355-.79l4.526-4.474a1.134,1.134,0,0,1,1.6,0L54.5,10.926a1.3,1.3,0,0,1,.354.79,1.066,1.066,0,0,1-.354.789L49.974,16.98a.969.969,0,0,1-.8.35m-2.219-4.825L49.176,14.7,52.1,11.8,49.886,9.61Z" transform="translate(-5.425 -0.837)"/>
          <path id="Trazado_771383" data-name="Trazado 771383" d="M56.816,51.117h-.089l-8.519-.79a1.178,1.178,0,0,1-.976-.7,1.055,1.055,0,0,1,.266-1.14l7.721-7.632a1.127,1.127,0,0,1,1.154-.263,1.027,1.027,0,0,1,.711.965l.8,8.421a1.119,1.119,0,0,1-.355.877,1.073,1.073,0,0,1-.71.264M50.781,48.31l4.88.439-.443-4.825Z" transform="translate(-5.788 -4.972)"/>
          <path id="Trazado_771384" data-name="Trazado 771384" d="M49.889,48.031a1.089,1.089,0,0,1-.8-.35l-4.526-4.475a1.1,1.1,0,0,1,0-1.578l3.816-3.772a1.133,1.133,0,0,1,1.6,0L54.5,42.328a1.1,1.1,0,0,1,0,1.579l-3.816,3.773a1.611,1.611,0,0,1-.8.35M46.96,42.417l2.928,2.9,2.219-2.193-2.928-2.9Z" transform="translate(-5.428 -4.605)"/>
          <path id="Trazado_771385" data-name="Trazado 771385" d="M1.964,14.4a.539.539,0,0,1-.355-.088A1.026,1.026,0,0,1,.9,13.35L.1,4.929a1.118,1.118,0,0,1,.354-.877A1.145,1.145,0,0,1,1.343,3.7l8.519.79a1.176,1.176,0,0,1,.976.7.948.948,0,0,1-.266,1.14L2.852,13.964a1.2,1.2,0,0,1-.888.439m.444-8.246.444,4.825L7.2,6.684Z" transform="translate(-0.012 -0.454)"/>
          <path id="Trazado_771386" data-name="Trazado 771386" d="M8.819,17.33a1.089,1.089,0,0,1-.8-.351L3.494,12.505a1.1,1.1,0,0,1,0-1.579L7.311,7.154a1.133,1.133,0,0,1,1.6,0l4.527,4.474a1.105,1.105,0,0,1,0,1.58L9.618,16.98a1.091,1.091,0,0,1-.8.351M5.89,11.8l2.928,2.9,2.219-2.193L8.109,9.61Z" transform="translate(-0.388 -0.837)"/>
          <path id="Trazado_771387" data-name="Trazado 771387" d="M1.154,51.106a1.092,1.092,0,0,1-.8-.352A1.119,1.119,0,0,1,0,49.877l.8-8.421a1.168,1.168,0,0,1,.71-.966,1.084,1.084,0,0,1,1.154.263l7.721,7.632a1.1,1.1,0,0,1,.267,1.14,1.038,1.038,0,0,1-.976.7l-8.519.789c.089.089,0,.089,0,.089M2.84,44,2.4,48.824l4.881-.439Z" transform="translate(0 -4.96)"/>
          <path id="Trazado_771388" data-name="Trazado 771388" d="M8.106,48.027a1.089,1.089,0,0,1-.8-.351L3.491,43.9a1.292,1.292,0,0,1-.355-.789.947.947,0,0,1,.355-.79l4.526-4.474a1.328,1.328,0,0,1,.8-.351,1.091,1.091,0,0,1,.8.351l3.816,3.772a1.1,1.1,0,0,1,0,1.579L8.9,47.676a1.607,1.607,0,0,1-.8.351M5.887,43.115l2.219,2.193,2.928-2.9L8.816,40.22Z" transform="translate(-0.385 -4.602)"/>
          <path id="Trazado_771389" data-name="Trazado 771389" d="M31.7,2.282H15.013A1.169,1.169,0,0,1,13.859,1.14,1.169,1.169,0,0,1,15.013,0H31.7a1.169,1.169,0,0,1,1.155,1.14A1.17,1.17,0,0,1,31.7,2.282" transform="translate(-1.701 0)"/>
          <path id="Trazado_771390" data-name="Trazado 771390" d="M38,5.981h-7.81a1.167,1.167,0,0,1-1.153-1.14A1.167,1.167,0,0,1,30.186,3.7H38A1.168,1.168,0,0,1,39.15,4.84,1.166,1.166,0,0,1,38,5.981" transform="translate(-3.563 -0.454)"/>
          <path id="Trazado_771391" data-name="Trazado 771391" d="M41.813,55.981H25.129a1.141,1.141,0,1,1,0-2.281H41.813a1.141,1.141,0,1,1,0,2.281" transform="translate(-2.942 -6.59)"/>
          <path id="Trazado_771392" data-name="Trazado 771392" d="M27.88,52.282h-7.81a1.141,1.141,0,1,1,0-2.282h7.81a1.169,1.169,0,0,1,1.154,1.14,1.234,1.234,0,0,1-1.154,1.141" transform="translate(-2.321 -6.136)"/>
        </g>
      </g>
    </g>
  </g>
</svg>
