<svg xmlns="http://www.w3.org/2000/svg" xmlns:xlink="http://www.w3.org/1999/xlink" width="67" height="67" viewBox="0 0 67 67">
  <defs>
    <clipPath id="clip-path">
      <rect id="Rect치ngulo_356293" data-name="Rect치ngulo 356293" width="52.2" height="50.486" fill="none"/>
    </clipPath>
  </defs>
  <g id="Grupo_1071806" data-name="Grupo 1071806" transform="translate(-1230 -774.752)">
    <rect id="Rect치ngulo_309742" data-name="Rect치ngulo 309742" width="67" height="67" transform="translate(1230 774.752)" fill="none"/>
    <g id="Grupo_1071801" data-name="Grupo 1071801" transform="translate(1236.204 783.065)">
      <g id="Grupo_1071800" data-name="Grupo 1071800" transform="translate(0 0)" clip-path="url(#clip-path)">
        <path id="Trazado_771353" data-name="Trazado 771353" d="M16.874,4.563A1.739,1.739,0,0,1,17.4,5.851a1.825,1.825,0,0,1-1.825,1.8H9.058a1.78,1.78,0,0,1-1.3-.515,1.739,1.739,0,0,1-.521-1.288,1.718,1.718,0,0,1,.261-.944H4.454a1.777,1.777,0,0,1-1.3-.515A1.736,1.736,0,0,1,2.63,3.1,1.824,1.824,0,0,1,4.454,1.3h6.514a1.78,1.78,0,0,1,1.3.515A1.739,1.739,0,0,1,12.793,3.1a1.711,1.711,0,0,1-.261.944h3.039a1.78,1.78,0,0,1,1.3.515" transform="translate(-0.372 -0.184)" fill="#a0cecb"/>
        <path id="Trazado_771354" data-name="Trazado 771354" d="M42.691,12.5l-3.3,3.263,3.3,3.177H32.877V12.5Z" transform="translate(-4.648 -1.767)" fill="#ef727a"/>
        <path id="Trazado_771355" data-name="Trazado 771355" d="M37.629,28.093,48.486,52.735H5.058L11.572,23.8H25.73l1.65,4.293H37.629Z" transform="translate(-0.715 -3.365)" fill="#becfeb"/>
        <path id="Trazado_771356" data-name="Trazado 771356" d="M4.879,53.668h-.26a.984.984,0,0,1-.782-1.288l6.515-29.021a1.028,1.028,0,0,1,1.041-.859H25.551a1.129,1.129,0,0,1,1.042.687l7.643,19.319a1.041,1.041,0,0,1-.608,1.374,1.061,1.061,0,0,1-1.39-.6l-7.3-18.632H12.262L5.921,52.809a1.028,1.028,0,0,1-1.042.859" transform="translate(-0.536 -3.181)"/>
        <path id="Trazado_771357" data-name="Trazado 771357" d="M51.961,54.36a1.016,1.016,0,0,1-.956-.687l-10.6-24.041H30.768a1.116,1.116,0,1,1,0-2.232H41.1a1.015,1.015,0,0,1,.956.687L52.917,52.815a1,1,0,0,1-.521,1.374c-.173.086-.26.172-.434.172" transform="translate(-4.191 -3.874)"/>
        <path id="Trazado_771358" data-name="Trazado 771358" d="M51.071,58.432H1.128a1.116,1.116,0,1,1,0-2.232H51.071A1.143,1.143,0,0,1,52.2,57.316a1.281,1.281,0,0,1-1.129,1.116" transform="translate(0 -7.946)"/>
        <path id="Trazado_771359" data-name="Trazado 771359" d="M32.69,28.388a1.143,1.143,0,0,1-1.129-1.116V19.716a1.129,1.129,0,0,1,2.258,0v7.556a1.089,1.089,0,0,1-1.129,1.116" transform="translate(-4.462 -2.63)"/>
        <path id="Trazado_771360" data-name="Trazado 771360" d="M32.69,13.079a1.143,1.143,0,0,1-1.129-1.116V9.816a1.129,1.129,0,0,1,2.258,0v2.147a1.143,1.143,0,0,1-1.129,1.116" transform="translate(-4.462 -1.23)"/>
        <path id="Trazado_771361" data-name="Trazado 771361" d="M12.466,55.272H12.2a.983.983,0,0,1-.781-1.288l4.343-19.319a1,1,0,0,1,1.3-.773.983.983,0,0,1,.781,1.288L13.508,54.5a1.042,1.042,0,0,1-1.042.773" transform="translate(-1.609 -4.786)"/>
        <path id="Trazado_771362" data-name="Trazado 771362" d="M49.7,53.432H30.161a1.116,1.116,0,1,1,0-2.232H49.7a1.116,1.116,0,1,1,0,2.232" transform="translate(-4.105 -7.239)"/>
        <path id="Trazado_771363" data-name="Trazado 771363" d="M57.507,8.432H46.65a1.116,1.116,0,1,1,0-2.232H57.507a1.143,1.143,0,0,1,1.129,1.116,1.281,1.281,0,0,1-1.129,1.116" transform="translate(-6.436 -0.876)"/>
        <path id="Trazado_771364" data-name="Trazado 771364" d="M55.094,12.147H52.922a1.132,1.132,0,0,1-1.129-1.03A1.143,1.143,0,0,1,52.922,10h2.171a1.143,1.143,0,0,1,1.129,1.116,1.072,1.072,0,0,1-1.129,1.03" transform="translate(-7.323 -1.414)"/>
        <path id="Trazado_771365" data-name="Trazado 771365" d="M24.746,53.432H22.574a1.116,1.116,0,1,1,0-2.232h2.171a1.116,1.116,0,1,1,0,2.232" transform="translate(-3.032 -7.239)"/>
        <path id="Trazado_771366" data-name="Trazado 771366" d="M42.5,19.872H32.69a1.143,1.143,0,0,1-1.129-1.116v-6.44A1.143,1.143,0,0,1,32.69,11.2H42.5a1.129,1.129,0,0,1,1.042.687,1.055,1.055,0,0,1-.261,1.2l-2.518,2.49,2.432,2.4a.927.927,0,0,1,.348.773A1.13,1.13,0,0,1,42.5,19.872m-8.686-2.147H39.9l-1.39-1.374a1.079,1.079,0,0,1,0-1.546l1.39-1.374H33.819Z" transform="translate(-4.462 -1.583)"/>
        <path id="Trazado_771367" data-name="Trazado 771367" d="M15.371,8.586H8.856a3.05,3.05,0,0,1-2.084-.859A3.177,3.177,0,0,1,5.9,5.839H4.167A3.05,3.05,0,0,1,2.082,4.98a2.98,2.98,0,0,1-.868-2.061A2.912,2.912,0,0,1,4.167,0h6.514a3.052,3.052,0,0,1,2.085.859,3.175,3.175,0,0,1,.868,1.889h1.737a3.05,3.05,0,0,1,2.085.859,2.981,2.981,0,0,1,.869,2.061,2.913,2.913,0,0,1-2.954,2.919m-11.2-6.44a.774.774,0,0,0-.782.773.609.609,0,0,0,.261.515.753.753,0,0,0,.521.258H7.206a1.093,1.093,0,0,1,.956.515,1.262,1.262,0,0,1,0,1.116.512.512,0,0,0-.087.343.61.61,0,0,0,.26.515.756.756,0,0,0,.521.258h6.514a.774.774,0,0,0,.782-.773.609.609,0,0,0-.261-.515.754.754,0,0,0-.521-.258H12.331a1.094,1.094,0,0,1-.956-.515,1.262,1.262,0,0,1,0-1.116.512.512,0,0,0,.087-.343A.61.61,0,0,0,11.2,2.4a.754.754,0,0,0-.521-.258Z" transform="translate(-0.172 0)"/>
      </g>
    </g>
  </g>
</svg>
