<svg xmlns="http://www.w3.org/2000/svg" width="67" height="67" viewBox="0 0 67 67">
  <g id="Grupo_995505" data-name="Grupo 995505" transform="translate(-303 -3225)">
    <rect id="Rectángulo_309742" data-name="Rectángulo 309742" width="67" height="67" transform="translate(303 3225)" fill="#ffd357"/>
    <g id="Grupo_995510" data-name="Grupo 995510" transform="translate(309.03 3232.329)">
      <path id="Trazado_654165" data-name="Trazado 654165" d="M695.551,354.592c.611-.34.843-.312,1.326.154a4.112,4.112,0,0,0,1.537,1.205.582.582,0,0,1,.294.225,5.662,5.662,0,0,1,1.208,3.454,2.154,2.154,0,0,1-.84,1.446c-.225.2-.263.35-.007.539a1.464,1.464,0,0,1,.265.265c.472.59.873.922,1.752.443a2.715,2.715,0,0,1,3.468,1.209,2.743,2.743,0,0,1-.414,3.566q-4.312,4.334-8.647,8.643a3.422,3.422,0,0,1-.517.349.822.822,0,0,0,.649.154c3.164.006,6.328,0,9.492.013a2.544,2.544,0,0,1,2.408,1.8,2.582,2.582,0,0,1-.947,2.857,2.493,2.493,0,0,1-1.712.495.583.583,0,0,0-.626.358,8.4,8.4,0,0,0-1.114,4.031.976.976,0,0,1-.741,1.089c-.7-.136-.878-.341-.872-1.032a4.542,4.542,0,0,1,.016-.48c.026-.227-.05-.316-.29-.312-.979.017-1.957.018-2.936.025l-4.665-.018c-.787,0-1.574.01-2.36-.007a.773.773,0,0,1-.82-.8.793.793,0,0,1,.824-.8c.16-.01.322,0,.483,0l6.864-.02,2.894.02c.162,0,.3.009.366-.206.2-.605.427-1.2.648-1.809a.9.9,0,0,0-.156-.028q-1.5,0-3,.013c-.107-.005-.214-.015-.321-.015q-12.607,0-25.214,0c-.143,0-.285.013-.428.02-.373-.007-.747-.026-1.12-.016-.2.006-.438-.093-.609.09-.576.616-1.146,1.24-1.784,1.932h1.9c.2.006.392.018.589.018h11.8a4.051,4.051,0,0,1,.482.007.8.8,0,0,1,.741.833.773.773,0,0,1-.755.762c-.177.018-.357.008-.536.008-4.81,0-9.619.01-14.429,0-.4,0-.519.118-.532.5a10.841,10.841,0,0,0,.767,4.558c.223.543.472.892,1.123.693a1.714,1.714,0,0,1,.481-.007q13.6,0,27.2,0c.214,0,.427-.018.641-.028h3.209c-.292-.638-.649-1.255.124-1.759a.923.923,0,0,1,1.162.679c.035.1.093.193.131.293a1.145,1.145,0,0,0,1.214.851,2.489,2.489,0,0,1,2.429,2.553,2.6,2.6,0,0,1-2.5,2.58c-.089.006-.179,0-.268,0q-16.818,0-33.635,0a2.6,2.6,0,0,1-2.7-1.928c-.019-.069-.034-.138-.057-.206-.086-.259.135-.638-.149-.776a1.742,1.742,0,0,0-.847-.026,2.149,2.149,0,0,1-2.221-1.263,13.561,13.561,0,0,1-1-2.308c-.176.216-.289.37-.418.51-1.466,1.591-2.914,3.2-4.408,4.763a3.9,3.9,0,0,1-6.691-2.072,3.8,3.8,0,0,1,1.311-3.56q3.334-3.07,6.662-6.146,2.4-2.219,4.807-4.439a.883.883,0,0,1,1.328-.13.851.851,0,0,1-.111,1.207q-2.8,2.607-5.625,5.2c-2.034,1.875-4.08,3.738-6.1,5.627a2.165,2.165,0,0,0-.384,2.786,2.211,2.211,0,0,0,3.585.447c.477-.481.926-.991,1.387-1.488q4.893-5.281,9.786-10.563c1.212-1.309,2.415-2.627,3.629-3.934.184-.2.206-.349,0-.539-.417-.389-.824-.788-1.235-1.182-.455-.543-.461-.55-.97-.111a12.637,12.637,0,0,0-.93.871,1.069,1.069,0,0,1-1.457.291c-.312-.756-.276-.908.351-1.481.184-.169.359-.351.554-.506a1.92,1.92,0,0,0,.878-1.891,2.617,2.617,0,0,1,3.321-2.628.624.624,0,0,0,.747-.267c1.194-1.447,2.4-2.881,3.606-4.32a.2.2,0,0,0,.02-.058c-1.458-.7-1.678-2.15-1.995-3.485a2.017,2.017,0,0,1,.857-1.921c.227-.2.252-.356,0-.544a1.423,1.423,0,0,1-.265-.264c-.47-.607-.881-.9-1.751-.435a2.9,2.9,0,0,1-3.151-4.668c.916-.954,1.866-1.876,2.8-2.811q3.565-3.565,7.129-7.13a2.675,2.675,0,0,1,2.931-.776,3.012,3.012,0,0,1,2.1,2.489,2.486,2.486,0,0,1-.462,1.878c-.163.228-.158.366.052.527a2.543,2.543,0,0,1,.229.226c.292.289.541.725.888.826s.556-.445.881-.643a2.235,2.235,0,0,1,2-.26c.6.214,1.2.465,1.785.715a1.316,1.316,0,0,1,.784.7,4.1,4.1,0,0,0,1.175,1.493.9.9,0,0,1,.19,1.245c-.56.394-.859.406-1.3-.087-.323-.36-.493-.266-.787.029q-5.921,5.948-11.864,11.875c-.076.076-.146.159-.228.227-.161.134-.148.24,0,.384.556.527,1.1,1.067,1.649,1.6.522.535,1.06,1.056,1.559,1.611.252.28.391.268.656,0q6-6.032,12.037-12.036c.27-.269.26-.414-.007-.668-.556-.529-.571-.708-.259-1.355m-19.376,23.9.007-.01a3.481,3.481,0,0,1-1.323-.048.338.338,0,0,0-.394.064c-.374.413-.752.822-1.182,1.291h1.852c.125.006.25.016.375.016h27.25c.125,0,.25-.01.374-.016.641.006,1.283.029,1.923.012a.966.966,0,0,0,.972-.994.955.955,0,0,0-.972-.934c-.641-.015-1.282.007-1.923.013-.232-.007-.464-.02-.7-.02q-11.663,0-23.325-.008a4.44,4.44,0,0,0-2.8.578Zm-8.534,9.455c-.04-.593-.08-1.186-.128-1.9-.381.4-.684.716-.98,1.036-1.037,1.119-1.037,1.12-.5,2.544a.369.369,0,0,0,.063.083,5.256,5.256,0,0,0,.721,1.481.43.43,0,0,0,.391.23c.411,0,.821,0,1.231,0,.2,0,.317-.045.2-.278a12.873,12.873,0,0,1-1-3.2m7.811-13.827c-.588-.6-1.159-1.214-1.77-1.789a1.14,1.14,0,0,0-1.6.054,1.109,1.109,0,0,0,.016,1.551c.594.618,1.219,1.2,1.831,1.8.258.271.505.554.777.811a1.13,1.13,0,0,0,1.595.062,1.156,1.156,0,0,0,.029-1.637c-.273-.3-.587-.572-.882-.856m2.772-6.022q-1.228,1.435-2.456,2.869c-.564.654-.567.651.107,1.226.17.182.334.37.51.546.678.681.692.7,1.435.089,1.2-.981,2.377-1.992,3.574-2.977.293-.241.3-.412.016-.669-.461-.42-.889-.878-1.331-1.32-1.027-1.027-1.027-1.027-1.854.236m24.9,26.25c.64.01,1.282.045,1.921.023a.977.977,0,0,0,.991-.984.945.945,0,0,0-.939-.971,9.126,9.126,0,0,0-1.968.029c-.125-.007-.249-.02-.374-.02H671.286a2.646,2.646,0,0,0-.374.015.889.889,0,0,0-.83.839.932.932,0,0,0,.67,1.029,2.236,2.236,0,0,0,.744.06q15.52,0,31.04,0c.2,0,.392-.014.588-.021M689.6,376.25a2.387,2.387,0,0,1-.127-2.3c.6-.887.143-1.3-.432-1.793a1.659,1.659,0,0,1-.263-.266c-.193-.262-.35-.2-.534.018a2.055,2.055,0,0,1-1.236.8,5.069,5.069,0,0,1-3.766-1.29.587.587,0,0,1-.194-.315c-.11-.449-.3-.3-.533-.1-1.173.993-2.337,2-3.536,2.955-.548.439-1.063.83-.718,1.637a.456.456,0,0,1,.008.266c-.088.373.115.4.411.395,2.806-.009,5.612-.005,8.418-.005Zm-4.605-29.609a1.531,1.531,0,0,0-.273-.731c-.606-.815-1.385-.836-2.178-.045q-4.745,4.738-9.484,9.481a3.623,3.623,0,0,0-.256.274,1.18,1.18,0,0,0,.178,1.828,1.146,1.146,0,0,0,1.718-.033q4.942-4.92,9.864-9.86a1.435,1.435,0,0,0,.432-.915m18.375,18.482a1.349,1.349,0,0,0-.879-1.312,1.143,1.143,0,0,0-1.354.345q-4.929,4.921-9.85,9.85a1.152,1.152,0,0,0,.007,1.748,1.14,1.14,0,0,0,1.82.077q4.953-4.935,9.893-9.883a1.037,1.037,0,0,0,.363-.825m-17.009,6.014c.36.056.565-.174.784-.392q5.08-5.084,10.163-10.166c1.286-1.289,1.241-.907.551-2.681-.263-.675-.374-.695-.9-.169l-12.137,12.136c-.089.088-.179.175-.261.27-.115.135-.115.278.059.347a10.71,10.71,0,0,0,1.742.656m3.084-20.762c-.342-.029-.516.219-.716.418q-5.06,5.057-10.115,10.117c-1.467,1.472-1.267.942-.569,2.8.238.633.282.638.75.171l12.2-12.2a3.312,3.312,0,0,0,.294-.312c.087-.113.094-.25-.053-.315a7.951,7.951,0,0,0-1.791-.676m9.583,13.588c.009-.159-.1-.214-.169-.287-.262-.269-.553-.513-.788-.8-.279-.343-.466-.34-.788-.013-2.158,2.189-4.341,4.354-6.512,6.53-.352.352-.935.7-.964,1.088-.033.446.645.732.967,1.129.219.27.378.266.632.01q3.682-3.71,7.387-7.4c.087-.087.166-.181.234-.256m-12.858-12.955c-.071-.079-.128-.148-.19-.211a11.588,11.588,0,0,1-.827-.84c-.28-.347-.464-.273-.747.012-2.163,2.184-4.345,4.349-6.511,6.529-.361.363-1.036.7-.978,1.119s.675.776,1.034,1.171c.166.183.276.2.467.013q3.763-3.781,7.54-7.548c.074-.074.138-.16.212-.247" transform="translate(-652.701 -343.655)" fill="#030202"/>
      <path id="Trazado_654166" data-name="Trazado 654166" d="M762.008,505.392l-.134.059.134-.059" transform="translate(-738.4 -470.616)" fill="#e23866"/>
      <path id="Trazado_654167" data-name="Trazado 654167" d="M763.849,547.367h-8.9a4.077,4.077,0,0,1-.536-.013.791.791,0,0,1-.114-1.55,2.241,2.241,0,0,1,.583-.045q9.011,0,18.022,0a1.547,1.547,0,0,1,.635.062.759.759,0,0,1,.512.846.744.744,0,0,1-.652.683,3.03,3.03,0,0,1-.535.018h-9.011" transform="translate(-731.992 -502.3)" fill="#030202"/>
    </g>
  </g>
</svg>
