<svg xmlns="http://www.w3.org/2000/svg" xmlns:xlink="http://www.w3.org/1999/xlink" width="83" height="83" viewBox="0 0 83 83">
  <defs>
    <clipPath id="clip-path">
      <rect id="Rectángulo_312802" data-name="Rectángulo 312802" width="71.801" height="71.782" fill="none"/>
    </clipPath>
  </defs>
  <g id="Grupo_995859" data-name="Grupo 995859" transform="translate(-181 -503)">
    <circle id="Elipse_8159" data-name="Elipse 8159" cx="41.5" cy="41.5" r="41.5" transform="translate(181 503)" fill="#f46464"/>
    <g id="Grupo_995896" data-name="Grupo 995896" transform="translate(186.6 508.609)">
      <g id="Grupo_995895" data-name="Grupo 995895" clip-path="url(#clip-path)">
        <path id="Trazado_657183" data-name="Trazado 657183" d="M35.939.014q17.55,0,35.1-.014c.6,0,.763.111.762.743q-.036,15.482,0,30.965c0,.591-.146.753-.724.711-.767-.055-1.541.005-2.311-.021-.376-.013-.47.119-.47.48q.015,8.231,0,16.463c0,.337.1.461.435.433a5.66,5.66,0,0,1,.84,0,2.3,2.3,0,0,1,2.208,2.278q.038,2.347,0,4.694a2.281,2.281,0,0,1-2.411,2.277c-1.065.013-1.065.013-1.065,1.059,0,1.892.005,3.783,0,5.675a2.291,2.291,0,0,1-2.51,2.522c-.678,0-1.355.008-2.032,0a2.252,2.252,0,0,1-2.375-2.372q-.028-2.592,0-5.184c0-.435-.086-.516-.508-.346-1.534.614-3.105,1.138-4.62,1.794A16.493,16.493,0,0,1,48.3,63.646c-.7-.056-.837.188-.824.843.043,2.218,0,4.437.027,6.655,0,.463-.074.639-.6.638q-11-.028-22,0c-.526,0-.6-.182-.593-.64.022-2.311.011-4.623.009-6.935,0-.27.077-.6-.388-.547-4.057.467-7.625-1.178-11.243-2.6-.585-.23-1.184-.427-1.757-.684-.423-.189-.512-.071-.508.354.017,1.658.012,3.316.005,4.974A2.308,2.308,0,0,1,7.84,68.283c-.654,0-1.308.007-1.962,0A2.258,2.258,0,0,1,3.512,65.9c-.014-2.078-.024-4.157.01-6.235.009-.533-.136-.7-.659-.643A2.461,2.461,0,0,1,.009,56.188c.087-1.3.012-2.614.018-3.922a2.334,2.334,0,0,1,2.493-2.5c.21,0,.421-.013.631,0,.27.019.392-.085.36-.36a2.436,2.436,0,0,1,0-.28c0-5.348-.008-10.7.012-16.042,0-.54-.118-.735-.685-.7-.791.052-1.588,0-2.381.02-.329.009-.482-.078-.431-.424a2.466,2.466,0,0,0,0-.35Q.026,16.192.009.745C.007.115.172,0,.77,0q17.584.029,35.17.014M27.558,30.12c-5.066-3.39-7.827-7.946-7.832-13.894s2.746-10.491,7.7-13.83a2.566,2.566,0,0,0-.316-.054q-12.119,0-24.239-.014c-.457,0-.532.165-.532.569q.015,13.344,0,26.689c0,.438.141.544.561.544,8.149-.011,16.3-.009,24.662-.009m16.746,0c8.3,0,16.453-.006,24.6.013.576,0,.566-.269.566-.68q-.009-13.2.009-26.41c0-.6-.172-.722-.741-.721q-11.805.029-23.61.015c-.217,0-.435.024-.739.042A16.319,16.319,0,0,1,44.3,30.121m.856,12.43c0-1.842-.015-3.36.009-4.877.008-.454-.067-.662-.6-.647a25.243,25.243,0,0,1-12.539-2.865.463.463,0,0,0-.7.145,11.457,11.457,0,0,1-4.317,3.367.584.584,0,0,0-.375.649c.011,2.777-.024,5.555.023,8.332a8.11,8.11,0,0,0,5.15,7.2,14.206,14.206,0,0,0,5.531.528,8.052,8.052,0,0,0,7.68-6.71,46.363,46.363,0,0,0,.13-5.126M11.867,58.25c1.021.4,1.981.752,2.928,1.139,2.838,1.158,5.674,2.278,8.846,2,.551-.049.7-.174.692-.715-.023-1.655,0-1.633,1.671-1.657.52-.008.664.121.659.652-.027,3.036,0,6.072-.027,9.108-.005.562.162.685.7.683q8.583-.028,17.166,0c.585,0,.674-.2.67-.712-.023-2.662-.01-5.325-.01-7.987,0-1.784,0-1.784,1.791-1.735a1.044,1.044,0,0,0,.14,0c.309-.035.41.113.4.408-.014.49.008.981-.007,1.471-.009.313.076.475.429.463.933-.03,1.872.021,2.8-.061,3.292-.294,6.094-2.067,9.271-3.021a8.626,8.626,0,0,1-1.879-3.9c-.106-.58-.287-.516-.7-.331-1.4.626-2.807,1.26-4.243,1.807-.648.247-.776.492-.53,1.154.646,1.741.608,1.746-1.156,2.255-.382.111-.537.012-.64-.362-.161-.583-.394-1.146-.564-1.727a.514.514,0,0,0-.58-.447q-2.8.026-5.6,0c-.346,0-.478.089-.511.456-.1,1.162-.255,2.319-.386,3.479-.19,1.678-.378,3.356-.578,5.131l-5.563-4.158v3.741c0,1.84,0,1.828-1.829,1.772-.368-.012-.474-.112-.469-.477.018-1.471.012-2.942,0-4.414,0-.162.109-.37-.139-.518l-5.4,4.043c-.03-.182-.049-.269-.06-.358-.311-2.736-.632-5.471-.924-8.209-.042-.389-.169-.5-.549-.492-1.658.019-3.32.072-4.973-.018-.853-.047-1.156.279-1.381,1.024-.532,1.762-.562,1.744-2.292,1.1-.332-.124-.441-.243-.3-.6.217-.539.367-1.1.563-1.654.084-.234.079-.39-.182-.5-1.755-.744-3.505-1.5-5.307-2.268a9.215,9.215,0,0,1-.665,2.328,10.469,10.469,0,0,1-1.286,2.112M43.621,54.4c2.367,0,4.554-.005,6.741.006a2.117,2.117,0,0,0,.868-.218c1.987-.856,3.96-1.745,5.97-2.544a1.858,1.858,0,0,0,1.26-1.39,3.45,3.45,0,0,1,2.576-2.674c.293-.078.347-.213.347-.482q-.01-7.107,0-14.214c0-.354-.085-.489-.466-.486q-4.306.021-8.613,0c-.361,0-.4.1-.35.446a11.931,11.931,0,0,1-.791,6.509.792.792,0,0,0,.1.884,4.2,4.2,0,0,1,.818,2.9,4.561,4.561,0,0,1-4.151,4.286c-.32.04-.527.062-.593.482a10.527,10.527,0,0,1-3.723,6.5m-15.437,0a10.568,10.568,0,0,1-3.739-6.6c-.06-.4-.307-.334-.542-.366a4.581,4.581,0,0,1-3.384-7.169.636.636,0,0,0,.066-.692,9.707,9.707,0,0,1-.543-6.686c.088-.34.061-.492-.364-.489q-4.376.026-8.753,0c-.414,0-.506.141-.5.524.019,1.424.008,2.848.008,4.271,0,3.245,0,6.489.008,9.733,0,.215-.168.525.237.623A3.789,3.789,0,0,1,13.5,50.686a1.058,1.058,0,0,0,.7.776c2.146.9,4.278,1.827,6.417,2.742a1.807,1.807,0,0,0,.732.2c2.216-.009,4.432,0,6.838,0M42.857,28.068c.331.036.491-.157.678-.28a13.882,13.882,0,1,0-15.108.108c.39.256.49.243.547-.277A2.721,2.721,0,0,0,27.85,24.83a4.824,4.824,0,0,1-.6-.589A5.731,5.731,0,0,1,25.5,20.033q.009-4.764,0-9.529a3.315,3.315,0,0,1,1.856-3.138,3.284,3.284,0,0,1,3.574.236.474.474,0,0,0,.657.026,3.3,3.3,0,0,1,3.982-.017.479.479,0,0,0,.657.01,3.322,3.322,0,0,1,3.985-.007c.211.14.34.226.6.04a3.28,3.28,0,0,1,3.688-.26,3.418,3.418,0,0,1,1.818,3.3c-.023,2.452-.152,4.915.03,7.354a8.068,8.068,0,0,1-3.11,7.52c-.175.137-.379.288-.378.559v1.936M29.2,16.341a1.079,1.079,0,0,1,.723-.109c1.517-.008,3.034-.005,4.551,0a1.443,1.443,0,0,0,1.051-.291,1.056,1.056,0,0,0,.311-1.208A1.187,1.187,0,0,0,34.6,13.9q-2.661.01-5.322,0c-1.053,0-1.475.413-1.479,1.488-.005,1.494,0,2.988,0,4.482a3.753,3.753,0,0,0,1.173,2.821c.651.636,1.277,1.3,1.936,1.925a1.117,1.117,0,0,1,.386.913c-.025,1.073.013,2.148-.019,3.22a.621.621,0,0,0,.537.725,13.515,13.515,0,0,0,6.978.311c1.75-.39,1.883-.411,1.712-2.146a4.541,4.541,0,0,1,1.893-4.509,4.536,4.536,0,0,0,1.636-4.376c-.024-.3-.074-.417-.408-.332a3.162,3.162,0,0,1-2.779-.567c-.28-.209-.433-.107-.661.047a3.308,3.308,0,0,1-3.324.325c-.168-.072-.323-.192-.524-.077a3.953,3.953,0,0,1-2.247.367c-.5-.027-.661.052-.431.6a5.438,5.438,0,0,1,.1,3.9c-.155.48-.338.732-.866.386a9.177,9.177,0,0,0-1.122-.568c-.233-.111-.353-.2-.238-.522a3.446,3.446,0,0,0-.546-3.3c-.612-.871-1.186-1.77-1.783-2.665m4.9,16.061c-.021.246.188.243.316.3a22.567,22.567,0,0,0,7.4,1.932,49.207,49.207,0,0,0,5.106.107c.464-.006.615.139.6.6-.03.769.026,1.542-.017,2.31-.053.966.759.5,1.147.717s.506-.138.606-.436a9.82,9.82,0,0,0,.38-4.964.586.586,0,0,0-.687-.574c-4.947.018-9.895.011-14.848.011M5.8,40.025v6.653c0,.932,0,.927.868.831a3.113,3.113,0,0,1,.768-.02c.606.086.721-.182.718-.742-.023-4.2-.013-8.4-.013-12.606,0-1.761,0-1.741-1.73-1.748-.5,0-.627.143-.622.63.024,2.334.011,4.669.011,7m60.212.018V34.02c0-1.624,0-1.594-1.642-1.632-.61-.014-.716.2-.711.752.026,3.2.013,6.4.013,9.595,0,1.4.016,2.8-.009,4.2-.008.433.128.574.556.554a3.255,3.255,0,0,1,1.246.089c.572.213.554-.059.552-.463-.008-2.358,0-4.716,0-7.074M29.843,32.4c-2.43,0-4.683,0-6.936,0-.277,0-.357.183-.426.381a7.9,7.9,0,0,0-.034,5.27c.058.17.1.412.337.38a4.134,4.134,0,0,0,1.41-.3c.285-.156.072-.649.113-.989a.471.471,0,0,0,0-.14c-.1-.582.149-.84.713-1.027A9.339,9.339,0,0,0,29.843,32.4M6.977,53.871c0,.27-.009.524,0,.777A4.128,4.128,0,0,1,5.94,58.011c-.213.209-.138.482-.139.731,0,1.866,0,3.731,0,5.6,0,1.672,0,1.644,1.667,1.676.575.011.689-.176.685-.708-.023-3.335-.012-6.67-.012-10.006,0-1.087,0-1.087-1.163-1.429m57.857-.016c-1.164.405-1.164.405-1.164,1.478v8.954c0,1.746,0,1.73,1.754,1.722.449,0,.6-.111.6-.582-.023-2.285-.013-4.571-.006-6.856a.913.913,0,0,0-.255-.691,3.482,3.482,0,0,1-.925-2.491c0-.487,0-.975,0-1.534M44.019,12.7c0-.7.011-1.4,0-2.1a1.209,1.209,0,0,0-1.143-1.328,1.191,1.191,0,0,0-1.19,1.28q-.029,2.2,0,4.406a1.185,1.185,0,0,0,1.141,1.262,1.2,1.2,0,0,0,1.189-1.284c.02-.746,0-1.492,0-2.238m-4.63.032c0-.745.021-1.491-.006-2.235a1.167,1.167,0,1,0-2.329.016c-.023.534,0,1.07-.007,1.606a.673.673,0,0,0,.156.516,3.441,3.441,0,0,1,.916,3.217c-.076.387.126.386.393.312a1.146,1.146,0,0,0,.874-1.2c.018-.744,0-1.49,0-2.235M10.427,56.055l.155.036c.168-.328.355-.648.5-.985a5.26,5.26,0,0,0-.077-4.588,1.21,1.21,0,0,0-1.16-.746c-.677-.007-1.353,0-2.03,0-.9,0-1.021.183-.626.989A2.449,2.449,0,0,0,9.81,52.1c.488-.033.644.124.628.618-.036,1.111-.011,2.224-.011,3.336m50.956.121V53.184c0-1.031,0-1.031,1.06-1.077a2.356,2.356,0,0,0,2.34-1.834c.055-.331.027-.525-.395-.511-.815.027-1.633.006-2.449.01a1.173,1.173,0,0,0-1.052.58,5.394,5.394,0,0,0,.5,5.824M2.351,54.407c0,.6,0,1.208,0,1.812,0,.179-.049.382.158.5A1.559,1.559,0,0,0,4.647,55.5c.023-.673.011-1.348,0-2.021a1.484,1.484,0,0,0-2.118-1.357c-.239.106-.176.3-.179.472-.009.6,0,1.208,0,1.813m67.108.051c0-.627,0-1.255,0-1.883,0-.156.041-.333-.131-.441a1.558,1.558,0,0,0-2.158,1.085c-.036.6-.01,1.208-.01,1.812,0,1.361.393,1.73,1.743,1.716.413,0,.591-.107.567-.547-.031-.58-.008-1.162-.009-1.743M47.491,42.81c0,.628.016,1.258-.006,1.885-.013.384.117.489.492.407a2.324,2.324,0,0,0-.024-4.537c-.328-.068-.477-.006-.467.359.017.628,0,1.257,0,1.885m-23.173.006c0-.629-.006-1.258,0-1.886,0-.279-.048-.43-.391-.384a2.327,2.327,0,0,0-.036,4.57c.291.045.436-.014.428-.344-.015-.652,0-1.3,0-1.956m6.726,18.706c.7-.525,1.291-.971,1.886-1.406a.339.339,0,0,0,.114-.525c-.534-.871-1.064-1.745-1.582-2.626-.19-.323-.484-.251-.739-.2-.317.061-.158.347-.141.522.136,1.36.294,2.719.461,4.236m9.723,0c.17-1.539.325-2.9.462-4.262.018-.174.165-.459-.167-.5-.236-.032-.516-.116-.689.173q-.806,1.344-1.617,2.685a.306.306,0,0,0,.092.471c.609.448,1.211.906,1.919,1.437m-3.016-4.736H34.059c.422.708.785,1.353,1.183,1.976a.889.889,0,0,0,1.348-.037c.383-.608.74-1.232,1.161-1.939m-8.6-45.205c.975.034.975.034.979-.627C30.14,9.876,29.75,9.3,29,9.273c-.728-.024-1.2.546-1.2,1.473,0,.32-.132.859.071.918a3.681,3.681,0,0,0,1.288-.081m4.392.034c1.226-.017,1.226-.017,1.216-.864-.011-.93-.478-1.5-1.207-1.478-.773.025-1.131.617-1.143,1.757-.012,1.106.833.335,1.134.585" transform="translate(0 0)" fill="#030303"/>
        <path id="Trazado_657184" data-name="Trazado 657184" d="M30.44,32.993c-8.363,0-16.512,0-24.662.008-.42,0-.561-.106-.56-.543q.017-13.345,0-26.689c0-.4.075-.569.532-.568q12.119.022,24.239.013a2.615,2.615,0,0,1,.316.055c-4.951,3.339-7.7,7.9-7.7,13.83s2.767,10.5,7.832,13.894M13.914,9.841H18.6c1.691,0,1.663,0,1.695-1.707.01-.553-.171-.636-.667-.633-3.45.021-6.9.009-10.351.013-.555,0-1.3-.187-1.618.094-.381.333-.058,1.1-.131,1.665-.061.478.137.581.582.576,1.935-.022,3.87-.009,5.8-.009m-.08,13.893h4.758c1.7,0,1.676,0,1.7-1.7.008-.525-.129-.657-.654-.652-3.451.025-6.9.013-10.354.013-1.778,0-1.761,0-1.763,1.761,0,.451.106.6.576.589,1.912-.026,3.825-.011,5.737-.011m.077,4.629H18.6c1.692,0,1.667,0,1.693-1.707.009-.537-.148-.65-.661-.646-3.452.024-6.9.012-10.356.012-1.772,0-1.754,0-1.755,1.771,0,.462.126.586.583.581,1.936-.025,3.872-.011,5.808-.011m0-16.223H9.222c-1.7,0-1.665,0-1.706,1.68-.014.6.214.665.716.662,3.428-.018,6.855-.009,10.283-.009,1.789,0,1.773,0,1.775-1.763,0-.453-.114-.587-.576-.581-1.935.026-3.871.011-5.806.011m2.315,4.627H13.917c-1.781,0-1.757,0-1.77,1.752,0,.525.185.6.643.594,1.91-.023,3.82-.009,5.73-.009,1.813,0,1.8,0,1.77-1.834-.007-.388-.1-.521-.5-.512-1.187.026-2.375.009-3.563.009m-8.69,1.155c0,1.182,0,1.182,1.148,1.182,1.18,0,1.18,0,1.18-1.166s0-1.17-1.164-1.17-1.165,0-1.165,1.155" transform="translate(-2.883 -2.873)" fill="#e4e7ea"/>
        <path id="Trazado_657185" data-name="Trazado 657185" d="M99,32.989a16.319,16.319,0,0,0,.088-27.741c.3-.018.522-.042.739-.042q11.805,0,23.61-.015c.569,0,.742.124.741.721q-.031,13.2-.009,26.411c0,.41.01.681-.566.68-8.149-.02-16.3-.013-24.6-.013M114.912,7.51c-2.126,0-4.251.013-6.376-.01-.448,0-.585.1-.581.57q.035,4.063,0,8.127c0,.45.106.581.571.58q6.376-.028,12.752,0c.446,0,.586-.1.582-.568q-.036-4.063,0-8.127c0-.451-.105-.586-.571-.581-2.125.026-4.251.012-6.376.012m.537,13.882h4.758c1.651,0,1.628,0,1.655-1.654.008-.516-.111-.659-.644-.654-3.451.027-6.9.014-10.355.014-1.789,0-1.772,0-1.766,1.765,0,.437.119.545.546.54,1.936-.023,3.872-.01,5.807-.01m.013,4.627h4.757c1.64,0,1.612,0,1.645-1.666.011-.546-.157-.641-.661-.638-3.451.022-6.9.012-10.354.012-1.784,0-1.765,0-1.755,1.776,0,.458.158.529.561.525,1.936-.019,3.871-.009,5.806-.009m-.007,4.628h4.757c1.646,0,1.62,0,1.651-1.659.01-.533-.137-.648-.653-.644-3.451.025-6.9.013-10.353.013-1.789,0-1.77,0-1.762,1.767,0,.448.14.537.554.533,1.935-.021,3.871-.009,5.806-.009" transform="translate(-54.693 -2.868)" fill="#e2e5e9"/>
        <path id="Trazado_657186" data-name="Trazado 657186" d="M78.049,84.6a46.472,46.472,0,0,1-.13,5.126,8.052,8.052,0,0,1-7.68,6.71,14.2,14.2,0,0,1-5.531-.528,8.11,8.11,0,0,1-5.151-7.2c-.047-2.777-.012-5.555-.023-8.332a.584.584,0,0,1,.375-.649,11.455,11.455,0,0,0,4.317-3.367.463.463,0,0,1,.7-.145A25.24,25.24,0,0,0,77.463,79.08c.529-.015.6.193.6.647-.024,1.517-.009,3.034-.009,4.877m-9.265,9.555a3.3,3.3,0,0,0,3.247-1.844c.9-1.768-.913-4.631-2.329-4.986-2.475-.621-4.025,1.243-4.341,3.465-.291,2.046,1.228,3.365,3.424,3.365m5.65-10.385c.111-.228.319-.3.489-.418,1.549-1.05,1.55-1.049.422-2.54a.549.549,0,0,1-.043-.055c-.124-.221-.259-.274-.5-.114-1.52,1.027-3.05,2.04-4.617,3.085,1.185.792,2.306,1.542,3.428,2.29,1.508,1.006,1.49.993,2.493-.51.26-.389.166-.535-.176-.742-.515-.309-1-.664-1.5-1m-7.085,0a1.021,1.021,0,0,0-.136-.173c-1.083-.724-2.161-1.457-3.256-2.163-.479-.309-.977-.968-1.441-.819-.442.142-.667.894-1.037,1.337-.311.371-.144.52.178.73a8.234,8.234,0,0,1,1.514,1.08c-.193.133-.345.24-.5.343-1.562,1.049-1.554,1.043-.422,2.554.2.267.335.3.611.112,1.482-1.006,2.976-1.993,4.488-3" transform="translate(-32.891 -42.053)" fill="#c69d7a"/>
        <path id="Trazado_657187" data-name="Trazado 657187" d="M26.517,124.678a10.479,10.479,0,0,0,1.285-2.112,9.22,9.22,0,0,0,.665-2.328c1.8.771,3.553,1.524,5.307,2.268.262.111.266.267.182.5-.2.549-.345,1.115-.563,1.653-.145.358-.036.476.3.6,1.731.648,1.761.667,2.293-1.1.225-.745.527-1.071,1.381-1.024,1.653.091,3.315.038,4.973.018.38,0,.508.1.55.492.292,2.738.612,5.473.924,8.209.01.089.029.176.06.358l5.4-4.043c.247.148.137.355.139.518.01,1.471.017,2.942,0,4.414,0,.365.1.465.47.476,1.83.056,1.829.068,1.829-1.772v-3.741l5.563,4.158c.2-1.775.388-3.454.578-5.131.131-1.16.282-2.317.386-3.479.033-.367.165-.459.511-.456q2.8.021,5.605,0a.514.514,0,0,1,.58.447c.17.581.4,1.144.564,1.727.1.375.258.473.64.363,1.763-.509,1.8-.513,1.155-2.255-.245-.661-.118-.907.53-1.154,1.435-.547,2.838-1.181,4.242-1.807.414-.184.6-.249.7.332a8.635,8.635,0,0,0,1.879,3.9c-3.176.954-5.979,2.727-9.27,3.021-.928.083-1.867.031-2.8.061-.353.012-.439-.15-.43-.463.014-.49-.007-.981.007-1.471.008-.295-.092-.443-.4-.408a.975.975,0,0,1-.14,0c-1.791-.049-1.791-.049-1.791,1.735,0,2.662-.012,5.325.011,7.987,0,.515-.085.714-.67.711q-8.583-.037-17.166,0c-.536,0-.7-.121-.7-.683.029-3.036,0-6.072.027-9.108,0-.531-.14-.66-.659-.652-1.672.024-1.694,0-1.671,1.657.008.541-.141.666-.692.715-3.172.282-6.008-.837-8.846-2-.948-.387-1.907-.743-2.928-1.138" transform="translate(-14.65 -66.428)" fill="#7fafea"/>
        <path id="Trazado_657188" data-name="Trazado 657188" d="M70.017,30.957V29.021a.73.73,0,0,1,.378-.559,8.068,8.068,0,0,0,3.11-7.52c-.182-2.439-.053-4.9-.03-7.354a3.418,3.418,0,0,0-1.818-3.3,3.279,3.279,0,0,0-3.688.26c-.258.185-.386.1-.6-.04a3.322,3.322,0,0,0-3.985.007.479.479,0,0,1-.657-.01,3.3,3.3,0,0,0-3.982.017.473.473,0,0,1-.657-.026,3.45,3.45,0,0,0-5.431,2.9q0,4.765,0,9.529a5.735,5.735,0,0,0,1.752,4.208,4.855,4.855,0,0,0,.6.589,2.721,2.721,0,0,1,1.125,2.789c-.058.52-.157.533-.547.277a13.887,13.887,0,1,1,15.108-.108c-.186.123-.347.315-.678.28" transform="translate(-27.16 -2.89)" fill="#f7e5ac"/>
        <path id="Trazado_657189" data-name="Trazado 657189" d="M63.5,33.5c.6.9,1.17,1.794,1.783,2.665a3.445,3.445,0,0,1,.546,3.3c-.114.318.005.411.239.522a9.272,9.272,0,0,1,1.122.567c.527.346.71.094.866-.385a5.44,5.44,0,0,0-.1-3.9c-.23-.546-.071-.626.431-.6a3.953,3.953,0,0,0,2.247-.368c.2-.115.355.006.524.077a3.309,3.309,0,0,0,3.324-.324c.228-.154.381-.256.661-.048a3.164,3.164,0,0,0,2.779.568c.333-.085.384.03.407.331A4.537,4.537,0,0,1,76.7,40.288,4.542,4.542,0,0,0,74.8,44.8c.171,1.736.038,1.756-1.712,2.147a13.515,13.515,0,0,1-6.978-.312.62.62,0,0,1-.537-.724c.032-1.073-.006-2.148.019-3.22a1.118,1.118,0,0,0-.386-.913c-.66-.627-1.286-1.289-1.937-1.926A3.753,3.753,0,0,1,62.1,37.027c.008-1.493,0-2.987,0-4.481,0-1.075.425-1.488,1.479-1.488q2.66,0,5.321,0a1.187,1.187,0,0,1,1.238.831,1.058,1.058,0,0,1-.311,1.209,1.441,1.441,0,0,1-1.051.291c-1.517,0-3.034,0-4.551,0a1.076,1.076,0,0,0-.723.108" transform="translate(-34.308 -17.157)" fill="#c59d7a"/>
        <path id="Trazado_657190" data-name="Trazado 657190" d="M76.176,72.388c4.953,0,9.9.007,14.848-.011a.586.586,0,0,1,.687.574,9.821,9.821,0,0,1-.38,4.964c-.1.3-.212.656-.606.435s-1.2.249-1.147-.717c.043-.768-.013-1.54.017-2.309.017-.457-.134-.6-.6-.6a49.206,49.206,0,0,1-5.106-.107,22.566,22.566,0,0,1-7.4-1.932c-.128-.058-.337-.055-.316-.3" transform="translate(-42.084 -39.986)" fill="#636a74"/>
        <path id="Trazado_657191" data-name="Trazado 657191" d="M12.943,80.012c0-2.334.013-4.669-.011-7,0-.487.126-.631.622-.63,1.73.007,1.73-.013,1.73,1.748,0,4.2-.01,8.4.013,12.606,0,.561-.111.828-.718.743a3.114,3.114,0,0,0-.768.02c-.868.1-.868.1-.868-.83V80.012" transform="translate(-7.144 -39.987)" fill="#a5abb5"/>
        <path id="Trazado_657192" data-name="Trazado 657192" d="M144.6,80.025c0,2.358,0,4.716,0,7.074,0,.4.02.675-.552.463a3.239,3.239,0,0,0-1.247-.089c-.428.02-.563-.12-.555-.554.025-1.4.009-2.8.009-4.2,0-3.2.013-6.4-.013-9.595,0-.556.1-.767.711-.753,1.642.038,1.642.008,1.642,1.632v6.023" transform="translate(-78.585 -39.982)" fill="#a5abb5"/>
        <path id="Trazado_657193" data-name="Trazado 657193" d="M57.014,72.4a9.34,9.34,0,0,1-4.824,3.569c-.565.187-.818.445-.713,1.027a.468.468,0,0,1,0,.139c-.041.34.172.833-.113.989a4.134,4.134,0,0,1-1.41.3c-.236.032-.279-.209-.337-.38a7.9,7.9,0,0,1,.034-5.27c.069-.2.149-.382.426-.381,2.253.006,4.506,0,6.936,0" transform="translate(-27.172 -39.998)" fill="#636a74"/>
        <path id="Trazado_657194" data-name="Trazado 657194" d="M14.123,120.376c1.163.341,1.163.341,1.163,1.429,0,3.335-.012,6.67.011,10.005,0,.533-.111.72-.685.709-1.667-.031-1.668,0-1.668-1.676,0-1.866,0-3.732,0-5.6,0-.249-.074-.523.139-.731a4.124,4.124,0,0,0,1.038-3.362c-.01-.253,0-.506,0-.776" transform="translate(-7.146 -66.504)" fill="#a5abb5"/>
        <path id="Trazado_657195" data-name="Trazado 657195" d="M143.433,120.341c0,.559,0,1.046,0,1.534a3.48,3.48,0,0,0,.925,2.491.915.915,0,0,1,.255.691c-.007,2.285-.017,4.571.007,6.856,0,.471-.149.58-.6.582-1.754.008-1.754.024-1.754-1.722v-8.954c0-1.073,0-1.073,1.164-1.478" transform="translate(-78.6 -66.485)" fill="#a5abb5"/>
        <path id="Trazado_657196" data-name="Trazado 657196" d="M95.456,24.145c0,.746.016,1.493,0,2.238a1.2,1.2,0,0,1-1.189,1.284,1.185,1.185,0,0,1-1.141-1.262q-.034-2.2,0-4.406a1.19,1.19,0,0,1,1.19-1.28,1.208,1.208,0,0,1,1.143,1.328c.014.7,0,1.4,0,2.1" transform="translate(-51.438 -11.447)" fill="#bf9877"/>
        <path id="Trazado_657197" data-name="Trazado 657197" d="M85.117,24.177c0,.745.014,1.49,0,2.235a1.146,1.146,0,0,1-.874,1.2c-.267.074-.469.075-.393-.312a3.442,3.442,0,0,0-.916-3.217.671.671,0,0,1-.156-.516c0-.535-.016-1.071.007-1.606a1.167,1.167,0,1,1,2.329-.016c.026.744.006,1.49.006,2.235" transform="translate(-45.728 -11.446)" fill="#bf9877"/>
        <path id="Trazado_657198" data-name="Trazado 657198" d="M19.039,117.493c0-1.112-.025-2.225.011-3.336.016-.495-.14-.652-.628-.618A2.449,2.449,0,0,1,15.8,112.2c-.4-.806-.272-.989.625-.989.677,0,1.353,0,2.03,0a1.211,1.211,0,0,1,1.16.746,5.26,5.26,0,0,1,.077,4.588c-.146.337-.333.657-.5.985l-.154-.036" transform="translate(-8.612 -61.438)" fill="#bf9877"/>
        <path id="Trazado_657199" data-name="Trazado 657199" d="M135.764,117.606a5.393,5.393,0,0,1-.5-5.823,1.176,1.176,0,0,1,1.053-.58c.816,0,1.634.017,2.449-.01.422-.014.45.18.395.511a2.356,2.356,0,0,1-2.34,1.834c-1.06.046-1.06.046-1.06,1.078v2.991" transform="translate(-74.381 -61.43)" fill="#bf9877"/>
        <path id="Trazado_657200" data-name="Trazado 657200" d="M5.249,118.581c0-.6-.005-1.209,0-1.812,0-.171-.06-.367.179-.472a1.484,1.484,0,0,1,2.118,1.357c.007.674.019,1.348,0,2.022a1.56,1.56,0,0,1-2.136,1.215c-.207-.115-.157-.319-.158-.5-.005-.6,0-1.209,0-1.813" transform="translate(-2.898 -64.174)" fill="#c59d7a"/>
        <path id="Trazado_657201" data-name="Trazado 657201" d="M152.354,118.627c0,.581-.022,1.164.009,1.743.023.44-.155.543-.567.547-1.35.013-1.743-.355-1.743-1.716,0-.6-.026-1.211.01-1.812a1.559,1.559,0,0,1,2.158-1.085c.172.108.13.285.131.441.005.627,0,1.255,0,1.883" transform="translate(-82.894 -64.169)" fill="#c59d7a"/>
        <path id="Trazado_657202" data-name="Trazado 657202" d="M106.111,92.859c0-.628.013-1.258,0-1.885-.01-.365.138-.426.466-.359a2.324,2.324,0,0,1,.024,4.537c-.374.082-.5-.023-.491-.407.021-.628.006-1.257.006-1.885" transform="translate(-58.62 -50.049)" fill="#c59d7a"/>
        <path id="Trazado_657203" data-name="Trazado 657203" d="M51.508,92.86c0,.652-.011,1.3,0,1.956.008.33-.137.389-.428.344a2.327,2.327,0,0,1,.036-4.569c.343-.047.395.1.39.384-.008.628,0,1.257,0,1.886" transform="translate(-27.19 -50.044)" fill="#c59d7a"/>
        <path id="Trazado_657204" data-name="Trazado 657204" d="M68.729,131.544c-.168-1.517-.325-2.875-.462-4.236-.017-.174-.176-.46.141-.521.256-.049.55-.122.74.2.518.881,1.048,1.754,1.581,2.626a.339.339,0,0,1-.114.525c-.6.435-1.183.88-1.886,1.406" transform="translate(-37.685 -70.022)" fill="#6797df"/>
        <path id="Trazado_657205" data-name="Trazado 657205" d="M88.522,131.546c-.708-.531-1.309-.989-1.919-1.437a.306.306,0,0,1-.092-.471q.813-1.339,1.617-2.684c.173-.289.453-.2.689-.173.332.045.185.329.167.5-.138,1.363-.293,2.724-.463,4.262" transform="translate(-47.755 -70.023)" fill="#6797df"/>
        <path id="Trazado_657206" data-name="Trazado 657206" d="M79.8,126.89c-.422.707-.779,1.331-1.161,1.939a.889.889,0,0,1-1.348.037c-.4-.623-.761-1.268-1.183-1.976Z" transform="translate(-42.046 -70.103)" fill="#c59d7a"/>
        <path id="Trazado_657207" data-name="Trazado 657207" d="M63.416,23.029a3.682,3.682,0,0,1-1.288.081c-.2-.059-.071-.6-.072-.918,0-.926.472-1.5,1.2-1.472.754.025,1.145.6,1.138,1.682,0,.66,0,.66-.979.627" transform="translate(-34.262 -11.447)" fill="#bf9877"/>
        <path id="Trazado_657208" data-name="Trazado 657208" d="M73.558,23.062c-.3-.251-1.146.521-1.134-.585.013-1.14.37-1.732,1.143-1.757.729-.024,1.2.548,1.207,1.478.01.847.01.847-1.216.864" transform="translate(-40.012 -11.447)" fill="#bf9877"/>
        <path id="Trazado_657209" data-name="Trazado 657209" d="M16.693,12.623c-1.935,0-3.87-.013-5.8.009-.445,0-.643-.1-.582-.576.073-.57-.25-1.333.131-1.665.322-.281,1.063-.094,1.618-.095,3.45,0,6.9.009,10.351-.013.5,0,.678.08.667.633-.031,1.706,0,1.706-1.695,1.706H16.693" transform="translate(-5.662 -5.655)" fill="#070707"/>
        <path id="Trazado_657210" data-name="Trazado 657210" d="M16.679,43.71c-1.912,0-3.825-.016-5.737.011-.47.006-.576-.139-.576-.59,0-1.761-.014-1.761,1.763-1.761,3.452,0,6.9.013,10.355-.013.524,0,.661.128.653.652-.026,1.7,0,1.7-1.7,1.7H16.679" transform="translate(-5.727 -22.849)" fill="#070707"/>
        <path id="Trazado_657211" data-name="Trazado 657211" d="M16.756,54.054c-1.936,0-3.872-.014-5.808.01-.457.006-.584-.119-.583-.58,0-1.77-.017-1.77,1.755-1.77,3.452,0,6.9.011,10.356-.012.513,0,.67.109.661.646-.026,1.706,0,1.707-1.693,1.707H16.756" transform="translate(-5.726 -28.563)" fill="#070707"/>
        <path id="Trazado_657212" data-name="Trazado 657212" d="M16.745,20.693c1.935,0,3.871.015,5.806-.011.463-.006.577.128.576.581,0,1.763.014,1.763-1.775,1.763-3.428,0-6.855-.009-10.283.009-.5,0-.731-.061-.716-.663.04-1.679.008-1.68,1.706-1.68h4.687" transform="translate(-5.719 -11.426)" fill="#070707"/>
        <path id="Trazado_657213" data-name="Trazado 657213" d="M24.778,31.035c1.188,0,2.376.017,3.563-.009.406-.009.5.124.5.512.031,1.834.044,1.834-1.77,1.834-1.91,0-3.82-.013-5.73.01-.458.005-.647-.07-.643-.595.013-1.752-.011-1.752,1.77-1.752h2.306" transform="translate(-11.437 -17.141)" fill="#070707"/>
        <path id="Trazado_657214" data-name="Trazado 657214" d="M10.392,32.2c0-1.155,0-1.155,1.165-1.155s1.164,0,1.164,1.17,0,1.166-1.18,1.166c-1.148,0-1.148,0-1.148-1.182" transform="translate(-5.741 -17.153)" fill="#070707"/>
        <path id="Trazado_657215" data-name="Trazado 657215" d="M125.971,10.357c2.125,0,4.251.015,6.376-.011.465-.006.575.13.571.58q-.032,4.063,0,8.127c0,.469-.136.57-.582.568q-6.377-.025-12.753,0c-.465,0-.574-.129-.571-.58q.031-4.063,0-8.127c0-.467.133-.575.582-.57,2.125.023,4.251.01,6.376.01m-.038,6.958c1.377,0,2.755-.012,4.132.007.4.005.529-.124.523-.521q-.03-1.821,0-3.642c.005-.367-.12-.483-.484-.482q-4.132.017-8.264,0c-.388,0-.535.112-.528.516.021,1.19.023,2.381,0,3.571-.009.431.132.566.56.559,1.354-.022,2.708-.009,4.062-.009" transform="translate(-65.751 -5.716)" fill="#030303"/>
        <path id="Trazado_657216" data-name="Trazado 657216" d="M127.916,38.54c-1.936,0-3.872-.013-5.807.01-.426,0-.544-.1-.546-.54-.006-1.765-.023-1.765,1.766-1.765,3.452,0,6.9.013,10.355-.014.533,0,.653.139.644.654-.027,1.654,0,1.654-1.655,1.654h-4.758" transform="translate(-67.16 -20.017)"/>
        <path id="Trazado_657217" data-name="Trazado 657217" d="M127.927,48.887c-1.936,0-3.871-.01-5.806.008-.4,0-.559-.067-.561-.524-.009-1.776-.029-1.776,1.755-1.776,3.451,0,6.9.011,10.354-.012.5,0,.671.091.66.638-.033,1.666,0,1.666-1.645,1.666h-4.757" transform="translate(-67.158 -25.736)"/>
        <path id="Trazado_657218" data-name="Trazado 657218" d="M127.92,59.229c-1.935,0-3.871-.012-5.806.009-.414,0-.552-.085-.554-.533-.008-1.767-.027-1.767,1.762-1.767,3.451,0,6.9.012,10.353-.013.516,0,.663.111.653.644-.031,1.659,0,1.659-1.651,1.659H127.92" transform="translate(-67.158 -31.45)"/>
        <path id="Trazado_657219" data-name="Trazado 657219" d="M75.935,107.85c-2.2,0-3.714-1.319-3.423-3.365.316-2.222,1.866-4.085,4.341-3.465,1.417.355,3.225,3.218,2.329,4.986a3.3,3.3,0,0,1-3.247,1.844m-.066-2.335c.908,0,1.232-.208,1.218-.748-.017-.6-.686-1.5-1.125-1.51-.471-.01-1.184.921-1.151,1.546.038.735.581.73,1.058.712" transform="translate(-40.041 -55.744)" fill="#030303"/>
        <path id="Trazado_657220" data-name="Trazado 657220" d="M87.591,89.25c.5.334.985.688,1.5,1,.343.206.436.352.176.742-1,1.5-.986,1.515-2.494.51-1.122-.749-2.243-1.5-3.428-2.291,1.568-1.045,3.1-2.058,4.617-3.085.237-.16.372-.107.5.113a.457.457,0,0,0,.043.055c1.128,1.491,1.127,1.49-.422,2.54-.17.115-.378.191-.489.418" transform="translate(-46.046 -47.529)" fill="#030303"/>
        <path id="Trazado_657221" data-name="Trazado 657221" d="M69.549,89.3c-1.511,1.007-3.006,1.994-4.488,3-.277.188-.411.155-.611-.112-1.133-1.511-1.14-1.505.422-2.554.154-.1.306-.21.5-.343a8.235,8.235,0,0,0-1.514-1.08c-.322-.21-.489-.358-.178-.73.37-.443.6-1.195,1.037-1.337.464-.149.962.51,1.441.819,1.095.707,2.172,1.439,3.256,2.163a1.021,1.021,0,0,1,.136.173" transform="translate(-35.09 -47.581)" fill="#030303"/>
        <path id="Trazado_657222" data-name="Trazado 657222" d="M128.769,20.194c-1.354,0-2.708-.014-4.062.009-.428.007-.569-.128-.56-.559.024-1.19.022-2.381,0-3.571-.008-.4.139-.518.528-.516q4.132.018,8.264,0c.364,0,.489.115.484.482q-.026,1.821,0,3.642c.007.4-.127.527-.523.521-1.377-.019-2.755-.007-4.132-.007" transform="translate(-68.587 -8.594)" fill="#ea8571"/>
        <path id="Trazado_657223" data-name="Trazado 657223" d="M78.75,108.426c-.477.018-1.019.023-1.058-.712-.033-.625.68-1.556,1.151-1.546.439.009,1.108.907,1.125,1.51.015.54-.309.749-1.218.748" transform="translate(-42.922 -58.655)" fill="#ea8571"/>
      </g>
    </g>
  </g>
</svg>
