<svg xmlns="http://www.w3.org/2000/svg" xmlns:xlink="http://www.w3.org/1999/xlink" width="85" height="85" viewBox="0 0 85 85">
  <defs>
    <clipPath id="clip-path">
      <rect id="Rect치ngulo_312800" data-name="Rect치ngulo 312800" width="76.091" height="76.149" transform="translate(0 0)" fill="none"/>
    </clipPath>
  </defs>
  <g id="Grupo_995845" data-name="Grupo 995845" transform="translate(-1335 -6589)">
    <rect id="Rect치ngulo_309092" data-name="Rect치ngulo 309092" width="85" height="85" transform="translate(1335 6589)" fill="none"/>
    <g id="Grupo_995882" data-name="Grupo 995882" transform="translate(1339.454 6593.425)">
      <g id="Grupo_995881" data-name="Grupo 995881" clip-path="url(#clip-path)">
        <path id="Trazado_657153" data-name="Trazado 657153" d="M2.189,42.911c-.823-.663-.9-1.051-.366-1.971A6.845,6.845,0,0,1,6.34,37.65c3-.726,6-1.443,9.013-2.117.6-.134.771-.391.859-.976.253-1.7.265-3.141-1.371-4.389A10.766,10.766,0,0,1,11.7,25.42a.922.922,0,0,0-.882-.7A4.33,4.33,0,0,1,6.982,19.34a2.832,2.832,0,0,1,2.268-2.4c.546-.116.51-.369.4-.774a15.5,15.5,0,0,1-.431-7.036,6.555,6.555,0,0,1,2.554-4.194,1.068,1.068,0,0,0,.42-.46C13.324,1.573,15.719.514,18.565.147a22.281,22.281,0,0,1,7.461.518,1.231,1.231,0,0,1,1.08,1.5c-.437.842-1.156.806-1.933.637a18.1,18.1,0,0,0-6.5-.4c-2.068.3-3.9.981-4.5,3.319a1.2,1.2,0,0,1-.6.72,4.639,4.639,0,0,0-2.22,3.529,11.048,11.048,0,0,0,.011,3.273,7.841,7.841,0,0,0,.677,2.764,3.951,3.951,0,0,0,1.551-2.425c.179-1.021.3-2.052.446-3.079a1.141,1.141,0,0,1,1.495-1.1,33.057,33.057,0,0,0,13.72.016,1.3,1.3,0,0,1,1.72,1.23c.066.555.138,1.11.192,1.666a5.174,5.174,0,0,0,1.167,3.163c.175.19.333.521.6.474.284-.051.26-.424.307-.666a23.232,23.232,0,0,0,.433-2.6c.225-2.933-.332-5.589-2.9-7.439a1.4,1.4,0,0,1-.534-1.683c.917-.681,1.185-.681,2.1.04,3.081,2.422,3.88,5.714,3.568,9.42a17.9,17.9,0,0,1-.6,3.3c-.1.355-.094.512.316.59a2.936,2.936,0,0,1,2.344,2.259,1.468,1.468,0,0,0,.477-1.279,33.035,33.035,0,0,1,1.532-9.828,12.251,12.251,0,0,1,3.969-6.059A8.378,8.378,0,0,1,53.222.943a.674.674,0,0,0,.728.03C57.3-.936,62.205.033,64.99,3.714a18.892,18.892,0,0,1,3.3,8.546c.318,1.895.286,3.834.548,5.723a12.685,12.685,0,0,0,1.507,5.442,18.777,18.777,0,0,1,2.952,7.1,14.415,14.415,0,0,1-.711,7.39A1.015,1.015,0,0,0,72.91,39.3c1.767,1.47,2.248,3.524,2.434,5.709.2,2.336.477,4.666.73,7,.094.858-.2,1.406-.879,1.549-.627.133-1.077-.22-1.342-1.051-.3-2.807-.6-5.612-.893-8.42A4.644,4.644,0,0,0,69.3,39.858c-2.094-.509-4.2-.967-6.286-1.514-.63-.166-.873-.032-1.117.559a18.47,18.47,0,0,1-7.344,8.917,1.547,1.547,0,0,1-1.847.016,18.609,18.609,0,0,1-3.022-2.351A19.967,19.967,0,0,1,45.259,38.8c-.115-.276-.131-.668-.611-.552-1.4.341-2.81.676-4.215,1.014a.608.608,0,0,0,.42.264c4.77.948,7.091,4.208,6.537,9.081-.151,1.33-.591,2.585-.8,3.894a11.562,11.562,0,0,1-3.778,8.431c-.629.567-.141,1.3-.136,1.957.005.523.523.376.8.448,1.8.466,3.618.882,5.429,1.316A4.976,4.976,0,0,1,52.963,69.2c.2,1.747.39,3.5.585,5.243.006.053.009.106.013.159.067.893-.234,1.446-.905,1.534-.783.1-1.17-.363-1.342-1.065-.2-1.907-.383-3.815-.6-5.72a2.658,2.658,0,0,0-2.163-2.458c-1.858-.463-3.726-.891-5.583-1.36-.343-.087-.464.014-.591.307a4.684,4.684,0,0,1-8.671,0c-.128-.292-.248-.392-.591-.306-1.883.475-3.778.9-5.661,1.378a2.509,2.509,0,0,0-2.03,2.124c-.283,2-.439,4.023-.648,6.035-.176.7-.56,1.168-1.341,1.067-.669-.085-.994-.639-.9-1.526.2-1.959.383-3.919.646-5.869a4.974,4.974,0,0,1,3.9-4.065q2.826-.683,5.66-1.331a.821.821,0,0,0,.755-.8,2.163,2.163,0,0,0-.725-2.153,11.177,11.177,0,0,1-3.267-7.9c-.25-1.381-.708-2.717-.827-4.131-.3-3.6,1.008-6.968,4.731-8.342.489-.181.746-.614,1.144-1.027-.88-.211-1.663-.356-2.416-.594-.495-.156-.7.009-.913.426-1.232,2.39-2.487,4.766-3.737,7.146-.711,1.354-1.537,1.4-2.435.173a11.149,11.149,0,0,0-1.406-1.851v8.19c-.162.646-.51,1.128-1.233,1.082a1.113,1.113,0,0,1-1.061-1.076V44.1c-.572.812-1.012,1.44-1.457,2.065-.855,1.2-1.7,1.15-2.387-.148-1.254-2.377-2.519-4.749-3.741-7.142a.722.722,0,0,0-.978-.465c-2.012.506-4.036.965-6.052,1.46A4.46,4.46,0,0,0,3.751,42.1a1.371,1.371,0,0,1-1.562.812m32.647-11.23a1.235,1.235,0,0,1,1.122,1.4,13.06,13.06,0,0,0,.811,4.214c.106.3.2.484.617.381,3.125-.77,6.258-1.508,9.392-2.243a.6.6,0,0,0,.549-.647c.038-.851.1-1.7.184-2.548a.945.945,0,0,0-.385-.889,15.226,15.226,0,0,1-4.342-6.039.705.705,0,0,0-.679-.546,4.09,4.09,0,0,1-2.362-.87c-.354-.287-.528-.178-.716.189-.558,1.09-1.172,2.152-1.71,3.252a1.431,1.431,0,0,1-1.627.974c-.815-.751-.869-.991-.381-2,.365-.753.757-1.493,1.219-2.4a6.106,6.106,0,0,1-2.356.814.858.858,0,0,0-.916.662,10.473,10.473,0,0,1-2.9,4.529,4.247,4.247,0,0,0-1.59,4.775.5.5,0,0,1,.009.159c-.025.356.139.5.493.572,1.3.283,2.586.617,3.881.914.321.073.638.293,1,.108A17.954,17.954,0,0,1,33.7,33.12c-.021-.829.289-1.326,1.133-1.439m8.928-12.154c.42,5.333,2.734,9.3,7.344,11.85a4.866,4.866,0,0,0,5.013,0c4.67-2.576,6.963-6.621,7.36-11.853a.959.959,0,0,0-.418-.937A5.143,5.143,0,0,1,61.35,16.23a1.18,1.18,0,0,0-.871-.8A20.456,20.456,0,0,1,54.2,12.191a.784.784,0,0,0-1.152-.017,20.015,20.015,0,0,1-6.2,3.214,1.393,1.393,0,0,0-1.017.964,4.781,4.781,0,0,1-1.522,2.117c-.408.33-.675.666-.546,1.058M32.327,19.41c.165-.487-.13-.942-.615-1.354a7.468,7.468,0,0,1-2.785-5.625c-.021-.606-.288-.586-.764-.511a37.014,37.014,0,0,1-10.283.16c-.555-.067-1.24-.382-1.625-.163-.408.233-.258,1.016-.335,1.563-.008.052-.025.1-.033.156a7.778,7.778,0,0,1-2.82,4.6,1.191,1.191,0,0,0-.458,1.031c.326,5.407,2.654,9.572,7.506,12.184a4.729,4.729,0,0,0,4.736,0c4.719-2.551,7.093-6.581,7.476-12.044M49.773,2.253a6.84,6.84,0,0,0-5.89,3c-2.3,3.335-2.809,7.187-3.116,11.089-.013.175-.037.354.208.455a1.821,1.821,0,0,0,2.6-.943,2.98,2.98,0,0,0,.374-.879,1.8,1.8,0,0,1,1.512-1.527,19.253,19.253,0,0,0,7.037-3.674c1.006-.814,1.275-.81,2.278.012a18.716,18.716,0,0,0,6.88,3.629,2.114,2.114,0,0,1,1.664,1.587c.5,1.7.928,1.914,2.642,1.825.5-.026.519-.193.491-.625a33.454,33.454,0,0,0-.39-3.491,18.452,18.452,0,0,0-2.7-7.45c-2.128-3.13-6.674-3.949-9.044-1.852a1.09,1.09,0,0,1-1.527-.082,5.148,5.148,0,0,0-3.019-1.079m-18,50.6a8.993,8.993,0,0,0,4.818,7.653,2.863,2.863,0,0,0,2.894.009,8.9,8.9,0,0,0,4.81-7.434,1.268,1.268,0,0,0-.449-1.191A4.966,4.966,0,0,1,42.1,48.672c-.058-.488-.266-.617-.739-.554a24.859,24.859,0,0,1-6.613,0c-.457-.06-.7.031-.754.534A5.126,5.126,0,0,1,32.2,51.943c-.325.289-.516.6-.426.914m39.458-20a17.254,17.254,0,0,0-.128-1.909c-.418-2.559-1.76-4.717-2.95-6.944-.205-.386-.393-.323-.674-.1a4.152,4.152,0,0,1-2.364.862.647.647,0,0,0-.643.468,15.108,15.108,0,0,1-4.489,6.21.787.787,0,0,0-.306.766c.1.845.221,1.691.251,2.539.017.488.244.619.652.714,3.054.717,6.107,1.437,9.152,2.193.47.117.593-.031.73-.423a12.138,12.138,0,0,0,.769-4.377m-11.269,4.9c-.153-.251-.46-.236-.715-.3-1.248-.3-1.428-.513-1.509-1.772-.041-.638-.142-1.275-.148-1.913-.006-.584-.222-.512-.613-.309a6.851,6.851,0,0,1-6.729-.015c-.495-.264-.576-.084-.609.354-.062.823-.143,1.646-.216,2.469a1.084,1.084,0,0,1-.848,1.033c-.281.08-.566.151-.853.208-.341.069-.506.176-.33.578a17.245,17.245,0,0,0,5.72,7.35.763.763,0,0,0,1.044-.038,16.915,16.915,0,0,0,5.661-7.293c.042-.1.081-.2.145-.354M44.925,49.665a9.5,9.5,0,0,0,.293-2.591c-.095-2.815-1.419-4.531-4.095-5.187a13.03,13.03,0,0,0-6.334.039c-3.779.944-4.468,4.652-3.566,7.659a2.049,2.049,0,0,0,.576-1.434,2.6,2.6,0,0,1,3.024-2.276,24.7,24.7,0,0,0,6.382.015,2.6,2.6,0,0,1,3.1,2.363,2.117,2.117,0,0,0,.62,1.412M26.539,34.941c-.023-.375-.032-.614-.054-.853-.078-.881-.077-.876-.866-.5a7.185,7.185,0,0,1-5.584.31c-.495-.166-1.081-.79-1.4-.517s-.155,1.045-.249,1.591a1.122,1.122,0,0,0,.5,1.213c1.08.82,2.124,1.689,3.157,2.569a.547.547,0,0,0,.863,0c.949-.815,1.914-1.612,2.908-2.371.546-.417.977-.827.72-1.447M40.465,63.8a2.263,2.263,0,0,1-.014-.318c.054-.661-.1-.9-.83-.6a4.535,4.535,0,0,1-3.048.045c-.885-.27-.885-.269-.934.691l-.009.159a2.433,2.433,0,1,0,4.835.027M18.846,43.742c.693-.978,1.3-1.84,1.915-2.7.117-.164.194-.3-.013-.469-1.24-1-2.459-2.027-3.715-3.007-.358-.28-.817-.025-1.116.155-.339.2.048.507.16.734.446.9.924,1.791,1.393,2.682.439.836.882,1.67,1.376,2.6m7.267.012c1.013-1.929,1.979-3.762,2.935-5.6.073-.14.272-.384-.017-.453-.406-.1-.807-.421-1.266-.033-1.116.946-2.261,1.859-3.4,2.784-.191.157-.381.29-.172.582.632.88,1.249,1.77,1.916,2.72M41.86,22.4c-.1-.873-.186-1.735-.3-2.594-.036-.271.18-.7-.34-.742a.827.827,0,0,0-.9.632,2.118,2.118,0,0,0,1.54,2.7m-6.022-2.1a1.372,1.372,0,0,0-.275-.969.8.8,0,0,0-.8-.25c-.319.08-.2.385-.232.6-.1.76-.188,1.522-.278,2.283-.017.145-.131.333.048.419.09.043.252-.031.37-.081a2.1,2.1,0,0,0,1.163-2.006m29.546,2.081a2.1,2.1,0,0,0,1.455-2.857.848.848,0,0,0-.778-.465c-.232-.008-.331.089-.355.319-.1,1-.213,1.992-.322,3m-54.667.006c-.1-.907-.2-1.8-.314-2.686-.031-.228.126-.585-.289-.631a.814.814,0,0,0-.858.455,2.1,2.1,0,0,0,1.461,2.862" fill="#040303"/>
        <path id="Trazado_657154" data-name="Trazado 657154" d="M46.587,52.505c.212-1.309.652-2.564.8-3.894.553-4.873-1.767-8.133-6.538-9.081a.611.611,0,0,1-.419-.265q2.108-.505,4.214-1.013c.481-.116.5.276.612.552a19.974,19.974,0,0,0,4.426,6.682,18.66,18.66,0,0,0,3.023,2.351,1.547,1.547,0,0,0,1.847-.016A18.475,18.475,0,0,0,61.9,38.9c.244-.591.487-.725,1.117-.559,2.084.547,4.191,1,6.285,1.514a4.643,4.643,0,0,1,3.658,4.223c.291,2.808.6,5.613.894,8.419l-27.266,0" fill="#d56b70"/>
        <path id="Trazado_657155" data-name="Trazado 657155" d="M24.779,75.069c.209-2.013.365-4.033.648-6.035a2.513,2.513,0,0,1,2.03-2.125c1.884-.474,3.778-.9,5.661-1.377.343-.087.463.013.591.306a4.684,4.684,0,0,0,8.671,0c.128-.292.249-.394.592-.307,1.857.47,3.724.9,5.583,1.36a2.657,2.657,0,0,1,2.162,2.458c.213,1.9.4,3.813.6,5.72H24.779" fill="#abccf8"/>
        <path id="Trazado_657156" data-name="Trazado 657156" d="M2.189,42.911A1.37,1.37,0,0,0,3.751,42.1a4.465,4.465,0,0,1,2.982-2.228c2.016-.494,4.04-.954,6.052-1.46a.722.722,0,0,1,.978.465c1.222,2.393,2.487,4.765,3.741,7.142.685,1.3,1.532,1.349,2.387.148.445-.624.885-1.253,1.457-2.065v8.388q-8.986,0-17.972-.011c-.372,0-.744-.02-1.116-.03.147-1.506.276-3.014.45-4.516a1.216,1.216,0,0,0-.989-1.543l.468-3.478" fill="#ef996e"/>
        <path id="Trazado_657157" data-name="Trazado 657157" d="M30.226,3.567a1.4,1.4,0,0,0,.534,1.684c2.57,1.849,3.128,4.5,2.9,7.439a23.025,23.025,0,0,1-.433,2.6c-.047.242-.022.615-.306.666-.263.048-.422-.283-.6-.474a5.166,5.166,0,0,1-1.167-3.163c-.055-.556-.126-1.111-.192-1.666a1.3,1.3,0,0,0-1.72-1.229A33.079,33.079,0,0,1,15.527,9.4a1.141,1.141,0,0,0-1.494,1.1c-.147,1.026-.268,2.057-.446,3.078a3.955,3.955,0,0,1-1.552,2.425,7.906,7.906,0,0,1-.677-2.764,11.109,11.109,0,0,1-.011-3.272,4.643,4.643,0,0,1,2.221-3.53,1.2,1.2,0,0,0,.6-.72c.593-2.338,2.43-3.016,4.5-3.319a18.124,18.124,0,0,1,6.5.4c.777.169,1.5.2,1.933-.637a11.4,11.4,0,0,1,3.121,1.4" fill="#6a5a62"/>
        <path id="Trazado_657158" data-name="Trazado 657158" d="M23.642,52.483v-8.19a11.19,11.19,0,0,1,1.406,1.851c.9,1.23,1.723,1.181,2.435-.173,1.25-2.379,2.505-4.756,3.737-7.145.215-.418.418-.583.913-.427.753.238,1.536.383,2.416.594-.4.413-.655.847-1.144,1.027-3.723,1.374-5.035,4.746-4.731,8.342.119,1.415.577,2.75.827,4.131l-5.859-.01" fill="#ed986d"/>
        <path id="Trazado_657159" data-name="Trazado 657159" d="M1.72,46.389a1.216,1.216,0,0,1,.989,1.543c-.174,1.5-.3,3.01-.45,4.516-.262.871-.727,1.245-1.371,1.1-.67-.148-.966-.692-.871-1.543q.233-2.093.435-4.189c.077-.794.353-1.389,1.268-1.43" fill="#040303"/>
        <path id="Trazado_657160" data-name="Trazado 657160" d="M43.764,19.527c-.129-.392.138-.728.546-1.058a4.781,4.781,0,0,0,1.522-2.117,1.393,1.393,0,0,1,1.017-.964,19.993,19.993,0,0,0,6.2-3.214.784.784,0,0,1,1.152.017,20.456,20.456,0,0,0,6.278,3.235,1.179,1.179,0,0,1,.871.805,5.146,5.146,0,0,0,1.713,2.361.959.959,0,0,1,.418.937c-.4,5.232-2.69,9.277-7.36,11.854a4.868,4.868,0,0,1-5.013-.006c-4.61-2.546-6.924-6.516-7.344-11.85m9.861,8.533a7.807,7.807,0,0,0,3.11-.611,1.135,1.135,0,0,0,.774-1.511,1.114,1.114,0,0,0-1.535-.583,6.312,6.312,0,0,1-4.741-.007,1.089,1.089,0,0,0-1.564.637c-.216.6.056,1.123.774,1.44a7.73,7.73,0,0,0,3.182.635m-2.95-8.767a1.4,1.4,0,0,0-2.8.082,1.4,1.4,0,0,0,2.8-.082m8.666.022a1.412,1.412,0,0,0-1.448-1.376,1.4,1.4,0,1,0,1.448,1.376" fill="#f2cfa7"/>
        <path id="Trazado_657161" data-name="Trazado 657161" d="M32.327,19.411c-.383,5.462-2.757,9.493-7.476,12.043a4.726,4.726,0,0,1-4.736,0c-4.852-2.612-7.18-6.776-7.506-12.183a1.19,1.19,0,0,1,.458-1.031,7.781,7.781,0,0,0,2.82-4.605c.008-.053.025-.1.033-.157.077-.546-.073-1.33.335-1.562.385-.22,1.07.1,1.625.163a37.014,37.014,0,0,0,10.283-.16c.476-.076.743-.095.764.511a7.466,7.466,0,0,0,2.785,5.624c.485.413.78.867.615,1.355m-6.99,9.31a12.751,12.751,0,0,0,2.066-.256,1.121,1.121,0,0,0,1-1.243,4.667,4.667,0,0,0-5.129-4.53,9.022,9.022,0,0,1-1.668-.011,4.642,4.642,0,0,0-5.02,4.467,1.132,1.132,0,0,0,1.059,1.334,6.1,6.1,0,0,0,2.065.166,12.693,12.693,0,0,1,5.63.073m2.869-9.375a1.4,1.4,0,1,0-1.365,1.379,1.4,1.4,0,0,0,1.365-1.379M18.1,17.938A1.4,1.4,0,0,0,16.75,19.4,1.38,1.38,0,1,0,18.1,17.938" fill="#f2cea7"/>
        <path id="Trazado_657162" data-name="Trazado 657162" d="M49.773,2.254a5.156,5.156,0,0,1,3.019,1.078,1.089,1.089,0,0,0,1.527.083c2.37-2.1,6.916-1.278,9.043,1.852a18.453,18.453,0,0,1,2.7,7.45,33.155,33.155,0,0,1,.389,3.491c.028.432.013.6-.49.625-1.715.089-2.138-.128-2.643-1.825a2.111,2.111,0,0,0-1.664-1.587,18.72,18.72,0,0,1-6.879-3.629c-1-.822-1.272-.826-2.279-.013a19.243,19.243,0,0,1-7.036,3.675,1.8,1.8,0,0,0-1.512,1.527,2.966,2.966,0,0,1-.375.878,1.82,1.82,0,0,1-2.6.944c-.244-.1-.221-.28-.207-.456.307-3.9.819-7.753,3.115-11.088a6.839,6.839,0,0,1,5.891-3" fill="#6a5a62"/>
        <path id="Trazado_657163" data-name="Trazado 657163" d="M31.774,52.857c-.09-.312.1-.624.426-.914a5.126,5.126,0,0,0,1.792-3.288c.059-.5.3-.594.755-.533a24.936,24.936,0,0,0,6.612,0c.473-.064.681.066.739.554a4.964,4.964,0,0,0,1.749,3.221,1.264,1.264,0,0,1,.449,1.191,8.9,8.9,0,0,1-4.81,7.434,2.865,2.865,0,0,1-2.894-.008,8.993,8.993,0,0,1-4.818-7.654" fill="#f8dfa6"/>
        <path id="Trazado_657164" data-name="Trazado 657164" d="M35.69,28.309a1.432,1.432,0,0,0,1.627-.974c.538-1.1,1.151-2.162,1.71-3.253.187-.366.362-.475.716-.188a4.079,4.079,0,0,0,2.361.869.707.707,0,0,1,.68.547,15.2,15.2,0,0,0,4.342,6.038.947.947,0,0,1,.385.889c-.08.848-.146,1.7-.184,2.549a.605.605,0,0,1-.55.647c-3.133.735-6.266,1.473-9.391,2.242-.422.1-.512-.081-.617-.38a13.06,13.06,0,0,1-.811-4.214,1.235,1.235,0,0,0-1.122-1.4,14.119,14.119,0,0,1,.854-3.373" fill="#6a5a62"/>
        <path id="Trazado_657165" data-name="Trazado 657165" d="M71.231,32.856a12.137,12.137,0,0,1-.768,4.377c-.138.392-.261.54-.731.424-3.044-.757-6.1-1.476-9.152-2.193-.408-.1-.635-.227-.652-.715-.03-.848-.152-1.694-.25-2.539a.786.786,0,0,1,.305-.766,15.108,15.108,0,0,0,4.489-6.21.646.646,0,0,1,.643-.467,4.155,4.155,0,0,0,2.364-.863c.282-.223.469-.286.675.1,1.189,2.228,2.532,4.385,2.95,6.944a17.253,17.253,0,0,1,.127,1.909" fill="#6a5a62"/>
        <path id="Trazado_657166" data-name="Trazado 657166" d="M59.963,37.753c-.064.157-.1.256-.145.354a16.926,16.926,0,0,1-5.66,7.293.765.765,0,0,1-1.045.037,17.233,17.233,0,0,1-5.719-7.349c-.177-.4-.011-.51.329-.578.287-.057.572-.128.854-.208a1.087,1.087,0,0,0,.848-1.033c.072-.823.153-1.646.215-2.47.033-.437.114-.618.609-.353a6.851,6.851,0,0,0,6.729.015c.391-.2.608-.275.613.309.006.638.107,1.274.148,1.913.081,1.259.261,1.472,1.509,1.772.256.061.562.046.715.3" fill="#f1b989"/>
        <path id="Trazado_657167" data-name="Trazado 657167" d="M44.925,49.666a2.117,2.117,0,0,1-.62-1.412,2.6,2.6,0,0,0-3.1-2.363,24.7,24.7,0,0,1-6.382-.015A2.6,2.6,0,0,0,31.8,48.151a2.055,2.055,0,0,1-.575,1.435c-.9-3.007-.214-6.715,3.565-7.659a13.035,13.035,0,0,1,6.335-.039c2.675.655,4,2.372,4.094,5.187a9.463,9.463,0,0,1-.292,2.591" fill="#c09071"/>
        <path id="Trazado_657168" data-name="Trazado 657168" d="M26.539,34.942c.257.619-.174,1.029-.72,1.447-.994.758-1.959,1.556-2.907,2.371a.549.549,0,0,1-.864,0c-1.033-.88-2.077-1.749-3.157-2.57a1.12,1.12,0,0,1-.5-1.212c.094-.546-.06-1.322.249-1.591s.9.35,1.4.516a7.185,7.185,0,0,0,5.584-.31c.789-.377.788-.382.867.5.021.238.03.478.053.853" fill="#f1b989"/>
        <path id="Trazado_657169" data-name="Trazado 657169" d="M40.465,63.8a2.433,2.433,0,1,1-4.835-.027c0-.053.006-.106.009-.159.049-.96.049-.961.934-.691a4.535,4.535,0,0,0,3.048-.045c.731-.292.884-.057.83.6a2.263,2.263,0,0,0,.014.318" fill="#ecce96"/>
        <path id="Trazado_657170" data-name="Trazado 657170" d="M18.846,43.743c-.494-.935-.937-1.769-1.376-2.6-.469-.892-.947-1.779-1.393-2.682-.112-.227-.5-.53-.16-.734.3-.18.758-.435,1.116-.155,1.256.98,2.475,2,3.715,3.007.207.167.13.305.013.469-.612.86-1.222,1.722-1.915,2.7" fill="#e88459"/>
        <path id="Trazado_657171" data-name="Trazado 657171" d="M26.113,43.755c-.667-.95-1.284-1.841-1.915-2.721-.21-.291-.02-.425.172-.581,1.134-.925,2.279-1.838,3.395-2.784.459-.389.86-.066,1.267.032.288.07.089.314.017.453-.957,1.838-1.923,3.672-2.936,5.6" fill="#e88459"/>
        <path id="Trazado_657172" data-name="Trazado 657172" d="M41.859,22.4a2.118,2.118,0,0,1-1.54-2.7.828.828,0,0,1,.9-.633c.52.04.3.472.34.743.116.858.2,1.721.3,2.593" fill="#e7b184"/>
        <path id="Trazado_657173" data-name="Trazado 657173" d="M35.838,20.292A2.1,2.1,0,0,1,34.675,22.3c-.118.05-.28.124-.37.081-.179-.086-.065-.274-.048-.419.09-.762.181-1.523.278-2.283.029-.219-.087-.524.232-.6a.8.8,0,0,1,.8.25,1.372,1.372,0,0,1,.275.969" fill="#e7b184"/>
        <path id="Trazado_657174" data-name="Trazado 657174" d="M65.384,22.372c.109-1.01.221-2.006.322-3,.024-.229.123-.326.355-.318a.847.847,0,0,1,.778.465,2.1,2.1,0,0,1-1.455,2.856" fill="#e7b184"/>
        <path id="Trazado_657175" data-name="Trazado 657175" d="M10.717,22.378a2.1,2.1,0,0,1-1.461-2.862.814.814,0,0,1,.858-.455c.415.046.258.4.289.631.118.888.21,1.779.314,2.686" fill="#e7b184"/>
        <path id="Trazado_657176" data-name="Trazado 657176" d="M53.625,28.061a7.735,7.735,0,0,1-3.183-.635c-.717-.317-.99-.836-.773-1.44a1.088,1.088,0,0,1,1.563-.637,6.312,6.312,0,0,0,4.741.007,1.113,1.113,0,0,1,1.535.582,1.135,1.135,0,0,1-.774,1.512,7.8,7.8,0,0,1-3.109.611" fill="#040303"/>
        <path id="Trazado_657177" data-name="Trazado 657177" d="M50.675,19.293a1.4,1.4,0,1,1-1.482-1.355,1.435,1.435,0,0,1,1.482,1.355" fill="#040303"/>
        <path id="Trazado_657178" data-name="Trazado 657178" d="M59.341,19.315a1.382,1.382,0,1,1-1.448-1.376,1.412,1.412,0,0,1,1.448,1.376" fill="#040303"/>
        <path id="Trazado_657179" data-name="Trazado 657179" d="M25.337,28.72a12.694,12.694,0,0,0-5.63-.073,6.1,6.1,0,0,1-2.065-.165,1.133,1.133,0,0,1-1.06-1.335,4.642,4.642,0,0,1,5.02-4.466,9.111,9.111,0,0,0,1.668.011,4.667,4.667,0,0,1,5.13,4.53,1.121,1.121,0,0,1-1,1.242,12.534,12.534,0,0,1-2.065.256m.51-2.35a2.179,2.179,0,0,0-2.692-1.4,4.342,4.342,0,0,1-1.332,0,2.293,2.293,0,0,0-2.48.881c-.236.357-.25.562.282.574a4.5,4.5,0,0,0,2.161-.478,1.476,1.476,0,0,1,1.444.016,4.206,4.206,0,0,0,2.617.4" fill="#040303"/>
        <path id="Trazado_657180" data-name="Trazado 657180" d="M28.206,19.346a1.4,1.4,0,0,1-2.79-.024,1.4,1.4,0,1,1,2.79.024" fill="#040303"/>
        <path id="Trazado_657181" data-name="Trazado 657181" d="M18.1,17.938A1.395,1.395,0,1,1,16.75,19.4,1.4,1.4,0,0,1,18.1,17.938" fill="#040303"/>
        <path id="Trazado_657182" data-name="Trazado 657182" d="M25.847,26.37a4.206,4.206,0,0,1-2.617-.4,1.476,1.476,0,0,0-1.444-.016,4.5,4.5,0,0,1-2.161.478c-.532-.012-.518-.217-.282-.574a2.293,2.293,0,0,1,2.48-.881,4.342,4.342,0,0,0,1.332,0,2.179,2.179,0,0,1,2.692,1.4" fill="#6a5a62"/>
      </g>
    </g>
  </g>
</svg>
