<svg id="Grupo_995856" data-name="Grupo 995856" xmlns="http://www.w3.org/2000/svg" xmlns:xlink="http://www.w3.org/1999/xlink" width="319.755" height="334.601" viewBox="0 0 319.755 334.601">
  <defs>
    <clipPath id="clip-path">
      <rect id="Rectángulo_312781" data-name="Rectángulo 312781" width="319.755" height="334.601" fill="none"/>
    </clipPath>
    <clipPath id="clip-path-3">
      <rect id="Rectángulo_312778" data-name="Rectángulo 312778" width="0.621" height="0.704" fill="none"/>
    </clipPath>
    <clipPath id="clip-path-4">
      <rect id="Rectángulo_312779" data-name="Rectángulo 312779" width="0.551" height="0.627" fill="none"/>
    </clipPath>
  </defs>
  <g id="Grupo_995855" data-name="Grupo 995855" clip-path="url(#clip-path)">
    <g id="Grupo_995854" data-name="Grupo 995854">
      <g id="Grupo_995853" data-name="Grupo 995853" clip-path="url(#clip-path)">
        <path id="Trazado_657003" data-name="Trazado 657003" d="M137.637,39.49H29.31a35.627,35.627,0,0,1,3.647-3.073c4.7-3.408,10.653-5.413,16.369-4.378,3.646.669,7.228,2.531,10.891,1.894,3.313-.572,5.892-3.04,8.44-5.238A67.353,67.353,0,0,1,93.88,15.1a39.434,39.434,0,0,1,16.146-1.609c12.946,1.8,23.2,12.834,27.483,25.191Z" transform="translate(50.196 12.894)" fill="#fedede"/>
        <path id="Trazado_657064" data-name="Trazado 657064" d="M137.637,39.49H29.31a35.627,35.627,0,0,1,3.647-3.073c4.7-3.408,10.653-5.413,16.369-4.378,3.646.669,7.228,2.531,10.891,1.894,3.313-.572,5.892-3.04,8.44-5.238A67.353,67.353,0,0,1,93.88,15.1a39.434,39.434,0,0,1,16.146-1.609c12.946,1.8,23.2,12.834,27.483,25.191Z" transform="translate(182.118 92.309)" fill="#fedede"/>
        <path id="Trazado_657065" data-name="Trazado 657065" d="M102.73,31.022H29.31a24.146,24.146,0,0,1,2.472-2.083,14.818,14.818,0,0,1,11.094-2.967c2.471.453,4.9,1.715,7.381,1.283,2.245-.388,3.994-2.06,5.72-3.55a45.649,45.649,0,0,1,17.1-9.216A26.727,26.727,0,0,1,84.016,13.4c8.774,1.22,15.724,8.7,18.627,17.074Z" transform="translate(-24.555 77.247)" fill="#fedede"/>
        <path id="Trazado_657004" data-name="Trazado 657004" d="M192.506,42.575a28.906,28.906,0,0,1-18.454,6.606A29.12,29.12,0,0,1,150.273,3.2c-.216-.15-.433-.3-.666-.433A29.912,29.912,0,0,0,174.052,49.98a29.67,29.67,0,0,0,18.92-6.772c-.15-.216-.3-.433-.466-.632" transform="translate(95.683 1.841)" fill="#fff"/>
        <path id="Trazado_657006" data-name="Trazado 657006" d="M254.7,112.373V281.3H97.97a1.809,1.809,0,0,1,.017-.3c.3-7.205.765-17.222,1.448-28.721v-.033c.433-7.638.965-15.958,1.581-24.544.183-2.579.383-5.158.582-7.771V219.9c1.048-13.512,2.33-27.39,3.894-40.252v-.017c1.514-12.613,3.295-24.211,5.358-33.48.782-3.494,1.6-6.656,2.463-9.4,1.514-4.809,3.145-8.387,4.909-10.367,5.724-6.39,11.565-12.114,16.707-16.84l.017-.017c9.235-8.486,16.224-13.728,16.224-13.728l46.958-15.525s25.676-1.215,56.576,32.1" transform="translate(65.053 53.299)" fill="#ffd357"/>
        <path id="Trazado_657007" data-name="Trazado 657007" d="M186.833,249h-.915L181.99,129.395a.441.441,0,0,1,.449-.466c0-.017,0-.017.017-.017a.458.458,0,0,1,.449.449Z" transform="translate(120.842 85.598)" fill="#2d1026"/>
        <path id="Trazado_657008" data-name="Trazado 657008" d="M137.6,17.271c-9.056.055-18.985,1.6-24.972,8.39a19.112,19.112,0,0,0-3.26,19.469c-4.233.894-7.387,4.484-9.457,8.283-2.9,5.31-4.178,12.164-.915,17.256,1.817,2.835,4.771,4.714,7.684,6.4a16.952,16.952,0,0,0-2.231,7.272,13.558,13.558,0,0,0,4.834,10.192,25.425,25.425,0,0,0,10.332,5.15,46.176,46.176,0,0,0,28.551-1.446,34.982,34.982,0,0,0,13.79-9.217,39.429,39.429,0,0,0,7.39-13.643,61,61,0,0,0,2.98-25.591A57.471,57.471,0,0,0,162.161,22.61c-4.807-6.708-17.3-5.385-24.564-5.34" transform="translate(64.455 11.378)" fill="#ff7373"/>
        <path id="Trazado_657009" data-name="Trazado 657009" d="M127.61,77.874l3.88,28.087s4.27,13.889,21.885,8.237c16.5-5.3,25.075-23.755,25.075-23.755s-3.847-6.972-4.965-11.773S172.2,64.953,172.2,64.953L155.873,69.69Z" transform="translate(84.734 43.129)" fill="#ffa3a3"/>
        <path id="Trazado_657010" data-name="Trazado 657010" d="M127.61,75.984l2.476,16.309a11.576,11.576,0,0,0,1.428.376,21.5,21.5,0,0,0,10.856-.932c9.145-2.977,16.374-10.056,22.314-17.625l-3.877.837a17.244,17.244,0,0,0-4.934-7.149Z" transform="translate(84.734 45.02)" fill="#2d1026"/>
        <path id="Trazado_657011" data-name="Trazado 657011" d="M110.452,82.475c1.393,8.8,2.113,22.632,12.349,31.135,15.251,12.686,62.089-6.373,62.089-6.373a93.8,93.8,0,0,1,.311-13.409c.052.945,5.822.253,9.15-.314,1.142-.22,1.992-.4,2.245-.489a16.694,16.694,0,0,0,7.709-6.17c3.836-5.734,3.162-13.891-2.191-18.429a13.121,13.121,0,0,0-2.037-1.408c-.235-.138-.486-.276-.737-.4,0-.017-.017,0-.017,0a9.565,9.565,0,0,0-6.473-.9c-1.137.29-3.85,1.228-4.945,2.568a3.522,3.522,0,0,0-.223.275,1.775,1.775,0,0,0-.27.814c.02-.208.022-.433.023-.641.3-6.636.231-12.851-.521-17.3a38.355,38.355,0,0,0-36.334-31.5,60.641,60.641,0,0,0-8.237.281c-.807.058-1.577.148-2.363.275-.359.043-.734.121-1.11.183a3.423,3.423,0,0,0-.443.085c-.12.025-.238.052-.374.078-.426.083-.852.165-1.276.265a36.236,36.236,0,0,0-7.706,2.611A34.193,34.193,0,0,0,112.457,40.3c-3.042,6.455-4.1,13.527-4.122,20.7a135.816,135.816,0,0,0,2.117,21.474" transform="translate(71.935 13.217)" fill="#ffa3a3"/>
        <path id="Trazado_657012" data-name="Trazado 657012" d="M130.113,52.016a3.7,3.7,0,1,0,3.27-4.078,3.7,3.7,0,0,0-3.27,4.078" transform="translate(86.381 31.816)" fill="#2d1026"/>
        <path id="Trazado_657013" data-name="Trazado 657013" d="M112.9,54.164a3.7,3.7,0,1,0,3.27-4.078,3.695,3.695,0,0,0-3.27,4.078" transform="translate(74.953 33.242)" fill="#2d1026"/>
        <path id="Trazado_657014" data-name="Trazado 657014" d="M155.271,68.055a.39.39,0,0,0,.383-.338,33.571,33.571,0,0,1,2.112-8.5,13.981,13.981,0,0,1,5.34-6.53,8.442,8.442,0,0,1,7.959-.586.391.391,0,1,0,.346-.7,9.222,9.222,0,0,0-8.708.617,14.731,14.731,0,0,0-5.656,6.892,34.142,34.142,0,0,0-2.168,8.7.391.391,0,0,0,.334.441.343.343,0,0,0,.058.005" transform="translate(102.838 33.585)" fill="#2d1026"/>
        <g id="Grupo_995849" data-name="Grupo 995849" transform="translate(272.121 79.599)" opacity="0.27">
          <g id="Grupo_995848" data-name="Grupo 995848">
            <g id="Grupo_995847" data-name="Grupo 995847" clip-path="url(#clip-path-3)">
              <path id="Trazado_657015" data-name="Trazado 657015" d="M163.534,48.325c.211.053.408.143.621.215-.035-.24-.052-.463-.068-.7a2.125,2.125,0,0,0-.552.489" transform="translate(-163.534 -47.836)" fill="#2d1026"/>
            </g>
          </g>
        </g>
        <path id="Trazado_657016" data-name="Trazado 657016" d="M127.51,64.063l-.033,0-4.035-.295c-1.11-.082-2.315-.3-2.83-1.331a3.27,3.27,0,0,1,.07-2.418,37.53,37.53,0,0,0,1.554-9.377.461.461,0,0,1,.459-.446l.017,0a.459.459,0,0,1,.444.476,38.509,38.509,0,0,1-1.589,9.61,2.458,2.458,0,0,0-.133,1.739c.309.619,1.223.764,2.075.827l4.035.293a.462.462,0,0,1-.033.922" transform="translate(79.945 33.33)" fill="#2d1026"/>
        <path id="Trazado_657017" data-name="Trazado 657017" d="M128.661,64.815c-.306,0-.621-.015-.95-.045a12.161,12.161,0,0,1-3.882-1.02.46.46,0,1,1,.376-.84,11.276,11.276,0,0,0,3.589.943,6.883,6.883,0,0,0,2.716-.218,7.148,7.148,0,0,0,2.762-1.741,12.37,12.37,0,0,0,2.677-3.689.461.461,0,0,1,.832.4,13.273,13.273,0,0,1-2.875,3.962,8.075,8.075,0,0,1-3.123,1.95,7.106,7.106,0,0,1-2.122.3" transform="translate(82.042 38.475)" fill="#2d1026"/>
        <path id="Trazado_657018" data-name="Trazado 657018" d="M111.946,45.868a5.418,5.418,0,0,0-1.579,1.587,2.588,2.588,0,0,0-.285,2.163c.441,1.2,1.88,1.7,3.157,1.761a16.314,16.314,0,0,0,6.288-1.316,8.285,8.285,0,0,0,2.261-1.108,2.941,2.941,0,0,0,1.226-2.12,3.109,3.109,0,0,0-1.431-2.5c-2.782-2-7.159-.228-9.638,1.534" transform="translate(73.011 28.849)" fill="#ff7373"/>
        <path id="Trazado_657019" data-name="Trazado 657019" d="M137.831,41.768a5.377,5.377,0,0,1,2.028.945,2.584,2.584,0,0,1,1.013,1.932c0,1.278-1.178,2.243-2.355,2.742a16.288,16.288,0,0,1-6.356.932,8.212,8.212,0,0,1-2.5-.26,2.936,2.936,0,0,1-1.882-1.566,3.1,3.1,0,0,1,.481-2.842c1.919-2.84,6.639-2.682,9.575-1.884" transform="translate(84.73 27.4)" fill="#ff7373"/>
        <path id="Trazado_657020" data-name="Trazado 657020" d="M184.334,68.718a12.7,12.7,0,0,0-4.13,3.132c-.2.251-.694,1.389-1.04,1.4a26.7,26.7,0,0,1-7.624-.441,13.659,13.659,0,0,1-8.546-20,19.031,19.031,0,0,1-13.685-2.955,20.038,20.038,0,0,1-8.2-11.811A19.209,19.209,0,0,1,116.77,27.67c13.092-5.629,27.579-9.894,41.83-10.109,4.1-.063,8.287.113,12.134,1.534s7.348,4.276,8.654,8.164c.844,2.506.729,5.225,1.2,7.827A4.734,4.734,0,0,0,181.278,37a5.529,5.529,0,0,0,2.09,1.549,35.383,35.383,0,0,1,8.2,5.363c6.481,6.152,7.676,17.346,4.063,25.519a10.058,10.058,0,0,0-9.2-1.612,18.214,18.214,0,0,0-2.1.9" transform="translate(77.536 11.654)" fill="#ff7373"/>
        <path id="Trazado_657021" data-name="Trazado 657021" d="M148.043,50.609s6,11.061,8.119,9.884,6.589-12.472,6.589-12.472Z" transform="translate(98.301 31.886)" fill="#ff7373"/>
        <path id="Trazado_657022" data-name="Trazado 657022" d="M80.563,169.816h86.522c.1-.078-.1-.186-.007-.265.885-5.524-2.646-11.35-8.565-14.131-3.175-1.491-7.124-2.3-9.1-4.819-2.747-3.491-.173-8.017,2.075-11.74,2.335-3.867,4.348-8.177,3.306-12.4-1.553-6.29-9.252-10.232-16.665-12.379-4.791-1.388-10.373-2.771-12.384-6.578a8.676,8.676,0,0,1-.379-6.147c1.17-4.884,4.213-9.447,4.589-14.412.473-6.268-3.792-12.615-10.525-15.66-2.767-1.253-6.163-2.2-7.408-4.574-.909-1.732-.358-3.709-.318-5.593.151-6.971-7.132-12.878-15.256-15.048s-16.928-1.448-25.426-.7c-5.265,41.138-.524,83.906,9.541,124.444" transform="translate(45.717 29.632)" fill="#2d1026"/>
        <path id="Trazado_657023" data-name="Trazado 657023" d="M204.024,262.33H9.668c-.216-9.468-.632-40.552,1.78-70.221v-.017c.033-.416.067-.8.1-1.215v-.017c.017-.166.033-.349.033-.516.017-.1.017-.166.033-.25v-.017c2.346-27.489,7.188-53.265,16.956-58.823.15-.083.283-.166.433-.25,1.747-.982,3.578-1.93,5.441-2.879.017,0,.017,0,.033-.017a3.144,3.144,0,0,1,.416-.183c2.2-1.1,4.443-2.147,6.723-3.145h.017c.349-.15.7-.3,1.048-.466,5.258-2.23,10.583-4.243,15.625-5.99h.017c9.235-3.178,17.439-5.475,22.165-6.723,1.348-.349,2.413-.616,3.145-.782.7-.166,1.1-.266,1.1-.266l7.022-.25,18.121-.649h.017l6.057-.216,16.673-.6s2.413.1,6.223.5c8.154.849,22.664,3.028,33.214,8.436.4.2.782.4,1.165.616a43.284,43.284,0,0,1,10.766,8.786c11.082,12.147,20.334,32.864,22.481,58.673,2.5,30,5.242,65.662-2.446,76.478" transform="translate(6.306 72.272)" fill="#dfdefe"/>
        <path id="Trazado_657024" data-name="Trazado 657024" d="M133.542,262.33H64.985q-.674-6.315-1.3-12.663c-.449-4.326-.882-8.636-1.315-12.979v-.017c-.083-.815-.166-1.647-.233-2.479-.15-1.3-.266-2.6-.383-3.894-.283-2.679-.532-5.358-.8-8.037-.033-.349-.067-.682-.1-1.032q-1.3-13.528-2.529-27.09v-.017c-.116-1.165-.233-2.346-.333-3.511v-.017c-.2-2.1-.383-4.21-.566-6.323-.216-2.163-.4-4.31-.582-6.473v-.017c-.566-6.273-1.132-12.563-1.647-18.853-.15-1.548-.283-3.112-.4-4.676-.2-2.13-.383-4.277-.549-6.423v-.017c-.349-4.044-.682-8.07-.982-12.131-.1-.849-.166-1.7-.216-2.546q-.5-5.941-.965-11.914c-.067-.732-.116-1.464-.15-2.163a32.07,32.07,0,0,1,.4-7.455c1.348-.349,2.413-.616,3.145-.782.7-.166,1.1-.266,1.1-.266l7.022-.25,18.121-.649h.017l6.057-.216,16.673-.6s2.413.1,6.223.5q1.4,8.911,2.812,17.838.874,5.591,1.764,11.182c.166,1.048.333,2.1.483,3.145.2,1.248.4,2.479.6,3.711v.017l.5,3.195c.166,1,.316,1.98.466,2.962.233,1.431.449,2.862.682,4.293l6.839,43.48,1.2,7.538c1.381,8.853,2.746,17.705,3.994,26.574v.033c1.364,9.651,2.579,19.319,3.511,29.02" transform="translate(34.456 72.272)" fill="#fedede"/>
        <path id="Trazado_657025" data-name="Trazado 657025" d="M100.687,97.734v22.073s4.5,27.128-17.151,27.128C68.1,146.935,57.6,115.6,57.6,115.6s2.454-6.654,2.8-11.031-.7-12.249-.7-12.249L74.7,94.3Z" transform="translate(38.246 61.298)" fill="#ffa3a3"/>
        <path id="Trazado_657026" data-name="Trazado 657026" d="M96.62,96.941v14.691a10.355,10.355,0,0,1-1.206.523,19.171,19.171,0,0,1-9.686.631c-8.45-1.4-15.761-6.668-22-12.538l3.526.22a15.359,15.359,0,0,1,3.388-6.956Z" transform="translate(42.313 62.092)" fill="#2d1026"/>
        <path id="Trazado_657027" data-name="Trazado 657027" d="M131.4,99.977c-.052,7.931,1.163,20.211-6.713,29.067-11.735,13.209-55.525,2.686-55.525,2.686A83.118,83.118,0,0,0,67.1,119.964c.082.84-5.094,1-8.1.947-1.033-.042-1.809-.088-2.042-.131a14.849,14.849,0,0,1-7.613-4.4c-4.145-4.536-4.643-11.809-.532-16.52a11.552,11.552,0,0,1,1.6-1.511c.188-.153.393-.308.6-.448,0-.015.017,0,.017,0a8.526,8.526,0,0,1,5.578-1.656c1.04.1,3.554.566,4.7,1.6.082.07.163.14.231.211a1.552,1.552,0,0,1,.346.681c-.045-.181-.077-.378-.1-.561a79.3,79.3,0,0,1-1.855-15.307A34.165,34.165,0,0,1,87.708,50.272,54.35,54.35,0,0,1,95,49.42c.719-.057,1.409-.08,2.118-.075.321-.01.662.01,1,.015a3.146,3.146,0,0,1,.4.013c.11.007.216.015.341.02.384.015.77.032,1.158.062a32.209,32.209,0,0,1,7.134,1.27A30.456,30.456,0,0,1,124,63.111a43.114,43.114,0,0,1,6.4,17.673A121.2,121.2,0,0,1,131.4,99.977" transform="translate(30.526 32.764)" fill="#ffa3a3"/>
        <path id="Trazado_657028" data-name="Trazado 657028" d="M86.294,90.441a13.693,13.693,0,0,1-1.721-.14.457.457,0,0,1-.4-.514.448.448,0,0,1,.513-.4,8.069,8.069,0,0,0,2.536.048A2.4,2.4,0,0,0,89,88.2a3.409,3.409,0,0,0,.1-1.865,35.455,35.455,0,0,0-2.416-7.788l-1.6-4.055a.461.461,0,0,1,.857-.338L87.543,78.2A36.337,36.337,0,0,1,90.014,86.2a4.231,4.231,0,0,1-.168,2.376A3.31,3.31,0,0,1,87.4,90.339a5.671,5.671,0,0,1-1.107.1" transform="translate(55.889 49.043)" fill="#2d1026"/>
        <path id="Trazado_657029" data-name="Trazado 657029" d="M87.321,89.239a7.058,7.058,0,0,1-1.661-.195A7.356,7.356,0,0,1,80.7,84.8a.461.461,0,0,1,.852-.354,6.3,6.3,0,0,0,9.871,2.4.46.46,0,0,1,.591.706,7.34,7.34,0,0,1-4.692,1.684" transform="translate(53.562 55.885)" fill="#2d1026"/>
        <path id="Trazado_657030" data-name="Trazado 657030" d="M70.905,73.5a2.609,2.609,0,0,0,2.438,1.04A11.254,11.254,0,0,0,79.5,72.7a4.908,4.908,0,0,0,1.511-1.429,2.248,2.248,0,0,0,.265-1.967c-1.732-4.416-11.987.89-10.375,4.188" transform="translate(46.968 44.904)" fill="#2d1026"/>
        <path id="Trazado_657031" data-name="Trazado 657031" d="M99.546,69.723c-.078.905-1.022,1.509-1.9,1.85a11.244,11.244,0,0,1-6.408.518,4.879,4.879,0,0,1-1.925-.787,2.238,2.238,0,0,1-.957-1.737c.02-4.746,11.5-3.5,11.187.156" transform="translate(58.671 44.138)" fill="#2d1026"/>
        <path id="Trazado_657032" data-name="Trazado 657032" d="M80.942,77.632a3.292,3.292,0,1,1-3.521-3.047,3.292,3.292,0,0,1,3.521,3.047" transform="translate(49.379 49.519)" fill="#2d1026"/>
        <path id="Trazado_657033" data-name="Trazado 657033" d="M96.365,76.745A3.292,3.292,0,1,1,92.844,73.7a3.292,3.292,0,0,1,3.521,3.047" transform="translate(59.62 48.93)" fill="#2d1026"/>
        <path id="Trazado_657034" data-name="Trazado 657034" d="M64.339,94.514a.348.348,0,0,1-.383-.246,29.867,29.867,0,0,0-3-7.2,12.445,12.445,0,0,0-5.574-5.035,7.513,7.513,0,0,0-7.087.547A.349.349,0,0,1,47.9,82a8.212,8.212,0,0,1,7.749-.619,13.125,13.125,0,0,1,5.9,5.313,30.422,30.422,0,0,1,3.07,7.372.347.347,0,0,1-.233.434.287.287,0,0,1-.052.012" transform="translate(31.707 53.586)" fill="#2d1026"/>
        <g id="Grupo_995852" data-name="Grupo 995852" transform="translate(80.276 130.638)" opacity="0.27">
          <g id="Grupo_995851" data-name="Grupo 995851">
            <g id="Grupo_995850" data-name="Grupo 995850" clip-path="url(#clip-path-4)">
              <path id="Trazado_657035" data-name="Trazado 657035" d="M48.794,78.864c-.178.075-.339.181-.518.271,0-.215-.017-.414-.033-.627a1.863,1.863,0,0,1,.551.356" transform="translate(-48.242 -78.508)" fill="#2d1026"/>
            </g>
          </g>
        </g>
        <path id="Trazado_657036" data-name="Trazado 657036" d="M111.211,44.626a17.48,17.48,0,0,1-1.657,19.406c-3.326,4.009-8.726,7-9.3,12.164-.466,4.19,2.578,7.991,3.02,12.184.416,3.925-1.531,7.791-4.237,10.68-2.574,2.749-5.934,4.945-7.471,8.375a9.832,9.832,0,0,0,2.877,11.448c1.964,1.523,4.451,2.243,6.47,3.692a10.828,10.828,0,0,1,4.13,11.056c-.656,2.729-2.358,5.07-3.669,7.555s-2.253,5.441-1.261,8.067c.952,2.523,3.418,4.1,5.238,6.094a17.868,17.868,0,0,1,4.252,11.167,38.6,38.6,0,0,1-1.682,12.011l-85.368-.488c-3.531-8.6-.547-20.1,6.029-26.7,1.627-1.632,3.533-3.085,4.563-5.142,1.511-3.01.824-6.586.409-9.926-.982-7.914.188-16.843,6.177-22.15,2.4-2.13,5.534-3.647,7.015-6.49,1.316-2.526,1.023-5.538.963-8.382-.161-7.674,2.048-16.006,8.255-20.575,2.954-2.173,6.683-3.406,8.984-6.253,2.278-2.819,2.7-6.649,4.093-9.989,2.358-5.658,7.525-9.793,13.172-12.245s11.811-3.433,17.9-4.391c3.807-.6,7.293-.571,11.1-1.17" transform="translate(13.977 29.632)" fill="#2d1026"/>
        <path id="Trazado_657037" data-name="Trazado 657037" d="M49.612,78.543a10.958,10.958,0,0,1,5.936,5.728,8.14,8.14,0,0,0,1.378,2.955c.887.9,2.25,1.063,3.448,1.466a9.2,9.2,0,0,1,5.518,5.51,11.848,11.848,0,0,1-.018,7.9,27.466,27.466,0,0,1-2.423,4.872l-4,6.877c-.13.221-.311.473-.567.453a.7.7,0,0,1-.434-.3c-4.528-5.292-9.019-10.68-12.417-16.762A40.4,40.4,0,0,1,40.785,81.81c-.6-6.064,4.714-5.107,8.828-3.266" transform="translate(27.05 51.226)" fill="#ff7373"/>
        <path id="Trazado_657038" data-name="Trazado 657038" d="M56.11,117.089l.582,9.205.256,4.027a14.8,14.8,0,0,1-12.473,11.914c-10.957,1.669-18.966-11.518-18.966-11.518l-1.323-18.324,8.731,1.285Z" transform="translate(16.06 74.629)" fill="#ffa3a3"/>
        <path id="Trazado_657039" data-name="Trazado 657039" d="M53.578,116.576l.582,9.205a3.693,3.693,0,0,1-.5.341,9.821,9.821,0,0,1-4.673,1.075A29.892,29.892,0,0,1,37.2,125.479c-3.077-1.183-7.468-3.574-8.871-6.782-.947-2.2.273-4.125,2.057-5.531Z" transform="translate(18.591 75.142)" fill="#2d1026"/>
        <path id="Trazado_657040" data-name="Trazado 657040" d="M80.925,116.754c.276,6.258,1.727,15.89-4.117,23.185-8.721,10.889-43.672,4.36-43.672,4.36a65.682,65.682,0,0,0-2.107-9.182c.143.88-7.225,1.173-7.952,1.042A11.662,11.662,0,0,1,16.891,133a9.933,9.933,0,0,1-1.083-13,7.644,7.644,0,0,1,6-3.167,7.758,7.758,0,0,1,3.771,1.065,1.222,1.222,0,0,1,.486.677,64.383,64.383,0,0,1-2.183-12.422A26.976,26.976,0,0,1,44.467,79.339a41.853,41.853,0,0,1,5.714-.975c.562-.068,1.1-.121,1.666-.145.261-.02.526-.017.79-.025a2.564,2.564,0,0,1,.318-.007c.088,0,.178.005.266,0,.308-.005.616-.01.927,0a24.365,24.365,0,0,1,19.459,9.8,34.018,34.018,0,0,1,5.752,13.678,95.293,95.293,0,0,1,1.566,15.086" transform="translate(9.21 51.915)" fill="#ffa3a3"/>
        <path id="Trazado_657041" data-name="Trazado 657041" d="M28.74,114.395a.275.275,0,0,1-.311-.178,23.616,23.616,0,0,0-2.652-5.559,9.838,9.838,0,0,0-4.6-3.744,5.932,5.932,0,0,0-5.566.717.276.276,0,0,1-.338-.436,6.494,6.494,0,0,1,6.085-.8,10.356,10.356,0,0,1,4.869,3.952,23.982,23.982,0,0,1,2.717,5.688.274.274,0,0,1-.166.351.182.182,0,0,1-.04.012" transform="translate(10.072 69.047)" fill="#2d1026"/>
        <path id="Trazado_657042" data-name="Trazado 657042" d="M25.611,121.513c.411.7.865,1.579,1.676,1.606a1.546,1.546,0,0,0,1.26-.785c1.008-1.533.414-3.809,1.629-5.185,1.078-1.223,3.007-1.1,4.478-1.807a5.914,5.914,0,0,0,2.9-3.979,29.014,29.014,0,0,0,.537-5.045,5.17,5.17,0,0,1,.842-2.835,4.2,4.2,0,0,1,3.147-1.373c1.178-.062,2.356.141,3.536.13a9.921,9.921,0,0,0,8.636-5.49c.907-1.885,1.34-4.228,3.133-5.3,1.16-.694,2.667-.682,3.747-1.5,1.779-1.343,1.479-4.07.862-6.213q-.654-2.269-1.508-4.476a2.346,2.346,0,0,0-2.328-1.907,56.78,56.78,0,0,0-19.462.636,35.01,35.01,0,0,0-10.921,4,19.926,19.926,0,0,0-7.911,8.367,28.522,28.522,0,0,0-2.163,8.9c-.6,5.11-1.333,13.092-.479,18.208.156.942,1.065.3,2.934.654a7.565,7.565,0,0,1,5.46,3.4" transform="translate(11.175 50.994)" fill="#ff7373"/>
        <path id="Trazado_657043" data-name="Trazado 657043" d="M42.495,82.953c-1.158-3.821-2.874-7.909-6.451-9.68a9.594,9.594,0,0,0-7.591-.163A15.016,15.016,0,0,0,22.319,77.8a4.369,4.369,0,0,1-1.543,1.416,4.923,4.923,0,0,1-2.225.123,11.282,11.282,0,0,0-8.172,3.123A15.817,15.817,0,0,0,6,90.179a13.031,13.031,0,0,0-.261,5.957,7.757,7.757,0,0,0,3.22,4.9,2.619,2.619,0,0,1,.677.524c.423.534.255,1.3.2,1.977a6.492,6.492,0,0,0,2.894,5.506,14.661,14.661,0,0,0,6.044,2.233,28.792,28.792,0,0,0,14.53-.744,18.018,18.018,0,0,0,10.733-9.442,21.665,21.665,0,0,0,1.451-9.447,16.273,16.273,0,0,0-1.677-7.3Z" transform="translate(3.656 48.08)" fill="#ff7373"/>
        <path id="Trazado_657044" data-name="Trazado 657044" d="M34.853,97.756a4.7,4.7,0,0,0-2.135,2.835,1.589,1.589,0,0,0,.033.957c.316.752,1.333.844,2.147.782a15.576,15.576,0,0,0,5.069-1.127,4.432,4.432,0,0,0,1.7-1.163,2.08,2.08,0,0,0,.448-1.937c-.884-2.588-5.674-1.366-7.26-.348" transform="translate(21.687 64.115)" fill="#ff7373"/>
        <path id="Trazado_657045" data-name="Trazado 657045" d="M53.107,95.7a4.7,4.7,0,0,1,2.864,2.095,1.607,1.607,0,0,1,.246.927c-.087.81-1.032,1.193-1.829,1.369a15.565,15.565,0,0,1-5.177.389,4.467,4.467,0,0,1-1.964-.621,2.081,2.081,0,0,1-.988-1.726c.1-2.732,5.035-2.95,6.847-2.434" transform="translate(30.716 63.395)" fill="#ff7373"/>
        <path id="Trazado_657046" data-name="Trazado 657046" d="M41.063,104.094a2.924,2.924,0,1,1-2.712-3.122,2.924,2.924,0,0,1,2.712,3.122" transform="translate(23.387 67.041)" fill="#2d1026"/>
        <path id="Trazado_657047" data-name="Trazado 657047" d="M53.771,102.87a2.924,2.924,0,1,1-2.712-3.122,2.924,2.924,0,0,1,2.712,3.122" transform="translate(31.825 66.228)" fill="#2d1026"/>
        <path id="Trazado_657048" data-name="Trazado 657048" d="M45.532,109.885a.462.462,0,0,1-.248-.85,2.978,2.978,0,0,0,.008-5.007.46.46,0,1,1,.5-.772,3.9,3.9,0,0,1-.013,6.556.459.459,0,0,1-.248.073" transform="translate(29.928 68.513)" fill="#2d1026"/>
        <path id="Trazado_657049" data-name="Trazado 657049" d="M45.843,111.025a5.578,5.578,0,0,1-.914-.075,5.771,5.771,0,0,1-3.782-2.464.461.461,0,1,1,.77-.508,4.743,4.743,0,0,0,6.834,1.156.461.461,0,1,1,.559.732,5.768,5.768,0,0,1-3.468,1.158" transform="translate(27.272 71.562)" fill="#2d1026"/>
        <path id="Trazado_657050" data-name="Trazado 657050" d="M34.825,120.426s8.786,7.844,19.139,6.275,12.78-5.741,12.78-5.741,6.438-1.318,8.635,1.819,20,73.89,20,73.89l32.631,44.241-95.382,2.824-9.1-43.614S9.724,186.628,9.1,172.2s4.707-48.632,25.729-51.771" transform="translate(6.008 79.963)" fill="#5840e2"/>
        <path id="Trazado_657051" data-name="Trazado 657051" d="M76.486,135.47s16-12.079,16.786-11.452-6.589,9.726-6.589,9.726,13.492-7.06,14.434-5.491-7.06,8.315-7.06,8.315,8.786-2.667,9.57-1.1-8.942,5.8-8.942,5.8,10.824-.313,11.139,1.1-10.041,6.275-10.041,6.275,6.433,1.1,6.589,2.511-19.532,6.588-19.532,6.588Z" transform="translate(50.787 82.333)" fill="#ffa3a3"/>
        <path id="Trazado_657052" data-name="Trazado 657052" d="M43.721,120.816S54,119.34,58.238,124.988s10.355,17.648,10.355,17.648l30.355-6.119,6.589,23.3s-33.886,18.59-41.886,16.943-19.93-55.942-19.93-55.942" transform="translate(29.031 80.107)" fill="#5840e2"/>
        <path id="Trazado_657053" data-name="Trazado 657053" d="M66.466,189.9a.463.463,0,0,1-.449-.358L52.6,131.886a.46.46,0,0,1,.9-.208l13.414,57.651a.459.459,0,0,1-.346.552.428.428,0,0,1-.1.013" transform="translate(34.922 87.198)" fill="#2d1026"/>
        <path id="Trazado_657054" data-name="Trazado 657054" d="M114.141,195.819c-.2,2.3-11.448,5.341-14.959,6.223-.649.166-1.032.266-1.032.266s.216,6.057-1.348,8.353a15.132,15.132,0,0,1,.15,2.662H49.427l-.948-12.131-.7-8.886.15-.05c1.132-.3,8.769-2.413,17.173-4.576v-.017c.965-.233,1.947-.5,2.929-.732,10.35-2.629,20.883-5.025,21.333-4.077.782,1.631-9.019,7.6-11.715,9.219-.433.25-.682.4-.682.4s.549.017,1.5.017h.017c3.295.083,11.432.3,19.119.749,8.62.5,16.64,1.315,16.54,2.579" transform="translate(31.726 121.277)" fill="#ffa3a3"/>
        <path id="Trazado_657055" data-name="Trazado 657055" d="M80.327,233.353H7.577A35.345,35.345,0,0,1,3.25,222.137c-5.009-24.478,10.367-69.655,10.367-69.655.1.6.216,1.215.383,1.83,0,.017.017.05.017.067a39.546,39.546,0,0,0,2.413,6.723v.017c.349.8.732,1.581,1.132,2.38v.017c.832,1.647,1.731,3.278,2.629,4.826a2.508,2.508,0,0,0,.2.333c1,1.681,2.013,3.278,2.945,4.709.033.033.05.067.067.083a2.713,2.713,0,0,1,.183.283.23.23,0,0,1,.05.067c1.2,1.78,2.28,3.311,3.112,4.443l.017.033c.982,1.331,1.6,2.113,1.6,2.113a28.163,28.163,0,0,0,.948,4.526c0,.017.017.05.017.067a43.966,43.966,0,0,0,12.214,19.885c7.438,6.906,28.338,5.708,34.611,5.192a1.821,1.821,0,0,1,1.964,1.647l.05.566.932,8.919Z" transform="translate(1.492 101.249)" fill="#dfdefe"/>
        <path id="Trazado_657056" data-name="Trazado 657056" d="M38.516,182.749s11.53,7.882,16.119,8.59,17.414-1.647,19.885-4.353-1.176-4.826-4.353-5.884-12.237-3.411-12.237-3.411,9.3.706,10.119-1.178-15.885-5.529-15.885-5.529Z" transform="translate(25.575 113.533)" fill="#ffa3a3"/>
        <path id="Trazado_657057" data-name="Trazado 657057" d="M73.124,169.89S52.651,131.3,50.3,133.181s.94,23.3.94,23.3l-17.178-2.824,3.295,27.3,25.885,16Z" transform="translate(22.617 88.388)" fill="#ffa3a3"/>
        <path id="Trazado_657058" data-name="Trazado 657058" d="M47.861,133.625,11.151,176.61s3.451,6.9,12.864,16.943,25.727,12.864,25.727,12.864l2.2-1.1,4,2.511,14.355-12.786-1.726-2.431,1.882-3.413s-15.061-12.59-17.885-22-4.078-32.317-4.078-32.317Z" transform="translate(7.404 88.728)" fill="#5840e2"/>
        <path id="Trazado_657059" data-name="Trazado 657059" d="M56.421,206.425a.452.452,0,0,1-.25-.075l-3.7-2.395c-2.325,1.935-5.741.379-5.891.308-.176-.087-17.086-8.337-24.188-14.5C15.258,183.568,10.4,172.609,10.346,172.5a.461.461,0,0,1,.845-.369c.048.108,4.829,10.883,11.8,16.936,7.01,6.087,23.812,14.284,23.98,14.367.028.01,3.261,1.483,5.12-.383a.461.461,0,0,1,.577-.06l3.706,2.4L70.139,193.2,68.3,190.961a.464.464,0,0,1,.012-.6c.774-.86,2-2.5,2-3.223a32.5,32.5,0,0,0-3.476-3.353c-3.89-3.518-9.769-8.833-12.239-13.613-3.757-7.278-7.423-32.037-7.576-33.089a.461.461,0,0,1,.389-.522.449.449,0,0,1,.522.389c.038.255,3.8,25.656,7.483,32.8,2.391,4.633,8.2,9.879,12.039,13.35,3.063,2.769,3.779,3.474,3.779,4.039,0,1.093-1.34,2.8-1.975,3.541l1.87,2.285a.461.461,0,0,1-.05.637L56.727,206.308a.463.463,0,0,1-.306.116" transform="translate(6.844 90.671)" fill="#2d1026"/>
        <path id="Trazado_657060" data-name="Trazado 657060" d="M181.9,200.268s-5.358,35.127-17.888,44.479H132.843l-1-.3c-9.568-2.845-19.535-6.806-28.388-9.668-1.181-.383-2.429-.815-3.744-1.315-1.7-.649-3.494-1.381-5.358-2.2-4.842-2.1-10.117-4.659-15.342-7.355H79c-.266-.133-.532-.283-.815-.416-3.278-1.714-6.523-3.444-9.618-5.142-1.082-.6-2.13-1.181-3.162-1.747-1.664-.932-3.245-1.83-4.759-2.679-8.037-4.576-13.661-8-13.661-8l4.393-10.117.8-1.864,9.085-20.917v-.017l2.579-5.941.033-.05.682-1.581.216.083,1.048.383,1.3.483h.017l62.167,22.73,5.574,2.03.9.333-.316-8.1v-.033l-1.88-48.023,5.774,7.754v.017Z" transform="translate(31.195 89.854)" fill="#dfdefe"/>
        <path id="Trazado_657061" data-name="Trazado 657061" d="M127.23,10.1l-4.343,1.679a7.128,7.128,0,0,0-4.08,4.082l-1.681,4.343-1.679-4.343a7.138,7.138,0,0,0-4.08-4.082L107.022,10.1l4.345-1.679a7.139,7.139,0,0,0,4.08-4.08L117.126,0l1.681,4.345a7.13,7.13,0,0,0,4.08,4.08Z" transform="translate(71.063)" fill="#fff"/>
        <path id="Trazado_657062" data-name="Trazado 657062" d="M197.017,95.21l-4.345,1.681a7.132,7.132,0,0,0-4.08,4.078l-1.679,4.345-1.679-4.345a7.132,7.132,0,0,0-4.08-4.078l-4.345-1.681,4.345-1.679a7.139,7.139,0,0,0,4.08-4.08l1.679-4.345,1.679,4.345a7.14,7.14,0,0,0,4.08,4.08Z" transform="translate(111.846 -29.045)" fill="#fff6db"/>
        <path id="Trazado_657063" data-name="Trazado 657063" d="M25.442,133,21.1,134.678a7.121,7.121,0,0,0-4.08,4.08L15.338,143.1l-1.679-4.343a7.13,7.13,0,0,0-4.08-4.08L5.234,133l4.345-1.679a7.14,7.14,0,0,0,4.08-4.08l1.679-4.345,1.681,4.345a7.13,7.13,0,0,0,4.08,4.08Z" transform="translate(-0.479 59.692)" fill="#fff"/>
      </g>
    </g>
  </g>
</svg>
