<svg id="Grupo_1071820" data-name="Grupo 1071820" xmlns="http://www.w3.org/2000/svg" xmlns:xlink="http://www.w3.org/1999/xlink" width="94.292" height="86.428" viewBox="0 0 94.292 86.428">
  <defs>
    <clipPath id="clip-path">
      <rect id="Rectángulo_312807" data-name="Rectángulo 312807" width="94.292" height="86.428" fill="none"/>
    </clipPath>
  </defs>
  <g id="Grupo_995900" data-name="Grupo 995900" clip-path="url(#clip-path)">
    <path id="Trazado_657245" data-name="Trazado 657245" d="M86.414,85.074c-.124.779-.517,1.321-1.355,1.351-.9.032-1.274-.577-1.467-1.351.01-.367.029-.734.029-1.1q0-7.907.005-15.815c0-1.581.9-2.131,2.341-1.476a2.631,2.631,0,0,1,.411,2.007c-.029.566.11.829.749.8,1.22-.047,2.443-.035,3.664,0,.534.013.756-.118.745-.705-.034-1.862,0-3.725-.021-5.588a2.125,2.125,0,0,0-.344-1.376,2.362,2.362,0,0,0-1.245-1.582,12.216,12.216,0,0,0-2.818-1.152,6.554,6.554,0,0,0-.642-.325c-.739-.281-1.545-.856-2.208-.725-.6.119-.627,1.222-.977,1.856-.015.027-.027.055-.042.082a13.986,13.986,0,0,1-21.06,4.546c-.5-.382-.97-.8-1.516-1.256a17.972,17.972,0,0,1-1.377,3.2A11.427,11.427,0,0,1,56.055,69.8a2.319,2.319,0,0,0-1.222,2.545.9.9,0,0,0,.744.948q2.232.7,4.44,1.473a6.074,6.074,0,0,1,4.277,5.987c.019,1.439.02,2.879.03,4.319-.123.779-.516,1.317-1.353,1.348-.9.034-1.267-.583-1.474-1.344.005-1.561.079-3.126,0-4.682-.089-1.672-1.2-2.484-2.658-3.154-1.244-.572-1.524.321-2.081.915a10.811,10.811,0,0,1-16.637-.707c-.157-.2-.244-.488-.611-.473a3.891,3.891,0,0,0-3.575,3.593c-.057,1.5,0,3,.012,4.5-.176.788-.567,1.38-1.461,1.353-.837-.026-1.226-.579-1.361-1.352q.013-2.069.026-4.139a6.115,6.115,0,0,1,4.48-6.221c1.388-.481,2.785-.936,4.175-1.412.326-.112.843-.1.771-.608-.11-.772.483-1.733-.382-2.3a12.374,12.374,0,0,1-5.866-10.166c-.028-.512-.253-.585-.663-.626a3.56,3.56,0,0,1-2.471-1.084c-.592-.71-1.077-.585-1.784-.273a14.944,14.944,0,0,1-13.141-.2,15.128,15.128,0,0,1-8.157-9.681c-.145-.491-.284-.7-.86-.5-1.242.43-2.522.75-3.774,1.154a3.338,3.338,0,0,0-1.956,1.277A3,3,0,0,0,2.783,52.4c-.021,4.439,0,8.878-.022,13.317,0,.494.17.619.635.614,1.806-.021,3.614-.028,5.42,0,.562.01.634-.231.649-.71.157-5.075.163-5.075-2.605-9.286-.034-.051-.065-.1-.1-.153a1.6,1.6,0,0,1-.085-2.032c1.094-.647,1.676-.532,2.392.507.591.858,1.129,1.753,1.742,2.593a7.631,7.631,0,0,1,1.431,4.738c-.039,6.316-.018,12.633-.013,18.95,0,1.379.026,2.757.04,4.136-.157.734-.5,1.305-1.334,1.346-.941.045-1.3-.6-1.52-1.366q.019-7.68.047-15.36c0-.5-.2-.626-.659-.618q-1.886.031-3.773,0c-.454-.007-.666.115-.663.615q.039,7.68.049,15.36a4.035,4.035,0,0,1-.209.6,1.3,1.3,0,0,1-1.438.748,1.2,1.2,0,0,1-1.108-1.055,6.7,6.7,0,0,1-.063-1.1q-.006-7.087,0-14.175c0-.527.069-.975-.7-1.111C.278,68.857.01,68.253.01,67.609c0-5.216-.042-10.433.036-15.647.04-2.668,1.817-4.721,4.572-5.564,3.452-1.056,6.907-2.1,10.373-3.107.646-.187.778-.488.838-1.13a4.912,4.912,0,0,0-1.81-4.6,13.726,13.726,0,0,1-4.4-8.954,1.108,1.108,0,0,0-.733-1,4.455,4.455,0,0,1-1.381-7.051,1.57,1.57,0,0,0,.41-1.153c-.01-2.455-.039-4.91.015-7.363A12.271,12.271,0,0,1,19.3.182a140,140,0,0,1,14.26,0,5.554,5.554,0,0,1,5.011,3.742,2.932,2.932,0,0,0,.855,1.148,7.324,7.324,0,0,1,2.757,5.682c.033,2.853.023,5.707.007,8.56a1.805,1.805,0,0,0,.476,1.316,4.452,4.452,0,0,1-1.361,6.939,1.275,1.275,0,0,0-.842,1.223,5.292,5.292,0,0,1-.341,1.7c-.4.946-.176,1.407.788,1.844,2.366,1.075,4.674,2.277,6.984,3.47a1.863,1.863,0,0,0,1.627.037,3.127,3.127,0,0,0,2.389-3.557c-.094-2.57.12-5.15.2-7.726a18.711,18.711,0,0,1,37.224-2.073,65.736,65.736,0,0,1,.3,6.8q.324,8.741,1.458,17.412c.155,1.177-.559,1.725-1.394,2.242a32.215,32.215,0,0,1-9.048,3.716l-.986.254c.19.345.562.363.86.483,3.175,1.284,6.359,2.547,9.534,3.83a6.1,6.1,0,0,1,4.228,6.226c.006,2.332-.008,4.664.006,7,.005.883-.21,1.582-1.2,1.773-.561.108-.379.559-.38.889q-.015,5.431-.007,10.862c0,.215,0,.43,0,.644-.017,1.146-.362,1.676-1.165,1.794-.821.12-1.268-.245-1.646-1.344.015-4.077.025-8.155.052-12.232,0-.449-.169-.586-.6-.574q-1.195.034-2.392,0c-.437-.013-.58.14-.577.583.023,4.078.027,8.157.035,12.235M53.055,75.118a3.215,3.215,0,0,1-.954-2.581c.066-.69-.2-.714-.782-.58a11.387,11.387,0,0,1-5.188,0c-.612-.143-.836-.07-.779.6a3.24,3.24,0,0,1-.965,2.577,7.47,7.47,0,0,1-1.781.854,1.224,1.224,0,0,0,.493.694,8.067,8.067,0,0,0,11.055.182c.831-.759.828-.751-.145-1.2-.33-.153-.637-.356-.955-.537M49,39.535c-.4-.313-.7.024-1,.175-2.42,1.2-4.828,2.416-7.25,3.605-.782.384-1.57.916-2.449.115-.3-.272-.391.145-.5.324a13.818,13.818,0,0,0-1.873,5.987c-.057.571.15.763.719.729a64.244,64.244,0,0,0,7.382-.782,36.624,36.624,0,0,0,11.6-3.528,1.531,1.531,0,0,1,1.88.041,1.557,1.557,0,0,1,.318,1.85c-.417.25-.821.525-1.252.747a43.009,43.009,0,0,1-12.6,3.766c-2.581.342-5.168.611-7.774.708a1.824,1.824,0,0,0-1.742,2.419,1.931,1.931,0,0,0,2.062,1.2c2.383.025,2.544.178,2.525,2.579a9.382,9.382,0,0,0,1.528,5.485,9.212,9.212,0,0,0,8.6,4.454c4.063.12,8.284-3.508,9.037-7.737a18.387,18.387,0,0,0,.176-3.022c.015-1.284.494-1.745,1.8-1.766a9.42,9.42,0,0,0,1.464-.072,1.636,1.636,0,0,0,1.383-1.3,1.532,1.532,0,0,0-.621-1.777,2.044,2.044,0,0,1-.917-1.792,13.479,13.479,0,0,0-1.752-8.023c-.176-.289-.308-.631-.758-.325a1.589,1.589,0,0,1-1.735-.049c-1.612-.815-3.221-1.637-4.848-2.419a25.386,25.386,0,0,0-3.4-1.6M75.934,52.821a9.359,9.359,0,0,1-.192-2.555c.071-.737-.148-.873-.856-.665a15.131,15.131,0,0,1-6.539.354,21.28,21.28,0,0,1-4.057-1.171c.078,1.479-.316,2.944.953,4.018,1.594,3.248.166,5.911-3.721,6.912a1.11,1.11,0,0,0,.1.245,11.258,11.258,0,0,0,19.316-1.57c.784-1.534.736-1.559-.828-2.187-.312-.125-.618-.267-.937-.37a5,5,0,0,1-3.24-3.012M18.8,14.145c.639-.045,1.278-.094,1.917-.136a52.649,52.649,0,0,0,8.611-1.217,26.69,26.69,0,0,0,4.7-1.547,1.266,1.266,0,0,1,1.7.658,1.187,1.187,0,0,1-.34,1.634c-.182.159-.383.295-.576.441-.889.31-1.771.643-2.669.925C27.8,16.268,23.3,16.61,18.794,16.976a10.7,10.7,0,0,1-1.192-.009c-.783-.089-1.156.259-1.343,1-.207.828-.551,1.621-.784,2.444a1.685,1.685,0,0,1-1.88,1.367,12.2,12.2,0,0,0-3.112.1,1.682,1.682,0,0,0-1.375,1.708,1.7,1.7,0,0,0,1.337,1.657c1.658.441,1.763.565,1.854,2.306a12.516,12.516,0,0,0,1.367,5.008c2.306,4.595,7.764,7.586,12.491,6.845a9.485,9.485,0,0,0,1.092-.079A12.74,12.74,0,0,0,37.814,27.564c.141-1.8.142-1.8,1.928-2.336a1.736,1.736,0,0,0,.009-3.335,5.925,5.925,0,0,0-1.64-.126c-1.4-.019-1.824-.458-1.791-1.872a2.207,2.207,0,0,1,2.331-.9c.5.031.793-.066.786-.683-.03-2.512.028-5.026-.036-7.537A4.472,4.472,0,0,0,37.46,7.1a3.447,3.447,0,0,1-1.381-1.872A2.958,2.958,0,0,0,33.3,2.932a83.734,83.734,0,0,0-10.642.016c-2.514-.07-5.008-.163-7.271,1.313a9.56,9.56,0,0,0-4.511,6.5c-.427,2.4-.111,4.826-.176,7.24-.01.359-.251,1.029.458.949.693-.079,1.649.583,2.047-.561.3-.866.572-1.743.865-2.613a1.922,1.922,0,0,1,2.165-1.568q1.286-.03,2.571-.064M64.426,26.07a10.667,10.667,0,0,1-6.218,3.613,1.35,1.35,0,0,1-1.355-1.35c-.04-.816.473-1.21,1.165-1.447.405-.139.822-.25,1.216-.415a5.723,5.723,0,0,0,3.9-4.489c.213-1.337,1.248-1.8,2.334-.985a19.566,19.566,0,0,0,7.675,3.139A56,56,0,0,1,80.717,26c2.9,1.093,4.981,2.993,5.435,6.151.923,6.418-1.351,11.571-6.623,15.3A2.326,2.326,0,0,0,78.483,49.8c.016.442.183.515.569.42a34.724,34.724,0,0,0,8.485-3.189,1.122,1.122,0,0,0,.655-1.316,169.417,169.417,0,0,1-1.337-18.149,24.113,24.113,0,0,0-.9-7.541A16.083,16.083,0,0,0,68.361,9.369c-6.654,1-12.445,6.656-13.288,13.313-.417,3.29-.208,6.615-.427,9.918-.045.676.254.51.637.334a12.986,12.986,0,0,1,2.929-1.3,1.535,1.535,0,0,1,1.362,1.755c-.01,1.713.011,3.426-.011,5.139a1.468,1.468,0,0,0,.445,1.138,14.953,14.953,0,0,1,3.124,4.811,1.545,1.545,0,0,0,.6.771,12.682,12.682,0,0,0,8.641,2.035c.362-.049.727-.08,1.086-.149a12.875,12.875,0,0,0,10.08-13.888,5.141,5.141,0,0,0-2.992-4.31,18.571,18.571,0,0,0-4.192-1.3,47.243,47.243,0,0,1-9.192-2.471c-.582-.254-1.3-.9-1.683-.732-.494.213-.714,1.06-1.052,1.635M18.608,40.947c0,1.216-.016,2.287,0,3.357a6.419,6.419,0,0,0,4.962,6.081,6.615,6.615,0,0,0,7.141-3.13c.984-1.708.736-3.549.812-5.371.035-.825-.2-.9-.925-.621a15.043,15.043,0,0,1-6.656.988,18.162,18.162,0,0,1-5.337-1.3m14.537,7.708c-.213.3-.3.42-.387.544a9.253,9.253,0,0,1-16.08-1.209c-.335-.677-.179-1.811-.965-1.972-.688-.141-1.5.42-2.277.587s-.885.515-.642,1.22a14.02,14.02,0,0,0,3.9,5.911,12.814,12.814,0,0,0,14.418,1.6c.215-.125.459-.222.482-.5A4.752,4.752,0,0,1,33,51.816a.654.654,0,0,0,.143-.414c.013-.845.007-1.69.007-2.747m4.745-12.79a27.4,27.4,0,0,1-3.28,3.125.79.79,0,0,0-.3.715c.008,1.455,0,2.911,0,4.423.118-.092.217-.13.248-.2A15.318,15.318,0,0,1,37.592,39.5a.952.952,0,0,0,.305-.724c-.017-.969-.006-1.938-.006-2.908m18.867-.578-4.932,2.468,4.932,2.463ZM45.629,37.753,40.7,35.294v4.919l4.927-2.46" transform="translate(0 0)" fill="#030302"/>
    <path id="Trazado_657246" data-name="Trazado 657246" d="M18.284,166.8c-.014-1.379-.039-2.757-.04-4.136,0-6.316-.025-12.633.014-18.949a7.635,7.635,0,0,0-1.431-4.738c-.614-.84-1.151-1.736-1.742-2.593-.717-1.039-1.3-1.154-2.393-.507a19.828,19.828,0,0,1-3.154-3.861,3.337,3.337,0,0,1,1.956-1.277c1.252-.4,2.532-.724,3.774-1.154.577-.2.715.006.861.5a15.126,15.126,0,0,0,8.156,9.68,14.944,14.944,0,0,0,13.141.2c.707-.312,1.192-.436,1.784.273a3.56,3.56,0,0,0,2.47,1.084c.409.041.635.114.663.626a12.374,12.374,0,0,0,5.866,10.166c.865.569.272,1.529.382,2.3.072.5-.445.5-.771.608-1.39.476-2.787.931-4.175,1.412a6.116,6.116,0,0,0-4.48,6.221q-.013,2.069-.026,4.139l-20.855.007" transform="translate(-6.018 -81.722)" fill="#48a7e8"/>
    <path id="Trazado_657247" data-name="Trazado 657247" d="M180.848,160.13a12.2,12.2,0,0,1,2.818,1.152,2.359,2.359,0,0,1,1.244,1.581c-.431.075-.654.432-.938.7-1.441,1.367-2.745,2.875-4.267,4.16-1.442-.655-2.338-.1-2.341,1.476q-.015,7.908-.005,15.815c0,.367-.019.734-.029,1.1l-19.27,0c-.009-1.44-.01-2.88-.03-4.319a6.073,6.073,0,0,0-4.276-5.986q-2.205-.78-4.44-1.473a.9.9,0,0,1-.744-.949,2.318,2.318,0,0,1,1.221-2.545,11.432,11.432,0,0,0,3.232-3.341,17.586,17.586,0,0,0,2.568,1.906,17.311,17.311,0,0,0,22.63-4.195,12.086,12.086,0,0,0,2.624-5.088" transform="translate(-93.74 -101.043)" fill="#eb5d7d"/>
    <path id="Trazado_657248" data-name="Trazado 657248" d="M97.345,216.713c-.008-1.5-.069-3-.012-4.5a3.891,3.891,0,0,1,3.575-3.593c.367-.015.454.275.611.473a10.811,10.811,0,0,0,16.637.707c.557-.594.837-1.487,2.081-.915,1.456.669,2.569,1.482,2.658,3.154.082,1.556.008,3.121,0,4.682l-25.552-.008" transform="translate(-61.403 -131.641)" fill="#f8da76"/>
    <path id="Trazado_657249" data-name="Trazado 657249" d="M11.875,203.192q-.02-7.68-.049-15.36c0-.5.209-.622.663-.615q1.886.03,3.773,0c.458-.007.661.122.659.618q-.038,7.68-.047,15.36l-5,0" transform="translate(-7.462 -118.135)" fill="#ab8668"/>
    <path id="Trazado_657250" data-name="Trazado 657250" d="M234.128,208.636c-.009-4.078-.012-8.157-.035-12.235,0-.443.14-.6.577-.583q1.2.035,2.392,0c.427-.012.6.125.6.574-.027,4.077-.037,8.154-.052,12.232l-3.478.012" transform="translate(-147.714 -123.562)" fill="#f2d5a9"/>
    <path id="Trazado_657251" data-name="Trazado 657251" d="M151.653,47.35a13.015,13.015,0,0,0-2.929,1.3c-.383.176-.681.342-.636-.334.219-3.3.011-6.628.427-9.918.842-6.657,6.634-12.315,13.287-13.313a16.083,16.083,0,0,1,17.592,10.655,24.114,24.114,0,0,1,.9,7.541,169.425,169.425,0,0,0,1.337,18.15,1.122,1.122,0,0,1-.656,1.316,34.715,34.715,0,0,1-8.485,3.189c-.386.095-.553.022-.569-.42a2.326,2.326,0,0,1,1.045-2.354c5.272-3.729,7.546-8.883,6.623-15.3-.454-3.158-2.537-5.058-5.435-6.151a55.94,55.94,0,0,0-7.574-1.859,19.564,19.564,0,0,1-7.675-3.139c-1.086-.812-2.121-.352-2.334.985a5.723,5.723,0,0,1-3.9,4.489c-.394.165-.811.276-1.216.415-.692.238-1.205.631-1.165,1.447a1.35,1.35,0,0,0,1.355,1.35q0,.977,0,1.953" transform="translate(-93.441 -15.714)" fill="#cb9e6b"/>
    <path id="Trazado_657252" data-name="Trazado 657252" d="M50.929,40.88c4.5-.367,9.006-.709,13.351-2.073.9-.282,1.779-.615,2.669-.925.186,1.232.348,2.468.569,3.694a3.71,3.71,0,0,0,.937,2.222c-.033,1.415.387,1.853,1.791,1.873a5.911,5.911,0,0,1,1.64.126,1.632,1.632,0,0,1,1.248,1.624,1.648,1.648,0,0,1-1.257,1.711c-1.786.541-1.787.538-1.928,2.336A12.74,12.74,0,0,1,59.384,63.227a9.4,9.4,0,0,1-1.092.079c-.022-.379-.362-.488-.6-.635a14.4,14.4,0,0,1-3.081-2.545,13.49,13.49,0,0,1-3.68-9.678,1.525,1.525,0,0,0,1.32-1.779c-.021-.334-.007-.67,0-1.005a1.351,1.351,0,0,0-1.314-1.541q0-2.621,0-5.242M57.2,58.3a5.556,5.556,0,0,0,4.1-1.964,1.358,1.358,0,0,0-.025-1.977,1.341,1.341,0,0,0-1.9.039c-1.831,1.528-2.537,1.528-4.354,0a1.364,1.364,0,0,0-1.988,1.868A5.555,5.555,0,0,0,57.2,58.3m4.948-10.081c0,.275-.018.55,0,.823A1.36,1.36,0,0,0,63.477,50.4a1.341,1.341,0,0,0,1.379-1.213,5.125,5.125,0,0,0,.043-.911c0-1.477-.427-2.163-1.367-2.188s-1.4.652-1.388,2.131" transform="translate(-32.135 -23.904)" fill="#ba9676"/>
    <path id="Trazado_657253" data-name="Trazado 657253" d="M174.6,67.81c.338-.574.558-1.422,1.052-1.635.383-.165,1.1.479,1.683.732a47.223,47.223,0,0,0,9.191,2.471,18.585,18.585,0,0,1,4.192,1.3,5.142,5.142,0,0,1,2.992,4.31,12.875,12.875,0,0,1-10.08,13.888c-.358.069-.724.1-1.086.149a16.513,16.513,0,0,1-4.527-3.615,14.628,14.628,0,0,1-3.385-9.223c1.239-.392,1.44-.695,1.442-2.169,0-1.57-.182-1.859-1.442-2.262q-.016-1.974-.032-3.947m6.454,16.2a5.354,5.354,0,0,0,4.127-2.066,1.354,1.354,0,0,0-1.9-1.916,6.393,6.393,0,0,0-.475.431,2.486,2.486,0,0,1-3.611.032c-.158-.145-.3-.307-.469-.438a1.3,1.3,0,0,0-1.888.1,1.284,1.284,0,0,0-.016,1.827,5.462,5.462,0,0,0,4.228,2.029m7.606-10.069c0-.244.007-.488,0-.732a1.334,1.334,0,0,0-1.3-1.392,1.352,1.352,0,0,0-1.415,1.27,7.841,7.841,0,0,0-.007,1.733,1.342,1.342,0,0,0,1.389,1.306,1.366,1.366,0,0,0,1.331-1.452c.015-.243,0-.488,0-.732" transform="translate(-110.173 -41.74)" fill="#f7dfb7"/>
    <path id="Trazado_657254" data-name="Trazado 657254" d="M119.182,134.732a43.032,43.032,0,0,0,12.6-3.767c.432-.221.836-.5,1.252-.747a3.592,3.592,0,0,1,.376,1.009c.278,1.952,1.265,2.808,3.29,2.891a2.043,2.043,0,0,0,.917,1.792,1.533,1.533,0,0,1,.621,1.777,1.637,1.637,0,0,1-1.382,1.3,9.568,9.568,0,0,1-1.464.072c-1.3.021-1.781.482-1.8,1.766a18.294,18.294,0,0,1-.176,3.022c-.752,4.229-4.974,7.857-9.036,7.737-.8-.766-1.628-1.5-2.39-2.307a4.877,4.877,0,0,1-1.459-2.354c.16.089.324.172.478.269a5.208,5.208,0,0,0,6.837-.837c.721-.754.788-1.59.173-2.176-.57-.543-1.368-.456-2.11.23-1.38,1.275-2.564,1.279-3.942.014-.9-.825-1.432-.828-2.375-.013-.608-1.343-.294-2.769-.367-4.16.815-.131,1.35-.551,1.336-1.428-.014-.845-.549-1.213-1.336-1.293q-.022-1.4-.044-2.8m10.777,4.108a1.346,1.346,0,0,0-2.693-.007,1.346,1.346,0,1,0,2.693.007" transform="translate(-75.205 -82.169)" fill="#e6bf8d"/>
    <path id="Trazado_657255" data-name="Trazado 657255" d="M68.432,24.633a3.711,3.711,0,0,1-.937-2.223c-.221-1.225-.382-2.462-.569-3.694.193-.146.394-.283.576-.442a1.186,1.186,0,0,0,.34-1.634,1.266,1.266,0,0,0-1.7-.658,26.7,26.7,0,0,1-4.7,1.547,52.638,52.638,0,0,1-8.611,1.217c-.639.042-1.278.09-1.917.136,0-1.251-.048-2.5,0-3.752a9.1,9.1,0,0,1,2.154-5.5c.545-.674,1.469-1.013,1.7-1.946A83.8,83.8,0,0,1,65.408,7.67a2.959,2.959,0,0,1,2.783,2.293,3.448,3.448,0,0,0,1.381,1.872,4.471,4.471,0,0,1,1.941,3.675c.064,2.511.006,5.025.036,7.537.007.618-.282.714-.786.683a2.207,2.207,0,0,0-2.331.9" transform="translate(-32.112 -4.738)" fill="#5f473e"/>
    <path id="Trazado_657256" data-name="Trazado 657256" d="M181.139,143.117a5,5,0,0,0,3.24,3.012c.319.1.625.245.936.37,1.564.628,1.613.653.828,2.187a11.259,11.259,0,0,1-19.316,1.57,1.087,1.087,0,0,1-.1-.246c3.887-1,5.315-3.664,3.721-6.912.568.1,1.143.161,1.7.293a16.071,16.071,0,0,0,4.145.435,20.271,20.271,0,0,0,4.844-.71" transform="translate(-105.205 -90.297)" fill="#f2d5a9"/>
    <path id="Trazado_657257" data-name="Trazado 657257" d="M34.361,55.536a13.488,13.488,0,0,0,3.68,9.678,14.386,14.386,0,0,0,3.081,2.545c.241.148.581.256.6.635-4.728.742-10.185-2.25-12.491-6.845a12.514,12.514,0,0,1-1.367-5.008c-.091-1.742-.2-1.865-1.854-2.307a1.7,1.7,0,0,1-1.336-1.657,1.682,1.682,0,0,1,1.375-1.708,12.186,12.186,0,0,1,3.112-.1,1.685,1.685,0,0,0,1.88-1.366c.233-.823.576-1.616.784-2.445.186-.745.559-1.093,1.342-1a10.7,10.7,0,0,0,1.192.009q0,2.621,0,5.242c-1.044.175-1.405.58-1.452,1.631-.084,1.9.157,2.347,1.449,2.694" transform="translate(-15.568 -28.992)" fill="#ab8668"/>
    <path id="Trazado_657258" data-name="Trazado 657258" d="M188.491,158.3a12.086,12.086,0,0,1-2.624,5.088,17.311,17.311,0,0,1-22.63,4.195,17.585,17.585,0,0,1-2.568-1.906,17.959,17.959,0,0,0,1.377-3.2c.546.454,1.017.874,1.516,1.256a13.986,13.986,0,0,0,21.06-4.546c.014-.027.027-.055.041-.082.35-.635.377-1.738.977-1.856.663-.131,1.47.444,2.208.725a6.588,6.588,0,0,1,.642.325" transform="translate(-101.383 -99.214)" fill="#c04869"/>
    <path id="Trazado_657259" data-name="Trazado 657259" d="M136.78,119.558c-2.025-.083-3.012-.94-3.29-2.891a3.589,3.589,0,0,0-.376-1.009,1.558,1.558,0,0,0-.317-1.85,1.531,1.531,0,0,0-1.88-.041,36.625,36.625,0,0,1-11.6,3.529c.059-.479.116-.959.177-1.438a13.329,13.329,0,0,1,1.494-4.548,16.464,16.464,0,0,1,3.305-4.167,25.364,25.364,0,0,1,3.4,1.6c1.628.782,3.236,1.6,4.848,2.419a1.589,1.589,0,0,0,1.735.049c.449-.306.581.035.758.325a13.479,13.479,0,0,1,1.752,8.023" transform="translate(-75.287 -67.608)" fill="#5f473e"/>
    <path id="Trazado_657260" data-name="Trazado 657260" d="M40.857,7.933c-.232.934-1.156,1.272-1.7,1.946A9.1,9.1,0,0,0,37,15.378c-.046,1.249,0,2.5,0,3.753q-1.286.032-2.571.063a1.923,1.923,0,0,0-2.165,1.568c-.293.87-.563,1.747-.865,2.613-.4,1.145-1.354.483-2.047.562-.709.08-.468-.59-.458-.949.065-2.414-.251-4.843.176-7.24a9.559,9.559,0,0,1,4.511-6.5c2.263-1.476,4.757-1.382,7.271-1.313" transform="translate(-18.203 -4.986)" fill="#503732"/>
    <path id="Trazado_657261" data-name="Trazado 657261" d="M164,79.03a14.632,14.632,0,0,0,3.385,9.223,16.5,16.5,0,0,0,4.527,3.615,12.678,12.678,0,0,1-8.641-2.035,1.545,1.545,0,0,1-.6-.771,14.942,14.942,0,0,0-3.124-4.811,1.469,1.469,0,0,1-.445-1.138c.022-1.713,0-3.426.011-5.139a1.535,1.535,0,0,0-1.362-1.755q0-.976,0-1.953a10.666,10.666,0,0,0,6.218-3.613q.016,1.973.032,3.947c-1.231.469-1.328.638-1.325,2.307,0,1.474.126,1.672,1.326,2.124" transform="translate(-99.541 -44.582)" fill="#f2d5a9"/>
    <path id="Trazado_657262" data-name="Trazado 657262" d="M50.419,110.97a18.162,18.162,0,0,0,5.337,1.3,15.044,15.044,0,0,0,6.656-.988c.723-.283.959-.2.925.621-.076,1.822.172,3.663-.812,5.371a6.616,6.616,0,0,1-7.141,3.13,6.42,6.42,0,0,1-4.962-6.081c-.019-1.07,0-2.141,0-3.357" transform="translate(-31.811 -70.023)" fill="#ab8668"/>
    <path id="Trazado_657263" data-name="Trazado 657263" d="M102.765,147.966c.073,1.391-.241,2.817.367,4.16-.577,1.17.308,1.794.938,2.512a4.877,4.877,0,0,0,1.459,2.354c.761.8,1.59,1.541,2.39,2.307a9.213,9.213,0,0,1-8.6-4.454,9.384,9.384,0,0,1-1.528-5.485c.019-2.4-.142-2.553-2.525-2.579a1.932,1.932,0,0,1-2.062-1.2,1.824,1.824,0,0,1,1.742-2.419c2.605-.1,5.192-.366,7.774-.708q.022,1.4.044,2.8a1.236,1.236,0,0,0-1.338,1.293c-.026.88.522,1.3,1.338,1.428" transform="translate(-58.744 -89.887)" fill="#dbae7e"/>
    <path id="Trazado_657264" data-name="Trazado 657264" d="M54.83,127.311c0,1.057.007,1.9-.006,2.747a.654.654,0,0,1-.144.414,4.752,4.752,0,0,0-1.4,3.016c-.023.283-.266.379-.482.5a12.814,12.814,0,0,1-14.417-1.6,14.021,14.021,0,0,1-3.9-5.911c-.243-.7-.121-1.056.642-1.22s1.588-.727,2.277-.587c.786.161.63,1.295.965,1.971a9.253,9.253,0,0,0,16.08,1.209c.085-.124.174-.245.387-.544" transform="translate(-21.685 -78.656)" fill="#3e92d2"/>
    <path id="Trazado_657265" data-name="Trazado 657265" d="M8.24,136.3a19.828,19.828,0,0,0,3.154,3.862,1.6,1.6,0,0,0,.086,2.032c.037.049.068.1.1.153,2.768,4.211,2.762,4.211,2.605,9.286-.015.479-.087.72-.649.71-1.806-.031-3.613-.024-5.419,0-.465.005-.638-.12-.636-.614.018-4.439,0-8.878.022-13.317A3,3,0,0,1,8.24,136.3" transform="translate(-4.721 -86.008)" fill="#3e92d2"/>
    <path id="Trazado_657266" data-name="Trazado 657266" d="M110.42,106.923a16.464,16.464,0,0,0-3.305,4.167,13.329,13.329,0,0,0-1.494,4.548c-.061.479-.118.959-.177,1.438a64.251,64.251,0,0,1-7.382.782c-.569.034-.776-.158-.719-.729a13.813,13.813,0,0,1,1.873-5.987c.11-.179.2-.6.5-.324.88.8,1.667.269,2.449-.115,2.423-1.189,4.83-2.41,7.25-3.6.305-.151.606-.488,1-.175" transform="translate(-61.419 -67.388)" fill="#503732"/>
    <path id="Trazado_657267" data-name="Trazado 657267" d="M185.873,136.247a20.271,20.271,0,0,1-4.844.71,16.07,16.07,0,0,1-4.145-.435c-.559-.132-1.135-.2-1.7-.293-1.269-1.074-.875-2.539-.953-4.018a21.28,21.28,0,0,0,4.057,1.171,15.124,15.124,0,0,0,6.539-.354c.708-.208.927-.071.856.665a9.372,9.372,0,0,0,.193,2.555" transform="translate(-109.939 -83.426)" fill="#e6bf8d"/>
    <path id="Trazado_657268" data-name="Trazado 657268" d="M125.916,203.576c.317.18.624.384.955.536.973.45.976.442.145,1.2a8.067,8.067,0,0,1-11.055-.182,1.225,1.225,0,0,1-.493-.694,7.474,7.474,0,0,0,1.78-.854c1.1-.017,2.138.37,3.239.386a29.121,29.121,0,0,0,5.429-.394" transform="translate(-72.861 -128.458)" fill="#dbae7e"/>
    <path id="Trazado_657269" data-name="Trazado 657269" d="M232.975,172.4c1.521-1.285,2.826-2.792,4.267-4.16.283-.269.506-.627.938-.7a2.122,2.122,0,0,1,.344,1.376c.02,1.862-.013,3.726.021,5.588.011.587-.211.719-.745.705-1.221-.031-2.445-.043-3.664,0-.639.024-.778-.239-.749-.8a2.631,2.631,0,0,0-.411-2.007" transform="translate(-147.009 -105.718)" fill="#c04869"/>
    <path id="Trazado_657270" data-name="Trazado 657270" d="M128.96,198.059a29.121,29.121,0,0,1-5.429.394c-1.1-.016-2.143-.4-3.239-.386a3.24,3.24,0,0,0,.965-2.577c-.057-.665.168-.738.779-.6a11.386,11.386,0,0,0,5.188,0c.583-.134.848-.109.782.58a3.215,3.215,0,0,0,.954,2.581" transform="translate(-75.905 -122.941)" fill="#cb9e6b"/>
    <path id="Trazado_657271" data-name="Trazado 657271" d="M145.384,95.629v4.932L140.452,98.1l4.932-2.468" transform="translate(-88.626 -60.343)" fill="#f8da76"/>
    <path id="Trazado_657272" data-name="Trazado 657272" d="M115.231,98.109l-4.927,2.46V95.65l4.927,2.459" transform="translate(-69.603 -60.356)" fill="#f8da76"/>
    <path id="Trazado_657273" data-name="Trazado 657273" d="M60.181,85.841a5.555,5.555,0,0,1-4.17-2.032A1.364,1.364,0,0,1,58,81.94c1.817,1.527,2.524,1.527,4.354,0a1.34,1.34,0,0,1,1.9-.039,1.357,1.357,0,0,1,.025,1.977,5.554,5.554,0,0,1-4.1,1.964" transform="translate(-35.12 -51.441)" fill="#030302"/>
    <path id="Trazado_657274" data-name="Trazado 657274" d="M81.316,62.26c-.007-1.478.437-2.156,1.388-2.131s1.372.711,1.367,2.188a5.123,5.123,0,0,1-.043.911,1.341,1.341,0,0,1-1.379,1.213,1.36,1.36,0,0,1-1.329-1.359c-.021-.273,0-.548,0-.823" transform="translate(-51.306 -37.942)" fill="#030302"/>
    <path id="Trazado_657275" data-name="Trazado 657275" d="M48.427,64.539c-1.293-.347-1.534-.8-1.449-2.694.046-1.051.408-1.456,1.452-1.631a1.351,1.351,0,0,1,1.313,1.541c0,.335-.018.671,0,1.005a1.526,1.526,0,0,1-1.32,1.779" transform="translate(-29.634 -37.995)" fill="#030302"/>
    <path id="Trazado_657276" data-name="Trazado 657276" d="M184.22,107.175a5.462,5.462,0,0,1-4.228-2.029,1.284,1.284,0,0,1,.016-1.827,1.3,1.3,0,0,1,1.888-.1c.169.13.312.293.469.438a2.486,2.486,0,0,0,3.611-.032,6.39,6.39,0,0,1,.475-.431,1.354,1.354,0,0,1,1.9,1.916,5.354,5.354,0,0,1-4.127,2.066" transform="translate(-113.34 -64.902)" fill="#030302"/>
    <path id="Trazado_657277" data-name="Trazado 657277" d="M207.976,83.631c0,.244.014.489,0,.732a1.365,1.365,0,0,1-1.331,1.452,1.341,1.341,0,0,1-1.389-1.306,7.8,7.8,0,0,1,.006-1.733,1.352,1.352,0,0,1,1.415-1.27,1.335,1.335,0,0,1,1.3,1.392c.009.244,0,.488,0,.732" transform="translate(-129.489 -51.426)" fill="#030302"/>
    <path id="Trazado_657278" data-name="Trazado 657278" d="M172.42,85.78c-1.2-.452-1.323-.651-1.326-2.124,0-1.669.094-1.838,1.325-2.307,1.26.4,1.444.691,1.442,2.262,0,1.474-.2,1.778-1.442,2.169" transform="translate(-107.962 -51.332)" fill="#030302"/>
    <path id="Trazado_657279" data-name="Trazado 657279" d="M120.911,170.145c-.631-.719-1.516-1.343-.939-2.512.944-.815,1.477-.813,2.376.013,1.378,1.265,2.561,1.26,3.942-.015.742-.686,1.54-.773,2.11-.23.615.586.548,1.422-.173,2.176a5.209,5.209,0,0,1-6.838.837c-.155-.1-.318-.179-.478-.269" transform="translate(-75.585 -105.393)" fill="#030302"/>
    <path id="Trazado_657280" data-name="Trazado 657280" d="M143.784,151.295a1.346,1.346,0,1,1-2.693-.007,1.346,1.346,0,0,1,2.693.007" transform="translate(-89.03 -94.624)" fill="#030302"/>
    <path id="Trazado_657281" data-name="Trazado 657281" d="M117.01,152.748c-.816-.13-1.364-.548-1.338-1.428a1.236,1.236,0,0,1,1.338-1.293c.786.079,1.322.447,1.335,1.292.014.877-.521,1.3-1.336,1.428" transform="translate(-72.99 -94.669)" fill="#030302"/>
  </g>
</svg>
