<svg xmlns="http://www.w3.org/2000/svg" xmlns:xlink="http://www.w3.org/1999/xlink" width="521" height="521" viewBox="0 0 521 521">
  <defs>
    <clipPath id="clip-path">
      <rect id="Rectángulo_309990" data-name="Rectángulo 309990" width="481.777" height="446.674" fill="none"/>
    </clipPath>
    <clipPath id="clip-path-2">
      <rect id="Rectángulo_312806" data-name="Rectángulo 312806" width="92.979" height="68.95" fill="none"/>
    </clipPath>
    <clipPath id="clip-path-3">
      <rect id="Rectángulo_312809" data-name="Rectángulo 312809" width="61.601" height="51.602" fill="#fff"/>
    </clipPath>
    <clipPath id="clip-path-4">
      <rect id="Rectángulo_312808" data-name="Rectángulo 312808" width="72.05" height="72.017" fill="none"/>
    </clipPath>
    <clipPath id="clip-path-5">
      <rect id="Rectángulo_312807" data-name="Rectángulo 312807" width="81.992" height="75.154" fill="none"/>
    </clipPath>
  </defs>
  <g id="Grupo_995907" data-name="Grupo 995907" transform="translate(-540 -6643)">
    <g id="Grupo_995897" data-name="Grupo 995897" transform="translate(0.111 -1155.663)">
      <g id="Grupo_995772" data-name="Grupo 995772" transform="translate(559.111 7806.663)">
        <g id="Grupo_995771" data-name="Grupo 995771" clip-path="url(#clip-path)">
          <path id="Trazado_655779" data-name="Trazado 655779" d="M231.958,0A135.068,135.068,0,0,0,104.07,178.231a135.146,135.146,0,0,1,126.071,49.814,134.677,134.677,0,0,1,21.969,40.4A134.978,134.978,0,0,0,231.958,0" transform="translate(10.746)" fill="#face55"/>
          <path id="Trazado_655780" data-name="Trazado 655780" d="M219.115,250.254a134.723,134.723,0,0,1,21.773-39.838,134.97,134.97,0,1,0,0,167.315,135.158,135.158,0,0,1-21.773-127.478" transform="translate(0 17.629)" fill="#fff2d0"/>
          <path id="Trazado_655781" data-name="Trazado 655781" d="M349.266,160.957A135.153,135.153,0,0,1,197.985,250.05a134.985,134.985,0,1,0,151.281-89.093" transform="translate(21.13 17.834)" fill="#f57676"/>
          <path id="Trazado_655782" data-name="Trazado 655782" d="M197.259,245.136a136.1,136.1,0,0,0,43.742.559,134.677,134.677,0,0,0-21.969-40.4,134.723,134.723,0,0,0-21.773,39.838" transform="translate(21.856 22.747)" fill="#f7f9fa"/>
        </g>
      </g>
      <text id="Familias" transform="translate(764 7959)" fill="#12263f" font-size="18" font-family="Roboto-Black, Roboto" font-weight="800"><tspan x="-34.11" y="19">Familias</tspan></text>
      <text id="Profesionales" transform="translate(859.5 8165)" fill="#12263f" font-size="18" font-family="Roboto-Black, Roboto" font-weight="800"><tspan x="-56.298" y="19">Profesionales</tspan></text>
      <text id="Herramientas_Metodológicas" data-name="Herramientas Metodológicas" transform="translate(623 8165)" fill="#12263f" font-size="18" font-family="Roboto-Black, Roboto" font-weight="800"><tspan x="-55.367" y="19">Herramientas </tspan><tspan x="-60.157" y="41">Metodológicas</tspan></text>
      <g id="Grupo_995779" data-name="Grupo 995779" transform="translate(19.5 134)">
        <circle id="Elipse_8210" data-name="Elipse 8210" cx="46" cy="46" r="46" transform="translate(623 7922)" fill="#1cf290"/>
        <g id="Grupo_995899" data-name="Grupo 995899" transform="translate(622.021 7933.525)">
          <g id="Grupo_995898" data-name="Grupo 995898" clip-path="url(#clip-path-2)">
            <path id="Trazado_657225" data-name="Trazado 657225" d="M26.139,98.21c-.373,1.213-.661,1.45-1.941,1.423-2.531-.053-5.08.237-7.576-.484a12.092,12.092,0,0,1-5.186-2.85c-1.085-1.052-2.345-.445-3.523-.591-.154-.019-.211.184-.262.328A1.625,1.625,0,0,1,5.87,97.123c-1.362-.019-2.724.006-4.085-.008a1.572,1.572,0,0,1-1.78-1.789q-.011-8.346,0-16.692a1.56,1.56,0,0,1,1.706-1.78,39.225,39.225,0,0,1,4.354.026A21.268,21.268,0,0,0,9,77.244a1.85,1.85,0,0,0,1.349-.583c2.038-2.068,4.146-4.07,6.141-6.179a9.363,9.363,0,0,1,7.53-3.1c.562.023,1.05.07,1.352-.671.319-.784,1.11-.879,2.21-.456a1.719,1.719,0,0,0,2-.4,1.666,1.666,0,0,0,.382-1.843,1.763,1.763,0,0,0-2.312-1c-1.764.607-2.576.031-2.578-1.833,0-2-.006-3.992,0-5.988,0-1.357.569-1.931,1.931-1.946q2.178-.025,4.357,0c.433.006.6-.064.628-.577a4.471,4.471,0,0,1,8.939-.1c.039.572.21.681.739.678,3.813-.022,7.625-.016,11.438-.01,1.781,0,2.373.863,1.795,2.552a1.719,1.719,0,0,0,.577,2.108,1.611,1.611,0,0,0,2.1,0,1.678,1.678,0,0,0,.568-2.1c-.628-1.667,0-2.557,1.8-2.563,2-.007,3.994-.011,5.991,0,1.42.009,1.98.577,1.986,1.984.006,1.452,0,2.9,0,4.355,0,.294-.08.582.429.569a4.51,4.51,0,0,1,3.614,7.292c-.032.041-.021.115-.035.209a9.643,9.643,0,0,1,4.606,2.875c1.875,1.931,3.892,3.733,5.672,5.746,1.075,1.216,2.333,1.092,3.55.857a13.88,13.88,0,0,1,2.489-.282c.968-.011,1.937-.018,2.905,0,1.268.025,1.831.587,1.832,1.843q.01,8.3,0,16.6c0,1.252-.575,1.814-1.839,1.824-1.392.011-2.784,0-4.176,0a1.5,1.5,0,0,1-1.582-.971.609.609,0,0,0-.734-.471,3.869,3.869,0,0,1-.816,0,3.206,3.206,0,0,0-2.678.948,12.23,12.23,0,0,1-8.07,3c-4.629.049-9.259.021-13.889.009A3.43,3.43,0,0,1,55.618,96.2c-.012-.242,0-.484,0-.726,0-1.116.306-2.263-1.048-3.007a2.229,2.229,0,0,1-.811-2.031c.024-1.283-.247-2.614.547-3.788a.278.278,0,0,0,0-.334c-.8-1.205-.515-2.566-.555-3.879-.008-.269.043-.469-.361-.575-2.978-.786-4.18-2.78-3.461-5.754H43.053a4.525,4.525,0,0,1-.59,4.034,4.03,4.03,0,0,1-2.689,1.7c-.49.074-.553.254-.555.683-.007,1.285.237,2.614-.545,3.79a.349.349,0,0,0,.042.414c.8,1.28.534,2.7.467,4.068a2.89,2.89,0,0,1-1.5,2.361.721.721,0,0,0-.388.87,9.048,9.048,0,0,1-.008,2.71,3.366,3.366,0,0,1-3.322,2.9c-.846.025-1.694.009-2.542,0-1.113-.008-1.462-.293-1.756-1.412a1.5,1.5,0,0,1,1.752-1.316c.392.027.786,0,1.18,0,2.1,0,2.082,0,2.044-2.113-.014-.772-.33-1.1-1.1-1.083-1.119.023-2.238,0-3.357.006a1.47,1.47,0,0,1-1.224-.471A1.369,1.369,0,0,1,30.1,91.008C31.548,90.992,33,91,34.452,91c2.087,0,2.059,0,2.07-2.061,0-.833-.315-1.125-1.129-1.107-1.724.037-3.448.022-5.172.007-.99-.009-1.562-.537-1.556-1.379s.568-1.329,1.585-1.337c1.422-.011,2.844,0,4.265,0,2.017,0,1.983,0,2.01-2.042.011-.885-.339-1.175-1.183-1.159-1.754.034-3.509.035-5.263-.005A1.333,1.333,0,0,1,28.79,79.98,1.549,1.549,0,0,1,30.4,79.2c2.813.006,5.626.015,8.439-.008a1.537,1.537,0,0,0,1.7-1.588,1.554,1.554,0,0,0-1.726-1.563c-.968-.016-1.936.013-2.9-.01a1.5,1.5,0,0,1-1.587-1.385A1.666,1.666,0,0,1,36.255,73.3c2.631.049,5.264-.01,7.9.033.734.012,1.006-.156.977-.939-.061-1.6-.033-3.2-.014-4.806.02-1.634.89-2.151,2.365-1.433a1.787,1.787,0,0,0,2.222-.362,1.758,1.758,0,0,0,.036-2.252A1.74,1.74,0,0,0,47.53,63.1c-1.6.742-2.407.241-2.419-1.523-.011-1.633-.021-3.266.008-4.9.01-.553-.171-.739-.727-.726-1.723.039-3.447.032-5.171.044-1.367-.466-1.67-1.106-1.171-2.482a1.755,1.755,0,0,0-.557-2.186,1.689,1.689,0,0,0-2.105.028,1.772,1.772,0,0,0-.5,2.2c.546,1.463-.072,2.4-1.617,2.408-1.572.013-3.144.024-4.716-.008-.567-.012-.818.115-.778.743a21.3,21.3,0,0,1,0,2.536c-.035.648.095.9.848.953a4.467,4.467,0,0,1,.513,8.856c-1.387.286-1.387.286-1.345,1.758a1.6,1.6,0,0,0,.024.18c-.01.359-.027.719-.028,1.079,0,1.249,0,1.249,1.216,1.261,1.174.011,1.444.214,1.792,1.345-.146.755-.533,1.335-1.348,1.355q-2.721.065-5.446,0a1.27,1.27,0,0,1-1.3-1.169,1.309,1.309,0,0,1,.764-1.414,1.465,1.465,0,0,1,.888-.112c.544.063.765-.1.718-.687-.053-.661-.014-1.33-.012-2,0-.282.015-.522-.4-.541-2.185-.1-4.2.218-5.83,1.9-2.084,2.15-4.268,4.2-6.33,6.374a4.368,4.368,0,0,1-3.851,1.58c-.69-.08-.926.134-.918.874.041,3.659.051,7.319,0,10.977-.013.919.187,1.292,1.16,1.169a5.39,5.39,0,0,1,4.772,1.624,8.3,8.3,0,0,0,4.094,2.024,29.552,29.552,0,0,0,6.509.279,1.661,1.661,0,0,1,1.872,1.314M47.911,70.972a7.244,7.244,0,0,0-.079,1.438c-.085.691.145.934.889.924,3.206-.043,6.412-.016,9.618-.024.188,0,.417.1.612-.159a6.832,6.832,0,0,1-.828-3.989l.034-.037-.019-.047.125-.274.592-.863A3.577,3.577,0,0,1,61,67.361c1.177.03,2.355.012,3.533,0,.283,0,.538.053.753-.308.694-1.17,1.115-1.287,2.376-.828a1.765,1.765,0,0,0,2.18-.553,1.738,1.738,0,0,0-.024-2.114,1.781,1.781,0,0,0-2.2-.493c-1.475.551-2.421-.1-2.429-1.682q-.013-2.4,0-4.8c0-.363-.009-.648-.508-.637-1.056.024-2.114.012-3.17,0-.319,0-.51.07-.5.449a4.668,4.668,0,0,1-1.986,3.866c-3.545,1.72-6.454.157-6.991-3.786-.063-.465-.25-.534-.631-.529-.968.012-1.937.021-2.905,0-.469-.012-.649.155-.635.628a24.416,24.416,0,0,1-.008,2.539c-.056.749.141,1,.954,1.076a4.388,4.388,0,0,1,4.041,4.177,4.437,4.437,0,0,1-3.605,4.655c-1.441.3-1.441.3-1.35,1.856a.539.539,0,0,0,.019.088m38.706,12.15c-1.2-.388-1.447-.681-1.378-2.071.044-.863-.181-1.2-1.084-1.1a4.005,4.005,0,0,1-3.476-1.383c-2.162-2.243-4.4-4.411-6.6-6.622a5.809,5.809,0,0,0-4.124-1.822c-2.844-.05-5.689-.012-8.533-.041-.612-.006-.617.253-.5.722a3.24,3.24,0,0,0,3.255,2.5c1.543.023,3.086,0,4.629.009,1.084.008,1.534.438,1.631,1.511a4.812,4.812,0,0,0,4.7,4.708c1.012.094,1.544.6,1.514,1.442s-.6,1.294-1.629,1.28a7.527,7.527,0,0,1-7.012-5.47.877.877,0,0,0-1.053-.763c-1.815.036-3.631.013-5.446.013-2.451,0-4.9-.011-7.353.007a1.541,1.541,0,0,0-1.7,1.753c.089.907.722,1.392,1.886,1.4,3.328.009,6.657-.007,9.985.008a3.344,3.344,0,0,1,3.56,2.828c.11,1.394.355,2.846-.425,4.167a.5.5,0,0,0-.03.508,6.549,6.549,0,0,1,.01,5.425.427.427,0,0,0-.024.428c.764,1.153.518,2.454.515,3.707,0,.523.13.675.647.661,1.209-.034,2.421-.031,3.631-.007a10.665,10.665,0,0,0,7.918-2.995,3.432,3.432,0,0,1,2.468-.966c.635,0,1.273-.032,1.906.009.543.036.748-.122.729-.7-.042-1.269-.021-2.54-.011-3.81.01-1.147.294-1.5,1.389-1.777a1.465,1.465,0,0,1,1.34,1.712c-.029,1.448-.007,2.9-.007,4.345,0,1.76,0,1.744,1.742,1.668.419-.018.593-.118.574-.561-.03-.723-.008-1.448-.008-2.173,0-3.772,0-7.544-.009-11.316,0-.281.2-.67-.328-.8-1.458-.348-1.969.017-1.971,1.457a2.7,2.7,0,0,0,0,.271,1.532,1.532,0,0,1-1.328,1.833M2.725,86.993c0,2.233.016,4.465-.012,6.7-.006.529.092.805.684.712a2.37,2.37,0,0,1,.723,0c.767.12.938-.2.931-.944-.037-4.133-.006-8.266-.024-12.4-.007-1.722.318-1.451-1.549-1.507-.575-.017-.78.126-.769.744.039,2.232.015,4.465.015,6.7m58.108-1.873h2.355c2.078,0,2.051,0,2.057-2.078,0-.818-.3-1.143-1.116-1.129-1.841.03-3.683.009-5.524.009-2.2,0-2.18,0-2.147,2.172.011.73.292,1.047,1.025,1.032,1.117-.023,2.234-.006,3.351-.006M60.826,91h2.36c2.08,0,2.051,0,2.056-2.072,0-.844-.336-1.109-1.142-1.093-1.845.037-3.692.019-5.538.009-2.291-.012-2.071-.123-2.1,2.119-.012.81.346,1.065,1.1,1.045,1.089-.03,2.179-.008,3.268-.007m.954,5.919h1.36c2.14,0,2.116,0,2.1-2.124,0-.78-.3-1.1-1.074-1.08-1.239.025-2.478.018-3.716,0-2.249-.026-2.139-.1-2.113,2.317a.792.792,0,0,0,.9.885c.846-.008,1.692,0,2.538,0" transform="translate(0 -30.703)" fill="#040303"/>
            <path id="Trazado_657226" data-name="Trazado 657226" d="M39.657,136.353a1.661,1.661,0,0,0-1.872-1.314,29.552,29.552,0,0,1-6.509-.278,8.3,8.3,0,0,1-4.094-2.024,5.39,5.39,0,0,0-4.772-1.623c-.972.123-1.173-.25-1.16-1.169.055-3.658.045-7.318,0-10.977-.008-.74.228-.954.917-.874a4.37,4.37,0,0,0,3.851-1.58c2.062-2.171,4.246-4.225,6.33-6.375,1.628-1.679,3.645-2,5.831-1.9.416.019.4.259.4.541,0,.665-.041,1.334.012,2,.047.583-.175.75-.718.687a1.461,1.461,0,0,0-.888.112,1.308,1.308,0,0,0-.764,1.414,1.269,1.269,0,0,0,1.3,1.169q2.722.061,5.446,0c.815-.019,1.2-.6,1.348-1.355l3.521-.013a1.5,1.5,0,0,0,1.587,1.385c.968.023,1.936-.006,2.9.01a1.553,1.553,0,0,1,1.726,1.562,1.537,1.537,0,0,1-1.7,1.588c-2.813.023-5.626.014-8.439.008a1.549,1.549,0,0,0-1.606.78,1.333,1.333,0,0,0,1.288,1.932q2.63.06,5.263.005c.845-.016,1.195.274,1.183,1.158-.026,2.042.007,2.042-2.01,2.042-1.422,0-2.844-.008-4.265,0-1.017.008-1.578.494-1.585,1.337s.566,1.371,1.556,1.38c1.724.015,3.449.03,5.172-.007.814-.017,1.134.275,1.129,1.107-.011,2.06.017,2.06-2.07,2.061-1.452,0-2.9-.007-4.355.009a1.369,1.369,0,0,0-1.124,2.246,1.469,1.469,0,0,0,1.224.47c1.119,0,2.239.017,3.357-.006.765-.015,1.081.31,1.1,1.083.038,2.113.058,2.113-2.044,2.113-.393,0-.788.022-1.18,0a1.5,1.5,0,0,0-1.752,1.316l-3.535-.016" transform="translate(-13.518 -68.846)" fill="#f5d1a8"/>
            <path id="Trazado_657227" data-name="Trazado 657227" d="M155.509,20.8c-3.183-.005-5.083-2.984-3.8-5.526a53.9,53.9,0,0,1,2.809-4.852,3.846,3.846,0,0,1,6.655,3.812c-.868,1.687-1.839,3.326-2.853,4.931a3.438,3.438,0,0,1-2.813,1.636m3.332-8.1c-.067-.615-.282-1.031-.822-1.168a1.141,1.141,0,0,0-1.375.6c-.767,1.329-1.542,2.654-2.3,3.989-.468.823-.369,1.424.259,1.8s1.235.163,1.708-.64q1.122-1.906,2.21-3.832a6.3,6.3,0,0,0,.318-.744" transform="translate(-96.251 -5.553)" fill="#040403"/>
            <path id="Trazado_657228" data-name="Trazado 657228" d="M79.453,8.774A3.7,3.7,0,0,1,82.7,10.6c.911,1.492,1.791,3.005,2.615,4.547a3.848,3.848,0,0,1-6.642,3.879c-.943-1.506-1.843-3.046-2.665-4.621a3.828,3.828,0,0,1,3.446-5.633M81.964,18.1a1.129,1.129,0,0,0,.894-1.783c-.769-1.4-1.587-2.767-2.389-4.146a1.1,1.1,0,0,0-1.607-.51,1.075,1.075,0,0,0-.383,1.631c.788,1.387,1.594,2.763,2.392,4.145a1.155,1.155,0,0,0,1.093.663" transform="translate(-48.062 -5.581)" fill="#040403"/>
            <path id="Trazado_657229" data-name="Trazado 657229" d="M116.826,6.358c0-.846-.024-1.693.006-2.537a3.87,3.87,0,0,1,7.737-.1c.073,1.749.064,3.5,0,5.255a3.873,3.873,0,0,1-7.744-.079c-.026-.845,0-1.691,0-2.537m2.722-.078c0,.814-.011,1.627,0,2.44.012.723.322,1.225,1.105,1.277.714.048,1.189-.43,1.2-1.268q.038-2.35,0-4.7c-.012-.8-.533-1.36-1.195-1.295A1.161,1.161,0,0,0,119.55,4.02c-.01.753,0,1.506,0,2.26" transform="translate(-74.312 0.001)" fill="#040403"/>
            <path id="Trazado_657230" data-name="Trazado 657230" d="M178.3,124.826c-1.1.279-1.379.63-1.389,1.777-.011,1.27-.031,2.541.01,3.81.019.578-.186.735-.729.7-.633-.041-1.27-.009-1.906-.009a3.431,3.431,0,0,0-2.468.966,10.665,10.665,0,0,1-7.918,2.995c-1.21-.024-2.421-.027-3.631.007-.517.015-.648-.138-.647-.661,0-1.253.249-2.554-.515-3.707a.427.427,0,0,1,.024-.428,6.549,6.549,0,0,0-.01-5.425.506.506,0,0,1,.03-.508c.78-1.322.535-2.774.425-4.167a3.344,3.344,0,0,0-3.56-2.828c-3.328-.015-6.657,0-9.985-.008-1.164,0-1.8-.489-1.886-1.4a1.541,1.541,0,0,1,1.7-1.753c2.451-.018,4.9-.007,7.353-.007,1.815,0,3.631.023,5.446-.013a.877.877,0,0,1,1.053.763,7.527,7.527,0,0,0,7.012,5.47c1.027.014,1.6-.435,1.63-1.28s-.5-1.348-1.514-1.442a4.812,4.812,0,0,1-4.7-4.708c-.1-1.072-.547-1.5-1.631-1.511-1.543-.012-3.087.014-4.629-.009a3.24,3.24,0,0,1-3.255-2.5c-.113-.469-.108-.728.5-.722,2.844.029,5.689-.009,8.532.041a5.808,5.808,0,0,1,4.124,1.822c2.195,2.212,4.434,4.379,6.6,6.622a4.008,4.008,0,0,0,3.476,1.383c.9-.1,1.128.235,1.084,1.1-.07,1.39.182,1.683,1.378,2.071q0,1.779-.006,3.559" transform="translate(-91.693 -68.849)" fill="#ca8a7b"/>
            <path id="Trazado_657231" data-name="Trazado 657231" d="M82.913,88.078l-3.521.013c-.347-1.131-.617-1.334-1.791-1.345-1.217-.012-1.219-.012-1.216-1.261,0-.359.019-.719.028-1.079q2.989,0,5.979,0a5.455,5.455,0,0,0,5.423-5.391c.013-3.2,0-6.4,0-9.6,1.724-.011,3.448-.005,5.171-.044.556-.012.737.173.727.726-.029,1.632-.018,3.265-.008,4.9.012,1.764.816,2.266,2.419,1.524a1.74,1.74,0,0,1,2.206.442,1.758,1.758,0,0,1-.036,2.252,1.787,1.787,0,0,1-2.222.362c-1.475-.718-2.345-.2-2.365,1.433-.019,1.6-.047,3.206.014,4.807.029.783-.242.951-.977.939-2.631-.042-5.264.016-7.9-.033a1.666,1.666,0,0,0-1.934,1.348" transform="translate(-48.591 -44.135)" fill="#80c457"/>
            <path id="Trazado_657232" data-name="Trazado 657232" d="M87.78,60.72c0,3.2.015,6.4,0,9.6a5.455,5.455,0,0,1-5.423,5.391q-2.989,0-5.979,0a1.674,1.674,0,0,1-.024-.179c-.042-1.472-.041-1.472,1.345-1.758a4.467,4.467,0,0,0-.513-8.856c-.754-.056-.883-.305-.848-.953a21.373,21.373,0,0,0,0-2.536c-.041-.628.21-.755.778-.743,1.572.032,3.144.021,4.716.008,1.544-.013,2.163-.945,1.616-2.408a1.772,1.772,0,0,1,.5-2.2,1.69,1.69,0,0,1,2.106-.028,1.756,1.756,0,0,1,.557,2.186c-.5,1.375-.2,2.016,1.171,2.482" transform="translate(-48.559 -35.431)" fill="#91cd6e"/>
            <path id="Trazado_657233" data-name="Trazado 657233" d="M141.784,82.516l.019.047-.034.037a.746.746,0,0,0-.55.27,5.173,5.173,0,0,1-4.154,1.56c-1.835-.056-3.672-.017-5.508-.019a.6.6,0,0,1-.019-.089c-.091-1.553-.091-1.553,1.35-1.856a4.437,4.437,0,0,0,3.605-4.655,4.388,4.388,0,0,0-4.041-4.177c-.813-.075-1.01-.326-.954-1.076a24.416,24.416,0,0,0,.008-2.539c-.014-.473.166-.64.635-.628.968.025,1.937.015,2.905,0,.381,0,.568.064.631.529.537,3.944,3.446,5.506,6.991,3.786.289.27.183.624.172.941-.075,2.245.262,4.511-.339,6.729l-.592.863-.125.274" transform="translate(-83.646 -44.142)" fill="#e97041"/>
            <path id="Trazado_657234" data-name="Trazado 657234" d="M161.753,81.378c.6-2.218.264-4.484.339-6.729.01-.316.117-.671-.172-.941a4.668,4.668,0,0,0,1.986-3.866c-.007-.379.184-.452.5-.449,1.057.008,2.114.019,3.171,0,.5-.011.509.274.507.637q-.01,2.4,0,4.8c.008,1.584.954,2.233,2.429,1.682a1.781,1.781,0,0,1,2.2.493,1.738,1.738,0,0,1,.023,2.114,1.764,1.764,0,0,1-2.18.553c-1.261-.459-1.681-.341-2.375.829-.215.362-.47.306-.753.308-1.178.007-2.356.025-3.533,0a3.573,3.573,0,0,0-2.142.58" transform="translate(-102.897 -44.141)" fill="#e85f38"/>
            <path id="Trazado_657235" data-name="Trazado 657235" d="M238.034,141.18q0-1.779.006-3.559a1.531,1.531,0,0,0,1.328-1.833c-.008-.09,0-.181,0-.271,0-1.439.513-1.8,1.971-1.457.525.125.327.514.328.8.014,3.772.009,7.544.009,11.316,0,.724-.022,1.449.008,2.172.019.444-.155.543-.574.561-1.743.076-1.742.091-1.743-1.668,0-1.449-.021-2.9.008-4.345a1.466,1.466,0,0,0-1.34-1.712" transform="translate(-151.423 -85.203)" fill="#e45459"/>
            <path id="Trazado_657236" data-name="Trazado 657236" d="M7.463,141.691c0-2.232.024-4.465-.015-6.7-.011-.618.195-.761.769-.744,1.867.056,1.542-.215,1.55,1.507.017,4.133-.014,8.267.024,12.4.007.739-.164,1.064-.932.944a2.371,2.371,0,0,0-.723,0c-.592.093-.69-.183-.684-.712.027-2.232.012-4.465.012-6.7" transform="translate(-4.737 -85.401)" fill="#51b7eb"/>
            <path id="Trazado_657237" data-name="Trazado 657237" d="M159.526,143.947c-1.117,0-2.234-.017-3.351.006-.733.015-1.014-.3-1.025-1.032-.033-2.172-.052-2.172,2.147-2.172,1.841,0,3.683.021,5.524-.009.818-.013,1.118.311,1.116,1.129-.006,2.078.021,2.078-2.057,2.078h-2.355" transform="translate(-98.693 -89.53)" fill="#d99a8b"/>
            <path id="Trazado_657238" data-name="Trazado 657238" d="M131.508,107.505c1.836,0,3.673-.037,5.508.02a5.175,5.175,0,0,0,4.154-1.561.745.745,0,0,1,.55-.269,6.834,6.834,0,0,0,.828,3.989c-.195.262-.424.159-.612.159-3.206.008-6.412-.019-9.618.024-.744.01-.974-.233-.889-.924a7.242,7.242,0,0,1,.079-1.438" transform="translate(-83.596 -67.237)" fill="#e55e38"/>
            <path id="Trazado_657239" data-name="Trazado 657239" d="M159.535,160.169c-1.089,0-2.18-.023-3.268.008-.751.021-1.109-.235-1.1-1.045.032-2.242-.188-2.131,2.1-2.119,1.846.01,3.692.027,5.538-.009.806-.016,1.144.25,1.142,1.094-.005,2.072.024,2.072-2.056,2.072h-2.36" transform="translate(-98.709 -99.876)" fill="#e6b1a4"/>
            <path id="Trazado_657240" data-name="Trazado 657240" d="M163.761,176.366c-.846,0-1.692-.006-2.538,0a.793.793,0,0,1-.9-.885c-.027-2.415-.136-2.343,2.113-2.317,1.239.014,2.478.021,3.716,0,.769-.016,1.07.3,1.074,1.08.012,2.124.036,2.124-2.1,2.124h-1.36" transform="translate(-101.98 -110.153)" fill="#d99a8b"/>
            <path id="Trazado_657241" data-name="Trazado 657241" d="M159.782,104.986l.125-.274-.125.274" transform="translate(-101.644 -66.611)" fill="#e55e38"/>
            <path id="Trazado_657242" data-name="Trazado 657242" d="M163.644,17.5a6.3,6.3,0,0,1-.318.744q-1.091,1.924-2.21,3.832c-.473.8-1.079,1.017-1.708.64s-.727-.977-.259-1.8c.757-1.335,1.532-2.659,2.3-3.989a1.141,1.141,0,0,1,1.375-.6c.54.138.755.554.822,1.168" transform="translate(-101.054 -10.359)" fill="#f2da82"/>
            <path id="Trazado_657243" data-name="Trazado 657243" d="M86.7,22.837a1.156,1.156,0,0,1-1.093-.664c-.8-1.382-1.6-2.758-2.392-4.145A1.074,1.074,0,0,1,83.6,16.4a1.1,1.1,0,0,1,1.607.51c.8,1.379,1.62,2.749,2.389,4.146a1.13,1.13,0,0,1-.895,1.783" transform="translate(-52.8 -10.322)" fill="#f2da82"/>
            <path id="Trazado_657244" data-name="Trazado 657244" d="M124.316,11.05c0-.753-.008-1.507,0-2.26A1.161,1.161,0,0,1,125.434,7.5c.662-.065,1.183.492,1.195,1.295q.034,2.35,0,4.7c-.013.838-.488,1.316-1.2,1.268-.783-.052-1.093-.554-1.105-1.277-.014-.813,0-1.627,0-2.44" transform="translate(-79.08 -4.77)" fill="#f0d881"/>
          </g>
        </g>
      </g>
      <g id="Grupo_995903" data-name="Grupo 995903" transform="translate(131.49 83)">
        <circle id="Elipse_8210-2" data-name="Elipse 8210" cx="46" cy="46" r="46" transform="translate(623 7922)" fill="#109156"/>
        <g id="Grupo_995905" data-name="Grupo 995905" transform="translate(638.2 7942.199)">
          <g id="Grupo_995904" data-name="Grupo 995904" clip-path="url(#clip-path-3)">
            <path id="Trazado_657312" data-name="Trazado 657312" d="M30.362,3.054c-.524-.321-.806.08-1.22.361C23.936,6.949,18.886,10.7,13.689,14.255,11,16.1,8.308,17.979,5.711,19.974c-.96.738-1.976,1.4-2.959,2.11-.825.594-1.689.746-2.368-.107a1.484,1.484,0,0,1,.435-2.31c1.155-.848,2.33-1.669,3.5-2.5Q10.383,12.881,16.45,8.6c3.455-2.442,6.9-4.893,10.368-7.32,2.641-1.85,5.154-1.577,7.9.107,3.051,1.868,5.829,4.093,8.784,6.08q6.4,4.3,12.6,8.9c1.457,1.083,3.019,2,4.455,3.121.955.742,1.4,1.468.711,2.451-.756,1.082-1.689.656-2.563,0-2.919-2.185-5.9-4.3-8.88-6.381-3.6-2.507-7.173-5.056-10.789-7.542-1.852-1.274-3.693-2.564-5.51-3.888a4.305,4.305,0,0,0-3.165-1.07" transform="translate(0 0)" fill="#fff"/>
            <path id="Trazado_657313" data-name="Trazado 657313" d="M39.472,165.5q-12.1,0-24.2,0a6.4,6.4,0,0,1-1.329-.055,1.574,1.574,0,0,1,.106-3.125,8.192,8.192,0,0,1,1.038-.018H64.229a7.876,7.876,0,0,1,1.038.015,1.58,1.58,0,0,1,.035,3.153,7.91,7.91,0,0,1-1.333.032h-24.5" transform="translate(-8.847 -113.907)" fill="#fff"/>
            <path id="Trazado_657314" data-name="Trazado 657314" d="M79.8,95.389l-.013.01,0,.012.018-.022" transform="translate(-55.999 -66.952)" fill="#fff"/>
            <path id="Trazado_657315" data-name="Trazado 657315" d="M49.788,82.584a9.858,9.858,0,0,0-13.859,8.765c-.066,3.014-.013,6.03-.013,9.045,0,2.439,0,2.378,2.428,2.438,1.116.028,1.442-.3,1.418-1.415-.069-3.162-.038-6.326-.02-9.489a6.018,6.018,0,0,1,7.9-6.034c.505.138.922.27,1.342-.107a3.41,3.41,0,0,1,1.139-1.51c1.07-.837.639-1.237-.335-1.692" transform="translate(-25.195 -57.339)" fill="#fff"/>
            <path id="Trazado_657316" data-name="Trazado 657316" d="M63.817,55.313a3.854,3.854,0,0,0,3.853-3.734,3.815,3.815,0,1,0-7.625-.1,3.87,3.87,0,0,0,3.773,3.833" transform="translate(-42.144 -33.402)" fill="#fff"/>
            <path id="Trazado_657317" data-name="Trazado 657317" d="M79.782,95.411l.03,0c0-.008-.008-.016-.013-.025Z" transform="translate(-55.998 -66.952)" fill="#fff"/>
            <path id="Trazado_657318" data-name="Trazado 657318" d="M87.924,82.182a9.462,9.462,0,0,0-10.386,2.543c-.347.371-.48,1.087-1.22.979.335.611-.251.971-.446,1.412-.92,2.084-1.474,4.2-.706,6.452a6.2,6.2,0,0,0,6.728,4.148,6.428,6.428,0,0,0,5.357-6.034c.027-1.179-.425-2.055-1.705-2.176-1.262-.12-1.9.6-2.085,1.79a4.276,4.276,0,0,1-.077.733,2.378,2.378,0,0,1-2.535,1.843,2.293,2.293,0,0,1-2.223-2.2c-.352-3.438,3.494-6.821,6.892-6.144a6.469,6.469,0,0,1,5.146,4.927c.035,3.218.082,6.435.1,9.653.017,2.814,0,2.78,2.815,2.623.757-.042.88-.334.873-.986-.042-3.664-.052-7.329-.073-10.993a9.655,9.655,0,0,0-6.456-8.575" transform="translate(-52.504 -57.241)" fill="#fff"/>
            <path id="Trazado_657319" data-name="Trazado 657319" d="M98.669,55.3c2.238.122,3.641-1.257,3.783-3.714.132-2.286-1.2-3.894-3.308-4.007a3.869,3.869,0,0,0-.475,7.721" transform="translate(-66.77 -33.39)" fill="#fff"/>
            <path id="Trazado_657320" data-name="Trazado 657320" d="M157.3,120.659c0-1.383-.013-2.767.006-4.149.016-1.135-.38-2.006-1.6-2.066-1.35-.066-1.771.9-1.782,2.054-.026,2.766.022,5.533-.021,8.3-.013.867.319,1.154,1.129,1.076a5.993,5.993,0,0,1,1.184,0c.812.084,1.151-.185,1.106-1.066-.071-1.379-.019-2.765-.017-4.149" transform="translate(-108.02 -80.324)" fill="#fff"/>
            <path id="Trazado_657321" data-name="Trazado 657321" d="M151.961,83.485a3.41,3.41,0,0,0-3.36,3.436A3.365,3.365,0,0,0,152,90.307a3.3,3.3,0,0,0,3.171-3.419,3.335,3.335,0,0,0-3.206-3.4" transform="translate(-104.301 -58.596)" fill="#fff"/>
          </g>
        </g>
      </g>
      <g id="Grupo_995781" data-name="Grupo 995781" transform="translate(0 134)">
        <circle id="Elipse_8209" data-name="Elipse 8209" cx="46" cy="46" r="46" transform="translate(872 7922)" fill="#1cf290"/>
        <g id="Grupo_995902" data-name="Grupo 995902" transform="translate(881.975 7931.991)">
          <g id="Grupo_995901" data-name="Grupo 995901" clip-path="url(#clip-path-4)">
            <path id="Trazado_657282" data-name="Trazado 657282" d="M36.021,72q-17.605,0-35.21.017C.145,72.018,0,71.844,0,71.2Q.036,59.185,0,47.174c0-.614.155-.75.75-.737,1.862.042,3.727-.01,5.589.031.562.013.66-.154.659-.679q-.027-11.757-.011-23.514A12.74,12.74,0,0,1,17.4,9.524a13.91,13.91,0,0,1,1.943-.215c.331-.02.5-.061.566-.455A10.436,10.436,0,0,1,30.422,0Q33.761,0,37.1,0A10.446,10.446,0,0,1,47.49,8.829c.062.369.184.47.543.479a12.237,12.237,0,0,1,5.485,1.438c.3.158.5.216.711-.125a1.288,1.288,0,0,1,.562-.55c1.024-.348.991-1.133,1-2a5.793,5.793,0,0,1,11.38-1.489A6.2,6.2,0,0,1,67.39,8.3q-.01,3.3,0,6.6a6.877,6.877,0,0,1-.909,3.534c-.186.321-.246.5.1.748a1.8,1.8,0,0,1,.774,1.425c.031,2.823.221,5.658-.624,8.422a15.993,15.993,0,0,1-5.823,8.351,1.1,1.1,0,0,0-.5,1.012q.036,3.737,0,7.475c0,.472.117.6.593.594,3.46-.021,6.921,0,10.381-.026.546,0,.668.131.667.67q-.029,12.084,0,24.168c0,.609-.149.739-.746.739Q53.662,71.985,36.021,72m.016-2.323H54.619c4.815,0,9.63-.007,14.445.01.479,0,.661-.079.659-.617q-.03-9.869,0-19.737c0-.442-.105-.582-.561-.568-1.136.034-2.276.05-3.411,0-.605-.029-.7.194-.695.731.018,5.733,0,11.465.024,17.2,0,.535-.121.681-.671.68q-17.929-.026-35.858,0c-.558,0-.671-.156-.667-.684.025-3.41,0-6.821.025-10.232,0-.547-.108-.732-.7-.725-2.855.034-5.71.031-8.565.011a6.949,6.949,0,0,1-6.972-6.353c-.047-.508-.182-.626-.672-.621-2.637.025-5.275.031-7.912,0-.591-.008-.762.122-.76.741q.038,9.687,0,19.375c0,.676.188.816.832.815q16.441-.03,32.882-.015M9.309,33.665v11.1c0,1.708,0,1.691,1.733,1.7.464,0,.609-.107.6-.591-.026-2.1-.039-4.209,0-6.312a9.055,9.055,0,0,1,7.083-8.631c2.883-.6,5.789-1.1,8.693-1.6.546-.094.8-.318.875-.838s.39-.961-.27-1.443a8.712,8.712,0,0,1-3.44-5.6c-.08-.422-.209-.523-.622-.571a4.533,4.533,0,0,1-4.013-5.718,4.688,4.688,0,0,0,.029-2.644c-.25-.961-.216-.969-1.187-.862A10.468,10.468,0,0,0,9.31,22.2c-.008,3.821,0,7.643,0,11.464M47.63,31.357c-1.634,0-2.99.024-4.344-.013-.459-.013-.617.159-.722.566q-.877,3.4-1.8,6.787a.757.757,0,0,0,.183.837,3.335,3.335,0,0,1,.888,2.383c-.007,1.331.02,2.661-.013,3.991-.011.458.124.568.565.556,1.185-.031,2.372-.036,3.556,0,.474.015.549-.152.545-.575-.019-2.3.006-4.6-.022-6.893-.006-.515.083-.705.657-.689,1.523.044,3.049.037,4.572,0a13.907,13.907,0,0,0,12.522-9.03c.966-2.62.837-5.32.853-8.023,0-.383-.214-.352-.464-.352-2.008,0-4.017.016-6.024-.01-.451-.006-.5.175-.494.55q.031,1.45,0,2.9a7.2,7.2,0,0,1-5.956,6.882,36.713,36.713,0,0,1-4.5.127m-19.012,15.1a1.47,1.47,0,0,0,0-.327c-1.2-4.524-2.42-9.045-3.608-13.573-.131-.5-.431-.36-.716-.309q-2.247.4-4.489.827a6.817,6.817,0,0,0-5.846,7.092c0,2.879-.018,5.757.005,8.636a4.608,4.608,0,0,0,4.62,4.616c4.476.023,8.953,0,13.429.019.482,0,.548-.167.539-.581-.025-1.137-.038-2.275,0-3.41.02-.531-.107-.685-.664-.68q-5.335.043-10.671,0a2.087,2.087,0,0,0-1.692.714c-1.28,1.349-1.3,1.319-2.569-.007-.251-.262-.313-.424-.017-.688.415-.37.775-.8,1.194-1.165a1.334,1.334,0,0,0,.479-1.131c-.028-1.79-.011-3.58-.011-5.37,0-1.634,0-1.6,1.649-1.644.613-.017.692.208.685.733-.027,1.911-.012,3.822-.01,5.733,0,.251-.086.529.361.526,2.441-.016,4.883-.008,7.331-.008M45.451,29.034v0c1.839,0,3.679.03,5.517-.007a4.882,4.882,0,0,0,4.8-4.837c.019-1.137-.012-2.274.013-3.411a1.147,1.147,0,0,0-.4-.944,5.857,5.857,0,0,1-1.861-3.439,20.319,20.319,0,0,1-.073-2.535c-.007-.237.033-.464-.233-.628a10.5,10.5,0,0,0-5.274-1.607c-.162-.005-.394-.045-.4.193-.021,1.026-.77,2.007-.149,3.079a2.568,2.568,0,0,1,.24,1.2,4.658,4.658,0,0,1-4.214,4.8c-.251.031-.508-.045-.575.363a9.154,9.154,0,0,1-3.64,5.972c-.642.49-.029,1-.009,1.5.019.48.419.3.664.3,1.863.014,3.726.008,5.59.008M48.8,56.906c0,2.515.013,5.03-.012,7.545,0,.477.126.594.6.592q6.386-.028,12.773,0c.477,0,.593-.127.592-.6q-.026-7.545,0-15.09c0-.476-.125-.594-.6-.592q-6.386.028-12.773,0c-.477,0-.6.126-.592.6.024,2.515.011,5.03.011,7.545M34.031,2.327c-1.423,0-2.56-.007-3.7,0a8.008,8.008,0,0,0-6.357,2.958,7.958,7.958,0,0,0-1.844,6.073c.051.549.21.84.839.529a2.638,2.638,0,0,1,1.412-.262.847.847,0,0,0,.9-.542,5.325,5.325,0,0,1,3.161-2.506,1.233,1.233,0,0,0,.915-.865,4.576,4.576,0,0,1,3.676-3.029c.478-.1.737,0,.678.566a8.631,8.631,0,0,0,0,1.233c.012.3-.059.442-.4.533a2.349,2.349,0,0,0-1.909,2.595,2.386,2.386,0,0,0,2.537,2.006c2.783,0,5.565.009,8.348,0a5.8,5.8,0,0,1,2.418.358c.362.159.479.035.506-.313.015-.192.08-.379.1-.57a8.217,8.217,0,0,0-5.994-8.469c-1.838-.485-3.707-.195-5.274-.289m-7.3,15.023a28.66,28.66,0,0,0,.129,3.7,7,7,0,0,0,6.854,5.658,6.928,6.928,0,0,0,6.812-5.69,59.081,59.081,0,0,0,.157-6.445c.029-.587-.19-.655-.692-.648-2.008.027-4.016.007-6.024.013a4.552,4.552,0,0,1-4.493-2.819c-.168-.369-.328-.385-.645-.232a3.415,3.415,0,0,0-2.092,3.136c-.035,1.015-.007,2.032-.007,3.326m9.729,43.038c-.221-.441-.406-.775-.558-1.124-.454-1.043-1.252-1.973-1.046-3.234.059-.36-.237-.283-.437-.284-1.233,0-2.467.017-3.7-.012-.422-.01-.514.129-.512.527q.024,4.134,0,8.268c0,.42.127.513.527.512q7.618-.02,15.235,0c.412,0,.519-.113.518-.52q-.021-7.615,0-15.231c0-.4-.1-.534-.515-.524-1.185.028-2.37.033-3.554,0-.472-.014-.6.115-.6.592.026,2.393,0,4.787.019,7.18a2.546,2.546,0,0,1-.3,1.241c-.441.842-.851,1.7-1.3,2.609H42.45c1.719,0,1.7,0,1.72,1.708.007.517-.135.632-.637.627-3.071-.025-6.143-.013-9.214-.013-1.845,0-1.832,0-1.79-1.853.009-.383.113-.487.488-.479,1.112.023,2.224.008,3.445.008m28.6-48.734h0c0-1.233.033-2.466-.008-3.7a3.476,3.476,0,0,0-6.833-.721,8.613,8.613,0,0,0-.129,1.728.7.7,0,0,0,.456.77,3.349,3.349,0,0,1,1.871,3.046c.035,1.16.026,1.161-1.166,1.161-1.093,0-1.093,0-1.156-1.1a1.171,1.171,0,0,0-1.169-1.218,1.157,1.157,0,0,0-1.148,1.233c-.019.773.017,1.548-.01,2.32a3.833,3.833,0,0,0,1.265,3.039,1.231,1.231,0,0,0,.952.378,36.031,36.031,0,0,1,4.131.023,2.3,2.3,0,0,0,2.519-1.661,4.6,4.6,0,0,0,.43-1.964c0-1.112,0-2.224,0-3.335M58.094,39.131a20.411,20.411,0,0,1-3.184,1.091,22.321,22.321,0,0,1-5.552.426c-.273,0-.574-.1-.566.394.026,1.668.017,3.337,0,5.005,0,.314.087.413.407.412q4.245-.017,8.49,0c.32,0,.409-.1.408-.412-.012-2.271-.006-4.543-.006-6.916M34.863,51.073c0,.627.024,1.255-.009,1.88-.021.395.121.491.492.475.65-.029,1.3.015,1.953-.016a2.317,2.317,0,0,0-.022-4.629c-.65-.027-1.3.019-1.953-.016-.4-.022-.483.139-.468.5.026.6.007,1.205.007,1.808m-.042-6.35c.254-1.7-.411-3.169-.731-4.7-.045-.214.006-.575-.424-.543-.371.028-.3.348-.353.542-.443,1.7-.857,3.416-1.287,5.124-.328,1.306-.333,1.32,1.011,1.3.594-.01,1.386.274,1.726-.127.284-.336.058-1.1.058-1.6m2.167-15.205c-.047-.8-.265-.97-1.027-.773a9.244,9.244,0,0,1-4.716-.045c-.217-.057-.539-.346-.625.109-.071.372-.493.767.049,1.153.922.657,1.822,1.345,2.717,2.038a.421.421,0,0,0,.62.01c.914-.708,1.847-1.391,2.773-2.084.134-.1.288-.2.21-.407M39.5,47.051c0-1.819.02-3.572-.011-5.325a1.114,1.114,0,0,0-1.146-1.075A1.133,1.133,0,0,0,37.2,41.8c-.026,1.422-.01,2.844-.009,4.267,0,.189-.035.385.268.4a6,6,0,0,1,2.048.588m-3.6-13.57c1.1.549,2.07,1.03,3.036,1.517.22.111.368.185.454-.163.255-1.028.551-2.045.817-3.07.035-.134.154-.389-.125-.39-.5,0-1.048-.189-1.483.1-.9.606-1.741,1.284-2.7,2m-4.4,0c-.9-.674-1.7-1.329-2.567-1.89-.508-.33-1.072.047-1.607.122-.186.026-.08.238-.045.369.241.908.493,1.814.719,2.726.07.283.152.358.433.213.983-.508,1.976-.995,3.067-1.54M45.316,16.234A2.382,2.382,0,0,0,43.43,13.97c-.275-.048-.449-.047-.443.327.019,1.3.021,2.606,0,3.908-.007.435.205.394.495.331a2.365,2.365,0,0,0,1.836-2.3M24.41,16.3c0-.652-.02-1.3.008-1.955.016-.38-.124-.445-.463-.378a2.336,2.336,0,0,0-.016,4.575c.412.09.493-.059.478-.432-.025-.6-.007-1.207-.007-1.81m5.7,26.4.122.031a27.5,27.5,0,0,1,.728-2.774,2.443,2.443,0,0,0-.5-2.7c-.237-.268-.393-.591-.782-.265-.329.275-1.087.136-.839.977.462,1.567.853,3.155,1.274,4.734m8.248,16.255c.576-1.322,1.5-2.346,1.062-3.822a5.1,5.1,0,0,1-1.568.549c-.675.133-.86.45-.568,1.106.3.678.657,1.333,1.074,2.167M33.707,37.157a2.262,2.262,0,0,0,1.4-1.329,4,4,0,0,0-1.374-.81,3.647,3.647,0,0,0-1.433.819,2.2,2.2,0,0,0,1.407,1.319m4.94.494c-.1-.453-.6-.44-.915-.649-.168-.111-.379-.293-.566-.026q-.5.712-.963,1.445a.388.388,0,0,0,.033.476c.117.117.264-.014.383-.087a2.685,2.685,0,0,1,1.43-.458c.513.009.492-.345.6-.7" transform="translate(0 0)" fill="#010101"/>
            <path id="Trazado_657283" data-name="Trazado 657283" d="M41.7,188.533q-16.441,0-32.882.015c-.644,0-.835-.139-.832-.815q.043-9.687,0-19.375c0-.618.169-.748.76-.741,2.637.034,5.274.028,7.912,0,.491,0,.625.113.672.621a6.949,6.949,0,0,0,6.972,6.353c2.855.02,5.71.023,8.565-.011.593-.007.7.179.7.725-.024,3.41,0,6.821-.025,10.232,0,.529.109.685.667.684q17.929-.027,35.858,0c.551,0,.673-.145.671-.68-.02-5.733-.006-11.465-.024-17.2,0-.536.09-.76.695-.731,1.135.055,2.274.038,3.411,0,.455-.013.562.126.561.568q-.021,9.869,0,19.737c0,.537-.18.619-.659.617-4.815-.017-9.63-.01-14.445-.01H41.7" transform="translate(-5.662 -118.856)" fill="#caa073"/>
            <path id="Trazado_657284" data-name="Trazado 657284" d="M32,61.957c0-3.821-.006-7.642,0-11.464a10.468,10.468,0,0,1,9.481-10.55c.972-.107.938-.1,1.187.863a4.687,4.687,0,0,1-.029,2.644,4.534,4.534,0,0,0,4.013,5.718c.413.047.542.148.622.57a8.709,8.709,0,0,0,3.44,5.6c.66.483.339.933.27,1.444s-.329.744-.875.838c-2.9.5-5.81.994-8.693,1.6a9.055,9.055,0,0,0-7.083,8.631c-.039,2.1-.026,4.208,0,6.312.006.484-.139.593-.6.591C32,74.749,32,74.767,32,73.059v-11.1" transform="translate(-22.686 -28.292)" fill="#cbcfd6"/>
            <path id="Trazado_657285" data-name="Trazado 657285" d="M146.873,82.293a36.665,36.665,0,0,0,4.5-.128,7.2,7.2,0,0,0,5.956-6.882q.034-1.45,0-2.9c-.008-.376.043-.556.494-.55,2.008.026,4.016.013,6.024.01.25,0,.466-.031.464.352-.016,2.7.113,5.4-.853,8.023a13.907,13.907,0,0,1-12.522,9.03c-1.524.035-3.049.043-4.572,0-.573-.017-.663.173-.656.689.028,2.3,0,4.6.021,6.894,0,.424-.071.591-.545.575-1.184-.038-2.371-.033-3.556,0-.442.012-.577-.1-.566-.556.033-1.33.007-2.661.013-3.991a3.334,3.334,0,0,0-.888-2.383.757.757,0,0,1-.183-.837q.928-3.386,1.8-6.786c.105-.408.263-.579.722-.567,1.354.037,2.71.013,4.344.013" transform="translate(-99.244 -50.935)" fill="#f4d57e"/>
            <path id="Trazado_657286" data-name="Trazado 657286" d="M62.618,124.91c-2.448,0-4.889-.008-7.331.007-.447,0-.36-.275-.36-.526,0-1.911-.018-3.822.01-5.733.008-.525-.072-.749-.685-.733-1.648.044-1.649.01-1.649,1.644,0,1.79-.017,3.58.011,5.37a1.334,1.334,0,0,1-.478,1.132c-.419.365-.779.8-1.194,1.165-.3.264-.234.426.017.688,1.273,1.326,1.29,1.356,2.569.007a2.088,2.088,0,0,1,1.692-.714q5.335.053,10.671,0c.557,0,.684.149.664.68-.043,1.135-.03,2.274,0,3.41.009.414-.057.584-.539.581-4.476-.021-8.953,0-13.429-.019a4.609,4.609,0,0,1-4.62-4.616c-.024-2.878-.008-5.757-.005-8.636a6.817,6.817,0,0,1,5.845-7.092q2.241-.432,4.489-.828c.285-.051.585-.193.716.309,1.188,4.528,2.4,9.049,3.608,13.573a1.488,1.488,0,0,1,0,.327" transform="translate(-34.001 -78.457)" fill="#f4d57e"/>
            <path id="Trazado_657287" data-name="Trazado 657287" d="M140.312,57.356c-1.863,0-3.726.006-5.59-.008-.245,0-.645.182-.664-.3-.02-.5-.633-1.014.009-1.5a9.154,9.154,0,0,0,3.64-5.972c.067-.409.323-.332.575-.363a4.658,4.658,0,0,0,4.214-4.8,2.568,2.568,0,0,0-.24-1.2c-.621-1.072.128-2.054.149-3.079,0-.239.236-.2.4-.193a10.5,10.5,0,0,1,5.274,1.607c.266.164.225.391.233.628a20.318,20.318,0,0,0,.073,2.535,5.857,5.857,0,0,0,1.861,3.439,1.147,1.147,0,0,1,.4.944c-.025,1.136.006,2.274-.013,3.41a4.883,4.883,0,0,1-4.8,4.837c-1.838.037-3.678.007-5.517.007Z" transform="translate(-94.861 -28.322)" fill="#cbcfd6"/>
            <path id="Trazado_657288" data-name="Trazado 657288" d="M167.739,175.778c0-2.515.013-5.03-.011-7.545,0-.47.115-.6.592-.6q6.386.029,12.773,0c.47,0,.6.116.6.592q-.027,7.545,0,15.09c0,.47-.115.6-.592.6q-6.386-.03-12.773,0c-.47,0-.6-.115-.6-.592.025-2.515.012-5.03.012-7.545m7.03,5.8h2.9c1.691,0,1.669,0,1.7-1.657.009-.522-.094-.691-.658-.681-2.3.038-4.594.016-6.891.016-1.8,0-1.776,0-1.772,1.8,0,.492.186.534.588.528,1.378-.021,2.757-.008,4.135-.008m-.109-9.29h3.047c1.66,0,1.639,0,1.661-1.692.006-.492-.095-.651-.621-.644-2.321.032-4.642.014-6.964.014-1.749,0-1.723,0-1.736,1.765,0,.522.2.572.624.565,1.329-.022,2.66-.008,3.99-.008m-.009,4.645h2.974c1.755,0,1.732,0,1.744-1.756,0-.505-.171-.579-.614-.575-2.3.02-4.594.009-6.891.009-1.857,0-1.84,0-1.814,1.829.006.434.153.507.539.5,1.354-.021,2.708-.008,4.062-.008" transform="translate(-118.936 -118.872)" fill="#e5e8eb"/>
            <path id="Trazado_657289" data-name="Trazado 657289" d="M87.882,7.993c1.567.1,3.436-.195,5.274.29a8.216,8.216,0,0,1,5.994,8.469c-.017.192-.082.379-.1.57-.026.348-.143.473-.506.314a5.8,5.8,0,0,0-2.418-.358c-2.783.013-5.565.008-8.348,0a2.386,2.386,0,0,1-2.537-2.005,2.349,2.349,0,0,1,1.909-2.6c.345-.091.415-.229.4-.533a8.67,8.67,0,0,1,0-1.233c.059-.565-.2-.662-.678-.567a4.577,4.577,0,0,0-3.676,3.029,1.232,1.232,0,0,1-.915.865,5.327,5.327,0,0,0-3.161,2.507.847.847,0,0,1-.9.542,2.641,2.641,0,0,0-1.412.262c-.628.312-.787.02-.839-.529A8.187,8.187,0,0,1,84.185,8c1.137-.008,2.275,0,3.7,0" transform="translate(-53.851 -5.667)" fill="#656c76"/>
            <path id="Trazado_657290" data-name="Trazado 657290" d="M91.874,43.671c0-1.294-.028-2.311.007-3.326a3.415,3.415,0,0,1,2.092-3.136c.317-.153.476-.136.645.232a4.552,4.552,0,0,0,4.493,2.819c2.008-.006,4.016.015,6.024-.013.5-.007.721.061.692.648a59.081,59.081,0,0,1-.157,6.445,6.928,6.928,0,0,1-6.812,5.69A7,7,0,0,1,92,47.374a28.66,28.66,0,0,1-.129-3.7m6.934,7.052A4.95,4.95,0,0,0,102.7,48.84c.814-1.018.808-1.026-.316-1.591a4.171,4.171,0,0,1-.515-.26c-.4-.279-.611-.191-.888.234a2.58,2.58,0,0,1-4.016.375c-.256-.259-.286-.819-.734-.771a3.482,3.482,0,0,0-1.039.486,2.671,2.671,0,0,1-.388.192c-.434.132-.482.332-.241.726a4.943,4.943,0,0,0,4.245,2.493m4.676-6.964a1.158,1.158,0,1,0-1.156,1.142,1.166,1.166,0,0,0,1.156-1.142m-6.969-.042A1.158,1.158,0,1,0,95.4,44.9a1.166,1.166,0,0,0,1.114-1.184" transform="translate(-65.141 -26.321)" fill="#e8cfb5"/>
            <path id="Trazado_657291" data-name="Trazado 657291" d="M110.1,179.258c-1.221,0-2.333.015-3.445-.008-.375-.008-.479.1-.488.479-.042,1.853-.055,1.853,1.79,1.853,3.071,0,6.143-.013,9.214.012.5,0,.645-.111.637-.627-.024-1.708,0-1.708-1.72-1.708h-2.213c.453-.911.864-1.768,1.3-2.609a2.546,2.546,0,0,0,.3-1.241c-.016-2.393.006-4.787-.019-7.18,0-.477.125-.606.6-.592,1.184.034,2.37.03,3.554,0,.417-.01.516.121.515.524q-.02,7.615,0,15.231c0,.408-.106.522-.518.52q-7.618-.021-15.236,0c-.4,0-.529-.092-.527-.512q.028-4.134,0-8.268c0-.4.09-.537.512-.527,1.233.029,2.466.008,3.7.012.2,0,.5-.076.437.284-.206,1.261.592,2.192,1.046,3.234.152.349.338.683.558,1.124" transform="translate(-73.636 -118.87)" fill="#e5e8eb"/>
            <path id="Trazado_657292" data-name="Trazado 657292" d="M201,22.977c0,1.112,0,2.224,0,3.336a4.6,4.6,0,0,1-.43,1.964,2.3,2.3,0,0,1-2.519,1.661,36.031,36.031,0,0,0-4.131-.023,1.233,1.233,0,0,1-.952-.378A3.833,3.833,0,0,1,191.7,26.5c.027-.773-.009-1.547.01-2.32a1.156,1.156,0,0,1,1.148-1.233,1.171,1.171,0,0,1,1.169,1.217c.063,1.1.063,1.1,1.156,1.1,1.192,0,1.2,0,1.166-1.161a3.349,3.349,0,0,0-1.871-3.046.7.7,0,0,1-.456-.77,8.613,8.613,0,0,1,.129-1.728,3.476,3.476,0,0,1,6.833.721c.041,1.231.008,2.465.008,3.7h0" transform="translate(-135.934 -11.323)" fill="#e9cfb5"/>
            <path id="Trazado_657293" data-name="Trazado 657293" d="M177.035,134.522c0,2.374-.006,4.645.006,6.916,0,.314-.088.413-.408.412q-4.245-.017-8.49,0c-.321,0-.41-.1-.407-.412.013-1.669.022-3.337,0-5.005-.008-.495.293-.4.566-.394a22.321,22.321,0,0,0,5.552-.426,20.411,20.411,0,0,0,3.184-1.091" transform="translate(-118.94 -95.39)" fill="#cbcfd6"/>
            <path id="Trazado_657294" data-name="Trazado 657294" d="M119.822,169.946c0-.6.018-1.206-.007-1.808-.016-.359.063-.52.467-.5.65.035,1.3-.011,1.953.016a2.317,2.317,0,0,1,.022,4.629c-.649.032-1.3-.012-1.953.017-.37.016-.513-.08-.491-.475.033-.625.009-1.253.009-1.88" transform="translate(-84.959 -118.873)" fill="#e8cfb5"/>
            <path id="Trazado_657295" data-name="Trazado 657295" d="M112.447,140.966c0,.493.226,1.26-.058,1.6-.339.4-1.131.117-1.726.127-1.343.023-1.339.008-1.011-1.3.43-1.708.844-3.42,1.287-5.124.051-.195-.017-.514.353-.542.429-.032.379.33.424.543.319,1.527.985,3,.73,4.7" transform="translate(-77.626 -96.243)" fill="#b9d788"/>
            <path id="Trazado_657296" data-name="Trazado 657296" d="M111.086,99.13c.079.212-.075.307-.209.408-.925.693-1.859,1.376-2.773,2.084a.421.421,0,0,1-.62-.01c-.9-.693-1.8-1.381-2.717-2.038-.542-.386-.119-.781-.049-1.153.086-.454.409-.165.625-.108a9.24,9.24,0,0,0,4.715.045c.762-.2.979-.03,1.027.773" transform="translate(-74.098 -69.613)" fill="#e5ccb3"/>
            <path id="Trazado_657297" data-name="Trazado 657297" d="M130.14,146.146a6,6,0,0,0-2.047-.588c-.3-.011-.268-.207-.268-.4,0-1.422-.017-2.845.01-4.267a1.132,1.132,0,0,1,1.15-1.149,1.114,1.114,0,0,1,1.146,1.075c.031,1.752.011,3.506.011,5.325" transform="translate(-90.637 -99.095)" fill="#a9afb9"/>
            <path id="Trazado_657298" data-name="Trazado 657298" d="M123.429,109.814c.959-.718,1.805-1.4,2.7-2,.434-.294.986-.108,1.483-.1.279,0,.159.256.124.39-.266,1.025-.562,2.043-.817,3.07-.086.347-.235.273-.454.163-.966-.487-1.935-.968-3.036-1.517" transform="translate(-87.524 -76.333)" fill="#e67358"/>
            <path id="Trazado_657299" data-name="Trazado 657299" d="M97.865,110.154c-1.09.545-2.084,1.032-3.067,1.54-.281.145-.363.07-.433-.213-.226-.912-.478-1.817-.719-2.726-.035-.132-.14-.344.045-.369.535-.074,1.1-.452,1.607-.122.862.561,1.662,1.216,2.567,1.89" transform="translate(-66.362 -76.676)" fill="#e67358"/>
            <path id="Trazado_657300" data-name="Trazado 657300" d="M150.1,50.235a2.366,2.366,0,0,1-1.836,2.3c-.29.063-.5.1-.495-.332.022-1.3.019-2.606,0-3.908,0-.374.169-.375.444-.327a2.382,2.382,0,0,1,1.886,2.264" transform="translate(-104.784 -34.001)" fill="#e5ccb3"/>
            <path id="Trazado_657301" data-name="Trazado 657301" d="M78.25,50.308c0,.6-.018,1.208.007,1.81.016.374-.066.522-.478.432a2.336,2.336,0,0,1,.016-4.575c.339-.067.479,0,.463.378-.027.65-.008,1.3-.008,1.955" transform="translate(-53.84 -34.003)" fill="#e5ccb3"/>
            <path id="Trazado_657302" data-name="Trazado 657302" d="M100.279,132.566c-.421-1.579-.812-3.167-1.274-4.734-.248-.841.51-.7.839-.977.389-.326.545,0,.782.265a2.443,2.443,0,0,1,.5,2.7,27.5,27.5,0,0,0-.728,2.774l-.122-.031" transform="translate(-70.17 -89.856)" fill="#e88470"/>
            <path id="Trazado_657303" data-name="Trazado 657303" d="M128.916,193.383c-.417-.835-.772-1.489-1.073-2.167-.292-.657-.107-.973.568-1.107a5.091,5.091,0,0,0,1.568-.549c.433,1.476-.486,2.5-1.063,3.822" transform="translate(-90.559 -134.419)" fill="#a9afb9"/>
            <path id="Trazado_657304" data-name="Trazado 657304" d="M112.445,122.522a2.2,2.2,0,0,1-1.407-1.319,3.651,3.651,0,0,1,1.433-.819,4,4,0,0,1,1.375.81,2.263,2.263,0,0,1-1.4,1.329" transform="translate(-78.738 -85.365)" fill="#b9d788"/>
            <path id="Trazado_657305" data-name="Trazado 657305" d="M126.741,127.451c-.106.355-.085.709-.6.7a2.685,2.685,0,0,0-1.43.458c-.119.073-.266.2-.383.087a.388.388,0,0,1-.033-.476q.467-.731.963-1.445c.186-.267.4-.084.566.026.317.209.811.2.915.649" transform="translate(-88.094 -89.799)" fill="#e88470"/>
            <path id="Trazado_657306" data-name="Trazado 657306" d="M180.421,209.877c-1.378,0-2.757-.013-4.135.008-.4.006-.586-.036-.587-.528,0-1.8-.028-1.8,1.772-1.8,2.3,0,4.595.022,6.891-.016.564-.009.667.159.658.682-.029,1.656-.006,1.657-1.7,1.657Z" transform="translate(-124.588 -147.167)"/>
            <path id="Trazado_657307" data-name="Trazado 657307" d="M180.311,177.947c-1.33,0-2.66-.014-3.99.008-.428.007-.627-.043-.624-.565.013-1.765-.012-1.765,1.736-1.765,2.321,0,4.643.018,6.964-.014.526-.007.627.152.621.643-.021,1.692,0,1.692-1.661,1.692Z" transform="translate(-124.588 -124.527)"/>
            <path id="Trazado_657308" data-name="Trazado 657308" d="M180.3,193.925c-1.354,0-2.708-.013-4.062.008-.386.006-.533-.067-.539-.5-.026-1.83-.043-1.829,1.814-1.829,2.3,0,4.594.011,6.891-.009.443,0,.617.07.614.575-.012,1.756.011,1.756-1.744,1.756H180.3" transform="translate(-124.583 -135.86)"/>
            <path id="Trazado_657309" data-name="Trazado 657309" d="M105.037,74.381a4.943,4.943,0,0,1-4.245-2.493c-.241-.394-.193-.594.241-.726a2.7,2.7,0,0,0,.388-.192,3.5,3.5,0,0,1,1.039-.486c.448-.048.478.513.734.772a2.58,2.58,0,0,0,4.016-.375c.277-.426.488-.514.888-.235a4.131,4.131,0,0,0,.515.26c1.124.565,1.13.573.316,1.591a4.949,4.949,0,0,1-3.893,1.883" transform="translate(-71.37 -49.979)" fill="#040403"/>
            <path id="Trazado_657310" data-name="Trazado 657310" d="M126.167,57.084a1.158,1.158,0,1,1-1.124-1.173,1.17,1.17,0,0,1,1.124,1.173" transform="translate(-87.823 -39.646)" fill="#040403"/>
            <path id="Trazado_657311" data-name="Trazado 657311" d="M102.208,57.044a1.158,1.158,0,1,1-1.166-1.131,1.171,1.171,0,0,1,1.166,1.131" transform="translate(-70.833 -39.648)" fill="#040403"/>
          </g>
        </g>
      </g>
      <g id="Grupo_995780" data-name="Grupo 995780" transform="translate(0 150)">
        <circle id="Elipse_8208" data-name="Elipse 8208" cx="46" cy="46" r="46" transform="translate(754 7706)" fill="#1cf290"/>
        <g id="Grupo_995900" data-name="Grupo 995900" transform="translate(759.004 7714.423)">
          <g id="Grupo_995900-2" data-name="Grupo 995900" clip-path="url(#clip-path-5)">
            <path id="Trazado_657245" data-name="Trazado 657245" d="M75.142,73.976c-.108.678-.45,1.149-1.179,1.175-.785.028-1.108-.5-1.276-1.174.009-.319.025-.639.025-.958q0-6.876,0-13.752c0-1.375.781-1.853,2.035-1.284a2.288,2.288,0,0,1,.358,1.745c-.025.492.1.721.652.7,1.061-.041,2.125-.03,3.186,0,.464.012.657-.1.647-.613-.03-1.619,0-3.239-.018-4.859a1.848,1.848,0,0,0-.3-1.2A2.054,2.054,0,0,0,78.2,52.381a10.623,10.623,0,0,0-2.45-1,5.7,5.7,0,0,0-.559-.283c-.642-.244-1.344-.745-1.92-.63-.522.1-.545,1.062-.849,1.614-.013.023-.024.048-.036.071A12.161,12.161,0,0,1,54.068,56.1c-.434-.332-.844-.7-1.318-1.092a15.628,15.628,0,0,1-1.2,2.782,9.936,9.936,0,0,1-2.81,2.905,2.017,2.017,0,0,0-1.062,2.213.784.784,0,0,0,.647.825q1.941.607,3.861,1.281a5.282,5.282,0,0,1,3.719,5.206c.017,1.252.018,2.5.026,3.755-.107.677-.449,1.145-1.177,1.172-.785.03-1.1-.507-1.282-1.169,0-1.358.069-2.718,0-4.071-.077-1.454-1.045-2.16-2.311-2.742-1.082-.5-1.325.279-1.809.8a9.4,9.4,0,0,1-14.467-.614c-.137-.173-.212-.424-.531-.412a3.383,3.383,0,0,0-3.108,3.125c-.049,1.3,0,2.608.011,3.913-.153.685-.493,1.2-1.271,1.176-.727-.023-1.066-.5-1.183-1.175q.011-1.8.022-3.6a5.318,5.318,0,0,1,3.9-5.41c1.207-.418,2.422-.814,3.63-1.228.283-.1.733-.091.671-.529-.1-.672.42-1.507-.332-2a10.76,10.76,0,0,1-5.1-8.84c-.024-.445-.22-.509-.576-.544a3.1,3.1,0,0,1-2.148-.942c-.515-.617-.936-.509-1.551-.238a12.994,12.994,0,0,1-11.427-.174,13.155,13.155,0,0,1-7.093-8.418c-.126-.427-.247-.606-.748-.433-1.08.374-2.193.652-3.282,1a2.9,2.9,0,0,0-1.7,1.11,2.605,2.605,0,0,0-.639,1.834c-.019,3.86,0,7.72-.019,11.58,0,.43.148.538.553.534,1.571-.018,3.142-.025,4.713,0,.488.008.551-.2.564-.618.136-4.413.141-4.413-2.265-8.075-.029-.045-.056-.09-.088-.133A1.387,1.387,0,0,1,5.8,47.091c.951-.562,1.457-.463,2.08.441.514.746.982,1.524,1.515,2.255a6.635,6.635,0,0,1,1.244,4.12c-.034,5.492-.015,10.985-.012,16.478,0,1.2.023,2.4.035,3.6-.137.638-.431,1.135-1.16,1.17-.818.039-1.127-.518-1.322-1.187q.017-6.678.041-13.357c0-.432-.174-.544-.573-.537q-1.64.027-3.28,0c-.395-.006-.579.1-.577.535q.034,6.678.042,13.356a3.508,3.508,0,0,1-.182.522,1.133,1.133,0,0,1-1.251.651,1.045,1.045,0,0,1-.963-.917,5.827,5.827,0,0,1-.055-.956q0-6.163,0-12.326c0-.458.06-.848-.609-.966-.536-.094-.769-.62-.768-1.179,0-4.536-.037-9.072.031-13.606a5.144,5.144,0,0,1,3.976-4.839c3-.919,6.006-1.827,9.02-2.7.562-.163.676-.424.729-.982a4.272,4.272,0,0,0-1.574-4,11.936,11.936,0,0,1-3.827-7.786.964.964,0,0,0-.638-.866,3.874,3.874,0,0,1-1.2-6.132,1.366,1.366,0,0,0,.356-1c-.009-2.134-.034-4.269.013-6.4A10.67,10.67,0,0,1,16.785.158a121.736,121.736,0,0,1,12.4,0,4.83,4.83,0,0,1,4.357,3.254,2.55,2.55,0,0,0,.744,1,6.369,6.369,0,0,1,2.4,4.941c.029,2.481.02,4.963.006,7.444a1.57,1.57,0,0,0,.414,1.144,3.871,3.871,0,0,1-1.183,6.033,1.109,1.109,0,0,0-.732,1.064,4.6,4.6,0,0,1-.3,1.48c-.347.823-.153,1.223.685,1.6,2.057.934,4.064,1.98,6.073,3.018a1.62,1.62,0,0,0,1.415.032,2.719,2.719,0,0,0,2.077-3.093c-.081-2.234.1-4.478.173-6.718a16.271,16.271,0,0,1,32.368-1.8,57.16,57.16,0,0,1,.259,5.91q.282,7.6,1.268,15.141c.135,1.024-.486,1.5-1.213,1.949a28.012,28.012,0,0,1-7.868,3.231l-.857.221c.166.3.489.315.748.42,2.761,1.116,5.529,2.215,8.291,3.33a5.309,5.309,0,0,1,3.676,5.414c0,2.028-.007,4.056,0,6.083,0,.768-.182,1.376-1.045,1.542-.488.094-.329.486-.33.773q-.013,4.722-.006,9.445c0,.187,0,.373,0,.56-.015,1-.315,1.458-1.013,1.56-.714.1-1.1-.213-1.432-1.169.013-3.545.022-7.091.045-10.636,0-.39-.147-.51-.518-.5q-1.039.029-2.08,0c-.38-.012-.5.122-.5.507.02,3.546.023,7.093.031,10.639M46.134,65.319a2.8,2.8,0,0,1-.829-2.245c.057-.6-.173-.621-.68-.5a9.9,9.9,0,0,1-4.512,0c-.532-.124-.727-.061-.677.518a2.817,2.817,0,0,1-.839,2.241,6.5,6.5,0,0,1-1.548.742,1.065,1.065,0,0,0,.429.6,7.015,7.015,0,0,0,9.613.158c.723-.66.72-.653-.126-1.044-.287-.133-.554-.31-.83-.467M42.609,34.378c-.345-.272-.606.021-.872.152-2.1,1.039-4.2,2.1-6.3,3.135-.68.334-1.365.8-2.13.1-.259-.236-.34.126-.436.282a12.015,12.015,0,0,0-1.629,5.206c-.05.5.13.664.625.634a55.863,55.863,0,0,0,6.419-.68,31.846,31.846,0,0,0,10.09-3.068,1.331,1.331,0,0,1,1.635.036,1.354,1.354,0,0,1,.276,1.608c-.362.218-.714.457-1.089.649a37.4,37.4,0,0,1-10.954,3.275c-2.245.3-4.494.531-6.76.616a1.586,1.586,0,0,0-1.515,2.1,1.679,1.679,0,0,0,1.793,1.047c2.072.022,2.212.155,2.2,2.243a8.158,8.158,0,0,0,1.329,4.77,8.01,8.01,0,0,0,7.475,3.873c3.533.1,7.2-3.05,7.858-6.728A15.988,15.988,0,0,0,50.771,51c.013-1.117.43-1.517,1.562-1.536a8.192,8.192,0,0,0,1.273-.062,1.423,1.423,0,0,0,1.2-1.128,1.332,1.332,0,0,0-.54-1.545,1.777,1.777,0,0,1-.8-1.558A11.721,11.721,0,0,0,51.948,38.2c-.153-.252-.268-.548-.659-.282a1.382,1.382,0,0,1-1.509-.042c-1.4-.709-2.8-1.423-4.216-2.1a22.075,22.075,0,0,0-2.955-1.391M66.029,45.931a8.138,8.138,0,0,1-.167-2.221c.062-.64-.129-.759-.745-.578a13.157,13.157,0,0,1-5.686.308A18.5,18.5,0,0,1,55.9,42.421c.068,1.286-.275,2.56.829,3.494,1.386,2.825.144,5.139-3.236,6.011a.965.965,0,0,0,.089.213,9.79,9.79,0,0,0,16.8-1.366c.682-1.334.64-1.356-.72-1.9-.271-.109-.537-.232-.815-.322a4.345,4.345,0,0,1-2.817-2.619M16.349,12.3c.556-.039,1.111-.082,1.667-.118A45.781,45.781,0,0,0,25.5,11.123,23.209,23.209,0,0,0,29.59,9.778a1.1,1.1,0,0,1,1.479.572,1.032,1.032,0,0,1-.3,1.42c-.158.138-.333.256-.5.384-.773.27-1.54.559-2.32.8a52.56,52.56,0,0,1-11.61,1.8,9.3,9.3,0,0,1-1.037-.008c-.681-.078-1.006.225-1.168.873-.18.72-.479,1.41-.682,2.125a1.465,1.465,0,0,1-1.634,1.188,10.612,10.612,0,0,0-2.706.083,1.463,1.463,0,0,0-1.2,1.485A1.48,1.48,0,0,0,9.083,21.95c1.441.383,1.533.491,1.612,2.005a10.884,10.884,0,0,0,1.189,4.355c2.005,4,6.751,6.6,10.862,5.952a8.247,8.247,0,0,0,.95-.069,11.078,11.078,0,0,0,9.186-10.225c.123-1.564.123-1.561,1.676-2.032a1.509,1.509,0,0,0,.008-2.9,5.152,5.152,0,0,0-1.426-.109c-1.221-.017-1.586-.4-1.557-1.628a1.919,1.919,0,0,1,2.027-.785c.438.027.69-.057.683-.594-.026-2.184.024-4.37-.031-6.554a3.889,3.889,0,0,0-1.687-3.2,3,3,0,0,1-1.2-1.628,2.572,2.572,0,0,0-2.42-1.993,72.811,72.811,0,0,0-9.254.014C17.513,2.5,15.344,2.422,13.376,3.7A8.313,8.313,0,0,0,9.454,9.359a41.978,41.978,0,0,0-.153,6.3c-.008.313-.218.9.4.825s1.434.507,1.78-.488c.262-.753.5-1.516.752-2.272a1.671,1.671,0,0,1,1.882-1.364q1.118-.026,2.235-.056m39.673,10.37a9.275,9.275,0,0,1-5.406,3.142,1.174,1.174,0,0,1-1.178-1.174c-.035-.709.412-1.052,1.013-1.258.352-.121.715-.218,1.058-.361a4.977,4.977,0,0,0,3.39-3.9c.185-1.162,1.085-1.563,2.029-.856A17.013,17.013,0,0,0,63.6,20.987,48.693,48.693,0,0,1,70.187,22.6c2.52.95,4.331,2.6,4.726,5.348a13.032,13.032,0,0,1-5.759,13.3,2.022,2.022,0,0,0-.909,2.047c.013.384.159.448.494.365A30.194,30.194,0,0,0,76.118,40.9a.975.975,0,0,0,.57-1.144A147.316,147.316,0,0,1,75.525,23.97a20.968,20.968,0,0,0-.784-6.558,13.873,13.873,0,0,0-26.852,2.31c-.362,2.861-.181,5.752-.372,8.624-.039.588.221.443.553.29a11.292,11.292,0,0,1,2.547-1.127A1.334,1.334,0,0,1,51.8,29.036c-.008,1.489.01,2.979-.009,4.468a1.276,1.276,0,0,0,.387.99A13,13,0,0,1,54.9,38.678a1.344,1.344,0,0,0,.52.671,11.028,11.028,0,0,0,7.514,1.769c.315-.042.632-.07.944-.13a11.2,11.2,0,0,0,8.765-12.076,4.471,4.471,0,0,0-2.6-3.748,16.148,16.148,0,0,0-3.645-1.131A41.081,41.081,0,0,1,58.4,21.884c-.506-.221-1.13-.781-1.463-.637-.43.185-.621.922-.915,1.422M16.181,35.606c0,1.057-.014,1.988,0,2.919A5.582,5.582,0,0,0,20.5,43.812a5.753,5.753,0,0,0,6.209-2.722c.855-1.485.64-3.086.706-4.671.03-.718-.176-.785-.8-.54a13.081,13.081,0,0,1-5.788.859,15.793,15.793,0,0,1-4.641-1.133m12.641,6.7c-.185.26-.262.365-.337.473A8.046,8.046,0,0,1,14.5,41.729c-.291-.588-.156-1.574-.839-1.714-.6-.122-1.3.365-1.98.51s-.77.448-.558,1.061a12.191,12.191,0,0,0,3.392,5.14,11.142,11.142,0,0,0,12.537,1.392c.187-.109.4-.193.419-.439a4.132,4.132,0,0,1,1.219-2.623.568.568,0,0,0,.124-.36c.011-.735.006-1.47.006-2.389m4.126-11.122A23.829,23.829,0,0,1,30.1,33.9a.687.687,0,0,0-.26.622c.007,1.265,0,2.531,0,3.846.1-.08.189-.113.215-.172a13.32,13.32,0,0,1,2.634-3.856.828.828,0,0,0,.265-.63c-.014-.843-.005-1.685-.005-2.528m16.406-.5L45.065,32.83l4.288,2.142Zm-9.677,2.145L35.392,30.69v4.277l4.284-2.139" transform="translate(0 0)" fill="#030302"/>
            <path id="Trazado_657246" data-name="Trazado 657246" d="M17.143,161.937c-.012-1.2-.034-2.4-.035-3.6,0-5.492-.022-10.985.012-16.477a6.639,6.639,0,0,0-1.245-4.12c-.534-.731-1-1.509-1.515-2.255-.623-.9-1.129-1-2.08-.441a17.241,17.241,0,0,1-2.743-3.358,2.9,2.9,0,0,1,1.7-1.11c1.089-.351,2.2-.63,3.282-1,.5-.173.622.005.749.433a13.153,13.153,0,0,0,7.092,8.418,12.994,12.994,0,0,0,11.427.174c.615-.271,1.036-.379,1.551.238a3.1,3.1,0,0,0,2.148.943c.356.035.552.1.576.544a10.76,10.76,0,0,0,5.1,8.84c.752.5.237,1.33.332,2,.063.438-.387.432-.671.529-1.208.414-2.423.81-3.63,1.228a5.318,5.318,0,0,0-3.9,5.41q-.011,1.8-.022,3.6l-18.134.006" transform="translate(-6.477 -87.955)" fill="#48a7e8"/>
            <path id="Trazado_657247" data-name="Trazado 657247" d="M176.635,160.13a10.605,10.605,0,0,1,2.451,1,2.051,2.051,0,0,1,1.082,1.375c-.375.065-.569.375-.815.61-1.253,1.189-2.387,2.5-3.71,3.617-1.254-.57-2.033-.09-2.036,1.284q-.013,6.876,0,13.752c0,.319-.016.639-.025.958l-16.756,0c-.008-1.252-.009-2.5-.026-3.756a5.281,5.281,0,0,0-3.718-5.205q-1.917-.678-3.861-1.281a.784.784,0,0,1-.647-.825,2.016,2.016,0,0,1,1.062-2.213,9.941,9.941,0,0,0,2.81-2.905,15.291,15.291,0,0,0,2.233,1.658,15.053,15.053,0,0,0,19.678-3.648,10.51,10.51,0,0,0,2.282-4.425" transform="translate(-100.89 -108.751)" fill="#eb5d7d"/>
            <path id="Trazado_657248" data-name="Trazado 657248" d="M97.34,215.657c-.007-1.3-.06-2.61-.011-3.913a3.383,3.383,0,0,1,3.108-3.124c.319-.013.395.239.531.412a9.4,9.4,0,0,0,14.467.614c.484-.517.728-1.293,1.809-.8,1.266.582,2.234,1.289,2.311,2.742.072,1.353.007,2.714,0,4.071l-22.219-.007" transform="translate(-66.087 -141.682)" fill="#f8da76"/>
            <path id="Trazado_657249" data-name="Trazado 657249" d="M11.868,201.108q-.018-6.678-.042-13.356c0-.435.182-.541.577-.535q1.64.026,3.28,0c.4-.006.575.106.573.538q-.033,6.678-.041,13.357l-4.347,0" transform="translate(-8.031 -127.146)" fill="#ab8668"/>
            <path id="Trazado_657250" data-name="Trazado 657250" d="M234.124,206.964c-.008-3.546-.011-7.093-.031-10.639,0-.385.122-.518.5-.507q1.04.031,2.08,0c.371-.011.52.109.518.5-.023,3.545-.032,7.091-.045,10.636l-3.024.011" transform="translate(-158.982 -132.988)" fill="#f2d5a9"/>
            <path id="Trazado_657251" data-name="Trazado 657251" d="M151.187,44.422a11.317,11.317,0,0,0-2.547,1.128c-.333.153-.592.3-.553-.29.191-2.872.009-5.764.372-8.624a13.873,13.873,0,0,1,26.852-2.311,20.969,20.969,0,0,1,.785,6.558,147.324,147.324,0,0,0,1.162,15.782.976.976,0,0,1-.57,1.144,30.186,30.186,0,0,1-7.378,2.773c-.335.082-.481.019-.494-.365a2.023,2.023,0,0,1,.909-2.047,13.032,13.032,0,0,0,5.759-13.3c-.395-2.746-2.206-4.4-4.726-5.348a48.644,48.644,0,0,0-6.586-1.617,17.012,17.012,0,0,1-6.674-2.73c-.945-.706-1.844-.306-2.03.857a4.976,4.976,0,0,1-3.39,3.9c-.343.143-.705.24-1.058.361-.6.207-1.048.549-1.013,1.258a1.174,1.174,0,0,0,1.178,1.174q0,.849,0,1.7" transform="translate(-100.569 -16.912)" fill="#cb9e6b"/>
            <path id="Trazado_657252" data-name="Trazado 657252" d="M50.929,40.489a52.56,52.56,0,0,0,11.61-1.8c.781-.245,1.547-.535,2.32-.8.162,1.071.3,2.146.494,3.212a3.226,3.226,0,0,0,.815,1.933c-.029,1.23.336,1.612,1.557,1.628a5.14,5.14,0,0,1,1.426.109,1.419,1.419,0,0,1,1.085,1.412,1.433,1.433,0,0,1-1.093,1.488c-1.553.47-1.554.468-1.676,2.032A11.078,11.078,0,0,1,58.281,59.92a8.176,8.176,0,0,1-.95.069c-.019-.33-.315-.424-.525-.553a12.519,12.519,0,0,1-2.679-2.213,11.73,11.73,0,0,1-3.2-8.415,1.326,1.326,0,0,0,1.148-1.547c-.018-.29-.006-.583,0-.874a1.174,1.174,0,0,0-1.143-1.34q0-2.279,0-4.558m5.45,15.151a4.831,4.831,0,0,0,3.566-1.708,1.181,1.181,0,0,0-.021-1.719,1.166,1.166,0,0,0-1.656.034c-1.592,1.328-2.206,1.329-3.786,0a1.186,1.186,0,0,0-1.728,1.624,4.83,4.83,0,0,0,3.626,1.768m4.3-8.766c0,.239-.016.478,0,.716A1.183,1.183,0,0,0,61.84,48.77a1.166,1.166,0,0,0,1.2-1.055,4.456,4.456,0,0,0,.037-.792c0-1.284-.371-1.881-1.188-1.9s-1.213.567-1.207,1.853" transform="translate(-34.586 -25.727)" fill="#ba9676"/>
            <path id="Trazado_657253" data-name="Trazado 657253" d="M174.6,67.593c.294-.5.485-1.236.915-1.422.333-.144.957.416,1.463.637a41.062,41.062,0,0,0,7.992,2.149,16.161,16.161,0,0,1,3.645,1.131,4.471,4.471,0,0,1,2.6,3.748,11.2,11.2,0,0,1-8.765,12.076c-.312.06-.629.087-.944.13a14.359,14.359,0,0,1-3.936-3.144,12.72,12.72,0,0,1-2.944-8.02c1.077-.341,1.252-.6,1.254-1.886,0-1.366-.159-1.616-1.254-1.967q-.014-1.716-.028-3.432m5.612,14.09a4.656,4.656,0,0,0,3.589-1.8,1.177,1.177,0,0,0-1.649-1.666,5.558,5.558,0,0,0-.413.375,2.161,2.161,0,0,1-3.14.028c-.137-.126-.262-.267-.408-.381a1.134,1.134,0,0,0-1.642.087,1.116,1.116,0,0,0-.014,1.589,4.75,4.75,0,0,0,3.677,1.764m6.614-8.755c0-.212.006-.424,0-.637a1.16,1.16,0,0,0-1.127-1.211,1.176,1.176,0,0,0-1.231,1.1,6.818,6.818,0,0,0-.006,1.507,1.167,1.167,0,0,0,1.208,1.136,1.187,1.187,0,0,0,1.157-1.263c.013-.211,0-.424,0-.637" transform="translate(-118.578 -44.924)" fill="#f7dfb7"/>
            <path id="Trazado_657254" data-name="Trazado 657254" d="M119.182,134.143a37.418,37.418,0,0,0,10.954-3.275c.375-.193.727-.432,1.089-.649a3.123,3.123,0,0,1,.327.877,2.591,2.591,0,0,0,2.86,2.514,1.777,1.777,0,0,0,.8,1.558,1.333,1.333,0,0,1,.54,1.545,1.424,1.424,0,0,1-1.2,1.128,8.319,8.319,0,0,1-1.273.062c-1.133.019-1.549.419-1.562,1.536a15.907,15.907,0,0,1-.153,2.628c-.654,3.678-4.325,6.832-7.857,6.728-.695-.666-1.416-1.308-2.078-2.006a4.241,4.241,0,0,1-1.268-2.047c.139.078.281.149.416.234a4.529,4.529,0,0,0,5.945-.728c.627-.656.685-1.383.151-1.892-.5-.472-1.189-.4-1.835.2a2.187,2.187,0,0,1-3.428.013c-.781-.717-1.245-.72-2.065-.011-.528-1.168-.256-2.407-.319-3.617.708-.114,1.174-.479,1.162-1.242-.012-.735-.477-1.055-1.162-1.124q-.019-1.215-.038-2.431m9.371,3.572a1.171,1.171,0,0,0-2.341-.006,1.171,1.171,0,1,0,2.341.006" transform="translate(-80.942 -88.437)" fill="#e6bf8d"/>
            <path id="Trazado_657255" data-name="Trazado 657255" d="M66.144,22.4a3.227,3.227,0,0,1-.815-1.933c-.192-1.066-.332-2.141-.494-3.212.167-.127.343-.246.5-.384a1.032,1.032,0,0,0,.3-1.42,1.1,1.1,0,0,0-1.479-.572,23.213,23.213,0,0,1-4.086,1.345,45.772,45.772,0,0,1-7.488,1.058c-.556.036-1.111.079-1.667.118,0-1.087-.042-2.177,0-3.263a7.91,7.91,0,0,1,1.873-4.781c.474-.586,1.277-.88,1.479-1.693a72.87,72.87,0,0,1,9.254-.014,2.573,2.573,0,0,1,2.42,1.993,3,3,0,0,0,1.2,1.628,3.888,3.888,0,0,1,1.687,3.2c.056,2.183.005,4.369.031,6.554.006.537-.245.621-.683.594a1.919,1.919,0,0,0-2.027.785" transform="translate(-34.562 -5.1)" fill="#5f473e"/>
            <path id="Trazado_657256" data-name="Trazado 657256" d="M179.259,143.115a4.344,4.344,0,0,0,2.817,2.619c.277.09.544.213.814.322,1.36.546,1.4.568.72,1.9a9.79,9.79,0,0,1-16.8,1.366.946.946,0,0,1-.089-.214c3.38-.871,4.622-3.186,3.236-6.011.494.083.994.14,1.481.255a13.975,13.975,0,0,0,3.6.379,17.628,17.628,0,0,0,4.212-.618" transform="translate(-113.231 -97.185)" fill="#f2d5a9"/>
            <path id="Trazado_657257" data-name="Trazado 657257" d="M33.1,54.285A11.729,11.729,0,0,0,36.3,62.7a12.509,12.509,0,0,0,2.679,2.213c.21.128.505.223.525.553-4.111.645-8.857-1.957-10.862-5.952a10.882,10.882,0,0,1-1.188-4.354c-.079-1.514-.171-1.622-1.612-2.006a1.48,1.48,0,0,1-1.162-1.441,1.463,1.463,0,0,1,1.2-1.485,10.6,10.6,0,0,1,2.706-.083,1.465,1.465,0,0,0,1.635-1.188c.2-.716.5-1.405.682-2.126.162-.647.486-.95,1.167-.873a9.305,9.305,0,0,0,1.037.008q0,2.279,0,4.558c-.908.152-1.222.5-1.263,1.418-.073,1.651.136,2.041,1.26,2.343" transform="translate(-16.756 -31.204)" fill="#ab8668"/>
            <path id="Trazado_657258" data-name="Trazado 657258" d="M184.862,158.161a10.51,10.51,0,0,1-2.282,4.425,15.053,15.053,0,0,1-19.678,3.648,15.291,15.291,0,0,1-2.233-1.658,15.617,15.617,0,0,0,1.2-2.782c.475.395.884.76,1.318,1.092a12.162,12.162,0,0,0,18.313-3.953c.013-.023.023-.048.036-.071.3-.552.328-1.511.849-1.614.577-.114,1.278.386,1.92.631a5.733,5.733,0,0,1,.558.283" transform="translate(-109.117 -106.782)" fill="#c04869"/>
            <path id="Trazado_657259" data-name="Trazado 657259" d="M134.5,117.938a2.591,2.591,0,0,1-2.86-2.514,3.121,3.121,0,0,0-.327-.877,1.355,1.355,0,0,0-.276-1.608,1.331,1.331,0,0,0-1.635-.036,31.847,31.847,0,0,1-10.09,3.068c.051-.417.1-.834.154-1.25a11.591,11.591,0,0,1,1.3-3.955,14.316,14.316,0,0,1,2.874-3.623,22.054,22.054,0,0,1,2.955,1.391c1.415.68,2.814,1.4,4.216,2.1a1.382,1.382,0,0,0,1.509.042c.391-.266.505.03.659.282a11.721,11.721,0,0,1,1.523,6.976" transform="translate(-81.03 -72.765)" fill="#5f473e"/>
            <path id="Trazado_657260" data-name="Trazado 657260" d="M39.29,7.929c-.2.812-1.006,1.106-1.479,1.692A7.909,7.909,0,0,0,35.938,14.4c-.04,1.086,0,2.175,0,3.263q-1.118.027-2.236.055a1.672,1.672,0,0,0-1.882,1.364c-.254.756-.49,1.519-.752,2.272-.346,1-1.178.42-1.78.488s-.407-.513-.4-.825a42.02,42.02,0,0,1,.153-6.3A8.312,8.312,0,0,1,32.968,9.07c1.968-1.283,4.136-1.2,6.323-1.141" transform="translate(-19.591 -5.366)" fill="#503732"/>
            <path id="Trazado_657261" data-name="Trazado 657261" d="M163.184,77.937a12.723,12.723,0,0,0,2.944,8.02,14.352,14.352,0,0,0,3.936,3.143,11.024,11.024,0,0,1-7.514-1.769,1.344,1.344,0,0,1-.52-.671,12.993,12.993,0,0,0-2.716-4.183,1.278,1.278,0,0,1-.387-.99c.019-1.489,0-2.979.009-4.469a1.334,1.334,0,0,0-1.184-1.526q0-.849,0-1.7a9.274,9.274,0,0,0,5.406-3.142l.028,3.432c-1.071.408-1.155.554-1.153,2.006,0,1.282.11,1.454,1.153,1.847" transform="translate(-107.134 -47.983)" fill="#f2d5a9"/>
            <path id="Trazado_657262" data-name="Trazado 657262" d="M50.418,110.97a15.793,15.793,0,0,0,4.641,1.133,13.081,13.081,0,0,0,5.788-.859c.629-.246.834-.178.8.54-.066,1.585.149,3.185-.706,4.671a5.753,5.753,0,0,1-6.209,2.722,5.582,5.582,0,0,1-4.315-5.287c-.017-.93,0-1.862,0-2.919" transform="translate(-34.237 -75.364)" fill="#ab8668"/>
            <path id="Trazado_657263" data-name="Trazado 657263" d="M101.5,147.247c.063,1.21-.21,2.449.319,3.617-.5,1.017.268,1.56.816,2.185a4.241,4.241,0,0,0,1.269,2.047c.662.7,1.383,1.34,2.078,2.006a8.011,8.011,0,0,1-7.475-3.873,8.16,8.16,0,0,1-1.329-4.77c.016-2.087-.124-2.22-2.2-2.242a1.68,1.68,0,0,1-1.793-1.047,1.586,1.586,0,0,1,1.515-2.1c2.265-.085,4.515-.319,6.76-.615q.019,1.216.038,2.431a1.075,1.075,0,0,0-1.164,1.124c-.023.765.454,1.128,1.163,1.241" transform="translate(-63.225 -96.744)" fill="#dbae7e"/>
            <path id="Trazado_657264" data-name="Trazado 657264" d="M52.16,126.964c0,.919.006,1.654-.005,2.389a.569.569,0,0,1-.125.36,4.132,4.132,0,0,0-1.218,2.622c-.02.246-.231.33-.419.439a11.142,11.142,0,0,1-12.537-1.392,12.192,12.192,0,0,1-3.392-5.14c-.211-.613-.1-.919.558-1.061s1.381-.632,1.98-.51c.683.14.548,1.126.839,1.714a8.046,8.046,0,0,0,13.983,1.051c.074-.107.151-.213.337-.473" transform="translate(-23.339 -84.656)" fill="#3e92d2"/>
            <path id="Trazado_657265" data-name="Trazado 657265" d="M8.141,136.3a17.241,17.241,0,0,0,2.743,3.358,1.388,1.388,0,0,0,.074,1.767c.032.043.059.089.088.133,2.407,3.662,2.4,3.662,2.265,8.075-.013.416-.076.626-.564.618-1.57-.027-3.142-.021-4.712,0-.4,0-.554-.1-.553-.534.015-3.86,0-7.72.019-11.58a2.6,2.6,0,0,1,.64-1.834" transform="translate(-5.081 -92.568)" fill="#3e92d2"/>
            <path id="Trazado_657266" data-name="Trazado 657266" d="M108.713,106.906a14.316,14.316,0,0,0-2.874,3.623,11.59,11.59,0,0,0-1.3,3.955c-.053.416-.1.834-.154,1.25a55.869,55.869,0,0,1-6.419.68c-.495.03-.675-.137-.625-.634a12.011,12.011,0,0,1,1.629-5.206c.1-.156.176-.518.436-.282.765.7,1.45.234,2.13-.1,2.107-1.034,4.2-2.1,6.3-3.134.265-.131.527-.424.872-.152" transform="translate(-66.104 -72.528)" fill="#503732"/>
            <path id="Trazado_657267" data-name="Trazado 657267" d="M184.353,135.721a17.627,17.627,0,0,1-4.212.618,13.975,13.975,0,0,1-3.6-.379c-.486-.115-.987-.172-1.481-.255-1.1-.934-.761-2.208-.829-3.493a18.5,18.5,0,0,0,3.528,1.018,13.151,13.151,0,0,0,5.686-.308c.616-.181.806-.062.745.578a8.15,8.15,0,0,0,.167,2.221" transform="translate(-118.325 -89.79)" fill="#e6bf8d"/>
            <path id="Trazado_657268" data-name="Trazado 657268" d="M124.553,203.576c.276.157.543.334.83.467.846.391.849.384.126,1.044a7.015,7.015,0,0,1-9.613-.158,1.066,1.066,0,0,1-.429-.6,6.5,6.5,0,0,0,1.548-.742c.953-.015,1.859.322,2.816.336a25.322,25.322,0,0,0,4.721-.343" transform="translate(-78.419 -138.257)" fill="#dbae7e"/>
            <path id="Trazado_657269" data-name="Trazado 657269" d="M232.975,171.766c1.323-1.118,2.457-2.428,3.71-3.617.246-.234.44-.545.815-.61a1.845,1.845,0,0,1,.3,1.2c.017,1.619-.012,3.24.019,4.859.009.511-.184.625-.648.613-1.062-.027-2.126-.038-3.186,0-.556.021-.677-.208-.652-.7a2.288,2.288,0,0,0-.357-1.745" transform="translate(-158.223 -113.783)" fill="#c04869"/>
            <path id="Trazado_657270" data-name="Trazado 657270" d="M127.83,197.638a25.324,25.324,0,0,1-4.721.343c-.958-.014-1.864-.351-2.816-.336a2.817,2.817,0,0,0,.839-2.241c-.049-.578.146-.642.678-.518a9.9,9.9,0,0,0,4.511,0c.507-.116.738-.095.68.5a2.8,2.8,0,0,0,.83,2.245" transform="translate(-81.695 -132.319)" fill="#cb9e6b"/>
            <path id="Trazado_657271" data-name="Trazado 657271" d="M144.74,95.629v4.288l-4.288-2.142,4.288-2.146" transform="translate(-95.387 -64.946)" fill="#f8da76"/>
            <path id="Trazado_657272" data-name="Trazado 657272" d="M114.588,97.788,110.3,99.927V95.65l4.284,2.138" transform="translate(-74.912 -64.96)" fill="#f8da76"/>
            <path id="Trazado_657273" data-name="Trazado 657273" d="M59.591,85.277a4.83,4.83,0,0,1-3.626-1.767,1.186,1.186,0,0,1,1.728-1.624c1.58,1.328,2.194,1.328,3.786,0a1.166,1.166,0,0,1,1.656-.034,1.18,1.18,0,0,1,.022,1.719,4.829,4.829,0,0,1-3.566,1.708" transform="translate(-37.799 -55.365)" fill="#030302"/>
            <path id="Trazado_657274" data-name="Trazado 657274" d="M81.315,61.982c-.006-1.285.38-1.874,1.207-1.853s1.193.619,1.188,1.9a4.455,4.455,0,0,1-.037.792,1.166,1.166,0,0,1-1.2,1.055A1.183,1.183,0,0,1,81.318,62.7c-.019-.237,0-.477,0-.716" transform="translate(-55.22 -40.836)" fill="#030302"/>
            <path id="Trazado_657275" data-name="Trazado 657275" d="M48.236,63.975c-1.124-.3-1.333-.692-1.26-2.343.04-.913.355-1.266,1.263-1.418a1.174,1.174,0,0,1,1.142,1.34c0,.291-.015.584,0,.874a1.327,1.327,0,0,1-1.147,1.547" transform="translate(-31.894 -40.894)" fill="#030302"/>
            <path id="Trazado_657276" data-name="Trazado 657276" d="M183.62,106.612a4.75,4.75,0,0,1-3.677-1.764,1.117,1.117,0,0,1,.014-1.589,1.134,1.134,0,0,1,1.642-.087c.147.113.271.255.408.381a2.161,2.161,0,0,0,3.14-.028,5.557,5.557,0,0,1,.413-.375,1.177,1.177,0,0,1,1.649,1.666,4.656,4.656,0,0,1-3.589,1.8" transform="translate(-121.986 -69.852)" fill="#030302"/>
            <path id="Trazado_657277" data-name="Trazado 657277" d="M207.616,83.353c0,.212.012.425,0,.637a1.187,1.187,0,0,1-1.157,1.263,1.166,1.166,0,0,1-1.207-1.136,6.78,6.78,0,0,1,.005-1.507,1.175,1.175,0,0,1,1.231-1.1,1.161,1.161,0,0,1,1.127,1.211c.008.212,0,.424,0,.637" transform="translate(-139.367 -55.349)" fill="#030302"/>
            <path id="Trazado_657278" data-name="Trazado 657278" d="M172.247,85.2c-1.043-.393-1.151-.566-1.153-1.847,0-1.451.082-1.6,1.153-2.006,1.1.35,1.256.6,1.254,1.967,0,1.282-.176,1.546-1.254,1.886" transform="translate(-116.197 -55.248)" fill="#030302"/>
            <path id="Trazado_657279" data-name="Trazado 657279" d="M120.764,169.738c-.548-.625-1.318-1.168-.816-2.185.821-.709,1.284-.707,2.066.011a2.187,2.187,0,0,0,3.428-.013c.646-.6,1.339-.672,1.834-.2.535.509.477,1.237-.15,1.892a4.529,4.529,0,0,1-5.946.728c-.134-.084-.277-.156-.416-.234" transform="translate(-81.351 -113.433)" fill="#030302"/>
            <path id="Trazado_657280" data-name="Trazado 657280" d="M143.433,151.12a1.171,1.171,0,1,1-2.341-.006,1.171,1.171,0,0,1,2.341.006" transform="translate(-95.821 -101.842)" fill="#030302"/>
            <path id="Trazado_657281" data-name="Trazado 657281" d="M116.835,152.393c-.709-.113-1.186-.476-1.163-1.241a1.075,1.075,0,0,1,1.164-1.124c.683.069,1.149.389,1.161,1.124.012.763-.453,1.128-1.162,1.242" transform="translate(-78.557 -101.89)" fill="#030302"/>
          </g>
        </g>
      </g>
    </g>
    <g id="Grupo_995906" data-name="Grupo 995906" transform="translate(-514)">
      <path id="Rectángulo_312803" data-name="Rectángulo 312803" d="M0,0H272A249,249,0,0,1,521,249v23A249,249,0,0,1,272,521H249A249,249,0,0,1,0,272V0A0,0,0,0,1,0,0Z" transform="translate(1054 6643)" fill="#5840e2" opacity="0.14"/>
      <path id="Rectángulo_312804" data-name="Rectángulo 312804" d="M0,0H272A249,249,0,0,1,521,249v23A249,249,0,0,1,272,521H249A249,249,0,0,1,0,272V0A0,0,0,0,1,0,0Z" transform="translate(1575 6643) rotate(90)" fill="#1cf290" opacity="0.14"/>
      <path id="Rectángulo_312805" data-name="Rectángulo 312805" d="M0,0H272A249,249,0,0,1,521,249v23A249,249,0,0,1,272,521H249A249,249,0,0,1,0,272V0A0,0,0,0,1,0,0Z" transform="translate(1054 7164) rotate(-90)" fill="#f46464" opacity="0.14"/>
      <path id="Trazado_657325" data-name="Trazado 657325" d="M3.258,5.625l3.719,9.281L10.7,5.625h1.945V17h-1.5V12.57l.141-4.781L7.547,17H6.4L2.672,7.813,2.82,12.57V17H1.32V5.625ZM14.68,12.7a4.993,4.993,0,0,1,.488-2.234A3.643,3.643,0,0,1,16.527,8.93a3.7,3.7,0,0,1,1.988-.539,3.565,3.565,0,0,1,2.793,1.2,4.6,4.6,0,0,1,1.066,3.18v.1a5.036,5.036,0,0,1-.473,2.215,3.589,3.589,0,0,1-1.352,1.527,3.743,3.743,0,0,1-2.02.547,3.556,3.556,0,0,1-2.785-1.2A4.575,4.575,0,0,1,14.68,12.8Zm1.453.172a3.616,3.616,0,0,0,.652,2.258,2.211,2.211,0,0,0,3.5-.012A3.955,3.955,0,0,0,20.93,12.7a3.61,3.61,0,0,0-.66-2.254,2.1,2.1,0,0,0-1.754-.863,2.075,2.075,0,0,0-1.727.852A3.925,3.925,0,0,0,16.133,12.867Zm7.7-.164a4.952,4.952,0,0,1,.922-3.129,3.137,3.137,0,0,1,4.766-.168V5h1.445V17H29.641l-.07-.906a2.943,2.943,0,0,1-2.414,1.063,2.887,2.887,0,0,1-2.395-1.2,5.008,5.008,0,0,1-.926-3.141Zm1.445.164a3.749,3.749,0,0,0,.594,2.25,1.92,1.92,0,0,0,1.641.813A2.108,2.108,0,0,0,29.523,14.7V10.813a2.125,2.125,0,0,0-1.992-1.2,1.929,1.929,0,0,0-1.656.82A4.128,4.128,0,0,0,25.281,12.867Zm11.438,4.289a3.693,3.693,0,0,1-2.8-1.129,4.19,4.19,0,0,1-1.078-3.02v-.266a5.073,5.073,0,0,1,.48-2.246,3.748,3.748,0,0,1,1.344-1.547,3.378,3.378,0,0,1,1.871-.559A3.166,3.166,0,0,1,39.1,9.477a4.7,4.7,0,0,1,.914,3.109v.6H34.289a3,3,0,0,0,.73,2.02,2.3,2.3,0,0,0,1.777.77,2.517,2.517,0,0,0,1.3-.312,3.259,3.259,0,0,0,.93-.828l.883.688A3.55,3.55,0,0,1,36.719,17.156Zm-.18-7.578a1.928,1.928,0,0,0-1.469.637A3.1,3.1,0,0,0,34.336,12H38.57v-.109a2.753,2.753,0,0,0-.594-1.707A1.815,1.815,0,0,0,36.539,9.578ZM43.258,17H41.813V5h1.445Zm1.93-4.3a4.993,4.993,0,0,1,.488-2.234A3.643,3.643,0,0,1,47.035,8.93a3.7,3.7,0,0,1,1.988-.539,3.565,3.565,0,0,1,2.793,1.2,4.6,4.6,0,0,1,1.066,3.18v.1a5.036,5.036,0,0,1-.473,2.215,3.589,3.589,0,0,1-1.352,1.527,3.743,3.743,0,0,1-2.02.547,3.556,3.556,0,0,1-2.785-1.2A4.575,4.575,0,0,1,45.188,12.8Zm1.453.172a3.616,3.616,0,0,0,.652,2.258,2.211,2.211,0,0,0,3.5-.012,3.955,3.955,0,0,0,.648-2.418,3.61,3.61,0,0,0-.66-2.254,2.1,2.1,0,0,0-1.754-.863,2.075,2.075,0,0,0-1.727.852A3.925,3.925,0,0,0,46.641,12.867Zm15.523,4.289a3.693,3.693,0,0,1-2.8-1.129,4.19,4.19,0,0,1-1.078-3.02v-.266a5.073,5.073,0,0,1,.48-2.246,3.748,3.748,0,0,1,1.344-1.547,3.378,3.378,0,0,1,1.871-.559,3.166,3.166,0,0,1,2.563,1.086,4.7,4.7,0,0,1,.914,3.109v.6H59.734a3,3,0,0,0,.73,2.02,2.3,2.3,0,0,0,1.777.77,2.517,2.517,0,0,0,1.3-.312,3.259,3.259,0,0,0,.93-.828l.883.688A3.55,3.55,0,0,1,62.164,17.156Zm-.18-7.578a1.928,1.928,0,0,0-1.469.637A3.1,3.1,0,0,0,59.781,12h4.234v-.109a2.753,2.753,0,0,0-.594-1.707A1.815,1.815,0,0,0,61.984,9.578Zm8.539,6.4a2.082,2.082,0,0,0,1.352-.469,1.649,1.649,0,0,0,.641-1.172h1.367a2.621,2.621,0,0,1-.5,1.383,3.293,3.293,0,0,1-1.23,1.047,3.55,3.55,0,0,1-1.629.391A3.482,3.482,0,0,1,67.777,16a4.59,4.59,0,0,1-1.02-3.152v-.242a5.089,5.089,0,0,1,.453-2.2,3.451,3.451,0,0,1,1.3-1.492,3.7,3.7,0,0,1,2-.531,3.39,3.39,0,0,1,2.363.852,3.043,3.043,0,0,1,1,2.211H72.516a1.992,1.992,0,0,0-.621-1.348,1.932,1.932,0,0,0-1.379-.527,2.023,2.023,0,0,0-1.707.793,3.724,3.724,0,0,0-.605,2.293v.273a3.65,3.65,0,0,0,.6,2.25A2.033,2.033,0,0,0,70.523,15.977Zm4.6-3.281a4.993,4.993,0,0,1,.488-2.234A3.643,3.643,0,0,1,76.973,8.93a3.7,3.7,0,0,1,1.988-.539,3.565,3.565,0,0,1,2.793,1.2,4.6,4.6,0,0,1,1.066,3.18v.1a5.036,5.036,0,0,1-.473,2.215A3.589,3.589,0,0,1,81,16.609a3.743,3.743,0,0,1-2.02.547,3.556,3.556,0,0,1-2.785-1.2A4.575,4.575,0,0,1,75.125,12.8Zm1.453.172a3.616,3.616,0,0,0,.652,2.258,2.211,2.211,0,0,0,3.5-.012,3.955,3.955,0,0,0,.648-2.418,3.61,3.61,0,0,0-.66-2.254,2.1,2.1,0,0,0-1.754-.863,2.075,2.075,0,0,0-1.727.852A3.925,3.925,0,0,0,76.578,12.867Zm12.977,1.891a1.064,1.064,0,0,0-.441-.91,4.249,4.249,0,0,0-1.539-.559,7.277,7.277,0,0,1-1.742-.562,2.479,2.479,0,0,1-.953-.781,1.869,1.869,0,0,1-.309-1.078,2.193,2.193,0,0,1,.879-1.758A3.432,3.432,0,0,1,87.7,8.391a3.532,3.532,0,0,1,2.332.742,2.357,2.357,0,0,1,.895,1.9H89.469a1.3,1.3,0,0,0-.5-1.023,1.888,1.888,0,0,0-1.27-.43,1.976,1.976,0,0,0-1.234.344,1.082,1.082,0,0,0-.445.9.877.877,0,0,0,.414.789,5.1,5.1,0,0,0,1.5.508,7.8,7.8,0,0,1,1.754.578,2.558,2.558,0,0,1,1,.809A1.988,1.988,0,0,1,91,14.656a2.163,2.163,0,0,1-.906,1.816,3.8,3.8,0,0,1-2.352.684,4.257,4.257,0,0,1-1.8-.359,2.922,2.922,0,0,1-1.223-1,2.42,2.42,0,0,1-.441-1.395h1.445a1.5,1.5,0,0,0,.582,1.152,2.258,2.258,0,0,0,1.434.426,2.331,2.331,0,0,0,1.316-.332A1.02,1.02,0,0,0,89.555,14.758ZM94.453,17H93.008V8.547h1.445ZM92.891,6.3a.863.863,0,0,1,.215-.594.807.807,0,0,1,.637-.242.819.819,0,0,1,.641.242A.854.854,0,0,1,94.6,6.3a.826.826,0,0,1-.219.586.834.834,0,0,1-.641.234.821.821,0,0,1-.637-.234A.834.834,0,0,1,92.891,6.3Zm8.8,8.453a1.064,1.064,0,0,0-.441-.91,4.249,4.249,0,0,0-1.539-.559,7.277,7.277,0,0,1-1.742-.562,2.479,2.479,0,0,1-.953-.781,1.869,1.869,0,0,1-.309-1.078,2.193,2.193,0,0,1,.879-1.758,3.432,3.432,0,0,1,2.246-.719,3.532,3.532,0,0,1,2.332.742,2.357,2.357,0,0,1,.895,1.9H101.6a1.3,1.3,0,0,0-.5-1.023,1.888,1.888,0,0,0-1.27-.43,1.976,1.976,0,0,0-1.234.344,1.082,1.082,0,0,0-.445.9.877.877,0,0,0,.414.789,5.1,5.1,0,0,0,1.5.508,7.8,7.8,0,0,1,1.754.578,2.558,2.558,0,0,1,1,.809,1.988,1.988,0,0,1,.324,1.152,2.163,2.163,0,0,1-.906,1.816,3.8,3.8,0,0,1-2.352.684,4.257,4.257,0,0,1-1.8-.359,2.922,2.922,0,0,1-1.223-1,2.42,2.42,0,0,1-.441-1.395h1.445a1.5,1.5,0,0,0,.582,1.152,2.258,2.258,0,0,0,1.434.426,2.331,2.331,0,0,0,1.316-.332A1.02,1.02,0,0,0,101.688,14.758ZM106.977,6.5V8.547h1.578V9.664h-1.578v5.249a1.173,1.173,0,0,0,.211.763.888.888,0,0,0,.719.254,3.5,3.5,0,0,0,.688-.094V17a4.215,4.215,0,0,1-1.109.155,1.8,1.8,0,0,1-1.461-.586,2.517,2.517,0,0,1-.492-1.664V9.664h-1.539V8.547h1.539V6.5Zm6.773,10.656a3.693,3.693,0,0,1-2.8-1.129,4.19,4.19,0,0,1-1.078-3.02v-.266a5.073,5.073,0,0,1,.48-2.246A3.748,3.748,0,0,1,111.7,8.949a3.378,3.378,0,0,1,1.871-.559,3.166,3.166,0,0,1,2.563,1.086,4.7,4.7,0,0,1,.914,3.109v.6H111.32a3,3,0,0,0,.73,2.02,2.3,2.3,0,0,0,1.777.77,2.517,2.517,0,0,0,1.3-.312,3.259,3.259,0,0,0,.93-.828l.883.688A3.55,3.55,0,0,1,113.75,17.156Zm-.18-7.578a1.928,1.928,0,0,0-1.469.637A3.1,3.1,0,0,0,111.367,12H115.6v-.109a2.753,2.753,0,0,0-.594-1.707A1.815,1.815,0,0,0,113.57,9.578Zm.7-4.578h1.75L113.93,7.3l-1.164,0Zm5.8,3.547.039.938a3.122,3.122,0,0,1,2.508-1.094,2.417,2.417,0,0,1,2.414,1.359,3.2,3.2,0,0,1,1.1-.984,3.242,3.242,0,0,1,1.6-.375q2.781,0,2.828,2.945V17h-1.445V11.422a1.941,1.941,0,0,0-.414-1.355,1.824,1.824,0,0,0-1.391-.449,1.916,1.916,0,0,0-1.336.48,1.949,1.949,0,0,0-.617,1.293V17h-1.453V11.461a1.613,1.613,0,0,0-1.8-1.844,1.934,1.934,0,0,0-1.945,1.211V17h-1.445V8.547ZM134.313,17h-1.445V8.547h1.445ZM132.75,6.3a.863.863,0,0,1,.215-.594.807.807,0,0,1,.637-.242.819.819,0,0,1,.641.242.854.854,0,0,1,.219.594.826.826,0,0,1-.219.586.834.834,0,0,1-.641.234.821.821,0,0,1-.637-.234A.834.834,0,0,1,132.75,6.3Zm7.266,9.672a2.082,2.082,0,0,0,1.352-.469,1.649,1.649,0,0,0,.641-1.172h1.367a2.621,2.621,0,0,1-.5,1.383,3.293,3.293,0,0,1-1.23,1.047,3.55,3.55,0,0,1-1.629.391A3.482,3.482,0,0,1,137.27,16a4.59,4.59,0,0,1-1.02-3.152v-.242a5.089,5.089,0,0,1,.453-2.2A3.451,3.451,0,0,1,138,8.922a3.7,3.7,0,0,1,2-.531,3.39,3.39,0,0,1,2.363.852,3.043,3.043,0,0,1,1,2.211h-1.367a1.992,1.992,0,0,0-.621-1.348,1.932,1.932,0,0,0-1.379-.527,2.023,2.023,0,0,0-1.707.793,3.724,3.724,0,0,0-.605,2.293v.273a3.65,3.65,0,0,0,.6,2.25A2.033,2.033,0,0,0,140.016,15.977Zm4.6-3.281a4.993,4.993,0,0,1,.488-2.234,3.642,3.642,0,0,1,1.359-1.531,3.7,3.7,0,0,1,1.988-.539,3.565,3.565,0,0,1,2.793,1.2,4.6,4.6,0,0,1,1.066,3.18v.1a5.036,5.036,0,0,1-.473,2.215,3.589,3.589,0,0,1-1.352,1.527,3.743,3.743,0,0,1-2.02.547,3.556,3.556,0,0,1-2.785-1.2,4.575,4.575,0,0,1-1.066-3.164Zm1.453.172a3.616,3.616,0,0,0,.652,2.258,2.211,2.211,0,0,0,3.5-.012,3.954,3.954,0,0,0,.648-2.418,3.61,3.61,0,0,0-.66-2.254,2.1,2.1,0,0,0-1.754-.863,2.075,2.075,0,0,0-1.727.852A3.925,3.925,0,0,0,146.07,12.867Z" transform="translate(1073 6666)" fill="#12263f"/>
      <path id="Trazado_657326" data-name="Trazado 657326" d="M2.93,17H1.43V5.625h1.5ZM6.813,8.547l.047,1.063A3.08,3.08,0,0,1,9.391,8.391q2.68,0,2.7,3.023V17H10.648V11.406a1.946,1.946,0,0,0-.418-1.352,1.675,1.675,0,0,0-1.277-.437,2.086,2.086,0,0,0-1.234.375,2.546,2.546,0,0,0-.828.984V17H5.445V8.547ZM16.234,6.5V8.547h1.578V9.664H16.234v5.249a1.173,1.173,0,0,0,.211.763.888.888,0,0,0,.719.254,3.5,3.5,0,0,0,.688-.094V17a4.215,4.215,0,0,1-1.109.155,1.8,1.8,0,0,1-1.461-.586,2.517,2.517,0,0,1-.492-1.664V9.664H13.25V8.547h1.539V6.5Zm6.773,10.656a3.693,3.693,0,0,1-2.8-1.129,4.19,4.19,0,0,1-1.078-3.02v-.266a5.073,5.073,0,0,1,.48-2.246,3.748,3.748,0,0,1,1.344-1.547,3.378,3.378,0,0,1,1.871-.559,3.166,3.166,0,0,1,2.563,1.086,4.7,4.7,0,0,1,.914,3.109v.6H20.578a3,3,0,0,0,.73,2.02,2.3,2.3,0,0,0,1.777.77,2.517,2.517,0,0,0,1.3-.312,3.259,3.259,0,0,0,.93-.828l.883.688A3.55,3.55,0,0,1,23.008,17.156Zm-.18-7.578a1.928,1.928,0,0,0-1.469.637A3.1,3.1,0,0,0,20.625,12h4.234v-.109a2.753,2.753,0,0,0-.594-1.707A1.815,1.815,0,0,0,22.828,9.578Zm9.234.266a4.331,4.331,0,0,0-.711-.055A1.9,1.9,0,0,0,29.422,11v6H27.977V8.547h1.406l.023.977a2.251,2.251,0,0,1,2.016-1.133,1.477,1.477,0,0,1,.641.109Zm6.25,4.914a1.064,1.064,0,0,0-.441-.91,4.249,4.249,0,0,0-1.539-.559,7.277,7.277,0,0,1-1.742-.562,2.479,2.479,0,0,1-.953-.781,1.869,1.869,0,0,1-.309-1.078,2.193,2.193,0,0,1,.879-1.758,3.432,3.432,0,0,1,2.246-.719,3.532,3.532,0,0,1,2.332.742,2.357,2.357,0,0,1,.895,1.9H38.227a1.3,1.3,0,0,0-.5-1.023,1.888,1.888,0,0,0-1.27-.43,1.976,1.976,0,0,0-1.234.344,1.082,1.082,0,0,0-.445.9.877.877,0,0,0,.414.789,5.1,5.1,0,0,0,1.5.508,7.8,7.8,0,0,1,1.754.578,2.558,2.558,0,0,1,1,.809,1.988,1.988,0,0,1,.324,1.152,2.163,2.163,0,0,1-.906,1.816,3.8,3.8,0,0,1-2.352.684,4.257,4.257,0,0,1-1.8-.359,2.922,2.922,0,0,1-1.223-1,2.42,2.42,0,0,1-.441-1.395h1.445a1.5,1.5,0,0,0,.582,1.152,2.258,2.258,0,0,0,1.434.426,2.331,2.331,0,0,0,1.316-.332A1.02,1.02,0,0,0,38.313,14.758Zm6.836,2.4a3.693,3.693,0,0,1-2.8-1.129,4.19,4.19,0,0,1-1.078-3.02v-.266a5.073,5.073,0,0,1,.48-2.246A3.748,3.748,0,0,1,43.1,8.949a3.378,3.378,0,0,1,1.871-.559,3.166,3.166,0,0,1,2.563,1.086,4.7,4.7,0,0,1,.914,3.109v.6H42.719a3,3,0,0,0,.73,2.02,2.3,2.3,0,0,0,1.777.77,2.517,2.517,0,0,0,1.3-.312,3.259,3.259,0,0,0,.93-.828l.883.688A3.55,3.55,0,0,1,45.148,17.156Zm-.18-7.578a1.928,1.928,0,0,0-1.469.637A3.1,3.1,0,0,0,42.766,12H47v-.109a2.753,2.753,0,0,0-.594-1.707A1.815,1.815,0,0,0,44.969,9.578Zm8.539,6.4a2.082,2.082,0,0,0,1.352-.469,1.649,1.649,0,0,0,.641-1.172h1.367a2.621,2.621,0,0,1-.5,1.383,3.293,3.293,0,0,1-1.23,1.047,3.55,3.55,0,0,1-1.629.391A3.482,3.482,0,0,1,50.762,16a4.59,4.59,0,0,1-1.02-3.152v-.242a5.089,5.089,0,0,1,.453-2.2,3.451,3.451,0,0,1,1.3-1.492,3.7,3.7,0,0,1,2-.531,3.39,3.39,0,0,1,2.363.852,3.043,3.043,0,0,1,1,2.211H55.5a1.992,1.992,0,0,0-.621-1.348A1.932,1.932,0,0,0,53.5,9.578a2.023,2.023,0,0,0-1.707.793,3.724,3.724,0,0,0-.605,2.293v.273a3.65,3.65,0,0,0,.6,2.25A2.033,2.033,0,0,0,53.508,15.977Zm8.375,0a2.082,2.082,0,0,0,1.352-.469,1.649,1.649,0,0,0,.641-1.172h1.367a2.621,2.621,0,0,1-.5,1.383,3.293,3.293,0,0,1-1.23,1.047,3.55,3.55,0,0,1-1.629.391A3.482,3.482,0,0,1,59.137,16a4.59,4.59,0,0,1-1.02-3.152v-.242a5.089,5.089,0,0,1,.453-2.2,3.451,3.451,0,0,1,1.3-1.492,3.7,3.7,0,0,1,2-.531,3.39,3.39,0,0,1,2.363.852,3.043,3.043,0,0,1,1,2.211H63.875a1.992,1.992,0,0,0-.621-1.348,1.932,1.932,0,0,0-1.379-.527,2.023,2.023,0,0,0-1.707.793,3.724,3.724,0,0,0-.605,2.293v.273a3.65,3.65,0,0,0,.6,2.25A2.033,2.033,0,0,0,61.883,15.977ZM68.438,17H66.992V8.547h1.445ZM66.875,6.3a.863.863,0,0,1,.215-.594.807.807,0,0,1,.637-.242.819.819,0,0,1,.641.242.854.854,0,0,1,.219.594.826.826,0,0,1-.219.586.834.834,0,0,1-.641.234.821.821,0,0,1-.637-.234A.834.834,0,0,1,66.875,6.3ZM70.367,12.7a4.993,4.993,0,0,1,.488-2.234A3.643,3.643,0,0,1,72.215,8.93,3.7,3.7,0,0,1,74.2,8.391,3.565,3.565,0,0,1,77,9.586a4.6,4.6,0,0,1,1.066,3.18v.1a5.036,5.036,0,0,1-.473,2.215,3.589,3.589,0,0,1-1.352,1.527,3.743,3.743,0,0,1-2.02.547,3.556,3.556,0,0,1-2.785-1.2A4.575,4.575,0,0,1,70.367,12.8Zm1.453.172a3.616,3.616,0,0,0,.652,2.258,2.211,2.211,0,0,0,3.5-.012,3.955,3.955,0,0,0,.648-2.418,3.61,3.61,0,0,0-.66-2.254A2.1,2.1,0,0,0,74.2,9.578a2.075,2.075,0,0,0-1.727.852A3.925,3.925,0,0,0,71.82,12.867Zm9.422-4.32.047,1.063A3.08,3.08,0,0,1,83.82,8.391q2.68,0,2.7,3.023V17H85.078V11.406a1.946,1.946,0,0,0-.418-1.352,1.675,1.675,0,0,0-1.277-.437,2.086,2.086,0,0,0-1.234.375,2.546,2.546,0,0,0-.828.984V17H79.875V8.547ZM93.922,17a3.036,3.036,0,0,1-.2-.891,3.225,3.225,0,0,1-2.406,1.047,2.984,2.984,0,0,1-2.051-.707,2.288,2.288,0,0,1-.8-1.793,2.39,2.39,0,0,1,1-2.051,4.733,4.733,0,0,1,2.824-.73H93.7v-.664A1.623,1.623,0,0,0,93.242,10a1.821,1.821,0,0,0-1.336-.449,2.108,2.108,0,0,0-1.3.391,1.151,1.151,0,0,0-.523.945H88.633a2,2,0,0,1,.449-1.223A3.066,3.066,0,0,1,90.3,8.734a4.1,4.1,0,0,1,1.691-.344,3.342,3.342,0,0,1,2.289.73,2.635,2.635,0,0,1,.859,2.012v3.891a4.757,4.757,0,0,0,.3,1.852V17Zm-2.4-1.1a2.54,2.54,0,0,0,1.289-.352,2.127,2.127,0,0,0,.883-.914V12.9H92.563q-2.656,0-2.656,1.555a1.316,1.316,0,0,0,.453,1.063A1.742,1.742,0,0,0,91.523,15.9ZM98.977,17H97.531V5h1.445Zm3.883,0h-1.445V8.547h1.445ZM101.3,6.3a.863.863,0,0,1,.215-.594.807.807,0,0,1,.637-.242.819.819,0,0,1,.641.242.854.854,0,0,1,.219.594.826.826,0,0,1-.219.586.834.834,0,0,1-.641.234.821.821,0,0,1-.637-.234A.834.834,0,0,1,101.3,6.3Zm3.523,6.4a4.952,4.952,0,0,1,.922-3.129,3.137,3.137,0,0,1,4.766-.168V5h1.445V17h-1.328l-.07-.906a2.943,2.943,0,0,1-2.414,1.063,2.887,2.887,0,0,1-2.395-1.2,5.008,5.008,0,0,1-.926-3.141Zm1.445.164a3.749,3.749,0,0,0,.594,2.25,1.92,1.92,0,0,0,1.641.813,2.108,2.108,0,0,0,2.008-1.234V10.813a2.125,2.125,0,0,0-1.992-1.2,1.929,1.929,0,0,0-1.656.82A4.128,4.128,0,0,0,106.266,12.867ZM119.414,17a3.036,3.036,0,0,1-.2-.891,3.225,3.225,0,0,1-2.406,1.047,2.984,2.984,0,0,1-2.051-.707,2.288,2.288,0,0,1-.8-1.793,2.39,2.39,0,0,1,1-2.051,4.733,4.733,0,0,1,2.824-.73h1.406v-.664A1.623,1.623,0,0,0,118.734,10a1.821,1.821,0,0,0-1.336-.449,2.108,2.108,0,0,0-1.3.391,1.151,1.151,0,0,0-.523.945h-1.453a2,2,0,0,1,.449-1.223,3.066,3.066,0,0,1,1.219-.934,4.1,4.1,0,0,1,1.691-.344,3.342,3.342,0,0,1,2.289.73,2.635,2.635,0,0,1,.859,2.012v3.891a4.757,4.757,0,0,0,.3,1.852V17Zm-2.4-1.1a2.54,2.54,0,0,0,1.289-.352,2.127,2.127,0,0,0,.883-.914V12.9h-1.133q-2.656,0-2.656,1.555a1.316,1.316,0,0,0,.453,1.063A1.742,1.742,0,0,0,117.016,15.9Zm5.531-3.2a4.952,4.952,0,0,1,.922-3.129,3.137,3.137,0,0,1,4.766-.168V5h1.445V17h-1.328l-.07-.906a2.943,2.943,0,0,1-2.414,1.063,2.887,2.887,0,0,1-2.395-1.2,5.008,5.008,0,0,1-.926-3.141Zm1.445.164a3.749,3.749,0,0,0,.594,2.25,1.92,1.92,0,0,0,1.641.813,2.108,2.108,0,0,0,2.008-1.234V10.813a2.125,2.125,0,0,0-1.992-1.2,1.929,1.929,0,0,0-1.656.82A4.128,4.128,0,0,0,123.992,12.867Z" transform="translate(1555 6666) rotate(90)" fill="#12263f"/>
      <path id="Trazado_657327" data-name="Trazado 657327" d="M9.688,13.391a4.185,4.185,0,0,1-1.332,2.785,4.365,4.365,0,0,1-2.98.98,4.008,4.008,0,0,1-3.23-1.445A5.815,5.815,0,0,1,.93,11.844V10.75A6.481,6.481,0,0,1,1.5,7.961,4.231,4.231,0,0,1,3.1,6.113a4.47,4.47,0,0,1,2.406-.645A4.11,4.11,0,0,1,8.414,6.48a4.235,4.235,0,0,1,1.273,2.8H8.18a3.268,3.268,0,0,0-.848-1.975A2.565,2.565,0,0,0,5.508,6.7,2.684,2.684,0,0,0,3.254,7.759a4.882,4.882,0,0,0-.816,3.026v1.1a5.018,5.018,0,0,0,.773,2.948A2.5,2.5,0,0,0,5.375,15.93a2.887,2.887,0,0,0,1.918-.566,3.143,3.143,0,0,0,.887-1.973Zm7.039,2.773a3.07,3.07,0,0,1-2.477.992,2.628,2.628,0,0,1-2.059-.785,3.4,3.4,0,0,1-.715-2.324v-5.5h1.445v5.461q0,1.922,1.563,1.922a2.163,2.163,0,0,0,2.2-1.234V8.547h1.445V17H16.758Zm7.688-6.32a4.331,4.331,0,0,0-.711-.055A1.9,1.9,0,0,0,21.773,11v6H20.328V8.547h1.406l.023.977a2.251,2.251,0,0,1,2.016-1.133,1.477,1.477,0,0,1,.641.109Zm6.25,4.914a1.064,1.064,0,0,0-.441-.91,4.249,4.249,0,0,0-1.539-.559,7.277,7.277,0,0,1-1.742-.562,2.479,2.479,0,0,1-.953-.781,1.869,1.869,0,0,1-.309-1.078,2.193,2.193,0,0,1,.879-1.758A3.432,3.432,0,0,1,28.8,8.391a3.532,3.532,0,0,1,2.332.742,2.357,2.357,0,0,1,.895,1.9H30.578a1.3,1.3,0,0,0-.5-1.023,1.888,1.888,0,0,0-1.27-.43,1.976,1.976,0,0,0-1.234.344,1.082,1.082,0,0,0-.445.9.877.877,0,0,0,.414.789,5.1,5.1,0,0,0,1.5.508,7.8,7.8,0,0,1,1.754.578,2.558,2.558,0,0,1,1,.809,1.988,1.988,0,0,1,.324,1.152,2.163,2.163,0,0,1-.906,1.816,3.8,3.8,0,0,1-2.352.684,4.257,4.257,0,0,1-1.8-.359,2.922,2.922,0,0,1-1.223-1,2.42,2.42,0,0,1-.441-1.395h1.445a1.5,1.5,0,0,0,.582,1.152,2.258,2.258,0,0,0,1.434.426,2.331,2.331,0,0,0,1.316-.332A1.02,1.02,0,0,0,30.664,14.758ZM33.609,12.7a4.993,4.993,0,0,1,.488-2.234A3.643,3.643,0,0,1,35.457,8.93a3.7,3.7,0,0,1,1.988-.539,3.565,3.565,0,0,1,2.793,1.2,4.6,4.6,0,0,1,1.066,3.18v.1a5.036,5.036,0,0,1-.473,2.215,3.589,3.589,0,0,1-1.352,1.527,3.743,3.743,0,0,1-2.02.547,3.556,3.556,0,0,1-2.785-1.2A4.575,4.575,0,0,1,33.609,12.8Zm1.453.172a3.616,3.616,0,0,0,.652,2.258,2.211,2.211,0,0,0,3.5-.012,3.955,3.955,0,0,0,.648-2.418,3.61,3.61,0,0,0-.66-2.254,2.1,2.1,0,0,0-1.754-.863,2.075,2.075,0,0,0-1.727.852A3.925,3.925,0,0,0,35.063,12.867ZM46.727,12.7a4.952,4.952,0,0,1,.922-3.129,3.137,3.137,0,0,1,4.766-.168V5h1.445V17H52.531l-.07-.906a2.943,2.943,0,0,1-2.414,1.063,2.887,2.887,0,0,1-2.395-1.2,5.008,5.008,0,0,1-.926-3.141Zm1.445.164a3.749,3.749,0,0,0,.594,2.25,1.92,1.92,0,0,0,1.641.813A2.108,2.108,0,0,0,52.414,14.7V10.813a2.125,2.125,0,0,0-1.992-1.2,1.929,1.929,0,0,0-1.656.82A4.128,4.128,0,0,0,48.172,12.867Zm11.438,4.289a3.693,3.693,0,0,1-2.8-1.129,4.19,4.19,0,0,1-1.078-3.02v-.266a5.073,5.073,0,0,1,.48-2.246,3.748,3.748,0,0,1,1.344-1.547,3.378,3.378,0,0,1,1.871-.559,3.166,3.166,0,0,1,2.563,1.086,4.7,4.7,0,0,1,.914,3.109v.6H57.18a3,3,0,0,0,.73,2.02,2.3,2.3,0,0,0,1.777.77,2.517,2.517,0,0,0,1.3-.312,3.259,3.259,0,0,0,.93-.828l.883.688A3.55,3.55,0,0,1,59.609,17.156Zm-.18-7.578a1.928,1.928,0,0,0-1.469.637A3.1,3.1,0,0,0,57.227,12h4.234v-.109a2.753,2.753,0,0,0-.594-1.707A1.815,1.815,0,0,0,59.43,9.578Zm11.9,5.461,2.094-6.492H74.9L71.867,17h-1.1L67.7,8.547H69.18ZM77.859,17H76.414V8.547h1.445ZM76.3,6.3a.863.863,0,0,1,.215-.594.807.807,0,0,1,.637-.242.819.819,0,0,1,.641.242.854.854,0,0,1,.219.594.826.826,0,0,1-.219.586.834.834,0,0,1-.641.234.821.821,0,0,1-.637-.234A.834.834,0,0,1,76.3,6.3Zm3.523,6.4a4.952,4.952,0,0,1,.922-3.129,3.137,3.137,0,0,1,4.766-.168V5h1.445V17H85.625l-.07-.906a2.943,2.943,0,0,1-2.414,1.063,2.887,2.887,0,0,1-2.395-1.2,5.008,5.008,0,0,1-.926-3.141Zm1.445.164a3.749,3.749,0,0,0,.594,2.25,1.92,1.92,0,0,0,1.641.813A2.108,2.108,0,0,0,85.508,14.7V10.813a2.125,2.125,0,0,0-1.992-1.2,1.929,1.929,0,0,0-1.656.82A4.128,4.128,0,0,0,81.266,12.867ZM94.414,17a3.036,3.036,0,0,1-.2-.891A3.225,3.225,0,0,1,91.8,17.156a2.984,2.984,0,0,1-2.051-.707,2.288,2.288,0,0,1-.8-1.793,2.39,2.39,0,0,1,1-2.051,4.733,4.733,0,0,1,2.824-.73h1.406v-.664A1.623,1.623,0,0,0,93.734,10,1.821,1.821,0,0,0,92.4,9.555a2.108,2.108,0,0,0-1.3.391,1.151,1.151,0,0,0-.523.945H89.125a2,2,0,0,1,.449-1.223,3.066,3.066,0,0,1,1.219-.934,4.1,4.1,0,0,1,1.691-.344,3.342,3.342,0,0,1,2.289.73,2.635,2.635,0,0,1,.859,2.012v3.891a4.757,4.757,0,0,0,.3,1.852V17Zm-2.4-1.1a2.54,2.54,0,0,0,1.289-.352,2.127,2.127,0,0,0,.883-.914V12.9H93.055q-2.656,0-2.656,1.555a1.316,1.316,0,0,0,.453,1.063A1.742,1.742,0,0,0,92.016,15.9Z" transform="translate(1073 7121)" fill="#12263f"/>
    </g>
  </g>
</svg>
