<svg xmlns="http://www.w3.org/2000/svg" xmlns:xlink="http://www.w3.org/1999/xlink" width="110" height="110" viewBox="0 0 110 110">
  <defs>
    <clipPath id="clip-path">
      <rect id="Rect치ngulo_309962" data-name="Rect치ngulo 309962" width="92.078" height="92.063" fill="none"/>
    </clipPath>
  </defs>
  <g id="Grupo_995747" data-name="Grupo 995747" transform="translate(101 7967)">
    <g id="Grupo_995746" data-name="Grupo 995746" transform="translate(-92.039 -7958.032)">
      <g id="Grupo_995745" data-name="Grupo 995745" clip-path="url(#clip-path)">
        <path id="Trazado_655565" data-name="Trazado 655565" d="M6.454,24.906q3.767-3.587,7.344-7.366c2.154-2.288,4.421-4.469,6.652-6.683.331-.328.575-.783,1.1-.883,1.1.841,1.966,1.916,2.968,2.855a7.3,7.3,0,0,0,2.541,1.637q4.429,1.562,8.877,3.075a9.349,9.349,0,0,1,3.69,2.293q3.316,3.348,6.669,6.66a4.542,4.542,0,0,1,1.369,2.739c-2.064,2.083-4.122,4.172-6.2,6.245a2.632,2.632,0,0,1-1.689.752,2.916,2.916,0,0,1-2.941-1.642,2.815,2.815,0,0,1,.523-3.319c1.266-1.318,2.574-2.6,3.869-3.886a1.406,1.406,0,0,0,.429-1.548,1.294,1.294,0,0,0-1.063-.865,1.558,1.558,0,0,0-1.349.562c-2.112,1.94-3.928,4.171-6.056,6.1a4.729,4.729,0,0,0-1.55,3.613c0,.587-.178.729-.75.763a5.5,5.5,0,0,0-5.349,5.445c-.024.542-.22.6-.676.623a5.568,5.568,0,0,0-5.026,3.48c-.107.233-.091.524-.369.732-.95-.953-1.879-1.928-2.856-2.852a8.95,8.95,0,0,1-2.379-3.845c-.835-2.586-1.709-5.159-2.558-7.741a10.686,10.686,0,0,0-2.706-4.385c-.855-.836-1.677-1.705-2.514-2.56M28.9,29.48c.779,0,1.558.018,2.337,0,1-.03,1.558-.536,1.554-1.357s-.569-1.322-1.571-1.339q-1.572-.028-3.145,0A7.479,7.479,0,0,1,22.3,24.361c-.723-.759-1.465-1.5-2.231-2.217a1.29,1.29,0,0,0-1.923-.044,1.335,1.335,0,0,0,.017,1.927c.526.573,1.118,1.086,1.638,1.665a10.656,10.656,0,0,0,9.1,3.787" transform="translate(-4.129 -6.381)" fill="#f3cec9"/>
        <path id="Trazado_655566" data-name="Trazado 655566" d="M181.03,160.85a.8.8,0,0,1-.309.527c-2.35,2.349-4.634,4.769-7.068,7.027-2.48,2.3-4.8,4.763-7.228,7.109a3.942,3.942,0,0,0-.334.418c-.749-.73-1.528-1.432-2.24-2.2a11.63,11.63,0,0,0-5.128-3.171c-2.334-.74-4.617-1.663-6.98-2.284-3.153-.828-4.862-3.371-7.1-5.423,2.708-.952,4.168-2.733,4.276-5.506.02-.519.287-.463.623-.482a5.523,5.523,0,0,0,5.443-5.364c.035-.581.195-.735.769-.748a5.278,5.278,0,0,0,4.268-2.289,5.893,5.893,0,0,1,1-1,61.179,61.179,0,0,0,4.678-4.593,1.274,1.274,0,0,0-.381-2.049,1.4,1.4,0,0,0-1.769.416c-1.288,1.3-2.555,2.617-3.893,3.861a2.935,2.935,0,0,1-4.132-4.161c2.046-2.1,4.157-4.137,6.241-6.2a4.546,4.546,0,0,1,2.74,1.368c2.224,2.261,4.474,4.5,6.725,6.731a9.011,9.011,0,0,1,2.2,3.539c.848,2.485,1.723,4.962,2.534,7.459a10.931,10.931,0,0,0,3.09,4.945,11.749,11.749,0,0,1,1.976,2.067m-16.8-7.526c0-.749.024-1.5-.006-2.246-.037-.935-.551-1.475-1.345-1.478s-1.265.538-1.356,1.465c-.491,4.984.656,9.333,4.8,12.542.211.164.378.384.578.565a1.371,1.371,0,0,0,2,.072,1.32,1.32,0,0,0-.106-1.991,20.153,20.153,0,0,0-1.524-1.524,8.143,8.143,0,0,1-3.041-7.4" transform="translate(-92.543 -86.208)" fill="#f3cec9"/>
        <path id="Trazado_655567" data-name="Trazado 655567" d="M2.324,18.525c.837.854,1.659,1.724,2.514,2.56A10.693,10.693,0,0,1,7.544,25.47c.85,2.581,1.723,5.155,2.558,7.74a8.949,8.949,0,0,0,2.379,3.845c.976.925,1.905,1.9,2.856,2.852.278-.208.262-.5.369-.732a5.568,5.568,0,0,1,5.026-3.48c.456-.027.651-.082.676-.623a5.5,5.5,0,0,1,5.349-5.445c.572-.034.752-.176.75-.764a4.726,4.726,0,0,1,1.55-3.613c2.128-1.928,3.944-4.159,6.056-6.1a1.557,1.557,0,0,1,1.349-.562,1.3,1.3,0,0,1,1.063.865A1.407,1.407,0,0,1,37.095,21c-1.295,1.29-2.6,2.568-3.869,3.886a2.815,2.815,0,0,0-.523,3.319,2.917,2.917,0,0,0,2.942,1.641,2.632,2.632,0,0,0,1.689-.752c2.075-2.072,4.133-4.161,6.2-6.244a2.588,2.588,0,0,0-.127-3.823c-2.191-2.211-4.409-4.4-6.6-6.611a8.663,8.663,0,0,0-3.463-2.161c-2.66-.9-5.31-1.819-7.965-2.727A10.66,10.66,0,0,1,21.157,4.9c-.858-.872-1.75-1.711-2.627-2.565-.5-.95-.442-1.6.2-2.071.61-.446,1.276-.331,1.985.378,4.478,4.476,3.029,3.378,9.837,5.812,1.18.422,2.364.836,3.559,1.213a11.265,11.265,0,0,1,4.735,2.969q3.107,3.182,6.292,6.288a5.454,5.454,0,0,1,1.721,5.285c-.1.477.161.653.4.9,1.775,1.783,3.591,3.526,5.322,5.351a5.6,5.6,0,0,1-2.567,9.363c-.826.214-1.011.416-.949,1.287a5.558,5.558,0,0,1-6.457,5.97c-.461-.055-.6,0-.7.469a5.533,5.533,0,0,1-6.345,4.6c-.581-.065-.767.008-.905.635a5.627,5.627,0,0,1-9.326,2.9c-.663-.6-1.264-1.278-1.922-1.889a1.529,1.529,0,0,1-.382-2.012c.958-.742,1.466-.719,2.321.121.6.585,1.165,1.2,1.779,1.767a2.855,2.855,0,0,0,4.366-.4,2.74,2.74,0,0,0-.133-3.67q-4.192-4.287-8.481-8.478a2.741,2.741,0,0,0-3.67-.131,2.85,2.85,0,0,0-.4,4.367c.506.548,1.056,1.056,1.579,1.59.839.856.861,1.367.116,2.321a1.559,1.559,0,0,1-2.012-.385c-2.759-2.785-5.54-5.549-8.311-8.323a10.063,10.063,0,0,1-2.462-4.01c-.833-2.521-1.716-5.027-2.5-7.562a9.813,9.813,0,0,0-2.79-4.511c-.621-.561-1.194-1.176-1.782-1.773-.705-.716-.828-1.371-.385-1.982.466-.643,1.131-.708,2.065-.2M51.081,33.81a2.822,2.822,0,0,0-.534-3.58c-1.465-1.492-2.954-2.961-4.433-4.439-.85-.85-.85-.849-1.682.1-.98.961-1.957,1.926-2.945,2.88-.245.237-.372.4-.054.712,1.73,1.7,3.4,3.456,5.163,5.111a2.841,2.841,0,0,0,4.484-.784M38.279,31.8a7.483,7.483,0,0,1-2.462.746,5.866,5.866,0,0,1-5.389-2.734l-.137-.285a.322.322,0,0,0,0,.4,3.042,3.042,0,0,0,.983,1.569q3.114,3.107,6.223,6.22c1.291,1.291,2.558,2.607,3.882,3.864a2.864,2.864,0,0,0,4.666-.751,2.818,2.818,0,0,0-.624-3.557c-1.779-1.8-3.617-3.545-5.347-5.391-.672-.718-1.163-.844-1.8-.08M38.66,46.36a2.76,2.76,0,0,0-.112-3.756q-4.725-4.808-9.535-9.532a2.935,2.935,0,0,0-4.18,4.1q4.727,4.853,9.582,9.581a2.8,2.8,0,0,0,4.245-.4" transform="translate(0 0)" fill="#040303"/>
        <path id="Trazado_655568" data-name="Trazado 655568" d="M134.673,115.781c-2.084,2.063-4.2,4.1-6.241,6.2a2.935,2.935,0,0,0,4.132,4.161c1.338-1.244,2.6-2.565,3.893-3.861a1.4,1.4,0,0,1,1.769-.416,1.274,1.274,0,0,1,.381,2.049,61.182,61.182,0,0,1-4.678,4.593,5.912,5.912,0,0,0-1,1,5.277,5.277,0,0,1-4.267,2.289c-.575.013-.734.167-.769.748a5.523,5.523,0,0,1-5.443,5.364c-.337.018-.6-.037-.623.482-.108,2.773-1.568,4.554-4.276,5.506,2.24,2.052,3.949,4.595,7.1,5.423,2.364.621,4.646,1.543,6.98,2.284a11.63,11.63,0,0,1,5.128,3.17c.712.765,1.492,1.467,2.24,2.2.5.935.437,1.6-.206,2.066a1.344,1.344,0,0,1-1.971-.4,16.2,16.2,0,0,0-9.028-5.471c-1.588-.4-3.115-1.041-4.681-1.54a10.352,10.352,0,0,1-4.244-2.59q-7.339-7.341-14.685-14.674a5.54,5.54,0,0,1-1.626-5.817A5.385,5.385,0,0,1,107,124.6c.388-.072.446-.184.4-.58-.375-3.554,1.193-5.78,4.655-6.63.38-.094.432-.215.392-.6-.425-4.11,2.423-6.961,6.5-6.5.477.054.545-.09.615-.474a5.346,5.346,0,0,1,3.857-4.416,5.475,5.475,0,0,1,5.78,1.459q2.559,2.524,5.079,5.088a1.3,1.3,0,0,0,1.3.456,5.527,5.527,0,0,1,5.382,2.181,1.443,1.443,0,0,1-.051,1.893c-1.122.519-1.367.469-2.33-.475a2.614,2.614,0,0,0-3.92-.218m-10.965-7.549a2.858,2.858,0,0,0-.664,4.619c1.62,1.678,3.3,3.3,4.933,4.962.3.3.471.342.779.015.942-1,1.916-1.967,2.877-2.947.185-.411,1.268-.48.536-1.231q-2.471-2.538-5.012-5.006a2.776,2.776,0,0,0-3.45-.412m3.885,20.779a.323.323,0,0,0,.4.005l-.284-.138c-2.861-2.324-3.422-4.532-1.991-7.848.155-.419,1.033-.634.4-1.269-2.012-2.032-4.025-4.063-6.075-6.058a2.74,2.74,0,0,0-3.361-.443,2.88,2.88,0,0,0-.625,4.8q5.028,5.067,10.093,10.1a2.767,2.767,0,0,0,1.441.857m-21.355-1.2a2.823,2.823,0,0,0-.388,4.365q4.112,4.194,8.308,8.306a2.824,2.824,0,0,0,4.365-.392,2.74,2.74,0,0,0-.134-3.67q-4.192-4.288-8.482-8.479a2.735,2.735,0,0,0-3.67-.13m4.914-7.165a2.828,2.828,0,0,0-.336,4.317q4.681,4.772,9.457,9.451a2.94,2.94,0,0,0,4.127-4.181q-4.688-4.745-9.437-9.43a2.775,2.775,0,0,0-3.811-.156" transform="translate(-65.454 -67.249)" fill="#040303"/>
        <path id="Trazado_655569" data-name="Trazado 655569" d="M141.064,18.968c-1.354.786-2.294.327-2.417-1.2-.327-4.089-.635-8.179-.962-12.268-.057-.7.012-1.333.736-1.668a1.547,1.547,0,0,1,1.779.458c2.584,2.231,5.194,4.434,7.769,6.675.47.409.671.434,1.017-.146,1.743-2.928,3.539-5.825,5.307-8.738.377-.622.807-1.159,1.625-1.013s1.048.786,1.214,1.493c.778,3.316,1.579,6.627,2.348,9.945.13.56.295.69.869.444,3.1-1.324,6.229-2.6,9.34-3.9.687-.288,1.36-.555,2,.061s.4,1.293.113,1.986c-1.3,3.111-2.573,6.237-3.9,9.337-.266.62-.144.778.473.919,3.291.755,6.572,1.558,9.86,2.33.737.173,1.414.408,1.54,1.269.12.822-.446,1.23-1.06,1.6-3.09,1.878-6.175,3.765-9.334,5.693.989,1.159,1.958,2.295,2.929,3.429,1.421,1.662,2.833,3.33,4.269,4.979a1.481,1.481,0,0,1,.4,1.782,1.443,1.443,0,0,1-1.611.691c-4.12-.327-8.242-.632-12.361-.966-1.467-.119-1.91-1.062-1.166-2.388a2.068,2.068,0,0,1,1.368-.3c1.311.115,2.624.206,3.937.308,1.771.138,3.542.279,5.466.43-.248-.3-.391-.485-.542-.661-1.867-2.182-3.743-4.357-5.6-6.548a1.375,1.375,0,0,1,.387-2.366c1.038-.651,2.089-1.28,3.133-1.919l4.873-2.987c-.281-.1-.444-.179-.616-.22q-4.181-1-8.364-2c-1.4-.331-1.745-1-1.187-2.355,1.047-2.537,2.109-5.068,3.153-7.607.1-.255.337-.493.2-.9l-3.529,1.531c-1.658.671-3.313,1.347-4.975,2.009-1.188.474-1.906.108-2.2-1.117-.373-1.538-.729-3.081-1.1-4.62-.349-1.456-.705-2.91-1.1-4.543-1.683,2.755-3.253,5.329-4.828,7.9-.792,1.293-1.5,1.4-2.673.4Q144.761,11.758,141.9,9.3c-.4-.339-.8-.67-1.291-1.082.25,3.2.483,6.245.73,9.286a2.3,2.3,0,0,1-.275,1.466" transform="translate(-88.083 -0.665)" fill="#040403"/>
        <path id="Trazado_655570" data-name="Trazado 655570" d="M39.785,161.773c1.331-.741,2.268-.3,2.388,1.168.333,4.088.638,8.178.963,12.267.055.689.039,1.333-.68,1.7-.744.379-1.3.031-1.854-.449q-3.807-3.289-7.639-6.55a1.8,1.8,0,0,0-.759-.518q-2.839,4.652-5.686,9.322c-.342.562-.73,1.054-1.469.984-.863-.081-1.171-.691-1.349-1.45-.775-3.316-1.569-6.629-2.359-9.942-.055-.23-.134-.455-.216-.728l-9.543,3.949c-.165.068-.331.137-.493.213-.684.317-1.37.519-1.985-.116-.583-.6-.37-1.253-.092-1.915q1.9-4.544,3.786-9.095c.415-1,.417-1-.647-1.255q-4.84-1.152-9.683-2.3c-.681-.161-1.272-.436-1.4-1.2s.335-1.2.942-1.572c2.916-1.765,5.811-3.564,8.739-5.308.631-.376.627-.608.164-1.137C8.68,145.3,6.5,142.711,4.287,140.151a1.546,1.546,0,0,1-.458-1.778c.334-.721.962-.793,1.668-.736,4.09.328,8.182.635,12.272.962,1.532.122,1.99,1.057,1.208,2.417a2.121,2.121,0,0,1-1.287.287c-1.342-.117-2.686-.212-4.029-.317L8.2,140.56c2.107,2.459,4.1,4.769,6.071,7.09.922,1.083.81,1.817-.39,2.556-2.366,1.458-4.745,2.9-7.114,4.351-.234.144-.547.209-.678.544.219.064.415.132.617.18,2.76.661,5.521,1.313,8.28,1.98,1.365.33,1.694.991,1.168,2.3q-.984,2.447-1.977,4.89l-1.6,3.709c.4-.146.564-.2.726-.268,2.647-1.1,5.291-2.2,7.941-3.288,1.246-.512,1.946-.155,2.259,1.122.128.522.245,1.046.37,1.569.591,2.464,1.182,4.928,1.78,7.421a1.711,1.711,0,0,0,.579-.743q2.136-3.474,4.263-6.953c.837-1.364,1.506-1.479,2.718-.447,2.142,1.823,4.272,3.659,6.415,5.48.157.134.267.406.574.308-.238-3.05-.47-6.09-.717-9.129a2.162,2.162,0,0,1,.3-1.457" transform="translate(-0.666 -88.052)" fill="#040403"/>
        <path id="Trazado_655571" data-name="Trazado 655571" d="M146.286,27.613a2.3,2.3,0,0,0,.275-1.466c-.247-3.041-.479-6.083-.73-9.286.493.413.9.744,1.291,1.082q2.865,2.452,5.729,4.907c1.171,1,1.881.893,2.673-.4,1.575-2.571,3.144-5.145,4.828-7.9.4,1.633.752,3.088,1.1,4.543.369,1.539.725,3.082,1.1,4.62.3,1.225,1.016,1.59,2.2,1.117,1.661-.662,3.317-1.339,4.975-2.009-.119.762-.195,1.534-.365,2.284a18.007,18.007,0,0,1-8.015,11.508,38.311,38.311,0,0,1-4.064,2.041l-11-11.043" transform="translate(-93.304 -9.31)" fill="#fbef79"/>
        <path id="Trazado_655572" data-name="Trazado 655572" d="M23.149,169.67q.989-2.445,1.977-4.89c.526-1.308.2-1.969-1.168-2.3-2.758-.667-5.52-1.319-8.28-1.98-.2-.048-.4-.116-.616-.18.13-.335.443-.4.677-.544,2.368-1.456,4.747-2.893,7.114-4.351,1.2-.74,1.312-1.473.39-2.556-1.975-2.321-3.964-4.631-6.071-7.091l5.46.426c1.343.1,2.686.2,4.028.317a2.118,2.118,0,0,0,1.287-.287c3.664,3.561,7.3,7.147,10.826,10.849a2.018,2.018,0,0,1-.2,1.045A18.284,18.284,0,0,1,23.149,169.67" transform="translate(-9.637 -93.271)" fill="#fbef79"/>
        <path id="Trazado_655573" data-name="Trazado 655573" d="M34.672,189.751A18.284,18.284,0,0,0,50.1,178.21a2.018,2.018,0,0,0,.2-1.045c.43.134.643.524.933.815q4.534,4.537,9.05,9.094a2.164,2.164,0,0,0-.3,1.457c.246,3.039.479,6.079.717,9.129-.307.1-.417-.174-.574-.307-2.143-1.821-4.273-3.657-6.415-5.48-1.211-1.031-1.881-.917-2.718.448q-2.134,3.475-4.263,6.953a1.709,1.709,0,0,1-.579.743c-.6-2.493-1.19-4.957-1.78-7.421-.125-.522-.242-1.047-.37-1.569-.313-1.277-1.014-1.633-2.259-1.122-2.65,1.089-5.294,2.192-7.941,3.288-.162.067-.329.122-.726.268l1.6-3.709" transform="translate(-21.16 -113.352)" fill="#fae74e"/>
        <path id="Trazado_655574" data-name="Trazado 655574" d="M177.632,50.627a38.31,38.31,0,0,0,4.064-2.041,18.007,18.007,0,0,0,8.015-11.508c.17-.75.246-1.522.365-2.284l3.528-1.531c.141.409-.091.647-.2.9-1.043,2.539-2.106,5.07-3.153,7.607-.558,1.35-.208,2.024,1.187,2.355q4.183.993,8.364,2c.172.041.335.118.616.22l-4.873,2.987c-1.045.64-2.1,1.269-3.133,1.919a1.374,1.374,0,0,0-.387,2.366c1.856,2.191,3.732,4.365,5.6,6.548.151.176.294.358.542.661-1.924-.152-3.695-.292-5.466-.43-1.312-.1-2.625-.193-3.937-.308a2.069,2.069,0,0,0-1.368.3l-9.767-9.761" transform="translate(-113.651 -21.282)" fill="#fae74e"/>
        <path id="Trazado_655575" data-name="Trazado 655575" d="M63.417,120.535a2.854,2.854,0,0,1-4.366.4c-.614-.566-1.182-1.181-1.779-1.767-.856-.84-1.364-.863-2.321-.121a7.154,7.154,0,0,0-2.521-2.513c.745-.954.723-1.465-.116-2.321-.523-.533-1.073-1.041-1.579-1.59a2.85,2.85,0,0,1,.4-4.367,4.614,4.614,0,0,1,3.413,1.709q3.622,3.537,7.161,7.158a4.617,4.617,0,0,1,1.711,3.412" transform="translate(-31.924 -69.261)" fill="#f3cec8"/>
        <path id="Trazado_655576" data-name="Trazado 655576" d="M215.893,143.07c1.073-.658,1.441-.573,2.362.231a14.787,14.787,0,0,1,4.658,7.374c.547,1.977,1.342,3.885,1.973,5.84a9.434,9.434,0,0,0,2.636,4.189c.64.584,1.233,1.219,1.842,1.835.76.768.894,1.415.434,2.045s-1.12.7-2.069.2c-.725-.748-1.419-1.529-2.181-2.238a11.714,11.714,0,0,1-3.193-5.094c-.633-1.955-1.414-3.865-1.972-5.839a12.225,12.225,0,0,0-3.978-6.327,1.647,1.647,0,0,1-.511-2.214" transform="translate(-137.984 -91.256)" fill="#040303"/>
        <path id="Trazado_655577" data-name="Trazado 655577" d="M200.865,136.628a1.647,1.647,0,0,0,.511,2.214,12.224,12.224,0,0,1,3.978,6.327c.558,1.975,1.339,3.885,1.972,5.839a11.714,11.714,0,0,0,3.193,5.094c.762.708,1.456,1.49,2.181,2.238a3.118,3.118,0,0,1-1.256,1.116,11.755,11.755,0,0,0-1.976-2.067,10.929,10.929,0,0,1-3.09-4.945c-.811-2.5-1.686-4.974-2.534-7.459a9.01,9.01,0,0,0-2.2-3.54c-2.25-2.234-4.5-4.47-6.725-6.731a4.545,4.545,0,0,0-2.74-1.368,2.614,2.614,0,0,1,3.92.218c.963.944,1.207.994,2.33.475a10.1,10.1,0,0,1,2.439,2.589" transform="translate(-122.956 -84.815)" fill="#edb4a9"/>
        <path id="Trazado_655578" data-name="Trazado 655578" d="M49.466,6.484c.877.854,1.768,1.693,2.627,2.565a10.66,10.66,0,0,0,4.222,2.63c2.656.908,5.306,1.831,7.965,2.727a8.658,8.658,0,0,1,3.463,2.16c2.187,2.216,4.405,4.4,6.6,6.611A2.588,2.588,0,0,1,74.466,27,4.544,4.544,0,0,0,73.1,24.261q-3.361-3.3-6.669-6.66a9.345,9.345,0,0,0-3.69-2.293q-4.445-1.518-8.878-3.076A7.31,7.31,0,0,1,51.319,10.6c-1-.939-1.872-2.014-2.968-2.855a3.113,3.113,0,0,1,1.115-1.257" transform="translate(-30.935 -4.149)" fill="#edb4a9"/>
        <path id="Trazado_655579" data-name="Trazado 655579" d="M48.956,50.294a10.656,10.656,0,0,1-9.1-3.787c-.52-.579-1.112-1.091-1.638-1.665a1.335,1.335,0,0,1-.017-1.927,1.29,1.29,0,0,1,1.923.044c.765.716,1.507,1.458,2.231,2.217a7.479,7.479,0,0,0,5.779,2.416q1.572-.026,3.145,0c1,.018,1.568.517,1.571,1.339s-.557,1.328-1.554,1.357c-.779.023-1.558,0-2.337,0" transform="translate(-24.182 -27.196)" fill="#070606"/>
        <path id="Trazado_655580" data-name="Trazado 655580" d="M194.023,179.72a8.143,8.143,0,0,0,3.041,7.4,20.153,20.153,0,0,1,1.524,1.524,1.32,1.32,0,0,1,.106,1.991,1.371,1.371,0,0,1-2-.072c-.2-.181-.366-.4-.578-.565-4.146-3.209-5.293-7.557-4.8-12.542.091-.927.554-1.467,1.356-1.465s1.308.543,1.345,1.478c.03.747.006,1.5.006,2.246" transform="translate(-122.338 -112.604)" fill="#070606"/>
        <path id="Trazado_655581" data-name="Trazado 655581" d="M81.357,104.774a2.8,2.8,0,0,1-4.245.4q-4.85-4.731-9.582-9.581a2.789,2.789,0,0,1,.494-4.289,4.149,4.149,0,0,1,2.721,1.174q4.747,4.745,9.49,9.495a3.417,3.417,0,0,1,1.122,2.806" transform="translate(-42.697 -58.414)" fill="#f4cfc9"/>
        <path id="Trazado_655582" data-name="Trazado 655582" d="M99.865,93.792a2.864,2.864,0,0,1-4.666.751c-1.324-1.256-2.59-2.573-3.882-3.864q-3.111-3.11-6.223-6.22a3.043,3.043,0,0,1-.983-1.569c.045-.037.089-.075.132-.114a5.867,5.867,0,0,0,5.39,2.735,7.5,7.5,0,0,0,2.461-.746c.227.192.469.369.679.578,1.91,1.9,3.8,3.822,5.726,5.706a4.539,4.539,0,0,1,1.366,2.743" transform="translate(-53.815 -52.962)" fill="#f1ccc6"/>
        <path id="Trazado_655583" data-name="Trazado 655583" d="M124.342,79.8a2.84,2.84,0,0,1-4.484.783c-1.766-1.655-3.434-3.416-5.163-5.111-.319-.312-.191-.475.054-.712.988-.953,1.964-1.919,2.945-2.88a.86.86,0,0,1,.6.341c1.662,1.664,3.349,3.3,4.977,5a3.867,3.867,0,0,1,1.07,2.578" transform="translate(-73.261 -45.99)" fill="#f2cdc7"/>
        <path id="Trazado_655584" data-name="Trazado 655584" d="M83.648,103.7a3.417,3.417,0,0,0-1.122-2.806q-4.731-4.76-9.49-9.495a4.149,4.149,0,0,0-2.721-1.174A2.783,2.783,0,0,1,74,90.409q4.805,4.727,9.535,9.532a2.76,2.76,0,0,1,.112,3.756" transform="translate(-44.988 -57.338)" fill="#edb4a9"/>
        <path id="Trazado_655585" data-name="Trazado 655585" d="M65.612,119.406a4.617,4.617,0,0,0-1.711-3.412q-3.538-3.62-7.161-7.158a4.614,4.614,0,0,0-3.413-1.709,2.741,2.741,0,0,1,3.67.131q4.288,4.19,8.481,8.478a2.74,2.74,0,0,1,.133,3.67" transform="translate(-34.12 -68.132)" fill="#edb4a9"/>
        <path id="Trazado_655586" data-name="Trazado 655586" d="M114.045,96.4a4.539,4.539,0,0,0-1.366-2.743c-1.926-1.885-3.816-3.805-5.726-5.706-.21-.209-.452-.386-.679-.578.637-.764,1.127-.639,1.8.079,1.73,1.846,3.568,3.59,5.347,5.391a2.819,2.819,0,0,1,.624,3.557" transform="translate(-67.995 -55.572)" fill="#e9b1a6"/>
        <path id="Trazado_655587" data-name="Trazado 655587" d="M130.005,78.511a3.867,3.867,0,0,0-1.07-2.578c-1.627-1.7-3.315-3.336-4.977-5a.861.861,0,0,0-.6-.341c.832-.95.832-.95,1.682-.1,1.479,1.479,2.968,2.947,4.433,4.439a2.822,2.822,0,0,1,.534,3.58" transform="translate(-78.924 -44.701)" fill="#edb4a9"/>
        <path id="Trazado_655588" data-name="Trazado 655588" d="M83.982,82.386a.323.323,0,0,1-.005-.4l.137.285q-.064.059-.132.114" transform="translate(-53.686 -52.456)" fill="#f1ccc6"/>
        <path id="Trazado_655589" data-name="Trazado 655589" d="M138.254,161.572a2.818,2.818,0,0,1-4.363.439q-4.778-4.676-9.457-9.451a2.828,2.828,0,0,1,.336-4.317,3.6,3.6,0,0,1,2.877,1.171q4.638,4.669,9.308,9.305a4.346,4.346,0,0,1,1.3,2.852" transform="translate(-79.071 -94.843)" fill="#f4cfc9"/>
        <path id="Trazado_655590" data-name="Trazado 655590" d="M123.3,180.422a2.824,2.824,0,0,1-4.365.392q-4.2-4.11-8.308-8.306a2.823,2.823,0,0,1,.388-4.365,4.619,4.619,0,0,1,3.414,1.709q3.622,3.537,7.161,7.158a4.617,4.617,0,0,1,1.711,3.412" transform="translate(-70.233 -107.578)" fill="#f3cec8"/>
        <path id="Trazado_655591" data-name="Trazado 655591" d="M148.363,135.514c-1.431,3.316-.87,5.524,1.991,7.848-.04.043-.078.087-.115.133a2.767,2.767,0,0,1-1.441-.857q-5.049-5.047-10.093-10.1a2.879,2.879,0,0,1,.625-4.8,4.461,4.461,0,0,1,2.975,1.6c1.988,2.087,4.141,4.013,6.057,6.171" transform="translate(-88.099 -81.733)" fill="#f1ccc6"/>
        <path id="Trazado_655592" data-name="Trazado 655592" d="M166.9,120.43c-.961.98-1.935,1.949-2.877,2.947-.308.326-.482.288-.779-.015-1.634-1.664-3.313-3.285-4.933-4.962a2.858,2.858,0,0,1,.664-4.619,4.214,4.214,0,0,1,2.78,1.25q2.318,2.294,4.613,4.61c.226.227.525.412.533.79" transform="translate(-100.716 -72.798)" fill="#f2cdc7"/>
        <path id="Trazado_655593" data-name="Trazado 655593" d="M140.36,160.376a4.346,4.346,0,0,0-1.3-2.852q-4.67-4.637-9.308-9.305a3.6,3.6,0,0,0-2.877-1.171,2.776,2.776,0,0,1,3.811.156q4.752,4.681,9.436,9.43a2.806,2.806,0,0,1,.236,3.742" transform="translate(-81.177 -93.647)" fill="#edb4a9"/>
        <path id="Trazado_655594" data-name="Trazado 655594" d="M125.519,179.287a4.617,4.617,0,0,0-1.711-3.412q-3.539-3.62-7.161-7.158a4.619,4.619,0,0,0-3.414-1.709,2.735,2.735,0,0,1,3.67.13q4.289,4.191,8.482,8.479a2.74,2.74,0,0,1,.134,3.67" transform="translate(-72.448 -106.443)" fill="#edb4a9"/>
        <path id="Trazado_655595" data-name="Trazado 655595" d="M151.267,134.845c-1.915-2.159-4.069-4.085-6.057-6.171a4.461,4.461,0,0,0-2.975-1.6,2.74,2.74,0,0,1,3.361.443c2.049,1.994,4.062,4.026,6.075,6.058.629.635-.249.85-.4,1.269" transform="translate(-91.003 -81.063)" fill="#e9b1a6"/>
        <path id="Trazado_655596" data-name="Trazado 655596" d="M169.66,119.694c-.008-.377-.307-.563-.533-.79q-2.3-2.311-4.613-4.61a4.214,4.214,0,0,0-2.78-1.25,2.776,2.776,0,0,1,3.45.412q2.544,2.464,5.012,5.006c.732.751-.351.82-.536,1.231" transform="translate(-103.479 -72.062)" fill="#edb4a9"/>
        <path id="Trazado_655597" data-name="Trazado 655597" d="M172.636,171.1l.284.138a.323.323,0,0,1-.4-.005q.055-.068.115-.133" transform="translate(-110.381 -109.473)" fill="#f1ccc6"/>
      </g>
    </g>
    <rect id="Rect치ngulo_309963" data-name="Rect치ngulo 309963" width="110" height="110" transform="translate(-101 -7967)" fill="none"/>
  </g>
</svg>
