<svg xmlns="http://www.w3.org/2000/svg" xmlns:xlink="http://www.w3.org/1999/xlink" width="85" height="85" viewBox="0 0 85 85">
  <defs>
    <clipPath id="clip-path">
      <rect id="Rect치ngulo_309895" data-name="Rect치ngulo 309895" width="75.445" height="74.885" fill="none"/>
    </clipPath>
  </defs>
  <g id="Grupo_1071771" data-name="Grupo 1071771" transform="translate(-331 -7380)">
    <g id="Grupo_1071770" data-name="Grupo 1071770" transform="translate(154.777 6882.136)">
      <g id="Grupo_995693" data-name="Grupo 995693" transform="translate(181 502.921)">
        <g id="Grupo_995692" data-name="Grupo 995692" clip-path="url(#clip-path)">
          <path id="Trazado_654665" data-name="Trazado 654665" d="M30,61.148a8.478,8.478,0,0,1-3.264-5.281c-.058-.327-.277-.282-.494-.29a12.952,12.952,0,0,1-1.324-.062,3.447,3.447,0,0,1-3.033-2.63,3.381,3.381,0,0,1,1.3-3.791A.7.7,0,0,0,23.5,48.2a10.809,10.809,0,0,1-.55-3.257c.007-.405-.309-.466-.543-.607Q14.7,39.706,7,35.087A13.933,13.933,0,0,1,.223,25.456C-1.275,17.95,4.953,9.269,13.551,9.7a12.263,12.263,0,0,1,6.89,2.487c.707.531,1.408,1.075,2.075,1.656a.545.545,0,0,0,.859.007,17.9,17.9,0,0,1,4.617-3.126c.263-.1.338-.339.45-.553A17.9,17.9,0,0,1,42.633.145,18.169,18.169,0,0,1,62.484,14.858a55.3,55.3,0,0,1,.3,6.991,10.732,10.732,0,0,0,6.679,9.929,11.355,11.355,0,0,0,5.413.82c.621-.031.69.095.427.663a13.492,13.492,0,0,1-5.391,6.446c-.316.181-.634.359-.967.546.149.306.424.43.642.606a10.4,10.4,0,0,1,2.253,14.129,4.039,4.039,0,0,0-.663,2.039A10.41,10.41,0,0,1,65.843,65.6a1.147,1.147,0,0,0-.669,1.066,8.364,8.364,0,0,1-8.523,8.194c-9.421.033-18.843.005-28.264.022-.543,0-.629-.186-.626-.67.022-2.78.05-5.561,0-8.339A5.189,5.189,0,0,1,30,61.148M26.839,14.231c-1.189.79-2.252,1.742-3.361,2.634-.384.309-.624.373-1.042.02-1.182-1-2.382-1.987-3.64-2.889a9.628,9.628,0,0,0-7.762-1.681A10.5,10.5,0,0,0,3.814,17.9,11.115,11.115,0,0,0,7.928,32.813c4.965,3.044,9.984,6,14.969,9.01.429.259.564.2.767-.258a8.659,8.659,0,0,1,6.025-5.091c.251-.065.552.015.75-.22-.008-.032-.006-.06-.02-.077a2.41,2.41,0,0,0-.189-.221,11.788,11.788,0,0,1-3.659-8.87c.021-2.017.005-4.035,0-6.053a31.705,31.705,0,0,1,.386-6.688l.021-.175-.143.062M55.531,21.89c0-1.631-.028-2.984.014-4.336.017-.536-.154-.64-.656-.634a29.289,29.289,0,0,1-12.582-2.635.8.8,0,0,0-.927.1,13.2,13.2,0,0,1-6.975,2.5c-.47.032-.606.159-.6.635.026,2.532-.051,5.068.03,7.6a8.754,8.754,0,0,0,5.51,8.343c1.431.609,1.989,1.289,1.712,2.74-.064.336.079.514.411.645a8.569,8.569,0,0,1,5.3,5.823c.121.408.242.435.6.286a7.268,7.268,0,0,0,3.223-2.6c.23-.326.243-.488-.169-.683a3.568,3.568,0,0,1-2.085-2.846c-.088-.6,0-1.23-.052-1.84s.148-.874.751-1.085a9.129,9.129,0,0,0,6.39-7.572,34.623,34.623,0,0,0,.107-4.435m8.216,17.4c.8-.2,1.444-.36,2.087-.518a9.766,9.766,0,0,0,5.366-3.3c.329-.4.452-.581-.233-.713a12.481,12.481,0,0,1-4.907-2.109,13.2,13.2,0,0,1-4.918-6.47c-.145-.408-.221-.656-.718-.306a3.644,3.644,0,0,1-2.075.678c-.4,0-.54.177-.615.559a11.516,11.516,0,0,1-6.5,8.513.751.751,0,0,0-.464,1.045,1.261,1.261,0,0,0,1.162.968A13.963,13.963,0,0,1,56.205,38.7c5.782,2.663,8.823,7.186,8.995,13.551.091,3.393.015,6.79.022,10.185,0,.178-.109.427.127.523.183.075.3-.125.426-.23a7.831,7.831,0,0,0,2.992-5.938,5.443,5.443,0,0,1,.99-3.05A7.971,7.971,0,0,0,67.991,42.69c-1.381-1.1-2.754-2.208-4.244-3.4m-3.49-21.8A15.527,15.527,0,0,0,43.871,2.483c-9.588.476-14.9,8.791-14.756,14.995a2.673,2.673,0,0,0,.479-.182c.557-.344,1.481-.037,1.757-.623a5.249,5.249,0,0,0,.079-1.966,5.13,5.13,0,0,1,1.2-3.1c.2-.262.39-.355.636-.049a3.325,3.325,0,0,0,.416.418c.6.524,1.169,1.011.412,1.879-.34.39-.143.648.414.6a11.235,11.235,0,0,0,4.472-1.373c.328-.176.385-.3.032-.544-1.005-.7-1-.708-.3-1.748a3.029,3.029,0,0,0,.243-.369c.222-.47.477-.471.909-.194a27.116,27.116,0,0,0,7.656,3.367,31.487,31.487,0,0,0,7.14.95c.6.021.7-.165.4-.664a5.018,5.018,0,0,0-1.176-1.306c-.329-.274-.974-.223-1.015-.716a3.758,3.758,0,0,1,.354-1.263,2.857,2.857,0,0,0,.091-.28c.1-.494.347-.548.787-.354a6.194,6.194,0,0,1,3.625,4.112,8.917,8.917,0,0,1,.248,2.338c0,.238-.053.5.33.529a6.814,6.814,0,0,1,1.952.552M49.976,64.017c.9,0,1.663-.044,2.419.014.633.048.758-.183.755-.779-.025-4.723,0-9.446-.021-14.168a5.579,5.579,0,0,1,.927-3.275c.562-.821.566-.819,1.245-.139.243.243.472.5.733.727.277.236.319.423.066.727a2.533,2.533,0,0,0-.564,1.643c-.009,2.509,0,5.018-.014,7.527,0,.4.14.492.512.49,2.066-.015,4.132-.024,6.2.006.5.007.551-.2.545-.607-.02-1.451.007-2.9-.014-4.354a12.164,12.164,0,0,0-8.826-11.36c-.373-.1-.6-.1-.816.312A9.2,9.2,0,0,1,47.5,45.448a.6.6,0,0,0-.51.607,8.233,8.233,0,0,1-.413,2.016.867.867,0,0,0,.363,1.1,3.322,3.322,0,0,1,1.3,3.4A3.5,3.5,0,0,1,45.726,55.4a4.555,4.555,0,0,1-1.752.172c-.443-.032-.618.1-.727.573a8.325,8.325,0,0,1-4.968,6c-.2.089-.488.061-.6.359.407.247.817.471,1.2.734.322.221.5.217.741-.151a3.08,3.08,0,0,1,2.448-1.445,1.023,1.023,0,0,0,.837-.493c.456-.64.921-1.278,1.422-1.882a3.6,3.6,0,0,1,3.941-1.1,3.645,3.645,0,0,1,2.421,3.222,4.171,4.171,0,0,1-.715,2.625M48.14,72.455v-.009c2.952,0,5.905.038,8.857-.01a5.918,5.918,0,0,0,5.739-5.49c.093-2.432.024-4.871.041-7.307,0-.34-.083-.474-.451-.471q-3.174.023-6.348,0c-.365,0-.459.131-.452.473a18.4,18.4,0,0,1-.013,2.655,3.882,3.882,0,0,0,1.662,4.061c.06.041.1.111.157.154.224.167.21.294.022.518-1.33,1.587-1.323,1.593-2.759.156a1.874,1.874,0,0,1-.207-.21,1.459,1.459,0,0,0-1.336-.57c-2.706.028-5.412.013-8.119.013-1.37,0-1.37,0-1.482-1.361,0-.025,0-.049-.006-.073a.943.943,0,0,0-.721-.919.953.953,0,0,0-1.147.443,4.31,4.31,0,0,0-.5.98c-.241.795-.737.979-1.538.954a3.022,3.022,0,0,0-3.318,2.986A3.058,3.058,0,0,0,39.5,72.453q4.318.009,8.636,0M28.973,51.409c0,.984-.02,1.968,0,2.952a6.049,6.049,0,0,0,5.42,5.985A5.946,5.946,0,0,0,40.949,55.3a34.816,34.816,0,0,0,.1-5.156c.023-1.508-.3-1.835-1.8-1.807a16.612,16.612,0,0,1-8.523-1.912c-.148-.081-.315-.226-.467-.067-.582.6-1.365,1.063-1.3,2.1.059.98.013,1.967.014,2.951m6.35-12.759c-1.4,0-2.532-.028-3.662.006a6.248,6.248,0,0,0-5.269,2.892c-1.393,2.08-1.15,4.281-.441,6.509.059.187.152.3.368.267.273-.045.257-.256.263-.452a3.394,3.394,0,0,1,.973-2.25c.689-.735,1.426-1.424,2.124-2.151a.484.484,0,0,1,.75-.074,13.633,13.633,0,0,0,8.829,2.49,3.718,3.718,0,0,1,3.857,2.145.543.543,0,0,0,.6.311c.285-.008.369-.2.425-.424.135-.548.28-1.094.4-1.645a6.306,6.306,0,0,0-5.215-7.518,39.461,39.461,0,0,0-4-.105M28.968,25.958c0,.516-.007.933,0,1.349a9.539,9.539,0,0,0,2.806,6.76,7,7,0,0,0,6.2,2.184c.222-.029.562.157.642-.16s-.281-.345-.486-.448a11.647,11.647,0,0,1-6.527-8.576c-.05-.256-.077-.5-.411-.5a5.777,5.777,0,0,1-2.226-.609m7.668,38.736c-.919-.543-1.762-1.045-2.61-1.537a2.407,2.407,0,0,0-.478-.188A2.477,2.477,0,0,0,30.3,64.452a2.267,2.267,0,0,0,1.72,2.928c.534.182,1.076.339,1.607.528.24.086.39.128.5-.189a5.494,5.494,0,0,1,2.509-3.025m-2.107,7.763c-.127-1.672-1.19-2.3-2.608-2.579a6.738,6.738,0,0,1-1.312-.458c-.336-.143-.44-.053-.435.291.009.783.014,1.567,0,2.35-.007.343.163.4.453.4,1.321-.009,2.642,0,3.9,0m23.415-50.7c0,.663.017,1.327-.006,1.99-.014.388.143.456.486.394a2.5,2.5,0,0,0,1.954-2.372,2.466,2.466,0,0,0-1.869-2.356c-.407-.1-.595-.046-.572.428.03.637.007,1.277.007,1.916m-26.533-.023c0-.64-.017-1.279.006-1.918.015-.416-.129-.5-.525-.415a2.463,2.463,0,0,0-1.92,2.391,2.506,2.506,0,0,0,1.979,2.356c.371.061.477-.066.466-.422-.02-.664-.006-1.328-.006-1.992M48.3,61.775a1.224,1.224,0,0,0-.781-1.291,1.136,1.136,0,0,0-1.378.389c-.372.454-.714.933-1.062,1.406-.094.127-.214.224-.111.446.75,1.617,1.215,1.7,2.483.433.173-.173.351-.343.514-.524a1.179,1.179,0,0,0,.336-.859m-4.844-9.907c.018,1.431-.154,1.25.8,1.262,1.075.014,1.657-.435,1.632-1.224-.024-.774-.61-1.109-1.695-1.191-1.162-.088-.606.743-.741,1.153M26.6,51.934c-.207-.419.459-1.3-.74-1.215-1.115.077-1.672.4-1.685,1.2s.541,1.142,1.642,1.233c1.156.1.64-.719.783-1.215" transform="translate(0 0)" fill="#030202"/>
          <path id="Trazado_654666" data-name="Trazado 654666" d="M32.733,43.164a31.665,31.665,0,0,0-.387,6.688c0,2.017.017,4.035,0,6.053A11.788,11.788,0,0,0,36,64.776,2.449,2.449,0,0,1,36.19,65c.014.017.012.045.02.077-.2.235-.5.155-.75.22a8.659,8.659,0,0,0-6.025,5.091c-.2.459-.338.517-.767.258-4.985-3.011-10-5.966-14.969-9.01A11.115,11.115,0,0,1,9.585,46.721a10.5,10.5,0,0,1,7.22-5.588,9.631,9.631,0,0,1,7.762,1.681c1.257.9,2.457,1.889,3.64,2.889.418.354.658.29,1.042-.019,1.109-.892,2.172-1.844,3.361-2.634l.123.114M10.622,51.837c-.072,2.436,1.576,4.656,3.742,6.613.151.136.269.195.43.025.472-.5,1.154-.921,1.348-1.508.124-.374-.685-.792-1.053-1.21-.13-.148-.28-.277-.411-.423A6.016,6.016,0,0,1,13.132,50.1a7.108,7.108,0,0,1,2.624-4.143c.484-.432.519-.716-.006-1.109-.428-.32-.738-1.056-1.181-1.013-.422.041-.786.676-1.175,1.05a8.926,8.926,0,0,0-2.774,6.957m7.244-7.322a2.146,2.146,0,0,1,0,.368c-.123.693.119.952.853.887a3.035,3.035,0,0,1,2.163.776c.33.261.419.882.91.819a4.259,4.259,0,0,0,1.191-.553,2.5,2.5,0,0,1,.33-.162c.452-.145.4-.39.181-.716a5.415,5.415,0,0,0-4.4-2.569c-1.227-.066-1.228-.055-1.228,1.152" transform="translate(-5.771 -28.819)" fill="#de7985"/>
          <path id="Trazado_654667" data-name="Trazado 654667" d="M135.984,55.65a34.622,34.622,0,0,1-.107,4.435,9.129,9.129,0,0,1-6.39,7.572c-.6.211-.807.479-.751,1.085s-.036,1.238.052,1.841a3.567,3.567,0,0,0,2.085,2.846c.412.195.4.357.169.683a7.272,7.272,0,0,1-3.223,2.6c-.358.148-.478.122-.6-.286a8.569,8.569,0,0,0-5.3-5.823c-.332-.131-.476-.309-.411-.645.278-1.451-.281-2.13-1.712-2.74a8.753,8.753,0,0,1-5.51-8.343c-.082-2.53,0-5.065-.03-7.6-.005-.476.131-.6.6-.635a13.2,13.2,0,0,0,6.975-2.5.8.8,0,0,1,.927-.1,29.289,29.289,0,0,0,12.582,2.635c.5-.005.673.1.656.634-.042,1.351-.014,2.7-.014,4.336m-10.9,9.533a5.182,5.182,0,0,0,4.4-2.428c.36-.536.273-.795-.31-1a4.219,4.219,0,0,1-.92-.456c-.4-.263-.6-.236-.89.219a2.661,2.661,0,0,1-4.2.4c-.26-.267-.313-.822-.732-.8a3.2,3.2,0,0,0-1.057.49,2.492,2.492,0,0,1-.4.19c-.6.172-.508.484-.237.905a5.121,5.121,0,0,0,4.336,2.47m.032-12.1a2.32,2.32,0,0,1-.369,0c-.649-.106-.9.125-.894.818a7.805,7.805,0,0,1-.609,2.64c-.235.675-1.055,1.359-.725,1.94.3.535,1.232.719,1.889,1.049,1.39.7,1.357.678,2.1-.692.334-.613.312-.963-.39-1.163-.494-.141-.623-.384-.408-.913a8.382,8.382,0,0,0,.542-2.436c.111-1.241.121-1.24-1.141-1.24m-5.977,2.444a4.292,4.292,0,0,0,2.369-.8c.935-.689.935-.689.139-1.485a7.694,7.694,0,0,1-.621-.63c-.259-.328-.446-.3-.754-.022a1.5,1.5,0,0,1-2.015.235c-.723-.72-1.088-.3-1.538.22a4.145,4.145,0,0,1-.575.571c-.334.262-.23.446.03.693a4.331,4.331,0,0,0,2.964,1.215m12.013,0a4.371,4.371,0,0,0,2.925-1.208c.322-.3.288-.487-.019-.75a8.917,8.917,0,0,1-.887-.885c-.283-.322-.48-.439-.864-.062a1.465,1.465,0,0,1-1.955.221c-.741-.724-1.131-.329-1.591.24a3.509,3.509,0,0,1-.52.521c-.3.242-.295.425-.008.7a4.331,4.331,0,0,0,2.92,1.225" transform="translate(-80.453 -33.76)" fill="#e9cfb5"/>
          <path id="Trazado_654668" data-name="Trazado 654668" d="M184.459,100.472c1.49,1.2,2.863,2.3,4.244,3.4a7.971,7.971,0,0,1,1.767,11.049,5.443,5.443,0,0,0-.99,3.05,7.83,7.83,0,0,1-2.993,5.938c-.126.105-.243.3-.426.23-.235-.1-.127-.345-.127-.522-.007-3.4.069-6.792-.022-10.185-.171-6.365-3.212-10.888-8.995-13.551a13.972,13.972,0,0,0-4.273-1.067,1.261,1.261,0,0,1-1.162-.968.751.751,0,0,1,.464-1.045,11.516,11.516,0,0,0,6.5-8.513c.075-.382.216-.555.615-.559a3.649,3.649,0,0,0,2.074-.678c.5-.35.573-.1.718.306a13.2,13.2,0,0,0,4.918,6.47,12.477,12.477,0,0,0,4.907,2.109c.685.132.562.314.233.713a9.766,9.766,0,0,1-5.366,3.3c-.643.158-1.286.319-2.087.518" transform="translate(-120.712 -61.185)" fill="#a87a4d"/>
          <path id="Trazado_654669" data-name="Trazado 654669" d="M129.56,23.353a6.814,6.814,0,0,0-1.952-.552c-.383-.026-.325-.292-.33-.529a8.919,8.919,0,0,0-.248-2.339,6.194,6.194,0,0,0-3.625-4.112c-.44-.194-.691-.14-.787.354a2.851,2.851,0,0,1-.091.28,3.751,3.751,0,0,0-.354,1.263c.04.493.685.442,1.015.716a5.016,5.016,0,0,1,1.175,1.306c.293.5.2.685-.4.664a31.491,31.491,0,0,1-7.141-.95,27.117,27.117,0,0,1-7.656-3.366c-.431-.277-.686-.276-.909.194a3.076,3.076,0,0,1-.243.369c-.694,1.04-.7,1.053.3,1.748.353.244.3.368-.032.544a11.231,11.231,0,0,1-4.472,1.373c-.558.043-.754-.214-.414-.6.757-.868.191-1.355-.412-1.879a3.285,3.285,0,0,1-.416-.418c-.245-.306-.431-.213-.636.049a5.133,5.133,0,0,0-1.2,3.1,5.249,5.249,0,0,1-.078,1.966c-.275.586-1.2.278-1.757.623a2.673,2.673,0,0,1-.479.182c-.146-6.2,5.168-14.519,14.756-15A15.528,15.528,0,0,1,129.56,23.353" transform="translate(-69.303 -5.861)" fill="#a8794d"/>
          <path id="Trazado_654670" data-name="Trazado 654670" d="M139.678,160.216a4.171,4.171,0,0,0,.715-2.625,3.647,3.647,0,0,0-2.422-3.222,3.6,3.6,0,0,0-3.941,1.1c-.5.6-.966,1.242-1.422,1.882a1.023,1.023,0,0,1-.837.493,3.079,3.079,0,0,0-2.448,1.445c-.245.368-.419.372-.741.151-.383-.263-.793-.487-1.2-.734.109-.3.4-.27.6-.359a8.325,8.325,0,0,0,4.968-6c.109-.472.284-.6.727-.573a4.554,4.554,0,0,0,1.752-.172,3.494,3.494,0,0,0,2.506-2.828,3.321,3.321,0,0,0-1.3-3.4.868.868,0,0,1-.363-1.1,8.22,8.22,0,0,0,.413-2.016.6.6,0,0,1,.51-.606,9.2,9.2,0,0,0,5.627-4.668c.219-.416.444-.415.816-.312a12.164,12.164,0,0,1,8.826,11.36c.021,1.451-.006,2.9.014,4.354.006.41-.044.614-.545.607-2.066-.03-4.132-.02-6.2-.006-.372,0-.515-.087-.512-.49.017-2.509.005-5.018.014-7.527a2.533,2.533,0,0,1,.564-1.643c.253-.3.212-.492-.066-.727-.262-.222-.49-.483-.733-.727-.679-.679-.683-.682-1.245.139a5.578,5.578,0,0,0-.927,3.275c.016,4.723,0,9.446.021,14.168,0,.6-.122.827-.756.779-.756-.057-1.52-.014-2.419-.014" transform="translate(-89.701 -96.198)" fill="#7deef3"/>
          <path id="Trazado_654671" data-name="Trazado 654671" d="M134.358,213.308c-2.879,0-5.757,0-8.636,0a3.058,3.058,0,0,1-3.287-3.027,3.022,3.022,0,0,1,3.318-2.986c.8.025,1.3-.159,1.538-.953a4.317,4.317,0,0,1,.5-.98.953.953,0,0,1,1.147-.442.942.942,0,0,1,.721.919c0,.025,0,.049.006.074.112,1.361.112,1.361,1.482,1.361,2.706,0,5.413.015,8.119-.013a1.459,1.459,0,0,1,1.336.57,1.925,1.925,0,0,0,.207.209c1.436,1.437,1.429,1.431,2.759-.156.188-.224.2-.351-.022-.518-.058-.043-.1-.114-.157-.154a3.883,3.883,0,0,1-1.662-4.061,18.4,18.4,0,0,0,.013-2.655c-.007-.342.087-.475.452-.473q3.174.021,6.348,0c.368,0,.454.131.451.472-.017,2.436.052,4.874-.041,7.307a5.917,5.917,0,0,1-5.739,5.49c-2.951.049-5.9.011-8.857.011Z" transform="translate(-86.217 -140.853)" fill="#e9cfb5"/>
          <path id="Trazado_654672" data-name="Trazado 654672" d="M97.9,161.593c0-.984.046-1.971-.014-2.951-.063-1.039.72-1.5,1.3-2.1.152-.158.319-.014.467.067a16.615,16.615,0,0,0,8.523,1.912c1.5-.028,1.822.3,1.8,1.807a34.85,34.85,0,0,1-.1,5.156,5.945,5.945,0,0,1-6.552,5.047,6.05,6.05,0,0,1-5.42-5.985c-.024-.983,0-1.968,0-2.952m5.805,6.566a4.4,4.4,0,0,0,2.723-.833c.865-.655.865-.655.092-1.423-.226-.225-.469-.437-.673-.682-.246-.295-.415-.251-.692,0a1.523,1.523,0,0,1-2.014.263c-.781-.74-1.166-.256-1.633.284a4.439,4.439,0,0,1-.521.52c-.264.219-.267.377-.005.627a4.159,4.159,0,0,0,2.724,1.247" transform="translate(-68.928 -110.183)" fill="#e8ceb5"/>
          <path id="Trazado_654673" data-name="Trazado 654673" d="M95.746,130.635a39.565,39.565,0,0,1,4,.105,6.306,6.306,0,0,1,5.215,7.518c-.119.551-.265,1.1-.4,1.645-.056.226-.14.416-.425.424a.543.543,0,0,1-.6-.311,3.717,3.717,0,0,0-3.856-2.144,13.635,13.635,0,0,1-8.829-2.49.484.484,0,0,0-.75.075c-.7.727-1.436,1.415-2.125,2.15a3.4,3.4,0,0,0-.972,2.251c-.007.2.009.407-.264.452-.216.035-.308-.081-.368-.267-.708-2.228-.952-4.43.441-6.509a6.249,6.249,0,0,1,5.269-2.892c1.13-.034,2.261-.006,3.662-.006" transform="translate(-60.423 -91.984)" fill="#656c76"/>
          <path id="Trazado_654674" data-name="Trazado 654674" d="M97.922,87.754a5.776,5.776,0,0,0,2.226.609c.334,0,.361.246.411.5a11.648,11.648,0,0,0,6.527,8.576c.2.1.566.132.486.448s-.42.131-.643.16a7,7,0,0,1-6.2-2.184,9.539,9.539,0,0,1-2.806-6.76c-.008-.417,0-.833,0-1.349" transform="translate(-68.954 -61.795)" fill="#a6784c"/>
          <path id="Trazado_654675" data-name="Trazado 654675" d="M108.489,214.243a5.492,5.492,0,0,0-2.509,3.025c-.105.317-.256.275-.5.189-.531-.19-1.073-.347-1.607-.529a2.267,2.267,0,0,1-1.72-2.928,2.477,2.477,0,0,1,3.244-1.484,2.427,2.427,0,0,1,.478.188c.848.492,1.691.995,2.61,1.537" transform="translate(-71.853 -149.548)" fill="#7bcfb2"/>
          <path id="Trazado_654676" data-name="Trazado 654676" d="M106.355,237.559c-1.262,0-2.582,0-3.9,0-.29,0-.46-.056-.453-.4.016-.783.011-1.567,0-2.35,0-.344.1-.434.435-.291a6.739,6.739,0,0,0,1.312.458c1.417.278,2.48.907,2.608,2.579" transform="translate(-71.826 -165.102)" fill="#79cbaf"/>
          <path id="Trazado_654677" data-name="Trazado 654677" d="M195.859,67.872c0-.639.023-1.279-.007-1.916-.023-.474.165-.523.572-.428a2.466,2.466,0,0,1,1.869,2.356,2.5,2.5,0,0,1-1.954,2.372c-.343.062-.5-.006-.486-.394.024-.663.006-1.326.006-1.99" transform="translate(-137.915 -46.116)" fill="#dfc6ae"/>
          <path id="Trazado_654678" data-name="Trazado 654678" d="M100.377,67.85c0,.664-.015,1.328.005,1.992.011.356-.095.483-.466.422a2.506,2.506,0,0,1-1.979-2.356,2.463,2.463,0,0,1,1.92-2.391c.4-.082.54,0,.525.414-.022.639-.006,1.279-.006,1.918" transform="translate(-68.966 -46.116)" fill="#dfc6ae"/>
          <path id="Trazado_654679" data-name="Trazado 654679" d="M155.235,205.541a1.179,1.179,0,0,1-.336.859c-.164.182-.341.351-.514.524-1.268,1.27-1.733,1.183-2.483-.433-.1-.222.017-.318.111-.446.348-.473.69-.952,1.062-1.406a1.136,1.136,0,0,1,1.378-.389,1.224,1.224,0,0,1,.781,1.291" transform="translate(-106.94 -143.766)" fill="#e8ceb5"/>
          <path id="Trazado_654680" data-name="Trazado 654680" d="M146.846,172.582c.135-.41-.421-1.241.741-1.153,1.085.082,1.671.418,1.695,1.191.025.789-.557,1.238-1.632,1.224-.958-.012-.786.17-.8-1.262" transform="translate(-103.395 -120.714)" fill="#dfc6ae"/>
          <path id="Trazado_654681" data-name="Trazado 654681" d="M84.145,172.66c-.142.5.374,1.312-.783,1.215-1.1-.092-1.655-.424-1.642-1.233s.57-1.12,1.685-1.2c1.2-.083.532.8.74,1.215" transform="translate(-57.547 -120.726)" fill="#e8ceb5"/>
          <path id="Trazado_654682" data-name="Trazado 654682" d="M90.73,47.962l.143-.062q-.011.087-.021.175l-.122-.113" transform="translate(-63.891 -33.731)" fill="#de7985"/>
          <path id="Trazado_654683" data-name="Trazado 654683" d="M16.395,58.746a8.926,8.926,0,0,1,2.774-6.957c.389-.374.753-1.009,1.175-1.05.443-.043.753.693,1.181,1.013.525.393.49.677.006,1.109A7.109,7.109,0,0,0,18.9,57.005a6.016,6.016,0,0,0,1.546,5.239c.131.146.281.275.411.423.368.419,1.177.836,1.053,1.21-.194.587-.876,1.011-1.348,1.508-.161.17-.28.111-.43-.025-2.167-1.957-3.814-4.177-3.742-6.613" transform="translate(-11.543 -35.729)" fill="#030202"/>
          <path id="Trazado_654684" data-name="Trazado 654684" d="M40.809,50.264c0-1.207,0-1.218,1.228-1.152a5.415,5.415,0,0,1,4.4,2.569c.219.326.27.572-.181.716a2.5,2.5,0,0,0-.33.162,4.259,4.259,0,0,1-1.191.553c-.491.063-.579-.558-.91-.819a3.035,3.035,0,0,0-2.163-.776c-.734.065-.976-.193-.853-.887a2.147,2.147,0,0,0,0-.368" transform="translate(-28.714 -34.569)" fill="#030202"/>
          <path id="Trazado_654685" data-name="Trazado 654685" d="M140.061,96.574a5.121,5.121,0,0,1-4.336-2.47c-.272-.422-.362-.733.237-.905a2.493,2.493,0,0,0,.4-.19,3.2,3.2,0,0,1,1.057-.489c.419-.024.472.532.732.8a2.661,2.661,0,0,0,4.2-.4c.288-.456.489-.483.889-.22a4.206,4.206,0,0,0,.92.456c.583.2.67.461.31,1a5.181,5.181,0,0,1-4.4,2.428" transform="translate(-95.428 -65.15)" fill="#050404"/>
          <path id="Trazado_654686" data-name="Trazado 654686" d="M144.627,65.273c1.262,0,1.252,0,1.141,1.24a8.4,8.4,0,0,1-.542,2.435c-.216.528-.086.771.408.913.7.2.724.55.39,1.163-.747,1.37-.714,1.391-2.1.692-.657-.33-1.585-.514-1.888-1.049-.33-.581.489-1.265.724-1.939a7.8,7.8,0,0,0,.61-2.64c-.009-.693.245-.924.894-.818a2.356,2.356,0,0,0,.369,0" transform="translate(-99.962 -45.946)" fill="#060605"/>
          <path id="Trazado_654687" data-name="Trazado 654687" d="M123.159,66.1a4.331,4.331,0,0,1-2.964-1.215c-.259-.247-.364-.431-.03-.693a4.148,4.148,0,0,0,.575-.572c.45-.525.816-.94,1.538-.22a1.5,1.5,0,0,0,2.015-.235c.308-.28.494-.305.754.022a7.646,7.646,0,0,0,.621.63c.8.8.8.8-.139,1.485a4.3,4.3,0,0,1-2.369.8" transform="translate(-84.471 -44.326)" fill="#050404"/>
          <path id="Trazado_654688" data-name="Trazado 654688" d="M163.935,66.122a4.328,4.328,0,0,1-2.919-1.224c-.286-.274-.291-.457.008-.7a3.512,3.512,0,0,0,.521-.521c.46-.569.849-.963,1.591-.24a1.465,1.465,0,0,0,1.955-.221c.384-.377.582-.26.864.062a8.885,8.885,0,0,0,.887.885c.307.264.34.448.019.75a4.369,4.369,0,0,1-2.926,1.208" transform="translate(-113.234 -44.351)" fill="#050404"/>
          <path id="Trazado_654689" data-name="Trazado 654689" d="M110.62,188.508a4.159,4.159,0,0,1-2.724-1.247c-.261-.249-.259-.408.005-.627a4.439,4.439,0,0,0,.521-.52c.467-.54.852-1.024,1.633-.284a1.523,1.523,0,0,0,2.014-.263c.277-.248.446-.292.692,0,.2.244.447.456.673.682.773.769.773.769-.092,1.423a4.4,4.4,0,0,1-2.723.833" transform="translate(-75.843 -130.532)" fill="#050404"/>
        </g>
      </g>
    </g>
    <rect id="Rect치ngulo_309092" data-name="Rect치ngulo 309092" width="85" height="85" transform="translate(331 7380)" fill="none"/>
  </g>
</svg>
