<svg xmlns="http://www.w3.org/2000/svg" xmlns:xlink="http://www.w3.org/1999/xlink" width="67" height="67" viewBox="0 0 67 67">
  <defs>
    <clipPath id="clip-path">
      <rect id="Rect치ngulo_356295" data-name="Rect치ngulo 356295" width="50.897" height="51.711" fill="none"/>
    </clipPath>
  </defs>
  <g id="Grupo_1071797" data-name="Grupo 1071797" transform="translate(-303 -3225)">
    <rect id="Rect치ngulo_309742" data-name="Rect치ngulo 309742" width="67" height="67" transform="translate(303 3225)" fill="none"/>
    <g id="Grupo_1071808" data-name="Grupo 1071808" transform="translate(311.733 3232.288)">
      <g id="Grupo_1071807" data-name="Grupo 1071807" transform="translate(0 0)" clip-path="url(#clip-path)">
        <path id="Trazado_771393" data-name="Trazado 771393" d="M3.524,31.7a2.184,2.184,0,1,1,0,4.368,2.184,2.184,0,1,1,0-4.368" transform="translate(-0.166 -4.009)" fill="#ecf0f1"/>
        <path id="Trazado_771394" data-name="Trazado 771394" d="M54.1,2.9A2.184,2.184,0,1,1,51.9,5.083,2.175,2.175,0,0,1,54.1,2.9" transform="translate(-6.564 -0.367)" fill="#ecf0f1"/>
        <path id="Trazado_771395" data-name="Trazado 771395" d="M42.737,17.023A15.4,15.4,0,0,1,40.262,25.5a15.752,15.752,0,0,0-10.957-7.076,4.281,4.281,0,0,0,2.032-3.67V11.433a4.384,4.384,0,0,0-7.511-3.057A4.421,4.421,0,0,0,22.5,11.433v3.318a4.532,4.532,0,0,0,1.944,3.67A15.927,15.927,0,0,0,13.4,25.5a15.4,15.4,0,0,1-2.474-8.473,15.907,15.907,0,0,1,31.811,0" transform="translate(-1.382 -0.165)" fill="#ecf0f1"/>
        <path id="Trazado_771396" data-name="Trazado 771396" d="M27.353,20.6h.972a6.03,6.03,0,0,1,1.237.175A16.044,16.044,0,0,1,40.519,27.85a15.632,15.632,0,0,1-10.073,6.9,14.13,14.13,0,0,1-3.358.349,15.4,15.4,0,0,1-3.447-.349,15.994,15.994,0,0,1-9.984-6.9A15.75,15.75,0,0,1,24.7,20.775,12.12,12.12,0,0,1,26.47,20.6h.883Z" transform="translate(-1.727 -2.606)" fill="#86dcfd"/>
        <path id="Trazado_771397" data-name="Trazado 771397" d="M32.937,12.267v3.319a4.392,4.392,0,0,1-2.032,3.669c-.442-.087-.8-.087-1.238-.175H27.989a10.978,10.978,0,0,0-1.766.175,4.407,4.407,0,0,1-1.944-3.669V12.267A4.268,4.268,0,0,1,25.6,9.209,4.531,4.531,0,0,1,28.7,7.9a4.37,4.37,0,0,1,4.241,4.368" transform="translate(-3.071 -0.999)" fill="#ffd8a8"/>
        <path id="Trazado_771398" data-name="Trazado 771398" d="M32.711,56.214a1.162,1.162,0,0,1-1.149-1.136V36.735a1.148,1.148,0,0,1,2.3,0V55.078a1.162,1.162,0,0,1-1.148,1.136" transform="translate(-3.992 -4.503)"/>
        <path id="Trazado_771399" data-name="Trazado 771399" d="M25.022,56.214a1.163,1.163,0,0,1-1.149-1.136V36.735a1.149,1.149,0,0,1,2.3,0V55.078a1.229,1.229,0,0,1-1.15,1.136" transform="translate(-3.019 -4.503)"/>
        <path id="Trazado_771400" data-name="Trazado 771400" d="M13.132,26.379a1.222,1.222,0,0,1-.972-.524,16.464,16.464,0,0,1-2.651-9,17.056,17.056,0,0,1,34.109,0,16.047,16.047,0,0,1-2.651,9,1.058,1.058,0,0,1-1.5.35,1.031,1.031,0,0,1-.353-1.485,14.6,14.6,0,0,0,2.3-7.862,14.8,14.8,0,0,0-29.6,0,14.6,14.6,0,0,0,2.3,7.862,1.016,1.016,0,0,1-.353,1.485.755.755,0,0,1-.618.174" transform="translate(-1.203 0)"/>
        <path id="Trazado_771401" data-name="Trazado 771401" d="M26.919,36.171a17.989,17.989,0,0,1-3.712-.437A17,17,0,0,1,12.515,28.31a.909.909,0,0,1,0-1.136,17.01,17.01,0,0,1,11.841-7.6A13.378,13.378,0,0,1,26.3,19.4h.442a1.659,1.659,0,0,1,.618.176,1.285,1.285,0,0,1,.618-.176h.353a6.885,6.885,0,0,1,1.325.176,17.023,17.023,0,0,1,11.753,7.6.911.911,0,0,1,0,1.136,17.419,17.419,0,0,1-10.781,7.425,17.988,17.988,0,0,1-3.711.437M14.9,27.786a14.825,14.825,0,0,0,8.925,5.852,15.029,15.029,0,0,0,15.287-5.852A14.777,14.777,0,0,0,29.3,21.758c-.354-.087-.795-.087-1.149-.176h-.265a1.25,1.25,0,0,1-.53-.175,1.281,1.281,0,0,1-.618.175h-.266a10.949,10.949,0,0,0-1.679.176,14.767,14.767,0,0,0-9.9,6.027" transform="translate(-1.558 -2.454)"/>
        <path id="Trazado_771402" data-name="Trazado 771402" d="M29.259,21.57H29.17a1.136,1.136,0,1,1,0-2.271h.176a1.089,1.089,0,0,1,1.061,1.136,1.161,1.161,0,0,1-1.149,1.136" transform="translate(-3.544 -2.441)"/>
        <path id="Trazado_771403" data-name="Trazado 771403" d="M29.941,21.583h-.355a1.093,1.093,0,1,1,.088-2.184h.266A1.089,1.089,0,0,1,31,20.535a1.015,1.015,0,0,1-1.06,1.048" transform="translate(-3.608 -2.454)"/>
        <path id="Trazado_771404" data-name="Trazado 771404" d="M28.867,28.734A1.163,1.163,0,0,1,27.718,27.6V20.436a1.149,1.149,0,0,1,2.3,0V27.6a1.163,1.163,0,0,1-1.149,1.136" transform="translate(-3.506 -2.441)"/>
        <path id="Trazado_771405" data-name="Trazado 771405" d="M30.713,20.151h-.176c-.354-.086-.795-.086-1.15-.175H27.709a11.081,11.081,0,0,0-1.68.175,1.987,1.987,0,0,1-.707-.086.086.086,0,0,1-.087-.088,5.579,5.579,0,0,1-2.476-4.542V12.115a5.61,5.61,0,0,1,1.592-3.843A5.363,5.363,0,0,1,28.239,6.7a5.569,5.569,0,0,1,5.567,5.5v3.318a5.363,5.363,0,0,1-2.473,4.543,5.14,5.14,0,0,1-.619.086M29.3,17.793h.354c.265,0,.529.088.883.088a3.424,3.424,0,0,0,1.149-2.534V12.027a3.337,3.337,0,0,0-3.359-3.318,3.6,3.6,0,0,0-2.385.96,3.2,3.2,0,0,0-.972,2.359v3.319a3.423,3.423,0,0,0,1.148,2.534,7.627,7.627,0,0,1,1.414-.088H29.3Z" transform="translate(-2.879 -0.847)"/>
        <path id="Trazado_771406" data-name="Trazado 771406" d="M44.757,58.87H4.994a1.136,1.136,0,1,1,0-2.271H44.757a1.163,1.163,0,0,1,1.149,1.136,1.3,1.3,0,0,1-1.149,1.136" transform="translate(-0.486 -7.159)"/>
        <path id="Trazado_771407" data-name="Trazado 771407" d="M50.063,35.653l-1.148-4.368a1.109,1.109,0,0,0-1.06-.785H43.436a1.135,1.135,0,1,0,0,2.27h2.3L36.367,45.524,11.713,38.1a1.023,1.023,0,0,0-1.237.437L2.7,49.454a1.011,1.011,0,0,0,.266,1.485.847.847,0,0,0,.618.175,1.091,1.091,0,0,0,.883-.437L11.713,40.37l24.653,7.425a1.021,1.021,0,0,0,1.238-.437l9.632-13.364.529,2.1a1.18,1.18,0,0,0,2.3-.437" transform="translate(-0.315 -3.858)"/>
        <path id="Trazado_771408" data-name="Trazado 771408" d="M3.358,36.938a3.32,3.32,0,1,1,0-6.639,3.32,3.32,0,1,1,0,6.639m0-4.368a1.136,1.136,0,1,0,1.149,1.136A1.164,1.164,0,0,0,3.358,32.57" transform="translate(0 -3.832)"/>
        <path id="Trazado_771409" data-name="Trazado 771409" d="M53.938,8.238A3.32,3.32,0,1,1,57.3,4.918a3.337,3.337,0,0,1-3.358,3.319m0-4.368a1.164,1.164,0,0,0-1.149,1.136,1.148,1.148,0,0,0,2.3,0A1.107,1.107,0,0,0,53.938,3.87" transform="translate(-6.397 -0.202)"/>
      </g>
    </g>
  </g>
</svg>
