<svg xmlns="http://www.w3.org/2000/svg" xmlns:xlink="http://www.w3.org/1999/xlink" width="67" height="67" viewBox="0 0 67 67">
  <defs>
    <clipPath id="clip-path">
      <rect id="Rect치ngulo_356296" data-name="Rect치ngulo 356296" width="57.256" height="55.851" fill="none"/>
    </clipPath>
  </defs>
  <g id="Grupo_1071798" data-name="Grupo 1071798" transform="translate(-303 -3225)">
    <rect id="Rect치ngulo_309742" data-name="Rect치ngulo 309742" width="67" height="67" transform="translate(303 3225)" fill="none"/>
    <g id="Grupo_1071810" data-name="Grupo 1071810" transform="translate(307.9 3228.449)">
      <g id="Grupo_1071809" data-name="Grupo 1071809" transform="translate(0 0)" clip-path="url(#clip-path)">
        <path id="Trazado_771410" data-name="Trazado 771410" d="M28.63,5.8a22.258,22.258,0,1,0,0,44.512,22.258,22.258,0,1,0,0-44.512" transform="translate(-0.382 -0.364)" fill="#ef727a"/>
        <path id="Trazado_771411" data-name="Trazado 771411" d="M29.031,12.1A16.4,16.4,0,1,1,12.442,28.5,16.5,16.5,0,0,1,29.031,12.1" transform="translate(-0.783 -0.761)" fill="#d7deed"/>
        <path id="Trazado_771412" data-name="Trazado 771412" d="M29.426,18.3A10.59,10.59,0,1,0,40.138,28.889,10.641,10.641,0,0,0,29.426,18.3" transform="translate(-1.177 -1.151)" fill="#ef727a"/>
        <path id="Trazado_771413" data-name="Trazado 771413" d="M29.827,24.6a4.686,4.686,0,1,1-4.74,4.685,4.713,4.713,0,0,1,4.74-4.685" transform="translate(-1.578 -1.547)" fill="#d7deed"/>
        <path id="Trazado_771414" data-name="Trazado 771414" d="M28.554,51.455a23.573,23.573,0,0,1-23.7-23.427,23.7,23.7,0,0,1,47.4,0,23.573,23.573,0,0,1-23.7,23.427m0-44.512A21.24,21.24,0,0,0,7.225,28.027a21.331,21.331,0,0,0,42.658,0A21.24,21.24,0,0,0,28.554,6.943" transform="translate(-0.305 -0.289)"/>
        <path id="Trazado_771415" data-name="Trazado 771415" d="M28.949,45.935A17.619,17.619,0,1,1,46.77,28.317,17.761,17.761,0,0,1,28.949,45.935m0-32.8A15.276,15.276,0,1,0,44.4,28.411,15.367,15.367,0,0,0,28.949,13.136" transform="translate(-0.7 -0.673)"/>
        <path id="Trazado_771416" data-name="Trazado 771416" d="M29.35,40.527A11.714,11.714,0,1,1,41.2,28.814,11.787,11.787,0,0,1,29.35,40.527m0-21.085a9.372,9.372,0,1,0,9.48,9.371,9.454,9.454,0,0,0-9.48-9.371" transform="translate(-1.101 -1.075)"/>
        <path id="Trazado_771417" data-name="Trazado 771417" d="M29.744,35.007a5.974,5.974,0,0,1-5.972-5.9,5.973,5.973,0,1,1,5.972,5.9m0-9.371a3.561,3.561,0,1,0,3.6,3.561,3.58,3.58,0,0,0-3.6-3.561" transform="translate(-1.495 -1.459)"/>
        <path id="Trazado_771418" data-name="Trazado 771418" d="M30.062,6.653A1.248,1.248,0,0,1,28.83,5.435V1.218a1.232,1.232,0,0,1,2.465,0V5.435a1.247,1.247,0,0,1-1.232,1.218" transform="translate(-1.814 0)"/>
        <path id="Trazado_771419" data-name="Trazado 771419" d="M30.062,59.153a1.248,1.248,0,0,1-1.232-1.218V53.718a1.232,1.232,0,0,1,2.465,0v4.217a1.247,1.247,0,0,1-1.232,1.218" transform="translate(-1.814 -3.302)"/>
        <path id="Trazado_771420" data-name="Trazado 771420" d="M58.607,30.936H54.34a1.218,1.218,0,1,1,0-2.436h4.267a1.218,1.218,0,1,1,0,2.436" transform="translate(-3.341 -1.793)"/>
        <path id="Trazado_771421" data-name="Trazado 771421" d="M5.5,30.936H1.232a1.218,1.218,0,1,1,0-2.436H5.5a1.218,1.218,0,1,1,0,2.436" transform="translate(0 -1.793)"/>
        <path id="Trazado_771422" data-name="Trazado 771422" d="M58.748,58.636H44.528a1.218,1.218,0,1,1,0-2.436H58.748a1.247,1.247,0,0,1,1.231,1.218,1.316,1.316,0,0,1-1.231,1.218" transform="translate(-2.724 -3.535)"/>
        <path id="Trazado_771423" data-name="Trazado 771423" d="M59.3,54.936H53.329a1.218,1.218,0,1,1,0-2.436H59.3a1.247,1.247,0,0,1,1.231,1.218A1.316,1.316,0,0,1,59.3,54.936" transform="translate(-3.277 -3.302)"/>
        <path id="Trazado_771424" data-name="Trazado 771424" d="M15.755,58.636H1.535a1.218,1.218,0,1,1,0-2.436H15.755a1.249,1.249,0,0,1,1.233,1.218,1.318,1.318,0,0,1-1.233,1.218" transform="translate(-0.019 -3.535)"/>
        <path id="Trazado_771425" data-name="Trazado 771425" d="M7.406,54.936H1.434a1.218,1.218,0,1,1,0-2.436H7.406a1.218,1.218,0,1,1,0,2.436" transform="translate(-0.013 -3.302)"/>
      </g>
    </g>
  </g>
</svg>
