<svg xmlns="http://www.w3.org/2000/svg" xmlns:xlink="http://www.w3.org/1999/xlink" width="656" height="319.416" viewBox="0 0 656 319.416">
  <defs>
    <clipPath id="clip-path">
      <rect id="Rectángulo_309960" data-name="Rectángulo 309960" width="274.646" height="272.408" fill="none"/>
    </clipPath>
    <clipPath id="clip-path-2">
      <rect id="Rectángulo_309959" data-name="Rectángulo 309959" width="274.646" height="296.11" fill="none"/>
    </clipPath>
    <clipPath id="clip-path-3">
      <rect id="Rectángulo_309958" data-name="Rectángulo 309958" width="0.537" height="0.623" fill="none"/>
    </clipPath>
  </defs>
  <g id="Grupo_1071837" data-name="Grupo 1071837" transform="translate(-810 -1351)">
    <rect id="BG" width="656" height="319.416" transform="translate(810 1351)" fill="#cdbffa" opacity="0.949"/>
    <g id="Grupo_1071673" data-name="Grupo 1071673" transform="translate(1028.943 1346.779)">
      <g id="Grupo_995740" data-name="Grupo 995740" transform="translate(0 27)" clip-path="url(#clip-path)">
        <g id="Grupo_995739" data-name="Grupo 995739" transform="translate(0 -23.703)">
          <g id="Grupo_995738" data-name="Grupo 995738" clip-path="url(#clip-path-2)">
            <path id="Trazado_655465" data-name="Trazado 655465" d="M211.044,88.171h-78.23c5.494-5.93,11.976-12.177,20.017-12.06,5.918.074,11.168,3.669,15.7,7.477a37.582,37.582,0,0,1,16.4-10.512,21.173,21.173,0,0,1,10.481-.933c7.637,1.559,12.485,8.666,15.635,16.028" transform="translate(63.602 34.398)" fill="#ffe7a5"/>
            <path id="Trazado_655466" data-name="Trazado 655466" d="M105.512,104.852H27.282c5.494-5.93,11.976-12.177,20.017-12.06,5.918.074,11.168,3.669,15.7,7.477A37.583,37.583,0,0,1,79.4,89.757a21.173,21.173,0,0,1,10.481-.933c7.637,1.56,12.485,8.666,15.635,16.028" transform="translate(13.065 42.387)" fill="#fff9e9"/>
            <path id="Trazado_655467" data-name="Trazado 655467" d="M151.947,36.324l-.671.013H22.594c8.582-10.377,25.295-13.421,36.743-6.074,6.319-7.238,13.3-14.313,22.155-18.042s20.03-3.44,27.118,3.058c4.4,4.03,6.69,9.817,8.842,15.382,10.392-7.841,27.146-5.1,34.495,5.663" transform="translate(21.321 38.802)" fill="#fff9e9"/>
            <path id="Trazado_655468" data-name="Trazado 655468" d="M147,76.357l-1.182,29.831H110.006l-.086-11.164-.071-9.212-.028-2.7Z" transform="translate(52.591 36.566)" fill="#e8b47b"/>
            <path id="Trazado_655469" data-name="Trazado 655469" d="M141.821,80.591c-2.221,4.157-6.792,6.408-11.163,8.144-6.722,2.677-13.57,4.443-20.747,4.3l-.071-9.212a111.447,111.447,0,0,1,31.981-3.233" transform="translate(52.6 38.555)" fill="#2d1026"/>
            <path id="Trazado_655470" data-name="Trazado 655470" d="M132.891,39.728c2.52-7.609,8.341-14.224,15.867-16.982S165.384,21.461,171.175,27a29.863,29.863,0,0,1,5.837,8.452c2.875,5.8,4.821,12.619,2.581,18.689-2.05,5.559-7.23,9.382-12.615,11.852a29.88,29.88,0,0,1-13.785,3.088,24.153,24.153,0,0,1-15.752-7.306,30.393,30.393,0,0,1-7.936-15.613Z" transform="translate(62.018 10.244)" fill="#7e563c"/>
            <path id="Trazado_655471" data-name="Trazado 655471" d="M107.059,28.229A24.685,24.685,0,0,0,97.481,32.7C94.764,35,92.866,38.51,93.306,42.036a3.667,3.667,0,0,1-.013,1.813,3.248,3.248,0,0,1-1.356,1.325A19.115,19.115,0,0,0,84.8,53.718a15.628,15.628,0,0,0-.364,11.04C86.025,69.2,89.8,72.624,94.1,74.565a34.556,34.556,0,0,0,13.8,2.6c8.946.121,18.4-1.846,24.949-7.943A37.8,37.8,0,0,0,140.217,58.9a69.59,69.59,0,0,0,5.4-13.261c1.193-4.2,2.411-9.231,1.96-13.635-.365-3.566-6.983-4.159-9.769-4.756a63.32,63.32,0,0,0-14.527-1.369,66.607,66.607,0,0,0-16.219,2.35" transform="translate(40.035 12.387)" fill="#7e563c"/>
            <path id="Trazado_655472" data-name="Trazado 655472" d="M91.589,80.7c.268,7.851.6,23.74,10.858,28.42,15.92,7.264,51.623.726,51.623.726A80.521,80.521,0,0,1,155.8,98.733c-.058.834,5.07.852,8.044.716,1.023-.07,1.788-.138,2.019-.186a14.724,14.724,0,0,0,7.417-4.567c3.98-4.607,4.272-11.821.077-16.371a11.569,11.569,0,0,0-1.631-1.454c-.191-.146-.4-.293-.6-.424,0-.018-.015,0-.015,0a8.455,8.455,0,0,0-5.571-1.488c-1.026.13-3.5.66-4.607,1.714a2.632,2.632,0,0,0-.225.217,1.562,1.562,0,0,0-.324.682c.04-.179.065-.377.089-.558A78.348,78.348,0,0,0,161.892,61.8a33.835,33.835,0,0,0-28.4-31.509,53.474,53.474,0,0,0-7.241-.643c-.714-.035-1.4-.041-2.1-.016-.319,0-.655.027-.991.041a3.094,3.094,0,0,0-.4.024c-.106.012-.213.021-.336.028-.382.028-.763.053-1.146.095a32.036,32.036,0,0,0-7.029,1.451A30.178,30.178,0,0,0,97.908,44a42.715,42.715,0,0,0-5.849,17.674,119.971,119.971,0,0,0-.47,19.03" transform="translate(43.785 14.184)" fill="#e8b47b"/>
            <path id="Trazado_655473" data-name="Trazado 655473" d="M103.812,72.53a1.313,1.313,0,0,1-.705-.177c-.55-.339-.692-1.023-.424-2.041l3.085-11.671a.356.356,0,0,1,.689.182l-3.085,11.671c-.1.38-.22,1.049.109,1.253a1.063,1.063,0,0,0,.634.05,10.188,10.188,0,0,0,4.221-1.539.356.356,0,1,1,.386.6,10.9,10.9,0,0,1-4.517,1.647,3.176,3.176,0,0,1-.393.028" transform="translate(49.11 27.955)" fill="#2d1026"/>
            <path id="Trazado_655474" data-name="Trazado 655474" d="M108.655,72.823a6.348,6.348,0,0,1-4.417-1.791.357.357,0,1,1,.5-.506,5.467,5.467,0,0,0,8.941-1.869.356.356,0,0,1,.663.259,6.24,6.24,0,0,1-4.484,3.783,5.779,5.779,0,0,1-1.205.124" transform="translate(49.867 32.77)" fill="#2d1026"/>
            <path id="Trazado_655475" data-name="Trazado 655475" d="M113.783,61.284a3.261,3.261,0,1,0,3.472-3.036,3.262,3.262,0,0,0-3.472,3.036" transform="translate(54.485 27.89)" fill="#2d1026"/>
            <path id="Trazado_655476" data-name="Trazado 655476" d="M96.05,60.8a3.261,3.261,0,1,0,3.472-3.033A3.261,3.261,0,0,0,96.05,60.8" transform="translate(45.993 27.66)" fill="#2d1026"/>
            <path id="Trazado_655477" data-name="Trazado 655477" d="M136.031,77.762a.346.346,0,0,0,.373-.254,29.58,29.58,0,0,1,2.767-7.214,12.342,12.342,0,0,1,5.382-5.139,7.452,7.452,0,0,1,7.032.348.345.345,0,1,0,.379-.577,8.136,8.136,0,0,0-7.69-.4,12.994,12.994,0,0,0-5.7,5.423,30.089,30.089,0,0,0-2.838,7.383.344.344,0,0,0,.243.423.356.356,0,0,0,.052.01" transform="translate(64.996 30.53)" fill="#2d1026"/>
            <g id="Grupo_995737" data-name="Grupo 995737" transform="translate(215.627 90.571)" opacity="0.27">
              <g id="Grupo_995736" data-name="Grupo 995736">
                <g id="Grupo_995735" data-name="Grupo 995735" clip-path="url(#clip-path-3)">
                  <path id="Trazado_655478" data-name="Trazado 655478" d="M145.8,61.611c.179.07.342.17.519.254,0-.213.006-.41.018-.623a1.856,1.856,0,0,0-.537.368" transform="translate(-145.804 -61.243)" fill="#2d1026"/>
                </g>
              </g>
            </g>
            <path id="Trazado_655479" data-name="Trazado 655479" d="M151.877,77.412a37.059,37.059,0,0,0-3.619,3.372,1.422,1.422,0,0,1-2.439-.918c-.08-1.451-.282-2.888-.9-3.548-1.684-1.792-4.514-1.574-6.952-1.89A13.865,13.865,0,0,1,126.544,64.1a22.6,22.6,0,0,1,.028-8.505c.356-2.337.757-4.993-.723-6.834-1.344-1.673-3.706-1.991-5.74-2.677a14.388,14.388,0,0,1-9.116-16.228c11.6-2.1,24.109-2.519,35.243,1.352A27.225,27.225,0,0,1,153,34.431a21.562,21.562,0,0,1,7.662,10.8,45.164,45.164,0,0,1,2.044,13.254A101.071,101.071,0,0,1,161.6,76.872a19.948,19.948,0,0,0-5.3-.939,6.245,6.245,0,0,0-4.419,1.479" transform="translate(53.007 13.541)" fill="#7e563c"/>
            <path id="Trazado_655480" data-name="Trazado 655480" d="M102.372,32.986a15.123,15.123,0,0,0-6.853,7.449,4.155,4.155,0,0,0,.046,3.848,3.344,3.344,0,0,0,3.051,1.193,9.881,9.881,0,0,0,3.236-1.093,13.756,13.756,0,0,0-1.328,5.757,3.965,3.965,0,0,0,1.307,3.434,3.492,3.492,0,0,0,2.415.4,12.316,12.316,0,0,0,5.873-2.961,37.131,37.131,0,0,0,11.269-15.431c.887-2.292,1.46-5.135-.126-7.014a5.175,5.175,0,0,0-4.863-1.435c-2.346.42-3.713,2-5.75,2.906-2.692,1.2-5.632,1.458-8.277,2.943" transform="translate(45.526 12.947)" fill="#7e563c"/>
            <path id="Trazado_655481" data-name="Trazado 655481" d="M94.178,54.869a1.969,1.969,0,0,0-.685,1.093,1,1,0,0,0,.654,1.046,2.657,2.657,0,0,0,.729.142,25.363,25.363,0,0,0,5.916-.142,7.43,7.43,0,0,0,2.731-.809,1.788,1.788,0,0,0,1.04-1.958c-.509-1.5-3.459-1.684-5.144-1.565a9.407,9.407,0,0,0-5.241,2.193" transform="translate(44.768 25.211)" fill="#7e563c"/>
            <path id="Trazado_655482" data-name="Trazado 655482" d="M122.969,54.422a1.968,1.968,0,0,1,.828.989,1,1,0,0,1-.5,1.125,2.671,2.671,0,0,1-.7.24,25.342,25.342,0,0,1-5.879.668,7.445,7.445,0,0,1-2.817-.429,1.788,1.788,0,0,1-1.3-1.8c.3-1.551,3.2-2.141,4.882-2.254a9.412,9.412,0,0,1,5.491,1.457" transform="translate(53.91 25.356)" fill="#7e563c"/>
            <path id="Trazado_655483" data-name="Trazado 655483" d="M137.776,89.31a1.417,1.417,0,0,1-1.324-1.2c-.54-3.54-1.547-14.185,5.66-15.043,7.171-.855,8.261,10.244,8.424,14.079a1.419,1.419,0,0,1-1.214,1.461l-2.146.319a1.42,1.42,0,0,1-1.621-1.222c-.356-2.723-1.306-8.2-3.03-6.395-1.477,1.545-1.293,4.577-.983,6.5a1.418,1.418,0,0,1-1.491,1.633Z" transform="translate(65.163 34.967)" fill="#5840e2"/>
            <path id="Trazado_655484" data-name="Trazado 655484" d="M220.2,252.711H68.021c-.089-5.649-.177-13.739-.237-23.144-.015-1.582-.015-3.209-.03-4.866v-.71c-.015-4.1-.03-8.385-.015-12.778.015-6.3.059-12.807.133-19.329v-.015c.192-15.691.636-31.352,1.479-43.745.089-1.449.192-2.839.311-4.185a.781.781,0,0,1,.015-.192c.163-1.952.325-3.8.518-5.531,0-.074.015-.133.015-.207.177-1.582.355-3.061.562-4.422.03-.251.059-.488.1-.725v-.015c.207-1.449.444-2.751.7-3.9a17.105,17.105,0,0,1,1.494-4.614l.015-.03a2.445,2.445,0,0,1,.547-.769c8.178-8,51.983-17.451,53.254-20.349.976-2.233,1.316-8.415,1.42-11.18a1.421,1.421,0,0,1,1.42-1.375h36.41a.72.72,0,0,1,.177.015,1.43,1.43,0,0,1,1.257,1.449c-.074,2.618-.1,8,.577,9.08.266.429,3.623,2.337,8.4,5.339,8.045,5.043,20.113,13.206,28.143,22.671,3.579,4.215,6.359,8.681,7.631,13.251,4.644,16.726,7.1,83.986,7.882,110.28" transform="translate(32.436 43.399)" fill="#5840e2"/>
            <path id="Trazado_655485" data-name="Trazado 655485" d="M106.728,110.666,10.752,171.742,28.2,213.548l87.979-41.08Z" transform="translate(5.149 52.996)" fill="#5840e2"/>
            <path id="Trazado_655486" data-name="Trazado 655486" d="M58.312,244.211c-8.163-5.087-20.261-12.985-29.563-19.891-5.916-4.392-10.692-8.385-12.6-11-6.551-8.977-7.025-25.451-7.764-40.728S6.936,136.963,11.3,126.063s12.112-15.277,12.112-15.277l.592-.03.059-.015,5.738-.34,1.893-.1,32.2-1.923s.251.577.68,1.568c.946,2.159,2.751,6.315,4.732,10.944.074.177.148.355.222.547a.443.443,0,0,1,.059.148c1.656,3.875,3.4,8.03,4.851,11.624A88.57,88.57,0,0,1,77.7,142.05c.237,1.08.71,3.4,1.287,6.374.015.089.044.192.059.281l.089.444c1.775,9.11,4.525,23.633,5.6,28.779a47.692,47.692,0,0,0,3.682,9.258c2.248,4.688,5.206,10.234,8,15.528,2.44,4.614,4.762,9.036,6.389,12.526,0,.015.015.015.015.03l.311.665c0,.015.015.03.015.044,1.8,3.978,2.884,11.742,3.5,19.906.207,2.78.37,5.59.488,8.326Z" transform="translate(3.754 51.899)" fill="#bdb2de"/>
            <path id="Trazado_655487" data-name="Trazado 655487" d="M55.56,110.432a112.255,112.255,0,0,1-13.4,5c-1.652.484-3.347.939-5.027,1.309-8.956,1.937-18.476-6.791-18.476-6.791l5.732-.314Z" transform="translate(8.935 52.502)" fill="#e8b47b"/>
            <path id="Trazado_655488" data-name="Trazado 655488" d="M53.7,110.432a112.255,112.255,0,0,1-13.4,5,42.553,42.553,0,0,1-8.473-1.34,26.857,26.857,0,0,1-9.2-4.385.5.5,0,0,0-.1-.071Z" transform="translate(10.792 52.502)" fill="#2d1026"/>
            <path id="Trazado_655489" data-name="Trazado 655489" d="M78.032,113.255c-2.326,19.12-24.58,19.4-39.415,18.354-2.246-.158-13.514.01-14.378-1.923-1.273-2.848-2.606-6.015-3.758-8.725-.145-.342.13.179-.027-.149A10.083,10.083,0,0,1,9.662,119a10.09,10.09,0,0,1-2.406-10.679,7.989,7.989,0,0,1,3.588-4.215,6.139,6.139,0,0,1,4.614-.626,3.064,3.064,0,0,1,.769.327A56.661,56.661,0,0,1,17.393,89.5a26.845,26.845,0,0,1,6.522-12.644,27.991,27.991,0,0,1,12.331-6.963c.855-.256,1.708-.47,2.578-.668a48.312,48.312,0,0,1,14.808-1.012,32.534,32.534,0,0,1,6.507,1.167,20.778,20.778,0,0,1,3.6,1.467,22.434,22.434,0,0,1,8.913,9.014,41.021,41.021,0,0,1,4.2,12.088,70.779,70.779,0,0,1,1.211,9.171,66.832,66.832,0,0,1-.034,12.134" transform="translate(3.175 32.581)" fill="#e8b47b"/>
            <path id="Trazado_655490" data-name="Trazado 655490" d="M34.258,93.37A3.272,3.272,0,1,1,30.987,90.1a3.272,3.272,0,0,1,3.271,3.271" transform="translate(13.272 43.147)" fill="#2d1026"/>
            <path id="Trazado_655491" data-name="Trazado 655491" d="M50.646,92.55a3.272,3.272,0,1,1-3.271-3.271,3.272,3.272,0,0,1,3.271,3.271" transform="translate(21.12 42.754)" fill="#2d1026"/>
            <path id="Trazado_655492" data-name="Trazado 655492" d="M26.723,88.346a1.373,1.373,0,0,0-.337.976c.105.713,1.006.961,1.726.952a8.3,8.3,0,0,0,3.926-1.043,3,3,0,0,0,1.1-.923,1.345,1.345,0,0,0,.108-1.372c-1.259-2.17-5.55.1-6.522,1.409" transform="translate(12.631 41.202)" fill="#ffcb7d"/>
            <path id="Trazado_655493" data-name="Trazado 655493" d="M51.064,86.657a1.365,1.365,0,0,1,.54.88c.053.717-.773,1.155-1.477,1.3a8.315,8.315,0,0,1-4.06-.167,2.985,2.985,0,0,1-1.272-.663,1.34,1.34,0,0,1-.4-1.316c.759-2.39,5.441-1.1,6.673-.038" transform="translate(21.235 40.868)" fill="#ffcb7d"/>
            <path id="Trazado_655494" data-name="Trazado 655494" d="M41.5,99.312a.357.357,0,0,1-.087-.7,1.881,1.881,0,0,0,1.149-1.778,3.754,3.754,0,0,0-2.178-3.563.356.356,0,1,1,.284-.652,4.482,4.482,0,0,1,2.6,4.259A2.546,2.546,0,0,1,41.585,99.3a.363.363,0,0,1-.087.012" transform="translate(19.235 44.339)" fill="#2d1026"/>
            <path id="Trazado_655495" data-name="Trazado 655495" d="M41.679,100.912a5.482,5.482,0,0,1-4.172-1.937.355.355,0,0,1,.546-.455,4.707,4.707,0,0,0,7.789-.865.356.356,0,1,1,.633.327,5.386,5.386,0,0,1-4.8,2.931" transform="translate(17.922 46.672)" fill="#2d1026"/>
            <path id="Trazado_655496" data-name="Trazado 655496" d="M61.111,100.684A10.642,10.642,0,0,1,57.394,95.3a26.615,26.615,0,0,1-1.48-10.607c-.03.583-6.365-2.365-6.863-2.706A16.964,16.964,0,0,1,44,76.351c-.754-1.368-2.677-5.112-1.68-6.679a1.774,1.774,0,0,1,.868-.726,20.777,20.777,0,0,1,3.6,1.467A22.439,22.439,0,0,1,55.7,79.425a41.081,41.081,0,0,1,4.2,12.088,71.065,71.065,0,0,1,1.21,9.171" transform="translate(20.13 33.017)" fill="#ffd357"/>
            <path id="Trazado_655497" data-name="Trazado 655497" d="M38.271,75.728a12.4,12.4,0,0,1-8.017,11.235,2.729,2.729,0,0,0-1.139.6,2.6,2.6,0,0,0-.427,1.609,17.131,17.131,0,0,1-9.925,14.125c-2.875,1.31-4.826.911-6.165-.413a3.018,3.018,0,0,1,.769.327A56.73,56.73,0,0,1,14.535,88.9a26.818,26.818,0,0,1,6.522-12.644,28,28,0,0,1,12.331-6.963,8.252,8.252,0,0,1,2.391,1.168,5.955,5.955,0,0,1,1.865,2.093,6.743,6.743,0,0,1,.627,3.175" transform="translate(6.033 33.183)" fill="#ffd357"/>
            <path id="Trazado_655498" data-name="Trazado 655498" d="M48.1,64.391a9.355,9.355,0,0,1-.379,12.051c-2.372,2.489-6.006,3.43-9.443,3.329a12.764,12.764,0,0,1-7.865-2.65,7.667,7.667,0,0,1-2.727-7.535,5.745,5.745,0,0,1,4.9-3.889,15.289,15.289,0,0,1,6.581.926,12.559,12.559,0,0,0,5.549.9c1.868-.291,3.549-1.247,3.381-3.131" transform="translate(13.162 30.836)" fill="#ffd357"/>
            <path id="Trazado_655499" data-name="Trazado 655499" d="M13.119,93.325s1.954,8.486,5.1,7.758,5.09-11.148,5.09-11.148Z" transform="translate(6.282 43.068)" fill="#ffd357"/>
            <path id="Trazado_655500" data-name="Trazado 655500" d="M56.148,119.777s17.572-8,18.056-6.423-4.484,5.938-4.484,5.938,12.846-2.3,13.331-1.211-8.6,4.846-8.6,4.846,9.815-.726,10.179.364-9.815,4.241-9.815,4.241,10.058-1.211,10.3.364-10.3,5.212-10.3,5.212,6.3.6,6.3,2.06-20.6,5.089-20.6,5.089Z" transform="translate(26.888 54.185)" fill="#e8b47b"/>
            <path id="Trazado_655501" data-name="Trazado 655501" d="M16.818,118.868S28.633,123.231,39.9,122.5c9.676-.624,30.741-5.535,36.506-6.912a1.418,1.418,0,0,1,1.729,1.159l3.79,23.575a1.417,1.417,0,0,1-.624,1.417c-3.85,2.52-21.555,13.4-39.4,12.754-20.176-.728-26.357-3.817-26.357-3.817Z" transform="translate(7.445 55.335)" fill="#bdb2de"/>
            <path id="Trazado_655502" data-name="Trazado 655502" d="M36.037,155.929q-.785,0-1.5-.044c-11.4-.726-18.622-4.732-18.693-4.772a.356.356,0,0,1,.349-.621c.071.04,7.161,3.969,18.388,4.682,11.285.732,35.447-7.417,39.82-9.42,4.614-2.116,6.892-3.506,7.86-4.8.912-1.3-2.866-20.661-3.989-23.965-.618-1.823-4.438-.717-7.8.26a32.647,32.647,0,0,1-4.049,1c-.728.1-2.387.386-4.682.775-9.682,1.642-29.828,5.061-34.147,4.314-5.271-.91-12.531-4.959-12.837-5.13a.356.356,0,0,1,.348-.621c.075.041,7.461,4.163,12.61,5.049,4.2.717,24.264-2.678,33.906-4.314,2.3-.39,3.965-.671,4.7-.776a32.209,32.209,0,0,0,3.952-.985c3.854-1.117,7.838-2.27,8.677.2.815,2.4,5.191,22.878,3.884,24.62-1.06,1.414-3.341,2.82-8.134,5.019-4.219,1.933-26.749,9.528-38.656,9.528" transform="translate(6.976 55.213)" fill="#2d1026"/>
            <path id="Trazado_655503" data-name="Trazado 655503" d="M96.991,187.668,96.059,210.5H40.024c-.148-.089-.311-.177-.473-.3a3.426,3.426,0,0,1-1.627-3.816s-3.283-1.272-6.374-2.189-4.363-5.812-4.363-5.812c-3.446-.37-6.167-6.551-6.359-7.454-.03-.133.606-.237,1.7-.325,6.211-.444,27.389-.044,27.389-.044s-17.273-9.273-16.9-11.447S67,185.656,71.362,186.2c1.952.237,7.365.562,12.689.843,2.159.118,4.3.222,6.2.311,3.86.192,6.744.311,6.744.311" transform="translate(9.974 85.609)" fill="#e8b47b"/>
            <path id="Trazado_655504" data-name="Trazado 655504" d="M138.812,127l-.177.813-1.287-1.908Z" transform="translate(65.773 60.294)" fill="#2d1026"/>
            <path id="Trazado_655505" data-name="Trazado 655505" d="M217.847,192.178s-.961,6.892-2.692,15.351c-2.026,9.953-5.117,22.094-8.947,27.67H63.408l.251-23.455.044-4.3v-.355l6.123-.4,6.389-.429,1.42-.089.148-.015,11.58-.754,17.48-1.154,17.273-1.139,33.378-2.2.976-4.333,2.47-11.032,1.937-8.592,2.337-10.47,4.363-19.4,4.289-19.122.177-.754,1.863,2.765,1.7,2.5v.015l1.449,2.159.592.887v.015l6.729,9.938v.015Z" transform="translate(30.365 60.912)" fill="#5840e2"/>
            <path id="Trazado_655506" data-name="Trazado 655506" d="M63.72,205.82a.355.355,0,0,1-.015-.71l106.944-4.352,8.688-69.862a.364.364,0,0,1,.4-.311.357.357,0,0,1,.309.4l-8.725,70.162a.358.358,0,0,1-.339.312L63.734,205.82Z" transform="translate(30.343 62.534)" fill="#fedede"/>
            <path id="Trazado_655507" data-name="Trazado 655507" d="M217.282,216.35H73.3c.562-2.706,1.227-5.516,2.011-8.326,2.056-7.542,4.851-15.011,8.577-20.438v-.015c.177-.251.34-.488.518-.725.074-.1.148-.192.222-.3a21.491,21.491,0,0,1,5-4.969,73.761,73.761,0,0,1,12.615-6.788,114,114,0,0,1,16.9-5.649c4.318-1.109,7.468-1.656,8.444-1.8.207-.044.325-.059.325-.059l28.291-.592,6.359-.133s.266.03.769.074c.887.089,2.485.281,4.585.577.237.044.473.074.71.1,1.745.281,3.8.621,6.019,1.065a98.793,98.793,0,0,1,16.608,4.7c6.625,2.558,12.778,6.108,16.386,10.914a27.434,27.434,0,0,1,2.78,4.688c3.638,7.527,5.694,18.175,6.862,27.67" transform="translate(35.101 79.76)" fill="#fedede"/>
            <path id="Trazado_655508" data-name="Trazado 655508" d="M120.927,109.27a33.808,33.808,0,0,0-11.449,1.679,16.947,16.947,0,0,0-8.975,7.025,13.484,13.484,0,0,0-1.846,6.9,3,3,0,0,1-.179,1.359,2.733,2.733,0,0,1-.5.643,27.114,27.114,0,0,0-6.566,10.362,14.284,14.284,0,0,0,1.242,11.917,13.239,13.239,0,0,0,11.163,5.611,18.436,18.436,0,0,0,11.787-4.88,30.775,30.775,0,0,0,7.4-10.609,46.627,46.627,0,0,0,4.027-17.383c.133-3.833-.268-7.856-2.331-11.089a6.888,6.888,0,0,0-1-1.269Z" transform="translate(43.42 52.327)" fill="#ffd357"/>
            <path id="Trazado_655509" data-name="Trazado 655509" d="M110.955,158.657,110.3,169.1l-.291,4.57s1.738,11.6,14.147,13.51c12.429,1.894,21.513-13.063,21.513-13.063l1.5-20.781-9.9,1.457Z" transform="translate(52.679 73.428)" fill="#e8b47b"/>
            <path id="Trazado_655510" data-name="Trazado 655510" d="M110.861,158.185l-.66,10.441a3.917,3.917,0,0,0,.562.387,11.144,11.144,0,0,0,5.3,1.219,33.947,33.947,0,0,0,13.374-1.948c3.492-1.343,8.471-4.055,10.062-7.693,1.072-2.493-.309-4.679-2.334-6.273Z" transform="translate(52.773 73.9)" fill="#2d1026"/>
            <path id="Trazado_655511" data-name="Trazado 655511" d="M97,153.422c-.314,7.1-1.96,18.022,4.669,26.3,9.891,12.349,49.534,4.944,49.534,4.944a74.347,74.347,0,0,1,2.388-10.414c-.163,1,8.2,1.331,9.021,1.182a13.24,13.24,0,0,0,7.016-3.585c3.907-3.869,4.684-10.342,1.229-14.74-1.608-2.051-4.156-3.7-6.8-3.592a8.8,8.8,0,0,0-4.277,1.208,1.389,1.389,0,0,0-.55.769A73.039,73.039,0,0,0,161.7,141.4a30.593,30.593,0,0,0-23.352-30.415,47.772,47.772,0,0,0-6.48-1.108c-.639-.077-1.254-.138-1.889-.163-.3-.022-.6-.019-.9-.028a3,3,0,0,0-.362-.007c-.1,0-.2.006-.3,0-.35-.006-.7-.01-1.051,0A27.636,27.636,0,0,0,105.3,120.8a38.607,38.607,0,0,0-6.525,15.515A108.09,108.09,0,0,0,97,153.422" transform="translate(46.256 52.521)" fill="#e8b47b"/>
            <path id="Trazado_655512" data-name="Trazado 655512" d="M99.342,131.727c.374.7,1.554.991,2.61,1.086a15.692,15.692,0,0,0,3.881-.133,4.937,4.937,0,0,0,1.889-.614c1.989-1.313-.2-3.446-2.5-3.375-1.93.058-6.9,1.122-5.876,3.036" transform="translate(47.508 61.626)" fill="#ffd357"/>
            <path id="Trazado_655513" data-name="Trazado 655513" d="M126.157,134.783c-.456.649-1.662.8-2.723.763a15.573,15.573,0,0,1-3.835-.6,4.935,4.935,0,0,1-1.8-.837c-1.816-1.542.612-3.4,2.894-3.049,1.908.291,6.71,1.946,5.466,3.722" transform="translate(56.106 62.742)" fill="#ffd357"/>
            <path id="Trazado_655514" data-name="Trazado 655514" d="M109.249,147.044a.354.354,0,0,1-.138-.03,2.448,2.448,0,0,0-.8-.124,2.541,2.541,0,0,1-1.2-.263,1.877,1.877,0,0,1-.771-2,4.489,4.489,0,0,1,.917-1.764c.908-1.23,1.881-2.428,2.888-3.56a.356.356,0,1,1,.531.473c-.992,1.115-1.951,2.3-2.848,3.509a3.982,3.982,0,0,0-.791,1.482,1.194,1.194,0,0,0,.432,1.248,2,2,0,0,0,.876.169,2.963,2.963,0,0,1,1.035.179.356.356,0,0,1-.138.685" transform="translate(50.907 66.651)" fill="#2d1026"/>
            <path id="Trazado_655515" data-name="Trazado 655515" d="M110.738,148.642a5.955,5.955,0,0,1-3.5-1.133.356.356,0,0,1,.421-.574,5.142,5.142,0,0,0,7.526-1.622.356.356,0,0,1,.621.349,5.934,5.934,0,0,1-3.869,2.853,5.679,5.679,0,0,1-1.2.127" transform="translate(51.287 69.501)" fill="#2d1026"/>
            <path id="Trazado_655516" data-name="Trazado 655516" d="M116.408,139.417a3.478,3.478,0,1,0,3.879-3.024,3.478,3.478,0,0,0-3.879,3.024" transform="translate(55.732 65.303)" fill="#2d1026"/>
            <path id="Trazado_655517" data-name="Trazado 655517" d="M99.513,138.026A3.478,3.478,0,1,0,103.392,135a3.478,3.478,0,0,0-3.879,3.024" transform="translate(47.642 64.637)" fill="#2d1026"/>
            <path id="Trazado_655518" data-name="Trazado 655518" d="M136.312,154.409a.311.311,0,0,0,.353-.2,26.77,26.77,0,0,1,3.008-6.3,11.141,11.141,0,0,1,5.215-4.247,6.732,6.732,0,0,1,6.313.813.313.313,0,0,0,.383-.494,7.361,7.361,0,0,0-6.9-.91,11.764,11.764,0,0,0-5.521,4.481A27.181,27.181,0,0,0,136.077,154a.311.311,0,0,0,.189.4.272.272,0,0,0,.046.013" transform="translate(65.156 68.289)" fill="#2d1026"/>
            <path id="Trazado_655519" data-name="Trazado 655519" d="M166.7,157.526c.05-.417-1.257-1.128-1.526-1.39-1.713-1.673-3.994-1.8-6.226-1.091a5.874,5.874,0,0,0-3.847,3.524c-.127.272-1.581,3.536-1.516,3.566-2.039-.915-3.27-4.506-3.625-6.713a18.7,18.7,0,0,1,.487-6.652c-3.02.071-6.245-.284-8.6-2.174-2.375-1.9-3.43-5.049-3.666-8.084s.22-6.078.28-9.122a1.521,1.521,0,0,0-.432-1.334,1.269,1.269,0,0,0-.793-.166,10.265,10.265,0,0,0-3.771,1.421,14.043,14.043,0,0,1-19.316-8.109c-.521-1.511-.825-3.188-1.937-4.339-2.036-2.1-5.522-1.356-8.28-.373,11.97-8.446,27.957-11.62,41.491-6.012a34.1,34.1,0,0,1,15.219,11.8c3.4,4.953,5.1,10.893,5.958,16.839a72.175,72.175,0,0,1,.1,18.412" transform="translate(49.769 51.56)" fill="#ffd357"/>
            <path id="Trazado_655520" data-name="Trazado 655520" d="M143.934,102.781a13.571,13.571,0,0,1,8.107-2.011,9.6,9.6,0,0,1,8.134,8.134,30.657,30.657,0,0,1,7.079-.552,10.308,10.308,0,0,1,6.457,2.631,9.579,9.579,0,0,1,2.473,7.99,17.663,17.663,0,0,1-3.388,7.879c3.193,1.983,6.359,4.956,6.338,8.714a8.343,8.343,0,0,1-2.739,5.79,18.854,18.854,0,0,1-5.562,3.45,35.216,35.216,0,0,1-11.262,3.1,21.375,21.375,0,0,1-11.41-2.01,28.8,28.8,0,0,1-8.816-7.675,52.594,52.594,0,0,1-5.235-7.454c-1.261-2.214-3.222-5.359-3.052-8.005a28.169,28.169,0,0,1,1.977-7.028,25.084,25.084,0,0,1,3.98-7.047,23.969,23.969,0,0,1,6.918-5.907" transform="translate(62.757 48.224)" fill="#ffd357"/>
            <path id="Trazado_655521" data-name="Trazado 655521" d="M181.013,215.761h-88.9q.688-14.73.946-29.518c.015-.237.015-.473.015-.71s.015-.473.015-.725q.089-5.28.133-10.6a114,114,0,0,1,16.9-5.649,128.629,128.629,0,0,0,.237,15.1v.015c.03.384.059.784.1,1.168.015.237.03.458.059.7a19.075,19.075,0,0,0,2.1,7.616c2.839,5,8.785,7.32,14.419,8.415a56.968,56.968,0,0,0,19.462.311,17.286,17.286,0,0,0,5.738-1.716c3.49-1.893,5.575-5.546,7.217-9.169a73.862,73.862,0,0,0,6.167-23.2,98.8,98.8,0,0,1,16.608,4.7,422.473,422.473,0,0,0-1.227,43.272" transform="translate(44.113 80.349)" fill="#f46464"/>
            <path id="Trazado_655522" data-name="Trazado 655522" d="M73.414,65.005c-.157.225-.315.45-.484.665-3.412,4.556-7.794,7.8-13.13,6.333-5.522-1.511-8.594-6.9-10.275-12.881-.071-.234-.142-.467-.2-.723A68.984,68.984,0,0,1,47.56,39.477l5.028,1.164.658.16,7.039,1.639.67.167,4.536,1.054.677.157,6.1,1.417.658.16,6,1.4.677.155,1.755.411s-2.733,10.274-7.953,17.647" transform="translate(22.743 18.905)" fill="#ff7373"/>
            <path id="Trazado_655523" data-name="Trazado 655523" d="M72.819,59.275c-.157.225-.315.45-.484.665a6.57,6.57,0,0,0-.291-.707c-1.238-2.508-4.706-3.818-7.717-2.916a10.7,10.7,0,0,0-6.387,6.171.328.328,0,0,1-.389.2.39.39,0,0,1-.117-.049.356.356,0,0,1-.143-.319,19.544,19.544,0,0,0-.081-5.33,6.438,6.438,0,0,0-2.675-4.255,4.64,4.64,0,0,0-3.842-.349,4.913,4.913,0,0,0-1.761,1.009c-.071-.234-.142-.467-.2-.723a5.519,5.519,0,0,1,1.745-.936c.149-.046.3-.092.46-.13a4.35,4.35,0,0,1,.688-.121,5.1,5.1,0,0,1,3.267.667,5.508,5.508,0,0,1,1.383,1.2,4.715,4.715,0,0,1,.522.735,8,8,0,0,1,1.077,2.764,16.076,16.076,0,0,1,.217,3.869,11.728,11.728,0,0,1,1.723-2.291,8.309,8.309,0,0,1,.98-.92L60.8,57.5a9.265,9.265,0,0,1,3.33-1.835A7.745,7.745,0,0,1,66,55.346a4.869,4.869,0,0,1,.748.006,7.285,7.285,0,0,1,4.128,1.47,3.6,3.6,0,0,1,.518.43,5.988,5.988,0,0,1,1.269,1.677c.05.118.121.235.16.346" transform="translate(23.338 24.635)" fill="#2d1026"/>
            <path id="Trazado_655524" data-name="Trazado 655524" d="M50.589,57.268a.4.4,0,0,1-.207-.062.316.316,0,0,1-.143-.25l0-.019a91.507,91.507,0,0,1,1.057-16.673l.658.16a91.176,91.176,0,0,0-1.025,16.411c0,.031,0,.049-.006.08a.346.346,0,0,1-.331.353" transform="translate(24.039 19.282)" fill="#2d1026"/>
            <path id="Trazado_655525" data-name="Trazado 655525" d="M54.417,58.836l-.016.022a.352.352,0,0,1-.389.245.629.629,0,0,1-.129-.056.337.337,0,0,1-.132-.361c.046-.185.081-.379.127-.563,1.236-5.512,2.38-11.108,3.415-16.643l.67.167c-1.063,5.719-2.26,11.51-3.546,17.189" transform="translate(25.736 19.864)" fill="#2d1026"/>
            <path id="Trazado_655526" data-name="Trazado 655526" d="M56.891,62.866a.346.346,0,0,1-.435.214c-.022-.016-.064-.028-.086-.044a.343.343,0,0,1-.14-.231.241.241,0,0,1,.012-.16,133.71,133.71,0,0,0,5.07-20.341l.677.157a135.556,135.556,0,0,1-4.769,19.412l-.009.01c-.1.333-.209.658-.319.982" transform="translate(26.923 20.259)" fill="#2d1026"/>
            <path id="Trazado_655527" data-name="Trazado 655527" d="M61.037,59.527a.348.348,0,0,1-.45.188l-.056-.04a.353.353,0,0,1-.13-.41c.007-.012.012-.041.019-.053A136.332,136.332,0,0,0,66.1,43.37l.658.161a139.962,139.962,0,0,1-5.59,15.686c-.041.106-.093.2-.133.309" transform="translate(28.915 20.769)" fill="#2d1026"/>
            <path id="Trazado_655528" data-name="Trazado 655528" d="M64.3,60.555a.174.174,0,0,1-.059.059.326.326,0,0,1-.416.044l-.01-.009a.343.343,0,0,1-.1-.454l.009-.012a80.387,80.387,0,0,0,7.468-15.76l.676.155A80.747,80.747,0,0,1,64.3,60.555" transform="translate(30.489 21.273)" fill="#2d1026"/>
            <path id="Trazado_655529" data-name="Trazado 655529" d="M57.711,66.01a13.3,13.3,0,0,0-10.67-7.959,19.321,19.321,0,0,0,3.878,6.427,6.3,6.3,0,0,0,6.792,1.532" transform="translate(22.527 27.799)" fill="#925cd5"/>
            <path id="Trazado_655530" data-name="Trazado 655530" d="M56.26,65.463A13.3,13.3,0,0,1,69.134,62.08a19.3,19.3,0,0,1-6,4.506,6.3,6.3,0,0,1-6.872-1.124" transform="translate(26.942 29.499)" fill="#925cd5"/>
            <path id="Trazado_655531" data-name="Trazado 655531" d="M118.045,8.98l-3.861,1.492a6.339,6.339,0,0,0-3.625,3.626l-1.494,3.861L107.573,14.1a6.345,6.345,0,0,0-3.626-3.626L100.085,8.98l3.861-1.492a6.345,6.345,0,0,0,3.626-3.626L109.065,0l1.494,3.861a6.339,6.339,0,0,0,3.625,3.626Z" transform="translate(47.929)" fill="#fff"/>
            <path id="Trazado_655532" data-name="Trazado 655532" d="M185.875,104.725l-3.86,1.494a6.327,6.327,0,0,0-3.628,3.626l-1.494,3.86-1.492-3.86a6.337,6.337,0,0,0-3.626-3.626l-3.861-1.494,3.861-1.492a6.345,6.345,0,0,0,3.626-3.626l1.492-3.861,1.494,3.861a6.335,6.335,0,0,0,3.628,3.626Z" transform="translate(80.411 45.85)" fill="#fff"/>
            <path id="Trazado_655533" data-name="Trazado 655533" d="M187.094,186.183l-3.86,1.492a6.337,6.337,0,0,0-3.626,3.626l-1.494,3.861-1.492-3.861A6.345,6.345,0,0,0,173,187.675l-3.861-1.492L173,184.691a6.345,6.345,0,0,0,3.626-3.626l1.492-3.861,1.494,3.861a6.337,6.337,0,0,0,3.626,3.626Z" transform="translate(80.995 84.859)" fill="#fff"/>
            <path id="Trazado_655534" data-name="Trazado 655534" d="M17.96,149.746,14.1,151.239a6.332,6.332,0,0,0-3.625,3.625L8.98,158.726l-1.492-3.861a6.338,6.338,0,0,0-3.626-3.625L0,149.746l3.861-1.492a6.345,6.345,0,0,0,3.626-3.626l1.492-3.861,1.494,3.861a6.338,6.338,0,0,0,3.625,3.626Z" transform="translate(0 67.41)" fill="#fff"/>
            <path id="Trazado_655535" data-name="Trazado 655535" d="M31.151,55.193l-3.861,1.494a6.33,6.33,0,0,0-3.625,3.626l-1.494,3.86-1.492-3.86a6.337,6.337,0,0,0-3.626-3.626l-3.861-1.494L17.052,53.7a6.345,6.345,0,0,0,3.626-3.626l1.492-3.861,1.494,3.861A6.339,6.339,0,0,0,27.289,53.7Z" transform="translate(6.317 22.13)" fill="#fff"/>
            <path id="Trazado_655536" data-name="Trazado 655536" d="M97.222,94.245,93.36,95.737a6.338,6.338,0,0,0-3.625,3.626l-1.494,3.861L86.75,99.363a6.345,6.345,0,0,0-3.626-3.626l-3.861-1.492,3.861-1.492a6.345,6.345,0,0,0,3.626-3.626l1.492-3.861,1.494,3.861a6.339,6.339,0,0,0,3.625,3.626Z" transform="translate(37.957 40.832)" fill="#fff"/>
          </g>
        </g>
      </g>
    </g>
  </g>
</svg>
