<svg xmlns="http://www.w3.org/2000/svg" xmlns:xlink="http://www.w3.org/1999/xlink" width="75.203" height="75.203" viewBox="0 0 75.203 75.203">
  <defs>
    <clipPath id="clip-path">
      <rect id="Rectángulo_309970" data-name="Rectángulo 309970" width="52" height="47.895" fill="none"/>
    </clipPath>
  </defs>
  <g id="Grupo_1071682" data-name="Grupo 1071682" transform="translate(-944.797 -1955.538)">
    <g id="Grupo_1071681" data-name="Grupo 1071681" transform="translate(763.797 1452.538)">
      <circle id="Elipse_8159" data-name="Elipse 8159" cx="37.602" cy="37.602" r="37.602" transform="translate(181 503)" fill="#ffd357"/>
    </g>
    <g id="Grupo_1071680" data-name="Grupo 1071680" transform="translate(958 1969.192)">
      <g id="Grupo_995763" data-name="Grupo 995763" clip-path="url(#clip-path)">
        <path id="Trazado_655763" data-name="Trazado 655763" d="M60.056,121.271c.115.434.211.772.295,1.114a1.059,1.059,0,0,1-1.082,1.473,8.017,8.017,0,0,1-7.515-4c-.065-.11-.127-.222-.212-.372-2.476,4.384-6.128,6.886-11.171,6.892s-8.71-2.48-11.187-6.843c-.167.056-.185.244-.267.374a7.917,7.917,0,0,1-7.444,3.945c-.97-.035-1.354-.589-1.114-1.529.082-.323.173-.643.27-1.006a4.874,4.874,0,0,0-1.158.249,1.021,1.021,0,0,1-1.4-.944,8,8,0,0,1,6.178-8.528,7.54,7.54,0,0,1,3.272-.053c.373.082.387-.057.38-.344a13.659,13.659,0,0,1,.663-4.744,12.449,12.449,0,0,1,24.146,2.622,20.954,20.954,0,0,1,.079,2.18c0,.255.033.348.338.3a7.965,7.965,0,0,1,9.41,6.458,6.448,6.448,0,0,1,.088,2.071,1.02,1.02,0,0,1-1.409.98c-.357-.089-.713-.18-1.164-.294m-30.121-7.247c.017.3.033.693.063,1.081a4.867,4.867,0,0,0,.084.551,10.029,10.029,0,0,0,7.321,8.264,9.938,9.938,0,0,0,10.735-3.072,10.668,10.668,0,0,0,2.632-8.12c-.015-.307-.193-.3-.4-.318a15.913,15.913,0,0,1-9.636-4.272c-.265-.244-.387-.18-.6.031a14.251,14.251,0,0,1-2.673,2.087,14.9,14.9,0,0,1-7.088,2.193c-.343.018-.479.117-.444.474.033.335.007.676.007,1.1m10.509-13.459a10.326,10.326,0,0,0-8.072,3.736A10.153,10.153,0,0,0,30,109.808c-.078.645-.065.636.573.592a12.255,12.255,0,0,0,4.441-1.145,12.987,12.987,0,0,0,7.076-8.066c.127-.392.029-.514-.341-.535-.456-.026-.911-.062-1.305-.089m10.285,9.57a10.489,10.489,0,0,0-6.178-8.685c-.258-.12-.393-.147-.492.2a14.2,14.2,0,0,1-2.127,4.405c-.156.218-.13.343.06.5.379.311.735.651,1.123.95a14.03,14.03,0,0,0,7.054,2.852c.237.028.643.2.56-.223m1.995,5.828a5.753,5.753,0,0,0,1.261,3.58,5.905,5.905,0,0,0,3.5,2.177c.561.123.6.082.456-.458-.093-.359-.2-.716-.283-1.077a1.019,1.019,0,0,1,1.317-1.315c.393.1.786.2,1.172.318s.462-.023.4-.384a5.93,5.93,0,0,0-5.859-4.858c-1.942.047-1.847-.032-1.959,2.017m-24.754-.188a9.751,9.751,0,0,0-.1-1.069.678.678,0,0,0-.658-.672,6.02,6.02,0,0,0-7.059,4.78c-.081.381.037.487.408.371.386-.121.779-.22,1.172-.318a1.018,1.018,0,0,1,1.318,1.28c-.082.362-.191.717-.285,1.076-.152.581-.119.615.459.5a5.984,5.984,0,0,0,4.741-5.944" transform="translate(-14.35 -78.487)" fill="#020203"/>
        <path id="Trazado_655764" data-name="Trazado 655764" d="M1.007,12.94c-.629-.13-.953-.412-1-.909a1.058,1.058,0,0,1,.713-1.1Q11.438,5.677,22.148.411a3.24,3.24,0,0,1,3.617.305.314.314,0,0,0,.468,0A3.232,3.232,0,0,1,29.85.411q3.131,1.539,6.266,3.073c.685.337.841.709.652,1.487a1.1,1.1,0,0,1-1.6.312q-3.069-1.5-6.135-3.01a1.431,1.431,0,0,0-1.067-.2,1.208,1.208,0,0,0-.934,1.024,1.193,1.193,0,0,0,.64,1.274q2.542,1.473,5.087,2.94,3.729,2.153,7.459,4.3a1.2,1.2,0,0,1,.712.8.968.968,0,0,1-.389,1.029,1.032,1.032,0,0,1-1.191.014q-2.7-1.556-5.4-3.115a1.553,1.553,0,0,0-1.155-.26,1.351,1.351,0,0,0-1.061,1.158,1.335,1.335,0,0,0,.729,1.391q2.322,1.347,4.651,2.683a1.417,1.417,0,0,1,.7.879,5.747,5.747,0,0,0,1.53,2.589,8.5,8.5,0,0,0,6.507,2.275,28.671,28.671,0,0,0,5.129-1.152c.139.152.355.062.516.174a1.009,1.009,0,0,1,.493.939.892.892,0,0,1-.614.856c-2.905.868-5.808,1.754-8.892.875-3.006-.857-5.347-2.473-6.462-5.526a.845.845,0,0,0-.442-.451c-1.273-.733-2.515-1.527-3.826-2.185a3.48,3.48,0,0,1-.716-5.922c-.385-.224-.757-.432-1.122-.653-1.255-.761-2.58-1.4-3.783-2.254a.193.193,0,0,0-.265-.007c-1.554,1.082-3.272,1.892-4.9,2.93a3.573,3.573,0,0,1,1.285,2.159,3.332,3.332,0,0,1-1.624,3.5c-1.405.841-2.83,1.647-4.25,2.465a.784.784,0,0,0-.4.419c-1.118,3.05-3.447,4.7-6.462,5.524a11.859,11.859,0,0,1-6.65-.236c-.6-.178-1.2-.327-1.809-.485C.342,21.835.011,21.509,0,20.974s.289-.849,1.014-1.068c1.061.281,2.122.558,3.182.843a9.027,9.027,0,0,0,4.664.061c2.6-.669,4.576-2.052,5.365-4.766a1.258,1.258,0,0,1,.662-.729c1.51-.864,3.012-1.742,4.521-2.608a1.606,1.606,0,0,0,.785-.826,1.352,1.352,0,0,0-.376-1.48,1.338,1.338,0,0,0-1.647-.128c-1.262.718-2.516,1.452-3.774,2.178-.615.354-1.223.719-1.848,1.054a1.008,1.008,0,0,1-1.369-1.382,1.473,1.473,0,0,1,.655-.541l9.128-5.267c1.127-.65,2.255-1.3,3.377-1.954a1.188,1.188,0,0,0,.624-1.282,1.207,1.207,0,0,0-.947-1.013,1.525,1.525,0,0,0-1.11.24Q12.384,7.471,1.859,12.632a2.643,2.643,0,0,1-.852.308" transform="translate(-0.001 0)" fill="#030303"/>
        <path id="Trazado_655765" data-name="Trazado 655765" d="M156.729,27.85A28.671,28.671,0,0,1,151.6,29a8.5,8.5,0,0,1-6.507-2.275,5.748,5.748,0,0,1-1.53-2.589,1.416,1.416,0,0,0-.7-.879q-2.331-1.331-4.651-2.683a1.335,1.335,0,0,1-.729-1.391,1.351,1.351,0,0,1,1.06-1.158,1.553,1.553,0,0,1,1.155.26q2.7,1.562,5.4,3.115a1.031,1.031,0,0,0,1.191-.014.968.968,0,0,0,.389-1.029,1.2,1.2,0,0,0-.712-.8q-3.731-2.149-7.459-4.3-2.544-1.469-5.087-2.94a1.193,1.193,0,0,1-.64-1.274,1.208,1.208,0,0,1,.934-1.024,1.432,1.432,0,0,1,1.067.2q3.067,1.507,6.135,3.01a1.1,1.1,0,0,0,1.6-.312l2.275,1.054c-.184.714-.016,1.17.515,1.4.506.222.955.046,1.355-.531a14.039,14.039,0,0,0,2.238,1.127,1.064,1.064,0,0,0,.674,1.509q3.223,1.585,6.447,3.166a2.454,2.454,0,0,0,.714.242q0,3.482,0,6.965" transform="translate(-105.747 -7.944)" fill="#ebc8a9"/>
        <path id="Trazado_655766" data-name="Trazado 655766" d="M4.947,20.887A2.643,2.643,0,0,0,5.8,20.58q10.523-5.164,21.047-10.326a1.525,1.525,0,0,1,1.11-.24,1.207,1.207,0,0,1,.947,1.013,1.188,1.188,0,0,1-.624,1.282c-1.123.657-2.251,1.3-3.377,1.954l-9.128,5.267a1.473,1.473,0,0,0-.655.541,1.008,1.008,0,0,0,1.369,1.382c.625-.335,1.234-.7,1.848-1.054,1.258-.726,2.512-1.46,3.774-2.178a1.338,1.338,0,0,1,1.647.128,1.352,1.352,0,0,1,.376,1.48,1.606,1.606,0,0,1-.785.826c-1.509.866-3.011,1.743-4.521,2.608a1.258,1.258,0,0,0-.662.729c-.789,2.714-2.767,4.1-5.365,4.766A9.027,9.027,0,0,1,8.137,28.7c-1.06-.285-2.121-.562-3.182-.843q0-3.483-.008-6.966" transform="translate(-3.94 -7.947)" fill="#ebc8a8"/>
        <path id="Trazado_655767" data-name="Trazado 655767" d="M219.516,42.307a2.453,2.453,0,0,1-.714-.241q-3.222-1.587-6.447-3.166a1.039,1.039,0,1,1,.876-1.83q3.27,1.6,6.535,3.2c.574.282.815.656.755,1.132-.063.5-.373.775-1,.9" transform="translate(-168.53 -29.366)" fill="#040303"/>
        <path id="Trazado_655768" data-name="Trazado 655768" d="M193.449,28.36c-.4.576-.849.752-1.355.531-.531-.233-.7-.689-.515-1.4.441-.523.835-.657,1.313-.447s.65.6.557,1.319" transform="translate(-152.537 -21.463)" fill="#060505"/>
        <path id="Trazado_655769" data-name="Trazado 655769" d="M76.533,150.986c0-.423.026-.764-.007-1.1-.035-.357.1-.456.444-.474a14.9,14.9,0,0,0,7.088-2.193,14.249,14.249,0,0,0,2.673-2.087c.211-.211.334-.276.6-.031a15.915,15.915,0,0,0,9.636,4.272c.209.019.387.012.4.318a10.666,10.666,0,0,1-2.632,8.12,10.413,10.413,0,0,1-18.056-5.192,4.884,4.884,0,0,1-.084-.551c-.03-.388-.046-.777-.063-1.081m10.389,6.988a4.082,4.082,0,0,0,2.782-1.1,1.015,1.015,0,1,0-1.336-1.526,1.989,1.989,0,0,1-2.833,0,1.018,1.018,0,1,0-1.312,1.549,4.075,4.075,0,0,0,2.7,1.075m-3.352-4.831a1.006,1.006,0,0,0,1.032-1.013,1.037,1.037,0,0,0-1-1,1.019,1.019,0,0,0-1.024,1.026.989.989,0,0,0,.995.991m6.742,0a.989.989,0,0,0,1.008-.977,1.02,1.02,0,0,0-1.01-1.04,1.035,1.035,0,0,0-1.016.99,1.006,1.006,0,0,0,1.018,1.026" transform="translate(-60.949 -115.449)" fill="#f7dbd4"/>
        <path id="Trazado_655770" data-name="Trazado 655770" d="M87.221,108.494c.394.027.849.063,1.305.089.371.021.468.143.341.535a12.988,12.988,0,0,1-7.076,8.066,12.256,12.256,0,0,1-4.441,1.144c-.638.044-.651.053-.573-.592a10.152,10.152,0,0,1,2.371-5.507,10.325,10.325,0,0,1,8.072-3.737" transform="translate(-61.127 -86.416)" fill="#7390a7"/>
        <path id="Trazado_655771" data-name="Trazado 655771" d="M143.935,121.212c.082.422-.324.251-.56.223a14.032,14.032,0,0,1-7.054-2.851c-.388-.3-.744-.639-1.123-.95-.19-.156-.216-.281-.06-.5a14.194,14.194,0,0,0,2.127-4.405c.1-.349.234-.321.492-.2a10.49,10.49,0,0,1,6.178,8.685" transform="translate(-107.557 -89.564)" fill="#738fa7"/>
        <path id="Trazado_655772" data-name="Trazado 655772" d="M188.571,176.265c.112-2.049.018-1.97,1.959-2.017a5.93,5.93,0,0,1,5.859,4.858c.064.361,0,.508-.4.384s-.78-.22-1.172-.318a1.019,1.019,0,0,0-1.317,1.315c.087.361.189.718.282,1.077.14.54.1.581-.456.458a5.906,5.906,0,0,1-3.5-2.177,5.754,5.754,0,0,1-1.261-3.58" transform="translate(-150.198 -138.788)" fill="#738fa7"/>
        <path id="Trazado_655773" data-name="Trazado 655773" d="M36.246,176.007a5.984,5.984,0,0,1-4.741,5.944c-.578.12-.611.085-.459-.5.094-.359.2-.714.285-1.076a1.018,1.018,0,0,0-1.318-1.28c-.393.1-.786.2-1.172.318-.371.116-.489.01-.408-.371a6.02,6.02,0,0,1,7.059-4.78.678.678,0,0,1,.658.672,9.752,9.752,0,0,1,.1,1.069" transform="translate(-22.627 -138.718)" fill="#738fa7"/>
        <path id="Trazado_655774" data-name="Trazado 655774" d="M115.417,197.555a4.075,4.075,0,0,1-2.7-1.075,1.018,1.018,0,1,1,1.312-1.549,1.989,1.989,0,0,0,2.833,0,1.015,1.015,0,1,1,1.336,1.526,4.083,4.083,0,0,1-2.782,1.1" transform="translate(-89.444 -155.029)" fill="#040404"/>
        <path id="Trazado_655775" data-name="Trazado 655775" d="M107.268,177.342a.989.989,0,0,1-.995-.991,1.019,1.019,0,0,1,1.024-1.026,1.037,1.037,0,0,1,1,1,1.006,1.006,0,0,1-1.032,1.013" transform="translate(-84.647 -139.648)" fill="#060505"/>
        <path id="Trazado_655776" data-name="Trazado 655776" d="M140.306,177.342a1.006,1.006,0,0,1-1.018-1.026,1.035,1.035,0,0,1,1.016-.99,1.02,1.02,0,0,1,1.01,1.04.989.989,0,0,1-1.008.977" transform="translate(-110.944 -139.648)" fill="#060505"/>
      </g>
    </g>
  </g>
</svg>
