<svg xmlns="http://www.w3.org/2000/svg" xmlns:xlink="http://www.w3.org/1999/xlink" width="92" height="92" viewBox="0 0 92 92">
  <defs>
    <clipPath id="clip-path">
      <rect id="Rect치ngulo_309965" data-name="Rect치ngulo 309965" width="72.839" height="72.878" fill="none"/>
    </clipPath>
  </defs>
  <g id="Grupo_1071684" data-name="Grupo 1071684" transform="translate(101 7967)">
    <rect id="Rect치ngulo_309963" data-name="Rect치ngulo 309963" width="92" height="92" transform="translate(-101 -7967)" fill="none"/>
    <g id="Grupo_995754" data-name="Grupo 995754" transform="translate(-91.419 -7957.439)">
      <g id="Grupo_995751" data-name="Grupo 995751" clip-path="url(#clip-path)">
        <path id="Trazado_655613" data-name="Trazado 655613" d="M29,36.566c-1.571-1.9-3.15-3.8-4.705-5.711-.233-.287-.5-.253-.782-.253q-5.723,0-11.446,0a4.694,4.694,0,0,1-5.046-5.027q-.015-9.06,0-18.12A4.689,4.689,0,0,1,12.06,2.427q14.967,0,29.935-.006a4.652,4.652,0,0,1,2.462.573.6.6,0,0,0,.774-.083c8.615-6.23,24.6-2.52,27.319,11.7a32.119,32.119,0,0,1,.276,5.85c.011,1.614-.014,3.228.013,4.841.007.458-.085.63-.588.613-1.2-.041-2.4,0-3.595-.022-.4-.008-.518.086-.546.509A9.387,9.387,0,0,1,58.629,35.3c-1.065.005-1.065.005-1.065,1.065,0,1.283,0,1.263,1.288,1.288a15.988,15.988,0,0,1,3.29.125,4.613,4.613,0,0,1,3.627,4.411q.041,9.537,0,19.073a4.631,4.631,0,0,1-4.7,4.556q-5.869.03-11.739,0a1.122,1.122,0,0,0-.989.451q-2.273,2.783-4.6,5.522a2.741,2.741,0,0,1-3.159.909,2.814,2.814,0,0,1-1.806-2.751c-.006-.978,0-1.956,0-2.934,0-1.186,0-1.186-1.164-1.186-.978,0-1.957.024-2.934-.01-.463-.016-.618.093-.61.59.031,1.956,0,3.912.024,5.868.006.464-.1.61-.591.608q-8.8-.028-17.609,0c-.461,0-.629-.09-.611-.589.041-1.1-.027-2.2.028-3.3.033-.651-.132-.854-.816-.833a9.163,9.163,0,0,1-7.416-3.187,9,9,0,0,1-2.326-5.643c-.025-.449-.13-.57-.578-.557-1.222.034-2.445,0-3.668.016-.305,0-.494-.007-.483-.413.083-3.274-.178-6.556.144-9.823A17.5,17.5,0,0,1,13.712,33.41c4.794-1.006,9.434-.675,13.639,2.174.525.356,1.016.761,1.523,1.143l.182,0L29,36.566m19.124,1.079H53.4c1.879,0,1.867,0,1.822-1.865-.009-.379-.1-.5-.49-.491-.831.028-1.663.009-2.494.009-1.739,0-1.715,0-1.737-1.734-.007-.536.163-.631.656-.626,2.543.025,5.088.034,7.631.005a7.034,7.034,0,0,0,6.782-5.354,12.987,12.987,0,0,0,.2-3.429c-.006-.459.089-.633.591-.616,1.2.04,2.4,0,3.595.022.41.009.536-.1.531-.523-.024-2.005.017-4.011-.03-6.015a15.015,15.015,0,0,0-.928-4.65.737.737,0,0,0-.841-.572c-3.644.021-7.288.006-10.933.014a4.689,4.689,0,0,0-4.888,4.895c-.007,2.225.006,4.451,0,6.676a4.692,4.692,0,0,1-4.85,4.862c-2.079.009-4.158.026-6.236-.014-.574-.011-.671.168-.665.693.027,2.665.038,5.331-.006,8-.011.647.2.742.776.732,2.078-.035,4.158-.014,6.237-.014M24.629,70.517c2.177,0,4.354-.01,6.53.009.42,0,.59-.06.586-.545q-.04-4.145,0-8.29c.006-.528-.2-.577-.632-.573-2.079.018-4.158.014-6.237.007a4.7,4.7,0,0,1-4.886-4.9c-.006-2.176,0-4.353,0-6.529a4.706,4.706,0,0,0-5-5.005q-4.879-.005-9.759,0c-1.787,0-1.775,0-2.271,1.712-.928,3.191-.465,6.461-.584,9.7-.013.34.18.333.416.332.733-.006,1.468-.018,2.2,0,.677.019,1.6-.3,1.96.126.343.4.118,1.3.121,1.977A7.057,7.057,0,0,0,14.4,65.82c2.055,0,4.109,0,6.164,0,1.873,0,1.863,0,1.787,1.9-.014.342-.089.468-.449.457-.831-.025-1.663-.008-2.494-.008-1.789,0-1.767,0-1.776,1.768,0,.5.158.595.617.59,2.128-.023,4.256-.01,6.384-.01M39.947,9.506c-.16-.018-.233-.034-.305-.034q-12.5,0-25.006-.015c-.527,0-.581.2-.58.637q.018,6.415,0,12.831c0,.517.143.644.65.643q11.733-.024,23.466,0c.544,0,.627-.18.621-.663-.026-2,.021-4.009-.019-6.012a17.382,17.382,0,0,1,1.178-7.389M4.807,42.341c3.532,0,6.9-.006,10.272,0a7.042,7.042,0,0,1,7.26,7.272c.006,2.225-.006,4.449,0,6.674a2.344,2.344,0,0,0,2.481,2.486c2.078.01,4.157-.018,6.234.016.553.009.692-.144.687-.691-.026-3.349.041-6.7-.028-10.047a12.4,12.4,0,0,0-5.332-10.27c-4.243-3.062-8.939-3.107-13.718-1.613a14.62,14.62,0,0,0-7.861,6.171M68.02,9.469a13.806,13.806,0,0,0-3.226-3.632A16.055,16.055,0,0,0,52.333,2.554,12.911,12.911,0,0,0,41.147,14.718c-.076,3.542-.009,7.087-.031,10.63,0,.47.161.569.592.565,2.077-.019,4.155,0,6.233-.01a2.38,2.38,0,0,0,2.577-2.614c0-2.151,0-4.3,0-6.452A7.052,7.052,0,0,1,57.9,9.47c3.323,0,6.647,0,10.119,0M33.656,44.69a18.386,18.386,0,0,1,.431,4.256c-.018,3.056.01,6.112-.02,9.168-.006.552.136.678.681.677q11.663-.029,23.327,0c.554,0,.679-.138.676-.682q-.037-6.344,0-12.689c0-.625-.166-.747-.763-.745q-11.774.033-23.547.014Zm9.2-39.783a1.71,1.71,0,0,0-1.016-.129q-14.858-.008-29.717,0c-1.852,0-2.754.884-2.755,2.723q-.006,9.024,0,18.048a2.389,2.389,0,0,0,2.7,2.709q6.273,0,12.547-.008a1.059,1.059,0,0,1,.925.426c1.69,2.06,3.4,4.1,5.113,6.145.181.216.329.547.691.433.393-.124.337-.488.337-.8,0-1.834.029-3.669-.016-5.5-.014-.6.182-.715.731-.7,1.589.035,3.179.013,4.769.013,1.623,0,1.59,0,1.637-1.613.017-.613-.145-.753-.753-.751-8.536.022-17.072.011-25.608.026-.537,0-.739-.085-.736-.7q.04-8.694,0-17.387c0-.553.114-.729.706-.726,4.916.027,9.832.015,14.748.015q6.714,0,13.428-.006c.248,0,.53.118.737-.166.5-.683,1.013-1.353,1.533-2.043M31.7,39.994A18.228,18.228,0,0,1,32.6,41.7a.921.921,0,0,0,1.028.657c8.879-.021,17.758-.009,26.636-.028.629,0,.85.1.846.806q-.051,8.584,0,17.168c0,.634-.114.844-.81.842-8.169-.029-16.339-.019-24.508-.019-1.722,0-1.7,0-1.713,1.752,0,.467.1.616.595.608,1.956-.03,3.913,0,5.87-.024.475-.007.611.115.6.6-.029,1.883-.012,3.766-.012,5.649,0,.29-.062.617.3.748s.519-.186.7-.4c1.664-1.987,3.333-3.97,4.973-5.976a1.471,1.471,0,0,1,1.278-.624c4.109.029,8.218.016,12.328.015,1.839,0,2.729-.9,2.729-2.756q0-8.988,0-17.975c0-1.854-.891-2.747-2.736-2.747H31.7Zm.116-2.349c2.313,0,4.468-.008,6.622.007.409,0,.335-.245.336-.479,0-2.025-.006-4.051.006-6.076,0-.349-.045-.517-.465-.506q-1.9.046-3.806,0c-.451-.011-.508.169-.5.551.022,1.122.012,2.245.007,3.367a2.973,2.973,0,0,1-2.2,3.136" transform="translate(0 0.001)" fill="#010101"/>
        <path id="Trazado_655614" data-name="Trazado 655614" d="M146.79,65.987c-2.078,0-4.158-.021-6.236.014-.577.01-.787-.085-.776-.732.043-2.665.032-5.331.006-8-.006-.525.091-.7.665-.693,2.078.041,4.158.023,6.236.014a4.692,4.692,0,0,0,4.85-4.862c.01-2.225,0-4.451,0-6.676a4.689,4.689,0,0,1,4.889-4.895c3.644-.007,7.288.008,10.932-.014a.736.736,0,0,1,.841.572,15.023,15.023,0,0,1,.928,4.649c.046,2,.005,4.011.03,6.015,0,.42-.121.532-.531.523-1.2-.026-2.4.018-3.6-.022-.5-.017-.6.157-.591.616a12.973,12.973,0,0,1-.2,3.429,7.034,7.034,0,0,1-6.782,5.354c-2.543.028-5.087.02-7.631-.005-.493,0-.664.09-.657.626.022,1.734,0,1.734,1.737,1.734.832,0,1.664.02,2.494-.009.388-.013.481.112.49.491.045,1.865.058,1.865-1.822,1.865H146.79m14.286-21.132a4.322,4.322,0,0,1-.579,0c-.69-.116-.827.141-.652.793a3.566,3.566,0,0,0,3.45,2.732,3.51,3.51,0,0,0,3.4-2.7c.209-.826.209-.826-.66-.827-.292,0-.587.022-.877-.005a.7.7,0,0,0-.857.507,1.058,1.058,0,0,1-1.882.211,1.094,1.094,0,0,0-1.338-.713" transform="translate(-98.67 -28.341)" fill="#ead0b6"/>
        <path id="Trazado_655615" data-name="Trazado 655615" d="M30.3,177.786c-2.128,0-4.256-.013-6.383.01-.459,0-.62-.09-.617-.59.009-1.767-.012-1.768,1.776-1.768.832,0,1.664-.017,2.494.008.36.011.435-.115.449-.457.076-1.9.086-1.9-1.787-1.9-2.054,0-4.109,0-6.163,0a7.057,7.057,0,0,1-7.325-7.284c0-.679.222-1.575-.121-1.977-.359-.421-1.283-.107-1.96-.126-.733-.02-1.468-.008-2.2,0-.236,0-.429.008-.416-.332.119-3.237-.344-6.507.584-9.7.5-1.708.483-1.712,2.271-1.712q4.879,0,9.759,0a4.706,4.706,0,0,1,5,5.005c0,2.176,0,4.353,0,6.529a4.7,4.7,0,0,0,4.886,4.9c2.079.007,4.158.011,6.237-.007.433,0,.637.045.631.573q-.045,4.145,0,8.29c0,.486-.166.549-.586.545-2.177-.019-4.353-.009-6.53-.009M11.711,156.653H11.2c-.91,0-.91,0-.686.865a3.511,3.511,0,0,0,6.822-.043c.153-.574.182-.956-.6-.83a3.612,3.612,0,0,1-.949,0,.7.7,0,0,0-.851.516,1.06,1.06,0,0,1-1.885.2,1.1,1.1,0,0,0-1.339-.708" transform="translate(-5.67 -107.268)" fill="#ead0b6"/>
        <path id="Trazado_655616" data-name="Trazado 655616" d="M73.674,32.209A17.378,17.378,0,0,0,72.5,39.6c.041,2-.007,4.008.019,6.012.006.483-.077.665-.621.663q-11.733-.029-23.466,0c-.507,0-.653-.126-.65-.643q.032-6.416,0-12.831c0-.434.052-.638.58-.637q12.5.028,25.006.015c.073,0,.145.016.306.034m-6.252,3.123c-.1-.112-.175-.207-.26-.293-.309-.313-.645-.6-.926-.939-.308-.368-.516-.354-.858,0q-2.747,2.8-5.545,5.552c-.463.458-.887,1.294-1.426,1.246-.512-.046-.968-.806-1.434-1.268-1.334-1.325-1.321-1.319-2.616.1-.25.275-.216.414.02.647,1.253,1.235,2.5,2.476,3.733,3.734.269.275.412.2.64-.032q4.192-4.208,8.4-8.4a4.006,4.006,0,0,0,.275-.343" transform="translate(-33.727 -22.702)" fill="#bbda89"/>
        <path id="Trazado_655617" data-name="Trazado 655617" d="M16.342,126.858a14.62,14.62,0,0,1,7.861-6.171c4.779-1.494,9.475-1.449,13.718,1.613a12.405,12.405,0,0,1,5.333,10.271c.069,3.348,0,6.7.028,10.047,0,.547-.134.7-.687.691-2.078-.034-4.156-.006-6.234-.016a2.344,2.344,0,0,1-2.482-2.486c-.009-2.225,0-4.449,0-6.674a7.042,7.042,0,0,0-7.26-7.272c-3.37-.008-6.74,0-10.272,0" transform="translate(-11.536 -84.516)" fill="#a97a4d"/>
        <path id="Trazado_655618" data-name="Trazado 655618" d="M166.693,15.256c-3.473,0-6.8,0-10.119,0a7.053,7.053,0,0,0-7.382,7.368c0,2.151,0,4.3,0,6.452a2.38,2.38,0,0,1-2.577,2.614c-2.077.005-4.155-.009-6.233.01-.431,0-.595-.095-.592-.565.021-3.544-.046-7.089.031-10.631A12.911,12.911,0,0,1,151.006,8.341a16.056,16.056,0,0,1,12.461,3.283,13.811,13.811,0,0,1,3.226,3.632" transform="translate(-98.673 -5.786)" fill="#656c76"/>
        <path id="Trazado_655619" data-name="Trazado 655619" d="M114.439,151.925h.788q11.774,0,23.547-.014c.6,0,.768.121.763.745q-.047,6.344,0,12.689c0,.543-.122.683-.676.682q-11.664-.03-23.327,0c-.545,0-.686-.125-.681-.677.03-3.056,0-6.112.02-9.168a18.373,18.373,0,0,0-.431-4.256m8.313,1.553c-.109.09-.2.157-.287.238-.3.291-.568.611-.887.873-.421.346-.48.6-.029,1.013,1.022.944,1.969,1.969,2.973,2.933.335.321.387.515.015.858-.772.711-1.495,1.476-2.237,2.218-1.246,1.246-1.234,1.233.042,2.5.321.319.487.326.8,0,1-1.04,2.049-2.028,3.04-3.074.349-.368.541-.321.858.016.72.764,1.47,1.5,2.225,2.231.4.387.756,1.109,1.218,1.065.438-.042.795-.728,1.229-1.079s.318-.575-.028-.907c-1.022-.981-2-2.009-3.021-2.989-.321-.308-.352-.485-.01-.8.768-.715,1.493-1.477,2.236-2.22,1.29-1.29,1.279-1.279-.044-2.559-.3-.294-.467-.284-.751.01-1,1.036-2.05,2.027-3.041,3.073-.366.386-.569.341-.911-.018-.978-1.024-2-2.012-3-3.012-.119-.119-.246-.229-.395-.367" transform="translate(-80.783 -107.235)" fill="#f5d67e"/>
        <path id="Trazado_655620" data-name="Trazado 655620" d="M65.318,16.338c-.52.691-1.035,1.361-1.533,2.043-.207.285-.49.166-.737.167q-6.714.012-13.428.006c-4.916,0-9.832.011-14.748-.015-.592,0-.708.173-.706.726q.03,8.694,0,17.387c0,.61.2.7.736.7,8.536-.016,17.072,0,25.608-.026.609,0,.771.138.753.751-.046,1.612-.014,1.613-1.637,1.613-1.59,0-3.18.023-4.769-.013-.549-.012-.746.1-.731.7.044,1.833.016,3.668.016,5.5,0,.315.056.679-.337.8-.361.114-.51-.216-.691-.433C51.4,44.2,49.689,42.163,48,40.1a1.059,1.059,0,0,0-.925-.426q-6.273.02-12.547.008a2.389,2.389,0,0,1-2.7-2.709q-.007-9.024,0-18.048c0-1.838.9-2.723,2.755-2.723q14.858,0,29.717,0a1.71,1.71,0,0,1,1.017.129" transform="translate(-22.466 -11.431)" fill="#e3e6e9"/>
        <path id="Trazado_655621" data-name="Trazado 655621" d="M107.8,135.993H136.8a2.407,2.407,0,0,1,2.736,2.747q0,8.988,0,17.975c0,1.857-.891,2.755-2.729,2.756-4.109,0-8.218.014-12.328-.015a1.47,1.47,0,0,0-1.278.624c-1.64,2.006-3.309,3.989-4.973,5.976-.179.214-.327.534-.7.4s-.3-.458-.3-.748c0-1.883-.018-3.766.012-5.649.007-.484-.129-.605-.6-.6-1.956.027-3.914-.006-5.87.024-.492.008-.6-.142-.595-.608.009-1.752-.009-1.752,1.713-1.752,8.17,0,16.339-.01,24.509.018.7,0,.812-.207.81-.842q-.036-8.584,0-17.168c0-.7-.217-.807-.846-.806-8.879.02-17.758.007-26.636.029a.921.921,0,0,1-1.028-.657,18.261,18.261,0,0,0-.893-1.705" transform="translate(-76.097 -95.998)" fill="#e5e8eb"/>
        <path id="Trazado_655622" data-name="Trazado 655622" d="M108.195,111.073a2.973,2.973,0,0,0,2.2-3.136c.005-1.123.015-2.245-.007-3.367-.007-.382.05-.562.5-.551q1.9.047,3.806,0c.42-.01.468.157.465.506-.013,2.025-.006,4.051-.006,6.076,0,.234.074.482-.336.479-2.154-.016-4.309-.007-6.622-.007" transform="translate(-76.376 -73.427)" fill="#f7f9fa"/>
        <path id="Trazado_655623" data-name="Trazado 655623" d="M98.3,124.338l.059.158-.182,0,.123-.161" transform="translate(-69.304 -87.771)" fill="#f7f9fa"/>
        <path id="Trazado_655624" data-name="Trazado 655624" d="M209.076,56.079a1.094,1.094,0,0,1,1.338.713,1.058,1.058,0,0,0,1.882-.211.7.7,0,0,1,.857-.507c.29.027.585.005.877.005.868,0,.868,0,.66.827a3.51,3.51,0,0,1-3.4,2.7,3.566,3.566,0,0,1-3.45-2.732c-.174-.653-.037-.909.652-.793a4.321,4.321,0,0,0,.579,0" transform="translate(-146.67 -39.565)" fill="#030202"/>
        <path id="Trazado_655625" data-name="Trazado 655625" d="M17.375,167.848a1.1,1.1,0,0,1,1.339.708,1.06,1.06,0,0,0,1.885-.2.7.7,0,0,1,.851-.516,3.613,3.613,0,0,0,.949,0c.785-.126.756.256.6.83a3.511,3.511,0,0,1-6.822.043c-.224-.864-.224-.864.686-.865h.51" transform="translate(-11.334 -118.462)" fill="#030202"/>
        <path id="Trazado_655626" data-name="Trazado 655626" d="M82.8,39.338a4,4,0,0,1-.275.343q-4.2,4.2-8.4,8.4c-.228.229-.371.307-.64.032-1.231-1.258-2.479-2.5-3.733-3.734-.236-.233-.27-.373-.02-.647,1.3-1.423,1.282-1.43,2.616-.1.465.462.921,1.221,1.434,1.268.539.049.963-.788,1.426-1.246Q78,40.894,80.753,38.1c.342-.349.55-.363.858,0,.281.336.617.626.926.939.085.086.161.181.26.293" transform="translate(-49.102 -26.708)" fill="#050603"/>
        <path id="Trazado_655627" data-name="Trazado 655627" d="M139.065,157.239c.149.138.276.248.395.367,1,1,2.02,1.988,3,3.012.342.359.545.4.911.018.991-1.046,2.039-2.037,3.041-3.073.284-.294.447-.3.751-.01,1.323,1.28,1.333,1.269.044,2.559-.743.743-1.468,1.5-2.236,2.22-.342.318-.311.5.01.8,1.022.98,2,2.009,3.021,2.989.346.332.459.559.028.907s-.791,1.038-1.229,1.079c-.463.044-.818-.678-1.218-1.065-.755-.73-1.5-1.467-2.225-2.231-.317-.336-.509-.384-.858-.016-.991,1.046-2.043,2.033-3.04,3.074-.314.328-.481.32-.8,0-1.276-1.269-1.289-1.257-.042-2.5.743-.743,1.465-1.508,2.237-2.218.372-.343.32-.536-.015-.858-1-.964-1.952-1.988-2.973-2.933-.451-.417-.392-.666.029-1.013.319-.263.591-.583.887-.873.082-.081.178-.148.287-.238" transform="translate(-97.097 -110.996)" fill="#050503"/>
      </g>
    </g>
  </g>
</svg>
