<svg xmlns="http://www.w3.org/2000/svg" xmlns:xlink="http://www.w3.org/1999/xlink" width="92" height="92" viewBox="0 0 92 92">
  <defs>
    <clipPath id="clip-path">
      <rect id="Rect치ngulo_309964" data-name="Rect치ngulo 309964" width="74.651" height="62.481" fill="none"/>
    </clipPath>
  </defs>
  <g id="Grupo_1071687" data-name="Grupo 1071687" transform="translate(-361 -2724)">
    <g id="Grupo_995750" data-name="Grupo 995750" transform="translate(371 2737)">
      <g id="Grupo_995749" data-name="Grupo 995749" clip-path="url(#clip-path)">
        <path id="Trazado_655598" data-name="Trazado 655598" d="M25.265,116.475l1.926-2.082c.805.514,1.173.479,1.85-.188.64-.631,1.264-1.278,1.911-1.9a6.1,6.1,0,0,1,3.539-1.706,29.427,29.427,0,0,1,3.567-.078c2.214-.015,3.172.991,3.183,3.205,0,.575-.19.682-.711.67-1.408-.033-2.818-.023-4.227,0a1.032,1.032,0,0,0-1.143,1.05,1.072,1.072,0,0,0,1.087,1.124c.265.025.534.015.8.015q5.466,0,10.932,0c.977,0,1.3.33,1.312,1.312,0,.389,0,.777,0,1.166-.011,1.027-.328,1.348-1.35,1.35-1.8,0-3.6,0-5.393,0-.829,0-1.329.452-1.307,1.133.021.66.486,1.046,1.3,1.05,1.7.008,3.4,0,5.1,0,1.408,0,1.647.24,1.647,1.651,0,2.179-.032,2.212-2.186,2.212-1.579,0-3.158-.011-4.737.009a1.042,1.042,0,0,0-1.126,1,1.085,1.085,0,0,0,1.049,1.165,5.376,5.376,0,0,0,.655.017c1.7,0,3.4-.006,5.1,0,.891,0,1.221.343,1.242,1.234.01.412.005.826,0,1.238-.011,1.026-.335,1.355-1.35,1.357-1.773,0-3.547,0-5.32,0-.9,0-1.4.419-1.383,1.125.02.674.511,1.057,1.375,1.061,1.19,0,2.381-.008,3.571,0,.771.008,1.116.341,1.147,1.1.021.509.015,1.02,0,1.53-.02.871-.326,1.2-1.191,1.2-4.786,0-9.572.025-14.358-.028a10.142,10.142,0,0,1-6.965-2.881,3.48,3.48,0,0,0-2.815-1.088c-.564.055-.736-.12-.733-.708q.04-6.228,0-12.457c0-.577.127-.8.731-.837a2.464,2.464,0,0,0,1.519-.8c.485-.476.948-.977,1.45-1.435a1.254,1.254,0,0,0,.289-1.8" transform="translate(-15.061 -78.224)" fill="#f5cdc0"/>
        <path id="Trazado_655599" data-name="Trazado 655599" d="M167.221,122.106q0,4.77,0,9.54c0,1.155-.419,1.573-1.582,1.581-1.093.007-2.186.017-3.278-.006a1.267,1.267,0,0,1-1.357-1.15c-.052-.28.2-.751-.2-.811a1.652,1.652,0,0,0-1.523.228c-.105.1-.214.2-.323.294a12.96,12.96,0,0,1-8.946,3.441c-4.59-.005-9.18,0-13.77,0a3.143,3.143,0,0,1-3.438-3.43,8.424,8.424,0,0,1,.119-2.46c.091-.3-.093-.36-.3-.469a3.1,3.1,0,0,1-1.757-2.957c.019-1.268-.24-2.592.662-3.708.15-.186-.064-.3-.129-.44a6.158,6.158,0,0,1,0-5.382.634.634,0,0,0-.009-.681,6.089,6.089,0,0,1-.174-4.995,2.715,2.715,0,0,1,2.628-1.759c1.456-.043,2.915-.051,4.37-.008.594.018.715-.175.711-.731-.016-2.674,1.159-4.694,3.435-5.071,4.053-.67,8.035-.672,11.187,2.742,2.04,2.21,4.242,4.272,6.372,6.4.155.154.307.311.471.455a.485.485,0,0,0,.462.159c.233-.073.124-.284.135-.434.087-1.176.45-1.518,1.648-1.523q1.457-.006,2.914,0c1.27,0,1.664.39,1.664,1.637q0,4.77,0,9.54m-5.118,2.82c-.889-.259-1.1-.523-1.106-1.444-.007-2.574,0-5.148-.007-7.721,0-.283.138-.65-.392-.679a3.16,3.16,0,0,1-2.069-1.1c-2.279-2.29-4.574-4.563-6.848-6.856a6.292,6.292,0,0,0-3.289-1.9,18.282,18.282,0,0,0-5.082-.1,2.373,2.373,0,0,0-2.178,2.276c-.048,2.378-.022,4.759-.025,7.138,0,.191-.035.378.268.407,1.9.177,3.2-.628,3.5-2.365a9.332,9.332,0,0,0,.03-1.382c.015-.775.377-1.219,1.017-1.257s1.075.36,1.173,1.112a1.928,1.928,0,0,0,1.571,1.839,1.9,1.9,0,0,0,2.124-1.164c.375-.708.939-.965,1.53-.7.608.274.778.93.436,1.687a4.1,4.1,0,0,1-5.659,1.913c-.386-.2-.533-.187-.773.2a4.613,4.613,0,0,1-2.986,2.152c-.259.061-.443.064-.415.488.1,1.5.441,3.062-.554,4.434-.142.2.011.3.079.449a6.023,6.023,0,0,1-.025,5.5c-.077.155-.173.26-.034.447.963,1.3.615,2.8.571,4.227-.015.47.077.508.462.505,2.356-.014,4.713.022,7.069-.023a10.108,10.108,0,0,0,6.809-2.72,3.952,3.952,0,0,1,3.193-1.261c.249.025.483.025.538-.317.1-.6.547-.817,1.067-.949.944.325,1.072.506,1.078,1.537,0,.437.012.875,0,1.311-.011.313.117.446.428.429a2.972,2.972,0,0,1,.655,0c.66.113.791-.167.788-.794-.026-5.342-.015-10.685-.015-16.027,0-1.131,0-1.1-1.166-1.131-.536-.013-.7.126-.7.685.028,3.229.016,6.459.012,9.689,0,.965-.169,1.178-1.078,1.454m-25.152-7.8c-.922,0-1.844-.013-2.765,0a1,1,0,0,0-1.128,1.118c-.019.557-.009,1.115,0,1.673a.938.938,0,0,0,.97,1.046q2.909.043,5.82,0a.942.942,0,0,0,.986-1.032c.012-.533.011-1.067,0-1.6-.013-.836-.363-1.195-1.193-1.206-.9-.012-1.795,0-2.692,0m-.007,9.892c.921,0,1.843.012,2.764,0a1.009,1.009,0,0,0,1.125-1.121c.014-.557.013-1.115,0-1.672a.931.931,0,0,0-.979-1.031q-2.909-.032-5.818,0a.929.929,0,0,0-.976,1.032c-.012.533-.015,1.066,0,1.6.02.849.355,1.186,1.2,1.2.9.01,1.794,0,2.691,0m-.7-15.9h-2.112a.948.948,0,0,0-1.067,1.016c-.02.582-.023,1.165,0,1.747a.969.969,0,0,0,1.1,1.057c1.432.014,2.864,0,4.3.011.334,0,.474-.077.465-.443-.023-.97-.026-1.941,0-2.911.011-.4-.134-.5-.5-.484-.728.023-1.456.007-2.184.007m1.641,18.091v0c-.63,0-1.26-.018-1.89,0a.923.923,0,0,0-.991.941,19.422,19.422,0,0,0,0,1.961.878.878,0,0,0,.937.907q1.962.028,3.925,0a.909.909,0,0,0,.964-.964c.028-.58.02-1.163,0-1.743a1,1,0,0,0-1.134-1.107c-.606-.014-1.211,0-1.817,0" transform="translate(-92.571 -72.758)" fill="#040303"/>
        <path id="Trazado_655600" data-name="Trazado 655600" d="M10.2,111.108a1.254,1.254,0,0,1-.289,1.8c-.5.458-.964.959-1.45,1.435a2.464,2.464,0,0,1-1.519.8c-.6.039-.735.261-.731.837q.039,6.228,0,12.457c0,.588.169.763.733.708a3.48,3.48,0,0,1,2.815,1.088,10.142,10.142,0,0,0,6.965,2.881c4.785.053,9.571.03,14.358.028.865,0,1.171-.328,1.191-1.2.012-.51.018-1.021,0-1.53-.031-.756-.376-1.089-1.147-1.1-1.19-.013-2.381,0-3.571,0-.864,0-1.355-.387-1.375-1.061-.021-.705.484-1.123,1.383-1.125,1.773,0,3.547,0,5.32,0,1.015,0,1.339-.331,1.35-1.357,0-.413.008-.826,0-1.238-.021-.892-.352-1.23-1.242-1.234-1.7-.01-3.4,0-5.1,0a5.379,5.379,0,0,1-.655-.017,1.085,1.085,0,0,1-1.049-1.165,1.042,1.042,0,0,1,1.126-1c1.579-.02,3.158-.008,4.737-.009,2.155,0,2.187-.033,2.186-2.213,0-1.411-.24-1.651-1.647-1.651-1.7,0-3.4,0-5.1,0-.816,0-1.281-.39-1.3-1.05-.022-.681.478-1.129,1.307-1.133,1.8-.009,3.6,0,5.393,0,1.022,0,1.339-.324,1.35-1.35,0-.389,0-.777,0-1.166-.013-.981-.335-1.31-1.312-1.312q-5.466-.006-10.932,0c-.267,0-.536.011-.8-.015a1.072,1.072,0,0,1-1.087-1.124,1.032,1.032,0,0,1,1.143-1.05c1.409-.021,2.819-.03,4.227,0,.521.012.714-.1.711-.67-.011-2.215-.969-3.22-3.183-3.205a29.428,29.428,0,0,0-3.567.078,6.1,6.1,0,0,0-3.539,1.706c-.647.623-1.271,1.27-1.911,1.9-.677.667-1.045.7-1.85.188a1.26,1.26,0,0,1,.3-1.746,21.769,21.769,0,0,1,3.469-3.091,8.249,8.249,0,0,1,3.342-1.14,26.624,26.624,0,0,1,4.585-.055,4.751,4.751,0,0,1,4.526,4.937c.025,1.094.025,1.094,1.129,1.094,1.215,0,2.429-.013,3.644,0a3.155,3.155,0,0,1,3.283,3.243c.016,1.27.225,2.593-.657,3.712-.177.224.052.346.126.507a6.036,6.036,0,0,1,0,5.316.732.732,0,0,0,.018.771,6.285,6.285,0,0,1,.141,5,1.371,1.371,0,0,1-.658.847c-1.068.439-1.062,1.254-.918,2.186a8.026,8.026,0,0,1,.01,1.31,3.161,3.161,0,0,1-3.409,3.408c-4.566.017-9.133.008-13.7,0a13.829,13.829,0,0,1-3.035-.311,12.939,12.939,0,0,1-6.043-3.167,1.608,1.608,0,0,0-1.064-.542c-.643-.027-1.086-.033-1.034.858.04.7-.5,1.131-1.244,1.149-1.214.028-2.429.03-3.643,0a1.217,1.217,0,0,1-1.29-1.351c-.014-.679-.006-1.36,0-2.039.006-.92.225-1.195,1.116-1.414.887.263,1.067.521,1.07,1.535,0,1.1,0,1.1,1.115,1.1a.4.4,0,0,1,.073,0c.568.1.677-.172.675-.7q-.027-8.3,0-16.593c0-.5-.134-.72-.648-.648a1.787,1.787,0,0,1-.509,0c-.569-.088-.725.132-.72.708.029,3.4,0,6.793.027,10.189a1.365,1.365,0,0,1-1.073,1.565c-.76-.147-1.12-.517-1.121-1.247q-.014-6.038,0-12.077a1.181,1.181,0,0,1,1.251-1.3q1.855-.046,3.711,0c.806.021,1.192.5,1.263,1.388.015.19-.152.469.153.56a.605.605,0,0,0,.578-.241c.469-.457.926-.926,1.392-1.386.706-.7,1-.736,1.845-.254" transform="translate(0 -72.857)" fill="#040404"/>
        <path id="Trazado_655601" data-name="Trazado 655601" d="M78.652,1.955c1,.292,2.17.61,3.323.977a.986.986,0,0,0,1.2-.3c.648-.722,1.364-1.382,2.06-2.06A1.3,1.3,0,0,1,87.367.548c.75.727,1.5,1.45,2.219,2.21a.743.743,0,0,0,.888.215c1.064-.33,2.138-.627,3.21-.93,1.012-.286,1.564.037,1.825,1.07.237.939.488,1.877.682,2.825a.617.617,0,0,0,.6.569c1.1.19,2.19.42,3.279.656s1.432.862,1.065,1.924c-.3.869-.6,1.738-.937,2.595a.62.62,0,0,0,.224.855c.81.618,1.589,1.277,2.368,1.935a1.272,1.272,0,0,1,0,2.2c-.763.639-1.523,1.284-2.314,1.886a.691.691,0,0,0-.245.972c.343.826.62,1.68.91,2.527a1.285,1.285,0,0,1-1.073,1.925c-1.089.236-2.183.456-3.281.65a.621.621,0,0,0-.6.575c-.2.973-.448,1.935-.695,2.9a1.25,1.25,0,0,1-1.747,1.01c-.981-.269-1.973-.513-2.931-.849-.54-.19-.766-.02-1.01.429-.727,1.341-1.489,2.664-2.248,3.988-.717,1.253-1.781,1.259-2.494.017-.8-1.387-1.6-2.771-2.361-4.175a.539.539,0,0,0-.748-.308q-1.53.463-3.071.89a1.256,1.256,0,0,1-1.776-1.052c-.238-.939-.5-1.875-.678-2.825a.675.675,0,0,0-.655-.619q-1.645-.3-3.283-.64a1.251,1.251,0,0,1-1.048-1.819c.309-.917.642-1.827.98-2.734a.586.586,0,0,0-.214-.794c-.83-.632-1.627-1.308-2.425-1.98a1.263,1.263,0,0,1,.013-2.151c.743-.625,1.48-1.26,2.255-1.842a.77.77,0,0,0,.312-1.076c-.346-.824-.62-1.68-.907-2.528A1.26,1.26,0,0,1,72.514,7.17c1.114-.239,2.23-.466,3.352-.665a.582.582,0,0,0,.552-.54c.21-.995.459-1.982.711-2.967a1.286,1.286,0,0,1,1.524-1.043M92.113,4.809a15.377,15.377,0,0,0-1.611.437A1.7,1.7,0,0,1,88.428,4.7c-.551-.612-1.18-1.154-1.744-1.756-.286-.306-.469-.3-.752,0-.58.619-1.22,1.184-1.8,1.807a1.671,1.671,0,0,1-1.956.519c-.868-.3-1.765-.522-2.643-.8-.354-.111-.526-.032-.606.35-.169.805-.392,1.6-.56,2.4A1.493,1.493,0,0,1,77,8.517c-.814.125-1.615.333-2.429.453-.573.084-.8.249-.52.863.3.659.48,1.371.745,2.046a1.367,1.367,0,0,1-.483,1.734c-.683.544-1.342,1.119-2.028,1.658-.289.227-.285.37,0,.6.705.554,1.39,1.137,2.085,1.7a1.308,1.308,0,0,1,.445,1.617c-.28.748-.513,1.514-.8,2.258-.155.4-.15.593.353.669.909.137,1.8.365,2.711.524a1.416,1.416,0,0,1,1.269,1.206c.174.829.405,1.646.584,2.474.081.374.23.457.6.34,1.086-.341,2.183-.646,3.276-.965a1.6,1.6,0,0,1,1.35.958c.68,1.241,1.4,2.463,2.151,3.787.749-1.316,1.428-2.512,2.111-3.708.582-1.019.941-1.161,2.08-.831.768.222,1.549.408,2.3.68.592.215.857.112.958-.543.111-.715.35-1.41.491-2.122a1.459,1.459,0,0,1,1.36-1.287c.79-.114,1.567-.317,2.357-.436.62-.093.9-.277.578-.96-.3-.632-.467-1.324-.722-1.977a1.356,1.356,0,0,1,.481-1.731c.687-.539,1.342-1.118,2.028-1.658.288-.227.289-.368,0-.6-.706-.554-1.389-1.137-2.082-1.707a1.3,1.3,0,0,1-.447-1.615c.285-.746.495-1.523.806-2.256.215-.507.006-.625-.424-.7-.859-.15-1.711-.341-2.572-.476a1.474,1.474,0,0,1-1.36-1.293c-.094-.5-.238-.988-.355-1.483-.34-1.447-.339-1.447-1.781-.93" transform="translate(-48.981 0)" fill="#040303"/>
        <path id="Trazado_655602" data-name="Trazado 655602" d="M3.849,150.541a1.365,1.365,0,0,0,1.073-1.565c-.03-3.4,0-6.793-.027-10.189,0-.575.151-.8.72-.708a1.765,1.765,0,0,0,.509,0c.514-.072.65.144.648.649q-.025,8.3,0,16.593c0,.524-.107.794-.675.7a.4.4,0,0,0-.073,0c-1.112.007-1.112.007-1.115-1.1,0-1.015-.183-1.272-1.07-1.535q0-1.423.01-2.846" transform="translate(-2.718 -97.731)" fill="#edbd5a"/>
        <path id="Trazado_655603" data-name="Trazado 655603" d="M187.141,133.135c-.521.132-.97.354-1.067.949-.056.342-.29.343-.539.317a3.951,3.951,0,0,0-3.193,1.261,10.108,10.108,0,0,1-6.809,2.72c-2.356.045-4.712.009-7.069.023-.385,0-.476-.035-.462-.505.044-1.431.392-2.93-.571-4.227-.138-.187-.043-.292.035-.447a6.024,6.024,0,0,0,.025-5.5c-.069-.147-.221-.254-.079-.449.995-1.372.653-2.929.554-4.434-.028-.424.156-.427.415-.488a4.611,4.611,0,0,0,2.985-2.152c.239-.392.387-.4.773-.2a4.1,4.1,0,0,0,5.659-1.913c.341-.757.172-1.413-.436-1.687-.592-.266-1.155-.009-1.53.7a1.9,1.9,0,0,1-2.124,1.163,1.928,1.928,0,0,1-1.571-1.839c-.1-.751-.52-1.151-1.173-1.112s-1,.482-1.017,1.257a9.334,9.334,0,0,1-.03,1.382c-.3,1.737-1.606,2.542-3.5,2.365-.3-.028-.268-.216-.268-.407,0-2.379-.024-4.76.025-7.138a2.373,2.373,0,0,1,2.178-2.276,18.284,18.284,0,0,1,5.082.1,6.29,6.29,0,0,1,3.288,1.9c2.275,2.293,4.57,4.566,6.848,6.856a3.16,3.16,0,0,0,2.069,1.1c.53.029.391.4.392.679.007,2.574,0,5.148.006,7.722,0,.92.217,1.184,1.106,1.443q0,1.421,0,2.842" transform="translate(-117.608 -78.124)" fill="#f3be8d"/>
        <path id="Trazado_655604" data-name="Trazado 655604" d="M238.03,152.765q0-1.421,0-2.842c.908-.276,1.076-.489,1.078-1.454,0-3.23.016-6.46-.012-9.689,0-.559.163-.7.7-.685,1.166.028,1.166,0,1.166,1.131,0,5.342-.011,10.685.015,16.027,0,.627-.127.907-.788.794a2.972,2.972,0,0,0-.655,0c-.311.017-.438-.116-.427-.429.015-.436.006-.874,0-1.311-.006-1.031-.134-1.212-1.078-1.537" transform="translate(-168.497 -97.755)" fill="#51b9ed"/>
        <path id="Trazado_655605" data-name="Trazado 655605" d="M142.465,151.875c.9,0,1.795-.009,2.692,0,.83.011,1.179.37,1.193,1.206.008.533.01,1.067,0,1.6a.941.941,0,0,1-.986,1.032q-2.909.041-5.82,0a.939.939,0,0,1-.97-1.046c-.008-.557-.018-1.116,0-1.673a1,1,0,0,1,1.128-1.118c.922-.017,1.843,0,2.765,0" transform="translate(-98.085 -107.506)" fill="#f1cea6"/>
        <path id="Trazado_655606" data-name="Trazado 655606" d="M142.463,176.433c-.9,0-1.794.008-2.691,0-.841-.01-1.176-.346-1.2-1.2-.012-.533-.01-1.066,0-1.6a.929.929,0,0,1,.976-1.032q2.909-.031,5.818,0a.931.931,0,0,1,.979,1.031c.013.557.014,1.115,0,1.672a1.009,1.009,0,0,1-1.125,1.121c-.921.016-1.842,0-2.764,0" transform="translate(-98.089 -122.173)" fill="#f9e3c4"/>
        <path id="Trazado_655607" data-name="Trazado 655607" d="M141.75,131.289c.728,0,1.457.016,2.184-.007.369-.012.513.088.5.484-.027.97-.024,1.941,0,2.911.009.366-.13.446-.465.443-1.432-.015-2.865,0-4.3-.011a.969.969,0,0,1-1.1-1.057c-.023-.581-.02-1.165,0-1.747a.948.948,0,0,1,1.067-1.016h2.112" transform="translate(-98.08 -92.932)" fill="#f8e3c4"/>
        <path id="Trazado_655608" data-name="Trazado 655608" d="M148.07,193.23c.606,0,1.212-.011,1.817,0a1,1,0,0,1,1.134,1.107c.015.581.023,1.164,0,1.743a.909.909,0,0,1-.964.964q-1.962.028-3.925,0a.878.878,0,0,1-.937-.907,19.431,19.431,0,0,1,0-1.961.923.923,0,0,1,.991-.941c.629-.022,1.26,0,1.89,0Z" transform="translate(-102.76 -136.781)" fill="#f5d1a9"/>
        <path id="Trazado_655609" data-name="Trazado 655609" d="M89.786,32.272c-1.093.319-2.191.623-3.276.965-.371.117-.519.034-.6-.341-.179-.828-.41-1.645-.584-2.474a1.416,1.416,0,0,0-1.269-1.206c-.906-.16-1.8-.387-2.711-.524-.5-.076-.508-.269-.353-.669.289-.744.522-1.51.8-2.258a1.308,1.308,0,0,0-.445-1.617c-.7-.567-1.379-1.15-2.085-1.7-.287-.225-.29-.368,0-.6.687-.54,1.345-1.114,2.028-1.658a1.368,1.368,0,0,0,.483-1.734c-.265-.676-.446-1.388-.746-2.046-.279-.614-.053-.779.52-.863.814-.12,1.615-.327,2.429-.453a1.493,1.493,0,0,0,1.37-1.288c.168-.805.391-1.6.56-2.4.08-.381.252-.46.606-.35.878.275,1.775.5,2.643.8a1.671,1.671,0,0,0,1.956-.519c.575-.623,1.215-1.188,1.8-1.807.283-.3.466-.309.752,0,.563.6,1.192,1.143,1.743,1.756a1.7,1.7,0,0,0,2.075.549,15.383,15.383,0,0,1,1.611-.438c.085.186.268.172.427.223A1.645,1.645,0,0,1,100.7,13.92c-.128.391-.27.777-.4,1.168a1.65,1.65,0,0,0,.62,1.977,8.454,8.454,0,0,1,1.275,1.185,1.381,1.381,0,0,1-.03,2.015,7.787,7.787,0,0,1-1.125,1.026,1.76,1.76,0,0,0-.72,2.151c.127.441.272.88.435,1.309a1.451,1.451,0,0,1-.358,1.528c-.645.8-1.615.686-2.459.882a1.945,1.945,0,0,0-1.67,1.492c-.119.493-.236.986-.364,1.476A1.661,1.661,0,0,1,93.9,31.343c-.422-.1-.834-.249-1.255-.357-1.6-.41-2.1-.183-2.856,1.286M94.4,20.188c0-.947.012-1.893,0-2.84-.014-.828-.467-1.344-1.129-1.33a1.151,1.151,0,0,0-1.086,1.3q-.022,2.8,0,5.606c.006.83.464,1.343,1.127,1.33s1.077-.521,1.089-1.369c.013-.9,0-1.8,0-2.694m-1.082,8.07A1.077,1.077,0,0,0,94.37,27.18a1.086,1.086,0,1,0-2.17.062,1.08,1.08,0,0,0,1.115,1.016" transform="translate(-55.957 -6.578)" fill="#e8555a"/>
        <path id="Trazado_655610" data-name="Trazado 655610" d="M115.805,36.584c.76-1.469,1.259-1.7,2.856-1.286.421.108.833.254,1.255.357a1.661,1.661,0,0,0,2.009-1.214c.128-.49.245-.984.363-1.476a1.946,1.946,0,0,1,1.67-1.492c.844-.2,1.813-.079,2.459-.882a1.451,1.451,0,0,0,.358-1.528c-.163-.43-.308-.868-.435-1.309a1.76,1.76,0,0,1,.72-2.15,7.786,7.786,0,0,0,1.125-1.026,1.381,1.381,0,0,0,.03-2.015,8.436,8.436,0,0,0-1.275-1.185,1.65,1.65,0,0,1-.62-1.977c.129-.391.271-.777.4-1.168a1.645,1.645,0,0,0-1.184-2.311c-.159-.051-.342-.037-.427-.223,1.442-.517,1.441-.517,1.781.93.117.495.261.984.355,1.483a1.474,1.474,0,0,0,1.361,1.293c.861.136,1.713.327,2.572.477.43.075.639.193.424.7-.312.734-.522,1.51-.806,2.256a1.3,1.3,0,0,0,.447,1.615c.693.57,1.376,1.153,2.082,1.707.291.228.29.37,0,.6-.686.54-1.341,1.119-2.028,1.658a1.357,1.357,0,0,0-.481,1.731c.256.654.424,1.345.722,1.977.321.683.042.867-.578.96-.79.118-1.567.322-2.357.436a1.459,1.459,0,0,0-1.36,1.287c-.141.712-.381,1.406-.491,2.122-.1.654-.366.758-.958.543-.75-.273-1.531-.458-2.3-.68-1.14-.33-1.5-.188-2.08.831-.682,1.2-1.362,2.392-2.111,3.708-.755-1.324-1.471-2.546-2.15-3.787a1.6,1.6,0,0,0-1.35-.958" transform="translate(-81.976 -10.89)" fill="#e44142"/>
        <path id="Trazado_655611" data-name="Trazado 655611" d="M126.186,36.486c0,.9.01,1.8,0,2.694-.012.849-.427,1.355-1.089,1.369s-1.121-.5-1.127-1.329q-.021-2.8,0-5.607a1.152,1.152,0,0,1,1.086-1.3c.661-.013,1.115.5,1.129,1.33.016.946,0,1.893,0,2.84" transform="translate(-87.747 -22.876)" fill="#0d0505"/>
        <path id="Trazado_655612" data-name="Trazado 655612" d="M125.18,68.941a1.08,1.08,0,0,1-1.115-1.016,1.086,1.086,0,1,1,2.17-.062,1.077,1.077,0,0,1-1.055,1.078" transform="translate(-87.822 -47.261)" fill="#070303"/>
      </g>
    </g>
    <g id="Grupo_1071686" data-name="Grupo 1071686" transform="translate(462 10691)">
      <rect id="Rect치ngulo_309963" data-name="Rect치ngulo 309963" width="92" height="92" transform="translate(-101 -7967)" fill="none"/>
    </g>
  </g>
</svg>
