<svg xmlns="http://www.w3.org/2000/svg" xmlns:xlink="http://www.w3.org/1999/xlink" width="110" height="110" viewBox="0 0 110 110">
  <defs>
    <clipPath id="clip-path">
      <rect id="Rect치ngulo_309965" data-name="Rect치ngulo 309965" width="87.09" height="87.137" fill="none"/>
    </clipPath>
  </defs>
  <g id="Grupo_995753" data-name="Grupo 995753" transform="translate(101 7967)">
    <rect id="Rect치ngulo_309963" data-name="Rect치ngulo 309963" width="110" height="110" transform="translate(-101 -7967)" fill="none"/>
    <g id="Grupo_995754" data-name="Grupo 995754" transform="translate(-89.545 -7955.568)">
      <g id="Grupo_995751" data-name="Grupo 995751" clip-path="url(#clip-path)">
        <path id="Trazado_655613" data-name="Trazado 655613" d="M34.67,43.721c-1.878-2.274-3.766-4.54-5.626-6.828-.279-.343-.594-.3-.935-.3q-6.843,0-13.685,0c-3.691,0-6.027-2.315-6.033-6.01q-.018-10.833,0-21.665C8.4,5.212,10.726,2.9,14.42,2.9q17.9,0,35.792-.007a5.562,5.562,0,0,1,2.944.685.718.718,0,0,0,.925-.1C64.381-3.969,83.5.466,86.745,17.475a38.4,38.4,0,0,1,.329,6.994c.014,1.929-.017,3.86.015,5.789.009.547-.1.754-.7.733-1.431-.049-2.866,0-4.3-.026-.474-.01-.62.1-.653.609A11.224,11.224,0,0,1,70.1,42.2c-1.273.006-1.273.006-1.273,1.273,0,1.533,0,1.51,1.54,1.541a19.116,19.116,0,0,1,3.933.149,5.516,5.516,0,0,1,4.337,5.274q.049,11.4,0,22.8a5.537,5.537,0,0,1-5.616,5.447q-7.018.035-14.036,0a1.341,1.341,0,0,0-1.182.539q-2.717,3.327-5.5,6.6a3.277,3.277,0,0,1-3.777,1.087,3.364,3.364,0,0,1-2.159-3.289c-.007-1.17,0-2.339,0-3.509,0-1.418,0-1.418-1.392-1.418-1.17,0-2.34.029-3.509-.012-.554-.02-.739.111-.73.705.038,2.338,0,4.678.028,7.016.007.555-.117.729-.707.727Q29.528,87.1,19,87.134c-.551,0-.752-.108-.73-.7.05-1.314-.032-2.633.033-3.946.039-.779-.158-1.021-.976-1a10.956,10.956,0,0,1-8.866-3.81A10.761,10.761,0,0,1,5.681,70.93c-.03-.537-.155-.681-.691-.666-1.461.04-2.924.006-4.386.02-.365,0-.59-.009-.578-.494.1-3.914-.212-7.838.172-11.745a20.922,20.922,0,0,1,16.2-18.1c5.732-1.2,11.28-.807,16.308,2.6.628.425,1.215.91,1.821,1.367l.218,0-.071-.189m22.866,1.29h6.317c2.247,0,2.232,0,2.178-2.23-.011-.453-.122-.6-.586-.587-.993.034-1.988.01-2.983.01-2.08,0-2.05,0-2.077-2.074-.008-.641.2-.754.785-.749,3.041.03,6.083.04,9.124.006a8.41,8.41,0,0,0,8.109-6.4,15.528,15.528,0,0,0,.237-4.1c-.007-.549.107-.756.707-.736,1.431.048,2.866,0,4.3.026.49.011.641-.123.635-.626-.029-2.4.02-4.8-.036-7.192A17.953,17.953,0,0,0,83.136,14.8a.881.881,0,0,0-1.006-.684c-4.357.025-8.714.008-13.072.016a5.607,5.607,0,0,0-5.845,5.852c-.008,2.661.007,5.322,0,7.982a5.61,5.61,0,0,1-5.8,5.813c-2.486.011-4.972.032-7.456-.017-.687-.013-.8.2-.8.828.032,3.187.045,6.374-.007,9.561-.013.774.238.888.928.876,2.485-.042,4.971-.017,7.457-.017m-28.087,39.3c2.6,0,5.206-.012,7.808.011.5,0,.706-.071.7-.652q-.047-4.955,0-9.911c.007-.632-.237-.69-.755-.686-2.485.022-4.971.017-7.457.008A5.617,5.617,0,0,1,23.9,67.226c-.007-2.6,0-5.2,0-7.807a5.626,5.626,0,0,0-5.98-5.984q-5.834-.006-11.668,0c-2.137,0-2.122,0-2.715,2.047-1.109,3.815-.556,7.725-.7,11.6-.015.406.215.4.5.4.877-.007,1.755-.021,2.632,0,.809.022,1.915-.354,2.344.15.41.481.141,1.552.145,2.364A8.437,8.437,0,0,0,17.215,78.7c2.457.006,4.913,0,7.37,0,2.24,0,2.227,0,2.137,2.271-.017.409-.107.559-.537.546-.993-.03-1.988-.009-2.983-.009-2.139,0-2.113,0-2.124,2.114,0,.6.189.711.737.705,2.544-.027,5.088-.012,7.633-.012M47.763,11.366c-.192-.022-.278-.04-.365-.04q-14.95,0-29.9-.018c-.63,0-.695.242-.693.762q.022,7.671-.006,15.341c0,.619.171.77.777.769q14.029-.028,28.057,0c.651,0,.75-.216.742-.793-.031-2.4.026-4.793-.023-7.188a20.783,20.783,0,0,1,1.409-8.834M5.747,50.625c4.223,0,8.252-.007,12.282,0a8.42,8.42,0,0,1,8.68,8.694c.008,2.66-.007,5.32,0,7.979a2.8,2.8,0,0,0,2.967,2.973c2.485.012,4.97-.021,7.454.02.661.011.827-.172.822-.826-.032-4,.049-8.01-.034-12.012a14.83,14.83,0,0,0-6.375-12.28c-5.073-3.661-10.688-3.714-16.4-1.928a17.481,17.481,0,0,0-9.4,7.379m75.582-39.3a16.507,16.507,0,0,0-3.857-4.343c-4.373-3.532-9.418-4.551-14.9-3.925A15.437,15.437,0,0,0,49.2,17.6c-.091,4.235-.011,8.473-.037,12.71,0,.562.192.68.708.676,2.484-.023,4.968-.006,7.452-.012A2.845,2.845,0,0,0,60.4,27.847c0-2.571,0-5.143,0-7.714a8.432,8.432,0,0,1,8.826-8.809c3.973,0,7.947,0,12.1,0M40.241,53.434a21.984,21.984,0,0,1,.515,5.088c-.021,3.654.012,7.308-.024,10.962-.007.66.162.811.814.809q13.945-.035,27.891,0c.662,0,.812-.165.808-.815q-.044-7.585,0-15.171c.006-.747-.2-.893-.912-.891q-14.077.039-28.155.017Zm11-47.567a2.044,2.044,0,0,0-1.215-.154q-17.766-.009-35.531,0c-2.215,0-3.293,1.057-3.294,3.255q-.007,10.79,0,21.579c0,2.166,1.077,3.238,3.225,3.239q7.5,0,15-.009a1.267,1.267,0,0,1,1.106.509c2.021,2.463,4.069,4.9,6.113,7.348.216.258.393.654.826.517.47-.149.4-.584.4-.961,0-2.193.034-4.387-.019-6.579-.017-.718.218-.854.875-.84,1.9.042,3.8.015,5.7.015,1.94,0,1.9,0,1.957-1.928.021-.734-.173-.9-.9-.9-10.206.027-20.412.013-30.618.031-.642,0-.884-.1-.88-.831q.048-10.394,0-20.789c0-.662.136-.872.844-.869,5.878.032,11.756.018,17.634.018q8.027,0,16.055-.007c.3,0,.633.141.882-.2.595-.816,1.211-1.617,1.832-2.443M37.907,47.819a21.794,21.794,0,0,1,1.067,2.039,1.1,1.1,0,0,0,1.229.786c10.616-.025,21.232-.01,31.848-.034.752,0,1.016.124,1.011.963Q73,61.837,73.055,72.1c0,.758-.136,1.01-.968,1.007-9.768-.034-19.536-.022-29.3-.022-2.059,0-2.038,0-2.049,2.094,0,.558.123.737.711.728,2.339-.036,4.679,0,7.019-.028.568-.008.731.137.722.716-.035,2.251-.015,4.5-.014,6.755,0,.346-.075.737.36.894s.621-.222.835-.478c1.989-2.376,3.985-4.746,5.946-7.145a1.758,1.758,0,0,1,1.529-.747c4.913.034,9.826.019,14.739.018,2.2,0,3.262-1.075,3.263-3.295q0-10.746,0-21.492c0-2.216-1.065-3.285-3.271-3.285H37.907Zm.139-2.808c2.766,0,5.342-.01,7.917.009.489,0,.4-.293.4-.573,0-2.421-.007-4.843.008-7.264,0-.418-.054-.618-.556-.606q-2.274.055-4.551,0c-.539-.013-.607.2-.6.659.026,1.341.014,2.684.008,4.026-.009,1.928-.7,2.955-2.629,3.749" transform="translate(0 0.001)" fill="#010101"/>
        <path id="Trazado_655614" data-name="Trazado 655614" d="M148.162,71.042c-2.485,0-4.972-.026-7.456.017-.69.012-.941-.1-.928-.876.051-3.187.039-6.374.007-9.561-.007-.628.109-.841.8-.828,2.485.049,4.971.027,7.456.017a5.61,5.61,0,0,0,5.8-5.813c.012-2.661,0-5.322,0-7.982a5.606,5.606,0,0,1,5.845-5.852c4.357-.009,8.714.009,13.071-.016a.881.881,0,0,1,1.006.684,17.962,17.962,0,0,1,1.109,5.559c.055,2.4.006,4.8.035,7.192.006.5-.145.636-.635.626-1.433-.031-2.867.021-4.3-.026-.6-.02-.714.187-.707.736a15.512,15.512,0,0,1-.237,4.1,8.41,8.41,0,0,1-8.109,6.4c-3.041.034-6.083.024-9.124-.006-.59-.006-.794.108-.785.748.027,2.073,0,2.074,2.077,2.074.994,0,1.989.024,2.982-.01.464-.016.575.134.586.587.054,2.23.069,2.23-2.178,2.23h-6.317m17.081-25.267a5.168,5.168,0,0,1-.693,0c-.825-.139-.988.168-.78.949a4.264,4.264,0,0,0,4.125,3.266,4.2,4.2,0,0,0,4.06-3.222c.249-.987.249-.987-.789-.988-.35,0-.7.026-1.049-.006a.84.84,0,0,0-1.024.607,1.265,1.265,0,0,1-2.251.252,1.308,1.308,0,0,0-1.6-.853" transform="translate(-90.627 -26.031)" fill="#ead0b6"/>
        <path id="Trazado_655615" data-name="Trazado 655615" d="M34.655,182.839c-2.544,0-5.088-.015-7.632.012-.549.006-.741-.107-.738-.705.011-2.113-.015-2.114,2.124-2.114.994,0,1.989-.02,2.983.01.43.013.52-.137.537-.546.09-2.272.1-2.271-2.137-2.271-2.456,0-4.913,0-7.369,0a8.438,8.438,0,0,1-8.758-8.709c0-.812.265-1.883-.145-2.364-.429-.5-1.535-.128-2.343-.15-.877-.024-1.755-.009-2.632,0-.283,0-.513.01-.5-.4.142-3.87-.411-7.78.7-11.6.594-2.042.578-2.047,2.715-2.047q5.834,0,11.668,0a5.627,5.627,0,0,1,5.979,5.985c0,2.6,0,5.2,0,7.807a5.616,5.616,0,0,0,5.842,5.857c2.486.008,4.971.014,7.457-.008.518,0,.762.054.755.686q-.054,4.955,0,9.912c.006.581-.2.656-.7.652-2.6-.023-5.205-.011-7.808-.011M12.431,157.572h-.609c-1.088,0-1.088,0-.82,1.034a4.2,4.2,0,0,0,8.157-.051c.183-.686.217-1.142-.722-.992a4.319,4.319,0,0,1-1.135,0,.838.838,0,0,0-1.017.616,1.267,1.267,0,0,1-2.253.237,1.312,1.312,0,0,0-1.6-.846" transform="translate(-5.208 -98.524)" fill="#ead0b6"/>
        <path id="Trazado_655616" data-name="Trazado 655616" d="M78.74,32.218a20.778,20.778,0,0,0-1.409,8.834c.049,2.4-.008,4.792.023,7.188.007.578-.092.8-.742.793q-14.029-.034-28.057,0c-.606,0-.78-.15-.777-.769q.038-7.671.006-15.341c0-.519.063-.763.693-.762q14.949.034,29.9.018c.087,0,.174.019.365.04m-7.476,3.734c-.118-.134-.209-.247-.31-.35-.37-.374-.771-.722-1.108-1.123-.368-.44-.617-.423-1.026-.006q-3.285,3.349-6.63,6.638c-.554.548-1.061,1.548-1.7,1.49-.613-.056-1.158-.963-1.714-1.516-1.6-1.584-1.579-1.577-3.128.125-.3.328-.258.5.024.774,1.5,1.477,2.991,2.96,4.463,4.465.321.329.493.235.765-.038q5.012-5.032,10.04-10.048a4.79,4.79,0,0,0,.328-.41" transform="translate(-30.978 -20.851)" fill="#bbda89"/>
        <path id="Trazado_655617" data-name="Trazado 655617" d="M16.342,128.253a17.481,17.481,0,0,1,9.4-7.379c5.714-1.786,11.329-1.733,16.4,1.928a14.832,14.832,0,0,1,6.376,12.28c.082,4,0,8.008.034,12.012.005.654-.161.837-.822.826-2.484-.041-4.969-.007-7.454-.02a2.8,2.8,0,0,1-2.967-2.973c-.011-2.66,0-5.32,0-7.979a8.42,8.42,0,0,0-8.681-8.694c-4.029-.009-8.059,0-12.282,0" transform="translate(-10.596 -77.627)" fill="#a97a4d"/>
        <path id="Trazado_655618" data-name="Trazado 655618" d="M171.958,16.637c-4.152,0-8.126,0-12.1,0a8.432,8.432,0,0,0-8.826,8.809c0,2.571,0,5.143,0,7.714a2.845,2.845,0,0,1-3.081,3.126c-2.484.006-4.968-.011-7.452.012-.516,0-.711-.114-.708-.675.025-4.237-.055-8.475.037-12.71A15.437,15.437,0,0,1,153.2,8.369c5.481-.626,10.526.393,14.9,3.925a16.513,16.513,0,0,1,3.857,4.343" transform="translate(-90.63 -5.314)" fill="#656c76"/>
        <path id="Trazado_655619" data-name="Trazado 655619" d="M114.439,151.928h.942q14.077,0,28.155-.017c.713,0,.918.144.912.891q-.056,7.585,0,15.171c0,.65-.146.817-.808.815q-13.946-.036-27.892,0c-.652,0-.821-.149-.814-.809.036-3.653,0-7.308.024-10.962a21.967,21.967,0,0,0-.515-5.088m9.939,1.856c-.13.108-.244.188-.343.285-.354.348-.679.73-1.061,1.044-.5.414-.574.712-.034,1.211,1.222,1.129,2.354,2.354,3.555,3.506.4.384.462.616.018,1.025-.923.85-1.787,1.764-2.675,2.652-1.49,1.49-1.475,1.475.051,2.992.383.381.583.39.958,0,1.192-1.244,2.45-2.425,3.635-3.675.417-.44.647-.383,1.026.019.861.914,1.757,1.795,2.66,2.668.479.463.9,1.326,1.457,1.273.524-.05.95-.871,1.469-1.29s.38-.687-.033-1.084c-1.222-1.172-2.389-2.4-3.612-3.574-.383-.368-.421-.58-.012-.961.919-.855,1.785-1.766,2.673-2.654,1.542-1.542,1.53-1.529-.052-3.06-.363-.352-.558-.339-.9.012-1.2,1.238-2.451,2.424-3.636,3.674-.437.461-.68.407-1.089-.021-1.17-1.225-2.385-2.405-3.585-3.6-.142-.142-.294-.274-.472-.439" transform="translate(-74.198 -98.494)" fill="#f5d67e"/>
        <path id="Trazado_655620" data-name="Trazado 655620" d="M71.871,16.366c-.622.826-1.238,1.627-1.833,2.443-.248.34-.585.2-.881.2q-8.028.014-16.055.007c-5.878,0-11.756.014-17.634-.018-.707,0-.846.206-.844.868q.036,10.395,0,20.789c0,.729.238.833.88.832,10.206-.019,20.412,0,30.618-.031.728,0,.922.165.9.9-.055,1.927-.017,1.928-1.957,1.928-1.9,0-3.8.027-5.7-.015-.657-.014-.892.122-.875.84.053,2.191.02,4.385.019,6.578,0,.377.068.812-.4.961-.432.136-.609-.259-.826-.517-2.044-2.444-4.092-4.885-6.113-7.348a1.267,1.267,0,0,0-1.106-.509q-7.5.024-15,.009c-2.147,0-3.223-1.073-3.225-3.239q-.008-10.789,0-21.579c0-2.2,1.08-3.255,3.294-3.255q17.766,0,35.531,0a2.045,2.045,0,0,1,1.216.154" transform="translate(-20.635 -10.499)" fill="#e3e6e9"/>
        <path id="Trazado_655621" data-name="Trazado 655621" d="M107.8,135.993h34.668c2.206,0,3.271,1.069,3.271,3.285q0,10.746,0,21.492c0,2.22-1.065,3.294-3.263,3.3-4.913,0-9.826.017-14.739-.018a1.757,1.757,0,0,0-1.528.747c-1.961,2.4-3.957,4.769-5.946,7.145-.214.256-.391.638-.836.478s-.36-.548-.36-.894c0-2.251-.021-4.5.014-6.755.009-.578-.154-.724-.722-.716-2.339.033-4.679-.008-7.018.029-.588.009-.714-.17-.711-.728.011-2.094-.01-2.094,2.049-2.094,9.768,0,19.536-.012,29.3.022.832,0,.971-.248.968-1.007q-.043-10.263.006-20.527c.005-.84-.259-.965-1.011-.964-10.616.024-21.232.009-31.848.034a1.1,1.1,0,0,1-1.229-.786,21.831,21.831,0,0,0-1.067-2.039" transform="translate(-69.895 -88.173)" fill="#e5e8eb"/>
        <path id="Trazado_655622" data-name="Trazado 655622" d="M108.2,112.453c1.934-.794,2.62-1.822,2.629-3.749.006-1.342.018-2.684-.008-4.026-.009-.457.059-.672.6-.659q2.274.056,4.551,0c.5-.012.559.188.556.606-.015,2.421-.007,4.843-.008,7.264,0,.28.088.577-.4.573-2.576-.019-5.152-.009-7.917-.009" transform="translate(-70.15 -67.442)" fill="#f7f9fa"/>
        <path id="Trazado_655623" data-name="Trazado 655623" d="M98.324,124.338l.07.189-.218,0,.147-.193" transform="translate(-63.655 -80.617)" fill="#f7f9fa"/>
        <path id="Trazado_655624" data-name="Trazado 655624" d="M209.33,56.085a1.308,1.308,0,0,1,1.6.853,1.265,1.265,0,0,0,2.251-.252.839.839,0,0,1,1.024-.607c.347.032.7.006,1.049.006,1.038,0,1.038,0,.789.988a4.2,4.2,0,0,1-4.06,3.222,4.264,4.264,0,0,1-4.125-3.266c-.209-.781-.045-1.087.78-.949a5.166,5.166,0,0,0,.693,0" transform="translate(-134.715 -36.34)" fill="#030202"/>
        <path id="Trazado_655625" data-name="Trazado 655625" d="M17.633,167.854a1.312,1.312,0,0,1,1.6.846,1.267,1.267,0,0,0,2.253-.237.838.838,0,0,1,1.017-.616,4.319,4.319,0,0,0,1.135,0c.939-.15.9.306.722.992a4.2,4.2,0,0,1-8.157.051c-.268-1.033-.268-1.033.82-1.034h.609" transform="translate(-10.41 -108.806)" fill="#030202"/>
        <path id="Trazado_655626" data-name="Trazado 655626" d="M85.387,39.632a4.79,4.79,0,0,1-.328.41q-5.02,5.024-10.04,10.048c-.273.274-.444.367-.765.038-1.472-1.5-2.964-2.987-4.463-4.465-.283-.279-.323-.446-.024-.774,1.549-1.7,1.533-1.709,3.128-.125.556.552,1.1,1.46,1.714,1.516.644.058,1.151-.942,1.7-1.49q3.336-3.3,6.63-6.638c.409-.417.658-.434,1.026.006.337.4.738.749,1.108,1.123.1.1.192.216.31.35" transform="translate(-45.1 -24.531)" fill="#050603"/>
        <path id="Trazado_655627" data-name="Trazado 655627" d="M139.362,157.239c.178.165.329.3.472.439,1.2,1.2,2.415,2.377,3.585,3.6.409.429.652.483,1.089.021,1.185-1.25,2.438-2.436,3.636-3.674.34-.351.535-.363.9-.012,1.582,1.531,1.594,1.517.052,3.06-.888.888-1.755,1.8-2.673,2.654-.409.381-.371.592.012.961,1.222,1.172,2.39,2.4,3.612,3.574.414.4.549.668.033,1.084s-.946,1.241-1.469,1.29c-.553.053-.978-.81-1.457-1.273-.9-.873-1.8-1.754-2.66-2.668-.379-.4-.609-.459-1.026-.019-1.185,1.25-2.443,2.431-3.635,3.675-.376.392-.575.383-.958,0-1.526-1.518-1.541-1.5-.051-2.992.888-.888,1.751-1.8,2.675-2.652.445-.41.383-.641-.018-1.025-1.2-1.152-2.333-2.377-3.555-3.507-.539-.5-.469-.8.034-1.211.382-.314.706-.7,1.061-1.044.1-.1.212-.177.343-.285" transform="translate(-89.182 -101.949)" fill="#050503"/>
      </g>
    </g>
  </g>
</svg>
