<svg xmlns="http://www.w3.org/2000/svg" xmlns:xlink="http://www.w3.org/1999/xlink" width="295" height="262.038" viewBox="0 0 295 262.038">
  <defs>
    <clipPath id="clip-path">
      <rect id="Rectángulo_309868" data-name="Rectángulo 309868" width="236.252" height="262.038" fill="none"/>
    </clipPath>
    <clipPath id="clip-path-3">
      <rect id="Rectángulo_309858" data-name="Rectángulo 309858" width="0.42" height="0.461" fill="none"/>
    </clipPath>
    <clipPath id="clip-path-4">
      <rect id="Rectángulo_309859" data-name="Rectángulo 309859" width="28.573" height="29.498" fill="none"/>
    </clipPath>
    <clipPath id="clip-path-5">
      <rect id="Rectángulo_309860" data-name="Rectángulo 309860" width="23.794" height="19.732" fill="none"/>
    </clipPath>
    <clipPath id="clip-path-6">
      <rect id="Rectángulo_309861" data-name="Rectángulo 309861" width="49.193" height="49.661" fill="none"/>
    </clipPath>
    <clipPath id="clip-path-7">
      <rect id="Rectángulo_309862" data-name="Rectángulo 309862" width="33.375" height="26.682" fill="none"/>
    </clipPath>
    <clipPath id="clip-path-8">
      <rect id="Rectángulo_309863" data-name="Rectángulo 309863" width="66.204" height="66.893" fill="none"/>
    </clipPath>
    <clipPath id="clip-path-9">
      <rect id="Rectángulo_309864" data-name="Rectángulo 309864" width="0.427" height="0.487" fill="none"/>
    </clipPath>
    <clipPath id="clip-path-10">
      <rect id="Rectángulo_309865" data-name="Rectángulo 309865" width="38.639" height="51.443" fill="none"/>
    </clipPath>
    <clipPath id="clip-path-11">
      <rect id="Rectángulo_309866" data-name="Rectángulo 309866" width="53.853" height="34.467" fill="none"/>
    </clipPath>
  </defs>
  <g id="Grupo_995672" data-name="Grupo 995672" transform="translate(-285 -420.685)">
    <g id="Grupo_995671" data-name="Grupo 995671" transform="translate(317.494 420.685)">
      <g id="Grupo_995670" data-name="Grupo 995670" clip-path="url(#clip-path)">
        <g id="Grupo_995669" data-name="Grupo 995669">
          <g id="Grupo_995668" data-name="Grupo 995668" clip-path="url(#clip-path)">
            <path id="Trazado_654295" data-name="Trazado 654295" d="M236.252,117.873V262.038H0V118.12c0-.353,0-.706.011-1.058a113.9,113.9,0,0,1,1.094-15.069c.012-.107.023-.2.036-.318a1.692,1.692,0,0,1,.036-.258c.235-1.683.505-3.341.824-4.989V96.4A112.264,112.264,0,0,1,4.928,84.288c.211-.706.424-1.411.648-2.118q1.058-3.352,2.317-6.587A118.2,118.2,0,0,1,170.562,12.258a6.973,6.973,0,0,1,.73.365,117.478,117.478,0,0,1,22.339,14.646c.165.129.317.258.47.387,1.73,1.459,3.413,2.953,5.059,4.506.188.189.388.365.577.553.647.612,1.282,1.235,1.918,1.871a118.84,118.84,0,0,1,19.728,26.127c.106.177.2.353.294.53a117.7,117.7,0,0,1,6.8,14.657,114.1,114.1,0,0,1,3.717,11.434c.693,2.588,1.306,5.2,1.811,7.847a112.945,112.945,0,0,1,1.717,11.9c.025.152.036.317.048.482q.459,5.1.482,10.305" fill="#ffcb7d"/>
            <path id="Trazado_654296" data-name="Trazado 654296" d="M153.493,38.532H73.464a26.319,26.319,0,0,1,2.695-2.271c3.47-2.518,7.87-4,12.093-3.236,2.693.5,5.34,1.871,8.046,1.4,2.448-.423,4.353-2.246,6.235-3.87A49.759,49.759,0,0,1,121.167,20.51,29.133,29.133,0,0,1,133.1,19.321c9.564,1.33,17.139,9.482,20.3,18.611Z" transform="translate(16.848 4.384)" fill="#fee8e8"/>
            <path id="Trazado_654298" data-name="Trazado 654298" d="M97.9,16.028l-3.313,1.281a5.446,5.446,0,0,0-3.111,3.111L90.2,23.734l-1.281-3.313a5.44,5.44,0,0,0-3.11-3.111l-3.313-1.281L85.8,14.747a5.433,5.433,0,0,0,3.11-3.111L90.2,8.324l1.281,3.312a5.439,5.439,0,0,0,3.111,3.111Z" transform="translate(18.918 1.909)" fill="#fff"/>
            <path id="Trazado_654299" data-name="Trazado 654299" d="M186.172,107.957l-3.313,1.281a5.437,5.437,0,0,0-3.11,3.111l-1.281,3.312-1.281-3.312a5.443,5.443,0,0,0-3.111-3.111l-3.313-1.281,3.313-1.281a5.439,5.439,0,0,0,3.111-3.111l1.281-3.312,1.281,3.312a5.433,5.433,0,0,0,3.11,3.111Z" transform="translate(39.161 22.991)" fill="#fff"/>
            <path id="Trazado_654300" data-name="Trazado 654300" d="M25.582,175.325l-3.313,1.281a5.446,5.446,0,0,0-3.111,3.111l-1.281,3.313-1.28-3.313a5.446,5.446,0,0,0-3.111-3.111l-3.313-1.281,3.313-1.281a5.439,5.439,0,0,0,3.111-3.111l1.28-3.312,1.281,3.312a5.439,5.439,0,0,0,3.111,3.111Z" transform="translate(2.333 38.441)" fill="#fff"/>
            <path id="Trazado_654301" data-name="Trazado 654301" d="M187.041,55.626a21.523,21.523,0,1,1-27.28-33.057c-.154-.129-.306-.258-.471-.387a22.108,22.108,0,1,0,28.045,33.974c-.093-.177-.188-.353-.294-.53" transform="translate(34.342 5.087)" fill="#fff"/>
            <path id="Trazado_654302" data-name="Trazado 654302" d="M7.987,108.563A22.019,22.019,0,0,0,0,110.057v.636a21.239,21.239,0,0,1,7.987-1.542,21.528,21.528,0,0,1,0,43.056A21.215,21.215,0,0,1,0,150.665v.636a22.115,22.115,0,1,0,7.987-42.738" transform="translate(0 24.897)" fill="#fff"/>
            <path id="Trazado_654304" data-name="Trazado 654304" d="M131.169,88.954c-8.371,4.253-13.875,12.947-16,22.092-.979,4.2-1.44,8.792-4.228,12.086-3.039,3.592-8.115,4.744-11.639,7.862a13.386,13.386,0,0,0-4.455,9.932c.007,2.733.8,5.743-.723,8.014-1.271,1.9-3.721,2.556-5.521,3.961-3.71,2.9-4.063,8.373-3.344,13.025a2.864,2.864,0,0,1,1.454.4h53.019c1.094-9.949,2.062-19.809,3.156-29.758,1.372-12.483,2.664-25.587-2.13-37.195-1.964-4.754-4.868-8.361-9.584-10.416" transform="translate(19.482 20.4)" fill="#2d1026"/>
            <path id="Trazado_654305" data-name="Trazado 654305" d="M136.369,167.611c15.509,1.266,31.274,2.021,46.785,3.287a11,11,0,0,0-1.808-10.228c-2.169-2.762-5.767-4.848-6.325-8.223-.567-3.425,2.3-6.488,3.019-9.889.669-3.154-.6-6.458-2.689-9.026a30.894,30.894,0,0,0-7.822-6.3,6.086,6.086,0,0,1-2.729-2.6,4.817,4.817,0,0,1-.052-2.556c.993-5.565,3.758-11.171,2.2-16.623-1.024-3.57-3.788-6.487-6.749-8.964-4.411-3.69-9.709-6.813-15.625-7.367-.822,20.184-2.057,40.213-2.879,60.4a105.909,105.909,0,0,1-1.379,15.374c-1.517.84-2.38,1.958-3.942,2.723" transform="translate(31.274 20.438)" fill="#2d1026"/>
            <path id="Trazado_654306" data-name="Trazado 654306" d="M211.8,228.8H78.62c1.105-5.36,2.639-12.333,4.645-20.172,1.73-6.764,3.884-14.327,6.355-21.518.152-.447.306-.895.471-1.341,1.258-3.624,2.612-7.129,4.047-10.424a73.024,73.024,0,0,1,7.446-13.681,28.231,28.231,0,0,1,4.517-5.034,15.3,15.3,0,0,1,2.811-1.918c.814-.424,1.612-.836,2.376-1.223a130.751,130.751,0,0,1,15.835-7.012c.165-.07.353-.117.505-.188,4.117-1.376,5.682-1.365,5.94-1.352h.036l8.458.306,12.352.446,10.882.4s1.517.235,3.976.847c.177.034.376.093.566.129,5.587,1.424,15.327,4.588,23.292,10.775a38.968,38.968,0,0,1,5.847,5.553c8.658,10.258,11.787,47.067,12.822,65.407" transform="translate(18.03 33.238)" fill="#e6e2fb"/>
            <path id="Trazado_654307" data-name="Trazado 654307" d="M166.57,178.082c.376,14.328,1.094,28.809,2.153,43.173h-.518c-1.035-14.364-1.753-28.833-2.14-43.162a.251.251,0,0,1,.247-.258.258.258,0,0,1,.258.247" transform="translate(38.084 40.783)" fill="#fedede"/>
            <path id="Trazado_654308" data-name="Trazado 654308" d="M160.788,146.817a28.56,28.56,0,0,1-20.6,9.595h-.467a28.508,28.508,0,0,1-21.645-10.19c.17-.064.35-.117.51-.181a27.489,27.489,0,0,0,41.642.638c.181.042.371.095.563.138" transform="translate(27.078 33.492)" fill="#fedede"/>
            <path id="Trazado_654309" data-name="Trazado 654309" d="M124.133,134.133l-.932,16.238s2.144,3.221,13.252,5.671,18.624-6.949,18.624-6.949a39.4,39.4,0,0,1-1.593-8.233,56.84,56.84,0,0,1,1.033-8.983l-11.125.83Z" transform="translate(28.254 30.244)" fill="#ffa3a3"/>
            <path id="Trazado_654310" data-name="Trazado 654310" d="M124.075,133.978l-.621,10.808a7.712,7.712,0,0,0,.867.435,14.118,14.118,0,0,0,7.1.873c6.276-.672,11.878-4.239,16.716-8.3l-2.6.012a11.322,11.322,0,0,0-2.2-5.259Z" transform="translate(28.312 30.398)" fill="#2d1026"/>
            <path id="Trazado_654311" data-name="Trazado 654311" d="M170.843,139.4a10.951,10.951,0,0,1-5.78,2.922c-.17.021-.744.021-1.508.011-2.178-.086-5.919-.416-5.919-1.02-.128.361-.254.744-.371,1.137v.021a66.019,66.019,0,0,0-1.647,7.4s-3.475.627-8.427,1.115c-5.875.585-13.845.967-20.592-.095-5.026-.808-9.382-2.412-11.709-5.345-5.43-6.842-4.016-15.833-3.719-21.666a90.116,90.116,0,0,1,1.551-14.08,38.055,38.055,0,0,1,1.838-6.174,26.954,26.954,0,0,1,3.613-6.556,22.447,22.447,0,0,1,12.921-8.4,23.711,23.711,0,0,1,5.3-.627c.286-.01.573,0,.849,0h.256a1.448,1.448,0,0,1,.3.011c.243.011.5.011.733.032.521.021,1.03.064,1.562.138a40.476,40.476,0,0,1,5.323.936,25.889,25.889,0,0,1,4.8,1.721,25.227,25.227,0,0,1,14.259,23.43,57.939,57.939,0,0,1-2.007,11.189c-.032.127-.064.275-.107.4a1.356,1.356,0,0,1,.288-.488c.053-.043.117-.1.181-.15a7.216,7.216,0,0,1,3.527-.977,6.3,6.3,0,0,1,4.027,1.456h.011a5.165,5.165,0,0,1,.425.361,8.342,8.342,0,0,1,1.115,1.18,9.258,9.258,0,0,1-1.094,12.124" transform="translate(25.406 20.188)" fill="#ffa3a3"/>
            <path id="Trazado_654312" data-name="Trazado 654312" d="M121.724,123.1a.241.241,0,0,1-.13-.037,5.843,5.843,0,0,1-1.324-.986,3.851,3.851,0,0,1-.634-3.842,7.089,7.089,0,0,1,2.375-3.1.252.252,0,0,1,.318.391,6.609,6.609,0,0,0-2.216,2.877,3.34,3.34,0,0,0,.529,3.334,5.479,5.479,0,0,0,1.215.9.252.252,0,0,1-.132.467" transform="translate(27.38 26.39)" fill="#2d1026"/>
            <path id="Trazado_654313" data-name="Trazado 654313" d="M122.446,124.836a3.972,3.972,0,0,1-2.91-1.275.252.252,0,0,1,.372-.339,3.5,3.5,0,0,0,3.028,1.073,6.428,6.428,0,0,0,2.3-.985.256.256,0,0,1,.347.084.253.253,0,0,1-.084.347,6.843,6.843,0,0,1-2.492,1.054,3.805,3.805,0,0,1-.566.042" transform="translate(27.398 28.24)" fill="#2d1026"/>
            <path id="Trazado_654314" data-name="Trazado 654314" d="M114.474,108.61a.73.73,0,0,0-.119.417.719.719,0,0,0,.447.5,5.136,5.136,0,0,0,1.694.408,18.1,18.1,0,0,0,3.059.2c.658-.032,1.422-.218,1.674-.826a1.247,1.247,0,0,0-.268-1.256,2.593,2.593,0,0,0-1.146-.692c-1.828-.624-4.274-.684-5.341,1.25" transform="translate(26.225 24.532)" fill="#2d1026"/>
            <path id="Trazado_654315" data-name="Trazado 654315" d="M137.244,112.338a.734.734,0,0,1,.017.433.712.712,0,0,1-.552.38,5.18,5.18,0,0,1-1.742,0,17.994,17.994,0,0,1-3.02-.526c-.632-.186-1.331-.547-1.433-1.2a1.251,1.251,0,0,1,.558-1.158,2.588,2.588,0,0,1,1.276-.4c1.924-.176,4.315.344,4.9,2.475" transform="translate(29.928 25.188)" fill="#2d1026"/>
            <path id="Trazado_654316" data-name="Trazado 654316" d="M129.825,116.317a2.426,2.426,0,1,0,2.719-2.092,2.427,2.427,0,0,0-2.719,2.092" transform="translate(29.768 26.191)" fill="#2d1026"/>
            <path id="Trazado_654317" data-name="Trazado 654317" d="M114.9,113.559a2.426,2.426,0,1,0,2.719-2.092,2.427,2.427,0,0,0-2.719,2.092" transform="translate(26.346 25.558)" fill="#2d1026"/>
            <path id="Trazado_654318" data-name="Trazado 654318" d="M150.037,130.445a.259.259,0,0,0,.293-.165,21.99,21.99,0,0,1,2.507-5.173,9.17,9.17,0,0,1,4.314-3.469,5.536,5.536,0,0,1,5.19.7.257.257,0,0,0,.317-.406,6.058,6.058,0,0,0-5.675-.783,9.664,9.664,0,0,0-4.566,3.66,22.314,22.314,0,0,0-2.571,5.295.255.255,0,0,0,.154.328.211.211,0,0,0,.037.011" transform="translate(34.361 27.7)" fill="#2d1026"/>
            <g id="Grupo_995643" data-name="Grupo 995643" transform="translate(196.318 145.963)" opacity="0.27">
              <g id="Grupo_995642" data-name="Grupo 995642">
                <g id="Grupo_995641" data-name="Grupo 995641" clip-path="url(#clip-path-3)">
                  <path id="Trazado_654319" data-name="Trazado 654319" d="M159.695,118.973c.128.063.242.149.369.221.01-.157.031-.3.052-.461a1.429,1.429,0,0,0-.42.24" transform="translate(-159.695 -118.734)" fill="#2d1026"/>
                </g>
              </g>
            </g>
            <path id="Trazado_654320" data-name="Trazado 654320" d="M156.762,125.369c-3.079,1.307-4.465,2.9-7.031,5.041-1.243-.712-2.3-3.629-2.188-5.056a2.068,2.068,0,0,0-.043-1.028,1.612,1.612,0,0,0-1.03-.709,12.489,12.489,0,0,1-4.095-1.915,5.68,5.68,0,0,1-2.005-4.491c.058-1.629.779-3.436-.155-4.77a6.77,6.77,0,0,0-1.473-1.288,9.079,9.079,0,0,1-3.07-6.841,24.952,24.952,0,0,1,1.27-7.6c.727-2.58,3.44-4.5,5.366-6.364a2.49,2.49,0,0,1,1.062-.715,2.25,2.25,0,0,1,1.145.092,15.1,15.1,0,0,1,5.421,3.063,28,28,0,0,1,9.211,14.082c1.5,5.5,2.678,13.209-2.386,18.5" transform="translate(31.112 20.546)" fill="#2d1026"/>
            <path id="Trazado_654321" data-name="Trazado 654321" d="M113.084,101.957c5.708,2.311,10.735,1.036,15-3.4,4.359.77,8.915,1.142,13.16-.12s8.136-4.44,9.2-8.737c-5.815-1.881-11.611-3.266-17.693-2.661-8.876.883-15.464,7.059-19.671,14.923" transform="translate(25.934 19.927)" fill="#2d1026"/>
            <path id="Trazado_654322" data-name="Trazado 654322" d="M155.916,132.13a2.713,2.713,0,1,1-2.713-2.713,2.713,2.713,0,0,1,2.713,2.713" transform="translate(34.512 29.679)" fill="#fff"/>
            <path id="Trazado_654323" data-name="Trazado 654323" d="M152.073,221.334H14.708c2.223-9.505,5.87-21.2,11.2-27.527,2.588-3.071,6.658-5.682,11.223-7.847l1.235-.564c1.211-.541,2.434-1.058,3.682-1.542a125.047,125.047,0,0,1,16-4.846l.141-.036c.141-.023.27-.059.4-.093,2.33-.53,4.212-.918,5.4-1.142.071-.011.13-.023.189-.034a2.437,2.437,0,0,0,.3-.059h.012c.577-.106.883-.154.883-.154l33.374.4H98.8a33.007,33.007,0,0,1,3.34.141c.765.059,1.636.14,2.612.27a63.8,63.8,0,0,1,16.539,4.493c.2.082.412.165.623.27.012,0,.025.012.036.012.988.423,1.988.881,3,1.411.036.012.082.023.118.036.494.247.988.505,1.494.776a.037.037,0,0,0,.023.012,5.235,5.235,0,0,1,.518.283c.213.117.424.235.648.353a1.084,1.084,0,0,0,.117.07,60.631,60.631,0,0,1,6.294,4.083,33.452,33.452,0,0,1,3.729,3.211.681.681,0,0,1,.13.129c.152.154.306.306.446.459a4.544,4.544,0,0,1,.329.342,41.624,41.624,0,0,1,4.776,6.164,61.651,61.651,0,0,1,5.941,12.27v.012c.8,2.223,1.47,4.423,2.035,6.528.188.718.377,1.424.53,2.118" transform="translate(3.373 40.704)" fill="#fedede"/>
            <path id="Trazado_654324" data-name="Trazado 654324" d="M146.846,212.231c-.283,2.435-.623,5.093-1.024,7.847v.011c-.4,2.835-.859,5.777-1.329,8.647H118.518c-1.105-13.129-2.423-26.986-3.248-29.056-.692-1.742-7.316-7.082-14.679-12.635-.708-.541-1.425-1.082-2.143-1.612-1.129-.847-2.271-1.682-3.387-2.518a4.779,4.779,0,0,1-.412-.294c-2.047-1.494-4.036-2.93-5.87-4.271,0,0,0,.012-.012,0-5.317-3.834-9.3-6.622-9.3-6.622L72.4,173.435l-1.189.282-1.2.3h-.011l-5.188,1.247a.266.266,0,0,0-.036.047c-.095.141-.483.706-.965,1.518v.011c-1.129,1.918-2.846,5.247-3.023,8.187v.023a6.519,6.519,0,0,0,.059,1.365.209.209,0,0,0,.011.082,2.882,2.882,0,0,0,.082.447c.025.082.048.177.071.259.036.117.07.246.118.423v.012c1.058,4.622,3.705,28.009,5.14,41.1H43.089c-.353-1.224-.717-2.518-1.117-3.882-.317-1.141-.659-2.317-1-3.542-.036-.106-.059-.211-.095-.317-.023-.082-.047-.176-.07-.27-.27-.917-.53-1.871-.811-2.824q-.231-.846-.46-1.694a.043.043,0,0,1-.011-.034C37.8,209.984,36,203.385,34.49,197.515c-.365-1.436-.718-2.824-1.047-4.153-1.07-4.364-1.893-8.071-2.269-10.506-1.907-12.21,3.881-34.279,3.881-34.279l16.222-.741,7.329-.342,10.128-.47,14.575-.659,5.048-.236,9.364-.435,2.282-.106.553-.023,2.623-.118,5.092-.235s.2.247.567.718c.741.94,2.162,2.752,4.047,5.175.552.718,1.14,1.494,1.786,2.317q1.129,1.483,2.4,3.141c5.53,7.211,12.705,16.763,18.681,25.292a.012.012,0,0,0,.012.012c.128.188.258.364.376.541.964,1.388,1.894,2.74,2.775,4.047.118.165.237.341.342.505,4.437,6.576,7.648,11.987,8.024,14.34.328,2.047.1,6.047-.435,10.929" transform="translate(7.061 33.302)" fill="#6f66ff"/>
            <path id="Trazado_654325" data-name="Trazado 654325" d="M128.379,56.685s10.99-11.934,11.879-11.566-1.945,8.473-1.945,8.473,10.889-9.715,12.22-8.174-7.358,9.875-7.358,9.875,9.147-5.762,10.84-4.946-7,9.151-7,9.151,8.593-4.387,9.527-3.193-7.676,7.8-7.676,7.8,4.729-2.668,5.334-1.489S137.12,74.61,137.12,74.61l-9.077-17.775Z" transform="translate(29.364 10.345)" fill="#ffa3a3"/>
            <g id="Grupo_995646" data-name="Grupo 995646" transform="translate(157.406 55.458)" opacity="0.32">
              <g id="Grupo_995645" data-name="Grupo 995645">
                <g id="Grupo_995644" data-name="Grupo 995644" clip-path="url(#clip-path-4)">
                  <path id="Trazado_654326" data-name="Trazado 654326" d="M128.379,56.685s10.99-11.934,11.879-11.566-1.945,8.473-1.945,8.473,10.889-9.715,12.22-8.174-7.358,9.875-7.358,9.875,9.147-5.762,10.84-4.946-7,9.151-7,9.151,8.593-4.387,9.527-3.193-7.676,7.8-7.676,7.8,4.729-2.668,5.334-1.489S137.12,74.61,137.12,74.61l-9.077-17.775Z" transform="translate(-128.042 -45.112)" fill="#2d1026"/>
                </g>
              </g>
            </g>
            <path id="Trazado_654327" data-name="Trazado 654327" d="M45.511,49.1c-.063,3.827-.757,7.939-3.469,10.64-1.673,1.667-3.923,2.6-5.859,3.951a16.22,16.22,0,0,0-6.5,15.853A10.36,10.36,0,0,0,31.444,83.9a10.821,10.821,0,0,0,6.275,3.713,28.316,28.316,0,0,0,9,.385c4.117-.358,8.191-1.1,12.259-1.835L76.808,82.92a5.329,5.329,0,0,0,2.094-.692,4.8,4.8,0,0,0,1.629-3.595A32.592,32.592,0,0,0,79.09,66.27c-3.1-10.9-9.46-21.2-19.039-27.264a19.22,19.22,0,0,0-6.386-2.782c-2.261-.456-6.338-.572-7.511,1.956-1.452,3.129-.59,7.583-.643,10.918" transform="translate(6.75 8.248)" fill="#2d1026"/>
            <path id="Trazado_654328" data-name="Trazado 654328" d="M79.24,33.218C83.512,38,85.745,44.255,87.248,50.489c.6,2.487,1.151,5.107,2.784,7.077,2.349,2.831,6.289,3.608,9.615,5.184a14.079,14.079,0,0,1,5.635,4.542,8.914,8.914,0,0,1,1.517,6.949,9.447,9.447,0,0,1-3.714,5.3,19.623,19.623,0,0,1-5.955,2.788c-8.548,2.643-17.67,2.564-26.614,2.319-2.5-.069-5.16-.2-7.211-1.63-2.813-1.961-3.624-5.734-3.859-9.154A50.817,50.817,0,0,1,71.369,37.791c1.4-1.639,3.011-3.252,5.087-3.829Z" transform="translate(13.607 7.618)" fill="#2d1026"/>
            <path id="Trazado_654329" data-name="Trazado 654329" d="M116.648,159.389l.894,7.716-1.646.059-.612.023-4.93.177-2.434.082-.553.023-2.706.095-9.2.329-5.082.188-14.693.529-9.976.353-3.258.118-2.271.082-1.835.071-16.235.575L46.453,120.8.01,104.994A113.482,113.482,0,0,1,1.1,89.925c.011-.106.023-.2.036-.318a1.857,1.857,0,0,1,.034-.258c.236-1.683.506-3.341.824-4.989v-.023A111.978,111.978,0,0,1,4.927,72.22c8.717.706,20.692,1.682,31.361,2.552,13.246,1.083,24.493,2.012,25,2.082.224.036,1.13.036,2.482.012h.071c2.681-.023,7.047-.129,11.223-.224.6-.023,1.2-.036,1.787-.059,5.141-.129,9.564-.258,9.564-.258h.376a1.166,1.166,0,0,0,.2-.012,90.878,90.878,0,0,0,20.6-2.717c2.6-.718,7.364-2.541,12.963-4.835,15.481-6.294,37.315-16.14,37.315-16.14l.788,1.352,10.116,17.5.494.859L110.848,109.4l4.07,35.091.071.612,1.247,10.775Z" transform="translate(0.002 12.068)" fill="#f46464"/>
            <path id="Trazado_654330" data-name="Trazado 654330" d="M68.53,87.014A22.745,22.745,0,0,0,46.6,107.33l3.046-.07,3.823-.095,4.142-.093,3.705-.082a8.235,8.235,0,0,1,15.34-.365l3.706-.082,4.14-.095,3.823-.093,3.059-.071A22.756,22.756,0,0,0,68.53,87.014" transform="translate(10.687 19.954)" fill="#ffcb7d"/>
            <path id="Trazado_654331" data-name="Trazado 654331" d="M68.032,89.5a19.7,19.7,0,0,0-18.951,17.187l3.823-.095,4.14-.093,3.706-.082a8.235,8.235,0,0,1,15.34-.365l3.705-.082,4.142-.095,3.823-.093A19.714,19.714,0,0,0,68.032,89.5" transform="translate(11.256 20.524)" fill="#ff7373"/>
            <path id="Trazado_654332" data-name="Trazado 654332" d="M67.413,92.622A15.906,15.906,0,0,0,52.19,105.88l4.142-.095,3.705-.082a8.236,8.236,0,0,1,15.34-.365l3.706-.082,4.14-.093a15.909,15.909,0,0,0-15.81-12.54" transform="translate(11.969 21.24)" fill="#6f66ff"/>
            <path id="Trazado_654333" data-name="Trazado 654333" d="M66.735,95.952a11.835,11.835,0,0,0-11.176,9.07l3.705-.082a8.236,8.236,0,0,1,15.341-.365l3.705-.082a11.812,11.812,0,0,0-11.575-8.54" transform="translate(12.741 22.004)" fill="#925cd5"/>
            <path id="Trazado_654334" data-name="Trazado 654334" d="M74.591,66.871l.425,6.717.053.783a8.107,8.107,0,0,1-7.364,8.613c-8,1.219-15.444-6.168-15.444-6.168L51.3,63.445l6.372.937Z" transform="translate(11.764 14.55)" fill="#ffa3a3"/>
            <g id="Grupo_995649" data-name="Grupo 995649" transform="translate(62.969 77.905)" opacity="0.32">
              <g id="Grupo_995648" data-name="Grupo 995648">
                <g id="Grupo_995647" data-name="Grupo 995647" clip-path="url(#clip-path-5)">
                  <path id="Trazado_654335" data-name="Trazado 654335" d="M74.517,66.8l.425,6.717.053.783s.8,7.618-7.544,8.7c-8.02,1.042-15.265-6.259-15.265-6.259l-.964-13.371,6.37.937Z" transform="translate(-51.222 -63.372)" fill="#2d1026"/>
                </g>
              </g>
            </g>
            <path id="Trazado_654336" data-name="Trazado 654336" d="M73.727,66.7l.425,6.717a2.56,2.56,0,0,1-.363.248,7.171,7.171,0,0,1-3.409.786,21.818,21.818,0,0,1-8.605-1.255c-2.246-.863-5.45-2.609-6.474-4.949-.69-1.6.2-3.011,1.5-4.036Z" transform="translate(12.627 14.725)" fill="#2d1026"/>
            <path id="Trazado_654337" data-name="Trazado 654337" d="M90.037,57.8c.2,4.567,1.261,11.594-3,16.918C80.669,82.665,55.164,77.9,55.164,77.9a47.9,47.9,0,0,0-1.535-6.7c.1.643-5.274.857-5.8.761a8.512,8.512,0,0,1-4.514-2.306,7.247,7.247,0,0,1-.79-9.483A5.576,5.576,0,0,1,46.9,57.86a5.675,5.675,0,0,1,2.751.777.889.889,0,0,1,.354.5,46.891,46.891,0,0,1-1.592-9.065A19.683,19.683,0,0,1,63.434,30.5a30.684,30.684,0,0,1,4.169-.712c.411-.05.806-.089,1.215-.106.192-.014.385-.012.577-.018a2.139,2.139,0,0,1,.234,0c.064,0,.129,0,.193,0,.225,0,.45-.006.676,0a17.78,17.78,0,0,1,14.2,7.152,24.813,24.813,0,0,1,4.2,9.981A69.4,69.4,0,0,1,90.037,57.8" transform="translate(9.427 6.801)" fill="#ffa3a3"/>
            <g id="Grupo_995652" data-name="Grupo 995652" transform="translate(50.534 36.457)" opacity="0.32">
              <g id="Grupo_995651" data-name="Grupo 995651">
                <g id="Grupo_995650" data-name="Grupo 995650" clip-path="url(#clip-path-6)">
                  <path id="Trazado_654338" data-name="Trazado 654338" d="M90.037,57.8c.2,4.567,1.261,11.594-3,16.918C80.669,82.665,55.164,77.9,55.164,77.9a47.9,47.9,0,0,0-1.535-6.7c.1.643-5.274.857-5.8.761a8.512,8.512,0,0,1-4.514-2.306,7.247,7.247,0,0,1-.79-9.483A5.576,5.576,0,0,1,46.9,57.86a5.675,5.675,0,0,1,2.751.777.889.889,0,0,1,.354.5,46.891,46.891,0,0,1-1.592-9.065A19.683,19.683,0,0,1,63.434,30.5a30.684,30.684,0,0,1,4.169-.712c.411-.05.806-.089,1.215-.106.192-.014.385-.012.577-.018a2.139,2.139,0,0,1,.234,0c.064,0,.129,0,.193,0,.225,0,.45-.006.676,0a17.78,17.78,0,0,1,14.2,7.152,24.813,24.813,0,0,1,4.2,9.981A69.4,69.4,0,0,1,90.037,57.8" transform="translate(-41.107 -29.656)" fill="#2d1026"/>
                </g>
              </g>
            </g>
            <path id="Trazado_654339" data-name="Trazado 654339" d="M67.7,56.5l6.85.881s-1.288,3.934-4.476,3.324S67.7,56.5,67.7,56.5" transform="translate(15.503 12.957)" fill="#fedede"/>
            <path id="Trazado_654340" data-name="Trazado 654340" d="M66.625,52.276a2.238,2.238,0,1,1-2.5-1.946,2.236,2.236,0,0,1,2.5,1.946" transform="translate(14.257 11.538)" fill="#2d1026"/>
            <path id="Trazado_654341" data-name="Trazado 654341" d="M79.7,51.2a2.238,2.238,0,1,1-2.5-1.946A2.236,2.236,0,0,1,79.7,51.2" transform="translate(17.255 11.292)" fill="#2d1026"/>
            <path id="Trazado_654342" data-name="Trazado 654342" d="M52.292,62.736a.2.2,0,0,1-.227-.13,17.234,17.234,0,0,0-1.935-4.057,7.184,7.184,0,0,0-3.355-2.733,4.33,4.33,0,0,0-4.062.525.2.2,0,0,1-.282-.037.2.2,0,0,1,.036-.282,4.735,4.735,0,0,1,4.44-.585A7.558,7.558,0,0,1,50.46,58.32a17.488,17.488,0,0,1,1.984,4.151.2.2,0,0,1-.122.256.135.135,0,0,1-.029.009" transform="translate(9.721 12.645)" fill="#2d1026"/>
            <path id="Trazado_654343" data-name="Trazado 654343" d="M72.691,56.476a.252.252,0,0,1-.089-.488,2.225,2.225,0,0,0,1.162-2.427,7.065,7.065,0,0,0-1.352-2.8.253.253,0,0,1,.418-.284,7.467,7.467,0,0,1,1.433,3.012A2.734,2.734,0,0,1,72.78,56.46a.25.25,0,0,1-.089.016" transform="translate(16.596 11.55)" fill="#2d1026"/>
            <path id="Trazado_654344" data-name="Trazado 654344" d="M60.809,49.184A.252.252,0,0,1,60.6,48.8a3.56,3.56,0,0,1,1.859-1.5,2.512,2.512,0,0,1,2.371.411.252.252,0,0,1-.325.386,2.033,2.033,0,0,0-1.894-.315,3.048,3.048,0,0,0-1.588,1.287.25.25,0,0,1-.211.116" transform="translate(13.888 10.817)" fill="#2d1026"/>
            <path id="Trazado_654345" data-name="Trazado 654345" d="M78.926,47.6a.251.251,0,0,1-.231-.151,1.538,1.538,0,0,0-1.4-.838h0a2.493,2.493,0,0,0-1.64.707.252.252,0,0,1-.339-.374,3,3,0,0,1,1.979-.837h0a2.024,2.024,0,0,1,1.86,1.141.252.252,0,0,1-.13.332.264.264,0,0,1-.1.021" transform="translate(17.253 10.574)" fill="#2d1026"/>
            <path id="Trazado_654346" data-name="Trazado 654346" d="M43.9,58.716a8.078,8.078,0,0,1,6.831,1.615,27.791,27.791,0,0,1,2.074,2.078.5.5,0,0,0,.286.181c.226.021.359-.242.423-.46a24.964,24.964,0,0,0,.45-8.407A21.046,21.046,0,0,0,61.13,32.838c-.338-1.417-.92-3.1-2.331-3.453a5.017,5.017,0,0,0-2.336.107,26.929,26.929,0,0,0-5.692,2.193,17.606,17.606,0,0,0-5.2,3.456c-2.711,2.869-3.434,7.12-3.189,11.062s1.312,7.789,1.65,11.723c.01.114.047.258.161.273s-.214.433-.291.518" transform="translate(9.709 6.717)" fill="#2d1026"/>
            <path id="Trazado_654347" data-name="Trazado 654347" d="M63.337,48.16c-.543-2.736-1.013-7.59-2.063-10.174a14.811,14.811,0,0,0-4.925-6.631c-.491-.344-.906-1.012-1.383-1.378A31.31,31.31,0,0,1,71.4,27.007a17.925,17.925,0,0,1,5.993,1.3A15.985,15.985,0,0,1,82.756,32.5c2.135,2.429,4.145,8.293,5.268,11.326-7.938,2.481-16.462,3.108-24.687,4.34" transform="translate(12.605 6.17)" fill="#2d1026"/>
            <path id="Trazado_654348" data-name="Trazado 654348" d="M89.3,167.015v17.1s-2.445,3.252-14.25,5.155-19.126-8.416-19.126-8.416a41.412,41.412,0,0,0,2.167-8.544,59.593,59.593,0,0,0-.541-9.488l11.623,1.54Z" transform="translate(12.825 37.339)" fill="#ffa3a3"/>
            <g id="Grupo_995655" data-name="Grupo 995655" transform="translate(68.751 200.157)" opacity="0.32">
              <g id="Grupo_995654" data-name="Grupo 995654">
                <g id="Grupo_995653" data-name="Grupo 995653" clip-path="url(#clip-path-7)">
                  <path id="Trazado_654349" data-name="Trazado 654349" d="M89.3,167.015v17.1s-2.445,3.252-14.25,5.155-19.126-8.416-19.126-8.416a41.412,41.412,0,0,0,2.167-8.544,59.593,59.593,0,0,0-.541-9.488l11.623,1.54Z" transform="translate(-55.925 -162.818)" fill="#2d1026"/>
                </g>
              </g>
            </g>
            <path id="Trazado_654350" data-name="Trazado 654350" d="M87.829,166.728v11.38a8,8,0,0,1-.937.4,14.834,14.834,0,0,1-7.5.488c-6.545-1.083-12.208-5.163-17.043-9.712l2.73.17a11.932,11.932,0,0,1,2.625-5.387Z" transform="translate(14.298 37.627)" fill="#2d1026"/>
            <path id="Trazado_654351" data-name="Trazado 654351" d="M109.909,156.982c-.041,6.143.9,15.656-5.2,22.515-9.09,10.232-43.009,2.08-43.009,2.08a64.692,64.692,0,0,0-1.6-9.114c.063.652-3.945.777-6.273.734-.8-.032-1.4-.069-1.582-.1a11.511,11.511,0,0,1-5.9-3.41,9.743,9.743,0,0,1-.413-12.8,9.018,9.018,0,0,1,1.243-1.172c.145-.118.3-.238.461-.347,0-.011.012,0,.012,0a6.608,6.608,0,0,1,4.322-1.283,7.608,7.608,0,0,1,3.639,1.239,2.375,2.375,0,0,1,.179.165,1.224,1.224,0,0,1,.268.527c-.034-.14-.059-.293-.081-.434a61.38,61.38,0,0,1-1.437-11.858,26.463,26.463,0,0,1,21.522-25.244,41.911,41.911,0,0,1,5.646-.66c.557-.044,1.093-.063,1.641-.058.25-.007.514.007.776.01a2.552,2.552,0,0,1,.311.011c.084.006.168.011.263.016.3.011.6.025.9.048a24.967,24.967,0,0,1,5.526.983,23.59,23.59,0,0,1,13.049,9.594,33.392,33.392,0,0,1,4.954,13.69,93.714,93.714,0,0,1,.779,14.866" transform="translate(10.03 27.007)" fill="#ffa3a3"/>
            <g id="Grupo_995658" data-name="Grupo 995658" transform="translate(53.766 144.769)" opacity="0.32">
              <g id="Grupo_995657" data-name="Grupo 995657">
                <g id="Grupo_995656" data-name="Grupo 995656" clip-path="url(#clip-path-8)">
                  <path id="Trazado_654352" data-name="Trazado 654352" d="M109.909,156.982c-.041,6.143.9,15.656-5.2,22.515-9.09,10.232-43.009,2.08-43.009,2.08a64.692,64.692,0,0,0-1.6-9.114c.063.652-3.945.777-6.273.734-.8-.032-1.4-.069-1.582-.1a11.511,11.511,0,0,1-5.9-3.41,9.743,9.743,0,0,1-.413-12.8,9.018,9.018,0,0,1,1.243-1.172c.145-.118.3-.238.461-.347,0-.011.012,0,.012,0a6.608,6.608,0,0,1,4.322-1.283,7.608,7.608,0,0,1,3.639,1.239,2.375,2.375,0,0,1,.179.165,1.224,1.224,0,0,1,.268.527c-.034-.14-.059-.293-.081-.434a61.38,61.38,0,0,1-1.437-11.858,26.463,26.463,0,0,1,21.522-25.244,41.911,41.911,0,0,1,5.646-.66c.557-.044,1.093-.063,1.641-.058.25-.007.514.007.776.01a2.552,2.552,0,0,1,.311.011c.084.006.168.011.263.016.3.011.6.025.9.048a24.967,24.967,0,0,1,5.526.983,23.59,23.59,0,0,1,13.049,9.594,33.392,33.392,0,0,1,4.954,13.69,93.714,93.714,0,0,1,.779,14.866" transform="translate(-43.736 -117.762)" fill="#2d1026"/>
                </g>
              </g>
            </g>
            <path id="Trazado_654353" data-name="Trazado 654353" d="M72.186,138.358a5.436,5.436,0,0,0-2.058,2.566,1.878,1.878,0,0,0,.22,1.913c1.031,1.124,3.2.52,4.44.191,1.467-.388,3.909-.862,4.926-2.053a5.9,5.9,0,0,0,1.007-2.2c.5-1.682-.411-2.47-2.064-2.3a14.115,14.115,0,0,0-6.471,1.886" transform="translate(16.046 31.292)" fill="#2d1026"/>
            <path id="Trazado_654354" data-name="Trazado 654354" d="M94.87,136.1a4.909,4.909,0,0,1,2.384,1.771,1.693,1.693,0,0,1,.245,1.721c-.643,1.217-2.676,1.185-3.836,1.181-1.369,0-3.613.139-4.772-.669a5.325,5.325,0,0,1-1.381-1.689c-.825-1.354-.207-2.251,1.276-2.484a12.739,12.739,0,0,1,6.084.168" transform="translate(19.984 31.108)" fill="#2d1026"/>
            <path id="Trazado_654355" data-name="Trazado 654355" d="M78.6,146.587a2.55,2.55,0,1,1-2.728-2.36,2.55,2.55,0,0,1,2.728,2.36" transform="translate(16.857 33.074)" fill="#2d1026"/>
            <path id="Trazado_654356" data-name="Trazado 654356" d="M94.768,145.657a2.55,2.55,0,1,1-2.727-2.36,2.549,2.549,0,0,1,2.727,2.36" transform="translate(20.565 32.861)" fill="#2d1026"/>
            <path id="Trazado_654357" data-name="Trazado 654357" d="M58.449,161.34a.27.27,0,0,1-.3-.191,23.18,23.18,0,0,0-2.32-5.58,9.645,9.645,0,0,0-4.317-3.9,5.822,5.822,0,0,0-5.49.424.27.27,0,0,1-.309-.444,6.365,6.365,0,0,1,6-.481,10.18,10.18,0,0,1,4.572,4.116,23.547,23.547,0,0,1,2.379,5.71.268.268,0,0,1-.182.336.23.23,0,0,1-.039.01" transform="translate(10.458 34.547)" fill="#2d1026"/>
            <g id="Grupo_995661" data-name="Grupo 995661" transform="translate(56.691 182.36)" opacity="0.27">
              <g id="Grupo_995660" data-name="Grupo 995660">
                <g id="Grupo_995659" data-name="Grupo 995659" clip-path="url(#clip-path-9)">
                  <path id="Trazado_654358" data-name="Trazado 654358" d="M46.543,148.618c-.139.059-.263.14-.4.21,0-.167-.014-.321-.027-.487a1.486,1.486,0,0,1,.428.277" transform="translate(-46.115 -148.341)" fill="#2d1026"/>
                </g>
              </g>
            </g>
            <path id="Trazado_654359" data-name="Trazado 654359" d="M85.368,155.869a.252.252,0,0,1-.066-.5c1.517-.413,3.05-.915,3.686-2.07a3.956,3.956,0,0,0,.184-2.606,17.5,17.5,0,0,0-2.7-6.583.252.252,0,0,1,.418-.282,18.04,18.04,0,0,1,2.782,6.774,4.385,4.385,0,0,1-.24,2.939c-.729,1.33-2.373,1.872-3.994,2.315a.246.246,0,0,1-.066.009" transform="translate(19.52 32.96)" fill="#2d1026"/>
            <path id="Trazado_654360" data-name="Trazado 654360" d="M86.54,157.291q-.111,0-.221,0a6.2,6.2,0,0,1-4.869-2.75.252.252,0,1,1,.422-.277,5.6,5.6,0,0,0,9.113.349.254.254,0,0,1,.354-.045.251.251,0,0,1,.045.353,6.2,6.2,0,0,1-4.844,2.374" transform="translate(18.669 35.35)" fill="#2d1026"/>
            <path id="Trazado_654361" data-name="Trazado 654361" d="M101.2,121.617c1.459,1.666,2.413,3.923-.246,5.321l-.044.022a8.817,8.817,0,0,1-4.909.565,19.17,19.17,0,0,0-4.99-.2c-2.811.455-5.219,2.5-8.057,2.716-3.587.268-6.8-2.444-10.393-2.6a2.034,2.034,0,0,0-1.515.4,2.061,2.061,0,0,0-.509,1.191c-.746,4.609,2.455,9.072,2.159,13.732a10.96,10.96,0,0,1-4.281,7.705c-1.188.934-2.6,1.725-3.26,3.082-.864,1.765-.189,3.9-.59,5.82a3.61,3.61,0,0,1-2.675,2.938,4.122,4.122,0,0,1-3.6-1.728c-.895-1.068-1.522-2.348-2.475-3.366a7.157,7.157,0,0,0-8.232-1.443,89.682,89.682,0,0,1-.227-13.835,36.976,36.976,0,0,1,3.261-13.074,23.463,23.463,0,0,1,7.484-8.916c3.378-2.193,8.136-3.263,12.036-4.017,9.268-1.794,22.073-1.817,29.782,4.456a10.7,10.7,0,0,1,1.278,1.229" transform="translate(10.815 26.349)" fill="#2d1026"/>
            <path id="Trazado_654362" data-name="Trazado 654362" d="M65.832,222.752H58.314l-17.034-3.882-3.341-.765a28.966,28.966,0,0,0,1.012-3.234,9103.912,9103.912,0,0,0,.118-.494,9.33,9.33,0,0,0,.235-2.459,1,1,0,0,0-.011-.188,8.475,8.475,0,0,0-.447-1.506.046.046,0,0,1-.011-.036c-1.318-3.494-4.965-10.682-4.965-13.646,0-1.2-.07-3.059-.07-5.012,0-1.612.047-3.282.188-4.717.2-1.952.6-3.47,1.377-3.836.623-.294,1.411.73,2.305,2.294,2,3.588,4.482,10.082,6.377,10.458a1.447,1.447,0,0,0,.505.012.016.016,0,0,0,.023,0c1.142-.118,2.577-1.259,3.906-2.718a23.93,23.93,0,0,0,2.212-2.823,13.863,13.863,0,0,0,1.894-3.694c.259-1.023.695-3.481,1.223-6.117.87-4.282,1.977-9.081,2.989-9.081,1.235,0,2.482,5.3,3,7.811.165.776.259,1.282.259,1.282a.873.873,0,0,0,.106.023c.034.011.093.023.152.036h.036a1.4,1.4,0,0,1,.165.034,9.566,9.566,0,0,1,2.964,1.33,7.359,7.359,0,0,1,.671.588,3.35,3.35,0,0,1,.518.695A17.986,17.986,0,0,1,66.1,186.8c.036.165.059.247.059.247a1.4,1.4,0,0,1,.329-.034,2.67,2.67,0,0,1,2.518,1.8,12.106,12.106,0,0,1,.811,4.74l.129.036c.435.118,1.871.682,2.448,3.082.577,2.423-4.871,20.54-6.565,26.08" transform="translate(7.751 39.287)" fill="#ffa3a3"/>
            <g id="Grupo_995664" data-name="Grupo 995664" transform="translate(41.55 210.595)" opacity="0.32">
              <g id="Grupo_995663" data-name="Grupo 995663">
                <g id="Grupo_995662" data-name="Grupo 995662" clip-path="url(#clip-path-10)">
                  <path id="Trazado_654363" data-name="Trazado 654363" d="M65.832,222.752H58.314l-17.034-3.882-3.341-.765a28.966,28.966,0,0,0,1.012-3.234,9103.912,9103.912,0,0,0,.118-.494,9.33,9.33,0,0,0,.235-2.459,1,1,0,0,0-.011-.188,8.475,8.475,0,0,0-.447-1.506.046.046,0,0,1-.011-.036c-1.318-3.494-4.965-10.682-4.965-13.646,0-1.2-.07-3.059-.07-5.012,0-1.612.047-3.282.188-4.717.2-1.952.6-3.47,1.377-3.836.623-.294,1.411.73,2.305,2.294,2,3.588,4.482,10.082,6.377,10.458a1.447,1.447,0,0,0,.505.012.016.016,0,0,0,.023,0c1.142-.118,2.577-1.259,3.906-2.718a23.93,23.93,0,0,0,2.212-2.823,13.863,13.863,0,0,0,1.894-3.694c.259-1.023.695-3.481,1.223-6.117.87-4.282,1.977-9.081,2.989-9.081,1.235,0,2.482,5.3,3,7.811.165.776.259,1.282.259,1.282a.873.873,0,0,0,.106.023c.034.011.093.023.152.036h.036a1.4,1.4,0,0,1,.165.034,9.566,9.566,0,0,1,2.964,1.33,7.359,7.359,0,0,1,.671.588,3.35,3.35,0,0,1,.518.695A17.986,17.986,0,0,1,66.1,186.8c.036.165.059.247.059.247a1.4,1.4,0,0,1,.329-.034,2.67,2.67,0,0,1,2.518,1.8,12.106,12.106,0,0,1,.811,4.74l.129.036c.435.118,1.871.682,2.448,3.082.577,2.423-4.871,20.54-6.565,26.08" transform="translate(-33.799 -171.309)" fill="#2d1026"/>
                </g>
              </g>
            </g>
            <path id="Trazado_654364" data-name="Trazado 654364" d="M42.07,196.65a.252.252,0,0,1-.095-.486c.049-.021,4.955-2.051,6.99-6.118,1.606-3.21,2.575-8.11,3.153-11.038.175-.88.312-1.576.423-2,.1-.376.192-.849.294-1.362.425-2.132.971-4.8,2.424-4.59,1.172.152,2.271,3.4,3.27,9.638.27,1.7-.247,12.935-.269,13.413a.245.245,0,0,1-.263.24.252.252,0,0,1-.241-.263c.006-.117.538-11.66.274-13.31-1.065-6.662-2.164-9.13-2.836-9.218-.993-.129-1.522,2.469-1.864,4.188-.1.524-.2,1.007-.3,1.389-.107.413-.243,1.1-.416,1.974-.584,2.954-1.562,7.9-3.2,11.166-2.122,4.241-7.044,6.276-7.253,6.361a.254.254,0,0,1-.095.018" transform="translate(9.59 39.225)" fill="#2d1026"/>
            <path id="Trazado_654365" data-name="Trazado 654365" d="M60.509,192.982l-.045,0a.253.253,0,0,1-.2-.294c.009-.045.811-4.41.878-5.8a7.124,7.124,0,0,0-1.449-4.867,6.718,6.718,0,0,0-4.3-2.761.251.251,0,0,1-.216-.284.244.244,0,0,1,.282-.216,7.116,7.116,0,0,1,4.654,2.981,7.656,7.656,0,0,1,1.534,5.172c-.068,1.425-.852,5.686-.885,5.865a.251.251,0,0,1-.248.207" transform="translate(12.652 40.994)" fill="#2d1026"/>
            <path id="Trazado_654366" data-name="Trazado 654366" d="M63.468,194.5a.175.175,0,0,1-.036,0,.253.253,0,0,1-.215-.285,23.614,23.614,0,0,0-.175-7.5c-.738-2.784-2.73-2.327-2.814-2.306a.252.252,0,0,1-.124-.489c.026-.01,2.557-.612,3.426,2.666a23.664,23.664,0,0,1,.187,7.7.252.252,0,0,1-.25.218" transform="translate(13.74 42.167)" fill="#2d1026"/>
            <path id="Trazado_654367" data-name="Trazado 654367" d="M40.169,206.973l23.081,7.74H33.875l4.459-8.352.659.224Z" transform="translate(7.769 47.325)" fill="#fedede"/>
            <path id="Trazado_654368" data-name="Trazado 654368" d="M40.177,206.748l23.233,8.012H61.87l-21.528-7.423-1.329-.46-.483-.165-4.423,8.047H33.53l4.659-8.47a.263.263,0,0,1,.306-.118l.634.211Z" transform="translate(7.689 47.279)" fill="#2d1026"/>
            <path id="Trazado_654369" data-name="Trazado 654369" d="M125.912,217.184l.129-2.118.73-13.069.188-3.293,22.116-3.118,2.518,21.6Z" transform="translate(28.876 44.854)" fill="#fedede"/>
            <path id="Trazado_654370" data-name="Trazado 654370" d="M127.126,201.55s6.375,9.36,15.735,7.6S154.8,200.33,154.8,200.33s-18.719-22.653-21.7-23.874-27.943-2.578-28.35-.408,5.832,3.8,5.832,3.8-9.5-.272-9.631,2.171,8.682,4.341,8.682,4.341-8.139.677-8.139,2.712,12.344,4.341,12.344,4.341l9.5,1.357s-15.192,0-15.192,1.9,18.991,4.883,18.991,4.883" transform="translate(23.15 40.11)" fill="#ffa3a3"/>
            <g id="Grupo_995667" data-name="Grupo 995667" transform="translate(124.095 215.011)" opacity="0.32">
              <g id="Grupo_995666" data-name="Grupo 995666">
                <g id="Grupo_995665" data-name="Grupo 995665" clip-path="url(#clip-path-11)">
                  <path id="Trazado_654371" data-name="Trazado 654371" d="M127.126,201.55s6.375,9.36,15.735,7.6S154.8,200.33,154.8,200.33s-18.719-22.653-21.7-23.874-27.943-2.578-28.35-.408,5.832,3.8,5.832,3.8-9.5-.272-9.631,2.171,8.682,4.341,8.682,4.341-8.139.677-8.139,2.712,12.344,4.341,12.344,4.341l9.5,1.357s-15.192,0-15.192,1.9,18.991,4.883,18.991,4.883" transform="translate(-100.945 -174.901)" fill="#2d1026"/>
                </g>
              </g>
            </g>
            <path id="Trazado_654372" data-name="Trazado 654372" d="M109.647,179.908a.211.211,0,0,1-.055-.006c-.626-.143-6.1-1.456-5.756-3.876.323-2.317,21.642-.613,28.17-.034a.251.251,0,0,1,.229.273.242.242,0,0,1-.273.229c-13.442-1.189-27.448-1.663-27.627-.4-.232,1.667,3.795,2.958,5.367,3.314a.252.252,0,0,1-.055.5" transform="translate(23.809 40.097)" fill="#2d1026"/>
            <path id="Trazado_654373" data-name="Trazado 654373" d="M127.218,187.271H127.2c-.532-.031-13.063-.752-15.624-1.156-1.47-.232-8.887-1.519-10.443-4.061a1.8,1.8,0,0,1-.2-1.558c1.049-3.213,23.965-1.59,26.574-1.394a.252.252,0,0,1,.232.27.258.258,0,0,1-.27.232c-10.09-.758-25.356-1.1-26.058,1.047a1.3,1.3,0,0,0,.154,1.138c1.47,2.4,9.214,3.686,10.092,3.824,2.536.4,15.444,1.143,15.574,1.151a.252.252,0,0,1-.015.5" transform="translate(23.126 40.94)" fill="#2d1026"/>
            <path id="Trazado_654374" data-name="Trazado 654374" d="M123.238,192.942h-.026c-2.2-.218-21.51-2.212-21.861-5.308a1.889,1.889,0,0,1,.47-1.476c1.594-1.886,6.738-2.183,6.957-2.2a.244.244,0,0,1,.266.238.252.252,0,0,1-.238.264c-.052,0-5.145.3-6.6,2.02a1.378,1.378,0,0,0-.354,1.092c.23,2.027,13.255,4.059,21.41,4.864a.252.252,0,0,1-.025.5" transform="translate(23.24 42.188)" fill="#2d1026"/>
          </g>
        </g>
      </g>
    </g>
    <path id="Trazado_654375" data-name="Trazado 654375" d="M173.574,43.4H73.464a32.922,32.922,0,0,1,3.371-2.84c4.341-3.149,9.845-5,15.127-4.047,3.369.62,6.68,2.34,10.065,1.752,3.062-.529,5.445-2.81,7.8-4.841a62.244,62.244,0,0,1,23.31-12.567,36.443,36.443,0,0,1,14.921-1.487c11.964,1.664,21.44,11.861,25.4,23.281Z" transform="translate(406.427 474.996)" fill="#fee8e8"/>
    <path id="Trazado_654376" data-name="Trazado 654376" d="M73.464,37.246H148.2a24.574,24.574,0,0,0-2.516-2.12A15.088,15.088,0,0,0,134.387,32.1c-2.515.463-4.987,1.747-7.513,1.307-2.286-.395-4.065-2.1-5.822-3.614a46.465,46.465,0,0,0-17.4-9.381,27.2,27.2,0,0,0-11.139-1.11c-8.931,1.242-16,8.854-18.961,17.379Z" transform="translate(211.536 539.368)" fill="#fee8e8"/>
  </g>
</svg>
