<svg xmlns="http://www.w3.org/2000/svg" width="67" height="67" viewBox="0 0 67 67">
  <g id="Grupo_995513" data-name="Grupo 995513" transform="translate(-303 -3225)">
    <rect id="Rectángulo_309742" data-name="Rectángulo 309742" width="67" height="67" transform="translate(303 3225)" fill="none"/>
    <g id="Grupo_995515" data-name="Grupo 995515" transform="translate(309.029 3231.031)">
      <path id="Trazado_654118" data-name="Trazado 654118" d="M989.724,74.031c0-2.181.008-4.362,0-6.543a3.442,3.442,0,0,1,.518-1.878c.663-1.079,1.3-2.175,1.96-3.255a1.858,1.858,0,0,0,.284-1.011q-.01-4.13,0-8.26a.648.648,0,0,0-.341-.642,3.1,3.1,0,0,1-1.079-4.215c.141-.257.125-.357-.1-.542a3.143,3.143,0,0,1,.6-5.36c.274-.134.348-.205.223-.53a3.1,3.1,0,0,1,1.644-4.027c.257-.123.317-.2.2-.5a3.216,3.216,0,0,1,3.032-4.407c4.524-.018,9.047,0,13.571-.006a3.084,3.084,0,0,1,1.615.493c1.116.672,2.24,1.329,3.352,2.006a1.682,1.682,0,0,0,.91.256q4.184-.005,8.368,0a.565.565,0,0,0,.561-.292,3.086,3.086,0,0,1,4.283-1.1c.266.147.342.066.5-.122a3.148,3.148,0,0,1,5.365.592c.132.266.2.356.528.229a3.1,3.1,0,0,1,4.03,1.641c.121.251.194.324.5.209a3.217,3.217,0,0,1,4.41,3.028c.02,4.523.006,9.047.007,13.57a3.081,3.081,0,0,1-.49,1.617c-.664,1.1-1.315,2.207-1.985,3.3a1.859,1.859,0,0,0-.283,1.011q.01,4.13,0,8.26a.647.647,0,0,0,.334.646,3.093,3.093,0,0,1,1.087,4.211c-.138.253-.132.356.1.543a3.141,3.141,0,0,1-.6,5.359c-.276.136-.345.21-.223.532a3.1,3.1,0,0,1-1.647,4.026c-.261.125-.312.207-.2.5a3.216,3.216,0,0,1-3.038,4.4c-4.523.02-9.047.006-13.571.007a3.087,3.087,0,0,1-1.616-.494c-1.115-.672-2.24-1.329-3.352-2.007a1.677,1.677,0,0,0-.91-.254q-4.157.005-8.314,0a.645.645,0,0,0-.638.348,3.1,3.1,0,0,1-4.215,1.077c-.257-.143-.355-.131-.54.1a3.146,3.146,0,0,1-5.361-.6c-.133-.271-.2-.351-.529-.226a3.1,3.1,0,0,1-4.029-1.643c-.122-.255-.2-.32-.5-.207a3.221,3.221,0,0,1-4.41-3.084c-.014-2.253,0-4.505,0-6.758m12.764-14.763a4,4,0,0,1-1.376-.918c-.972-1.678-.888-2.636.363-4.175.3-.365.592-.731.932-1.151h-1.739c-1.948-.006-3.9,0-5.843-.028-.425-.006-.527.113-.524.529.02,2.591,0,5.182.014,7.773a3.7,3.7,0,0,1-.563,2.03c-.642,1.029-1.247,2.081-1.884,3.113a2.108,2.108,0,0,0-.321,1.161q.014,6.46.006,12.92a3.938,3.938,0,0,0,.012.482,1.461,1.461,0,0,0,1.359,1.289,1.38,1.38,0,0,0,1.365-1.257,4.045,4.045,0,0,0,.021-.535c0-1.215-.008-2.43.006-3.645a.909.909,0,0,1,1.073-.958.976.976,0,0,1,.753,1.086c.006,1.8,0,3.61.005,5.414a2.636,2.636,0,0,0,.073.741,1.4,1.4,0,0,0,1.435.977,1.345,1.345,0,0,0,1.206-1.349c.02-1.34,0-2.68.014-4.021a.939.939,0,0,1,.924-1.035c.536,0,.894.4.9,1.043.011.7,0,1.394,0,2.091q0,1.769,0,3.538a1.472,1.472,0,0,0,.589,1.31,1.221,1.221,0,0,0,1.363.1,1.444,1.444,0,0,0,.8-1.355q0-2.788,0-5.576c0-.714.346-1.149.907-1.154s.919.429.92,1.139q0,2.305,0,4.61a1.387,1.387,0,0,0,.507,1.229,1.179,1.179,0,0,0,1.377.216,1.382,1.382,0,0,0,.868-1.355c.007-3.026-.006-6.051-.011-9.077.006-.355.025-.71.016-1.065-.012-.47.05-.893.544-1.11a1.045,1.045,0,0,1,1.161.292c.864.71,1.737,1.408,2.607,2.111a1.153,1.153,0,0,0,1.437.354,1.062,1.062,0,0,0,.63-1.136,1.346,1.346,0,0,0-.494-.858q-4.3-4.336-8.607-8.67a2.983,2.983,0,0,1-.942-2.248c.013-.839-.005-1.679.007-2.518,0-.283-.047-.369-.36-.292a3.089,3.089,0,0,1-1.535-.066m38.194-20.637a1.356,1.356,0,0,0-.61,1.333c0,1.287.007,2.574-.008,3.861a.892.892,0,0,1-.846.931.938.938,0,0,1-.972-.874,3.657,3.657,0,0,1-.008-.428c0-1.787.005-3.575,0-5.362a1.434,1.434,0,0,0-1.392-1.573,1.391,1.391,0,0,0-1.33,1.56c-.007,1.251,0,2.5,0,3.753,0,.674-.37,1.094-.918,1.1s-.908-.41-.911-1.09c-.006-1.644,0-3.289,0-4.933a7.91,7.91,0,0,0-.036-1.016,1.351,1.351,0,0,0-1.191-1.2,1.429,1.429,0,0,0-1.425.923,1.943,1.943,0,0,0-.1.737q0,2.6,0,5.2c0,.125,0,.25,0,.375a.948.948,0,0,1-.9,1,.923.923,0,0,1-.92-.976c-.01-1.644,0-3.289-.009-4.933a1.357,1.357,0,0,0-1.108-1.381,1.378,1.378,0,0,0-1.515.84,2.376,2.376,0,0,0-.131.947q0,4.826,0,9.652a4.253,4.253,0,0,1-.014.536.885.885,0,0,1-1.323.679,3.972,3.972,0,0,1-.554-.419c-.872-.711-1.738-1.431-2.616-2.135a1.111,1.111,0,0,0-1.349-.095,1.069,1.069,0,0,0-.5,1.2,1.455,1.455,0,0,0,.5.742q4.284,4.323,8.572,8.642a3.044,3.044,0,0,1,.958,2.3c-.014.84,0,1.68,0,2.52,0,.228.008.35.321.3a2.923,2.923,0,0,1,3.165,1.381,2.992,2.992,0,0,1-.416,3.528l-1.1,1.352h6.248c.446.007.895-.014,1.337.03s.525-.123.522-.532c-.018-2.554,0-5.109-.016-7.663a3.982,3.982,0,0,1,.62-2.229c.628-1,1.208-2.021,1.826-3.023a2.1,2.1,0,0,0,.326-1.159q-.016-6.43-.007-12.861a4.115,4.115,0,0,0-.012-.535,1.344,1.344,0,0,0-2.134-1.009m-38,18.588a1.091,1.091,0,0,0,1.648-.061c.831-.806,1.649-1.626,2.47-2.444q3.159-3.148,6.316-6.3a3.169,3.169,0,0,1,2.566-.913,7.01,7.01,0,0,0,.742-.026c.516.011,1.033.021,1.549.035.208.006.273-.044.22-.28a2.957,2.957,0,0,1,.706-2.684,3.114,3.114,0,0,1,3.749-.484l1.784,1.426c.035-.07.062-.1.062-.127,0-2.534,0-5.069.011-7.6,0-.275-.112-.328-.35-.319-.5.019-1,.02-1.5.028-2.158-.009-4.316-.023-6.474-.022a3.525,3.525,0,0,1-1.977-.547c-.237-.153-.495-.275-.743-.412-.811-.5-1.63-.983-2.43-1.5a1.652,1.652,0,0,0-1.254-.282c-.2-.008-.392-.024-.588-.024q-6.085,0-12.17,0c-1.1,0-1.809.541-1.812,1.384,0,.861.669,1.373,1.806,1.374,1.215,0,2.43-.008,3.646,0a.9.9,0,0,1,.96.871.939.939,0,0,1-.9.95,4.1,4.1,0,0,1-.429.006c-1.769,0-3.539,0-5.308,0a1.45,1.45,0,0,0-1.606,1.36c-.009.81.62,1.358,1.582,1.363,1.233.006,2.466,0,3.7,0,.705,0,1.141.374,1.131.937s-.417.891-1.108.893c-1.537.006-3.074,0-4.611,0a12.146,12.146,0,0,0-1.284.031,1.346,1.346,0,0,0-1.233,1.211,1.437,1.437,0,0,0,.991,1.43,2,2,0,0,0,.687.078c1.841,0,3.682,0,5.522,0a.92.92,0,1,1-.007,1.825c-.447.007-.893,0-1.34,0-1.179,0-2.359-.012-3.538.006a1.35,1.35,0,0,0-1.383,1.226,1.375,1.375,0,0,0,1.176,1.481,3.844,3.844,0,0,0,.693.043q4.879,0,9.758,0c.455,0,.857.059,1.075.526a1.02,1.02,0,0,1-.276,1.167q-1.128,1.361-2.242,2.735a1.109,1.109,0,0,0,.009,1.62m34.237,26.009c-.213-.01-.427-.028-.64-.029-.876,0-1.753.01-2.628-.011a.882.882,0,0,1-.9-.875.921.921,0,0,1,.8-.928,3.469,3.469,0,0,1,.535-.019l4.664-.026a9.242,9.242,0,0,0,1.008,0,1.412,1.412,0,0,0,1.234-1.38,1.351,1.351,0,0,0-1.288-1.311c-.281-.018-.565.012-.847.02-.8-.011-1.605-.02-2.408-.034a7.942,7.942,0,0,1-1.12-.042.848.848,0,0,1-.745-.906.878.878,0,0,1,.842-.873c.195-.019.392-.01.589-.012l4.55-.033a3.034,3.034,0,0,0,1.01.012,1.37,1.37,0,0,0,1.247-1.369,1.441,1.441,0,0,0-1.342-1.356c-.3-.022-.605.005-.908.01q-2.437-.009-4.874-.018c-.7,0-1.136-.377-1.119-.941.017-.547.436-.882,1.117-.886q2.008-.012,4.016-.021c.285.006.57.032.854.015a1.357,1.357,0,0,0,1.321-1.231,1.373,1.373,0,0,0-1.122-1.47,2.528,2.528,0,0,0-1.059-.015c-.213-.012-.426-.034-.639-.035q-4.287,0-8.574,0c-.143,0-.286,0-.429,0a.884.884,0,0,1-.871-.505.9.9,0,0,1,.156-1.041c.8-.981,1.609-1.959,2.407-2.944a1.1,1.1,0,0,0,.124-1.343,1.084,1.084,0,0,0-1.193-.522,1.47,1.47,0,0,0-.79.516q-4.3,4.262-8.6,8.529a3.116,3.116,0,0,1-2.394.984c-.732-.019-1.466.02-2.2-.013-.431-.019-.563.051-.495.537a2.858,2.858,0,0,1-2.271,3.259,3.245,3.245,0,0,1-2.869-.834l-1.185-1v1c-.006,2.252,0,4.5-.026,6.757,0,.419.235.349.477.349,2.593,0,5.185.008,7.778,0a3.777,3.777,0,0,1,2.083.569c1.06.661,2.143,1.285,3.21,1.934a1.749,1.749,0,0,0,.961.266c1.323-.013,2.646,0,3.97-.006q4.291-.008,8.581-.02c.3,0,.6.034.9.009a1.453,1.453,0,0,0,1.337-1.353,1.383,1.383,0,0,0-1.29-1.375,7.975,7.975,0,0,0-.954.013m-8.755-22.481c0-.95-.009-1.594,0-2.237a1.241,1.241,0,0,0-.384-.957q-3.956-3.971-7.894-7.959a.776.776,0,0,0-.609-.258c-1.305.011-2.61.013-3.915,0a1.307,1.307,0,0,0-.99.434q-3.933,3.917-7.884,7.817a.83.83,0,0,0-.29.649c.014,1.305.013,2.61,0,3.915a1.256,1.256,0,0,0,.4.949q3.936,3.952,7.856,7.921a.889.889,0,0,0,.708.279c1.234-.012,2.467-.019,3.7,0a1.52,1.52,0,0,0,1.184-.492c2.147-2.151,4.258-4.343,6.488-6.4,1.209-1.117,2.079-2.233,1.619-3.659" transform="translate(-989.72 -32.851)" fill="#030303"/>
      <path id="Trazado_654119" data-name="Trazado 654119" d="M1075.994,173.514a3.243,3.243,0,0,0,2.869.834,2.857,2.857,0,0,0,2.271-3.259c-.068-.486.064-.557.5-.537.731.033,1.465-.006,2.2.013a3.116,3.116,0,0,0,2.394-.984q4.283-4.279,8.6-8.529a1.469,1.469,0,0,1,.79-.517,1.084,1.084,0,0,1,1.193.522,1.1,1.1,0,0,1-.124,1.343c-.8.985-1.6,1.963-2.407,2.944a.9.9,0,0,0-.156,1.041.884.884,0,0,0,.871.505c.143,0,.286,0,.429,0q4.287,0,8.573,0c.213,0,.426.022.639.034a2.872,2.872,0,0,1,.007,2.7q-2.008.01-4.016.021c-.681,0-1.1.339-1.116.886-.018.564.422.938,1.119.941q2.437.012,4.874.018a2.415,2.415,0,0,1-.007,2.7l-4.549.033c-.2,0-.394-.007-.589.012a.878.878,0,0,0-.842.874.848.848,0,0,0,.745.906,7.972,7.972,0,0,0,1.12.042c.8.014,1.605.023,2.408.034a2.781,2.781,0,0,1-.107,2.668l-4.665.026a3.406,3.406,0,0,0-.535.019.921.921,0,0,0-.8.928.882.882,0,0,0,.9.875c.876.02,1.752.006,2.628.011.214,0,.427.019.641.029a2.488,2.488,0,0,1,0,2.706q-4.291.011-8.582.021c-1.323,0-2.646-.007-3.97.005a1.747,1.747,0,0,1-.961-.266c-1.067-.649-2.15-1.273-3.21-1.934a3.78,3.78,0,0,0-2.083-.569c-2.593.012-5.186,0-7.778,0-.242,0-.482.071-.477-.349.025-2.252.021-4.5.027-6.757l1.185,0" transform="translate(-1054.634 -130.277)" fill="#f8deb5"/>
      <path id="Trazado_654120" data-name="Trazado 654120" d="M1019.382,42.391c.248.136.506.259.743.412a3.526,3.526,0,0,0,1.977.547c2.158,0,4.316.013,6.474.022l-.01,6.6a3.114,3.114,0,0,0-3.749.484c-.249,0-.5-.007-.747.006a1.933,1.933,0,0,0-1.825,1.816,3.871,3.871,0,0,0,.1,1.106,7.009,7.009,0,0,1-.742.026,3.168,3.168,0,0,0-2.566.913,2.805,2.805,0,0,0-2.465.986c-2.443,2.5-4.937,4.959-7.415,7.43-.16.16-.289.374-.554.388a1.109,1.109,0,0,1-.009-1.62q1.113-1.375,2.242-2.735a1.02,1.02,0,0,0,.276-1.167c-.219-.466-.621-.527-1.075-.526q-4.879.009-9.758,0a3.838,3.838,0,0,1-.693-.043,1.375,1.375,0,0,1-1.177-1.481,1.35,1.35,0,0,1,1.383-1.226c1.179-.017,2.359-.005,3.538-.006.447,0,.893.005,1.34,0a.92.92,0,1,0,.007-1.825c-1.841-.006-3.681,0-5.522,0a2,2,0,0,1-.687-.078,1.437,1.437,0,0,1-.991-1.43,1.346,1.346,0,0,1,1.233-1.211,12.152,12.152,0,0,1,1.285-.031c1.537,0,3.074,0,4.61,0,.69,0,1.1-.341,1.108-.893s-.426-.933-1.132-.937c-1.233-.006-2.466,0-3.7,0-.962,0-1.591-.553-1.582-1.363a1.45,1.45,0,0,1,1.606-1.36c1.769-.006,3.538,0,5.308,0a4.1,4.1,0,0,0,.429-.006.938.938,0,0,0,.9-.95.9.9,0,0,0-.96-.871c-1.215-.013-2.431,0-3.646,0-1.136,0-1.808-.512-1.805-1.374,0-.843.709-1.384,1.811-1.384q6.085,0,12.17,0c.2,0,.392.015.588.024a11.966,11.966,0,0,0,2.078,1.352,2.046,2.046,0,0,0,1.606.426" transform="translate(-995.633 -38.756)" fill="#f8ddb5"/>
      <path id="Trazado_654121" data-name="Trazado 654121" d="M1135.638,73.521h-6.248c.4-.484.751-.918,1.1-1.352a2.992,2.992,0,0,0,.416-3.528,2.922,2.922,0,0,0-3.165-1.381c-.312.049-.322-.072-.321-.3,0-.84-.009-1.68,0-2.52a3.044,3.044,0,0,0-.958-2.3q-4.3-4.309-8.571-8.642a1.453,1.453,0,0,1-.5-.742,1.069,1.069,0,0,1,.5-1.2,1.111,1.111,0,0,1,1.349.095c.878.7,1.743,1.424,2.616,2.135a3.972,3.972,0,0,0,.554.419.884.884,0,0,0,1.323-.679,4.23,4.23,0,0,0,.014-.536q0-4.826,0-9.651a2.374,2.374,0,0,1,.131-.947,1.378,1.378,0,0,1,1.515-.84,1.357,1.357,0,0,1,1.108,1.381c.014,1.644,0,3.289.009,4.933a.923.923,0,0,0,.92.976.948.948,0,0,0,.9-1c0-.125,0-.25,0-.375q0-2.6,0-5.2a1.943,1.943,0,0,1,.1-.737,1.429,1.429,0,0,1,1.425-.923,1.351,1.351,0,0,1,1.191,1.2,7.91,7.91,0,0,1,.036,1.016c0,1.645,0,3.289,0,4.933,0,.68.359,1.093.911,1.09s.914-.424.918-1.1c.009-1.251,0-2.5,0-3.753a1.391,1.391,0,0,1,1.33-1.56A1.435,1.435,0,0,1,1135.654,44c.008,1.787,0,3.575,0,5.362a3.63,3.63,0,0,0,.008.428.938.938,0,0,0,.972.874.892.892,0,0,0,.846-.931c.015-1.287,0-2.574.008-3.861a1.356,1.356,0,0,1,.61-1.333,3.009,3.009,0,0,1,.331,1.442c-.007,4.309-.013,8.618.006,12.926a3.229,3.229,0,0,1-.491,1.721q-.96,1.607-1.927,3.21a2.571,2.571,0,0,0-.382,1.368q.008,4.157,0,8.314" transform="translate(-1087.138 -38.762)" fill="#f8ddb4"/>
      <path id="Trazado_654122" data-name="Trazado 654122" d="M1018.242,139.6c-.87-.7-1.743-1.4-2.607-2.111a1.045,1.045,0,0,0-1.161-.292c-.494.217-.556.64-.544,1.11.009.355-.01.71-.016,1.065-.232.038-.346-.139-.5-.261a7.3,7.3,0,0,0-1.283-.959v.647c0,3.052.014,6.1-.012,9.155a2.007,2.007,0,0,1-.442,1.632,1.387,1.387,0,0,1-.506-1.229q0-2.305,0-4.61c0-.71-.357-1.144-.921-1.139s-.906.44-.907,1.154q0,2.788,0,5.576a1.444,1.444,0,0,1-.8,1.355,1.221,1.221,0,0,1-1.362-.1,1.472,1.472,0,0,1-.59-1.31q0-1.769,0-3.538c0-.7.008-1.394,0-2.091-.01-.64-.368-1.041-.9-1.043a.939.939,0,0,0-.924,1.035c-.014,1.34.007,2.681-.014,4.021a1.345,1.345,0,0,1-1.206,1.349,1.4,1.4,0,0,1-1.435-.977,2.636,2.636,0,0,1-.073-.741c-.006-1.8,0-3.61-.005-5.414a.976.976,0,0,0-.753-1.086.909.909,0,0,0-1.073.958c-.014,1.215,0,2.43-.006,3.645a4.055,4.055,0,0,1-.021.535,1.38,1.38,0,0,1-1.365,1.257,1.462,1.462,0,0,1-1.359-1.289,3.937,3.937,0,0,1-.011-.482q0-6.46-.006-12.92a2.107,2.107,0,0,1,.321-1.161c.637-1.032,1.242-2.084,1.884-3.113a3.693,3.693,0,0,0,.563-2.03c-.01-2.591.006-5.182-.013-7.773,0-.416.1-.535.523-.529,1.947.03,3.9.022,5.842.028a.585.585,0,0,1-.2.473c-.455.546-.895,1.105-1.344,1.657a1.922,1.922,0,0,0-.252,2.2,1.838,1.838,0,0,0,2.238,1,4,4,0,0,0,1.376.918c0,.874.025,1.748,0,2.621a2.579,2.579,0,0,0,.829,2q4.232,4.2,8.441,8.433a3.588,3.588,0,0,1,.593.752,1.512,1.512,0,0,1,0,1.629" transform="translate(-995.609 -97.752)" fill="#f8ddb5"/>
      <path id="Trazado_654123" data-name="Trazado 654123" d="M1194.478,85.309q0-4.157,0-8.314a2.57,2.57,0,0,1,.383-1.368q.967-1.6,1.927-3.21a3.231,3.231,0,0,0,.491-1.721c-.019-4.309-.013-8.618-.006-12.926a3.009,3.009,0,0,0-.331-1.442,1.344,1.344,0,0,1,2.134,1.009,4.094,4.094,0,0,1,.012.535q0,6.431.007,12.861a2.1,2.1,0,0,1-.326,1.158c-.618,1-1.2,2.028-1.826,3.023a3.985,3.985,0,0,0-.621,2.229c.018,2.554,0,5.109.016,7.663,0,.409-.087.575-.522.532s-.891-.023-1.337-.03" transform="translate(-1145.978 -50.549)" fill="#d8c29f"/>
      <path id="Trazado_654124" data-name="Trazado 654124" d="M1053.493,159.812a1.512,1.512,0,0,0,0-1.629,3.59,3.59,0,0,0-.593-.752q-4.223-4.214-8.441-8.433a2.579,2.579,0,0,1-.829-2c.023-.873,0-1.748,0-2.621a3.089,3.089,0,0,0,1.535.066c.313-.077.364.009.36.292-.013.839.006,1.679-.007,2.518a2.983,2.983,0,0,0,.942,2.248q4.314,4.325,8.607,8.67a1.345,1.345,0,0,1,.494.858,1.062,1.062,0,0,1-.63,1.136,1.153,1.153,0,0,1-1.437-.354" transform="translate(-1030.86 -117.962)" fill="#d6bf9d"/>
      <path id="Trazado_654125" data-name="Trazado 654125" d="M1057.574,214.861a2.006,2.006,0,0,0,.442-1.632c.026-3.051.012-6.1.012-9.155v-.647a7.315,7.315,0,0,1,1.283.959c.151.122.265.3.5.261.006,3.025.018,6.051.011,9.077a1.382,1.382,0,0,1-.868,1.355,1.179,1.179,0,0,1-1.377-.216" transform="translate(-1041.502 -163.024)" fill="#d5be9c"/>
      <path id="Trazado_654126" data-name="Trazado 654126" d="M1128.76,58.846l.01-6.6c.5-.008,1-.009,1.5-.028.238-.009.351.043.35.319-.01,2.534-.008,5.069-.011,7.6,0,.029-.027.058-.062.128l-1.784-1.426" transform="translate(-1095.827 -47.634)" fill="#d9c29f"/>
      <path id="Trazado_654127" data-name="Trazado 654127" d="M1044.466,107.295c.265-.014.394-.228.554-.388,2.478-2.471,4.972-4.925,7.415-7.43a2.8,2.8,0,0,1,2.465-.986q-3.158,3.15-6.316,6.3c-.82.817-1.638,1.638-2.47,2.444a1.091,1.091,0,0,1-1.648.061" transform="translate(-1031.498 -82.927)" fill="#d6c09d"/>
      <path id="Trazado_654128" data-name="Trazado 654128" d="M1029.86,123.343a1.837,1.837,0,0,1-2.237-1,1.921,1.921,0,0,1,.252-2.2c.45-.551.889-1.11,1.344-1.657a.585.585,0,0,0,.2-.473h1.739c-.34.42-.635.786-.932,1.151-1.251,1.538-1.335,2.5-.363,4.174" transform="translate(-1018.468 -97.845)" fill="#d8c19e"/>
      <path id="Trazado_654129" data-name="Trazado 654129" d="M1102.16,85.156a3.885,3.885,0,0,1-.1-1.106,1.933,1.933,0,0,1,1.825-1.816c.249-.013.5,0,.747-.006a2.956,2.956,0,0,0-.706,2.684c.052.235-.013.286-.22.28-.517-.014-1.033-.024-1.55-.035" transform="translate(-1075.452 -70.531)" fill="#d1bb99"/>
      <path id="Trazado_654130" data-name="Trazado 654130" d="M1204.4,209.512a2.416,2.416,0,0,0,.007-2.7c.3,0,.607-.032.908-.01a1.44,1.44,0,0,1,1.342,1.356,1.37,1.37,0,0,1-1.247,1.369,3.036,3.036,0,0,1-1.011-.012" transform="translate(-1153.551 -165.591)" fill="#ceb997"/>
      <path id="Trazado_654131" data-name="Trazado 654131" d="M1200.78,190.13a2.871,2.871,0,0,0-.007-2.7,2.534,2.534,0,0,1,1.059.015,1.373,1.373,0,0,1,1.122,1.47,1.357,1.357,0,0,1-1.321,1.231c-.283.016-.569-.009-.854-.015" transform="translate(-1150.782 -150.778)" fill="#ceb997"/>
      <path id="Trazado_654132" data-name="Trazado 654132" d="M1189.015,248.162a2.489,2.489,0,0,0,0-2.706,7.966,7.966,0,0,1,.954-.013,1.383,1.383,0,0,1,1.29,1.375,1.454,1.454,0,0,1-1.337,1.353c-.3.025-.6,0-.9-.009" transform="translate(-1141.805 -195.079)" fill="#d6c09d"/>
      <path id="Trazado_654133" data-name="Trazado 654133" d="M1196.741,228.886a2.782,2.782,0,0,0,.107-2.668c.283-.008.566-.037.847-.02a1.351,1.351,0,0,1,1.288,1.311,1.412,1.412,0,0,1-1.234,1.38,9.234,9.234,0,0,1-1.008,0" transform="translate(-1147.705 -180.397)" fill="#d6c09d"/>
      <path id="Trazado_654134" data-name="Trazado 654134" d="M1078.114,42.377a2.046,2.046,0,0,1-1.606-.426,11.967,11.967,0,0,1-2.078-1.352,1.652,1.652,0,0,1,1.254.282c.8.514,1.619,1,2.43,1.5" transform="translate(-1054.365 -38.741)" fill="#dcc5a1"/>
      <path id="Trazado_654135" data-name="Trazado 654135" d="M1076.079,212.169l-1.185,0v-1l1.185,1" transform="translate(-1054.719 -168.932)" fill="#d1bb99"/>
    </g>
  </g>
</svg>
