<svg xmlns="http://www.w3.org/2000/svg" width="67" height="67" viewBox="0 0 67 67">
  <g id="Grupo_995512" data-name="Grupo 995512" transform="translate(-303 -3225)">
    <rect id="Rectángulo_309742" data-name="Rectángulo 309742" width="67" height="67" transform="translate(303 3225)" fill="none"/>
    <g id="Grupo_995514" data-name="Grupo 995514" transform="translate(308.148 3232.389)">
      <path id="Trazado_654168" data-name="Trazado 654168" d="M222.98,596.643c.128.494.237.88.329,1.269a1.132,1.132,0,0,1-1.129,1.551,8.574,8.574,0,0,1-4.156-.693,8.666,8.666,0,0,1-4.123-3.7c-.062-.107-.122-.214-.206-.363-2.707,4.794-6.706,7.527-12.229,7.516-5.5-.011-9.487-2.727-12.18-7.515a9.624,9.624,0,0,1-1.453,2.043,8.629,8.629,0,0,1-6.975,2.719,1.149,1.149,0,0,1-1.179-1.6c.091-.372.2-.741.3-1.148a3.928,3.928,0,0,0-1.2.246c-.955.223-1.479-.133-1.6-1.117a8.724,8.724,0,0,1,6.8-9.206,8.209,8.209,0,0,1,3.459-.062c.449.1.488-.037.476-.41a14.186,14.186,0,0,1,1.277-6.5,13.567,13.567,0,0,1,25.6,3.135,17.056,17.056,0,0,1,.258,3.413c0,.315.013.447.417.372a8.717,8.717,0,0,1,10.347,8.312,6.947,6.947,0,0,1-.063,1.158,1.077,1.077,0,0,1-1.4.944c-.427-.1-.848-.221-1.379-.36M190.133,588.7a14,14,0,0,0,.157,1.817,10.949,10.949,0,0,0,8.034,9.029,10.835,10.835,0,0,0,11.654-3.358,11.622,11.622,0,0,0,2.875-8.852c-.016-.33-.2-.333-.433-.353A17.449,17.449,0,0,1,201.9,582.34c-.185-.169-.3-.325-.569-.06a16.315,16.315,0,0,1-10.775,4.756c-.319.019-.466.1-.435.449.034.385.008.774.008,1.218m.06-4.365c-.03.29-.081.524.389.49a14.283,14.283,0,0,0,12.742-9.9c.234-.722.234-.724-.554-.793a11.848,11.848,0,0,0-4.965.544,11.375,11.375,0,0,0-7.612,9.654m22.608,0c-.041-.273-.073-.548-.125-.818a11.3,11.3,0,0,0-6.626-8.5c-.326-.154-.427-.076-.521.255a15.686,15.686,0,0,1-1.86,4.114c-.636,1-.646,1.012.253,1.775a15.323,15.323,0,0,0,8.245,3.577c.272.033.744.234.634-.4m4.231,4.3a6.993,6.993,0,0,0-1.344.148.6.6,0,0,0-.566.555,6.5,6.5,0,0,0,1.345,5.552,6.368,6.368,0,0,0,3.764,2.252c.552.114.588.068.451-.462-.111-.427-.241-.85-.337-1.281a1.107,1.107,0,0,1,1.4-1.39c.447.108.893.224,1.331.362s.5-.044.428-.425a6.579,6.579,0,0,0-6.475-5.312m-29.042,2.041a7.262,7.262,0,0,0-.123-1.286.657.657,0,0,0-.631-.624,7.541,7.541,0,0,0-2.418-.039,6.577,6.577,0,0,0-5.347,5.222c-.068.383-.009.562.43.423.421-.133.85-.24,1.278-.346a1.112,1.112,0,0,1,1.441,1.43c-.095.393-.206.782-.308,1.174-.154.592-.118.628.495.5a6.522,6.522,0,0,0,5.184-6.458" transform="translate(-173.14 -549.997)" fill="#020203"/>
      <path id="Trazado_654169" data-name="Trazado 654169" d="M214.717,495.123c.152.166.387.068.563.19a1.1,1.1,0,0,1,.538,1.023.973.973,0,0,1-.67.934c-3.168.946-6.333,1.912-9.7.953-3.278-.934-5.831-2.7-7.046-6.025a.921.921,0,0,0-.482-.492c-1.388-.8-2.743-1.665-4.172-2.383a3.8,3.8,0,0,1-.78-6.457c-.42-.244-.826-.471-1.223-.712-1.369-.83-2.814-1.532-4.125-2.458a.21.21,0,0,0-.289-.008c-1.695,1.18-3.568,2.063-5.345,3.194a3.9,3.9,0,0,1,1.4,2.354,3.633,3.633,0,0,1-1.771,3.812c-1.532.916-3.086,1.8-4.634,2.687a.855.855,0,0,0-.439.456c-1.219,3.325-3.759,5.12-7.047,6.024a12.933,12.933,0,0,1-7.251-.257c-.652-.194-1.314-.357-1.973-.529-.78-.2-1.141-.559-1.152-1.143s.315-.926,1.106-1.164c1.157.306,2.314.609,3.47.92a9.847,9.847,0,0,0,5.086.066c2.833-.729,4.99-2.238,5.85-5.2a1.371,1.371,0,0,1,.721-.8c1.646-.942,3.284-1.9,4.93-2.843a1.752,1.752,0,0,0,.856-.9,1.475,1.475,0,0,0-.41-1.614,1.459,1.459,0,0,0-1.8-.14c-1.377.783-2.744,1.583-4.116,2.375-.67.387-1.334.784-2.015,1.15a1.1,1.1,0,0,1-1.493-1.507,1.608,1.608,0,0,1,.714-.59l9.954-5.743c1.228-.709,2.459-1.414,3.683-2.13a1.3,1.3,0,0,0,.68-1.4,1.316,1.316,0,0,0-1.033-1.1,1.661,1.661,0,0,0-1.21.262q-11.474,5.632-22.951,11.259a2.884,2.884,0,0,1-.929.335c-.685-.142-1.04-.449-1.088-.991a1.154,1.154,0,0,1,.778-1.2q11.685-5.727,23.363-11.468a3.533,3.533,0,0,1,3.945.333.343.343,0,0,0,.511,0,3.524,3.524,0,0,1,3.944-.336q3.414,1.678,6.832,3.35c.747.367.917.772.712,1.622a1.2,1.2,0,0,1-1.744.34q-3.347-1.637-6.69-3.282a1.56,1.56,0,0,0-1.163-.222,1.317,1.317,0,0,0-1.018,1.117,1.3,1.3,0,0,0,.7,1.389q2.772,1.606,5.547,3.206,4.066,2.347,8.134,4.692a1.308,1.308,0,0,1,.776.876,1.055,1.055,0,0,1-.425,1.122,1.124,1.124,0,0,1-1.3.016q-2.943-1.7-5.884-3.4a1.694,1.694,0,0,0-1.26-.284,1.474,1.474,0,0,0-1.156,1.263,1.455,1.455,0,0,0,.795,1.517q2.532,1.469,5.071,2.926a1.544,1.544,0,0,1,.764.959,6.265,6.265,0,0,0,1.668,2.823,9.273,9.273,0,0,0,7.1,2.481,31.3,31.3,0,0,0,5.593-1.256" transform="translate(-159.123 -473.418)" fill="#030303"/>
      <path id="Trazado_654170" data-name="Trazado 654170" d="M318.018,502.882a31.3,31.3,0,0,1-5.593,1.256,9.273,9.273,0,0,1-7.1-2.481,6.265,6.265,0,0,1-1.668-2.823,1.544,1.544,0,0,0-.764-.959q-2.542-1.451-5.071-2.926a1.455,1.455,0,0,1-.795-1.516,1.474,1.474,0,0,1,1.156-1.263,1.694,1.694,0,0,1,1.26.284q2.939,1.7,5.884,3.4a1.124,1.124,0,0,0,1.3-.016,1.055,1.055,0,0,0,.425-1.122,1.308,1.308,0,0,0-.776-.876q-4.068-2.343-8.134-4.692-2.774-1.6-5.547-3.206a1.3,1.3,0,0,1-.7-1.389,1.317,1.317,0,0,1,1.018-1.117,1.56,1.56,0,0,1,1.163.222q3.344,1.643,6.69,3.282a1.2,1.2,0,0,0,1.744-.34l2.481,1.15c-.2.778-.018,1.275.561,1.529.552.242,1.042.05,1.478-.578a15.314,15.314,0,0,0,2.441,1.229,1.161,1.161,0,0,0,.735,1.646q3.515,1.728,7.03,3.452a2.677,2.677,0,0,0,.779.263q0,3.8,0,7.595" transform="translate(-262.424 -481.177)" fill="#ebc8a9"/>
      <path id="Trazado_654171" data-name="Trazado 654171" d="M164.069,495.29a2.882,2.882,0,0,0,.929-.335q11.475-5.631,22.951-11.259a1.661,1.661,0,0,1,1.21-.262,1.316,1.316,0,0,1,1.033,1.1,1.3,1.3,0,0,1-.68,1.4c-1.224.716-2.454,1.421-3.683,2.13l-9.954,5.743a1.605,1.605,0,0,0-.714.59,1.1,1.1,0,0,0,1.493,1.507c.681-.365,1.345-.763,2.015-1.15,1.372-.792,2.739-1.592,4.116-2.375a1.459,1.459,0,0,1,1.8.14,1.475,1.475,0,0,1,.41,1.614,1.753,1.753,0,0,1-.856.9c-1.646.944-3.283,1.9-4.93,2.843a1.371,1.371,0,0,0-.721.8c-.86,2.96-3.017,4.468-5.85,5.2a9.843,9.843,0,0,1-5.086-.066c-1.155-.311-2.313-.613-3.47-.92q0-3.8-.009-7.6" transform="translate(-162.972 -481.181)" fill="#ebc8a8"/>
      <path id="Trazado_654172" data-name="Trazado 654172" d="M379.355,516.212a2.679,2.679,0,0,1-.779-.263q-3.513-1.731-7.03-3.453a1.132,1.132,0,1,1,.955-2q3.566,1.74,7.127,3.49c.626.308.889.715.823,1.235-.068.54-.407.845-1.1.987" transform="translate(-323.756 -502.102)" fill="#040303"/>
      <path id="Trazado_654173" data-name="Trazado 654173" d="M352.745,501.9c-.436.629-.926.82-1.478.579-.579-.254-.762-.751-.561-1.529.481-.57.91-.716,1.432-.488s.709.649.608,1.438" transform="translate(-308.132 -494.382)" fill="#060505"/>
      <path id="Trazado_654174" data-name="Trazado 654174" d="M235.663,624.825c0-.444.026-.834-.008-1.219-.031-.353.116-.431.435-.449a16.315,16.315,0,0,0,10.775-4.756c.271-.265.384-.109.569.06a17.447,17.447,0,0,0,10.516,4.647c.233.02.417.024.433.353a11.622,11.622,0,0,1-2.875,8.852,10.835,10.835,0,0,1-11.654,3.358,10.949,10.949,0,0,1-8.034-9.029,13.95,13.95,0,0,1-.157-1.816M247,632.486A4.464,4.464,0,0,0,250,631.314a1.107,1.107,0,0,0,.183-1.618,1.1,1.1,0,0,0-1.622-.064,2.168,2.168,0,0,1-3.088-.015,1.108,1.108,0,1,0-1.45,1.672,4.44,4.44,0,0,0,2.983,1.2m-3.646-5.268a1.1,1.1,0,0,0,1.106-1.123,1.129,1.129,0,0,0-1.112-1.076,1.111,1.111,0,0,0-1.1,1.083,1.078,1.078,0,0,0,1.1,1.116m7.347,0a1.079,1.079,0,0,0,1.086-1.08,1.112,1.112,0,0,0-1.116-1.119,1.131,1.131,0,0,0-1.094,1.094,1.1,1.1,0,0,0,1.125,1.1" transform="translate(-218.669 -586.118)" fill="#f7dbd4"/>
      <path id="Trazado_654175" data-name="Trazado 654175" d="M235.908,592.22a11.376,11.376,0,0,1,7.612-9.654,11.854,11.854,0,0,1,4.965-.544c.788.07.788.072.554.793a14.282,14.282,0,0,1-12.742,9.9c-.471.034-.419-.2-.389-.49" transform="translate(-218.855 -557.879)" fill="#7390a7"/>
      <path id="Trazado_654176" data-name="Trazado 654176" d="M304.245,595.253c.109.639-.362.438-.634.4a15.323,15.323,0,0,1-8.245-3.577c-.9-.763-.889-.773-.253-1.775a15.692,15.692,0,0,0,1.86-4.114c.094-.33.2-.409.521-.255a11.3,11.3,0,0,1,6.626,8.5c.052.271.084.545.125.818" transform="translate(-264.584 -560.909)" fill="#738fa7"/>
      <path id="Trazado_654177" data-name="Trazado 654177" d="M349.734,647.548a6.579,6.579,0,0,1,6.475,5.312c.068.38.014.563-.428.425s-.885-.254-1.331-.362a1.107,1.107,0,0,0-1.4,1.39c.1.431.226.853.337,1.281.138.53.1.576-.451.462a6.369,6.369,0,0,1-3.764-2.253,6.5,6.5,0,0,1-1.346-5.552.6.6,0,0,1,.567-.555,7.007,7.007,0,0,1,1.344-.148" transform="translate(-305.842 -608.904)" fill="#738fa7"/>
      <path id="Trazado_654178" data-name="Trazado 654178" d="M196.091,649.646a6.522,6.522,0,0,1-5.184,6.458c-.613.124-.649.088-.495-.5.1-.392.214-.781.308-1.174a1.112,1.112,0,0,0-1.441-1.43c-.428.107-.858.214-1.278.346-.439.139-.5-.041-.43-.423a6.577,6.577,0,0,1,5.347-5.222,7.537,7.537,0,0,1,2.418.039.657.657,0,0,1,.631.624,7.262,7.262,0,0,1,.123,1.286" transform="translate(-181.24 -608.962)" fill="#738fa7"/>
      <path id="Trazado_654179" data-name="Trazado 654179" d="M274.829,671.219a4.44,4.44,0,0,1-2.983-1.2,1.108,1.108,0,1,1,1.45-1.672,2.167,2.167,0,0,0,3.088.015,1.1,1.1,0,0,1,1.622.064,1.107,1.107,0,0,1-.183,1.619,4.464,4.464,0,0,1-2.994,1.172" transform="translate(-246.497 -624.851)" fill="#040404"/>
      <path id="Trazado_654180" data-name="Trazado 654180" d="M266.5,650.926a1.078,1.078,0,0,1-1.1-1.116,1.111,1.111,0,0,1,1.1-1.083,1.129,1.129,0,0,1,1.113,1.076,1.1,1.1,0,0,1-1.105,1.123" transform="translate(-241.815 -609.826)" fill="#060505"/>
      <path id="Trazado_654181" data-name="Trazado 654181" d="M299.535,650.925a1.1,1.1,0,0,1-1.125-1.1,1.131,1.131,0,0,1,1.094-1.094,1.112,1.112,0,0,1,1.116,1.119,1.079,1.079,0,0,1-1.086,1.08" transform="translate(-267.502 -609.825)" fill="#060505"/>
    </g>
  </g>
</svg>
