<svg xmlns="http://www.w3.org/2000/svg" xmlns:xlink="http://www.w3.org/1999/xlink" width="85" height="85" viewBox="0 0 85 85">
  <defs>
    <clipPath id="clip-path">
      <rect id="Rect치ngulo_309894" data-name="Rect치ngulo 309894" width="73.304" height="72.31" fill="none"/>
    </clipPath>
  </defs>
  <g id="Grupo_995479" data-name="Grupo 995479" transform="translate(-1335 -6589)">
    <rect id="Rect치ngulo_309092" data-name="Rect치ngulo 309092" width="85" height="85" transform="translate(1335 6589)" fill="none"/>
    <g id="Grupo_995690" data-name="Grupo 995690" transform="translate(1340.848 6595.345)">
      <g id="Grupo_995689" data-name="Grupo 995689" clip-path="url(#clip-path)">
        <path id="Trazado_654642" data-name="Trazado 654642" d="M33.99,87.1q0-1.407,0-2.813c.919-.211,1.107-.478,1.107-1.6q0-16.6-.013-33.2a1.1,1.1,0,0,1,.645-1.111q12.349-7.1,24.67-14.24a.869.869,0,0,1,1.021,0c3.37,1.969,6.756,3.909,10.133,5.866q5.278,3.058,10.548,6.13-.008,11.969-.017,23.939c-.255-.021-.34-.243-.465-.407a9.807,9.807,0,0,1-1.97-4.535,30.2,30.2,0,0,1-.067-6.495,8.327,8.327,0,0,0-.151-2.486,7.243,7.243,0,0,0-14.29,2.13c.108,1.6.168,3.191.133,4.789a8.212,8.212,0,0,1-.237,2.249c-.16-.2-.274-.344-.391-.486a4.8,4.8,0,0,0-8.389,1.8,5.84,5.84,0,0,0-.077,2.2c.042.417-.035.62-.515.573a7.306,7.306,0,0,0-1.358,0c-.574.052-.679-.23-.667-.723.008-.347.221-.5.433-.689a5.981,5.981,0,0,0,2.183-4.045c.163-2.043.369-4.088.418-6.135a7.244,7.244,0,0,0-8.9-7.141c-1.089.267-1.284.534-1.2,1.646a4.53,4.53,0,0,0-2.135,1.857c-1-.256-1.358-.07-1.745.914a7.411,7.411,0,0,0-.5,3.293c.13,1.783.266,3.566.392,5.35a5.715,5.715,0,0,0,1.018,2.93,6.67,6.67,0,0,0,1.357,1.464c.377.294.272.7.2,1.053s-.433.2-.673.212c-.572.018-1.145,0-1.717.006a5.569,5.569,0,0,0-5.884,5.871c-.007,2.266,0,4.532,0,6.8,0,1.6.433,2.027,2.045,2.027H80.507c.286,0,.571.014.857.021a7.214,7.214,0,0,1-6.518,4.412q-19.856.006-39.713,0c-.039-.751-.31-1.318-1.143-1.439" transform="translate(-24.24 -24.233)" fill="#d1dfe4"/>
        <path id="Trazado_654643" data-name="Trazado 654643" d="M57.859,21.908q-5.274-3.066-10.548-6.131c-3.377-1.957-6.764-3.9-10.133-5.866a.869.869,0,0,0-1.021,0q-12.323,7.14-24.67,14.241a1.1,1.1,0,0,0-.645,1.111q.027,16.6.013,33.2c0,1.121-.188,1.389-1.107,1.6-.88-.239-1.042-.465-1.042-1.5q0-15.884,0-31.768v-.838c-.291-.108-.448.084-.62.182-1.035.585-2.054,1.2-3.093,1.778a1.182,1.182,0,0,1-1.74-.4Q1.68,24.872.182,22.193c-.4-.718-.132-1.312.724-1.807Q6.343,17.241,11.783,14.1,23.713,7.214,35.638.316a1.817,1.817,0,0,1,2.05,0Q55.011,10.349,72.355,20.347c1.033.6,1.2,1.154.616,2.166q-1.348,2.354-2.713,4.7c-.578.995-1.166,1.141-2.183.556-1.108-.638-2.215-1.28-3.461-2v.87q0,19.319-.017,38.637c0,.681.2.857.831.8a9.507,9.507,0,0,1,1.5,0,1.2,1.2,0,0,1,1.244,1.281q.033,1.824,0,3.649a1.23,1.23,0,0,1-1.3,1.305c-.19.011-.381,0-.572,0H6.985c-1.518,0-1.849-.329-1.85-1.838,0-.978-.008-1.956,0-2.933.011-1.034.446-1.459,1.494-1.474.5-.007,1-.034,1.5.008s.619-.158.578-.609c-.034-.379.015-.764-.011-1.144A1.211,1.211,0,0,1,9.75,62.87c.833.121,1.1.687,1.143,1.439-.012.237-.034.474-.036.711,0,1.039,0,1.039,1.058,1.039q24.851,0,49.7.016c.672,0,.865-.133.863-.841q-.039-16.662-.018-33.325,0-3.4,0-6.794c0-.3.043-.588-.321-.787-1.439-.788-2.857-1.611-4.283-2.421m12.888.146c-.054-.325-.363-.357-.569-.477Q53.7,12.049,37.221,2.525a1,1,0,0,0-1.157.032q-8.555,4.965-17.127,9.9Q11.019,17.03,3.094,21.587c-.483.276-.574.477-.257.958a22.742,22.742,0,0,1,1.39,2.412c.289.586.535.629,1.1.3q15.015-8.7,30.05-17.374a2.276,2.276,0,0,1,2.543-.012c1.2.727,2.432,1.405,3.649,2.107q13.2,7.626,26.4,15.263c.521.3.805.371,1.112-.264.422-.877.961-1.7,1.449-2.544.071-.123.139-.248.211-.377M36.672,70.16H65.14a4.773,4.773,0,0,1,.5,0c.324.034.419-.122.4-.418a2.672,2.672,0,0,1,0-.642c.137-.774-.211-.914-.928-.913q-28.4.029-56.793.015c-1.04,0-1.04,0-1.04,1.065a.37.37,0,0,1,0,.071c-.144.718.19.835.852.833q14.27-.034,28.539-.015" transform="translate(0 0)" fill="#040404"/>
        <path id="Trazado_654644" data-name="Trazado 654644" d="M53.777,93.373c-.086-1.112.109-1.379,1.2-1.646a7.244,7.244,0,0,1,8.9,7.141c-.05,2.047-.255,4.092-.418,6.135a5.981,5.981,0,0,1-2.183,4.044c-.212.189-.425.342-.433.689-.011.493.093.775.667.723a7.3,7.3,0,0,1,1.358,0c.48.047.557-.156.515-.573a5.842,5.842,0,0,1,.077-2.2,4.8,4.8,0,0,1,8.389-1.8c.117.142.231.287.391.486a8.214,8.214,0,0,0,.237-2.249c.036-1.6-.024-3.193-.132-4.788a7.243,7.243,0,0,1,14.29-2.13,8.327,8.327,0,0,1,.151,2.486,30.181,30.181,0,0,0,.067,6.495,9.807,9.807,0,0,0,1.97,4.535c.125.164.21.386.465.407a5.779,5.779,0,0,1,2.83,5.305c-.024.819-.268,1.108-1.1,1.312-.885-.245-1.031-.453-1.048-1.5a3.375,3.375,0,0,0-3.121-3.611,5.167,5.167,0,0,0-3.953.754,5.526,5.526,0,0,1-1,.549,4.974,4.974,0,0,1-4.669-.009c-.68-.343-1.342-.72-2.006-1.094-.763-.431-1.585-.166-2.38-.218a.237.237,0,0,0-.231.234,4.865,4.865,0,0,1-1.425,2.591c.338,0,.546,0,.755,0a3.829,3.829,0,0,1,4.149,4.138c0,.977.013,1.955-.006,2.931-.007.354.076.5.469.5q4.433-.022,8.866,0c.377,0,.492-.118.484-.488-.021-.977-.019-1.954,0-2.931.013-.769.447-1.26,1.073-1.267s1.057.478,1.068,1.252c.013.953,0,1.907.007,2.86,0,.181-.081.491.111.513a4.836,4.836,0,0,0,1.63.005c.39-.091.16-.58.17-.883.034-1.035.135-1.208,1.056-1.515.874.26,1.09.527,1.1,1.4.007.568.024,1.138-.007,1.7a1.452,1.452,0,0,1-1.553,1.492c-.662.017-1.325.016-1.988.024-.286-.007-.572-.021-.857-.021H46.135c-1.612,0-2.045-.428-2.045-2.027,0-2.266-.006-4.532,0-6.8a5.57,5.57,0,0,1,5.884-5.871c.572,0,1.145.012,1.717-.006.24-.008.6.136.673-.212s.18-.759-.2-1.053a6.663,6.663,0,0,1-1.356-1.464,5.714,5.714,0,0,1-1.018-2.93c-.126-1.784-.262-3.567-.392-5.35a7.412,7.412,0,0,1,.5-3.293c.387-.984.741-1.17,1.745-.914a1.423,1.423,0,0,1,.275,1.7,4.331,4.331,0,0,0-.266,2.783,4.071,4.071,0,0,0,1.3-1.865,6.8,6.8,0,0,1,.467-1.036,1.3,1.3,0,0,1,2.322-.282,11.888,11.888,0,0,0,5.494,3.3c.359.1.423.054.463-.3a5.1,5.1,0,0,0-6.277-5.683,1.438,1.438,0,0,1-1.642-.467m11.287,22.069a4.547,4.547,0,0,1-1.457-2.563c-.038-.3-.273-.255-.488-.284a4.8,4.8,0,0,0-3.356.9,5.3,5.3,0,0,1-6.234,0,5.8,5.8,0,0,0-3.57-.921,3.489,3.489,0,0,0-3.721,3.775c0,1.765,0,3.53,0,5.3,0,1.39,0,1.366,1.392,1.365.471,0,.55-.169.539-.582-.027-.93-.015-1.86-.006-2.791.009-.832.421-1.328,1.074-1.32s1.059.51,1.069,1.342c.012.954.019,1.908,0,2.862-.009.374.1.484.481.482q4.437-.022,8.873,0c.385,0,.48-.123.473-.488-.021-1.1-.032-2.2,0-3.291a3.78,3.78,0,0,1,3.776-3.786c.331-.011.663,0,1.162,0m19.362-13.093c.028-.562.034-.574-.7-.923A5.642,5.642,0,0,1,81.09,99c-.2-.369-.363-.4-.7-.2a17.174,17.174,0,0,1-5.343,2.107c-.39.079-.425.249-.4.58.08.925.162,1.851.185,2.778.053,2.118,1.386,3.267,3.059,4.212,1.6.906,2.978.345,4.3-.586a4.278,4.278,0,0,0,2.058-3.109c.069-.711.1-1.425.173-2.442M56.8,108.971c.067-.014.254-.044.437-.091a5.183,5.183,0,0,0,4.151-5.095c.072-1.391-.091-1.719-1.158-2.037a12.806,12.806,0,0,1-4.957-2.72c-.275-.246-.392-.237-.543.115a5.181,5.181,0,0,1-1.573,2.178,3.218,3.218,0,0,0-1.237,3.395,5.6,5.6,0,0,0,4.88,4.255m17.141,11.942c0-.524.005-1.049,0-1.573a1.7,1.7,0,0,0-.625-1.383c-.534-.431-.8-.391-1.164.175a4.794,4.794,0,0,1-8.058.058c-.417-.631-.758-.666-1.31-.137a1.783,1.783,0,0,0-.517,1.362c0,.906.055,1.816-.017,2.716-.059.735.178.9.893.9.758-.006.528-.472.557-.846a1.116,1.116,0,0,1,1.09-1.176c.62,0,1.026.459,1.055,1.188a1.641,1.641,0,0,1,0,.286c-.056.4.1.541.511.529,1-.028,2-.056,3,.006.757.047,1.135-.091,1.034-.969a.925.925,0,0,1,.961-1.028,1,1,0,0,1,1.119.885,5.065,5.065,0,0,1,.042.711c.011.152-.045.312.2.387.8.246,1.231-.048,1.232-.873q0-.608,0-1.216M84.682,98.754a5.108,5.108,0,0,0-10.193-.465c-.048.5.062.541.527.434a20.612,20.612,0,0,0,5.213-2.262,1.525,1.525,0,0,1,2.439.892,3.721,3.721,0,0,0,1.309,1.74c.18.128.367.4.612.242.188-.119.062-.4.092-.582M68.154,110.23v0c-.714,0-1.431.029-2.143-.011-.4-.023-.491.1-.443.476.069.543.074,1.093.129,1.638a2.865,2.865,0,0,0,2.39,2.219,2.873,2.873,0,0,0,2.419-2.188c.063-.568.069-1.142.136-1.71.041-.35-.056-.453-.415-.436-.689.032-1.381.009-2.072.009m-.061-2.14v.006c.642,0,1.284,0,1.926,0,.462,0,.632-.164.347-.595a2.657,2.657,0,0,0-4.558.05c-.225.351-.121.533.287.537.666.007,1.332,0,2,0m11.252,4.276a4.414,4.414,0,0,0,2.429-.809c.348-.2.022-.406-.006-.6-.032-.227-.161-.321-.4-.22a4.5,4.5,0,0,1-3.6.005c-.222-.092-.364-.059-.4.205-.028.205-.344.417-.011.612a4.457,4.457,0,0,0,1.987.811m-22.371.005a4.721,4.721,0,0,0,1.832-.792c.328-.19.091-.4.042-.613-.053-.226-.156-.332-.4-.231a4.536,4.536,0,0,1-3.608,0c-.241-.1-.368,0-.407.222-.035.2-.343.407.008.606a4.645,4.645,0,0,0,2.532.806m9.345,5.133a2.615,2.615,0,0,0,3.309.227c.275-.2.31-.28.036-.561-.4-.415-.759-.7-1.381-.492a1.664,1.664,0,0,1-.84-.064.423.423,0,0,0-.533.2,7.322,7.322,0,0,1-.591.687m6.783-7.047c.591,0,1.087.009,1.582,0,.242-.007.579.1.639-.267.05-.313.144-.661-.153-.933-.365-.333-.724-.67-1.113-1.031l-.955,2.235m11.983-2.246c-.378.352-.736.691-1.1,1.024-.318.292-.215.669-.148.994.071.347.424.211.663.219.487.018.975.005,1.532.005l-.947-2.243" transform="translate(-31.443 -65.275)" fill="#030303"/>
        <path id="Trazado_654645" data-name="Trazado 654645" d="M84.123,114.376c.663-.007,1.326-.007,1.988-.024a1.452,1.452,0,0,0,1.552-1.492c.031-.567.014-1.137.007-1.7-.011-.869-.227-1.136-1.1-1.4q0-1.407,0-2.814c.832-.2,1.076-.493,1.1-1.312a5.779,5.779,0,0,0-2.83-5.305q.008-11.969.017-23.939c1.426.81,2.845,1.633,4.283,2.421.364.2.321.483.321.787q0,3.4,0,6.794,0,16.662.018,33.325c0,.708-.191.842-.863.841q-24.851-.03-49.7-.016c-1.061,0-1.063,0-1.058-1.039,0-.237.023-.474.036-.711q19.857,0,39.713,0a7.213,7.213,0,0,0,6.518-4.412" transform="translate(-26.999 -54.482)" fill="#b8ced3"/>
        <path id="Trazado_654646" data-name="Trazado 654646" d="M72.276,97.971a1.438,1.438,0,0,0,1.642.467,5.1,5.1,0,0,1,6.277,5.683c-.04.359-.1.406-.463.3a11.887,11.887,0,0,1-5.495-3.3c-.847-.886-1.692-.769-2.322.282a6.83,6.83,0,0,0-.467,1.037,4.069,4.069,0,0,1-1.3,1.864,4.331,4.331,0,0,1,.266-2.783,1.423,1.423,0,0,0-.275-1.7,4.529,4.529,0,0,1,2.135-1.857" transform="translate(-49.941 -69.873)" fill="#63757d"/>
        <path id="Trazado_654647" data-name="Trazado 654647" d="M77.34,27.914c-.072.128-.14.254-.211.377-.488.845-1.026,1.667-1.449,2.544-.306.636-.59.566-1.112.264q-13.192-7.648-26.4-15.263c-1.216-.7-2.448-1.38-3.649-2.107a2.275,2.275,0,0,0-2.543.012q-15.019,8.7-30.05,17.374c-.569.33-.814.287-1.1-.3A22.775,22.775,0,0,0,9.43,28.4c-.316-.481-.226-.681.257-.958Q17.621,22.9,25.53,18.32q8.567-4.946,17.127-9.9a1,1,0,0,1,1.157-.032q16.472,9.537,32.957,19.052c.206.119.515.152.569.477" transform="translate(-6.594 -5.859)" fill="#a2c4f3"/>
        <path id="Trazado_654648" data-name="Trazado 654648" d="M54.7,239.737q-14.27,0-28.539.015c-.662,0-1-.115-.852-.833a.37.37,0,0,0,0-.071c0-1.065,0-1.065,1.04-1.065q28.4,0,56.793-.015c.718,0,1.066.139.928.913a2.673,2.673,0,0,0,0,.642c.021.3-.074.452-.4.418a4.775,4.775,0,0,0-.5,0H54.7" transform="translate(-18.025 -169.576)" fill="#e7eaec"/>
        <path id="Trazado_654649" data-name="Trazado 654649" d="M158.4,170.05l0,2.813c-.92.307-1.022.48-1.056,1.515-.01.3.22.792-.17.883a4.844,4.844,0,0,1-1.63-.005c-.192-.023-.11-.333-.111-.513-.007-.953.006-1.907-.007-2.86-.011-.773-.439-1.259-1.068-1.252s-1.059.5-1.073,1.267c-.017.977-.018,1.955,0,2.931.008.37-.107.49-.484.488q-4.433-.02-8.866,0c-.394,0-.476-.146-.469-.5.018-.977.009-1.954.006-2.931a3.828,3.828,0,0,0-4.149-4.138c-.208,0-.417,0-.755,0a4.866,4.866,0,0,0,1.425-2.591.237.237,0,0,1,.231-.233c.795.051,1.617-.213,2.38.218.663.374,1.326.751,2.006,1.094a4.975,4.975,0,0,0,4.669.009,5.533,5.533,0,0,0,1-.549,5.167,5.167,0,0,1,3.953-.754,3.375,3.375,0,0,1,3.121,3.611c.017,1.044.162,1.252,1.048,1.5" transform="translate(-98.825 -117.586)" fill="#d28386"/>
        <path id="Trazado_654650" data-name="Trazado 654650" d="M70.407,167.744c-.5,0-.831-.01-1.162,0a3.78,3.78,0,0,0-3.776,3.786c-.031,1.1-.02,2.194,0,3.291.007.365-.087.49-.473.488q-4.437-.023-8.873,0c-.376,0-.49-.108-.481-.482.024-.954.017-1.908,0-2.862-.01-.832-.421-1.334-1.069-1.342s-1.065.487-1.074,1.32c-.009.93-.021,1.861.006,2.791.012.413-.068.581-.539.582-1.392,0-1.392.026-1.392-1.365,0-1.765,0-3.53,0-5.3a3.489,3.489,0,0,1,3.721-3.775,5.793,5.793,0,0,1,3.57.921,5.3,5.3,0,0,0,6.234,0,4.8,4.8,0,0,1,3.356-.9c.215.03.451-.012.488.284a4.547,4.547,0,0,0,1.457,2.563" transform="translate(-36.786 -117.577)" fill="#a2c3f3"/>
        <path id="Trazado_654651" data-name="Trazado 654651" d="M160.4,120.154c-.071,1.017-.1,1.731-.173,2.442a4.278,4.278,0,0,1-2.058,3.109c-1.325.931-2.7,1.492-4.3.586-1.674-.945-3.006-2.094-3.059-4.212-.023-.927-.1-1.854-.185-2.778-.029-.331.006-.5.4-.58a17.17,17.17,0,0,0,5.343-2.107c.341-.2.5-.174.7.2a5.644,5.644,0,0,0,2.632,2.422c.738.349.732.362.7.923m-2.942,1.368c0-.1,0-.191,0-.286-.037-.768-.4-1.185-1.036-1.2s-1.031.338-1.095,1.13a.709.709,0,0,1-.4.6,1.057,1.057,0,0,0,.717,1.915,1.938,1.938,0,0,0,1.813-2.15" transform="translate(-107.421 -83.08)" fill="#f9eddb"/>
        <path id="Trazado_654652" data-name="Trazado 654652" d="M76.127,127.211a5.6,5.6,0,0,1-4.88-4.255,3.218,3.218,0,0,1,1.237-3.395,5.18,5.18,0,0,0,1.573-2.178c.151-.352.268-.362.543-.116a12.806,12.806,0,0,0,4.957,2.72c1.066.319,1.229.646,1.158,2.037a5.184,5.184,0,0,1-4.151,5.095c-.183.047-.37.078-.437.092m1.746-5.244c0-.1,0-.191,0-.286-.023-.773-.371-1.19-1.013-1.215s-1.056.354-1.119,1.117a.715.715,0,0,1-.376.607.983.983,0,0,0-.377,1.259,1.007,1.007,0,0,0,1.076.657,1.917,1.917,0,0,0,1.811-2.139" transform="translate(-50.772 -83.515)" fill="#d4ab9f"/>
        <path id="Trazado_654653" data-name="Trazado 654653" d="M119.08,185.921q0,.608,0,1.216c0,.826-.431,1.119-1.232.873-.243-.075-.187-.235-.2-.387a4.979,4.979,0,0,0-.042-.711,1,1,0,0,0-1.119-.885.925.925,0,0,0-.961,1.028c.1.879-.277,1.016-1.034.969-1-.062-2-.034-3-.006-.415.011-.567-.13-.511-.529a1.61,1.61,0,0,0,0-.286c-.029-.73-.434-1.186-1.055-1.188a1.115,1.115,0,0,0-1.09,1.176c-.029.375.2.84-.557.846-.715.005-.952-.164-.893-.9.073-.9.018-1.81.017-2.716a1.781,1.781,0,0,1,.517-1.361c.551-.53.893-.494,1.309.136a4.794,4.794,0,0,0,8.058-.058c.367-.566.63-.605,1.164-.175a1.706,1.706,0,0,1,.626,1.383c.007.524,0,1.049,0,1.573" transform="translate(-76.583 -130.284)" fill="#9fcea4"/>
        <path id="Trazado_654654" data-name="Trazado 654654" d="M160.26,104.1c-.031.184.1.463-.092.582-.245.155-.433-.114-.612-.242a3.722,3.722,0,0,1-1.309-1.74,1.525,1.525,0,0,0-2.439-.892,20.608,20.608,0,0,1-5.213,2.262c-.465.107-.575.066-.527-.434a5.108,5.108,0,0,1,10.193.465" transform="translate(-107.021 -70.624)" fill="#f2cb72"/>
        <path id="Trazado_654655" data-name="Trazado 654655" d="M121.541,156.717c.691,0,1.383.023,2.072-.009.359-.017.456.085.415.436-.067.567-.073,1.141-.136,1.709a2.414,2.414,0,0,1-4.809-.031c-.055-.545-.06-1.1-.129-1.638-.048-.377.04-.5.444-.476.712.04,1.429.011,2.143.011v0" transform="translate(-84.83 -111.763)" fill="#f9eddb"/>
        <path id="Trazado_654656" data-name="Trazado 654656" d="M121.823,144.671c-.666,0-1.332,0-2,0-.408,0-.512-.186-.287-.537a2.657,2.657,0,0,1,4.558-.05c.284.43.115.6-.347.595-.642,0-1.284,0-1.926,0v-.005" transform="translate(-85.172 -101.857)" fill="#63757d"/>
        <path id="Trazado_654657" data-name="Trazado 654657" d="M161.707,160.027a4.457,4.457,0,0,1-1.987-.811c-.333-.2-.018-.407.01-.612.036-.265.178-.3.4-.205a4.5,4.5,0,0,0,3.6-.005c.24-.1.369-.007.4.22.028.2.354.4.006.6a4.419,4.419,0,0,1-2.429.809" transform="translate(-113.805 -112.937)" fill="#efd9bc"/>
        <path id="Trazado_654658" data-name="Trazado 654658" d="M82.31,160.045a4.646,4.646,0,0,1-2.532-.806c-.351-.2-.043-.407-.009-.606.039-.223.166-.323.407-.223a4.535,4.535,0,0,0,3.608,0c.244-.1.346.005.4.232.05.211.286.423-.042.613a4.721,4.721,0,0,1-1.832.792" transform="translate(-56.779 -112.95)" fill="#c39687"/>
        <path id="Trazado_654659" data-name="Trazado 654659" d="M121.606,179.835a7.318,7.318,0,0,0,.591-.687.424.424,0,0,1,.533-.2,1.664,1.664,0,0,0,.84.064c.623-.2.977.077,1.381.493.274.281.239.361-.036.561a2.615,2.615,0,0,1-3.309-.228" transform="translate(-86.73 -127.607)" fill="#efd9bc"/>
        <path id="Trazado_654660" data-name="Trazado 654660" d="M145.256,151.981l.955-2.235c.388.361.748.7,1.113,1.031.3.272.2.619.153.933-.059.372-.4.261-.639.267-.5.014-.991,0-1.582,0" transform="translate(-103.597 -106.799)" fill="#f2cb72"/>
        <path id="Trazado_654661" data-name="Trazado 654661" d="M183.759,149.705l.947,2.243c-.558,0-1.045.013-1.532-.005-.238-.009-.591.128-.662-.219-.067-.325-.17-.7.148-.994.364-.333.722-.672,1.1-1.024" transform="translate(-130.117 -106.77)" fill="#f2cb72"/>
        <path id="Trazado_654662" data-name="Trazado 654662" d="M167.061,130.329a1.939,1.939,0,0,1-1.814,2.15,1.057,1.057,0,0,1-.717-1.915.71.71,0,0,0,.4-.6c.064-.792.447-1.15,1.1-1.13s1,.437,1.035,1.2c0,.1,0,.191,0,.286" transform="translate(-117.02 -91.887)" fill="#040404"/>
        <path id="Trazado_654663" data-name="Trazado 654663" d="M87.1,130.341a1.917,1.917,0,0,1-1.811,2.139,1.007,1.007,0,0,1-1.075-.657.983.983,0,0,1,.377-1.259.715.715,0,0,0,.376-.607c.063-.762.479-1.142,1.12-1.117s.99.442,1.013,1.215c0,.1,0,.191,0,.286" transform="translate(-60 -91.888)" fill="#040404"/>
      </g>
    </g>
  </g>
</svg>
