<svg xmlns="http://www.w3.org/2000/svg" xmlns:xlink="http://www.w3.org/1999/xlink" width="85" height="85" viewBox="0 0 85 85">
  <defs>
    <clipPath id="clip-path">
      <rect id="Rect치ngulo_312972" data-name="Rect치ngulo 312972" width="58.242" height="58.128" fill="none"/>
    </clipPath>
  </defs>
  <g id="Grupo_1071833" data-name="Grupo 1071833" transform="translate(-1335 -6589)">
    <rect id="Rect치ngulo_309092" data-name="Rect치ngulo 309092" width="85" height="85" rx="42.5" transform="translate(1335 6589)" fill="#ffd357"/>
    <g id="Grupo_1071834" data-name="Grupo 1071834" transform="translate(1349.379 6603.436)">
      <g id="Grupo_996261" data-name="Grupo 996261" clip-path="url(#clip-path)">
        <path id="Trazado_659723" data-name="Trazado 659723" d="M29.48,3.658h1.651c.053.87.053.87.941.87q10.977,0,21.954-.01c.463,0,.612.1.606.589-.026,2.356,0,4.714-.023,7.07,0,.464.1.61.586.605,2.147-.02,4.294,0,6.442.011q0,8.959,0,17.918c-.779,0-1.559,0-2.338.007-.215,0-.4,0-.508-.247-.307-.693-.633-1.379-.966-2.06-.132-.271-.036-.325.222-.321.608.009,1.217-.007,1.825.007.263.006.383-.067.366-.352-.02-.341-.015-.684,0-1.026.01-.251-.1-.333-.337-.328a10.358,10.358,0,0,0-1.594.019,1.623,1.623,0,0,1-2.069-1.324c-.134-.426-.235-.589.289-.8a4.5,4.5,0,0,0,2.721-4.838A4.568,4.568,0,1,0,53,24.324c.361.149.372.259.264.633a1.747,1.747,0,0,1-2.274,1.44,2.036,2.036,0,0,0-.4,0c-1.333,0-1.321,0-1.28,1.323.009.3.1.39.393.382.654-.018,1.309-.006,2.044-.006-.413.866-.8,1.645-1.154,2.434-.112.247-.3.186-.48.186q-2.795.006-5.59,0c-.174,0-.485.124-.446-.238.033-.307-.235-.735.331-.867.72-.169,1.431-.374,2.144-.568,1.179-.32,1.152-.315.852-1.509-.1-.409-.271-.413-.593-.323-.893.249-1.791.481-2.685.72-.159-.565-.073-.877.528-1.095a3.783,3.783,0,0,0,2.365-4.266,3.857,3.857,0,0,0-7.527-.256A3.841,3.841,0,0,0,41.5,26.714c.2.1.422.168.632.254.438.18.239.567.211.84-.033.321-.3.08-.445.052-.6-.117-1.186-.257-1.777-.4-1.259-.3-1.247-.3-1.522.952-.076.344.02.457.351.527,1.039.221,2.067.491,3.107.709.538.113.249.5.3.772.069.336-.191.292-.4.292q-4.506,0-9.012,0c-.273,0-.418-.043-.406-.368.024-.626.021-1.255,0-1.882-.01-.309.105-.387.4-.383.95.015,1.9.005,2.852.005,1.237,0,1.223,0,1.212-1.262,0-.351-.1-.453-.451-.445-1.007.022-2.015.008-3.023.008-.98,0-.955,0-.989-.984-.02-.549.076-.827.7-1.024a4.509,4.509,0,0,0,3.02-4.818,4.574,4.574,0,0,0-8.992-.536,4.382,4.382,0,0,0,2.575,5.192,1.324,1.324,0,0,1,1.009,1.68.433.433,0,0,0,0,.114c.046.3-.088.388-.384.383-1.027-.016-2.054-.006-3.08-.006-1.294,0-1.278,0-1.276,1.27,0,.36.105.443.449.437,1.293-.02,2.586,0,3.879-.015.326,0,.43.1.417.419-.022.588-.025,1.179,0,1.768.015.34-.071.465-.436.452-.817-.029-1.635-.009-2.453-.009-.909,0-.909,0-.975.9l-2.107,0c.045-.26.079-.523.139-.781.292-1.261.291-1.244-.959-1.545-.322-.077-.426-.027-.495.292-.148.683-.338,1.357-.511,2.034l-2.015,0c-.008-.436-.023-.872-.024-1.308,0-1.344,0-1.333-1.334-1.263-.31.016-.377.13-.374.411.007.72-.013,1.441-.023,2.161l-2.012.031a18.164,18.164,0,0,0-.521-2.089c-.243-.654-.721-.051-1.085-.057-.18,0-.7-.12-.565.441s.254,1.105.38,1.658l-2.206.014a.843.843,0,0,1-.02-.226c.1-.543-.1-.716-.665-.682-.89.053-1.786-.009-2.678.024-.435.016-.565-.091-.565-.55q.023-12.541,0-25.082c0-.493.143-.579.6-.578q9.292.023,18.584.01c.889,0,.889,0,.936-.869m-9.814,14.06A3.21,3.21,0,1,0,16.445,14.5a3.185,3.185,0,0,0,3.222,3.216m-6.359-2.354h.284c1.283,0,1.269,0,1.246-1.3-.006-.338-.122-.415-.428-.4-.568.019-1.137.005-1.706.005-.863,0-.863,0-.863.861,0,.835,0,.835.842.835h.626m12.9,0A5.856,5.856,0,0,0,27.4,15.35c.752-.159.187-.772.322-1.158.068-.2.15-.545-.321-.53-.776.025-1.554.011-2.331,0-.2,0-.291.045-.316.277-.152,1.389-.132,1.421,1.228,1.421h.227M20.517,7.9c0-.379-.007-.758,0-1.136.006-.232-.068-.323-.32-.346-1.38-.122-1.379-.13-1.379,1.212V8.2c0,1.282,0,1.273,1.307,1.223.286-.011.414-.078.4-.386-.022-.377-.005-.757-.005-1.136M16.6,18.725a.565.565,0,0,0-.066-.128,4.734,4.734,0,0,0-1.08-.986c-.2-.1-.479.412-.733.635-.171.15-.324.32-.485.48-.941.94-.935.933.063,1.858.2.185.3.2.494,0,.522-.55,1.069-1.076,1.6-1.614.077-.077.141-.167.2-.242m3.916,2.4v-.284c0-1.316,0-1.307-1.352-1.24-.273.013-.357.093-.35.36.016.587,0,1.174,0,1.762,0,.865,0,.865.86.865.838,0,.838,0,.838-.837v-.625m4.265-.371a.448.448,0,0,0,.1-.058,4.335,4.335,0,0,0,.976-1.081c.1-.231-.43-.5-.661-.77-.136-.158-.293-.3-.44-.444-.949-.95-.941-.943-1.864.061-.192.208-.175.318.014.5.546.526,1.075,1.07,1.615,1.6.076.075.129.194.262.19M25.914,9.437a5.428,5.428,0,0,0-1.145-1.171.852.852,0,0,0-.263.2c-.325.318-.645.642-.967.964-.919.919-.911.911.049,1.822.218.207.338.212.543,0,.523-.549,1.068-1.077,1.6-1.614.066-.066.127-.137.178-.193m-11.095-1.2a.727.727,0,0,0-.135.087c-.342.352-.806.657-.975,1.079-.1.243.451.524.694.8.124.142.266.269.4.4.973.972.965.965,1.9-.078.175-.2.147-.29-.015-.448C16.116,9.526,15.558,8.959,15,8.4c-.053-.053-.112-.1-.176-.159M42.275,9.823c.865,0,.871,0,.864-.717-.01-1.092.137-.993-.758-.991-1.056,0-.948-.138-.947.8,0,1.03-.129.894.841.908M39.725,9c-.012-.977.122-.893-.747-.89-1.056,0-.964-.134-.961.731,0,1.09-.137.975.773.974,1.051,0,.921.135.935-.815m6.746-.029c0-.863,0-.868-.719-.863-1,.007-.9-.121-.9.789,0,1.007-.125.919.773.918.956,0,.838.112.849-.844" transform="translate(-7.223 -2.822)" fill="#9ad4f0"/>
        <path id="Trazado_659724" data-name="Trazado 659724" d="M24.911,126.064l2.107,0a.837.837,0,0,1,.023.225c-.081.469.093.632.578.591.559-.047,1.125-.011,1.813-.011-.8.955-1.528,1.823-2.259,2.685-.793.935-.78.916.147,1.736.325.287.462.2.7-.088,1.087-1.321,2.21-2.613,3.293-3.938.31-.378.473-.473.83-.023.908,1.147,1.877,2.246,2.82,3.365.844,1,.836.992,1.816.148.246-.212.264-.338.05-.583-.714-.815-1.408-1.647-2.1-2.482a3.157,3.157,0,0,1-.6-.8h7.705c-.779.928-1.5,1.8-2.233,2.661-.791.94-.777.923.143,1.733.321.283.46.206.7-.085.912-1.115,1.851-2.208,2.812-3.347.834.989,1.642,1.945,2.448,2.9.691.823.671.8,1.539.128.4-.31.414-.494.078-.87-.892-1-1.735-2.041-2.668-3.149,2.394,0,4.67,0,6.946,0,.316,0,.291.134.2.348-.337.784-.669,1.57-1,2.356-.491,1.154-.486,1.14.64,1.624.335.144.486.117.628-.244.353-.9.751-1.783,1.13-2.673.618-1.451.617-1.443,2.179-1.415a.5.5,0,0,1,.545.365c.389.988.8,1.967,1.21,2.948.52,1.256.517,1.245,1.742.684.287-.131.291-.254.18-.513-.442-1.028-.85-2.07-1.295-3.1-.135-.312-.08-.388.252-.384,1.217.014,2.434.007,3.651.008q0,3.574-.006,7.148c-.228.006-.455.016-.683.016H28.544c-.864,0-.864,0-.917.828l-2.265-.005c-.166-.545.2-.89.478-1.267.683-.926.665-.9-.221-1.611-.384-.306-.605-.275-.806.144a3.522,3.522,0,0,1-3.3,1.864c-3.913.129-7.832.044-11.749.053-.306,0-.383-.1-.382-.39q.015-3.194,0-6.389c0-.336.115-.409.424-.4.874.018,1.749.006,2.624.006.824,0,.824,0,.876-.809l2.206-.014c.126.513.275,1.021.369,1.539.057.308.193.348.466.3,1.286-.211,1.286-.206,1.021-1.463-.023-.11-.043-.221-.065-.332l2.012-.031c.01.341.022.681.028,1.022,0,.181,0,.349.259.34a3.435,3.435,0,0,0,1.337-.073c.291-.149.06-.7.107-1.066.01-.075.016-.15.024-.225l2.015,0a1.988,1.988,0,0,1-.021.282c-.278,1.269-.277,1.261,1.027,1.522.271.055.37-.017.428-.271.118-.515.26-1.024.392-1.535" transform="translate(-7.24 -97.275)" fill="#8ddfbf"/>
        <path id="Trazado_659725" data-name="Trazado 659725" d="M6.066,28.787c-.053.809-.053.809-.877.809-.874,0-1.749.012-2.624-.006-.309-.006-.426.066-.424.4q.022,3.194,0,6.389c0,.292.076.391.382.39,3.917-.01,7.836.076,11.749-.053a3.521,3.521,0,0,0,3.3-1.864c.2-.419.422-.45.806-.144.886.707.9.684.221,1.61-.278.377-.643.722-.478,1.267-.18,1.475-.076,2.961-.173,4.439a1.57,1.57,0,0,1-.305.887q-5.511,7.438-11,14.9c-.311.425-.483.391-.857.108q-2.727-2.061-5.5-4.061c-.363-.262-.374-.416-.115-.766q5.214-7.019,10.4-14.06c.12-.162.236-.326.41-.566h-.7c-3.1,0-6.2-.01-9.3.011-.456,0-.557-.125-.557-.566Q.452,19.233.434.559C.433.114.543,0,.99,0Q11.169.023,21.348.01c.865,0,.865,0,.909.825-.047.869-.047.869-.936.869q-9.292,0-18.584-.011c-.457,0-.6.085-.6.578q.026,12.541,0,25.082c0,.459.13.566.565.55.892-.033,1.788.029,2.678-.024.56-.034.762.139.665.682a.853.853,0,0,0,.021.226m9.087,9.579a15.226,15.226,0,0,0-1.945.641,4.242,4.242,0,0,0,1.839,1.759,2.419,2.419,0,0,0,.759.357c.349.153.51.1.493-.33-.022-.566.009-1.133.023-1.7.032-1.267.034-1.267-1.169-.727M5.114,55.253c.79.677.789.677,1.392-.14l8.4-11.366c.678-.918.678-.918-.417-1.28a6.981,6.981,0,0,1-2.552-2.277c-.226.081-.3.271-.407.418-.85,1.141-1.691,2.287-2.537,3.43q-3.228,4.369-6.464,8.733c-.233.313-.244.461.1.691.846.572,1.661,1.19,2.489,1.79" transform="translate(0 0)" fill="#030303"/>
        <path id="Trazado_659726" data-name="Trazado 659726" d="M89.313,37.594c.053-.828.053-.828.917-.828h32.415c.227,0,.455-.01.682-.016.359.006.72-.006,1.077.022.333.026.413-.111.412-.425-.015-2.555-.016-5.111-.021-7.666.005-.209.014-.418.014-.626q0-8.353,0-16.706c0-1.465,0-1.465-1.471-1.376-2.147-.007-4.295-.031-6.441-.01-.485,0-.591-.141-.586-.605.024-2.357,0-4.714.023-7.07.005-.486-.143-.59-.606-.589q-10.977.022-21.954.01c-.888,0-.888,0-.941-.87.05-.825.05-.825.914-.825q11.605,0,23.211-.01a1.292,1.292,0,0,1,.993.409q4.076,3.988,8.179,7.947a1.117,1.117,0,0,1,.393.879q-.018,14.314,0,28.628c0,.531-.158.611-.637.61q-17.822-.02-35.644-.01c-.878,0-.878,0-.934-.872m28.7-34.746c0,1.826,0,3.469,0,5.112,0,.175.044.289.252.289,1.715,0,3.431,0,5.3,0l-5.555-5.4" transform="translate(-68.926 -0.002)" fill="#040505"/>
        <path id="Trazado_659727" data-name="Trazado 659727" d="M156.827,180.779a1.407,1.407,0,0,0,.1-.324c.027-.367.19-.415.531-.327,2.386.615,4.779,1.2,7.166,1.813.436.112,1.084.071,1.245.4.154.316-.143.856-.252,1.3-.5,1.986-1,3.971-1.489,5.958-.074.3-.144.42-.521.325q-9.148-2.323-18.307-4.6a1.046,1.046,0,0,1-.549-.376c-.835-.96-1.723-1.881-2.5-2.889a3.1,3.1,0,0,0-2.213-1.3c-.462-.052-.622-.208-.465-.729.321-1.071.29-1.111,1.357-.793a2.433,2.433,0,0,0,1.7-.089c1.3-.525,2.623-.989,3.928-1.5a1.288,1.288,0,0,1,.827-.05q3.583.906,7.167,1.808c.785.2.785.2.608,1.011-.239.846-.238.84-1.1.62-1.8-.458-3.607-.9-5.4-1.372-.449-.119-.49.011-.465.417a5.972,5.972,0,0,1-.894,3.587c-.065.106-.189.2-.125.367l7.55,1.888c2.538.636,5.078,1.262,7.61,1.921.387.1.476.01.559-.347.27-1.163.562-2.322.886-3.471.114-.405.025-.544-.378-.642-1.952-.474-3.9-.978-5.845-1.474-.906-.23-.906-.232-.732-1.131m-13.527-.087c.68.78,1.329,1.493,1.939,2.238.269.328.384.215.564-.064a4.4,4.4,0,0,0,.626-3.35l-3.129,1.176" transform="translate(-107.675 -137.021)" fill="#030404"/>
        <path id="Trazado_659728" data-name="Trazado 659728" d="M182.645,187.777c-.174.9-.174.9.732,1.131,1.947.5,3.892,1,5.845,1.474.4.1.493.236.378.642-.324,1.149-.616,2.308-.886,3.471-.083.357-.172.448-.559.347-2.532-.659-5.072-1.285-7.61-1.921L173,191.031c-.064-.169.059-.261.125-.367a5.973,5.973,0,0,0,.894-3.587c-.025-.406.015-.536.465-.417,1.8.475,3.6.914,5.4,1.372.866.22.864.226,1.1-.62a7,7,0,0,0,1.658.364" transform="translate(-133.493 -144.019)" fill="#94d1ee"/>
        <path id="Trazado_659729" data-name="Trazado 659729" d="M118.284,72.516c-1.217,0-2.434.006-3.651-.008-.333,0-.387.072-.252.384.444,1.027.853,2.069,1.295,3.1.111.259.107.382-.18.513-1.225.561-1.221.571-1.742-.684-.407-.981-.821-1.959-1.21-2.948a.5.5,0,0,0-.545-.365c-1.562-.028-1.562-.036-2.179,1.416-.379.89-.777,1.772-1.13,2.673-.142.361-.293.388-.628.244-1.126-.484-1.132-.47-.64-1.624.334-.785.666-1.572,1-2.356.092-.214.117-.349-.2-.348-2.276.007-4.551,0-6.946,0,.933,1.108,1.776,2.15,2.668,3.149.336.376.322.56-.078.87-.868.672-.847.7-1.539-.128-.805-.959-1.614-1.915-2.447-2.9-.961,1.139-1.9,2.232-2.812,3.347-.238.291-.377.368-.7.085-.921-.81-.934-.793-.143-1.733.728-.866,1.454-1.733,2.233-2.661H90.757a3.155,3.155,0,0,0,.6.8c.691.835,1.386,1.667,2.1,2.482.214.245.2.37-.05.583-.98.844-.972.853-1.815-.148-.944-1.119-1.913-2.218-2.821-3.366-.356-.45-.521-.355-.83.023-1.083,1.325-2.205,2.617-3.293,3.938-.236.286-.373.375-.7.088-.927-.82-.94-.8-.147-1.736.731-.862,1.456-1.73,2.259-2.685-.688,0-1.254-.036-1.813.011-.486.041-.659-.122-.578-.591a.846.846,0,0,0-.024-.225c.066-.9.066-.9.975-.9.818,0,1.636-.02,2.452.009.365.013.451-.112.436-.452-.026-.588-.023-1.179,0-1.767.012-.323-.091-.423-.417-.419-1.293.017-2.586-.005-3.878.015-.344.005-.449-.077-.45-.438,0-1.269-.018-1.269,1.276-1.269,1.027,0,2.053-.01,3.08.006.3,0,.43-.079.384-.383a.414.414,0,0,1,0-.114,1.325,1.325,0,0,0-1.009-1.68,4.382,4.382,0,0,1-2.575-5.191,4.574,4.574,0,0,1,8.992.536,4.509,4.509,0,0,1-3.02,4.818c-.623.2-.719.475-.7,1.024.035.983.01.984.989.984,1.008,0,2.016.014,3.023-.008.348-.008.448.094.451.445.011,1.262.025,1.262-1.212,1.262-.951,0-1.9.009-2.852-.005-.291,0-.406.074-.4.383.021.627.023,1.255,0,1.882-.012.325.133.369.406.368q4.506-.01,9.012,0c.206,0,.466.045.4-.292-.055-.268.234-.659-.3-.772-1.039-.218-2.068-.489-3.107-.709-.331-.07-.426-.183-.351-.527.275-1.248.262-1.249,1.522-.952.591.139,1.182.28,1.777.4.145.029.412.269.445-.052.028-.273.226-.659-.211-.84-.21-.087-.429-.154-.632-.254a3.855,3.855,0,0,1,1.888-7.3,3.9,3.9,0,0,1,3.634,3.147,3.783,3.783,0,0,1-2.365,4.266c-.6.218-.687.53-.528,1.095.895-.239,1.792-.471,2.685-.72.322-.09.49-.085.593.323.3,1.195.326,1.189-.852,1.509-.714.194-1.425.4-2.145.568-.566.133-.3.561-.331.867-.039.362.272.237.446.238q2.795.013,5.59,0c.176,0,.368.06.48-.186.359-.789.741-1.568,1.154-2.434-.734,0-1.389-.012-2.044.006-.292.008-.383-.079-.393-.382-.041-1.323-.052-1.322,1.28-1.322a2.036,2.036,0,0,1,.4,0,1.747,1.747,0,0,0,2.274-1.44c.108-.374.1-.485-.264-.633a4.571,4.571,0,1,1,3.518-.038c-.524.21-.423.374-.289.8a1.623,1.623,0,0,0,2.069,1.324,10.417,10.417,0,0,1,1.594-.019c.241-.005.347.078.337.328-.013.342-.019.685,0,1.026.017.284-.1.358-.366.352-.608-.014-1.217,0-1.825-.007-.257,0-.354.05-.222.321.333.682.659,1.367.966,2.06.111.251.293.248.508.247.779-.006,1.559-.005,2.338-.007q.049.453.1.907c-.1.259.038.548-.1.8m-18.491-7a2.142,2.142,0,1,0,.005-4.278,2.141,2.141,0,0,0-.005,4.278M88.616,63.028A2.85,2.85,0,1,0,85.5,60.2a2.812,2.812,0,0,0,3.118,2.833m22.938-5.68a2.861,2.861,0,0,0-3.068,2.849,2.888,2.888,0,1,0,3.068-2.849m-.182,8.566c-.751,1.577-1.457,3.061-2.166,4.544-.131.274,0,.322.244.321,1.27,0,2.54-.011,3.81,0,.359,0,.369-.11.235-.392-.695-1.45-1.379-2.9-2.122-4.477" transform="translate(-63.876 -42.917)" fill="#030304"/>
        <path id="Trazado_659730" data-name="Trazado 659730" d="M238.456,62.394l-.1-.907q0-8.959,0-17.918c1.472-.089,1.472-.089,1.472,1.375q0,8.353,0,16.707c0,.209-.009.418-.014.626-.439.221-.911.055-1.363.117" transform="translate(-183.949 -33.598)" fill="#5fbfe9"/>
        <path id="Trazado_659731" data-name="Trazado 659731" d="M43.617,43.548a3.21,3.21,0,1,1,3.2-3.23,3.2,3.2,0,0,1-3.2,3.23m-.03-1.7a1.507,1.507,0,1,0-1.486-1.53,1.487,1.487,0,0,0,1.486,1.53" transform="translate(-31.174 -28.653)" fill="#030303"/>
        <path id="Trazado_659732" data-name="Trazado 659732" d="M36.664,118.162c.021.111.042.222.065.332.265,1.257.265,1.251-1.021,1.463-.273.045-.41.005-.466-.3-.095-.518-.243-1.027-.369-1.539-.126-.553-.245-1.107-.38-1.658s.385-.444.565-.441c.364.006.842-.6,1.085.057a18.147,18.147,0,0,1,.521,2.089" transform="translate(-26.601 -89.342)" fill="#040505"/>
        <path id="Trazado_659733" data-name="Trazado 659733" d="M70.666,118.146c-.132.511-.275,1.02-.392,1.535-.058.254-.157.325-.428.27-1.3-.262-1.305-.253-1.027-1.522a1.99,1.99,0,0,0,.021-.282c.173-.678.363-1.351.511-2.034.069-.319.173-.37.495-.292,1.249.3,1.25.284.958,1.545-.059.257-.093.52-.139.781" transform="translate(-52.996 -89.358)" fill="#040505"/>
        <path id="Trazado_659734" data-name="Trazado 659734" d="M54.651,117.335c-.008.075-.015.15-.024.226-.047.368.184.917-.107,1.066a3.431,3.431,0,0,1-1.337.073c-.255.008-.256-.159-.259-.34-.005-.341-.018-.681-.028-1.022.01-.72.03-1.441.023-2.161,0-.281.065-.394.374-.411,1.333-.071,1.331-.082,1.334,1.262,0,.436.015.872.024,1.308" transform="translate(-40.822 -88.548)" fill="#040505"/>
        <path id="Trazado_659735" data-name="Trazado 659735" d="M21.688,49.187h-.625c-.842,0-.842,0-.842-.835,0-.861,0-.861.863-.861.569,0,1.138.014,1.706-.005.307-.011.422.066.428.4.023,1.3.037,1.3-1.245,1.3h-.284" transform="translate(-15.605 -36.646)" fill="#040505"/>
        <path id="Trazado_659736" data-name="Trazado 659736" d="M78.038,49.185H77.81c-1.359,0-1.38-.032-1.228-1.421.026-.233.114-.279.316-.277.777.006,1.555.021,2.331,0,.471-.015.389.334.321.53-.135.386.43,1-.322,1.158a5.886,5.886,0,0,1-1.191.014" transform="translate(-59.052 -36.643)" fill="#040505"/>
        <path id="Trazado_659737" data-name="Trazado 659737" d="M52.5,17.062c0,.379-.017.758.005,1.136.018.307-.109.375-.4.386-1.308.05-1.307.058-1.307-1.223v-.568c0-1.342,0-1.334,1.379-1.212.252.022.326.114.32.346-.01.378,0,.757,0,1.136" transform="translate(-39.204 -11.984)" fill="#040505"/>
        <path id="Trazado_659738" data-name="Trazado 659738" d="M30.741,65.86c-.062.074-.126.164-.2.242-.535.538-1.082,1.064-1.6,1.614-.191.2-.294.189-.494,0-1-.925-1-.918-.063-1.858.161-.161.315-.33.485-.48.253-.223.529-.733.733-.635a4.744,4.744,0,0,1,1.08.986.577.577,0,0,1,.066.128" transform="translate(-21.363 -49.957)" fill="#040505"/>
        <path id="Trazado_659739" data-name="Trazado 659739" d="M52.479,74.968v.625c0,.837,0,.837-.838.837-.86,0-.86,0-.86-.865,0-.587.011-1.175,0-1.762-.008-.267.077-.347.35-.36,1.353-.067,1.352-.076,1.352,1.24Z" transform="translate(-39.185 -56.66)" fill="#040505"/>
        <path id="Trazado_659740" data-name="Trazado 659740" d="M70.068,68.246c-.133,0-.186-.115-.262-.189-.54-.533-1.068-1.077-1.615-1.6-.189-.182-.205-.291-.014-.5.923-1,.915-1.011,1.864-.061.147.148.3.287.44.444.231.267.762.538.661.77a4.328,4.328,0,0,1-.976,1.081.429.429,0,0,1-.1.058" transform="translate(-52.51 -50.31)" fill="#030404"/>
        <path id="Trazado_659741" data-name="Trazado 659741" d="M71.553,25.014c-.051.056-.112.127-.178.193-.536.537-1.082,1.064-1.6,1.614-.2.215-.325.21-.543,0-.96-.911-.967-.9-.049-1.822.322-.322.642-.646.967-.964a.843.843,0,0,1,.263-.2,5.433,5.433,0,0,1,1.145,1.171" transform="translate(-52.862 -18.4)" fill="#040505"/>
        <path id="Trazado_659742" data-name="Trazado 659742" d="M29.481,23.728c.065.058.123.106.176.159.563.562,1.121,1.128,1.689,1.684.162.158.19.253.015.448-.933,1.043-.925,1.05-1.9.078-.134-.134-.276-.261-.4-.4-.242-.278-.791-.559-.694-.8.17-.422.633-.727.975-1.079a.715.715,0,0,1,.135-.086" transform="translate(-21.885 -18.312)" fill="#040505"/>
        <path id="Trazado_659743" data-name="Trazado 659743" d="M150.692,24.875c-.97-.014-.84.122-.841-.908,0-.938-.109-.8.947-.8.895,0,.748-.1.758.991.006.717,0,.717-.864.717" transform="translate(-115.641 -17.874)" fill="#fcfcfc"/>
        <path id="Trazado_659744" data-name="Trazado 659744" d="M136.59,24.055c-.014.95.116.814-.935.815-.91,0-.77.116-.773-.974,0-.865-.094-.727.961-.731.869,0,.735-.087.747.89" transform="translate(-104.087 -17.873)" fill="#fcfcfc"/>
        <path id="Trazado_659745" data-name="Trazado 659745" d="M166.433,24.034c-.011.956.106.843-.849.844-.9,0-.771.089-.773-.918,0-.911-.094-.782.9-.789.719-.005.719,0,.719.863" transform="translate(-127.186 -17.88)" fill="#fcfcfc"/>
        <path id="Trazado_659746" data-name="Trazado 659746" d="M238.427,125.75c.452-.062.924.1,1.363-.117,0,2.555.005,5.111.02,7.666,0,.313-.079.45-.412.424-.357-.028-.718-.016-1.077-.022q0-3.574.006-7.148c.137-.255,0-.544.1-.8" transform="translate(-183.92 -96.955)" fill="#55a7a8"/>
        <path id="Trazado_659747" data-name="Trazado 659747" d="M13.092,191.129c-.828-.6-1.643-1.218-2.489-1.79-.341-.231-.331-.379-.1-.691q3.247-4.355,6.464-8.733c.845-1.144,1.687-2.29,2.537-3.43.109-.147.181-.337.407-.418a6.982,6.982,0,0,0,2.552,2.277,2.352,2.352,0,0,1-.162.3q-2.981,4.03-5.964,8.057c-1.088,1.472-2.165,2.953-3.247,4.429" transform="translate(-7.978 -135.876)" fill="#ec7251"/>
        <path id="Trazado_659748" data-name="Trazado 659748" d="M22.4,198.826c1.082-1.477,2.159-2.957,3.247-4.429q2.978-4.031,5.964-8.057a2.354,2.354,0,0,0,.162-.3c1.1.362,1.1.362.417,1.28l-8.4,11.366c-.6.817-.6.818-1.392.14" transform="translate(-17.29 -143.573)" fill="#e54826"/>
        <path id="Trazado_659749" data-name="Trazado 659749" d="M66.021,166.916c1.2-.54,1.2-.54,1.169.727-.015.567-.045,1.135-.023,1.7.017.432-.144.483-.493.33a2.428,2.428,0,0,1-.759-.357,15.7,15.7,0,0,0,.106-2.4" transform="translate(-50.869 -128.55)" fill="#e54826"/>
        <path id="Trazado_659750" data-name="Trazado 659750" d="M59.806,168.074a15.7,15.7,0,0,1-.106,2.4,4.244,4.244,0,0,1-1.838-1.759,15.23,15.23,0,0,1,1.945-.64" transform="translate(-44.653 -129.708)" fill="#ec7251"/>
        <path id="Trazado_659751" data-name="Trazado 659751" d="M215.033,12.469l5.555,5.4c-1.873,0-3.588,0-5.3,0-.209,0-.252-.114-.252-.289,0-1.643,0-3.286,0-5.112" transform="translate(-165.947 -9.623)" fill="#5bbae4"/>
        <path id="Trazado_659752" data-name="Trazado 659752" d="M156.068,187.341l3.129-1.176a4.4,4.4,0,0,1-.626,3.35c-.18.279-.295.392-.564.064-.61-.745-1.259-1.458-1.939-2.238" transform="translate(-120.442 -143.669)" fill="#94d1ee"/>
        <path id="Trazado_659753" data-name="Trazado 659753" d="M198.6,68.864a2.832,2.832,0,0,1-3.174-2.815,2.862,2.862,0,0,1,3.068-2.849,3.83,3.83,0,0,1,1.132,3.928,5.912,5.912,0,0,1-1.026,1.736" transform="translate(-150.814 -48.77)" fill="#fcfcfc"/>
        <path id="Trazado_659754" data-name="Trazado 659754" d="M97.837,68.885a2.85,2.85,0,1,1,0-5.675c.046.06.09.121.139.178a3.859,3.859,0,0,1,1.019,3.33,4.742,4.742,0,0,1-1.158,2.167" transform="translate(-73.098 -48.774)" fill="#fcfcfc"/>
        <path id="Trazado_659755" data-name="Trazado 659755" d="M200.568,100.74c.744,1.572,1.428,3.027,2.122,4.477.135.281.124.4-.235.392-1.27-.014-2.54-.008-3.81,0-.242,0-.375-.047-.244-.321.709-1.483,1.415-2.967,2.166-4.544" transform="translate(-153.073 -77.744)" fill="#ec7251"/>
        <path id="Trazado_659756" data-name="Trazado 659756" d="M150.373,84.517a2.141,2.141,0,0,1,.005-4.278,3.563,3.563,0,0,1,.817,2.286,3.809,3.809,0,0,1-.823,1.992" transform="translate(-114.457 -61.923)" fill="#fcfcfc"/>
        <path id="Trazado_659757" data-name="Trazado 659757" d="M208.97,68.879A5.912,5.912,0,0,0,210,67.143a3.83,3.83,0,0,0-1.132-3.928,2.855,2.855,0,0,1,2.708,2.879,2.807,2.807,0,0,1-2.6,2.784" transform="translate(-161.187 -48.785)" fill="#cad7f2"/>
        <path id="Trazado_659758" data-name="Trazado 659758" d="M108.378,68.913a4.742,4.742,0,0,0,1.158-2.167,3.859,3.859,0,0,0-1.019-3.33c-.05-.057-.093-.119-.139-.178a2.846,2.846,0,0,1,0,5.675" transform="translate(-83.639 -48.803)" fill="#cad7f2"/>
        <path id="Trazado_659759" data-name="Trazado 659759" d="M157.344,84.515a3.809,3.809,0,0,0,.823-1.992,3.563,3.563,0,0,0-.817-2.286,2.142,2.142,0,1,1-.005,4.278" transform="translate(-121.427 -61.92)" fill="#cad7f2"/>
        <path id="Trazado_659760" data-name="Trazado 659760" d="M49.353,47.609a1.507,1.507,0,1,1,1.532-1.485,1.49,1.49,0,0,1-1.532,1.485" transform="translate(-36.94 -34.415)" fill="#f2c080"/>
      </g>
    </g>
  </g>
</svg>
